G04 #@! TF.GenerationSoftware,KiCad,Pcbnew,5.1.4*
G04 #@! TF.CreationDate,2019-09-16T14:45:49+01:00*
G04 #@! TF.ProjectId,z802-3,7a383032-2d33-42e6-9b69-6361645f7063,rev?*
G04 #@! TF.SameCoordinates,Original*
G04 #@! TF.FileFunction,Copper,L2,Bot*
G04 #@! TF.FilePolarity,Positive*
%FSLAX46Y46*%
G04 Gerber Fmt 4.6, Leading zero omitted, Abs format (unit mm)*
G04 Created by KiCad (PCBNEW 5.1.4) date 2019-09-16 14:45:49*
%MOMM*%
%LPD*%
G04 APERTURE LIST*
%ADD10O,1.600000X1.600000*%
%ADD11R,1.600000X1.600000*%
%ADD12R,1.800000X1.800000*%
%ADD13C,1.800000*%
%ADD14R,1.350000X1.350000*%
%ADD15O,1.350000X1.350000*%
%ADD16C,1.600000*%
%ADD17C,2.000000*%
%ADD18C,0.800000*%
%ADD19C,0.250000*%
%ADD20C,0.254000*%
G04 APERTURE END LIST*
D10*
X110236000Y-102870000D03*
X143256000Y-118110000D03*
X112776000Y-102870000D03*
X140716000Y-118110000D03*
X115316000Y-102870000D03*
X138176000Y-118110000D03*
X117856000Y-102870000D03*
X135636000Y-118110000D03*
X120396000Y-102870000D03*
X133096000Y-118110000D03*
X122936000Y-102870000D03*
X130556000Y-118110000D03*
X125476000Y-102870000D03*
X128016000Y-118110000D03*
X128016000Y-102870000D03*
X125476000Y-118110000D03*
X130556000Y-102870000D03*
X122936000Y-118110000D03*
X133096000Y-102870000D03*
X120396000Y-118110000D03*
X135636000Y-102870000D03*
X117856000Y-118110000D03*
X138176000Y-102870000D03*
X115316000Y-118110000D03*
X140716000Y-102870000D03*
X112776000Y-118110000D03*
X143256000Y-102870000D03*
D11*
X110236000Y-118110000D03*
D12*
X130048000Y-129540000D03*
D13*
X132588000Y-129540000D03*
D14*
X161798000Y-174752000D03*
D15*
X161798000Y-176752000D03*
X161798000Y-178752000D03*
D14*
X161798000Y-169164000D03*
D15*
X161798000Y-167164000D03*
X161798000Y-165164000D03*
X161798000Y-163164000D03*
X161798000Y-161164000D03*
X161798000Y-159164000D03*
X161798000Y-157164000D03*
X161798000Y-155164000D03*
D14*
X161798000Y-119380000D03*
D15*
X161798000Y-121380000D03*
X161798000Y-123380000D03*
X161798000Y-125380000D03*
X161798000Y-127380000D03*
X161798000Y-129380000D03*
X161798000Y-131380000D03*
X161798000Y-133380000D03*
X161798000Y-135380000D03*
X161798000Y-137380000D03*
X161798000Y-139380000D03*
X161798000Y-141380000D03*
X161798000Y-143380000D03*
X161798000Y-145380000D03*
X161798000Y-147380000D03*
X161798000Y-149380000D03*
D14*
X154432000Y-178816000D03*
D15*
X152432000Y-178816000D03*
D16*
X151638000Y-129032000D03*
D10*
X144018000Y-129032000D03*
X140970000Y-161798000D03*
D16*
X140970000Y-169418000D03*
X145796000Y-169418000D03*
D10*
X145796000Y-161798000D03*
X152146000Y-144526000D03*
D16*
X152146000Y-152146000D03*
X125222000Y-173736000D03*
D10*
X132842000Y-173736000D03*
D17*
X136144000Y-178236000D03*
X136144000Y-173736000D03*
X142644000Y-178236000D03*
X142644000Y-173736000D03*
D11*
X99568000Y-149098000D03*
D10*
X147828000Y-133858000D03*
X102108000Y-149098000D03*
X145288000Y-133858000D03*
X104648000Y-149098000D03*
X142748000Y-133858000D03*
X107188000Y-149098000D03*
X140208000Y-133858000D03*
X109728000Y-149098000D03*
X137668000Y-133858000D03*
X112268000Y-149098000D03*
X135128000Y-133858000D03*
X114808000Y-149098000D03*
X132588000Y-133858000D03*
X117348000Y-149098000D03*
X130048000Y-133858000D03*
X119888000Y-149098000D03*
X127508000Y-133858000D03*
X122428000Y-149098000D03*
X124968000Y-133858000D03*
X124968000Y-149098000D03*
X122428000Y-133858000D03*
X127508000Y-149098000D03*
X119888000Y-133858000D03*
X130048000Y-149098000D03*
X117348000Y-133858000D03*
X132588000Y-149098000D03*
X114808000Y-133858000D03*
X135128000Y-149098000D03*
X112268000Y-133858000D03*
X137668000Y-149098000D03*
X109728000Y-133858000D03*
X140208000Y-149098000D03*
X107188000Y-133858000D03*
X142748000Y-149098000D03*
X104648000Y-133858000D03*
X145288000Y-149098000D03*
X102108000Y-133858000D03*
X147828000Y-149098000D03*
X99568000Y-133858000D03*
D11*
X154432000Y-76454000D03*
D10*
X162052000Y-91694000D03*
X154432000Y-78994000D03*
X162052000Y-89154000D03*
X154432000Y-81534000D03*
X162052000Y-86614000D03*
X154432000Y-84074000D03*
X162052000Y-84074000D03*
X154432000Y-86614000D03*
X162052000Y-81534000D03*
X154432000Y-89154000D03*
X162052000Y-78994000D03*
X154432000Y-91694000D03*
X162052000Y-76454000D03*
X162052000Y-98298000D03*
X154432000Y-113538000D03*
X162052000Y-100838000D03*
X154432000Y-110998000D03*
X162052000Y-103378000D03*
X154432000Y-108458000D03*
X162052000Y-105918000D03*
X154432000Y-105918000D03*
X162052000Y-108458000D03*
X154432000Y-103378000D03*
X162052000Y-110998000D03*
X154432000Y-100838000D03*
X162052000Y-113538000D03*
D11*
X154432000Y-98298000D03*
D10*
X110236000Y-76708000D03*
X143256000Y-91948000D03*
X112776000Y-76708000D03*
X140716000Y-91948000D03*
X115316000Y-76708000D03*
X138176000Y-91948000D03*
X117856000Y-76708000D03*
X135636000Y-91948000D03*
X120396000Y-76708000D03*
X133096000Y-91948000D03*
X122936000Y-76708000D03*
X130556000Y-91948000D03*
X125476000Y-76708000D03*
X128016000Y-91948000D03*
X128016000Y-76708000D03*
X125476000Y-91948000D03*
X130556000Y-76708000D03*
X122936000Y-91948000D03*
X133096000Y-76708000D03*
X120396000Y-91948000D03*
X135636000Y-76708000D03*
X117856000Y-91948000D03*
X138176000Y-76708000D03*
X115316000Y-91948000D03*
X140716000Y-76708000D03*
X112776000Y-91948000D03*
X143256000Y-76708000D03*
D11*
X110236000Y-91948000D03*
X100584000Y-174498000D03*
D16*
X100584000Y-166878000D03*
X108204000Y-166878000D03*
X108204000Y-174498000D03*
D18*
X141986000Y-127762000D03*
X148844000Y-163322000D03*
X112776000Y-109982000D03*
X148844000Y-168910000D03*
X143256000Y-161544000D03*
X145288000Y-114046000D03*
X146558000Y-151384000D03*
X149352000Y-151384000D03*
X150622000Y-163031000D03*
X152654000Y-164846000D03*
X137414000Y-159512000D03*
X139446000Y-158496000D03*
X132334000Y-157480000D03*
X137668000Y-144272000D03*
X124206000Y-156464000D03*
X157940000Y-159306000D03*
X156972000Y-158242000D03*
X141732000Y-106680000D03*
X155956000Y-157226000D03*
X140716000Y-107950000D03*
X154940000Y-156210000D03*
X140208000Y-109728000D03*
X153894000Y-155164000D03*
X105410000Y-97790000D03*
X102362000Y-107442000D03*
X107188000Y-93218000D03*
X105664000Y-130810000D03*
X108712000Y-138938000D03*
X113538000Y-129286000D03*
X111506000Y-139700000D03*
X100838000Y-97282000D03*
X108204000Y-126746000D03*
X112522000Y-143764000D03*
X102362000Y-143002000D03*
X150114000Y-131826000D03*
X135128000Y-143256000D03*
X140716000Y-96266000D03*
X130556000Y-100076000D03*
X158750000Y-134112000D03*
X151130000Y-135128000D03*
D19*
X143256000Y-118110000D02*
X143256000Y-126492000D01*
X143256000Y-126492000D02*
X141986000Y-127762000D01*
X132588000Y-129540000D02*
X132588000Y-133858000D01*
X161798000Y-174752000D02*
X161798000Y-173827000D01*
X148844000Y-163322000D02*
X147828000Y-162306000D01*
X147828000Y-162306000D02*
X147828000Y-149098000D01*
X112776000Y-102870000D02*
X112776000Y-109982000D01*
X162798001Y-177752001D02*
X162798001Y-179232001D01*
X161798000Y-176752000D02*
X162798001Y-177752001D01*
X162798001Y-179232001D02*
X162278001Y-179752001D01*
X162278001Y-179752001D02*
X159686001Y-179752001D01*
X159686001Y-179752001D02*
X148844000Y-168910000D01*
X141732000Y-137414000D02*
X145288000Y-133858000D01*
X143256000Y-153811002D02*
X139082999Y-149638001D01*
X139082999Y-149638001D02*
X139082999Y-146921001D01*
X139082999Y-146921001D02*
X141732000Y-144272000D01*
X143256000Y-161544000D02*
X143256000Y-153811002D01*
X141732000Y-144272000D02*
X141732000Y-137414000D01*
X145288000Y-114046000D02*
X146558000Y-115316000D01*
X146558000Y-132588000D02*
X147828000Y-133858000D01*
X146558000Y-115316000D02*
X146558000Y-132588000D01*
X145908998Y-151384000D02*
X146558000Y-151384000D01*
X144162999Y-149638001D02*
X145908998Y-151384000D01*
X147828000Y-133858000D02*
X144162999Y-137523001D01*
X144162999Y-137523001D02*
X144162999Y-149638001D01*
X149352000Y-151384000D02*
X149352000Y-161761000D01*
X149352000Y-161761000D02*
X150622000Y-163031000D01*
X152654000Y-164846000D02*
X155702000Y-167894000D01*
X155702000Y-172656000D02*
X161798000Y-178752000D01*
X155702000Y-167894000D02*
X155702000Y-172656000D01*
X134836001Y-117310001D02*
X135636000Y-118110000D01*
X134510999Y-116984999D02*
X134836001Y-117310001D01*
X134510999Y-93073001D02*
X134510999Y-116984999D01*
X135636000Y-91948000D02*
X134510999Y-93073001D01*
X133387999Y-148298001D02*
X132588000Y-149098000D01*
X133713001Y-147972999D02*
X133387999Y-148298001D01*
X133713001Y-133607997D02*
X133713001Y-147972999D01*
X135636000Y-131684998D02*
X133713001Y-133607997D01*
X135636000Y-118110000D02*
X135636000Y-131684998D01*
X132588000Y-154686000D02*
X137414000Y-159512000D01*
X132588000Y-149098000D02*
X132588000Y-154686000D01*
X137376001Y-117310001D02*
X138176000Y-118110000D01*
X137050999Y-93073001D02*
X137050999Y-116984999D01*
X137050999Y-116984999D02*
X137376001Y-117310001D01*
X138176000Y-91948000D02*
X137050999Y-93073001D01*
X135927999Y-148298001D02*
X135128000Y-149098000D01*
X136253001Y-147972999D02*
X135927999Y-148298001D01*
X136253001Y-133607997D02*
X136253001Y-147972999D01*
X138176000Y-131684998D02*
X136253001Y-133607997D01*
X138176000Y-118110000D02*
X138176000Y-131684998D01*
X135128000Y-154178000D02*
X139446000Y-158496000D01*
X135128000Y-149098000D02*
X135128000Y-154178000D01*
X139301001Y-116695001D02*
X139916001Y-117310001D01*
X139916001Y-117310001D02*
X140716000Y-118110000D01*
X139301001Y-93362999D02*
X139301001Y-116695001D01*
X140716000Y-91948000D02*
X139301001Y-93362999D01*
X127508000Y-152654000D02*
X132334000Y-157480000D01*
X127508000Y-149098000D02*
X127508000Y-152654000D01*
X140716000Y-118110000D02*
X140716000Y-128524000D01*
X138793001Y-143146999D02*
X137668000Y-144272000D01*
X140716000Y-128524000D02*
X138793001Y-130446999D01*
X138793001Y-130446999D02*
X138793001Y-143146999D01*
X117348000Y-149606000D02*
X117348000Y-149098000D01*
X124206000Y-156464000D02*
X117348000Y-149606000D01*
X149606000Y-106426000D02*
X152400000Y-109220000D01*
X145680630Y-106426000D02*
X149606000Y-106426000D01*
X152400000Y-109220000D02*
X152400000Y-116840000D01*
X152400000Y-116840000D02*
X157940000Y-122380000D01*
X143256000Y-102870000D02*
X143256000Y-104001370D01*
X157940000Y-122380000D02*
X157940000Y-159306000D01*
X143256000Y-104001370D02*
X145680630Y-106426000D01*
X156972000Y-122682000D02*
X156972000Y-158242000D01*
X151384000Y-117094000D02*
X156972000Y-122682000D01*
X151384000Y-109474000D02*
X151384000Y-117094000D01*
X145034000Y-107188000D02*
X149098000Y-107188000D01*
X149098000Y-107188000D02*
X151384000Y-109474000D01*
X140716000Y-102870000D02*
X145034000Y-107188000D01*
X150368000Y-109982000D02*
X150368000Y-117348000D01*
X150368000Y-117348000D02*
X155956000Y-122936000D01*
X155956000Y-122936000D02*
X155956000Y-157226000D01*
X141732000Y-106680000D02*
X143002000Y-107950000D01*
X148336000Y-107950000D02*
X150368000Y-109982000D01*
X143002000Y-107950000D02*
X148336000Y-107950000D01*
X154940000Y-123190000D02*
X154940000Y-156210000D01*
X149352000Y-117602000D02*
X154940000Y-123190000D01*
X141478000Y-108712000D02*
X147574000Y-108712000D01*
X149352000Y-110490000D02*
X149352000Y-117602000D01*
X147574000Y-108712000D02*
X149352000Y-110490000D01*
X140716000Y-107950000D02*
X141478000Y-108712000D01*
X153894000Y-123414000D02*
X153894000Y-155164000D01*
X148336000Y-117856000D02*
X153894000Y-123414000D01*
X140208000Y-109728000D02*
X146812000Y-109728000D01*
X148336000Y-111252000D02*
X148336000Y-117856000D01*
X146812000Y-109728000D02*
X148336000Y-111252000D01*
X124968000Y-126238000D02*
X124968000Y-133858000D01*
X133096000Y-118110000D02*
X124968000Y-126238000D01*
X133096000Y-91948000D02*
X133096000Y-99568000D01*
X131681001Y-116695001D02*
X132296001Y-117310001D01*
X132296001Y-117310001D02*
X133096000Y-118110000D01*
X131681001Y-100982999D02*
X131681001Y-116695001D01*
X133096000Y-99568000D02*
X131681001Y-100982999D01*
X122428000Y-126238000D02*
X122428000Y-133858000D01*
X130556000Y-118110000D02*
X122428000Y-126238000D01*
X129756001Y-117310001D02*
X130556000Y-118110000D01*
X129141001Y-116695001D02*
X129756001Y-117310001D01*
X129141001Y-93362999D02*
X129141001Y-116695001D01*
X130556000Y-91948000D02*
X129141001Y-93362999D01*
X126890999Y-116984999D02*
X127216001Y-117310001D01*
X126890999Y-93073001D02*
X126890999Y-116984999D01*
X127216001Y-117310001D02*
X128016000Y-118110000D01*
X128016000Y-91948000D02*
X126890999Y-93073001D01*
X119888000Y-126238000D02*
X119888000Y-133858000D01*
X128016000Y-118110000D02*
X119888000Y-126238000D01*
X124676001Y-117310001D02*
X125476000Y-118110000D01*
X124350999Y-116984999D02*
X124676001Y-117310001D01*
X124350999Y-102329999D02*
X124350999Y-116984999D01*
X125476000Y-101204998D02*
X124350999Y-102329999D01*
X125476000Y-91948000D02*
X125476000Y-101204998D01*
X117348000Y-126238000D02*
X117348000Y-133858000D01*
X125476000Y-118110000D02*
X117348000Y-126238000D01*
X122136001Y-117310001D02*
X122936000Y-118110000D01*
X121810999Y-116984999D02*
X122136001Y-117310001D01*
X121810999Y-93073001D02*
X121810999Y-116984999D01*
X122936000Y-91948000D02*
X121810999Y-93073001D01*
X114808000Y-126238000D02*
X114808000Y-133858000D01*
X122936000Y-118110000D02*
X114808000Y-126238000D01*
X119596001Y-117310001D02*
X120396000Y-118110000D01*
X119270999Y-116984999D02*
X119596001Y-117310001D01*
X119270999Y-93073001D02*
X119270999Y-116984999D01*
X120396000Y-91948000D02*
X119270999Y-93073001D01*
X112268000Y-126238000D02*
X112268000Y-133858000D01*
X120396000Y-118110000D02*
X112268000Y-126238000D01*
X117056001Y-117310001D02*
X117856000Y-118110000D01*
X116441001Y-93362999D02*
X116441001Y-116695001D01*
X116441001Y-116695001D02*
X117056001Y-117310001D01*
X117856000Y-91948000D02*
X116441001Y-93362999D01*
X117856000Y-118110000D02*
X117056001Y-118909999D01*
X109728000Y-126238000D02*
X109728000Y-133858000D01*
X117856000Y-118110000D02*
X109728000Y-126238000D01*
X114516001Y-117310001D02*
X115316000Y-118110000D01*
X114190999Y-116984999D02*
X114516001Y-117310001D01*
X114190999Y-93073001D02*
X114190999Y-116984999D01*
X115316000Y-91948000D02*
X114190999Y-93073001D01*
X107188000Y-126238000D02*
X107188000Y-133858000D01*
X115316000Y-118110000D02*
X107188000Y-126238000D01*
X102108000Y-133858000D02*
X102108000Y-110236000D01*
X105410000Y-106934000D02*
X105410000Y-97790000D01*
X102108000Y-110236000D02*
X105410000Y-106934000D01*
X102362000Y-107442000D02*
X102362000Y-98552000D01*
X102362000Y-98552000D02*
X107188000Y-93726000D01*
X107188000Y-93726000D02*
X107188000Y-93218000D01*
X105773001Y-135999001D02*
X108712000Y-138938000D01*
X105773001Y-131484686D02*
X105773001Y-135999001D01*
X105664000Y-131375685D02*
X105773001Y-131484686D01*
X105664000Y-130810000D02*
X105664000Y-131375685D01*
X111976001Y-117310001D02*
X112776000Y-118110000D01*
X111650999Y-94204371D02*
X111650999Y-116984999D01*
X111650999Y-116984999D02*
X111976001Y-117310001D01*
X112776000Y-93079370D02*
X111650999Y-94204371D01*
X112776000Y-91948000D02*
X112776000Y-93079370D01*
X113538000Y-129286000D02*
X113538000Y-137668000D01*
X113538000Y-137668000D02*
X111506000Y-139700000D01*
X100838000Y-145288000D02*
X104648000Y-149098000D01*
X100838000Y-97282000D02*
X100838000Y-145288000D01*
X109186000Y-91948000D02*
X108204000Y-92930000D01*
X110236000Y-91948000D02*
X109186000Y-91948000D01*
X108204000Y-92930000D02*
X108204000Y-115028000D01*
X110236000Y-117060000D02*
X110236000Y-118110000D01*
X108204000Y-115028000D02*
X110236000Y-117060000D01*
X108602999Y-133607997D02*
X108602999Y-137304999D01*
X108204000Y-126746000D02*
X108204000Y-133208998D01*
X108204000Y-133208998D02*
X108602999Y-133607997D01*
X108602999Y-137304999D02*
X110236000Y-138938000D01*
X110236000Y-141478000D02*
X112522000Y-143764000D01*
X110236000Y-138938000D02*
X110236000Y-141478000D01*
X154432000Y-97248000D02*
X154432000Y-98298000D01*
X156718000Y-94962000D02*
X154432000Y-97248000D01*
X156718000Y-88900000D02*
X156718000Y-94962000D01*
X154432000Y-86614000D02*
X156718000Y-88900000D01*
X144664630Y-169418000D02*
X140970000Y-169418000D01*
X145796000Y-169418000D02*
X144664630Y-169418000D01*
X122174000Y-146304000D02*
X124968000Y-149098000D01*
X105664000Y-146304000D02*
X122174000Y-146304000D01*
X152146000Y-163068000D02*
X145796000Y-169418000D01*
X152146000Y-152146000D02*
X152146000Y-163068000D01*
X125984000Y-150114000D02*
X124968000Y-149098000D01*
X125984000Y-159315002D02*
X125984000Y-150114000D01*
X140970000Y-169418000D02*
X136086998Y-169418000D01*
X136086998Y-169418000D02*
X125984000Y-159315002D01*
X129540000Y-169418000D02*
X136086998Y-169418000D01*
X125222000Y-173736000D02*
X129540000Y-169418000D01*
X145796000Y-172180000D02*
X152432000Y-178816000D01*
X145796000Y-169418000D02*
X145796000Y-172180000D01*
X101383999Y-166078001D02*
X100584000Y-166878000D01*
X105918000Y-161544000D02*
X101383999Y-166078001D01*
X105918000Y-146558000D02*
X105918000Y-161544000D01*
X105537000Y-146177000D02*
X105918000Y-146558000D01*
X105537000Y-146177000D02*
X105664000Y-146304000D01*
X102362000Y-143002000D02*
X105537000Y-146177000D01*
X151638000Y-129032000D02*
X151638000Y-131318000D01*
X151638000Y-131318000D02*
X152908000Y-132588000D01*
X153271001Y-142857001D02*
X153271001Y-147464999D01*
X152908000Y-132588000D02*
X152908000Y-142494000D01*
X152908000Y-142494000D02*
X153271001Y-142857001D01*
X152146000Y-148590000D02*
X152146000Y-152146000D01*
X153271001Y-147464999D02*
X152146000Y-148590000D01*
X140970000Y-160666630D02*
X140970000Y-161798000D01*
X140970000Y-153531370D02*
X140970000Y-160666630D01*
X137668000Y-150229370D02*
X140970000Y-153531370D01*
X137668000Y-149098000D02*
X137668000Y-150229370D01*
X145796000Y-154686000D02*
X140208000Y-149098000D01*
X145796000Y-161798000D02*
X145796000Y-154686000D01*
X152146000Y-144526000D02*
X152146000Y-133858000D01*
X152146000Y-133858000D02*
X150114000Y-131826000D01*
X133973370Y-173736000D02*
X136144000Y-173736000D01*
X132842000Y-173736000D02*
X133973370Y-173736000D01*
X137558213Y-173736000D02*
X142644000Y-173736000D01*
X136144000Y-173736000D02*
X137558213Y-173736000D01*
X135128000Y-133858000D02*
X135128000Y-143256000D01*
X154432000Y-89154000D02*
X149606000Y-93980000D01*
X149606000Y-93980000D02*
X143002000Y-93980000D01*
X143002000Y-93980000D02*
X140716000Y-96266000D01*
X130556000Y-102108000D02*
X130556000Y-102870000D01*
X130556000Y-100076000D02*
X130556000Y-102108000D01*
X112268000Y-162814000D02*
X108204000Y-166878000D01*
X112268000Y-149098000D02*
X112268000Y-162814000D01*
X155482000Y-76454000D02*
X156464000Y-77436000D01*
X154432000Y-76454000D02*
X155482000Y-76454000D01*
X156464000Y-82042000D02*
X154432000Y-84074000D01*
X156464000Y-77436000D02*
X156464000Y-82042000D01*
X158665001Y-134027001D02*
X158750000Y-134112000D01*
X154432000Y-84074000D02*
X158665001Y-88307001D01*
X158665001Y-88307001D02*
X158665001Y-134027001D01*
X151130000Y-135128000D02*
X150114000Y-135128000D01*
X145288000Y-139954000D02*
X145288000Y-149098000D01*
X150114000Y-135128000D02*
X145288000Y-139954000D01*
X135382000Y-81534000D02*
X130556000Y-76708000D01*
X154432000Y-81534000D02*
X135382000Y-81534000D01*
D20*
G36*
X153277506Y-75123463D02*
G01*
X153180815Y-75202815D01*
X153101463Y-75299506D01*
X153042498Y-75409820D01*
X153006188Y-75529518D01*
X152993928Y-75654000D01*
X152993928Y-77254000D01*
X153006188Y-77378482D01*
X153042498Y-77498180D01*
X153101463Y-77608494D01*
X153180815Y-77705185D01*
X153277506Y-77784537D01*
X153387820Y-77843502D01*
X153507518Y-77879812D01*
X153525482Y-77881581D01*
X153412392Y-77974392D01*
X153233068Y-78192899D01*
X153099818Y-78442192D01*
X153017764Y-78712691D01*
X152990057Y-78994000D01*
X153017764Y-79275309D01*
X153099818Y-79545808D01*
X153233068Y-79795101D01*
X153412392Y-80013608D01*
X153630899Y-80192932D01*
X153763858Y-80264000D01*
X153630899Y-80335068D01*
X153412392Y-80514392D01*
X153233068Y-80732899D01*
X153211099Y-80774000D01*
X135696802Y-80774000D01*
X133065801Y-78143000D01*
X133166492Y-78143000D01*
X133377309Y-78122236D01*
X133647808Y-78040182D01*
X133897101Y-77906932D01*
X134115608Y-77727608D01*
X134294932Y-77509101D01*
X134366000Y-77376142D01*
X134437068Y-77509101D01*
X134616392Y-77727608D01*
X134834899Y-77906932D01*
X135084192Y-78040182D01*
X135354691Y-78122236D01*
X135565508Y-78143000D01*
X135706492Y-78143000D01*
X135917309Y-78122236D01*
X136187808Y-78040182D01*
X136437101Y-77906932D01*
X136655608Y-77727608D01*
X136834932Y-77509101D01*
X136906000Y-77376142D01*
X136977068Y-77509101D01*
X137156392Y-77727608D01*
X137374899Y-77906932D01*
X137624192Y-78040182D01*
X137894691Y-78122236D01*
X138105508Y-78143000D01*
X138246492Y-78143000D01*
X138457309Y-78122236D01*
X138727808Y-78040182D01*
X138977101Y-77906932D01*
X139195608Y-77727608D01*
X139374932Y-77509101D01*
X139446000Y-77376142D01*
X139517068Y-77509101D01*
X139696392Y-77727608D01*
X139914899Y-77906932D01*
X140164192Y-78040182D01*
X140434691Y-78122236D01*
X140645508Y-78143000D01*
X140786492Y-78143000D01*
X140997309Y-78122236D01*
X141267808Y-78040182D01*
X141517101Y-77906932D01*
X141735608Y-77727608D01*
X141914932Y-77509101D01*
X141986000Y-77376142D01*
X142057068Y-77509101D01*
X142236392Y-77727608D01*
X142454899Y-77906932D01*
X142704192Y-78040182D01*
X142974691Y-78122236D01*
X143185508Y-78143000D01*
X143326492Y-78143000D01*
X143537309Y-78122236D01*
X143807808Y-78040182D01*
X144057101Y-77906932D01*
X144275608Y-77727608D01*
X144454932Y-77509101D01*
X144588182Y-77259808D01*
X144670236Y-76989309D01*
X144697943Y-76708000D01*
X144670236Y-76426691D01*
X144588182Y-76156192D01*
X144454932Y-75906899D01*
X144275608Y-75688392D01*
X144057101Y-75509068D01*
X143807808Y-75375818D01*
X143537309Y-75293764D01*
X143326492Y-75273000D01*
X143185508Y-75273000D01*
X142974691Y-75293764D01*
X142704192Y-75375818D01*
X142454899Y-75509068D01*
X142236392Y-75688392D01*
X142057068Y-75906899D01*
X141986000Y-76039858D01*
X141914932Y-75906899D01*
X141735608Y-75688392D01*
X141517101Y-75509068D01*
X141267808Y-75375818D01*
X140997309Y-75293764D01*
X140786492Y-75273000D01*
X140645508Y-75273000D01*
X140434691Y-75293764D01*
X140164192Y-75375818D01*
X139914899Y-75509068D01*
X139696392Y-75688392D01*
X139517068Y-75906899D01*
X139446000Y-76039858D01*
X139374932Y-75906899D01*
X139195608Y-75688392D01*
X138977101Y-75509068D01*
X138727808Y-75375818D01*
X138457309Y-75293764D01*
X138246492Y-75273000D01*
X138105508Y-75273000D01*
X137894691Y-75293764D01*
X137624192Y-75375818D01*
X137374899Y-75509068D01*
X137156392Y-75688392D01*
X136977068Y-75906899D01*
X136906000Y-76039858D01*
X136834932Y-75906899D01*
X136655608Y-75688392D01*
X136437101Y-75509068D01*
X136187808Y-75375818D01*
X135917309Y-75293764D01*
X135706492Y-75273000D01*
X135565508Y-75273000D01*
X135354691Y-75293764D01*
X135084192Y-75375818D01*
X134834899Y-75509068D01*
X134616392Y-75688392D01*
X134437068Y-75906899D01*
X134366000Y-76039858D01*
X134294932Y-75906899D01*
X134115608Y-75688392D01*
X133897101Y-75509068D01*
X133647808Y-75375818D01*
X133377309Y-75293764D01*
X133166492Y-75273000D01*
X133025508Y-75273000D01*
X132814691Y-75293764D01*
X132544192Y-75375818D01*
X132294899Y-75509068D01*
X132076392Y-75688392D01*
X131897068Y-75906899D01*
X131826000Y-76039858D01*
X131754932Y-75906899D01*
X131575608Y-75688392D01*
X131357101Y-75509068D01*
X131107808Y-75375818D01*
X130837309Y-75293764D01*
X130626492Y-75273000D01*
X130485508Y-75273000D01*
X130274691Y-75293764D01*
X130004192Y-75375818D01*
X129754899Y-75509068D01*
X129536392Y-75688392D01*
X129357068Y-75906899D01*
X129286000Y-76039858D01*
X129214932Y-75906899D01*
X129035608Y-75688392D01*
X128817101Y-75509068D01*
X128567808Y-75375818D01*
X128297309Y-75293764D01*
X128086492Y-75273000D01*
X127945508Y-75273000D01*
X127734691Y-75293764D01*
X127464192Y-75375818D01*
X127214899Y-75509068D01*
X126996392Y-75688392D01*
X126817068Y-75906899D01*
X126746000Y-76039858D01*
X126674932Y-75906899D01*
X126495608Y-75688392D01*
X126277101Y-75509068D01*
X126027808Y-75375818D01*
X125757309Y-75293764D01*
X125546492Y-75273000D01*
X125405508Y-75273000D01*
X125194691Y-75293764D01*
X124924192Y-75375818D01*
X124674899Y-75509068D01*
X124456392Y-75688392D01*
X124277068Y-75906899D01*
X124206000Y-76039858D01*
X124134932Y-75906899D01*
X123955608Y-75688392D01*
X123737101Y-75509068D01*
X123487808Y-75375818D01*
X123217309Y-75293764D01*
X123006492Y-75273000D01*
X122865508Y-75273000D01*
X122654691Y-75293764D01*
X122384192Y-75375818D01*
X122134899Y-75509068D01*
X121916392Y-75688392D01*
X121737068Y-75906899D01*
X121666000Y-76039858D01*
X121594932Y-75906899D01*
X121415608Y-75688392D01*
X121197101Y-75509068D01*
X120947808Y-75375818D01*
X120677309Y-75293764D01*
X120466492Y-75273000D01*
X120325508Y-75273000D01*
X120114691Y-75293764D01*
X119844192Y-75375818D01*
X119594899Y-75509068D01*
X119376392Y-75688392D01*
X119197068Y-75906899D01*
X119126000Y-76039858D01*
X119054932Y-75906899D01*
X118875608Y-75688392D01*
X118657101Y-75509068D01*
X118407808Y-75375818D01*
X118137309Y-75293764D01*
X117926492Y-75273000D01*
X117785508Y-75273000D01*
X117574691Y-75293764D01*
X117304192Y-75375818D01*
X117054899Y-75509068D01*
X116836392Y-75688392D01*
X116657068Y-75906899D01*
X116586000Y-76039858D01*
X116514932Y-75906899D01*
X116335608Y-75688392D01*
X116117101Y-75509068D01*
X115867808Y-75375818D01*
X115597309Y-75293764D01*
X115386492Y-75273000D01*
X115245508Y-75273000D01*
X115034691Y-75293764D01*
X114764192Y-75375818D01*
X114514899Y-75509068D01*
X114296392Y-75688392D01*
X114117068Y-75906899D01*
X114046000Y-76039858D01*
X113974932Y-75906899D01*
X113795608Y-75688392D01*
X113577101Y-75509068D01*
X113327808Y-75375818D01*
X113057309Y-75293764D01*
X112846492Y-75273000D01*
X112705508Y-75273000D01*
X112494691Y-75293764D01*
X112224192Y-75375818D01*
X111974899Y-75509068D01*
X111756392Y-75688392D01*
X111577068Y-75906899D01*
X111506000Y-76039858D01*
X111434932Y-75906899D01*
X111255608Y-75688392D01*
X111037101Y-75509068D01*
X110787808Y-75375818D01*
X110517309Y-75293764D01*
X110306492Y-75273000D01*
X110165508Y-75273000D01*
X109954691Y-75293764D01*
X109684192Y-75375818D01*
X109434899Y-75509068D01*
X109216392Y-75688392D01*
X109037068Y-75906899D01*
X108903818Y-76156192D01*
X108821764Y-76426691D01*
X108794057Y-76708000D01*
X108821764Y-76989309D01*
X108903818Y-77259808D01*
X109037068Y-77509101D01*
X109216392Y-77727608D01*
X109434899Y-77906932D01*
X109684192Y-78040182D01*
X109954691Y-78122236D01*
X110165508Y-78143000D01*
X110306492Y-78143000D01*
X110517309Y-78122236D01*
X110787808Y-78040182D01*
X111037101Y-77906932D01*
X111255608Y-77727608D01*
X111434932Y-77509101D01*
X111506000Y-77376142D01*
X111577068Y-77509101D01*
X111756392Y-77727608D01*
X111974899Y-77906932D01*
X112224192Y-78040182D01*
X112494691Y-78122236D01*
X112705508Y-78143000D01*
X112846492Y-78143000D01*
X113057309Y-78122236D01*
X113327808Y-78040182D01*
X113577101Y-77906932D01*
X113795608Y-77727608D01*
X113974932Y-77509101D01*
X114046000Y-77376142D01*
X114117068Y-77509101D01*
X114296392Y-77727608D01*
X114514899Y-77906932D01*
X114764192Y-78040182D01*
X115034691Y-78122236D01*
X115245508Y-78143000D01*
X115386492Y-78143000D01*
X115597309Y-78122236D01*
X115867808Y-78040182D01*
X116117101Y-77906932D01*
X116335608Y-77727608D01*
X116514932Y-77509101D01*
X116586000Y-77376142D01*
X116657068Y-77509101D01*
X116836392Y-77727608D01*
X117054899Y-77906932D01*
X117304192Y-78040182D01*
X117574691Y-78122236D01*
X117785508Y-78143000D01*
X117926492Y-78143000D01*
X118137309Y-78122236D01*
X118407808Y-78040182D01*
X118657101Y-77906932D01*
X118875608Y-77727608D01*
X119054932Y-77509101D01*
X119126000Y-77376142D01*
X119197068Y-77509101D01*
X119376392Y-77727608D01*
X119594899Y-77906932D01*
X119844192Y-78040182D01*
X120114691Y-78122236D01*
X120325508Y-78143000D01*
X120466492Y-78143000D01*
X120677309Y-78122236D01*
X120947808Y-78040182D01*
X121197101Y-77906932D01*
X121415608Y-77727608D01*
X121594932Y-77509101D01*
X121666000Y-77376142D01*
X121737068Y-77509101D01*
X121916392Y-77727608D01*
X122134899Y-77906932D01*
X122384192Y-78040182D01*
X122654691Y-78122236D01*
X122865508Y-78143000D01*
X123006492Y-78143000D01*
X123217309Y-78122236D01*
X123487808Y-78040182D01*
X123737101Y-77906932D01*
X123955608Y-77727608D01*
X124134932Y-77509101D01*
X124206000Y-77376142D01*
X124277068Y-77509101D01*
X124456392Y-77727608D01*
X124674899Y-77906932D01*
X124924192Y-78040182D01*
X125194691Y-78122236D01*
X125405508Y-78143000D01*
X125546492Y-78143000D01*
X125757309Y-78122236D01*
X126027808Y-78040182D01*
X126277101Y-77906932D01*
X126495608Y-77727608D01*
X126674932Y-77509101D01*
X126746000Y-77376142D01*
X126817068Y-77509101D01*
X126996392Y-77727608D01*
X127214899Y-77906932D01*
X127464192Y-78040182D01*
X127734691Y-78122236D01*
X127945508Y-78143000D01*
X128086492Y-78143000D01*
X128297309Y-78122236D01*
X128567808Y-78040182D01*
X128817101Y-77906932D01*
X129035608Y-77727608D01*
X129214932Y-77509101D01*
X129286000Y-77376142D01*
X129357068Y-77509101D01*
X129536392Y-77727608D01*
X129754899Y-77906932D01*
X130004192Y-78040182D01*
X130274691Y-78122236D01*
X130485508Y-78143000D01*
X130626492Y-78143000D01*
X130837309Y-78122236D01*
X130881906Y-78108708D01*
X134818201Y-82045003D01*
X134841999Y-82074001D01*
X134957724Y-82168974D01*
X135089753Y-82239546D01*
X135233014Y-82283003D01*
X135344667Y-82294000D01*
X135344675Y-82294000D01*
X135382000Y-82297676D01*
X135419325Y-82294000D01*
X153211099Y-82294000D01*
X153233068Y-82335101D01*
X153412392Y-82553608D01*
X153630899Y-82732932D01*
X153763858Y-82804000D01*
X153630899Y-82875068D01*
X153412392Y-83054392D01*
X153233068Y-83272899D01*
X153099818Y-83522192D01*
X153017764Y-83792691D01*
X152990057Y-84074000D01*
X153017764Y-84355309D01*
X153099818Y-84625808D01*
X153233068Y-84875101D01*
X153412392Y-85093608D01*
X153630899Y-85272932D01*
X153763858Y-85344000D01*
X153630899Y-85415068D01*
X153412392Y-85594392D01*
X153233068Y-85812899D01*
X153099818Y-86062192D01*
X153017764Y-86332691D01*
X152990057Y-86614000D01*
X153017764Y-86895309D01*
X153099818Y-87165808D01*
X153233068Y-87415101D01*
X153412392Y-87633608D01*
X153630899Y-87812932D01*
X153763858Y-87884000D01*
X153630899Y-87955068D01*
X153412392Y-88134392D01*
X153233068Y-88352899D01*
X153099818Y-88602192D01*
X153017764Y-88872691D01*
X152990057Y-89154000D01*
X153017764Y-89435309D01*
X153031292Y-89479906D01*
X149291199Y-93220000D01*
X143906752Y-93220000D01*
X143993420Y-93179037D01*
X144219414Y-93011519D01*
X144408385Y-92803131D01*
X144553070Y-92561881D01*
X144647909Y-92297040D01*
X144526624Y-92075000D01*
X143383000Y-92075000D01*
X143383000Y-92095000D01*
X143129000Y-92095000D01*
X143129000Y-92075000D01*
X143109000Y-92075000D01*
X143109000Y-91821000D01*
X143129000Y-91821000D01*
X143129000Y-90678085D01*
X143383000Y-90678085D01*
X143383000Y-91821000D01*
X144526624Y-91821000D01*
X144647909Y-91598960D01*
X144553070Y-91334119D01*
X144408385Y-91092869D01*
X144219414Y-90884481D01*
X143993420Y-90716963D01*
X143739087Y-90596754D01*
X143605039Y-90556096D01*
X143383000Y-90678085D01*
X143129000Y-90678085D01*
X142906961Y-90556096D01*
X142772913Y-90596754D01*
X142518580Y-90716963D01*
X142292586Y-90884481D01*
X142103615Y-91092869D01*
X141988579Y-91284682D01*
X141914932Y-91146899D01*
X141735608Y-90928392D01*
X141517101Y-90749068D01*
X141267808Y-90615818D01*
X140997309Y-90533764D01*
X140786492Y-90513000D01*
X140645508Y-90513000D01*
X140434691Y-90533764D01*
X140164192Y-90615818D01*
X139914899Y-90749068D01*
X139696392Y-90928392D01*
X139517068Y-91146899D01*
X139446000Y-91279858D01*
X139374932Y-91146899D01*
X139195608Y-90928392D01*
X138977101Y-90749068D01*
X138727808Y-90615818D01*
X138457309Y-90533764D01*
X138246492Y-90513000D01*
X138105508Y-90513000D01*
X137894691Y-90533764D01*
X137624192Y-90615818D01*
X137374899Y-90749068D01*
X137156392Y-90928392D01*
X136977068Y-91146899D01*
X136906000Y-91279858D01*
X136834932Y-91146899D01*
X136655608Y-90928392D01*
X136437101Y-90749068D01*
X136187808Y-90615818D01*
X135917309Y-90533764D01*
X135706492Y-90513000D01*
X135565508Y-90513000D01*
X135354691Y-90533764D01*
X135084192Y-90615818D01*
X134834899Y-90749068D01*
X134616392Y-90928392D01*
X134437068Y-91146899D01*
X134366000Y-91279858D01*
X134294932Y-91146899D01*
X134115608Y-90928392D01*
X133897101Y-90749068D01*
X133647808Y-90615818D01*
X133377309Y-90533764D01*
X133166492Y-90513000D01*
X133025508Y-90513000D01*
X132814691Y-90533764D01*
X132544192Y-90615818D01*
X132294899Y-90749068D01*
X132076392Y-90928392D01*
X131897068Y-91146899D01*
X131826000Y-91279858D01*
X131754932Y-91146899D01*
X131575608Y-90928392D01*
X131357101Y-90749068D01*
X131107808Y-90615818D01*
X130837309Y-90533764D01*
X130626492Y-90513000D01*
X130485508Y-90513000D01*
X130274691Y-90533764D01*
X130004192Y-90615818D01*
X129754899Y-90749068D01*
X129536392Y-90928392D01*
X129357068Y-91146899D01*
X129286000Y-91279858D01*
X129214932Y-91146899D01*
X129035608Y-90928392D01*
X128817101Y-90749068D01*
X128567808Y-90615818D01*
X128297309Y-90533764D01*
X128086492Y-90513000D01*
X127945508Y-90513000D01*
X127734691Y-90533764D01*
X127464192Y-90615818D01*
X127214899Y-90749068D01*
X126996392Y-90928392D01*
X126817068Y-91146899D01*
X126746000Y-91279858D01*
X126674932Y-91146899D01*
X126495608Y-90928392D01*
X126277101Y-90749068D01*
X126027808Y-90615818D01*
X125757309Y-90533764D01*
X125546492Y-90513000D01*
X125405508Y-90513000D01*
X125194691Y-90533764D01*
X124924192Y-90615818D01*
X124674899Y-90749068D01*
X124456392Y-90928392D01*
X124277068Y-91146899D01*
X124206000Y-91279858D01*
X124134932Y-91146899D01*
X123955608Y-90928392D01*
X123737101Y-90749068D01*
X123487808Y-90615818D01*
X123217309Y-90533764D01*
X123006492Y-90513000D01*
X122865508Y-90513000D01*
X122654691Y-90533764D01*
X122384192Y-90615818D01*
X122134899Y-90749068D01*
X121916392Y-90928392D01*
X121737068Y-91146899D01*
X121666000Y-91279858D01*
X121594932Y-91146899D01*
X121415608Y-90928392D01*
X121197101Y-90749068D01*
X120947808Y-90615818D01*
X120677309Y-90533764D01*
X120466492Y-90513000D01*
X120325508Y-90513000D01*
X120114691Y-90533764D01*
X119844192Y-90615818D01*
X119594899Y-90749068D01*
X119376392Y-90928392D01*
X119197068Y-91146899D01*
X119126000Y-91279858D01*
X119054932Y-91146899D01*
X118875608Y-90928392D01*
X118657101Y-90749068D01*
X118407808Y-90615818D01*
X118137309Y-90533764D01*
X117926492Y-90513000D01*
X117785508Y-90513000D01*
X117574691Y-90533764D01*
X117304192Y-90615818D01*
X117054899Y-90749068D01*
X116836392Y-90928392D01*
X116657068Y-91146899D01*
X116586000Y-91279858D01*
X116514932Y-91146899D01*
X116335608Y-90928392D01*
X116117101Y-90749068D01*
X115867808Y-90615818D01*
X115597309Y-90533764D01*
X115386492Y-90513000D01*
X115245508Y-90513000D01*
X115034691Y-90533764D01*
X114764192Y-90615818D01*
X114514899Y-90749068D01*
X114296392Y-90928392D01*
X114117068Y-91146899D01*
X114046000Y-91279858D01*
X113974932Y-91146899D01*
X113795608Y-90928392D01*
X113577101Y-90749068D01*
X113327808Y-90615818D01*
X113057309Y-90533764D01*
X112846492Y-90513000D01*
X112705508Y-90513000D01*
X112494691Y-90533764D01*
X112224192Y-90615818D01*
X111974899Y-90749068D01*
X111756392Y-90928392D01*
X111663581Y-91041482D01*
X111661812Y-91023518D01*
X111625502Y-90903820D01*
X111566537Y-90793506D01*
X111487185Y-90696815D01*
X111390494Y-90617463D01*
X111280180Y-90558498D01*
X111160482Y-90522188D01*
X111036000Y-90509928D01*
X109436000Y-90509928D01*
X109311518Y-90522188D01*
X109191820Y-90558498D01*
X109081506Y-90617463D01*
X108984815Y-90696815D01*
X108905463Y-90793506D01*
X108846498Y-90903820D01*
X108810188Y-91023518D01*
X108797928Y-91148000D01*
X108797928Y-91293674D01*
X108761724Y-91313026D01*
X108645999Y-91407999D01*
X108622201Y-91436997D01*
X107726301Y-92332898D01*
X107678256Y-92300795D01*
X107489898Y-92222774D01*
X107289939Y-92183000D01*
X107086061Y-92183000D01*
X106886102Y-92222774D01*
X106697744Y-92300795D01*
X106528226Y-92414063D01*
X106384063Y-92558226D01*
X106270795Y-92727744D01*
X106192774Y-92916102D01*
X106153000Y-93116061D01*
X106153000Y-93319939D01*
X106192774Y-93519898D01*
X106229833Y-93609365D01*
X101850998Y-97988201D01*
X101822000Y-98011999D01*
X101798202Y-98040997D01*
X101798201Y-98040998D01*
X101727026Y-98127724D01*
X101656454Y-98259754D01*
X101633528Y-98335333D01*
X101612998Y-98403014D01*
X101602001Y-98514667D01*
X101598324Y-98552000D01*
X101602001Y-98589332D01*
X101602000Y-106738289D01*
X101598000Y-106742289D01*
X101598000Y-97985711D01*
X101641937Y-97941774D01*
X101755205Y-97772256D01*
X101833226Y-97583898D01*
X101873000Y-97383939D01*
X101873000Y-97180061D01*
X101833226Y-96980102D01*
X101755205Y-96791744D01*
X101641937Y-96622226D01*
X101497774Y-96478063D01*
X101328256Y-96364795D01*
X101139898Y-96286774D01*
X100939939Y-96247000D01*
X100736061Y-96247000D01*
X100536102Y-96286774D01*
X100347744Y-96364795D01*
X100178226Y-96478063D01*
X100034063Y-96622226D01*
X99920795Y-96791744D01*
X99842774Y-96980102D01*
X99803000Y-97180061D01*
X99803000Y-97383939D01*
X99842774Y-97583898D01*
X99920795Y-97772256D01*
X100034063Y-97941774D01*
X100078000Y-97985711D01*
X100078001Y-132513136D01*
X99849309Y-132443764D01*
X99638492Y-132423000D01*
X99497508Y-132423000D01*
X99286691Y-132443764D01*
X99016192Y-132525818D01*
X98766899Y-132659068D01*
X98548392Y-132838392D01*
X98369068Y-133056899D01*
X98235818Y-133306192D01*
X98153764Y-133576691D01*
X98126057Y-133858000D01*
X98153764Y-134139309D01*
X98235818Y-134409808D01*
X98369068Y-134659101D01*
X98548392Y-134877608D01*
X98766899Y-135056932D01*
X99016192Y-135190182D01*
X99286691Y-135272236D01*
X99497508Y-135293000D01*
X99638492Y-135293000D01*
X99849309Y-135272236D01*
X100078001Y-135202864D01*
X100078001Y-145250667D01*
X100074324Y-145288000D01*
X100078001Y-145325333D01*
X100086668Y-145413324D01*
X100088998Y-145436985D01*
X100132454Y-145580246D01*
X100203026Y-145712276D01*
X100269274Y-145792998D01*
X100298000Y-145828001D01*
X100326998Y-145851799D01*
X102138199Y-147663000D01*
X102037508Y-147663000D01*
X101826691Y-147683764D01*
X101556192Y-147765818D01*
X101306899Y-147899068D01*
X101088392Y-148078392D01*
X100995581Y-148191482D01*
X100993812Y-148173518D01*
X100957502Y-148053820D01*
X100898537Y-147943506D01*
X100819185Y-147846815D01*
X100722494Y-147767463D01*
X100612180Y-147708498D01*
X100492482Y-147672188D01*
X100368000Y-147659928D01*
X98768000Y-147659928D01*
X98643518Y-147672188D01*
X98523820Y-147708498D01*
X98413506Y-147767463D01*
X98316815Y-147846815D01*
X98237463Y-147943506D01*
X98178498Y-148053820D01*
X98142188Y-148173518D01*
X98129928Y-148298000D01*
X98129928Y-149898000D01*
X98142188Y-150022482D01*
X98178498Y-150142180D01*
X98237463Y-150252494D01*
X98316815Y-150349185D01*
X98413506Y-150428537D01*
X98523820Y-150487502D01*
X98643518Y-150523812D01*
X98768000Y-150536072D01*
X100368000Y-150536072D01*
X100492482Y-150523812D01*
X100612180Y-150487502D01*
X100722494Y-150428537D01*
X100819185Y-150349185D01*
X100898537Y-150252494D01*
X100957502Y-150142180D01*
X100993812Y-150022482D01*
X100995581Y-150004518D01*
X101088392Y-150117608D01*
X101306899Y-150296932D01*
X101556192Y-150430182D01*
X101826691Y-150512236D01*
X102037508Y-150533000D01*
X102178492Y-150533000D01*
X102389309Y-150512236D01*
X102659808Y-150430182D01*
X102909101Y-150296932D01*
X103127608Y-150117608D01*
X103306932Y-149899101D01*
X103378000Y-149766142D01*
X103449068Y-149899101D01*
X103628392Y-150117608D01*
X103846899Y-150296932D01*
X104096192Y-150430182D01*
X104366691Y-150512236D01*
X104577508Y-150533000D01*
X104718492Y-150533000D01*
X104929309Y-150512236D01*
X105158000Y-150442864D01*
X105158001Y-161229197D01*
X100907887Y-165479312D01*
X100725335Y-165443000D01*
X100442665Y-165443000D01*
X100165426Y-165498147D01*
X99904273Y-165606320D01*
X99669241Y-165763363D01*
X99469363Y-165963241D01*
X99312320Y-166198273D01*
X99204147Y-166459426D01*
X99149000Y-166736665D01*
X99149000Y-167019335D01*
X99204147Y-167296574D01*
X99312320Y-167557727D01*
X99469363Y-167792759D01*
X99669241Y-167992637D01*
X99904273Y-168149680D01*
X100165426Y-168257853D01*
X100442665Y-168313000D01*
X100725335Y-168313000D01*
X101002574Y-168257853D01*
X101263727Y-168149680D01*
X101498759Y-167992637D01*
X101698637Y-167792759D01*
X101855680Y-167557727D01*
X101963853Y-167296574D01*
X102019000Y-167019335D01*
X102019000Y-166736665D01*
X101982688Y-166554113D01*
X106429003Y-162107799D01*
X106458001Y-162084001D01*
X106552974Y-161968276D01*
X106623546Y-161836247D01*
X106667003Y-161692986D01*
X106678000Y-161581333D01*
X106678000Y-161581325D01*
X106681676Y-161544000D01*
X106678000Y-161506675D01*
X106678000Y-150442864D01*
X106906691Y-150512236D01*
X107117508Y-150533000D01*
X107258492Y-150533000D01*
X107469309Y-150512236D01*
X107739808Y-150430182D01*
X107989101Y-150296932D01*
X108207608Y-150117608D01*
X108386932Y-149899101D01*
X108458000Y-149766142D01*
X108529068Y-149899101D01*
X108708392Y-150117608D01*
X108926899Y-150296932D01*
X109176192Y-150430182D01*
X109446691Y-150512236D01*
X109657508Y-150533000D01*
X109798492Y-150533000D01*
X110009309Y-150512236D01*
X110279808Y-150430182D01*
X110529101Y-150296932D01*
X110747608Y-150117608D01*
X110926932Y-149899101D01*
X110998000Y-149766142D01*
X111069068Y-149899101D01*
X111248392Y-150117608D01*
X111466899Y-150296932D01*
X111508000Y-150318901D01*
X111508001Y-162499197D01*
X108527887Y-165479312D01*
X108345335Y-165443000D01*
X108062665Y-165443000D01*
X107785426Y-165498147D01*
X107524273Y-165606320D01*
X107289241Y-165763363D01*
X107089363Y-165963241D01*
X106932320Y-166198273D01*
X106824147Y-166459426D01*
X106769000Y-166736665D01*
X106769000Y-167019335D01*
X106824147Y-167296574D01*
X106932320Y-167557727D01*
X107089363Y-167792759D01*
X107289241Y-167992637D01*
X107524273Y-168149680D01*
X107785426Y-168257853D01*
X108062665Y-168313000D01*
X108345335Y-168313000D01*
X108622574Y-168257853D01*
X108883727Y-168149680D01*
X109118759Y-167992637D01*
X109318637Y-167792759D01*
X109475680Y-167557727D01*
X109583853Y-167296574D01*
X109639000Y-167019335D01*
X109639000Y-166736665D01*
X109602688Y-166554113D01*
X112779003Y-163377799D01*
X112808001Y-163354001D01*
X112834332Y-163321917D01*
X112902974Y-163238277D01*
X112973546Y-163106247D01*
X112984639Y-163069677D01*
X113017003Y-162962986D01*
X113028000Y-162851333D01*
X113028000Y-162851323D01*
X113031676Y-162814000D01*
X113028000Y-162776677D01*
X113028000Y-150318901D01*
X113069101Y-150296932D01*
X113287608Y-150117608D01*
X113466932Y-149899101D01*
X113538000Y-149766142D01*
X113609068Y-149899101D01*
X113788392Y-150117608D01*
X114006899Y-150296932D01*
X114256192Y-150430182D01*
X114526691Y-150512236D01*
X114737508Y-150533000D01*
X114878492Y-150533000D01*
X115089309Y-150512236D01*
X115359808Y-150430182D01*
X115609101Y-150296932D01*
X115827608Y-150117608D01*
X116006932Y-149899101D01*
X116078000Y-149766142D01*
X116149068Y-149899101D01*
X116328392Y-150117608D01*
X116546899Y-150296932D01*
X116796192Y-150430182D01*
X117066691Y-150512236D01*
X117191753Y-150524554D01*
X123171000Y-156503802D01*
X123171000Y-156565939D01*
X123210774Y-156765898D01*
X123288795Y-156954256D01*
X123402063Y-157123774D01*
X123546226Y-157267937D01*
X123715744Y-157381205D01*
X123904102Y-157459226D01*
X124104061Y-157499000D01*
X124307939Y-157499000D01*
X124507898Y-157459226D01*
X124696256Y-157381205D01*
X124865774Y-157267937D01*
X125009937Y-157123774D01*
X125123205Y-156954256D01*
X125201226Y-156765898D01*
X125224000Y-156651403D01*
X125224000Y-159277680D01*
X125220324Y-159315002D01*
X125224000Y-159352324D01*
X125224000Y-159352334D01*
X125234997Y-159463987D01*
X125255325Y-159531000D01*
X125278454Y-159607248D01*
X125349026Y-159739278D01*
X125388871Y-159787828D01*
X125443999Y-159855003D01*
X125473003Y-159878806D01*
X134252196Y-168658000D01*
X129577322Y-168658000D01*
X129539999Y-168654324D01*
X129502676Y-168658000D01*
X129502667Y-168658000D01*
X129391014Y-168668997D01*
X129247753Y-168712454D01*
X129115724Y-168783026D01*
X128999999Y-168877999D01*
X128976201Y-168906997D01*
X125545887Y-172337312D01*
X125363335Y-172301000D01*
X125080665Y-172301000D01*
X124803426Y-172356147D01*
X124542273Y-172464320D01*
X124307241Y-172621363D01*
X124107363Y-172821241D01*
X123950320Y-173056273D01*
X123842147Y-173317426D01*
X123787000Y-173594665D01*
X123787000Y-173877335D01*
X123842147Y-174154574D01*
X123950320Y-174415727D01*
X124107363Y-174650759D01*
X124307241Y-174850637D01*
X124542273Y-175007680D01*
X124803426Y-175115853D01*
X125080665Y-175171000D01*
X125363335Y-175171000D01*
X125640574Y-175115853D01*
X125901727Y-175007680D01*
X126136759Y-174850637D01*
X126336637Y-174650759D01*
X126493680Y-174415727D01*
X126601853Y-174154574D01*
X126657000Y-173877335D01*
X126657000Y-173736000D01*
X131400057Y-173736000D01*
X131427764Y-174017309D01*
X131509818Y-174287808D01*
X131643068Y-174537101D01*
X131822392Y-174755608D01*
X132040899Y-174934932D01*
X132290192Y-175068182D01*
X132560691Y-175150236D01*
X132771508Y-175171000D01*
X132912492Y-175171000D01*
X133123309Y-175150236D01*
X133393808Y-175068182D01*
X133643101Y-174934932D01*
X133861608Y-174755608D01*
X134040932Y-174537101D01*
X134062901Y-174496000D01*
X134689091Y-174496000D01*
X134695082Y-174510463D01*
X134874013Y-174778252D01*
X135101748Y-175005987D01*
X135369537Y-175184918D01*
X135667088Y-175308168D01*
X135982967Y-175371000D01*
X136305033Y-175371000D01*
X136620912Y-175308168D01*
X136918463Y-175184918D01*
X137186252Y-175005987D01*
X137413987Y-174778252D01*
X137592918Y-174510463D01*
X137598909Y-174496000D01*
X141189091Y-174496000D01*
X141195082Y-174510463D01*
X141374013Y-174778252D01*
X141601748Y-175005987D01*
X141869537Y-175184918D01*
X142167088Y-175308168D01*
X142482967Y-175371000D01*
X142805033Y-175371000D01*
X143120912Y-175308168D01*
X143418463Y-175184918D01*
X143686252Y-175005987D01*
X143913987Y-174778252D01*
X144092918Y-174510463D01*
X144216168Y-174212912D01*
X144279000Y-173897033D01*
X144279000Y-173574967D01*
X144216168Y-173259088D01*
X144092918Y-172961537D01*
X143913987Y-172693748D01*
X143686252Y-172466013D01*
X143418463Y-172287082D01*
X143120912Y-172163832D01*
X142805033Y-172101000D01*
X142482967Y-172101000D01*
X142167088Y-172163832D01*
X141869537Y-172287082D01*
X141601748Y-172466013D01*
X141374013Y-172693748D01*
X141195082Y-172961537D01*
X141189091Y-172976000D01*
X137598909Y-172976000D01*
X137592918Y-172961537D01*
X137413987Y-172693748D01*
X137186252Y-172466013D01*
X136918463Y-172287082D01*
X136620912Y-172163832D01*
X136305033Y-172101000D01*
X135982967Y-172101000D01*
X135667088Y-172163832D01*
X135369537Y-172287082D01*
X135101748Y-172466013D01*
X134874013Y-172693748D01*
X134695082Y-172961537D01*
X134689091Y-172976000D01*
X134062901Y-172976000D01*
X134040932Y-172934899D01*
X133861608Y-172716392D01*
X133643101Y-172537068D01*
X133393808Y-172403818D01*
X133123309Y-172321764D01*
X132912492Y-172301000D01*
X132771508Y-172301000D01*
X132560691Y-172321764D01*
X132290192Y-172403818D01*
X132040899Y-172537068D01*
X131822392Y-172716392D01*
X131643068Y-172934899D01*
X131509818Y-173184192D01*
X131427764Y-173454691D01*
X131400057Y-173736000D01*
X126657000Y-173736000D01*
X126657000Y-173594665D01*
X126620688Y-173412113D01*
X129854802Y-170178000D01*
X136049673Y-170178000D01*
X136086998Y-170181676D01*
X136124323Y-170178000D01*
X139751957Y-170178000D01*
X139855363Y-170332759D01*
X140055241Y-170532637D01*
X140290273Y-170689680D01*
X140551426Y-170797853D01*
X140828665Y-170853000D01*
X141111335Y-170853000D01*
X141388574Y-170797853D01*
X141649727Y-170689680D01*
X141884759Y-170532637D01*
X142084637Y-170332759D01*
X142188043Y-170178000D01*
X144577957Y-170178000D01*
X144681363Y-170332759D01*
X144881241Y-170532637D01*
X145036000Y-170636044D01*
X145036001Y-172142668D01*
X145032324Y-172180000D01*
X145046998Y-172328985D01*
X145090454Y-172472246D01*
X145161026Y-172604276D01*
X145232201Y-172691002D01*
X145256000Y-172720001D01*
X145284998Y-172743799D01*
X151137318Y-178596120D01*
X151115662Y-178816000D01*
X151140955Y-179072805D01*
X151215862Y-179319741D01*
X151337505Y-179547318D01*
X151501208Y-179746792D01*
X151700682Y-179910495D01*
X151928259Y-180032138D01*
X152175195Y-180107045D01*
X152367649Y-180126000D01*
X152496351Y-180126000D01*
X152688805Y-180107045D01*
X152935741Y-180032138D01*
X153163318Y-179910495D01*
X153232926Y-179853369D01*
X153305815Y-179942185D01*
X153402506Y-180021537D01*
X153512820Y-180080502D01*
X153632518Y-180116812D01*
X153757000Y-180129072D01*
X154146250Y-180126000D01*
X154305000Y-179967250D01*
X154305000Y-178943000D01*
X154559000Y-178943000D01*
X154559000Y-179967250D01*
X154717750Y-180126000D01*
X155107000Y-180129072D01*
X155231482Y-180116812D01*
X155351180Y-180080502D01*
X155461494Y-180021537D01*
X155558185Y-179942185D01*
X155637537Y-179845494D01*
X155696502Y-179735180D01*
X155732812Y-179615482D01*
X155745072Y-179491000D01*
X155742000Y-179101750D01*
X155583250Y-178943000D01*
X154559000Y-178943000D01*
X154305000Y-178943000D01*
X154285000Y-178943000D01*
X154285000Y-178689000D01*
X154305000Y-178689000D01*
X154305000Y-177664750D01*
X154559000Y-177664750D01*
X154559000Y-178689000D01*
X155583250Y-178689000D01*
X155742000Y-178530250D01*
X155745072Y-178141000D01*
X155732812Y-178016518D01*
X155696502Y-177896820D01*
X155637537Y-177786506D01*
X155558185Y-177689815D01*
X155461494Y-177610463D01*
X155351180Y-177551498D01*
X155231482Y-177515188D01*
X155107000Y-177502928D01*
X154717750Y-177506000D01*
X154559000Y-177664750D01*
X154305000Y-177664750D01*
X154146250Y-177506000D01*
X153757000Y-177502928D01*
X153632518Y-177515188D01*
X153512820Y-177551498D01*
X153402506Y-177610463D01*
X153305815Y-177689815D01*
X153232926Y-177778631D01*
X153163318Y-177721505D01*
X152935741Y-177599862D01*
X152688805Y-177524955D01*
X152496351Y-177506000D01*
X152367649Y-177506000D01*
X152212120Y-177521318D01*
X146556000Y-171865199D01*
X146556000Y-170636043D01*
X146710759Y-170532637D01*
X146910637Y-170332759D01*
X147067680Y-170097727D01*
X147175853Y-169836574D01*
X147231000Y-169559335D01*
X147231000Y-169276665D01*
X147194688Y-169094113D01*
X151637439Y-164651363D01*
X151619000Y-164744061D01*
X151619000Y-164947939D01*
X151658774Y-165147898D01*
X151736795Y-165336256D01*
X151850063Y-165505774D01*
X151994226Y-165649937D01*
X152163744Y-165763205D01*
X152352102Y-165841226D01*
X152552061Y-165881000D01*
X152614199Y-165881000D01*
X154942000Y-168208802D01*
X154942001Y-172618668D01*
X154938324Y-172656000D01*
X154952998Y-172804985D01*
X154996454Y-172948246D01*
X155067026Y-173080276D01*
X155116393Y-173140429D01*
X155162000Y-173196001D01*
X155190998Y-173219799D01*
X160503318Y-178532120D01*
X160481662Y-178752000D01*
X160505300Y-178992001D01*
X160000803Y-178992001D01*
X149879000Y-168870199D01*
X149879000Y-168808061D01*
X149839226Y-168608102D01*
X149761205Y-168419744D01*
X149647937Y-168250226D01*
X149503774Y-168106063D01*
X149334256Y-167992795D01*
X149145898Y-167914774D01*
X148945939Y-167875000D01*
X148742061Y-167875000D01*
X148542102Y-167914774D01*
X148353744Y-167992795D01*
X148184226Y-168106063D01*
X148040063Y-168250226D01*
X147926795Y-168419744D01*
X147848774Y-168608102D01*
X147809000Y-168808061D01*
X147809000Y-169011939D01*
X147848774Y-169211898D01*
X147926795Y-169400256D01*
X148040063Y-169569774D01*
X148184226Y-169713937D01*
X148353744Y-169827205D01*
X148542102Y-169905226D01*
X148742061Y-169945000D01*
X148804199Y-169945000D01*
X159122202Y-180263004D01*
X159146000Y-180292002D01*
X159261725Y-180386975D01*
X159393754Y-180457547D01*
X159537015Y-180501004D01*
X159648668Y-180512001D01*
X159648678Y-180512001D01*
X159686001Y-180515677D01*
X159723324Y-180512001D01*
X162240679Y-180512001D01*
X162278001Y-180515677D01*
X162315323Y-180512001D01*
X162315334Y-180512001D01*
X162426987Y-180501004D01*
X162570248Y-180457547D01*
X162702277Y-180386975D01*
X162818002Y-180292002D01*
X162841804Y-180262999D01*
X163309003Y-179795801D01*
X163338002Y-179772002D01*
X163411215Y-179682792D01*
X163432975Y-179656278D01*
X163503547Y-179524248D01*
X163523110Y-179459755D01*
X163547004Y-179380987D01*
X163558001Y-179269334D01*
X163558001Y-179269325D01*
X163561677Y-179232002D01*
X163558001Y-179194679D01*
X163558001Y-177789324D01*
X163561677Y-177752001D01*
X163558001Y-177714678D01*
X163558001Y-177714668D01*
X163547004Y-177603015D01*
X163503547Y-177459754D01*
X163494057Y-177442000D01*
X163432975Y-177327724D01*
X163361800Y-177240998D01*
X163338002Y-177212000D01*
X163309005Y-177188203D01*
X163092682Y-176971880D01*
X163114338Y-176752000D01*
X163089045Y-176495195D01*
X163014138Y-176248259D01*
X162892495Y-176020682D01*
X162835369Y-175951074D01*
X162924185Y-175878185D01*
X163003537Y-175781494D01*
X163062502Y-175671180D01*
X163098812Y-175551482D01*
X163111072Y-175427000D01*
X163111072Y-174077000D01*
X163098812Y-173952518D01*
X163062502Y-173832820D01*
X163003537Y-173722506D01*
X162924185Y-173625815D01*
X162827494Y-173546463D01*
X162717180Y-173487498D01*
X162597482Y-173451188D01*
X162473000Y-173438928D01*
X162452326Y-173438928D01*
X162432974Y-173402724D01*
X162338001Y-173286999D01*
X162222276Y-173192026D01*
X162090247Y-173121454D01*
X161946986Y-173077997D01*
X161798000Y-173063323D01*
X161649015Y-173077997D01*
X161505754Y-173121454D01*
X161373725Y-173192026D01*
X161258000Y-173286999D01*
X161163027Y-173402724D01*
X161143675Y-173438928D01*
X161123000Y-173438928D01*
X160998518Y-173451188D01*
X160878820Y-173487498D01*
X160768506Y-173546463D01*
X160671815Y-173625815D01*
X160592463Y-173722506D01*
X160533498Y-173832820D01*
X160497188Y-173952518D01*
X160484928Y-174077000D01*
X160484928Y-175427000D01*
X160497188Y-175551482D01*
X160533498Y-175671180D01*
X160592463Y-175781494D01*
X160671815Y-175878185D01*
X160760631Y-175951074D01*
X160703505Y-176020682D01*
X160581862Y-176248259D01*
X160532334Y-176411532D01*
X156462000Y-172341199D01*
X156462000Y-167931323D01*
X156465676Y-167894000D01*
X156462000Y-167856677D01*
X156462000Y-167856667D01*
X156451003Y-167745014D01*
X156407546Y-167601753D01*
X156336975Y-167469725D01*
X156336974Y-167469723D01*
X156265799Y-167382997D01*
X156242001Y-167353999D01*
X156213004Y-167330202D01*
X153689000Y-164806199D01*
X153689000Y-164744061D01*
X153649226Y-164544102D01*
X153571205Y-164355744D01*
X153457937Y-164186226D01*
X153313774Y-164042063D01*
X153144256Y-163928795D01*
X152955898Y-163850774D01*
X152755939Y-163811000D01*
X152552061Y-163811000D01*
X152459363Y-163829439D01*
X152657003Y-163631799D01*
X152686001Y-163608001D01*
X152757191Y-163521256D01*
X152780974Y-163492277D01*
X152851546Y-163360247D01*
X152863148Y-163322000D01*
X152895003Y-163216986D01*
X152906000Y-163105333D01*
X152906000Y-163105324D01*
X152909676Y-163068001D01*
X152906000Y-163030678D01*
X152906000Y-155483343D01*
X152976795Y-155654256D01*
X153090063Y-155823774D01*
X153234226Y-155967937D01*
X153403744Y-156081205D01*
X153592102Y-156159226D01*
X153792061Y-156199000D01*
X153905000Y-156199000D01*
X153905000Y-156311939D01*
X153944774Y-156511898D01*
X154022795Y-156700256D01*
X154136063Y-156869774D01*
X154280226Y-157013937D01*
X154449744Y-157127205D01*
X154638102Y-157205226D01*
X154838061Y-157245000D01*
X154921000Y-157245000D01*
X154921000Y-157327939D01*
X154960774Y-157527898D01*
X155038795Y-157716256D01*
X155152063Y-157885774D01*
X155296226Y-158029937D01*
X155465744Y-158143205D01*
X155654102Y-158221226D01*
X155854061Y-158261000D01*
X155937000Y-158261000D01*
X155937000Y-158343939D01*
X155976774Y-158543898D01*
X156054795Y-158732256D01*
X156168063Y-158901774D01*
X156312226Y-159045937D01*
X156481744Y-159159205D01*
X156670102Y-159237226D01*
X156870061Y-159277000D01*
X156905000Y-159277000D01*
X156905000Y-159407939D01*
X156944774Y-159607898D01*
X157022795Y-159796256D01*
X157136063Y-159965774D01*
X157280226Y-160109937D01*
X157449744Y-160223205D01*
X157638102Y-160301226D01*
X157838061Y-160341000D01*
X158041939Y-160341000D01*
X158241898Y-160301226D01*
X158430256Y-160223205D01*
X158599774Y-160109937D01*
X158743937Y-159965774D01*
X158857205Y-159796256D01*
X158935226Y-159607898D01*
X158975000Y-159407939D01*
X158975000Y-159204061D01*
X158935226Y-159004102D01*
X158857205Y-158815744D01*
X158743937Y-158646226D01*
X158700000Y-158602289D01*
X158700000Y-155164000D01*
X160481662Y-155164000D01*
X160506955Y-155420805D01*
X160581862Y-155667741D01*
X160703505Y-155895318D01*
X160867208Y-156094792D01*
X160951539Y-156164000D01*
X160867208Y-156233208D01*
X160703505Y-156432682D01*
X160581862Y-156660259D01*
X160506955Y-156907195D01*
X160481662Y-157164000D01*
X160506955Y-157420805D01*
X160581862Y-157667741D01*
X160703505Y-157895318D01*
X160867208Y-158094792D01*
X160951539Y-158164000D01*
X160867208Y-158233208D01*
X160703505Y-158432682D01*
X160581862Y-158660259D01*
X160506955Y-158907195D01*
X160481662Y-159164000D01*
X160506955Y-159420805D01*
X160581862Y-159667741D01*
X160703505Y-159895318D01*
X160867208Y-160094792D01*
X160951539Y-160164000D01*
X160867208Y-160233208D01*
X160703505Y-160432682D01*
X160581862Y-160660259D01*
X160506955Y-160907195D01*
X160481662Y-161164000D01*
X160506955Y-161420805D01*
X160581862Y-161667741D01*
X160703505Y-161895318D01*
X160867208Y-162094792D01*
X160951539Y-162164000D01*
X160867208Y-162233208D01*
X160703505Y-162432682D01*
X160581862Y-162660259D01*
X160506955Y-162907195D01*
X160481662Y-163164000D01*
X160506955Y-163420805D01*
X160581862Y-163667741D01*
X160703505Y-163895318D01*
X160867208Y-164094792D01*
X160951539Y-164164000D01*
X160867208Y-164233208D01*
X160703505Y-164432682D01*
X160581862Y-164660259D01*
X160506955Y-164907195D01*
X160481662Y-165164000D01*
X160506955Y-165420805D01*
X160581862Y-165667741D01*
X160703505Y-165895318D01*
X160867208Y-166094792D01*
X160951539Y-166164000D01*
X160867208Y-166233208D01*
X160703505Y-166432682D01*
X160581862Y-166660259D01*
X160506955Y-166907195D01*
X160481662Y-167164000D01*
X160506955Y-167420805D01*
X160581862Y-167667741D01*
X160703505Y-167895318D01*
X160760631Y-167964926D01*
X160671815Y-168037815D01*
X160592463Y-168134506D01*
X160533498Y-168244820D01*
X160497188Y-168364518D01*
X160484928Y-168489000D01*
X160484928Y-169839000D01*
X160497188Y-169963482D01*
X160533498Y-170083180D01*
X160592463Y-170193494D01*
X160671815Y-170290185D01*
X160768506Y-170369537D01*
X160878820Y-170428502D01*
X160998518Y-170464812D01*
X161123000Y-170477072D01*
X162473000Y-170477072D01*
X162597482Y-170464812D01*
X162717180Y-170428502D01*
X162827494Y-170369537D01*
X162924185Y-170290185D01*
X163003537Y-170193494D01*
X163062502Y-170083180D01*
X163098812Y-169963482D01*
X163111072Y-169839000D01*
X163111072Y-168489000D01*
X163098812Y-168364518D01*
X163062502Y-168244820D01*
X163003537Y-168134506D01*
X162924185Y-168037815D01*
X162835369Y-167964926D01*
X162892495Y-167895318D01*
X163014138Y-167667741D01*
X163089045Y-167420805D01*
X163114338Y-167164000D01*
X163089045Y-166907195D01*
X163014138Y-166660259D01*
X162892495Y-166432682D01*
X162728792Y-166233208D01*
X162644461Y-166164000D01*
X162728792Y-166094792D01*
X162892495Y-165895318D01*
X163014138Y-165667741D01*
X163089045Y-165420805D01*
X163114338Y-165164000D01*
X163089045Y-164907195D01*
X163014138Y-164660259D01*
X162892495Y-164432682D01*
X162728792Y-164233208D01*
X162644461Y-164164000D01*
X162728792Y-164094792D01*
X162892495Y-163895318D01*
X163014138Y-163667741D01*
X163089045Y-163420805D01*
X163114338Y-163164000D01*
X163089045Y-162907195D01*
X163014138Y-162660259D01*
X162892495Y-162432682D01*
X162728792Y-162233208D01*
X162644461Y-162164000D01*
X162728792Y-162094792D01*
X162892495Y-161895318D01*
X163014138Y-161667741D01*
X163089045Y-161420805D01*
X163114338Y-161164000D01*
X163089045Y-160907195D01*
X163014138Y-160660259D01*
X162892495Y-160432682D01*
X162728792Y-160233208D01*
X162644461Y-160164000D01*
X162728792Y-160094792D01*
X162892495Y-159895318D01*
X163014138Y-159667741D01*
X163089045Y-159420805D01*
X163114338Y-159164000D01*
X163089045Y-158907195D01*
X163014138Y-158660259D01*
X162892495Y-158432682D01*
X162728792Y-158233208D01*
X162644461Y-158164000D01*
X162728792Y-158094792D01*
X162892495Y-157895318D01*
X163014138Y-157667741D01*
X163089045Y-157420805D01*
X163114338Y-157164000D01*
X163089045Y-156907195D01*
X163014138Y-156660259D01*
X162892495Y-156432682D01*
X162728792Y-156233208D01*
X162644461Y-156164000D01*
X162728792Y-156094792D01*
X162892495Y-155895318D01*
X163014138Y-155667741D01*
X163089045Y-155420805D01*
X163114338Y-155164000D01*
X163089045Y-154907195D01*
X163014138Y-154660259D01*
X162892495Y-154432682D01*
X162728792Y-154233208D01*
X162529318Y-154069505D01*
X162301741Y-153947862D01*
X162054805Y-153872955D01*
X161862351Y-153854000D01*
X161733649Y-153854000D01*
X161541195Y-153872955D01*
X161294259Y-153947862D01*
X161066682Y-154069505D01*
X160867208Y-154233208D01*
X160703505Y-154432682D01*
X160581862Y-154660259D01*
X160506955Y-154907195D01*
X160481662Y-155164000D01*
X158700000Y-155164000D01*
X158700000Y-135147000D01*
X158851939Y-135147000D01*
X159051898Y-135107226D01*
X159240256Y-135029205D01*
X159409774Y-134915937D01*
X159553937Y-134771774D01*
X159667205Y-134602256D01*
X159745226Y-134413898D01*
X159785000Y-134213939D01*
X159785000Y-134010061D01*
X159745226Y-133810102D01*
X159667205Y-133621744D01*
X159553937Y-133452226D01*
X159425001Y-133323290D01*
X159425001Y-121380000D01*
X160481662Y-121380000D01*
X160506955Y-121636805D01*
X160581862Y-121883741D01*
X160703505Y-122111318D01*
X160867208Y-122310792D01*
X160951539Y-122380000D01*
X160867208Y-122449208D01*
X160703505Y-122648682D01*
X160581862Y-122876259D01*
X160506955Y-123123195D01*
X160481662Y-123380000D01*
X160506955Y-123636805D01*
X160581862Y-123883741D01*
X160703505Y-124111318D01*
X160867208Y-124310792D01*
X160951539Y-124380000D01*
X160867208Y-124449208D01*
X160703505Y-124648682D01*
X160581862Y-124876259D01*
X160506955Y-125123195D01*
X160481662Y-125380000D01*
X160506955Y-125636805D01*
X160581862Y-125883741D01*
X160703505Y-126111318D01*
X160867208Y-126310792D01*
X160951539Y-126380000D01*
X160867208Y-126449208D01*
X160703505Y-126648682D01*
X160581862Y-126876259D01*
X160506955Y-127123195D01*
X160481662Y-127380000D01*
X160506955Y-127636805D01*
X160581862Y-127883741D01*
X160703505Y-128111318D01*
X160867208Y-128310792D01*
X160951539Y-128380000D01*
X160867208Y-128449208D01*
X160703505Y-128648682D01*
X160581862Y-128876259D01*
X160506955Y-129123195D01*
X160481662Y-129380000D01*
X160506955Y-129636805D01*
X160581862Y-129883741D01*
X160703505Y-130111318D01*
X160867208Y-130310792D01*
X160951539Y-130380000D01*
X160867208Y-130449208D01*
X160703505Y-130648682D01*
X160581862Y-130876259D01*
X160506955Y-131123195D01*
X160481662Y-131380000D01*
X160506955Y-131636805D01*
X160581862Y-131883741D01*
X160703505Y-132111318D01*
X160867208Y-132310792D01*
X160951539Y-132380000D01*
X160867208Y-132449208D01*
X160703505Y-132648682D01*
X160581862Y-132876259D01*
X160506955Y-133123195D01*
X160481662Y-133380000D01*
X160506955Y-133636805D01*
X160581862Y-133883741D01*
X160703505Y-134111318D01*
X160867208Y-134310792D01*
X160951539Y-134380000D01*
X160867208Y-134449208D01*
X160703505Y-134648682D01*
X160581862Y-134876259D01*
X160506955Y-135123195D01*
X160481662Y-135380000D01*
X160506955Y-135636805D01*
X160581862Y-135883741D01*
X160703505Y-136111318D01*
X160867208Y-136310792D01*
X160951539Y-136380000D01*
X160867208Y-136449208D01*
X160703505Y-136648682D01*
X160581862Y-136876259D01*
X160506955Y-137123195D01*
X160481662Y-137380000D01*
X160506955Y-137636805D01*
X160581862Y-137883741D01*
X160703505Y-138111318D01*
X160867208Y-138310792D01*
X160951539Y-138380000D01*
X160867208Y-138449208D01*
X160703505Y-138648682D01*
X160581862Y-138876259D01*
X160506955Y-139123195D01*
X160481662Y-139380000D01*
X160506955Y-139636805D01*
X160581862Y-139883741D01*
X160703505Y-140111318D01*
X160867208Y-140310792D01*
X160951539Y-140380000D01*
X160867208Y-140449208D01*
X160703505Y-140648682D01*
X160581862Y-140876259D01*
X160506955Y-141123195D01*
X160481662Y-141380000D01*
X160506955Y-141636805D01*
X160581862Y-141883741D01*
X160703505Y-142111318D01*
X160867208Y-142310792D01*
X160951539Y-142380000D01*
X160867208Y-142449208D01*
X160703505Y-142648682D01*
X160581862Y-142876259D01*
X160506955Y-143123195D01*
X160481662Y-143380000D01*
X160506955Y-143636805D01*
X160581862Y-143883741D01*
X160703505Y-144111318D01*
X160867208Y-144310792D01*
X160951539Y-144380000D01*
X160867208Y-144449208D01*
X160703505Y-144648682D01*
X160581862Y-144876259D01*
X160506955Y-145123195D01*
X160481662Y-145380000D01*
X160506955Y-145636805D01*
X160581862Y-145883741D01*
X160703505Y-146111318D01*
X160867208Y-146310792D01*
X160951539Y-146380000D01*
X160867208Y-146449208D01*
X160703505Y-146648682D01*
X160581862Y-146876259D01*
X160506955Y-147123195D01*
X160481662Y-147380000D01*
X160506955Y-147636805D01*
X160581862Y-147883741D01*
X160703505Y-148111318D01*
X160867208Y-148310792D01*
X160951539Y-148380000D01*
X160867208Y-148449208D01*
X160703505Y-148648682D01*
X160581862Y-148876259D01*
X160506955Y-149123195D01*
X160481662Y-149380000D01*
X160506955Y-149636805D01*
X160581862Y-149883741D01*
X160703505Y-150111318D01*
X160867208Y-150310792D01*
X161066682Y-150474495D01*
X161294259Y-150596138D01*
X161541195Y-150671045D01*
X161733649Y-150690000D01*
X161862351Y-150690000D01*
X162054805Y-150671045D01*
X162301741Y-150596138D01*
X162529318Y-150474495D01*
X162728792Y-150310792D01*
X162892495Y-150111318D01*
X163014138Y-149883741D01*
X163089045Y-149636805D01*
X163114338Y-149380000D01*
X163089045Y-149123195D01*
X163014138Y-148876259D01*
X162892495Y-148648682D01*
X162728792Y-148449208D01*
X162644461Y-148380000D01*
X162728792Y-148310792D01*
X162892495Y-148111318D01*
X163014138Y-147883741D01*
X163089045Y-147636805D01*
X163114338Y-147380000D01*
X163089045Y-147123195D01*
X163014138Y-146876259D01*
X162892495Y-146648682D01*
X162728792Y-146449208D01*
X162644461Y-146380000D01*
X162728792Y-146310792D01*
X162892495Y-146111318D01*
X163014138Y-145883741D01*
X163089045Y-145636805D01*
X163114338Y-145380000D01*
X163089045Y-145123195D01*
X163014138Y-144876259D01*
X162892495Y-144648682D01*
X162728792Y-144449208D01*
X162644461Y-144380000D01*
X162728792Y-144310792D01*
X162892495Y-144111318D01*
X163014138Y-143883741D01*
X163089045Y-143636805D01*
X163114338Y-143380000D01*
X163089045Y-143123195D01*
X163014138Y-142876259D01*
X162892495Y-142648682D01*
X162728792Y-142449208D01*
X162644461Y-142380000D01*
X162728792Y-142310792D01*
X162892495Y-142111318D01*
X163014138Y-141883741D01*
X163089045Y-141636805D01*
X163114338Y-141380000D01*
X163089045Y-141123195D01*
X163014138Y-140876259D01*
X162892495Y-140648682D01*
X162728792Y-140449208D01*
X162644461Y-140380000D01*
X162728792Y-140310792D01*
X162892495Y-140111318D01*
X163014138Y-139883741D01*
X163089045Y-139636805D01*
X163114338Y-139380000D01*
X163089045Y-139123195D01*
X163014138Y-138876259D01*
X162892495Y-138648682D01*
X162728792Y-138449208D01*
X162644461Y-138380000D01*
X162728792Y-138310792D01*
X162892495Y-138111318D01*
X163014138Y-137883741D01*
X163089045Y-137636805D01*
X163114338Y-137380000D01*
X163089045Y-137123195D01*
X163014138Y-136876259D01*
X162892495Y-136648682D01*
X162728792Y-136449208D01*
X162644461Y-136380000D01*
X162728792Y-136310792D01*
X162892495Y-136111318D01*
X163014138Y-135883741D01*
X163089045Y-135636805D01*
X163114338Y-135380000D01*
X163089045Y-135123195D01*
X163014138Y-134876259D01*
X162892495Y-134648682D01*
X162728792Y-134449208D01*
X162644461Y-134380000D01*
X162728792Y-134310792D01*
X162892495Y-134111318D01*
X163014138Y-133883741D01*
X163089045Y-133636805D01*
X163114338Y-133380000D01*
X163089045Y-133123195D01*
X163014138Y-132876259D01*
X162892495Y-132648682D01*
X162728792Y-132449208D01*
X162644461Y-132380000D01*
X162728792Y-132310792D01*
X162892495Y-132111318D01*
X163014138Y-131883741D01*
X163089045Y-131636805D01*
X163114338Y-131380000D01*
X163089045Y-131123195D01*
X163014138Y-130876259D01*
X162892495Y-130648682D01*
X162728792Y-130449208D01*
X162644461Y-130380000D01*
X162728792Y-130310792D01*
X162892495Y-130111318D01*
X163014138Y-129883741D01*
X163089045Y-129636805D01*
X163114338Y-129380000D01*
X163089045Y-129123195D01*
X163014138Y-128876259D01*
X162892495Y-128648682D01*
X162728792Y-128449208D01*
X162644461Y-128380000D01*
X162728792Y-128310792D01*
X162892495Y-128111318D01*
X163014138Y-127883741D01*
X163089045Y-127636805D01*
X163114338Y-127380000D01*
X163089045Y-127123195D01*
X163014138Y-126876259D01*
X162892495Y-126648682D01*
X162728792Y-126449208D01*
X162644461Y-126380000D01*
X162728792Y-126310792D01*
X162892495Y-126111318D01*
X163014138Y-125883741D01*
X163089045Y-125636805D01*
X163114338Y-125380000D01*
X163089045Y-125123195D01*
X163014138Y-124876259D01*
X162892495Y-124648682D01*
X162728792Y-124449208D01*
X162644461Y-124380000D01*
X162728792Y-124310792D01*
X162892495Y-124111318D01*
X163014138Y-123883741D01*
X163089045Y-123636805D01*
X163114338Y-123380000D01*
X163089045Y-123123195D01*
X163014138Y-122876259D01*
X162892495Y-122648682D01*
X162728792Y-122449208D01*
X162644461Y-122380000D01*
X162728792Y-122310792D01*
X162892495Y-122111318D01*
X163014138Y-121883741D01*
X163089045Y-121636805D01*
X163114338Y-121380000D01*
X163089045Y-121123195D01*
X163014138Y-120876259D01*
X162892495Y-120648682D01*
X162835369Y-120579074D01*
X162924185Y-120506185D01*
X163003537Y-120409494D01*
X163062502Y-120299180D01*
X163098812Y-120179482D01*
X163111072Y-120055000D01*
X163111072Y-118705000D01*
X163098812Y-118580518D01*
X163062502Y-118460820D01*
X163003537Y-118350506D01*
X162924185Y-118253815D01*
X162827494Y-118174463D01*
X162717180Y-118115498D01*
X162597482Y-118079188D01*
X162473000Y-118066928D01*
X161123000Y-118066928D01*
X160998518Y-118079188D01*
X160878820Y-118115498D01*
X160768506Y-118174463D01*
X160671815Y-118253815D01*
X160592463Y-118350506D01*
X160533498Y-118460820D01*
X160497188Y-118580518D01*
X160484928Y-118705000D01*
X160484928Y-120055000D01*
X160497188Y-120179482D01*
X160533498Y-120299180D01*
X160592463Y-120409494D01*
X160671815Y-120506185D01*
X160760631Y-120579074D01*
X160703505Y-120648682D01*
X160581862Y-120876259D01*
X160506955Y-121123195D01*
X160481662Y-121380000D01*
X159425001Y-121380000D01*
X159425001Y-98298000D01*
X160610057Y-98298000D01*
X160637764Y-98579309D01*
X160719818Y-98849808D01*
X160853068Y-99099101D01*
X161032392Y-99317608D01*
X161250899Y-99496932D01*
X161383858Y-99568000D01*
X161250899Y-99639068D01*
X161032392Y-99818392D01*
X160853068Y-100036899D01*
X160719818Y-100286192D01*
X160637764Y-100556691D01*
X160610057Y-100838000D01*
X160637764Y-101119309D01*
X160719818Y-101389808D01*
X160853068Y-101639101D01*
X161032392Y-101857608D01*
X161250899Y-102036932D01*
X161383858Y-102108000D01*
X161250899Y-102179068D01*
X161032392Y-102358392D01*
X160853068Y-102576899D01*
X160719818Y-102826192D01*
X160637764Y-103096691D01*
X160610057Y-103378000D01*
X160637764Y-103659309D01*
X160719818Y-103929808D01*
X160853068Y-104179101D01*
X161032392Y-104397608D01*
X161250899Y-104576932D01*
X161383858Y-104648000D01*
X161250899Y-104719068D01*
X161032392Y-104898392D01*
X160853068Y-105116899D01*
X160719818Y-105366192D01*
X160637764Y-105636691D01*
X160610057Y-105918000D01*
X160637764Y-106199309D01*
X160719818Y-106469808D01*
X160853068Y-106719101D01*
X161032392Y-106937608D01*
X161250899Y-107116932D01*
X161383858Y-107188000D01*
X161250899Y-107259068D01*
X161032392Y-107438392D01*
X160853068Y-107656899D01*
X160719818Y-107906192D01*
X160637764Y-108176691D01*
X160610057Y-108458000D01*
X160637764Y-108739309D01*
X160719818Y-109009808D01*
X160853068Y-109259101D01*
X161032392Y-109477608D01*
X161250899Y-109656932D01*
X161383858Y-109728000D01*
X161250899Y-109799068D01*
X161032392Y-109978392D01*
X160853068Y-110196899D01*
X160719818Y-110446192D01*
X160637764Y-110716691D01*
X160610057Y-110998000D01*
X160637764Y-111279309D01*
X160719818Y-111549808D01*
X160853068Y-111799101D01*
X161032392Y-112017608D01*
X161250899Y-112196932D01*
X161383858Y-112268000D01*
X161250899Y-112339068D01*
X161032392Y-112518392D01*
X160853068Y-112736899D01*
X160719818Y-112986192D01*
X160637764Y-113256691D01*
X160610057Y-113538000D01*
X160637764Y-113819309D01*
X160719818Y-114089808D01*
X160853068Y-114339101D01*
X161032392Y-114557608D01*
X161250899Y-114736932D01*
X161500192Y-114870182D01*
X161770691Y-114952236D01*
X161981508Y-114973000D01*
X162122492Y-114973000D01*
X162333309Y-114952236D01*
X162603808Y-114870182D01*
X162853101Y-114736932D01*
X163071608Y-114557608D01*
X163250932Y-114339101D01*
X163384182Y-114089808D01*
X163466236Y-113819309D01*
X163493943Y-113538000D01*
X163466236Y-113256691D01*
X163384182Y-112986192D01*
X163250932Y-112736899D01*
X163071608Y-112518392D01*
X162853101Y-112339068D01*
X162720142Y-112268000D01*
X162853101Y-112196932D01*
X163071608Y-112017608D01*
X163250932Y-111799101D01*
X163384182Y-111549808D01*
X163466236Y-111279309D01*
X163493943Y-110998000D01*
X163466236Y-110716691D01*
X163384182Y-110446192D01*
X163250932Y-110196899D01*
X163071608Y-109978392D01*
X162853101Y-109799068D01*
X162720142Y-109728000D01*
X162853101Y-109656932D01*
X163071608Y-109477608D01*
X163250932Y-109259101D01*
X163384182Y-109009808D01*
X163466236Y-108739309D01*
X163493943Y-108458000D01*
X163466236Y-108176691D01*
X163384182Y-107906192D01*
X163250932Y-107656899D01*
X163071608Y-107438392D01*
X162853101Y-107259068D01*
X162720142Y-107188000D01*
X162853101Y-107116932D01*
X163071608Y-106937608D01*
X163250932Y-106719101D01*
X163384182Y-106469808D01*
X163466236Y-106199309D01*
X163493943Y-105918000D01*
X163466236Y-105636691D01*
X163384182Y-105366192D01*
X163250932Y-105116899D01*
X163071608Y-104898392D01*
X162853101Y-104719068D01*
X162720142Y-104648000D01*
X162853101Y-104576932D01*
X163071608Y-104397608D01*
X163250932Y-104179101D01*
X163384182Y-103929808D01*
X163466236Y-103659309D01*
X163493943Y-103378000D01*
X163466236Y-103096691D01*
X163384182Y-102826192D01*
X163250932Y-102576899D01*
X163071608Y-102358392D01*
X162853101Y-102179068D01*
X162720142Y-102108000D01*
X162853101Y-102036932D01*
X163071608Y-101857608D01*
X163250932Y-101639101D01*
X163384182Y-101389808D01*
X163466236Y-101119309D01*
X163493943Y-100838000D01*
X163466236Y-100556691D01*
X163384182Y-100286192D01*
X163250932Y-100036899D01*
X163071608Y-99818392D01*
X162853101Y-99639068D01*
X162720142Y-99568000D01*
X162853101Y-99496932D01*
X163071608Y-99317608D01*
X163250932Y-99099101D01*
X163384182Y-98849808D01*
X163466236Y-98579309D01*
X163493943Y-98298000D01*
X163466236Y-98016691D01*
X163384182Y-97746192D01*
X163250932Y-97496899D01*
X163071608Y-97278392D01*
X162853101Y-97099068D01*
X162603808Y-96965818D01*
X162333309Y-96883764D01*
X162122492Y-96863000D01*
X161981508Y-96863000D01*
X161770691Y-96883764D01*
X161500192Y-96965818D01*
X161250899Y-97099068D01*
X161032392Y-97278392D01*
X160853068Y-97496899D01*
X160719818Y-97746192D01*
X160637764Y-98016691D01*
X160610057Y-98298000D01*
X159425001Y-98298000D01*
X159425001Y-88344323D01*
X159428677Y-88307000D01*
X159425001Y-88269677D01*
X159425001Y-88269668D01*
X159414004Y-88158015D01*
X159370547Y-88014754D01*
X159299975Y-87882725D01*
X159249990Y-87821818D01*
X159228800Y-87795997D01*
X159228796Y-87795993D01*
X159205002Y-87767000D01*
X159176010Y-87743207D01*
X155832708Y-84399906D01*
X155846236Y-84355309D01*
X155873943Y-84074000D01*
X155846236Y-83792691D01*
X155832708Y-83748094D01*
X156975003Y-82605799D01*
X157004001Y-82582001D01*
X157030332Y-82549917D01*
X157098974Y-82466277D01*
X157169546Y-82334247D01*
X157213003Y-82190986D01*
X157224000Y-82079333D01*
X157224000Y-82079323D01*
X157227676Y-82042000D01*
X157224000Y-82004677D01*
X157224000Y-77473325D01*
X157227676Y-77436000D01*
X157224000Y-77398675D01*
X157224000Y-77398667D01*
X157213003Y-77287014D01*
X157169546Y-77143753D01*
X157098974Y-77011724D01*
X157004001Y-76895999D01*
X156975004Y-76872202D01*
X156045804Y-75943002D01*
X156022001Y-75913999D01*
X155906276Y-75819026D01*
X155870072Y-75799674D01*
X155870072Y-75654000D01*
X155857812Y-75529518D01*
X155821502Y-75409820D01*
X155762537Y-75299506D01*
X155683185Y-75202815D01*
X155586494Y-75123463D01*
X155508923Y-75082000D01*
X161631456Y-75082000D01*
X161500192Y-75121818D01*
X161250899Y-75255068D01*
X161032392Y-75434392D01*
X160853068Y-75652899D01*
X160719818Y-75902192D01*
X160637764Y-76172691D01*
X160610057Y-76454000D01*
X160637764Y-76735309D01*
X160719818Y-77005808D01*
X160853068Y-77255101D01*
X161032392Y-77473608D01*
X161250899Y-77652932D01*
X161383858Y-77724000D01*
X161250899Y-77795068D01*
X161032392Y-77974392D01*
X160853068Y-78192899D01*
X160719818Y-78442192D01*
X160637764Y-78712691D01*
X160610057Y-78994000D01*
X160637764Y-79275309D01*
X160719818Y-79545808D01*
X160853068Y-79795101D01*
X161032392Y-80013608D01*
X161250899Y-80192932D01*
X161383858Y-80264000D01*
X161250899Y-80335068D01*
X161032392Y-80514392D01*
X160853068Y-80732899D01*
X160719818Y-80982192D01*
X160637764Y-81252691D01*
X160610057Y-81534000D01*
X160637764Y-81815309D01*
X160719818Y-82085808D01*
X160853068Y-82335101D01*
X161032392Y-82553608D01*
X161250899Y-82732932D01*
X161383858Y-82804000D01*
X161250899Y-82875068D01*
X161032392Y-83054392D01*
X160853068Y-83272899D01*
X160719818Y-83522192D01*
X160637764Y-83792691D01*
X160610057Y-84074000D01*
X160637764Y-84355309D01*
X160719818Y-84625808D01*
X160853068Y-84875101D01*
X161032392Y-85093608D01*
X161250899Y-85272932D01*
X161383858Y-85344000D01*
X161250899Y-85415068D01*
X161032392Y-85594392D01*
X160853068Y-85812899D01*
X160719818Y-86062192D01*
X160637764Y-86332691D01*
X160610057Y-86614000D01*
X160637764Y-86895309D01*
X160719818Y-87165808D01*
X160853068Y-87415101D01*
X161032392Y-87633608D01*
X161250899Y-87812932D01*
X161383858Y-87884000D01*
X161250899Y-87955068D01*
X161032392Y-88134392D01*
X160853068Y-88352899D01*
X160719818Y-88602192D01*
X160637764Y-88872691D01*
X160610057Y-89154000D01*
X160637764Y-89435309D01*
X160719818Y-89705808D01*
X160853068Y-89955101D01*
X161032392Y-90173608D01*
X161250899Y-90352932D01*
X161383858Y-90424000D01*
X161250899Y-90495068D01*
X161032392Y-90674392D01*
X160853068Y-90892899D01*
X160719818Y-91142192D01*
X160637764Y-91412691D01*
X160610057Y-91694000D01*
X160637764Y-91975309D01*
X160719818Y-92245808D01*
X160853068Y-92495101D01*
X161032392Y-92713608D01*
X161250899Y-92892932D01*
X161500192Y-93026182D01*
X161770691Y-93108236D01*
X161981508Y-93129000D01*
X162122492Y-93129000D01*
X162333309Y-93108236D01*
X162603808Y-93026182D01*
X162853101Y-92892932D01*
X163071608Y-92713608D01*
X163250932Y-92495101D01*
X163384182Y-92245808D01*
X163466236Y-91975309D01*
X163493943Y-91694000D01*
X163466236Y-91412691D01*
X163384182Y-91142192D01*
X163250932Y-90892899D01*
X163071608Y-90674392D01*
X162853101Y-90495068D01*
X162720142Y-90424000D01*
X162853101Y-90352932D01*
X163071608Y-90173608D01*
X163250932Y-89955101D01*
X163384182Y-89705808D01*
X163466236Y-89435309D01*
X163493943Y-89154000D01*
X163466236Y-88872691D01*
X163384182Y-88602192D01*
X163250932Y-88352899D01*
X163071608Y-88134392D01*
X162853101Y-87955068D01*
X162720142Y-87884000D01*
X162853101Y-87812932D01*
X163071608Y-87633608D01*
X163250932Y-87415101D01*
X163384182Y-87165808D01*
X163466236Y-86895309D01*
X163493943Y-86614000D01*
X163466236Y-86332691D01*
X163384182Y-86062192D01*
X163250932Y-85812899D01*
X163071608Y-85594392D01*
X162853101Y-85415068D01*
X162720142Y-85344000D01*
X162853101Y-85272932D01*
X163071608Y-85093608D01*
X163250932Y-84875101D01*
X163384182Y-84625808D01*
X163466236Y-84355309D01*
X163493943Y-84074000D01*
X163466236Y-83792691D01*
X163384182Y-83522192D01*
X163250932Y-83272899D01*
X163071608Y-83054392D01*
X162853101Y-82875068D01*
X162720142Y-82804000D01*
X162853101Y-82732932D01*
X163071608Y-82553608D01*
X163250932Y-82335101D01*
X163384182Y-82085808D01*
X163466236Y-81815309D01*
X163493943Y-81534000D01*
X163466236Y-81252691D01*
X163384182Y-80982192D01*
X163250932Y-80732899D01*
X163071608Y-80514392D01*
X162853101Y-80335068D01*
X162720142Y-80264000D01*
X162853101Y-80192932D01*
X163071608Y-80013608D01*
X163250932Y-79795101D01*
X163384182Y-79545808D01*
X163466236Y-79275309D01*
X163493943Y-78994000D01*
X163466236Y-78712691D01*
X163384182Y-78442192D01*
X163250932Y-78192899D01*
X163071608Y-77974392D01*
X162853101Y-77795068D01*
X162720142Y-77724000D01*
X162853101Y-77652932D01*
X163071608Y-77473608D01*
X163250932Y-77255101D01*
X163384182Y-77005808D01*
X163466236Y-76735309D01*
X163493943Y-76454000D01*
X163466236Y-76172691D01*
X163384182Y-75902192D01*
X163250932Y-75652899D01*
X163071608Y-75434392D01*
X162853101Y-75255068D01*
X162603808Y-75121818D01*
X162472544Y-75082000D01*
X163678000Y-75082000D01*
X163678001Y-181204000D01*
X96164000Y-181204000D01*
X96164000Y-179371413D01*
X135188192Y-179371413D01*
X135283956Y-179635814D01*
X135573571Y-179776704D01*
X135885108Y-179858384D01*
X136206595Y-179877718D01*
X136525675Y-179833961D01*
X136830088Y-179728795D01*
X137004044Y-179635814D01*
X137099808Y-179371413D01*
X141688192Y-179371413D01*
X141783956Y-179635814D01*
X142073571Y-179776704D01*
X142385108Y-179858384D01*
X142706595Y-179877718D01*
X143025675Y-179833961D01*
X143330088Y-179728795D01*
X143504044Y-179635814D01*
X143599808Y-179371413D01*
X142644000Y-178415605D01*
X141688192Y-179371413D01*
X137099808Y-179371413D01*
X136144000Y-178415605D01*
X135188192Y-179371413D01*
X96164000Y-179371413D01*
X96164000Y-178298595D01*
X134502282Y-178298595D01*
X134546039Y-178617675D01*
X134651205Y-178922088D01*
X134744186Y-179096044D01*
X135008587Y-179191808D01*
X135964395Y-178236000D01*
X136323605Y-178236000D01*
X137279413Y-179191808D01*
X137543814Y-179096044D01*
X137684704Y-178806429D01*
X137766384Y-178494892D01*
X137778189Y-178298595D01*
X141002282Y-178298595D01*
X141046039Y-178617675D01*
X141151205Y-178922088D01*
X141244186Y-179096044D01*
X141508587Y-179191808D01*
X142464395Y-178236000D01*
X142823605Y-178236000D01*
X143779413Y-179191808D01*
X144043814Y-179096044D01*
X144184704Y-178806429D01*
X144266384Y-178494892D01*
X144285718Y-178173405D01*
X144241961Y-177854325D01*
X144136795Y-177549912D01*
X144043814Y-177375956D01*
X143779413Y-177280192D01*
X142823605Y-178236000D01*
X142464395Y-178236000D01*
X141508587Y-177280192D01*
X141244186Y-177375956D01*
X141103296Y-177665571D01*
X141021616Y-177977108D01*
X141002282Y-178298595D01*
X137778189Y-178298595D01*
X137785718Y-178173405D01*
X137741961Y-177854325D01*
X137636795Y-177549912D01*
X137543814Y-177375956D01*
X137279413Y-177280192D01*
X136323605Y-178236000D01*
X135964395Y-178236000D01*
X135008587Y-177280192D01*
X134744186Y-177375956D01*
X134603296Y-177665571D01*
X134521616Y-177977108D01*
X134502282Y-178298595D01*
X96164000Y-178298595D01*
X96164000Y-177100587D01*
X135188192Y-177100587D01*
X136144000Y-178056395D01*
X137099808Y-177100587D01*
X141688192Y-177100587D01*
X142644000Y-178056395D01*
X143599808Y-177100587D01*
X143504044Y-176836186D01*
X143214429Y-176695296D01*
X142902892Y-176613616D01*
X142581405Y-176594282D01*
X142262325Y-176638039D01*
X141957912Y-176743205D01*
X141783956Y-176836186D01*
X141688192Y-177100587D01*
X137099808Y-177100587D01*
X137004044Y-176836186D01*
X136714429Y-176695296D01*
X136402892Y-176613616D01*
X136081405Y-176594282D01*
X135762325Y-176638039D01*
X135457912Y-176743205D01*
X135283956Y-176836186D01*
X135188192Y-177100587D01*
X96164000Y-177100587D01*
X96164000Y-173698000D01*
X99145928Y-173698000D01*
X99145928Y-175298000D01*
X99158188Y-175422482D01*
X99194498Y-175542180D01*
X99253463Y-175652494D01*
X99332815Y-175749185D01*
X99429506Y-175828537D01*
X99539820Y-175887502D01*
X99659518Y-175923812D01*
X99784000Y-175936072D01*
X101384000Y-175936072D01*
X101508482Y-175923812D01*
X101628180Y-175887502D01*
X101738494Y-175828537D01*
X101835185Y-175749185D01*
X101914537Y-175652494D01*
X101973502Y-175542180D01*
X101989117Y-175490702D01*
X107390903Y-175490702D01*
X107462486Y-175734671D01*
X107717996Y-175855571D01*
X107992184Y-175924300D01*
X108274512Y-175938217D01*
X108554130Y-175896787D01*
X108820292Y-175801603D01*
X108945514Y-175734671D01*
X109017097Y-175490702D01*
X108204000Y-174677605D01*
X107390903Y-175490702D01*
X101989117Y-175490702D01*
X102009812Y-175422482D01*
X102022072Y-175298000D01*
X102022072Y-174568512D01*
X106763783Y-174568512D01*
X106805213Y-174848130D01*
X106900397Y-175114292D01*
X106967329Y-175239514D01*
X107211298Y-175311097D01*
X108024395Y-174498000D01*
X108383605Y-174498000D01*
X109196702Y-175311097D01*
X109440671Y-175239514D01*
X109561571Y-174984004D01*
X109630300Y-174709816D01*
X109644217Y-174427488D01*
X109602787Y-174147870D01*
X109507603Y-173881708D01*
X109440671Y-173756486D01*
X109196702Y-173684903D01*
X108383605Y-174498000D01*
X108024395Y-174498000D01*
X107211298Y-173684903D01*
X106967329Y-173756486D01*
X106846429Y-174011996D01*
X106777700Y-174286184D01*
X106763783Y-174568512D01*
X102022072Y-174568512D01*
X102022072Y-173698000D01*
X102009812Y-173573518D01*
X101989118Y-173505298D01*
X107390903Y-173505298D01*
X108204000Y-174318395D01*
X109017097Y-173505298D01*
X108945514Y-173261329D01*
X108690004Y-173140429D01*
X108415816Y-173071700D01*
X108133488Y-173057783D01*
X107853870Y-173099213D01*
X107587708Y-173194397D01*
X107462486Y-173261329D01*
X107390903Y-173505298D01*
X101989118Y-173505298D01*
X101973502Y-173453820D01*
X101914537Y-173343506D01*
X101835185Y-173246815D01*
X101738494Y-173167463D01*
X101628180Y-173108498D01*
X101508482Y-173072188D01*
X101384000Y-173059928D01*
X99784000Y-173059928D01*
X99659518Y-173072188D01*
X99539820Y-173108498D01*
X99429506Y-173167463D01*
X99332815Y-173246815D01*
X99253463Y-173343506D01*
X99194498Y-173453820D01*
X99158188Y-173573518D01*
X99145928Y-173698000D01*
X96164000Y-173698000D01*
X96164000Y-75082000D01*
X153355077Y-75082000D01*
X153277506Y-75123463D01*
X153277506Y-75123463D01*
G37*
X153277506Y-75123463D02*
X153180815Y-75202815D01*
X153101463Y-75299506D01*
X153042498Y-75409820D01*
X153006188Y-75529518D01*
X152993928Y-75654000D01*
X152993928Y-77254000D01*
X153006188Y-77378482D01*
X153042498Y-77498180D01*
X153101463Y-77608494D01*
X153180815Y-77705185D01*
X153277506Y-77784537D01*
X153387820Y-77843502D01*
X153507518Y-77879812D01*
X153525482Y-77881581D01*
X153412392Y-77974392D01*
X153233068Y-78192899D01*
X153099818Y-78442192D01*
X153017764Y-78712691D01*
X152990057Y-78994000D01*
X153017764Y-79275309D01*
X153099818Y-79545808D01*
X153233068Y-79795101D01*
X153412392Y-80013608D01*
X153630899Y-80192932D01*
X153763858Y-80264000D01*
X153630899Y-80335068D01*
X153412392Y-80514392D01*
X153233068Y-80732899D01*
X153211099Y-80774000D01*
X135696802Y-80774000D01*
X133065801Y-78143000D01*
X133166492Y-78143000D01*
X133377309Y-78122236D01*
X133647808Y-78040182D01*
X133897101Y-77906932D01*
X134115608Y-77727608D01*
X134294932Y-77509101D01*
X134366000Y-77376142D01*
X134437068Y-77509101D01*
X134616392Y-77727608D01*
X134834899Y-77906932D01*
X135084192Y-78040182D01*
X135354691Y-78122236D01*
X135565508Y-78143000D01*
X135706492Y-78143000D01*
X135917309Y-78122236D01*
X136187808Y-78040182D01*
X136437101Y-77906932D01*
X136655608Y-77727608D01*
X136834932Y-77509101D01*
X136906000Y-77376142D01*
X136977068Y-77509101D01*
X137156392Y-77727608D01*
X137374899Y-77906932D01*
X137624192Y-78040182D01*
X137894691Y-78122236D01*
X138105508Y-78143000D01*
X138246492Y-78143000D01*
X138457309Y-78122236D01*
X138727808Y-78040182D01*
X138977101Y-77906932D01*
X139195608Y-77727608D01*
X139374932Y-77509101D01*
X139446000Y-77376142D01*
X139517068Y-77509101D01*
X139696392Y-77727608D01*
X139914899Y-77906932D01*
X140164192Y-78040182D01*
X140434691Y-78122236D01*
X140645508Y-78143000D01*
X140786492Y-78143000D01*
X140997309Y-78122236D01*
X141267808Y-78040182D01*
X141517101Y-77906932D01*
X141735608Y-77727608D01*
X141914932Y-77509101D01*
X141986000Y-77376142D01*
X142057068Y-77509101D01*
X142236392Y-77727608D01*
X142454899Y-77906932D01*
X142704192Y-78040182D01*
X142974691Y-78122236D01*
X143185508Y-78143000D01*
X143326492Y-78143000D01*
X143537309Y-78122236D01*
X143807808Y-78040182D01*
X144057101Y-77906932D01*
X144275608Y-77727608D01*
X144454932Y-77509101D01*
X144588182Y-77259808D01*
X144670236Y-76989309D01*
X144697943Y-76708000D01*
X144670236Y-76426691D01*
X144588182Y-76156192D01*
X144454932Y-75906899D01*
X144275608Y-75688392D01*
X144057101Y-75509068D01*
X143807808Y-75375818D01*
X143537309Y-75293764D01*
X143326492Y-75273000D01*
X143185508Y-75273000D01*
X142974691Y-75293764D01*
X142704192Y-75375818D01*
X142454899Y-75509068D01*
X142236392Y-75688392D01*
X142057068Y-75906899D01*
X141986000Y-76039858D01*
X141914932Y-75906899D01*
X141735608Y-75688392D01*
X141517101Y-75509068D01*
X141267808Y-75375818D01*
X140997309Y-75293764D01*
X140786492Y-75273000D01*
X140645508Y-75273000D01*
X140434691Y-75293764D01*
X140164192Y-75375818D01*
X139914899Y-75509068D01*
X139696392Y-75688392D01*
X139517068Y-75906899D01*
X139446000Y-76039858D01*
X139374932Y-75906899D01*
X139195608Y-75688392D01*
X138977101Y-75509068D01*
X138727808Y-75375818D01*
X138457309Y-75293764D01*
X138246492Y-75273000D01*
X138105508Y-75273000D01*
X137894691Y-75293764D01*
X137624192Y-75375818D01*
X137374899Y-75509068D01*
X137156392Y-75688392D01*
X136977068Y-75906899D01*
X136906000Y-76039858D01*
X136834932Y-75906899D01*
X136655608Y-75688392D01*
X136437101Y-75509068D01*
X136187808Y-75375818D01*
X135917309Y-75293764D01*
X135706492Y-75273000D01*
X135565508Y-75273000D01*
X135354691Y-75293764D01*
X135084192Y-75375818D01*
X134834899Y-75509068D01*
X134616392Y-75688392D01*
X134437068Y-75906899D01*
X134366000Y-76039858D01*
X134294932Y-75906899D01*
X134115608Y-75688392D01*
X133897101Y-75509068D01*
X133647808Y-75375818D01*
X133377309Y-75293764D01*
X133166492Y-75273000D01*
X133025508Y-75273000D01*
X132814691Y-75293764D01*
X132544192Y-75375818D01*
X132294899Y-75509068D01*
X132076392Y-75688392D01*
X131897068Y-75906899D01*
X131826000Y-76039858D01*
X131754932Y-75906899D01*
X131575608Y-75688392D01*
X131357101Y-75509068D01*
X131107808Y-75375818D01*
X130837309Y-75293764D01*
X130626492Y-75273000D01*
X130485508Y-75273000D01*
X130274691Y-75293764D01*
X130004192Y-75375818D01*
X129754899Y-75509068D01*
X129536392Y-75688392D01*
X129357068Y-75906899D01*
X129286000Y-76039858D01*
X129214932Y-75906899D01*
X129035608Y-75688392D01*
X128817101Y-75509068D01*
X128567808Y-75375818D01*
X128297309Y-75293764D01*
X128086492Y-75273000D01*
X127945508Y-75273000D01*
X127734691Y-75293764D01*
X127464192Y-75375818D01*
X127214899Y-75509068D01*
X126996392Y-75688392D01*
X126817068Y-75906899D01*
X126746000Y-76039858D01*
X126674932Y-75906899D01*
X126495608Y-75688392D01*
X126277101Y-75509068D01*
X126027808Y-75375818D01*
X125757309Y-75293764D01*
X125546492Y-75273000D01*
X125405508Y-75273000D01*
X125194691Y-75293764D01*
X124924192Y-75375818D01*
X124674899Y-75509068D01*
X124456392Y-75688392D01*
X124277068Y-75906899D01*
X124206000Y-76039858D01*
X124134932Y-75906899D01*
X123955608Y-75688392D01*
X123737101Y-75509068D01*
X123487808Y-75375818D01*
X123217309Y-75293764D01*
X123006492Y-75273000D01*
X122865508Y-75273000D01*
X122654691Y-75293764D01*
X122384192Y-75375818D01*
X122134899Y-75509068D01*
X121916392Y-75688392D01*
X121737068Y-75906899D01*
X121666000Y-76039858D01*
X121594932Y-75906899D01*
X121415608Y-75688392D01*
X121197101Y-75509068D01*
X120947808Y-75375818D01*
X120677309Y-75293764D01*
X120466492Y-75273000D01*
X120325508Y-75273000D01*
X120114691Y-75293764D01*
X119844192Y-75375818D01*
X119594899Y-75509068D01*
X119376392Y-75688392D01*
X119197068Y-75906899D01*
X119126000Y-76039858D01*
X119054932Y-75906899D01*
X118875608Y-75688392D01*
X118657101Y-75509068D01*
X118407808Y-75375818D01*
X118137309Y-75293764D01*
X117926492Y-75273000D01*
X117785508Y-75273000D01*
X117574691Y-75293764D01*
X117304192Y-75375818D01*
X117054899Y-75509068D01*
X116836392Y-75688392D01*
X116657068Y-75906899D01*
X116586000Y-76039858D01*
X116514932Y-75906899D01*
X116335608Y-75688392D01*
X116117101Y-75509068D01*
X115867808Y-75375818D01*
X115597309Y-75293764D01*
X115386492Y-75273000D01*
X115245508Y-75273000D01*
X115034691Y-75293764D01*
X114764192Y-75375818D01*
X114514899Y-75509068D01*
X114296392Y-75688392D01*
X114117068Y-75906899D01*
X114046000Y-76039858D01*
X113974932Y-75906899D01*
X113795608Y-75688392D01*
X113577101Y-75509068D01*
X113327808Y-75375818D01*
X113057309Y-75293764D01*
X112846492Y-75273000D01*
X112705508Y-75273000D01*
X112494691Y-75293764D01*
X112224192Y-75375818D01*
X111974899Y-75509068D01*
X111756392Y-75688392D01*
X111577068Y-75906899D01*
X111506000Y-76039858D01*
X111434932Y-75906899D01*
X111255608Y-75688392D01*
X111037101Y-75509068D01*
X110787808Y-75375818D01*
X110517309Y-75293764D01*
X110306492Y-75273000D01*
X110165508Y-75273000D01*
X109954691Y-75293764D01*
X109684192Y-75375818D01*
X109434899Y-75509068D01*
X109216392Y-75688392D01*
X109037068Y-75906899D01*
X108903818Y-76156192D01*
X108821764Y-76426691D01*
X108794057Y-76708000D01*
X108821764Y-76989309D01*
X108903818Y-77259808D01*
X109037068Y-77509101D01*
X109216392Y-77727608D01*
X109434899Y-77906932D01*
X109684192Y-78040182D01*
X109954691Y-78122236D01*
X110165508Y-78143000D01*
X110306492Y-78143000D01*
X110517309Y-78122236D01*
X110787808Y-78040182D01*
X111037101Y-77906932D01*
X111255608Y-77727608D01*
X111434932Y-77509101D01*
X111506000Y-77376142D01*
X111577068Y-77509101D01*
X111756392Y-77727608D01*
X111974899Y-77906932D01*
X112224192Y-78040182D01*
X112494691Y-78122236D01*
X112705508Y-78143000D01*
X112846492Y-78143000D01*
X113057309Y-78122236D01*
X113327808Y-78040182D01*
X113577101Y-77906932D01*
X113795608Y-77727608D01*
X113974932Y-77509101D01*
X114046000Y-77376142D01*
X114117068Y-77509101D01*
X114296392Y-77727608D01*
X114514899Y-77906932D01*
X114764192Y-78040182D01*
X115034691Y-78122236D01*
X115245508Y-78143000D01*
X115386492Y-78143000D01*
X115597309Y-78122236D01*
X115867808Y-78040182D01*
X116117101Y-77906932D01*
X116335608Y-77727608D01*
X116514932Y-77509101D01*
X116586000Y-77376142D01*
X116657068Y-77509101D01*
X116836392Y-77727608D01*
X117054899Y-77906932D01*
X117304192Y-78040182D01*
X117574691Y-78122236D01*
X117785508Y-78143000D01*
X117926492Y-78143000D01*
X118137309Y-78122236D01*
X118407808Y-78040182D01*
X118657101Y-77906932D01*
X118875608Y-77727608D01*
X119054932Y-77509101D01*
X119126000Y-77376142D01*
X119197068Y-77509101D01*
X119376392Y-77727608D01*
X119594899Y-77906932D01*
X119844192Y-78040182D01*
X120114691Y-78122236D01*
X120325508Y-78143000D01*
X120466492Y-78143000D01*
X120677309Y-78122236D01*
X120947808Y-78040182D01*
X121197101Y-77906932D01*
X121415608Y-77727608D01*
X121594932Y-77509101D01*
X121666000Y-77376142D01*
X121737068Y-77509101D01*
X121916392Y-77727608D01*
X122134899Y-77906932D01*
X122384192Y-78040182D01*
X122654691Y-78122236D01*
X122865508Y-78143000D01*
X123006492Y-78143000D01*
X123217309Y-78122236D01*
X123487808Y-78040182D01*
X123737101Y-77906932D01*
X123955608Y-77727608D01*
X124134932Y-77509101D01*
X124206000Y-77376142D01*
X124277068Y-77509101D01*
X124456392Y-77727608D01*
X124674899Y-77906932D01*
X124924192Y-78040182D01*
X125194691Y-78122236D01*
X125405508Y-78143000D01*
X125546492Y-78143000D01*
X125757309Y-78122236D01*
X126027808Y-78040182D01*
X126277101Y-77906932D01*
X126495608Y-77727608D01*
X126674932Y-77509101D01*
X126746000Y-77376142D01*
X126817068Y-77509101D01*
X126996392Y-77727608D01*
X127214899Y-77906932D01*
X127464192Y-78040182D01*
X127734691Y-78122236D01*
X127945508Y-78143000D01*
X128086492Y-78143000D01*
X128297309Y-78122236D01*
X128567808Y-78040182D01*
X128817101Y-77906932D01*
X129035608Y-77727608D01*
X129214932Y-77509101D01*
X129286000Y-77376142D01*
X129357068Y-77509101D01*
X129536392Y-77727608D01*
X129754899Y-77906932D01*
X130004192Y-78040182D01*
X130274691Y-78122236D01*
X130485508Y-78143000D01*
X130626492Y-78143000D01*
X130837309Y-78122236D01*
X130881906Y-78108708D01*
X134818201Y-82045003D01*
X134841999Y-82074001D01*
X134957724Y-82168974D01*
X135089753Y-82239546D01*
X135233014Y-82283003D01*
X135344667Y-82294000D01*
X135344675Y-82294000D01*
X135382000Y-82297676D01*
X135419325Y-82294000D01*
X153211099Y-82294000D01*
X153233068Y-82335101D01*
X153412392Y-82553608D01*
X153630899Y-82732932D01*
X153763858Y-82804000D01*
X153630899Y-82875068D01*
X153412392Y-83054392D01*
X153233068Y-83272899D01*
X153099818Y-83522192D01*
X153017764Y-83792691D01*
X152990057Y-84074000D01*
X153017764Y-84355309D01*
X153099818Y-84625808D01*
X153233068Y-84875101D01*
X153412392Y-85093608D01*
X153630899Y-85272932D01*
X153763858Y-85344000D01*
X153630899Y-85415068D01*
X153412392Y-85594392D01*
X153233068Y-85812899D01*
X153099818Y-86062192D01*
X153017764Y-86332691D01*
X152990057Y-86614000D01*
X153017764Y-86895309D01*
X153099818Y-87165808D01*
X153233068Y-87415101D01*
X153412392Y-87633608D01*
X153630899Y-87812932D01*
X153763858Y-87884000D01*
X153630899Y-87955068D01*
X153412392Y-88134392D01*
X153233068Y-88352899D01*
X153099818Y-88602192D01*
X153017764Y-88872691D01*
X152990057Y-89154000D01*
X153017764Y-89435309D01*
X153031292Y-89479906D01*
X149291199Y-93220000D01*
X143906752Y-93220000D01*
X143993420Y-93179037D01*
X144219414Y-93011519D01*
X144408385Y-92803131D01*
X144553070Y-92561881D01*
X144647909Y-92297040D01*
X144526624Y-92075000D01*
X143383000Y-92075000D01*
X143383000Y-92095000D01*
X143129000Y-92095000D01*
X143129000Y-92075000D01*
X143109000Y-92075000D01*
X143109000Y-91821000D01*
X143129000Y-91821000D01*
X143129000Y-90678085D01*
X143383000Y-90678085D01*
X143383000Y-91821000D01*
X144526624Y-91821000D01*
X144647909Y-91598960D01*
X144553070Y-91334119D01*
X144408385Y-91092869D01*
X144219414Y-90884481D01*
X143993420Y-90716963D01*
X143739087Y-90596754D01*
X143605039Y-90556096D01*
X143383000Y-90678085D01*
X143129000Y-90678085D01*
X142906961Y-90556096D01*
X142772913Y-90596754D01*
X142518580Y-90716963D01*
X142292586Y-90884481D01*
X142103615Y-91092869D01*
X141988579Y-91284682D01*
X141914932Y-91146899D01*
X141735608Y-90928392D01*
X141517101Y-90749068D01*
X141267808Y-90615818D01*
X140997309Y-90533764D01*
X140786492Y-90513000D01*
X140645508Y-90513000D01*
X140434691Y-90533764D01*
X140164192Y-90615818D01*
X139914899Y-90749068D01*
X139696392Y-90928392D01*
X139517068Y-91146899D01*
X139446000Y-91279858D01*
X139374932Y-91146899D01*
X139195608Y-90928392D01*
X138977101Y-90749068D01*
X138727808Y-90615818D01*
X138457309Y-90533764D01*
X138246492Y-90513000D01*
X138105508Y-90513000D01*
X137894691Y-90533764D01*
X137624192Y-90615818D01*
X137374899Y-90749068D01*
X137156392Y-90928392D01*
X136977068Y-91146899D01*
X136906000Y-91279858D01*
X136834932Y-91146899D01*
X136655608Y-90928392D01*
X136437101Y-90749068D01*
X136187808Y-90615818D01*
X135917309Y-90533764D01*
X135706492Y-90513000D01*
X135565508Y-90513000D01*
X135354691Y-90533764D01*
X135084192Y-90615818D01*
X134834899Y-90749068D01*
X134616392Y-90928392D01*
X134437068Y-91146899D01*
X134366000Y-91279858D01*
X134294932Y-91146899D01*
X134115608Y-90928392D01*
X133897101Y-90749068D01*
X133647808Y-90615818D01*
X133377309Y-90533764D01*
X133166492Y-90513000D01*
X133025508Y-90513000D01*
X132814691Y-90533764D01*
X132544192Y-90615818D01*
X132294899Y-90749068D01*
X132076392Y-90928392D01*
X131897068Y-91146899D01*
X131826000Y-91279858D01*
X131754932Y-91146899D01*
X131575608Y-90928392D01*
X131357101Y-90749068D01*
X131107808Y-90615818D01*
X130837309Y-90533764D01*
X130626492Y-90513000D01*
X130485508Y-90513000D01*
X130274691Y-90533764D01*
X130004192Y-90615818D01*
X129754899Y-90749068D01*
X129536392Y-90928392D01*
X129357068Y-91146899D01*
X129286000Y-91279858D01*
X129214932Y-91146899D01*
X129035608Y-90928392D01*
X128817101Y-90749068D01*
X128567808Y-90615818D01*
X128297309Y-90533764D01*
X128086492Y-90513000D01*
X127945508Y-90513000D01*
X127734691Y-90533764D01*
X127464192Y-90615818D01*
X127214899Y-90749068D01*
X126996392Y-90928392D01*
X126817068Y-91146899D01*
X126746000Y-91279858D01*
X126674932Y-91146899D01*
X126495608Y-90928392D01*
X126277101Y-90749068D01*
X126027808Y-90615818D01*
X125757309Y-90533764D01*
X125546492Y-90513000D01*
X125405508Y-90513000D01*
X125194691Y-90533764D01*
X124924192Y-90615818D01*
X124674899Y-90749068D01*
X124456392Y-90928392D01*
X124277068Y-91146899D01*
X124206000Y-91279858D01*
X124134932Y-91146899D01*
X123955608Y-90928392D01*
X123737101Y-90749068D01*
X123487808Y-90615818D01*
X123217309Y-90533764D01*
X123006492Y-90513000D01*
X122865508Y-90513000D01*
X122654691Y-90533764D01*
X122384192Y-90615818D01*
X122134899Y-90749068D01*
X121916392Y-90928392D01*
X121737068Y-91146899D01*
X121666000Y-91279858D01*
X121594932Y-91146899D01*
X121415608Y-90928392D01*
X121197101Y-90749068D01*
X120947808Y-90615818D01*
X120677309Y-90533764D01*
X120466492Y-90513000D01*
X120325508Y-90513000D01*
X120114691Y-90533764D01*
X119844192Y-90615818D01*
X119594899Y-90749068D01*
X119376392Y-90928392D01*
X119197068Y-91146899D01*
X119126000Y-91279858D01*
X119054932Y-91146899D01*
X118875608Y-90928392D01*
X118657101Y-90749068D01*
X118407808Y-90615818D01*
X118137309Y-90533764D01*
X117926492Y-90513000D01*
X117785508Y-90513000D01*
X117574691Y-90533764D01*
X117304192Y-90615818D01*
X117054899Y-90749068D01*
X116836392Y-90928392D01*
X116657068Y-91146899D01*
X116586000Y-91279858D01*
X116514932Y-91146899D01*
X116335608Y-90928392D01*
X116117101Y-90749068D01*
X115867808Y-90615818D01*
X115597309Y-90533764D01*
X115386492Y-90513000D01*
X115245508Y-90513000D01*
X115034691Y-90533764D01*
X114764192Y-90615818D01*
X114514899Y-90749068D01*
X114296392Y-90928392D01*
X114117068Y-91146899D01*
X114046000Y-91279858D01*
X113974932Y-91146899D01*
X113795608Y-90928392D01*
X113577101Y-90749068D01*
X113327808Y-90615818D01*
X113057309Y-90533764D01*
X112846492Y-90513000D01*
X112705508Y-90513000D01*
X112494691Y-90533764D01*
X112224192Y-90615818D01*
X111974899Y-90749068D01*
X111756392Y-90928392D01*
X111663581Y-91041482D01*
X111661812Y-91023518D01*
X111625502Y-90903820D01*
X111566537Y-90793506D01*
X111487185Y-90696815D01*
X111390494Y-90617463D01*
X111280180Y-90558498D01*
X111160482Y-90522188D01*
X111036000Y-90509928D01*
X109436000Y-90509928D01*
X109311518Y-90522188D01*
X109191820Y-90558498D01*
X109081506Y-90617463D01*
X108984815Y-90696815D01*
X108905463Y-90793506D01*
X108846498Y-90903820D01*
X108810188Y-91023518D01*
X108797928Y-91148000D01*
X108797928Y-91293674D01*
X108761724Y-91313026D01*
X108645999Y-91407999D01*
X108622201Y-91436997D01*
X107726301Y-92332898D01*
X107678256Y-92300795D01*
X107489898Y-92222774D01*
X107289939Y-92183000D01*
X107086061Y-92183000D01*
X106886102Y-92222774D01*
X106697744Y-92300795D01*
X106528226Y-92414063D01*
X106384063Y-92558226D01*
X106270795Y-92727744D01*
X106192774Y-92916102D01*
X106153000Y-93116061D01*
X106153000Y-93319939D01*
X106192774Y-93519898D01*
X106229833Y-93609365D01*
X101850998Y-97988201D01*
X101822000Y-98011999D01*
X101798202Y-98040997D01*
X101798201Y-98040998D01*
X101727026Y-98127724D01*
X101656454Y-98259754D01*
X101633528Y-98335333D01*
X101612998Y-98403014D01*
X101602001Y-98514667D01*
X101598324Y-98552000D01*
X101602001Y-98589332D01*
X101602000Y-106738289D01*
X101598000Y-106742289D01*
X101598000Y-97985711D01*
X101641937Y-97941774D01*
X101755205Y-97772256D01*
X101833226Y-97583898D01*
X101873000Y-97383939D01*
X101873000Y-97180061D01*
X101833226Y-96980102D01*
X101755205Y-96791744D01*
X101641937Y-96622226D01*
X101497774Y-96478063D01*
X101328256Y-96364795D01*
X101139898Y-96286774D01*
X100939939Y-96247000D01*
X100736061Y-96247000D01*
X100536102Y-96286774D01*
X100347744Y-96364795D01*
X100178226Y-96478063D01*
X100034063Y-96622226D01*
X99920795Y-96791744D01*
X99842774Y-96980102D01*
X99803000Y-97180061D01*
X99803000Y-97383939D01*
X99842774Y-97583898D01*
X99920795Y-97772256D01*
X100034063Y-97941774D01*
X100078000Y-97985711D01*
X100078001Y-132513136D01*
X99849309Y-132443764D01*
X99638492Y-132423000D01*
X99497508Y-132423000D01*
X99286691Y-132443764D01*
X99016192Y-132525818D01*
X98766899Y-132659068D01*
X98548392Y-132838392D01*
X98369068Y-133056899D01*
X98235818Y-133306192D01*
X98153764Y-133576691D01*
X98126057Y-133858000D01*
X98153764Y-134139309D01*
X98235818Y-134409808D01*
X98369068Y-134659101D01*
X98548392Y-134877608D01*
X98766899Y-135056932D01*
X99016192Y-135190182D01*
X99286691Y-135272236D01*
X99497508Y-135293000D01*
X99638492Y-135293000D01*
X99849309Y-135272236D01*
X100078001Y-135202864D01*
X100078001Y-145250667D01*
X100074324Y-145288000D01*
X100078001Y-145325333D01*
X100086668Y-145413324D01*
X100088998Y-145436985D01*
X100132454Y-145580246D01*
X100203026Y-145712276D01*
X100269274Y-145792998D01*
X100298000Y-145828001D01*
X100326998Y-145851799D01*
X102138199Y-147663000D01*
X102037508Y-147663000D01*
X101826691Y-147683764D01*
X101556192Y-147765818D01*
X101306899Y-147899068D01*
X101088392Y-148078392D01*
X100995581Y-148191482D01*
X100993812Y-148173518D01*
X100957502Y-148053820D01*
X100898537Y-147943506D01*
X100819185Y-147846815D01*
X100722494Y-147767463D01*
X100612180Y-147708498D01*
X100492482Y-147672188D01*
X100368000Y-147659928D01*
X98768000Y-147659928D01*
X98643518Y-147672188D01*
X98523820Y-147708498D01*
X98413506Y-147767463D01*
X98316815Y-147846815D01*
X98237463Y-147943506D01*
X98178498Y-148053820D01*
X98142188Y-148173518D01*
X98129928Y-148298000D01*
X98129928Y-149898000D01*
X98142188Y-150022482D01*
X98178498Y-150142180D01*
X98237463Y-150252494D01*
X98316815Y-150349185D01*
X98413506Y-150428537D01*
X98523820Y-150487502D01*
X98643518Y-150523812D01*
X98768000Y-150536072D01*
X100368000Y-150536072D01*
X100492482Y-150523812D01*
X100612180Y-150487502D01*
X100722494Y-150428537D01*
X100819185Y-150349185D01*
X100898537Y-150252494D01*
X100957502Y-150142180D01*
X100993812Y-150022482D01*
X100995581Y-150004518D01*
X101088392Y-150117608D01*
X101306899Y-150296932D01*
X101556192Y-150430182D01*
X101826691Y-150512236D01*
X102037508Y-150533000D01*
X102178492Y-150533000D01*
X102389309Y-150512236D01*
X102659808Y-150430182D01*
X102909101Y-150296932D01*
X103127608Y-150117608D01*
X103306932Y-149899101D01*
X103378000Y-149766142D01*
X103449068Y-149899101D01*
X103628392Y-150117608D01*
X103846899Y-150296932D01*
X104096192Y-150430182D01*
X104366691Y-150512236D01*
X104577508Y-150533000D01*
X104718492Y-150533000D01*
X104929309Y-150512236D01*
X105158000Y-150442864D01*
X105158001Y-161229197D01*
X100907887Y-165479312D01*
X100725335Y-165443000D01*
X100442665Y-165443000D01*
X100165426Y-165498147D01*
X99904273Y-165606320D01*
X99669241Y-165763363D01*
X99469363Y-165963241D01*
X99312320Y-166198273D01*
X99204147Y-166459426D01*
X99149000Y-166736665D01*
X99149000Y-167019335D01*
X99204147Y-167296574D01*
X99312320Y-167557727D01*
X99469363Y-167792759D01*
X99669241Y-167992637D01*
X99904273Y-168149680D01*
X100165426Y-168257853D01*
X100442665Y-168313000D01*
X100725335Y-168313000D01*
X101002574Y-168257853D01*
X101263727Y-168149680D01*
X101498759Y-167992637D01*
X101698637Y-167792759D01*
X101855680Y-167557727D01*
X101963853Y-167296574D01*
X102019000Y-167019335D01*
X102019000Y-166736665D01*
X101982688Y-166554113D01*
X106429003Y-162107799D01*
X106458001Y-162084001D01*
X106552974Y-161968276D01*
X106623546Y-161836247D01*
X106667003Y-161692986D01*
X106678000Y-161581333D01*
X106678000Y-161581325D01*
X106681676Y-161544000D01*
X106678000Y-161506675D01*
X106678000Y-150442864D01*
X106906691Y-150512236D01*
X107117508Y-150533000D01*
X107258492Y-150533000D01*
X107469309Y-150512236D01*
X107739808Y-150430182D01*
X107989101Y-150296932D01*
X108207608Y-150117608D01*
X108386932Y-149899101D01*
X108458000Y-149766142D01*
X108529068Y-149899101D01*
X108708392Y-150117608D01*
X108926899Y-150296932D01*
X109176192Y-150430182D01*
X109446691Y-150512236D01*
X109657508Y-150533000D01*
X109798492Y-150533000D01*
X110009309Y-150512236D01*
X110279808Y-150430182D01*
X110529101Y-150296932D01*
X110747608Y-150117608D01*
X110926932Y-149899101D01*
X110998000Y-149766142D01*
X111069068Y-149899101D01*
X111248392Y-150117608D01*
X111466899Y-150296932D01*
X111508000Y-150318901D01*
X111508001Y-162499197D01*
X108527887Y-165479312D01*
X108345335Y-165443000D01*
X108062665Y-165443000D01*
X107785426Y-165498147D01*
X107524273Y-165606320D01*
X107289241Y-165763363D01*
X107089363Y-165963241D01*
X106932320Y-166198273D01*
X106824147Y-166459426D01*
X106769000Y-166736665D01*
X106769000Y-167019335D01*
X106824147Y-167296574D01*
X106932320Y-167557727D01*
X107089363Y-167792759D01*
X107289241Y-167992637D01*
X107524273Y-168149680D01*
X107785426Y-168257853D01*
X108062665Y-168313000D01*
X108345335Y-168313000D01*
X108622574Y-168257853D01*
X108883727Y-168149680D01*
X109118759Y-167992637D01*
X109318637Y-167792759D01*
X109475680Y-167557727D01*
X109583853Y-167296574D01*
X109639000Y-167019335D01*
X109639000Y-166736665D01*
X109602688Y-166554113D01*
X112779003Y-163377799D01*
X112808001Y-163354001D01*
X112834332Y-163321917D01*
X112902974Y-163238277D01*
X112973546Y-163106247D01*
X112984639Y-163069677D01*
X113017003Y-162962986D01*
X113028000Y-162851333D01*
X113028000Y-162851323D01*
X113031676Y-162814000D01*
X113028000Y-162776677D01*
X113028000Y-150318901D01*
X113069101Y-150296932D01*
X113287608Y-150117608D01*
X113466932Y-149899101D01*
X113538000Y-149766142D01*
X113609068Y-149899101D01*
X113788392Y-150117608D01*
X114006899Y-150296932D01*
X114256192Y-150430182D01*
X114526691Y-150512236D01*
X114737508Y-150533000D01*
X114878492Y-150533000D01*
X115089309Y-150512236D01*
X115359808Y-150430182D01*
X115609101Y-150296932D01*
X115827608Y-150117608D01*
X116006932Y-149899101D01*
X116078000Y-149766142D01*
X116149068Y-149899101D01*
X116328392Y-150117608D01*
X116546899Y-150296932D01*
X116796192Y-150430182D01*
X117066691Y-150512236D01*
X117191753Y-150524554D01*
X123171000Y-156503802D01*
X123171000Y-156565939D01*
X123210774Y-156765898D01*
X123288795Y-156954256D01*
X123402063Y-157123774D01*
X123546226Y-157267937D01*
X123715744Y-157381205D01*
X123904102Y-157459226D01*
X124104061Y-157499000D01*
X124307939Y-157499000D01*
X124507898Y-157459226D01*
X124696256Y-157381205D01*
X124865774Y-157267937D01*
X125009937Y-157123774D01*
X125123205Y-156954256D01*
X125201226Y-156765898D01*
X125224000Y-156651403D01*
X125224000Y-159277680D01*
X125220324Y-159315002D01*
X125224000Y-159352324D01*
X125224000Y-159352334D01*
X125234997Y-159463987D01*
X125255325Y-159531000D01*
X125278454Y-159607248D01*
X125349026Y-159739278D01*
X125388871Y-159787828D01*
X125443999Y-159855003D01*
X125473003Y-159878806D01*
X134252196Y-168658000D01*
X129577322Y-168658000D01*
X129539999Y-168654324D01*
X129502676Y-168658000D01*
X129502667Y-168658000D01*
X129391014Y-168668997D01*
X129247753Y-168712454D01*
X129115724Y-168783026D01*
X128999999Y-168877999D01*
X128976201Y-168906997D01*
X125545887Y-172337312D01*
X125363335Y-172301000D01*
X125080665Y-172301000D01*
X124803426Y-172356147D01*
X124542273Y-172464320D01*
X124307241Y-172621363D01*
X124107363Y-172821241D01*
X123950320Y-173056273D01*
X123842147Y-173317426D01*
X123787000Y-173594665D01*
X123787000Y-173877335D01*
X123842147Y-174154574D01*
X123950320Y-174415727D01*
X124107363Y-174650759D01*
X124307241Y-174850637D01*
X124542273Y-175007680D01*
X124803426Y-175115853D01*
X125080665Y-175171000D01*
X125363335Y-175171000D01*
X125640574Y-175115853D01*
X125901727Y-175007680D01*
X126136759Y-174850637D01*
X126336637Y-174650759D01*
X126493680Y-174415727D01*
X126601853Y-174154574D01*
X126657000Y-173877335D01*
X126657000Y-173736000D01*
X131400057Y-173736000D01*
X131427764Y-174017309D01*
X131509818Y-174287808D01*
X131643068Y-174537101D01*
X131822392Y-174755608D01*
X132040899Y-174934932D01*
X132290192Y-175068182D01*
X132560691Y-175150236D01*
X132771508Y-175171000D01*
X132912492Y-175171000D01*
X133123309Y-175150236D01*
X133393808Y-175068182D01*
X133643101Y-174934932D01*
X133861608Y-174755608D01*
X134040932Y-174537101D01*
X134062901Y-174496000D01*
X134689091Y-174496000D01*
X134695082Y-174510463D01*
X134874013Y-174778252D01*
X135101748Y-175005987D01*
X135369537Y-175184918D01*
X135667088Y-175308168D01*
X135982967Y-175371000D01*
X136305033Y-175371000D01*
X136620912Y-175308168D01*
X136918463Y-175184918D01*
X137186252Y-175005987D01*
X137413987Y-174778252D01*
X137592918Y-174510463D01*
X137598909Y-174496000D01*
X141189091Y-174496000D01*
X141195082Y-174510463D01*
X141374013Y-174778252D01*
X141601748Y-175005987D01*
X141869537Y-175184918D01*
X142167088Y-175308168D01*
X142482967Y-175371000D01*
X142805033Y-175371000D01*
X143120912Y-175308168D01*
X143418463Y-175184918D01*
X143686252Y-175005987D01*
X143913987Y-174778252D01*
X144092918Y-174510463D01*
X144216168Y-174212912D01*
X144279000Y-173897033D01*
X144279000Y-173574967D01*
X144216168Y-173259088D01*
X144092918Y-172961537D01*
X143913987Y-172693748D01*
X143686252Y-172466013D01*
X143418463Y-172287082D01*
X143120912Y-172163832D01*
X142805033Y-172101000D01*
X142482967Y-172101000D01*
X142167088Y-172163832D01*
X141869537Y-172287082D01*
X141601748Y-172466013D01*
X141374013Y-172693748D01*
X141195082Y-172961537D01*
X141189091Y-172976000D01*
X137598909Y-172976000D01*
X137592918Y-172961537D01*
X137413987Y-172693748D01*
X137186252Y-172466013D01*
X136918463Y-172287082D01*
X136620912Y-172163832D01*
X136305033Y-172101000D01*
X135982967Y-172101000D01*
X135667088Y-172163832D01*
X135369537Y-172287082D01*
X135101748Y-172466013D01*
X134874013Y-172693748D01*
X134695082Y-172961537D01*
X134689091Y-172976000D01*
X134062901Y-172976000D01*
X134040932Y-172934899D01*
X133861608Y-172716392D01*
X133643101Y-172537068D01*
X133393808Y-172403818D01*
X133123309Y-172321764D01*
X132912492Y-172301000D01*
X132771508Y-172301000D01*
X132560691Y-172321764D01*
X132290192Y-172403818D01*
X132040899Y-172537068D01*
X131822392Y-172716392D01*
X131643068Y-172934899D01*
X131509818Y-173184192D01*
X131427764Y-173454691D01*
X131400057Y-173736000D01*
X126657000Y-173736000D01*
X126657000Y-173594665D01*
X126620688Y-173412113D01*
X129854802Y-170178000D01*
X136049673Y-170178000D01*
X136086998Y-170181676D01*
X136124323Y-170178000D01*
X139751957Y-170178000D01*
X139855363Y-170332759D01*
X140055241Y-170532637D01*
X140290273Y-170689680D01*
X140551426Y-170797853D01*
X140828665Y-170853000D01*
X141111335Y-170853000D01*
X141388574Y-170797853D01*
X141649727Y-170689680D01*
X141884759Y-170532637D01*
X142084637Y-170332759D01*
X142188043Y-170178000D01*
X144577957Y-170178000D01*
X144681363Y-170332759D01*
X144881241Y-170532637D01*
X145036000Y-170636044D01*
X145036001Y-172142668D01*
X145032324Y-172180000D01*
X145046998Y-172328985D01*
X145090454Y-172472246D01*
X145161026Y-172604276D01*
X145232201Y-172691002D01*
X145256000Y-172720001D01*
X145284998Y-172743799D01*
X151137318Y-178596120D01*
X151115662Y-178816000D01*
X151140955Y-179072805D01*
X151215862Y-179319741D01*
X151337505Y-179547318D01*
X151501208Y-179746792D01*
X151700682Y-179910495D01*
X151928259Y-180032138D01*
X152175195Y-180107045D01*
X152367649Y-180126000D01*
X152496351Y-180126000D01*
X152688805Y-180107045D01*
X152935741Y-180032138D01*
X153163318Y-179910495D01*
X153232926Y-179853369D01*
X153305815Y-179942185D01*
X153402506Y-180021537D01*
X153512820Y-180080502D01*
X153632518Y-180116812D01*
X153757000Y-180129072D01*
X154146250Y-180126000D01*
X154305000Y-179967250D01*
X154305000Y-178943000D01*
X154559000Y-178943000D01*
X154559000Y-179967250D01*
X154717750Y-180126000D01*
X155107000Y-180129072D01*
X155231482Y-180116812D01*
X155351180Y-180080502D01*
X155461494Y-180021537D01*
X155558185Y-179942185D01*
X155637537Y-179845494D01*
X155696502Y-179735180D01*
X155732812Y-179615482D01*
X155745072Y-179491000D01*
X155742000Y-179101750D01*
X155583250Y-178943000D01*
X154559000Y-178943000D01*
X154305000Y-178943000D01*
X154285000Y-178943000D01*
X154285000Y-178689000D01*
X154305000Y-178689000D01*
X154305000Y-177664750D01*
X154559000Y-177664750D01*
X154559000Y-178689000D01*
X155583250Y-178689000D01*
X155742000Y-178530250D01*
X155745072Y-178141000D01*
X155732812Y-178016518D01*
X155696502Y-177896820D01*
X155637537Y-177786506D01*
X155558185Y-177689815D01*
X155461494Y-177610463D01*
X155351180Y-177551498D01*
X155231482Y-177515188D01*
X155107000Y-177502928D01*
X154717750Y-177506000D01*
X154559000Y-177664750D01*
X154305000Y-177664750D01*
X154146250Y-177506000D01*
X153757000Y-177502928D01*
X153632518Y-177515188D01*
X153512820Y-177551498D01*
X153402506Y-177610463D01*
X153305815Y-177689815D01*
X153232926Y-177778631D01*
X153163318Y-177721505D01*
X152935741Y-177599862D01*
X152688805Y-177524955D01*
X152496351Y-177506000D01*
X152367649Y-177506000D01*
X152212120Y-177521318D01*
X146556000Y-171865199D01*
X146556000Y-170636043D01*
X146710759Y-170532637D01*
X146910637Y-170332759D01*
X147067680Y-170097727D01*
X147175853Y-169836574D01*
X147231000Y-169559335D01*
X147231000Y-169276665D01*
X147194688Y-169094113D01*
X151637439Y-164651363D01*
X151619000Y-164744061D01*
X151619000Y-164947939D01*
X151658774Y-165147898D01*
X151736795Y-165336256D01*
X151850063Y-165505774D01*
X151994226Y-165649937D01*
X152163744Y-165763205D01*
X152352102Y-165841226D01*
X152552061Y-165881000D01*
X152614199Y-165881000D01*
X154942000Y-168208802D01*
X154942001Y-172618668D01*
X154938324Y-172656000D01*
X154952998Y-172804985D01*
X154996454Y-172948246D01*
X155067026Y-173080276D01*
X155116393Y-173140429D01*
X155162000Y-173196001D01*
X155190998Y-173219799D01*
X160503318Y-178532120D01*
X160481662Y-178752000D01*
X160505300Y-178992001D01*
X160000803Y-178992001D01*
X149879000Y-168870199D01*
X149879000Y-168808061D01*
X149839226Y-168608102D01*
X149761205Y-168419744D01*
X149647937Y-168250226D01*
X149503774Y-168106063D01*
X149334256Y-167992795D01*
X149145898Y-167914774D01*
X148945939Y-167875000D01*
X148742061Y-167875000D01*
X148542102Y-167914774D01*
X148353744Y-167992795D01*
X148184226Y-168106063D01*
X148040063Y-168250226D01*
X147926795Y-168419744D01*
X147848774Y-168608102D01*
X147809000Y-168808061D01*
X147809000Y-169011939D01*
X147848774Y-169211898D01*
X147926795Y-169400256D01*
X148040063Y-169569774D01*
X148184226Y-169713937D01*
X148353744Y-169827205D01*
X148542102Y-169905226D01*
X148742061Y-169945000D01*
X148804199Y-169945000D01*
X159122202Y-180263004D01*
X159146000Y-180292002D01*
X159261725Y-180386975D01*
X159393754Y-180457547D01*
X159537015Y-180501004D01*
X159648668Y-180512001D01*
X159648678Y-180512001D01*
X159686001Y-180515677D01*
X159723324Y-180512001D01*
X162240679Y-180512001D01*
X162278001Y-180515677D01*
X162315323Y-180512001D01*
X162315334Y-180512001D01*
X162426987Y-180501004D01*
X162570248Y-180457547D01*
X162702277Y-180386975D01*
X162818002Y-180292002D01*
X162841804Y-180262999D01*
X163309003Y-179795801D01*
X163338002Y-179772002D01*
X163411215Y-179682792D01*
X163432975Y-179656278D01*
X163503547Y-179524248D01*
X163523110Y-179459755D01*
X163547004Y-179380987D01*
X163558001Y-179269334D01*
X163558001Y-179269325D01*
X163561677Y-179232002D01*
X163558001Y-179194679D01*
X163558001Y-177789324D01*
X163561677Y-177752001D01*
X163558001Y-177714678D01*
X163558001Y-177714668D01*
X163547004Y-177603015D01*
X163503547Y-177459754D01*
X163494057Y-177442000D01*
X163432975Y-177327724D01*
X163361800Y-177240998D01*
X163338002Y-177212000D01*
X163309005Y-177188203D01*
X163092682Y-176971880D01*
X163114338Y-176752000D01*
X163089045Y-176495195D01*
X163014138Y-176248259D01*
X162892495Y-176020682D01*
X162835369Y-175951074D01*
X162924185Y-175878185D01*
X163003537Y-175781494D01*
X163062502Y-175671180D01*
X163098812Y-175551482D01*
X163111072Y-175427000D01*
X163111072Y-174077000D01*
X163098812Y-173952518D01*
X163062502Y-173832820D01*
X163003537Y-173722506D01*
X162924185Y-173625815D01*
X162827494Y-173546463D01*
X162717180Y-173487498D01*
X162597482Y-173451188D01*
X162473000Y-173438928D01*
X162452326Y-173438928D01*
X162432974Y-173402724D01*
X162338001Y-173286999D01*
X162222276Y-173192026D01*
X162090247Y-173121454D01*
X161946986Y-173077997D01*
X161798000Y-173063323D01*
X161649015Y-173077997D01*
X161505754Y-173121454D01*
X161373725Y-173192026D01*
X161258000Y-173286999D01*
X161163027Y-173402724D01*
X161143675Y-173438928D01*
X161123000Y-173438928D01*
X160998518Y-173451188D01*
X160878820Y-173487498D01*
X160768506Y-173546463D01*
X160671815Y-173625815D01*
X160592463Y-173722506D01*
X160533498Y-173832820D01*
X160497188Y-173952518D01*
X160484928Y-174077000D01*
X160484928Y-175427000D01*
X160497188Y-175551482D01*
X160533498Y-175671180D01*
X160592463Y-175781494D01*
X160671815Y-175878185D01*
X160760631Y-175951074D01*
X160703505Y-176020682D01*
X160581862Y-176248259D01*
X160532334Y-176411532D01*
X156462000Y-172341199D01*
X156462000Y-167931323D01*
X156465676Y-167894000D01*
X156462000Y-167856677D01*
X156462000Y-167856667D01*
X156451003Y-167745014D01*
X156407546Y-167601753D01*
X156336975Y-167469725D01*
X156336974Y-167469723D01*
X156265799Y-167382997D01*
X156242001Y-167353999D01*
X156213004Y-167330202D01*
X153689000Y-164806199D01*
X153689000Y-164744061D01*
X153649226Y-164544102D01*
X153571205Y-164355744D01*
X153457937Y-164186226D01*
X153313774Y-164042063D01*
X153144256Y-163928795D01*
X152955898Y-163850774D01*
X152755939Y-163811000D01*
X152552061Y-163811000D01*
X152459363Y-163829439D01*
X152657003Y-163631799D01*
X152686001Y-163608001D01*
X152757191Y-163521256D01*
X152780974Y-163492277D01*
X152851546Y-163360247D01*
X152863148Y-163322000D01*
X152895003Y-163216986D01*
X152906000Y-163105333D01*
X152906000Y-163105324D01*
X152909676Y-163068001D01*
X152906000Y-163030678D01*
X152906000Y-155483343D01*
X152976795Y-155654256D01*
X153090063Y-155823774D01*
X153234226Y-155967937D01*
X153403744Y-156081205D01*
X153592102Y-156159226D01*
X153792061Y-156199000D01*
X153905000Y-156199000D01*
X153905000Y-156311939D01*
X153944774Y-156511898D01*
X154022795Y-156700256D01*
X154136063Y-156869774D01*
X154280226Y-157013937D01*
X154449744Y-157127205D01*
X154638102Y-157205226D01*
X154838061Y-157245000D01*
X154921000Y-157245000D01*
X154921000Y-157327939D01*
X154960774Y-157527898D01*
X155038795Y-157716256D01*
X155152063Y-157885774D01*
X155296226Y-158029937D01*
X155465744Y-158143205D01*
X155654102Y-158221226D01*
X155854061Y-158261000D01*
X155937000Y-158261000D01*
X155937000Y-158343939D01*
X155976774Y-158543898D01*
X156054795Y-158732256D01*
X156168063Y-158901774D01*
X156312226Y-159045937D01*
X156481744Y-159159205D01*
X156670102Y-159237226D01*
X156870061Y-159277000D01*
X156905000Y-159277000D01*
X156905000Y-159407939D01*
X156944774Y-159607898D01*
X157022795Y-159796256D01*
X157136063Y-159965774D01*
X157280226Y-160109937D01*
X157449744Y-160223205D01*
X157638102Y-160301226D01*
X157838061Y-160341000D01*
X158041939Y-160341000D01*
X158241898Y-160301226D01*
X158430256Y-160223205D01*
X158599774Y-160109937D01*
X158743937Y-159965774D01*
X158857205Y-159796256D01*
X158935226Y-159607898D01*
X158975000Y-159407939D01*
X158975000Y-159204061D01*
X158935226Y-159004102D01*
X158857205Y-158815744D01*
X158743937Y-158646226D01*
X158700000Y-158602289D01*
X158700000Y-155164000D01*
X160481662Y-155164000D01*
X160506955Y-155420805D01*
X160581862Y-155667741D01*
X160703505Y-155895318D01*
X160867208Y-156094792D01*
X160951539Y-156164000D01*
X160867208Y-156233208D01*
X160703505Y-156432682D01*
X160581862Y-156660259D01*
X160506955Y-156907195D01*
X160481662Y-157164000D01*
X160506955Y-157420805D01*
X160581862Y-157667741D01*
X160703505Y-157895318D01*
X160867208Y-158094792D01*
X160951539Y-158164000D01*
X160867208Y-158233208D01*
X160703505Y-158432682D01*
X160581862Y-158660259D01*
X160506955Y-158907195D01*
X160481662Y-159164000D01*
X160506955Y-159420805D01*
X160581862Y-159667741D01*
X160703505Y-159895318D01*
X160867208Y-160094792D01*
X160951539Y-160164000D01*
X160867208Y-160233208D01*
X160703505Y-160432682D01*
X160581862Y-160660259D01*
X160506955Y-160907195D01*
X160481662Y-161164000D01*
X160506955Y-161420805D01*
X160581862Y-161667741D01*
X160703505Y-161895318D01*
X160867208Y-162094792D01*
X160951539Y-162164000D01*
X160867208Y-162233208D01*
X160703505Y-162432682D01*
X160581862Y-162660259D01*
X160506955Y-162907195D01*
X160481662Y-163164000D01*
X160506955Y-163420805D01*
X160581862Y-163667741D01*
X160703505Y-163895318D01*
X160867208Y-164094792D01*
X160951539Y-164164000D01*
X160867208Y-164233208D01*
X160703505Y-164432682D01*
X160581862Y-164660259D01*
X160506955Y-164907195D01*
X160481662Y-165164000D01*
X160506955Y-165420805D01*
X160581862Y-165667741D01*
X160703505Y-165895318D01*
X160867208Y-166094792D01*
X160951539Y-166164000D01*
X160867208Y-166233208D01*
X160703505Y-166432682D01*
X160581862Y-166660259D01*
X160506955Y-166907195D01*
X160481662Y-167164000D01*
X160506955Y-167420805D01*
X160581862Y-167667741D01*
X160703505Y-167895318D01*
X160760631Y-167964926D01*
X160671815Y-168037815D01*
X160592463Y-168134506D01*
X160533498Y-168244820D01*
X160497188Y-168364518D01*
X160484928Y-168489000D01*
X160484928Y-169839000D01*
X160497188Y-169963482D01*
X160533498Y-170083180D01*
X160592463Y-170193494D01*
X160671815Y-170290185D01*
X160768506Y-170369537D01*
X160878820Y-170428502D01*
X160998518Y-170464812D01*
X161123000Y-170477072D01*
X162473000Y-170477072D01*
X162597482Y-170464812D01*
X162717180Y-170428502D01*
X162827494Y-170369537D01*
X162924185Y-170290185D01*
X163003537Y-170193494D01*
X163062502Y-170083180D01*
X163098812Y-169963482D01*
X163111072Y-169839000D01*
X163111072Y-168489000D01*
X163098812Y-168364518D01*
X163062502Y-168244820D01*
X163003537Y-168134506D01*
X162924185Y-168037815D01*
X162835369Y-167964926D01*
X162892495Y-167895318D01*
X163014138Y-167667741D01*
X163089045Y-167420805D01*
X163114338Y-167164000D01*
X163089045Y-166907195D01*
X163014138Y-166660259D01*
X162892495Y-166432682D01*
X162728792Y-166233208D01*
X162644461Y-166164000D01*
X162728792Y-166094792D01*
X162892495Y-165895318D01*
X163014138Y-165667741D01*
X163089045Y-165420805D01*
X163114338Y-165164000D01*
X163089045Y-164907195D01*
X163014138Y-164660259D01*
X162892495Y-164432682D01*
X162728792Y-164233208D01*
X162644461Y-164164000D01*
X162728792Y-164094792D01*
X162892495Y-163895318D01*
X163014138Y-163667741D01*
X163089045Y-163420805D01*
X163114338Y-163164000D01*
X163089045Y-162907195D01*
X163014138Y-162660259D01*
X162892495Y-162432682D01*
X162728792Y-162233208D01*
X162644461Y-162164000D01*
X162728792Y-162094792D01*
X162892495Y-161895318D01*
X163014138Y-161667741D01*
X163089045Y-161420805D01*
X163114338Y-161164000D01*
X163089045Y-160907195D01*
X163014138Y-160660259D01*
X162892495Y-160432682D01*
X162728792Y-160233208D01*
X162644461Y-160164000D01*
X162728792Y-160094792D01*
X162892495Y-159895318D01*
X163014138Y-159667741D01*
X163089045Y-159420805D01*
X163114338Y-159164000D01*
X163089045Y-158907195D01*
X163014138Y-158660259D01*
X162892495Y-158432682D01*
X162728792Y-158233208D01*
X162644461Y-158164000D01*
X162728792Y-158094792D01*
X162892495Y-157895318D01*
X163014138Y-157667741D01*
X163089045Y-157420805D01*
X163114338Y-157164000D01*
X163089045Y-156907195D01*
X163014138Y-156660259D01*
X162892495Y-156432682D01*
X162728792Y-156233208D01*
X162644461Y-156164000D01*
X162728792Y-156094792D01*
X162892495Y-155895318D01*
X163014138Y-155667741D01*
X163089045Y-155420805D01*
X163114338Y-155164000D01*
X163089045Y-154907195D01*
X163014138Y-154660259D01*
X162892495Y-154432682D01*
X162728792Y-154233208D01*
X162529318Y-154069505D01*
X162301741Y-153947862D01*
X162054805Y-153872955D01*
X161862351Y-153854000D01*
X161733649Y-153854000D01*
X161541195Y-153872955D01*
X161294259Y-153947862D01*
X161066682Y-154069505D01*
X160867208Y-154233208D01*
X160703505Y-154432682D01*
X160581862Y-154660259D01*
X160506955Y-154907195D01*
X160481662Y-155164000D01*
X158700000Y-155164000D01*
X158700000Y-135147000D01*
X158851939Y-135147000D01*
X159051898Y-135107226D01*
X159240256Y-135029205D01*
X159409774Y-134915937D01*
X159553937Y-134771774D01*
X159667205Y-134602256D01*
X159745226Y-134413898D01*
X159785000Y-134213939D01*
X159785000Y-134010061D01*
X159745226Y-133810102D01*
X159667205Y-133621744D01*
X159553937Y-133452226D01*
X159425001Y-133323290D01*
X159425001Y-121380000D01*
X160481662Y-121380000D01*
X160506955Y-121636805D01*
X160581862Y-121883741D01*
X160703505Y-122111318D01*
X160867208Y-122310792D01*
X160951539Y-122380000D01*
X160867208Y-122449208D01*
X160703505Y-122648682D01*
X160581862Y-122876259D01*
X160506955Y-123123195D01*
X160481662Y-123380000D01*
X160506955Y-123636805D01*
X160581862Y-123883741D01*
X160703505Y-124111318D01*
X160867208Y-124310792D01*
X160951539Y-124380000D01*
X160867208Y-124449208D01*
X160703505Y-124648682D01*
X160581862Y-124876259D01*
X160506955Y-125123195D01*
X160481662Y-125380000D01*
X160506955Y-125636805D01*
X160581862Y-125883741D01*
X160703505Y-126111318D01*
X160867208Y-126310792D01*
X160951539Y-126380000D01*
X160867208Y-126449208D01*
X160703505Y-126648682D01*
X160581862Y-126876259D01*
X160506955Y-127123195D01*
X160481662Y-127380000D01*
X160506955Y-127636805D01*
X160581862Y-127883741D01*
X160703505Y-128111318D01*
X160867208Y-128310792D01*
X160951539Y-128380000D01*
X160867208Y-128449208D01*
X160703505Y-128648682D01*
X160581862Y-128876259D01*
X160506955Y-129123195D01*
X160481662Y-129380000D01*
X160506955Y-129636805D01*
X160581862Y-129883741D01*
X160703505Y-130111318D01*
X160867208Y-130310792D01*
X160951539Y-130380000D01*
X160867208Y-130449208D01*
X160703505Y-130648682D01*
X160581862Y-130876259D01*
X160506955Y-131123195D01*
X160481662Y-131380000D01*
X160506955Y-131636805D01*
X160581862Y-131883741D01*
X160703505Y-132111318D01*
X160867208Y-132310792D01*
X160951539Y-132380000D01*
X160867208Y-132449208D01*
X160703505Y-132648682D01*
X160581862Y-132876259D01*
X160506955Y-133123195D01*
X160481662Y-133380000D01*
X160506955Y-133636805D01*
X160581862Y-133883741D01*
X160703505Y-134111318D01*
X160867208Y-134310792D01*
X160951539Y-134380000D01*
X160867208Y-134449208D01*
X160703505Y-134648682D01*
X160581862Y-134876259D01*
X160506955Y-135123195D01*
X160481662Y-135380000D01*
X160506955Y-135636805D01*
X160581862Y-135883741D01*
X160703505Y-136111318D01*
X160867208Y-136310792D01*
X160951539Y-136380000D01*
X160867208Y-136449208D01*
X160703505Y-136648682D01*
X160581862Y-136876259D01*
X160506955Y-137123195D01*
X160481662Y-137380000D01*
X160506955Y-137636805D01*
X160581862Y-137883741D01*
X160703505Y-138111318D01*
X160867208Y-138310792D01*
X160951539Y-138380000D01*
X160867208Y-138449208D01*
X160703505Y-138648682D01*
X160581862Y-138876259D01*
X160506955Y-139123195D01*
X160481662Y-139380000D01*
X160506955Y-139636805D01*
X160581862Y-139883741D01*
X160703505Y-140111318D01*
X160867208Y-140310792D01*
X160951539Y-140380000D01*
X160867208Y-140449208D01*
X160703505Y-140648682D01*
X160581862Y-140876259D01*
X160506955Y-141123195D01*
X160481662Y-141380000D01*
X160506955Y-141636805D01*
X160581862Y-141883741D01*
X160703505Y-142111318D01*
X160867208Y-142310792D01*
X160951539Y-142380000D01*
X160867208Y-142449208D01*
X160703505Y-142648682D01*
X160581862Y-142876259D01*
X160506955Y-143123195D01*
X160481662Y-143380000D01*
X160506955Y-143636805D01*
X160581862Y-143883741D01*
X160703505Y-144111318D01*
X160867208Y-144310792D01*
X160951539Y-144380000D01*
X160867208Y-144449208D01*
X160703505Y-144648682D01*
X160581862Y-144876259D01*
X160506955Y-145123195D01*
X160481662Y-145380000D01*
X160506955Y-145636805D01*
X160581862Y-145883741D01*
X160703505Y-146111318D01*
X160867208Y-146310792D01*
X160951539Y-146380000D01*
X160867208Y-146449208D01*
X160703505Y-146648682D01*
X160581862Y-146876259D01*
X160506955Y-147123195D01*
X160481662Y-147380000D01*
X160506955Y-147636805D01*
X160581862Y-147883741D01*
X160703505Y-148111318D01*
X160867208Y-148310792D01*
X160951539Y-148380000D01*
X160867208Y-148449208D01*
X160703505Y-148648682D01*
X160581862Y-148876259D01*
X160506955Y-149123195D01*
X160481662Y-149380000D01*
X160506955Y-149636805D01*
X160581862Y-149883741D01*
X160703505Y-150111318D01*
X160867208Y-150310792D01*
X161066682Y-150474495D01*
X161294259Y-150596138D01*
X161541195Y-150671045D01*
X161733649Y-150690000D01*
X161862351Y-150690000D01*
X162054805Y-150671045D01*
X162301741Y-150596138D01*
X162529318Y-150474495D01*
X162728792Y-150310792D01*
X162892495Y-150111318D01*
X163014138Y-149883741D01*
X163089045Y-149636805D01*
X163114338Y-149380000D01*
X163089045Y-149123195D01*
X163014138Y-148876259D01*
X162892495Y-148648682D01*
X162728792Y-148449208D01*
X162644461Y-148380000D01*
X162728792Y-148310792D01*
X162892495Y-148111318D01*
X163014138Y-147883741D01*
X163089045Y-147636805D01*
X163114338Y-147380000D01*
X163089045Y-147123195D01*
X163014138Y-146876259D01*
X162892495Y-146648682D01*
X162728792Y-146449208D01*
X162644461Y-146380000D01*
X162728792Y-146310792D01*
X162892495Y-146111318D01*
X163014138Y-145883741D01*
X163089045Y-145636805D01*
X163114338Y-145380000D01*
X163089045Y-145123195D01*
X163014138Y-144876259D01*
X162892495Y-144648682D01*
X162728792Y-144449208D01*
X162644461Y-144380000D01*
X162728792Y-144310792D01*
X162892495Y-144111318D01*
X163014138Y-143883741D01*
X163089045Y-143636805D01*
X163114338Y-143380000D01*
X163089045Y-143123195D01*
X163014138Y-142876259D01*
X162892495Y-142648682D01*
X162728792Y-142449208D01*
X162644461Y-142380000D01*
X162728792Y-142310792D01*
X162892495Y-142111318D01*
X163014138Y-141883741D01*
X163089045Y-141636805D01*
X163114338Y-141380000D01*
X163089045Y-141123195D01*
X163014138Y-140876259D01*
X162892495Y-140648682D01*
X162728792Y-140449208D01*
X162644461Y-140380000D01*
X162728792Y-140310792D01*
X162892495Y-140111318D01*
X163014138Y-139883741D01*
X163089045Y-139636805D01*
X163114338Y-139380000D01*
X163089045Y-139123195D01*
X163014138Y-138876259D01*
X162892495Y-138648682D01*
X162728792Y-138449208D01*
X162644461Y-138380000D01*
X162728792Y-138310792D01*
X162892495Y-138111318D01*
X163014138Y-137883741D01*
X163089045Y-137636805D01*
X163114338Y-137380000D01*
X163089045Y-137123195D01*
X163014138Y-136876259D01*
X162892495Y-136648682D01*
X162728792Y-136449208D01*
X162644461Y-136380000D01*
X162728792Y-136310792D01*
X162892495Y-136111318D01*
X163014138Y-135883741D01*
X163089045Y-135636805D01*
X163114338Y-135380000D01*
X163089045Y-135123195D01*
X163014138Y-134876259D01*
X162892495Y-134648682D01*
X162728792Y-134449208D01*
X162644461Y-134380000D01*
X162728792Y-134310792D01*
X162892495Y-134111318D01*
X163014138Y-133883741D01*
X163089045Y-133636805D01*
X163114338Y-133380000D01*
X163089045Y-133123195D01*
X163014138Y-132876259D01*
X162892495Y-132648682D01*
X162728792Y-132449208D01*
X162644461Y-132380000D01*
X162728792Y-132310792D01*
X162892495Y-132111318D01*
X163014138Y-131883741D01*
X163089045Y-131636805D01*
X163114338Y-131380000D01*
X163089045Y-131123195D01*
X163014138Y-130876259D01*
X162892495Y-130648682D01*
X162728792Y-130449208D01*
X162644461Y-130380000D01*
X162728792Y-130310792D01*
X162892495Y-130111318D01*
X163014138Y-129883741D01*
X163089045Y-129636805D01*
X163114338Y-129380000D01*
X163089045Y-129123195D01*
X163014138Y-128876259D01*
X162892495Y-128648682D01*
X162728792Y-128449208D01*
X162644461Y-128380000D01*
X162728792Y-128310792D01*
X162892495Y-128111318D01*
X163014138Y-127883741D01*
X163089045Y-127636805D01*
X163114338Y-127380000D01*
X163089045Y-127123195D01*
X163014138Y-126876259D01*
X162892495Y-126648682D01*
X162728792Y-126449208D01*
X162644461Y-126380000D01*
X162728792Y-126310792D01*
X162892495Y-126111318D01*
X163014138Y-125883741D01*
X163089045Y-125636805D01*
X163114338Y-125380000D01*
X163089045Y-125123195D01*
X163014138Y-124876259D01*
X162892495Y-124648682D01*
X162728792Y-124449208D01*
X162644461Y-124380000D01*
X162728792Y-124310792D01*
X162892495Y-124111318D01*
X163014138Y-123883741D01*
X163089045Y-123636805D01*
X163114338Y-123380000D01*
X163089045Y-123123195D01*
X163014138Y-122876259D01*
X162892495Y-122648682D01*
X162728792Y-122449208D01*
X162644461Y-122380000D01*
X162728792Y-122310792D01*
X162892495Y-122111318D01*
X163014138Y-121883741D01*
X163089045Y-121636805D01*
X163114338Y-121380000D01*
X163089045Y-121123195D01*
X163014138Y-120876259D01*
X162892495Y-120648682D01*
X162835369Y-120579074D01*
X162924185Y-120506185D01*
X163003537Y-120409494D01*
X163062502Y-120299180D01*
X163098812Y-120179482D01*
X163111072Y-120055000D01*
X163111072Y-118705000D01*
X163098812Y-118580518D01*
X163062502Y-118460820D01*
X163003537Y-118350506D01*
X162924185Y-118253815D01*
X162827494Y-118174463D01*
X162717180Y-118115498D01*
X162597482Y-118079188D01*
X162473000Y-118066928D01*
X161123000Y-118066928D01*
X160998518Y-118079188D01*
X160878820Y-118115498D01*
X160768506Y-118174463D01*
X160671815Y-118253815D01*
X160592463Y-118350506D01*
X160533498Y-118460820D01*
X160497188Y-118580518D01*
X160484928Y-118705000D01*
X160484928Y-120055000D01*
X160497188Y-120179482D01*
X160533498Y-120299180D01*
X160592463Y-120409494D01*
X160671815Y-120506185D01*
X160760631Y-120579074D01*
X160703505Y-120648682D01*
X160581862Y-120876259D01*
X160506955Y-121123195D01*
X160481662Y-121380000D01*
X159425001Y-121380000D01*
X159425001Y-98298000D01*
X160610057Y-98298000D01*
X160637764Y-98579309D01*
X160719818Y-98849808D01*
X160853068Y-99099101D01*
X161032392Y-99317608D01*
X161250899Y-99496932D01*
X161383858Y-99568000D01*
X161250899Y-99639068D01*
X161032392Y-99818392D01*
X160853068Y-100036899D01*
X160719818Y-100286192D01*
X160637764Y-100556691D01*
X160610057Y-100838000D01*
X160637764Y-101119309D01*
X160719818Y-101389808D01*
X160853068Y-101639101D01*
X161032392Y-101857608D01*
X161250899Y-102036932D01*
X161383858Y-102108000D01*
X161250899Y-102179068D01*
X161032392Y-102358392D01*
X160853068Y-102576899D01*
X160719818Y-102826192D01*
X160637764Y-103096691D01*
X160610057Y-103378000D01*
X160637764Y-103659309D01*
X160719818Y-103929808D01*
X160853068Y-104179101D01*
X161032392Y-104397608D01*
X161250899Y-104576932D01*
X161383858Y-104648000D01*
X161250899Y-104719068D01*
X161032392Y-104898392D01*
X160853068Y-105116899D01*
X160719818Y-105366192D01*
X160637764Y-105636691D01*
X160610057Y-105918000D01*
X160637764Y-106199309D01*
X160719818Y-106469808D01*
X160853068Y-106719101D01*
X161032392Y-106937608D01*
X161250899Y-107116932D01*
X161383858Y-107188000D01*
X161250899Y-107259068D01*
X161032392Y-107438392D01*
X160853068Y-107656899D01*
X160719818Y-107906192D01*
X160637764Y-108176691D01*
X160610057Y-108458000D01*
X160637764Y-108739309D01*
X160719818Y-109009808D01*
X160853068Y-109259101D01*
X161032392Y-109477608D01*
X161250899Y-109656932D01*
X161383858Y-109728000D01*
X161250899Y-109799068D01*
X161032392Y-109978392D01*
X160853068Y-110196899D01*
X160719818Y-110446192D01*
X160637764Y-110716691D01*
X160610057Y-110998000D01*
X160637764Y-111279309D01*
X160719818Y-111549808D01*
X160853068Y-111799101D01*
X161032392Y-112017608D01*
X161250899Y-112196932D01*
X161383858Y-112268000D01*
X161250899Y-112339068D01*
X161032392Y-112518392D01*
X160853068Y-112736899D01*
X160719818Y-112986192D01*
X160637764Y-113256691D01*
X160610057Y-113538000D01*
X160637764Y-113819309D01*
X160719818Y-114089808D01*
X160853068Y-114339101D01*
X161032392Y-114557608D01*
X161250899Y-114736932D01*
X161500192Y-114870182D01*
X161770691Y-114952236D01*
X161981508Y-114973000D01*
X162122492Y-114973000D01*
X162333309Y-114952236D01*
X162603808Y-114870182D01*
X162853101Y-114736932D01*
X163071608Y-114557608D01*
X163250932Y-114339101D01*
X163384182Y-114089808D01*
X163466236Y-113819309D01*
X163493943Y-113538000D01*
X163466236Y-113256691D01*
X163384182Y-112986192D01*
X163250932Y-112736899D01*
X163071608Y-112518392D01*
X162853101Y-112339068D01*
X162720142Y-112268000D01*
X162853101Y-112196932D01*
X163071608Y-112017608D01*
X163250932Y-111799101D01*
X163384182Y-111549808D01*
X163466236Y-111279309D01*
X163493943Y-110998000D01*
X163466236Y-110716691D01*
X163384182Y-110446192D01*
X163250932Y-110196899D01*
X163071608Y-109978392D01*
X162853101Y-109799068D01*
X162720142Y-109728000D01*
X162853101Y-109656932D01*
X163071608Y-109477608D01*
X163250932Y-109259101D01*
X163384182Y-109009808D01*
X163466236Y-108739309D01*
X163493943Y-108458000D01*
X163466236Y-108176691D01*
X163384182Y-107906192D01*
X163250932Y-107656899D01*
X163071608Y-107438392D01*
X162853101Y-107259068D01*
X162720142Y-107188000D01*
X162853101Y-107116932D01*
X163071608Y-106937608D01*
X163250932Y-106719101D01*
X163384182Y-106469808D01*
X163466236Y-106199309D01*
X163493943Y-105918000D01*
X163466236Y-105636691D01*
X163384182Y-105366192D01*
X163250932Y-105116899D01*
X163071608Y-104898392D01*
X162853101Y-104719068D01*
X162720142Y-104648000D01*
X162853101Y-104576932D01*
X163071608Y-104397608D01*
X163250932Y-104179101D01*
X163384182Y-103929808D01*
X163466236Y-103659309D01*
X163493943Y-103378000D01*
X163466236Y-103096691D01*
X163384182Y-102826192D01*
X163250932Y-102576899D01*
X163071608Y-102358392D01*
X162853101Y-102179068D01*
X162720142Y-102108000D01*
X162853101Y-102036932D01*
X163071608Y-101857608D01*
X163250932Y-101639101D01*
X163384182Y-101389808D01*
X163466236Y-101119309D01*
X163493943Y-100838000D01*
X163466236Y-100556691D01*
X163384182Y-100286192D01*
X163250932Y-100036899D01*
X163071608Y-99818392D01*
X162853101Y-99639068D01*
X162720142Y-99568000D01*
X162853101Y-99496932D01*
X163071608Y-99317608D01*
X163250932Y-99099101D01*
X163384182Y-98849808D01*
X163466236Y-98579309D01*
X163493943Y-98298000D01*
X163466236Y-98016691D01*
X163384182Y-97746192D01*
X163250932Y-97496899D01*
X163071608Y-97278392D01*
X162853101Y-97099068D01*
X162603808Y-96965818D01*
X162333309Y-96883764D01*
X162122492Y-96863000D01*
X161981508Y-96863000D01*
X161770691Y-96883764D01*
X161500192Y-96965818D01*
X161250899Y-97099068D01*
X161032392Y-97278392D01*
X160853068Y-97496899D01*
X160719818Y-97746192D01*
X160637764Y-98016691D01*
X160610057Y-98298000D01*
X159425001Y-98298000D01*
X159425001Y-88344323D01*
X159428677Y-88307000D01*
X159425001Y-88269677D01*
X159425001Y-88269668D01*
X159414004Y-88158015D01*
X159370547Y-88014754D01*
X159299975Y-87882725D01*
X159249990Y-87821818D01*
X159228800Y-87795997D01*
X159228796Y-87795993D01*
X159205002Y-87767000D01*
X159176010Y-87743207D01*
X155832708Y-84399906D01*
X155846236Y-84355309D01*
X155873943Y-84074000D01*
X155846236Y-83792691D01*
X155832708Y-83748094D01*
X156975003Y-82605799D01*
X157004001Y-82582001D01*
X157030332Y-82549917D01*
X157098974Y-82466277D01*
X157169546Y-82334247D01*
X157213003Y-82190986D01*
X157224000Y-82079333D01*
X157224000Y-82079323D01*
X157227676Y-82042000D01*
X157224000Y-82004677D01*
X157224000Y-77473325D01*
X157227676Y-77436000D01*
X157224000Y-77398675D01*
X157224000Y-77398667D01*
X157213003Y-77287014D01*
X157169546Y-77143753D01*
X157098974Y-77011724D01*
X157004001Y-76895999D01*
X156975004Y-76872202D01*
X156045804Y-75943002D01*
X156022001Y-75913999D01*
X155906276Y-75819026D01*
X155870072Y-75799674D01*
X155870072Y-75654000D01*
X155857812Y-75529518D01*
X155821502Y-75409820D01*
X155762537Y-75299506D01*
X155683185Y-75202815D01*
X155586494Y-75123463D01*
X155508923Y-75082000D01*
X161631456Y-75082000D01*
X161500192Y-75121818D01*
X161250899Y-75255068D01*
X161032392Y-75434392D01*
X160853068Y-75652899D01*
X160719818Y-75902192D01*
X160637764Y-76172691D01*
X160610057Y-76454000D01*
X160637764Y-76735309D01*
X160719818Y-77005808D01*
X160853068Y-77255101D01*
X161032392Y-77473608D01*
X161250899Y-77652932D01*
X161383858Y-77724000D01*
X161250899Y-77795068D01*
X161032392Y-77974392D01*
X160853068Y-78192899D01*
X160719818Y-78442192D01*
X160637764Y-78712691D01*
X160610057Y-78994000D01*
X160637764Y-79275309D01*
X160719818Y-79545808D01*
X160853068Y-79795101D01*
X161032392Y-80013608D01*
X161250899Y-80192932D01*
X161383858Y-80264000D01*
X161250899Y-80335068D01*
X161032392Y-80514392D01*
X160853068Y-80732899D01*
X160719818Y-80982192D01*
X160637764Y-81252691D01*
X160610057Y-81534000D01*
X160637764Y-81815309D01*
X160719818Y-82085808D01*
X160853068Y-82335101D01*
X161032392Y-82553608D01*
X161250899Y-82732932D01*
X161383858Y-82804000D01*
X161250899Y-82875068D01*
X161032392Y-83054392D01*
X160853068Y-83272899D01*
X160719818Y-83522192D01*
X160637764Y-83792691D01*
X160610057Y-84074000D01*
X160637764Y-84355309D01*
X160719818Y-84625808D01*
X160853068Y-84875101D01*
X161032392Y-85093608D01*
X161250899Y-85272932D01*
X161383858Y-85344000D01*
X161250899Y-85415068D01*
X161032392Y-85594392D01*
X160853068Y-85812899D01*
X160719818Y-86062192D01*
X160637764Y-86332691D01*
X160610057Y-86614000D01*
X160637764Y-86895309D01*
X160719818Y-87165808D01*
X160853068Y-87415101D01*
X161032392Y-87633608D01*
X161250899Y-87812932D01*
X161383858Y-87884000D01*
X161250899Y-87955068D01*
X161032392Y-88134392D01*
X160853068Y-88352899D01*
X160719818Y-88602192D01*
X160637764Y-88872691D01*
X160610057Y-89154000D01*
X160637764Y-89435309D01*
X160719818Y-89705808D01*
X160853068Y-89955101D01*
X161032392Y-90173608D01*
X161250899Y-90352932D01*
X161383858Y-90424000D01*
X161250899Y-90495068D01*
X161032392Y-90674392D01*
X160853068Y-90892899D01*
X160719818Y-91142192D01*
X160637764Y-91412691D01*
X160610057Y-91694000D01*
X160637764Y-91975309D01*
X160719818Y-92245808D01*
X160853068Y-92495101D01*
X161032392Y-92713608D01*
X161250899Y-92892932D01*
X161500192Y-93026182D01*
X161770691Y-93108236D01*
X161981508Y-93129000D01*
X162122492Y-93129000D01*
X162333309Y-93108236D01*
X162603808Y-93026182D01*
X162853101Y-92892932D01*
X163071608Y-92713608D01*
X163250932Y-92495101D01*
X163384182Y-92245808D01*
X163466236Y-91975309D01*
X163493943Y-91694000D01*
X163466236Y-91412691D01*
X163384182Y-91142192D01*
X163250932Y-90892899D01*
X163071608Y-90674392D01*
X162853101Y-90495068D01*
X162720142Y-90424000D01*
X162853101Y-90352932D01*
X163071608Y-90173608D01*
X163250932Y-89955101D01*
X163384182Y-89705808D01*
X163466236Y-89435309D01*
X163493943Y-89154000D01*
X163466236Y-88872691D01*
X163384182Y-88602192D01*
X163250932Y-88352899D01*
X163071608Y-88134392D01*
X162853101Y-87955068D01*
X162720142Y-87884000D01*
X162853101Y-87812932D01*
X163071608Y-87633608D01*
X163250932Y-87415101D01*
X163384182Y-87165808D01*
X163466236Y-86895309D01*
X163493943Y-86614000D01*
X163466236Y-86332691D01*
X163384182Y-86062192D01*
X163250932Y-85812899D01*
X163071608Y-85594392D01*
X162853101Y-85415068D01*
X162720142Y-85344000D01*
X162853101Y-85272932D01*
X163071608Y-85093608D01*
X163250932Y-84875101D01*
X163384182Y-84625808D01*
X163466236Y-84355309D01*
X163493943Y-84074000D01*
X163466236Y-83792691D01*
X163384182Y-83522192D01*
X163250932Y-83272899D01*
X163071608Y-83054392D01*
X162853101Y-82875068D01*
X162720142Y-82804000D01*
X162853101Y-82732932D01*
X163071608Y-82553608D01*
X163250932Y-82335101D01*
X163384182Y-82085808D01*
X163466236Y-81815309D01*
X163493943Y-81534000D01*
X163466236Y-81252691D01*
X163384182Y-80982192D01*
X163250932Y-80732899D01*
X163071608Y-80514392D01*
X162853101Y-80335068D01*
X162720142Y-80264000D01*
X162853101Y-80192932D01*
X163071608Y-80013608D01*
X163250932Y-79795101D01*
X163384182Y-79545808D01*
X163466236Y-79275309D01*
X163493943Y-78994000D01*
X163466236Y-78712691D01*
X163384182Y-78442192D01*
X163250932Y-78192899D01*
X163071608Y-77974392D01*
X162853101Y-77795068D01*
X162720142Y-77724000D01*
X162853101Y-77652932D01*
X163071608Y-77473608D01*
X163250932Y-77255101D01*
X163384182Y-77005808D01*
X163466236Y-76735309D01*
X163493943Y-76454000D01*
X163466236Y-76172691D01*
X163384182Y-75902192D01*
X163250932Y-75652899D01*
X163071608Y-75434392D01*
X162853101Y-75255068D01*
X162603808Y-75121818D01*
X162472544Y-75082000D01*
X163678000Y-75082000D01*
X163678001Y-181204000D01*
X96164000Y-181204000D01*
X96164000Y-179371413D01*
X135188192Y-179371413D01*
X135283956Y-179635814D01*
X135573571Y-179776704D01*
X135885108Y-179858384D01*
X136206595Y-179877718D01*
X136525675Y-179833961D01*
X136830088Y-179728795D01*
X137004044Y-179635814D01*
X137099808Y-179371413D01*
X141688192Y-179371413D01*
X141783956Y-179635814D01*
X142073571Y-179776704D01*
X142385108Y-179858384D01*
X142706595Y-179877718D01*
X143025675Y-179833961D01*
X143330088Y-179728795D01*
X143504044Y-179635814D01*
X143599808Y-179371413D01*
X142644000Y-178415605D01*
X141688192Y-179371413D01*
X137099808Y-179371413D01*
X136144000Y-178415605D01*
X135188192Y-179371413D01*
X96164000Y-179371413D01*
X96164000Y-178298595D01*
X134502282Y-178298595D01*
X134546039Y-178617675D01*
X134651205Y-178922088D01*
X134744186Y-179096044D01*
X135008587Y-179191808D01*
X135964395Y-178236000D01*
X136323605Y-178236000D01*
X137279413Y-179191808D01*
X137543814Y-179096044D01*
X137684704Y-178806429D01*
X137766384Y-178494892D01*
X137778189Y-178298595D01*
X141002282Y-178298595D01*
X141046039Y-178617675D01*
X141151205Y-178922088D01*
X141244186Y-179096044D01*
X141508587Y-179191808D01*
X142464395Y-178236000D01*
X142823605Y-178236000D01*
X143779413Y-179191808D01*
X144043814Y-179096044D01*
X144184704Y-178806429D01*
X144266384Y-178494892D01*
X144285718Y-178173405D01*
X144241961Y-177854325D01*
X144136795Y-177549912D01*
X144043814Y-177375956D01*
X143779413Y-177280192D01*
X142823605Y-178236000D01*
X142464395Y-178236000D01*
X141508587Y-177280192D01*
X141244186Y-177375956D01*
X141103296Y-177665571D01*
X141021616Y-177977108D01*
X141002282Y-178298595D01*
X137778189Y-178298595D01*
X137785718Y-178173405D01*
X137741961Y-177854325D01*
X137636795Y-177549912D01*
X137543814Y-177375956D01*
X137279413Y-177280192D01*
X136323605Y-178236000D01*
X135964395Y-178236000D01*
X135008587Y-177280192D01*
X134744186Y-177375956D01*
X134603296Y-177665571D01*
X134521616Y-177977108D01*
X134502282Y-178298595D01*
X96164000Y-178298595D01*
X96164000Y-177100587D01*
X135188192Y-177100587D01*
X136144000Y-178056395D01*
X137099808Y-177100587D01*
X141688192Y-177100587D01*
X142644000Y-178056395D01*
X143599808Y-177100587D01*
X143504044Y-176836186D01*
X143214429Y-176695296D01*
X142902892Y-176613616D01*
X142581405Y-176594282D01*
X142262325Y-176638039D01*
X141957912Y-176743205D01*
X141783956Y-176836186D01*
X141688192Y-177100587D01*
X137099808Y-177100587D01*
X137004044Y-176836186D01*
X136714429Y-176695296D01*
X136402892Y-176613616D01*
X136081405Y-176594282D01*
X135762325Y-176638039D01*
X135457912Y-176743205D01*
X135283956Y-176836186D01*
X135188192Y-177100587D01*
X96164000Y-177100587D01*
X96164000Y-173698000D01*
X99145928Y-173698000D01*
X99145928Y-175298000D01*
X99158188Y-175422482D01*
X99194498Y-175542180D01*
X99253463Y-175652494D01*
X99332815Y-175749185D01*
X99429506Y-175828537D01*
X99539820Y-175887502D01*
X99659518Y-175923812D01*
X99784000Y-175936072D01*
X101384000Y-175936072D01*
X101508482Y-175923812D01*
X101628180Y-175887502D01*
X101738494Y-175828537D01*
X101835185Y-175749185D01*
X101914537Y-175652494D01*
X101973502Y-175542180D01*
X101989117Y-175490702D01*
X107390903Y-175490702D01*
X107462486Y-175734671D01*
X107717996Y-175855571D01*
X107992184Y-175924300D01*
X108274512Y-175938217D01*
X108554130Y-175896787D01*
X108820292Y-175801603D01*
X108945514Y-175734671D01*
X109017097Y-175490702D01*
X108204000Y-174677605D01*
X107390903Y-175490702D01*
X101989117Y-175490702D01*
X102009812Y-175422482D01*
X102022072Y-175298000D01*
X102022072Y-174568512D01*
X106763783Y-174568512D01*
X106805213Y-174848130D01*
X106900397Y-175114292D01*
X106967329Y-175239514D01*
X107211298Y-175311097D01*
X108024395Y-174498000D01*
X108383605Y-174498000D01*
X109196702Y-175311097D01*
X109440671Y-175239514D01*
X109561571Y-174984004D01*
X109630300Y-174709816D01*
X109644217Y-174427488D01*
X109602787Y-174147870D01*
X109507603Y-173881708D01*
X109440671Y-173756486D01*
X109196702Y-173684903D01*
X108383605Y-174498000D01*
X108024395Y-174498000D01*
X107211298Y-173684903D01*
X106967329Y-173756486D01*
X106846429Y-174011996D01*
X106777700Y-174286184D01*
X106763783Y-174568512D01*
X102022072Y-174568512D01*
X102022072Y-173698000D01*
X102009812Y-173573518D01*
X101989118Y-173505298D01*
X107390903Y-173505298D01*
X108204000Y-174318395D01*
X109017097Y-173505298D01*
X108945514Y-173261329D01*
X108690004Y-173140429D01*
X108415816Y-173071700D01*
X108133488Y-173057783D01*
X107853870Y-173099213D01*
X107587708Y-173194397D01*
X107462486Y-173261329D01*
X107390903Y-173505298D01*
X101989118Y-173505298D01*
X101973502Y-173453820D01*
X101914537Y-173343506D01*
X101835185Y-173246815D01*
X101738494Y-173167463D01*
X101628180Y-173108498D01*
X101508482Y-173072188D01*
X101384000Y-173059928D01*
X99784000Y-173059928D01*
X99659518Y-173072188D01*
X99539820Y-173108498D01*
X99429506Y-173167463D01*
X99332815Y-173246815D01*
X99253463Y-173343506D01*
X99194498Y-173453820D01*
X99158188Y-173573518D01*
X99145928Y-173698000D01*
X96164000Y-173698000D01*
X96164000Y-75082000D01*
X153355077Y-75082000D01*
X153277506Y-75123463D01*
G36*
X134437068Y-118911101D02*
G01*
X134616392Y-119129608D01*
X134834899Y-119308932D01*
X134876000Y-119330901D01*
X134876001Y-131370195D01*
X133497867Y-132748330D01*
X133389101Y-132659068D01*
X133348000Y-132637099D01*
X133348000Y-130878313D01*
X133566505Y-130732312D01*
X133780312Y-130518505D01*
X133948299Y-130267095D01*
X134064011Y-129987743D01*
X134123000Y-129691184D01*
X134123000Y-129388816D01*
X134064011Y-129092257D01*
X133948299Y-128812905D01*
X133780312Y-128561495D01*
X133566505Y-128347688D01*
X133315095Y-128179701D01*
X133035743Y-128063989D01*
X132739184Y-128005000D01*
X132436816Y-128005000D01*
X132140257Y-128063989D01*
X131860905Y-128179701D01*
X131609495Y-128347688D01*
X131543056Y-128414127D01*
X131537502Y-128395820D01*
X131478537Y-128285506D01*
X131399185Y-128188815D01*
X131302494Y-128109463D01*
X131192180Y-128050498D01*
X131072482Y-128014188D01*
X130948000Y-128001928D01*
X130333750Y-128005000D01*
X130175000Y-128163750D01*
X130175000Y-129413000D01*
X130195000Y-129413000D01*
X130195000Y-129667000D01*
X130175000Y-129667000D01*
X130175000Y-130916250D01*
X130333750Y-131075000D01*
X130948000Y-131078072D01*
X131072482Y-131065812D01*
X131192180Y-131029502D01*
X131302494Y-130970537D01*
X131399185Y-130891185D01*
X131478537Y-130794494D01*
X131537502Y-130684180D01*
X131543056Y-130665873D01*
X131609495Y-130732312D01*
X131828000Y-130878313D01*
X131828001Y-132637099D01*
X131786899Y-132659068D01*
X131568392Y-132838392D01*
X131389068Y-133056899D01*
X131318000Y-133189858D01*
X131246932Y-133056899D01*
X131067608Y-132838392D01*
X130849101Y-132659068D01*
X130599808Y-132525818D01*
X130329309Y-132443764D01*
X130118492Y-132423000D01*
X129977508Y-132423000D01*
X129766691Y-132443764D01*
X129496192Y-132525818D01*
X129246899Y-132659068D01*
X129028392Y-132838392D01*
X128849068Y-133056899D01*
X128775421Y-133194682D01*
X128660385Y-133002869D01*
X128471414Y-132794481D01*
X128245420Y-132626963D01*
X127991087Y-132506754D01*
X127857039Y-132466096D01*
X127635000Y-132588085D01*
X127635000Y-133731000D01*
X127655000Y-133731000D01*
X127655000Y-133985000D01*
X127635000Y-133985000D01*
X127635000Y-135127915D01*
X127857039Y-135249904D01*
X127991087Y-135209246D01*
X128245420Y-135089037D01*
X128471414Y-134921519D01*
X128660385Y-134713131D01*
X128775421Y-134521318D01*
X128849068Y-134659101D01*
X129028392Y-134877608D01*
X129246899Y-135056932D01*
X129496192Y-135190182D01*
X129766691Y-135272236D01*
X129977508Y-135293000D01*
X130118492Y-135293000D01*
X130329309Y-135272236D01*
X130599808Y-135190182D01*
X130849101Y-135056932D01*
X131067608Y-134877608D01*
X131246932Y-134659101D01*
X131318000Y-134526142D01*
X131389068Y-134659101D01*
X131568392Y-134877608D01*
X131786899Y-135056932D01*
X132036192Y-135190182D01*
X132306691Y-135272236D01*
X132517508Y-135293000D01*
X132658492Y-135293000D01*
X132869309Y-135272236D01*
X132953001Y-135246849D01*
X132953002Y-147658197D01*
X132913907Y-147697292D01*
X132869309Y-147683764D01*
X132658492Y-147663000D01*
X132517508Y-147663000D01*
X132306691Y-147683764D01*
X132036192Y-147765818D01*
X131786899Y-147899068D01*
X131568392Y-148078392D01*
X131389068Y-148296899D01*
X131318000Y-148429858D01*
X131246932Y-148296899D01*
X131067608Y-148078392D01*
X130849101Y-147899068D01*
X130599808Y-147765818D01*
X130329309Y-147683764D01*
X130118492Y-147663000D01*
X129977508Y-147663000D01*
X129766691Y-147683764D01*
X129496192Y-147765818D01*
X129246899Y-147899068D01*
X129028392Y-148078392D01*
X128849068Y-148296899D01*
X128778000Y-148429858D01*
X128706932Y-148296899D01*
X128527608Y-148078392D01*
X128309101Y-147899068D01*
X128059808Y-147765818D01*
X127789309Y-147683764D01*
X127578492Y-147663000D01*
X127437508Y-147663000D01*
X127226691Y-147683764D01*
X126956192Y-147765818D01*
X126706899Y-147899068D01*
X126488392Y-148078392D01*
X126309068Y-148296899D01*
X126238000Y-148429858D01*
X126166932Y-148296899D01*
X125987608Y-148078392D01*
X125769101Y-147899068D01*
X125519808Y-147765818D01*
X125249309Y-147683764D01*
X125038492Y-147663000D01*
X124897508Y-147663000D01*
X124686691Y-147683764D01*
X124642094Y-147697292D01*
X122737804Y-145793003D01*
X122714001Y-145763999D01*
X122598276Y-145669026D01*
X122466247Y-145598454D01*
X122322986Y-145554997D01*
X122211333Y-145544000D01*
X122211322Y-145544000D01*
X122174000Y-145540324D01*
X122136678Y-145544000D01*
X105978802Y-145544000D01*
X103397000Y-142962199D01*
X103397000Y-142900061D01*
X103357226Y-142700102D01*
X103279205Y-142511744D01*
X103165937Y-142342226D01*
X103021774Y-142198063D01*
X102852256Y-142084795D01*
X102663898Y-142006774D01*
X102463939Y-141967000D01*
X102260061Y-141967000D01*
X102060102Y-142006774D01*
X101871744Y-142084795D01*
X101702226Y-142198063D01*
X101598000Y-142302289D01*
X101598000Y-135202864D01*
X101826691Y-135272236D01*
X102037508Y-135293000D01*
X102178492Y-135293000D01*
X102389309Y-135272236D01*
X102659808Y-135190182D01*
X102909101Y-135056932D01*
X103127608Y-134877608D01*
X103306932Y-134659101D01*
X103378000Y-134526142D01*
X103449068Y-134659101D01*
X103628392Y-134877608D01*
X103846899Y-135056932D01*
X104096192Y-135190182D01*
X104366691Y-135272236D01*
X104577508Y-135293000D01*
X104718492Y-135293000D01*
X104929309Y-135272236D01*
X105013002Y-135246848D01*
X105013002Y-135961669D01*
X105009325Y-135999001D01*
X105023999Y-136147986D01*
X105067455Y-136291247D01*
X105138027Y-136423277D01*
X105209202Y-136510003D01*
X105233001Y-136539002D01*
X105261999Y-136562800D01*
X107677000Y-138977802D01*
X107677000Y-139039939D01*
X107716774Y-139239898D01*
X107794795Y-139428256D01*
X107908063Y-139597774D01*
X108052226Y-139741937D01*
X108221744Y-139855205D01*
X108410102Y-139933226D01*
X108610061Y-139973000D01*
X108813939Y-139973000D01*
X109013898Y-139933226D01*
X109202256Y-139855205D01*
X109371774Y-139741937D01*
X109476000Y-139637711D01*
X109476001Y-141440668D01*
X109472324Y-141478000D01*
X109486998Y-141626985D01*
X109530454Y-141770246D01*
X109601026Y-141902276D01*
X109672201Y-141989002D01*
X109696000Y-142018001D01*
X109724998Y-142041799D01*
X111487000Y-143803802D01*
X111487000Y-143865939D01*
X111526774Y-144065898D01*
X111604795Y-144254256D01*
X111718063Y-144423774D01*
X111862226Y-144567937D01*
X112031744Y-144681205D01*
X112220102Y-144759226D01*
X112420061Y-144799000D01*
X112623939Y-144799000D01*
X112823898Y-144759226D01*
X113012256Y-144681205D01*
X113181774Y-144567937D01*
X113325937Y-144423774D01*
X113439205Y-144254256D01*
X113517226Y-144065898D01*
X113557000Y-143865939D01*
X113557000Y-143662061D01*
X113517226Y-143462102D01*
X113439205Y-143273744D01*
X113325937Y-143104226D01*
X113181774Y-142960063D01*
X113012256Y-142846795D01*
X112823898Y-142768774D01*
X112623939Y-142729000D01*
X112561802Y-142729000D01*
X110996000Y-141163199D01*
X110996000Y-140604013D01*
X111015744Y-140617205D01*
X111204102Y-140695226D01*
X111404061Y-140735000D01*
X111607939Y-140735000D01*
X111807898Y-140695226D01*
X111996256Y-140617205D01*
X112165774Y-140503937D01*
X112309937Y-140359774D01*
X112423205Y-140190256D01*
X112501226Y-140001898D01*
X112541000Y-139801939D01*
X112541000Y-139739801D01*
X114049003Y-138231799D01*
X114078001Y-138208001D01*
X114119056Y-138157975D01*
X114172974Y-138092277D01*
X114243546Y-137960247D01*
X114266753Y-137883741D01*
X114287003Y-137816986D01*
X114298000Y-137705333D01*
X114298000Y-137705323D01*
X114301676Y-137668000D01*
X114298000Y-137630677D01*
X114298000Y-135202864D01*
X114526691Y-135272236D01*
X114737508Y-135293000D01*
X114878492Y-135293000D01*
X115089309Y-135272236D01*
X115359808Y-135190182D01*
X115609101Y-135056932D01*
X115827608Y-134877608D01*
X116006932Y-134659101D01*
X116078000Y-134526142D01*
X116149068Y-134659101D01*
X116328392Y-134877608D01*
X116546899Y-135056932D01*
X116796192Y-135190182D01*
X117066691Y-135272236D01*
X117277508Y-135293000D01*
X117418492Y-135293000D01*
X117629309Y-135272236D01*
X117899808Y-135190182D01*
X118149101Y-135056932D01*
X118367608Y-134877608D01*
X118546932Y-134659101D01*
X118618000Y-134526142D01*
X118689068Y-134659101D01*
X118868392Y-134877608D01*
X119086899Y-135056932D01*
X119336192Y-135190182D01*
X119606691Y-135272236D01*
X119817508Y-135293000D01*
X119958492Y-135293000D01*
X120169309Y-135272236D01*
X120439808Y-135190182D01*
X120689101Y-135056932D01*
X120907608Y-134877608D01*
X121086932Y-134659101D01*
X121158000Y-134526142D01*
X121229068Y-134659101D01*
X121408392Y-134877608D01*
X121626899Y-135056932D01*
X121876192Y-135190182D01*
X122146691Y-135272236D01*
X122357508Y-135293000D01*
X122498492Y-135293000D01*
X122709309Y-135272236D01*
X122979808Y-135190182D01*
X123229101Y-135056932D01*
X123447608Y-134877608D01*
X123626932Y-134659101D01*
X123698000Y-134526142D01*
X123769068Y-134659101D01*
X123948392Y-134877608D01*
X124166899Y-135056932D01*
X124416192Y-135190182D01*
X124686691Y-135272236D01*
X124897508Y-135293000D01*
X125038492Y-135293000D01*
X125249309Y-135272236D01*
X125519808Y-135190182D01*
X125769101Y-135056932D01*
X125987608Y-134877608D01*
X126166932Y-134659101D01*
X126240579Y-134521318D01*
X126355615Y-134713131D01*
X126544586Y-134921519D01*
X126770580Y-135089037D01*
X127024913Y-135209246D01*
X127158961Y-135249904D01*
X127381000Y-135127915D01*
X127381000Y-133985000D01*
X127361000Y-133985000D01*
X127361000Y-133731000D01*
X127381000Y-133731000D01*
X127381000Y-132588085D01*
X127158961Y-132466096D01*
X127024913Y-132506754D01*
X126770580Y-132626963D01*
X126544586Y-132794481D01*
X126355615Y-133002869D01*
X126240579Y-133194682D01*
X126166932Y-133056899D01*
X125987608Y-132838392D01*
X125769101Y-132659068D01*
X125728000Y-132637099D01*
X125728000Y-130440000D01*
X128509928Y-130440000D01*
X128522188Y-130564482D01*
X128558498Y-130684180D01*
X128617463Y-130794494D01*
X128696815Y-130891185D01*
X128793506Y-130970537D01*
X128903820Y-131029502D01*
X129023518Y-131065812D01*
X129148000Y-131078072D01*
X129762250Y-131075000D01*
X129921000Y-130916250D01*
X129921000Y-129667000D01*
X128671750Y-129667000D01*
X128513000Y-129825750D01*
X128509928Y-130440000D01*
X125728000Y-130440000D01*
X125728000Y-128640000D01*
X128509928Y-128640000D01*
X128513000Y-129254250D01*
X128671750Y-129413000D01*
X129921000Y-129413000D01*
X129921000Y-128163750D01*
X129762250Y-128005000D01*
X129148000Y-128001928D01*
X129023518Y-128014188D01*
X128903820Y-128050498D01*
X128793506Y-128109463D01*
X128696815Y-128188815D01*
X128617463Y-128285506D01*
X128558498Y-128395820D01*
X128522188Y-128515518D01*
X128509928Y-128640000D01*
X125728000Y-128640000D01*
X125728000Y-126552801D01*
X132770094Y-119510708D01*
X132814691Y-119524236D01*
X133025508Y-119545000D01*
X133166492Y-119545000D01*
X133377309Y-119524236D01*
X133647808Y-119442182D01*
X133897101Y-119308932D01*
X134115608Y-119129608D01*
X134294932Y-118911101D01*
X134366000Y-118778142D01*
X134437068Y-118911101D01*
X134437068Y-118911101D01*
G37*
X134437068Y-118911101D02*
X134616392Y-119129608D01*
X134834899Y-119308932D01*
X134876000Y-119330901D01*
X134876001Y-131370195D01*
X133497867Y-132748330D01*
X133389101Y-132659068D01*
X133348000Y-132637099D01*
X133348000Y-130878313D01*
X133566505Y-130732312D01*
X133780312Y-130518505D01*
X133948299Y-130267095D01*
X134064011Y-129987743D01*
X134123000Y-129691184D01*
X134123000Y-129388816D01*
X134064011Y-129092257D01*
X133948299Y-128812905D01*
X133780312Y-128561495D01*
X133566505Y-128347688D01*
X133315095Y-128179701D01*
X133035743Y-128063989D01*
X132739184Y-128005000D01*
X132436816Y-128005000D01*
X132140257Y-128063989D01*
X131860905Y-128179701D01*
X131609495Y-128347688D01*
X131543056Y-128414127D01*
X131537502Y-128395820D01*
X131478537Y-128285506D01*
X131399185Y-128188815D01*
X131302494Y-128109463D01*
X131192180Y-128050498D01*
X131072482Y-128014188D01*
X130948000Y-128001928D01*
X130333750Y-128005000D01*
X130175000Y-128163750D01*
X130175000Y-129413000D01*
X130195000Y-129413000D01*
X130195000Y-129667000D01*
X130175000Y-129667000D01*
X130175000Y-130916250D01*
X130333750Y-131075000D01*
X130948000Y-131078072D01*
X131072482Y-131065812D01*
X131192180Y-131029502D01*
X131302494Y-130970537D01*
X131399185Y-130891185D01*
X131478537Y-130794494D01*
X131537502Y-130684180D01*
X131543056Y-130665873D01*
X131609495Y-130732312D01*
X131828000Y-130878313D01*
X131828001Y-132637099D01*
X131786899Y-132659068D01*
X131568392Y-132838392D01*
X131389068Y-133056899D01*
X131318000Y-133189858D01*
X131246932Y-133056899D01*
X131067608Y-132838392D01*
X130849101Y-132659068D01*
X130599808Y-132525818D01*
X130329309Y-132443764D01*
X130118492Y-132423000D01*
X129977508Y-132423000D01*
X129766691Y-132443764D01*
X129496192Y-132525818D01*
X129246899Y-132659068D01*
X129028392Y-132838392D01*
X128849068Y-133056899D01*
X128775421Y-133194682D01*
X128660385Y-133002869D01*
X128471414Y-132794481D01*
X128245420Y-132626963D01*
X127991087Y-132506754D01*
X127857039Y-132466096D01*
X127635000Y-132588085D01*
X127635000Y-133731000D01*
X127655000Y-133731000D01*
X127655000Y-133985000D01*
X127635000Y-133985000D01*
X127635000Y-135127915D01*
X127857039Y-135249904D01*
X127991087Y-135209246D01*
X128245420Y-135089037D01*
X128471414Y-134921519D01*
X128660385Y-134713131D01*
X128775421Y-134521318D01*
X128849068Y-134659101D01*
X129028392Y-134877608D01*
X129246899Y-135056932D01*
X129496192Y-135190182D01*
X129766691Y-135272236D01*
X129977508Y-135293000D01*
X130118492Y-135293000D01*
X130329309Y-135272236D01*
X130599808Y-135190182D01*
X130849101Y-135056932D01*
X131067608Y-134877608D01*
X131246932Y-134659101D01*
X131318000Y-134526142D01*
X131389068Y-134659101D01*
X131568392Y-134877608D01*
X131786899Y-135056932D01*
X132036192Y-135190182D01*
X132306691Y-135272236D01*
X132517508Y-135293000D01*
X132658492Y-135293000D01*
X132869309Y-135272236D01*
X132953001Y-135246849D01*
X132953002Y-147658197D01*
X132913907Y-147697292D01*
X132869309Y-147683764D01*
X132658492Y-147663000D01*
X132517508Y-147663000D01*
X132306691Y-147683764D01*
X132036192Y-147765818D01*
X131786899Y-147899068D01*
X131568392Y-148078392D01*
X131389068Y-148296899D01*
X131318000Y-148429858D01*
X131246932Y-148296899D01*
X131067608Y-148078392D01*
X130849101Y-147899068D01*
X130599808Y-147765818D01*
X130329309Y-147683764D01*
X130118492Y-147663000D01*
X129977508Y-147663000D01*
X129766691Y-147683764D01*
X129496192Y-147765818D01*
X129246899Y-147899068D01*
X129028392Y-148078392D01*
X128849068Y-148296899D01*
X128778000Y-148429858D01*
X128706932Y-148296899D01*
X128527608Y-148078392D01*
X128309101Y-147899068D01*
X128059808Y-147765818D01*
X127789309Y-147683764D01*
X127578492Y-147663000D01*
X127437508Y-147663000D01*
X127226691Y-147683764D01*
X126956192Y-147765818D01*
X126706899Y-147899068D01*
X126488392Y-148078392D01*
X126309068Y-148296899D01*
X126238000Y-148429858D01*
X126166932Y-148296899D01*
X125987608Y-148078392D01*
X125769101Y-147899068D01*
X125519808Y-147765818D01*
X125249309Y-147683764D01*
X125038492Y-147663000D01*
X124897508Y-147663000D01*
X124686691Y-147683764D01*
X124642094Y-147697292D01*
X122737804Y-145793003D01*
X122714001Y-145763999D01*
X122598276Y-145669026D01*
X122466247Y-145598454D01*
X122322986Y-145554997D01*
X122211333Y-145544000D01*
X122211322Y-145544000D01*
X122174000Y-145540324D01*
X122136678Y-145544000D01*
X105978802Y-145544000D01*
X103397000Y-142962199D01*
X103397000Y-142900061D01*
X103357226Y-142700102D01*
X103279205Y-142511744D01*
X103165937Y-142342226D01*
X103021774Y-142198063D01*
X102852256Y-142084795D01*
X102663898Y-142006774D01*
X102463939Y-141967000D01*
X102260061Y-141967000D01*
X102060102Y-142006774D01*
X101871744Y-142084795D01*
X101702226Y-142198063D01*
X101598000Y-142302289D01*
X101598000Y-135202864D01*
X101826691Y-135272236D01*
X102037508Y-135293000D01*
X102178492Y-135293000D01*
X102389309Y-135272236D01*
X102659808Y-135190182D01*
X102909101Y-135056932D01*
X103127608Y-134877608D01*
X103306932Y-134659101D01*
X103378000Y-134526142D01*
X103449068Y-134659101D01*
X103628392Y-134877608D01*
X103846899Y-135056932D01*
X104096192Y-135190182D01*
X104366691Y-135272236D01*
X104577508Y-135293000D01*
X104718492Y-135293000D01*
X104929309Y-135272236D01*
X105013002Y-135246848D01*
X105013002Y-135961669D01*
X105009325Y-135999001D01*
X105023999Y-136147986D01*
X105067455Y-136291247D01*
X105138027Y-136423277D01*
X105209202Y-136510003D01*
X105233001Y-136539002D01*
X105261999Y-136562800D01*
X107677000Y-138977802D01*
X107677000Y-139039939D01*
X107716774Y-139239898D01*
X107794795Y-139428256D01*
X107908063Y-139597774D01*
X108052226Y-139741937D01*
X108221744Y-139855205D01*
X108410102Y-139933226D01*
X108610061Y-139973000D01*
X108813939Y-139973000D01*
X109013898Y-139933226D01*
X109202256Y-139855205D01*
X109371774Y-139741937D01*
X109476000Y-139637711D01*
X109476001Y-141440668D01*
X109472324Y-141478000D01*
X109486998Y-141626985D01*
X109530454Y-141770246D01*
X109601026Y-141902276D01*
X109672201Y-141989002D01*
X109696000Y-142018001D01*
X109724998Y-142041799D01*
X111487000Y-143803802D01*
X111487000Y-143865939D01*
X111526774Y-144065898D01*
X111604795Y-144254256D01*
X111718063Y-144423774D01*
X111862226Y-144567937D01*
X112031744Y-144681205D01*
X112220102Y-144759226D01*
X112420061Y-144799000D01*
X112623939Y-144799000D01*
X112823898Y-144759226D01*
X113012256Y-144681205D01*
X113181774Y-144567937D01*
X113325937Y-144423774D01*
X113439205Y-144254256D01*
X113517226Y-144065898D01*
X113557000Y-143865939D01*
X113557000Y-143662061D01*
X113517226Y-143462102D01*
X113439205Y-143273744D01*
X113325937Y-143104226D01*
X113181774Y-142960063D01*
X113012256Y-142846795D01*
X112823898Y-142768774D01*
X112623939Y-142729000D01*
X112561802Y-142729000D01*
X110996000Y-141163199D01*
X110996000Y-140604013D01*
X111015744Y-140617205D01*
X111204102Y-140695226D01*
X111404061Y-140735000D01*
X111607939Y-140735000D01*
X111807898Y-140695226D01*
X111996256Y-140617205D01*
X112165774Y-140503937D01*
X112309937Y-140359774D01*
X112423205Y-140190256D01*
X112501226Y-140001898D01*
X112541000Y-139801939D01*
X112541000Y-139739801D01*
X114049003Y-138231799D01*
X114078001Y-138208001D01*
X114119056Y-138157975D01*
X114172974Y-138092277D01*
X114243546Y-137960247D01*
X114266753Y-137883741D01*
X114287003Y-137816986D01*
X114298000Y-137705333D01*
X114298000Y-137705323D01*
X114301676Y-137668000D01*
X114298000Y-137630677D01*
X114298000Y-135202864D01*
X114526691Y-135272236D01*
X114737508Y-135293000D01*
X114878492Y-135293000D01*
X115089309Y-135272236D01*
X115359808Y-135190182D01*
X115609101Y-135056932D01*
X115827608Y-134877608D01*
X116006932Y-134659101D01*
X116078000Y-134526142D01*
X116149068Y-134659101D01*
X116328392Y-134877608D01*
X116546899Y-135056932D01*
X116796192Y-135190182D01*
X117066691Y-135272236D01*
X117277508Y-135293000D01*
X117418492Y-135293000D01*
X117629309Y-135272236D01*
X117899808Y-135190182D01*
X118149101Y-135056932D01*
X118367608Y-134877608D01*
X118546932Y-134659101D01*
X118618000Y-134526142D01*
X118689068Y-134659101D01*
X118868392Y-134877608D01*
X119086899Y-135056932D01*
X119336192Y-135190182D01*
X119606691Y-135272236D01*
X119817508Y-135293000D01*
X119958492Y-135293000D01*
X120169309Y-135272236D01*
X120439808Y-135190182D01*
X120689101Y-135056932D01*
X120907608Y-134877608D01*
X121086932Y-134659101D01*
X121158000Y-134526142D01*
X121229068Y-134659101D01*
X121408392Y-134877608D01*
X121626899Y-135056932D01*
X121876192Y-135190182D01*
X122146691Y-135272236D01*
X122357508Y-135293000D01*
X122498492Y-135293000D01*
X122709309Y-135272236D01*
X122979808Y-135190182D01*
X123229101Y-135056932D01*
X123447608Y-134877608D01*
X123626932Y-134659101D01*
X123698000Y-134526142D01*
X123769068Y-134659101D01*
X123948392Y-134877608D01*
X124166899Y-135056932D01*
X124416192Y-135190182D01*
X124686691Y-135272236D01*
X124897508Y-135293000D01*
X125038492Y-135293000D01*
X125249309Y-135272236D01*
X125519808Y-135190182D01*
X125769101Y-135056932D01*
X125987608Y-134877608D01*
X126166932Y-134659101D01*
X126240579Y-134521318D01*
X126355615Y-134713131D01*
X126544586Y-134921519D01*
X126770580Y-135089037D01*
X127024913Y-135209246D01*
X127158961Y-135249904D01*
X127381000Y-135127915D01*
X127381000Y-133985000D01*
X127361000Y-133985000D01*
X127361000Y-133731000D01*
X127381000Y-133731000D01*
X127381000Y-132588085D01*
X127158961Y-132466096D01*
X127024913Y-132506754D01*
X126770580Y-132626963D01*
X126544586Y-132794481D01*
X126355615Y-133002869D01*
X126240579Y-133194682D01*
X126166932Y-133056899D01*
X125987608Y-132838392D01*
X125769101Y-132659068D01*
X125728000Y-132637099D01*
X125728000Y-130440000D01*
X128509928Y-130440000D01*
X128522188Y-130564482D01*
X128558498Y-130684180D01*
X128617463Y-130794494D01*
X128696815Y-130891185D01*
X128793506Y-130970537D01*
X128903820Y-131029502D01*
X129023518Y-131065812D01*
X129148000Y-131078072D01*
X129762250Y-131075000D01*
X129921000Y-130916250D01*
X129921000Y-129667000D01*
X128671750Y-129667000D01*
X128513000Y-129825750D01*
X128509928Y-130440000D01*
X125728000Y-130440000D01*
X125728000Y-128640000D01*
X128509928Y-128640000D01*
X128513000Y-129254250D01*
X128671750Y-129413000D01*
X129921000Y-129413000D01*
X129921000Y-128163750D01*
X129762250Y-128005000D01*
X129148000Y-128001928D01*
X129023518Y-128014188D01*
X128903820Y-128050498D01*
X128793506Y-128109463D01*
X128696815Y-128188815D01*
X128617463Y-128285506D01*
X128558498Y-128395820D01*
X128522188Y-128515518D01*
X128509928Y-128640000D01*
X125728000Y-128640000D01*
X125728000Y-126552801D01*
X132770094Y-119510708D01*
X132814691Y-119524236D01*
X133025508Y-119545000D01*
X133166492Y-119545000D01*
X133377309Y-119524236D01*
X133647808Y-119442182D01*
X133897101Y-119308932D01*
X134115608Y-119129608D01*
X134294932Y-118911101D01*
X134366000Y-118778142D01*
X134437068Y-118911101D01*
G36*
X147576000Y-111566803D02*
G01*
X147576001Y-117818668D01*
X147572324Y-117856000D01*
X147576001Y-117893333D01*
X147586998Y-118004986D01*
X147590202Y-118015547D01*
X147630454Y-118148246D01*
X147701026Y-118280276D01*
X147758663Y-118350506D01*
X147796000Y-118396001D01*
X147824998Y-118419799D01*
X153134000Y-123728802D01*
X153134000Y-131739199D01*
X152398000Y-131003199D01*
X152398000Y-130250043D01*
X152552759Y-130146637D01*
X152752637Y-129946759D01*
X152909680Y-129711727D01*
X153017853Y-129450574D01*
X153073000Y-129173335D01*
X153073000Y-128890665D01*
X153017853Y-128613426D01*
X152909680Y-128352273D01*
X152752637Y-128117241D01*
X152552759Y-127917363D01*
X152317727Y-127760320D01*
X152056574Y-127652147D01*
X151779335Y-127597000D01*
X151496665Y-127597000D01*
X151219426Y-127652147D01*
X150958273Y-127760320D01*
X150723241Y-127917363D01*
X150523363Y-128117241D01*
X150366320Y-128352273D01*
X150258147Y-128613426D01*
X150203000Y-128890665D01*
X150203000Y-129173335D01*
X150258147Y-129450574D01*
X150366320Y-129711727D01*
X150523363Y-129946759D01*
X150723241Y-130146637D01*
X150878001Y-130250044D01*
X150878001Y-131126290D01*
X150773774Y-131022063D01*
X150604256Y-130908795D01*
X150415898Y-130830774D01*
X150215939Y-130791000D01*
X150012061Y-130791000D01*
X149812102Y-130830774D01*
X149623744Y-130908795D01*
X149454226Y-131022063D01*
X149310063Y-131166226D01*
X149196795Y-131335744D01*
X149118774Y-131524102D01*
X149079000Y-131724061D01*
X149079000Y-131927939D01*
X149118774Y-132127898D01*
X149196795Y-132316256D01*
X149310063Y-132485774D01*
X149454226Y-132629937D01*
X149623744Y-132743205D01*
X149812102Y-132821226D01*
X150012061Y-132861000D01*
X150074199Y-132861000D01*
X151324637Y-134111439D01*
X151231939Y-134093000D01*
X151028061Y-134093000D01*
X150828102Y-134132774D01*
X150639744Y-134210795D01*
X150470226Y-134324063D01*
X150426289Y-134368000D01*
X150151325Y-134368000D01*
X150114000Y-134364324D01*
X150076675Y-134368000D01*
X150076667Y-134368000D01*
X149965014Y-134378997D01*
X149821753Y-134422454D01*
X149689724Y-134493026D01*
X149573999Y-134587999D01*
X149550201Y-134616997D01*
X144922999Y-139244200D01*
X144922999Y-137837802D01*
X147502094Y-135258708D01*
X147546691Y-135272236D01*
X147757508Y-135293000D01*
X147898492Y-135293000D01*
X148109309Y-135272236D01*
X148379808Y-135190182D01*
X148629101Y-135056932D01*
X148847608Y-134877608D01*
X149026932Y-134659101D01*
X149160182Y-134409808D01*
X149242236Y-134139309D01*
X149269943Y-133858000D01*
X149242236Y-133576691D01*
X149160182Y-133306192D01*
X149026932Y-133056899D01*
X148847608Y-132838392D01*
X148629101Y-132659068D01*
X148379808Y-132525818D01*
X148109309Y-132443764D01*
X147898492Y-132423000D01*
X147757508Y-132423000D01*
X147546691Y-132443764D01*
X147502094Y-132457292D01*
X147318000Y-132273199D01*
X147318000Y-115353322D01*
X147321676Y-115315999D01*
X147318000Y-115278676D01*
X147318000Y-115278667D01*
X147307003Y-115167014D01*
X147263546Y-115023753D01*
X147192974Y-114891724D01*
X147098001Y-114775999D01*
X147069004Y-114752202D01*
X146323000Y-114006199D01*
X146323000Y-113944061D01*
X146283226Y-113744102D01*
X146205205Y-113555744D01*
X146091937Y-113386226D01*
X145947774Y-113242063D01*
X145778256Y-113128795D01*
X145589898Y-113050774D01*
X145389939Y-113011000D01*
X145186061Y-113011000D01*
X144986102Y-113050774D01*
X144797744Y-113128795D01*
X144628226Y-113242063D01*
X144484063Y-113386226D01*
X144370795Y-113555744D01*
X144292774Y-113744102D01*
X144253000Y-113944061D01*
X144253000Y-114147939D01*
X144292774Y-114347898D01*
X144370795Y-114536256D01*
X144484063Y-114705774D01*
X144628226Y-114849937D01*
X144797744Y-114963205D01*
X144986102Y-115041226D01*
X145186061Y-115081000D01*
X145248199Y-115081000D01*
X145798000Y-115630802D01*
X145798001Y-132513136D01*
X145569309Y-132443764D01*
X145358492Y-132423000D01*
X145217508Y-132423000D01*
X145006691Y-132443764D01*
X144736192Y-132525818D01*
X144486899Y-132659068D01*
X144268392Y-132838392D01*
X144089068Y-133056899D01*
X144018000Y-133189858D01*
X143946932Y-133056899D01*
X143767608Y-132838392D01*
X143549101Y-132659068D01*
X143299808Y-132525818D01*
X143029309Y-132443764D01*
X142818492Y-132423000D01*
X142677508Y-132423000D01*
X142466691Y-132443764D01*
X142196192Y-132525818D01*
X141946899Y-132659068D01*
X141728392Y-132838392D01*
X141549068Y-133056899D01*
X141478000Y-133189858D01*
X141406932Y-133056899D01*
X141227608Y-132838392D01*
X141009101Y-132659068D01*
X140759808Y-132525818D01*
X140489309Y-132443764D01*
X140278492Y-132423000D01*
X140137508Y-132423000D01*
X139926691Y-132443764D01*
X139656192Y-132525818D01*
X139553001Y-132580975D01*
X139553001Y-130761800D01*
X141227003Y-129087799D01*
X141256001Y-129064001D01*
X141282263Y-129032000D01*
X142576057Y-129032000D01*
X142603764Y-129313309D01*
X142685818Y-129583808D01*
X142819068Y-129833101D01*
X142998392Y-130051608D01*
X143216899Y-130230932D01*
X143466192Y-130364182D01*
X143736691Y-130446236D01*
X143947508Y-130467000D01*
X144088492Y-130467000D01*
X144299309Y-130446236D01*
X144569808Y-130364182D01*
X144819101Y-130230932D01*
X145037608Y-130051608D01*
X145216932Y-129833101D01*
X145350182Y-129583808D01*
X145432236Y-129313309D01*
X145459943Y-129032000D01*
X145432236Y-128750691D01*
X145350182Y-128480192D01*
X145216932Y-128230899D01*
X145037608Y-128012392D01*
X144819101Y-127833068D01*
X144569808Y-127699818D01*
X144299309Y-127617764D01*
X144088492Y-127597000D01*
X143947508Y-127597000D01*
X143736691Y-127617764D01*
X143466192Y-127699818D01*
X143216899Y-127833068D01*
X142998392Y-128012392D01*
X142819068Y-128230899D01*
X142685818Y-128480192D01*
X142603764Y-128750691D01*
X142576057Y-129032000D01*
X141282263Y-129032000D01*
X141350974Y-128948276D01*
X141421546Y-128816247D01*
X141465003Y-128672986D01*
X141476000Y-128561333D01*
X141476000Y-128561324D01*
X141479676Y-128524001D01*
X141476000Y-128486678D01*
X141476000Y-119330901D01*
X141517101Y-119308932D01*
X141735608Y-119129608D01*
X141914932Y-118911101D01*
X141988579Y-118773318D01*
X142103615Y-118965131D01*
X142292586Y-119173519D01*
X142518580Y-119341037D01*
X142772913Y-119461246D01*
X142906961Y-119501904D01*
X143129000Y-119379915D01*
X143129000Y-118237000D01*
X143383000Y-118237000D01*
X143383000Y-119379915D01*
X143605039Y-119501904D01*
X143739087Y-119461246D01*
X143993420Y-119341037D01*
X144219414Y-119173519D01*
X144408385Y-118965131D01*
X144553070Y-118723881D01*
X144647909Y-118459040D01*
X144526624Y-118237000D01*
X143383000Y-118237000D01*
X143129000Y-118237000D01*
X143109000Y-118237000D01*
X143109000Y-117983000D01*
X143129000Y-117983000D01*
X143129000Y-116840085D01*
X143383000Y-116840085D01*
X143383000Y-117983000D01*
X144526624Y-117983000D01*
X144647909Y-117760960D01*
X144553070Y-117496119D01*
X144408385Y-117254869D01*
X144219414Y-117046481D01*
X143993420Y-116878963D01*
X143739087Y-116758754D01*
X143605039Y-116718096D01*
X143383000Y-116840085D01*
X143129000Y-116840085D01*
X142906961Y-116718096D01*
X142772913Y-116758754D01*
X142518580Y-116878963D01*
X142292586Y-117046481D01*
X142103615Y-117254869D01*
X141988579Y-117446682D01*
X141914932Y-117308899D01*
X141735608Y-117090392D01*
X141517101Y-116911068D01*
X141267808Y-116777818D01*
X140997309Y-116695764D01*
X140786492Y-116675000D01*
X140645508Y-116675000D01*
X140434691Y-116695764D01*
X140390094Y-116709292D01*
X140061001Y-116380200D01*
X140061001Y-110754037D01*
X140106061Y-110763000D01*
X140309939Y-110763000D01*
X140509898Y-110723226D01*
X140698256Y-110645205D01*
X140867774Y-110531937D01*
X140911711Y-110488000D01*
X146497199Y-110488000D01*
X147576000Y-111566803D01*
X147576000Y-111566803D01*
G37*
X147576000Y-111566803D02*
X147576001Y-117818668D01*
X147572324Y-117856000D01*
X147576001Y-117893333D01*
X147586998Y-118004986D01*
X147590202Y-118015547D01*
X147630454Y-118148246D01*
X147701026Y-118280276D01*
X147758663Y-118350506D01*
X147796000Y-118396001D01*
X147824998Y-118419799D01*
X153134000Y-123728802D01*
X153134000Y-131739199D01*
X152398000Y-131003199D01*
X152398000Y-130250043D01*
X152552759Y-130146637D01*
X152752637Y-129946759D01*
X152909680Y-129711727D01*
X153017853Y-129450574D01*
X153073000Y-129173335D01*
X153073000Y-128890665D01*
X153017853Y-128613426D01*
X152909680Y-128352273D01*
X152752637Y-128117241D01*
X152552759Y-127917363D01*
X152317727Y-127760320D01*
X152056574Y-127652147D01*
X151779335Y-127597000D01*
X151496665Y-127597000D01*
X151219426Y-127652147D01*
X150958273Y-127760320D01*
X150723241Y-127917363D01*
X150523363Y-128117241D01*
X150366320Y-128352273D01*
X150258147Y-128613426D01*
X150203000Y-128890665D01*
X150203000Y-129173335D01*
X150258147Y-129450574D01*
X150366320Y-129711727D01*
X150523363Y-129946759D01*
X150723241Y-130146637D01*
X150878001Y-130250044D01*
X150878001Y-131126290D01*
X150773774Y-131022063D01*
X150604256Y-130908795D01*
X150415898Y-130830774D01*
X150215939Y-130791000D01*
X150012061Y-130791000D01*
X149812102Y-130830774D01*
X149623744Y-130908795D01*
X149454226Y-131022063D01*
X149310063Y-131166226D01*
X149196795Y-131335744D01*
X149118774Y-131524102D01*
X149079000Y-131724061D01*
X149079000Y-131927939D01*
X149118774Y-132127898D01*
X149196795Y-132316256D01*
X149310063Y-132485774D01*
X149454226Y-132629937D01*
X149623744Y-132743205D01*
X149812102Y-132821226D01*
X150012061Y-132861000D01*
X150074199Y-132861000D01*
X151324637Y-134111439D01*
X151231939Y-134093000D01*
X151028061Y-134093000D01*
X150828102Y-134132774D01*
X150639744Y-134210795D01*
X150470226Y-134324063D01*
X150426289Y-134368000D01*
X150151325Y-134368000D01*
X150114000Y-134364324D01*
X150076675Y-134368000D01*
X150076667Y-134368000D01*
X149965014Y-134378997D01*
X149821753Y-134422454D01*
X149689724Y-134493026D01*
X149573999Y-134587999D01*
X149550201Y-134616997D01*
X144922999Y-139244200D01*
X144922999Y-137837802D01*
X147502094Y-135258708D01*
X147546691Y-135272236D01*
X147757508Y-135293000D01*
X147898492Y-135293000D01*
X148109309Y-135272236D01*
X148379808Y-135190182D01*
X148629101Y-135056932D01*
X148847608Y-134877608D01*
X149026932Y-134659101D01*
X149160182Y-134409808D01*
X149242236Y-134139309D01*
X149269943Y-133858000D01*
X149242236Y-133576691D01*
X149160182Y-133306192D01*
X149026932Y-133056899D01*
X148847608Y-132838392D01*
X148629101Y-132659068D01*
X148379808Y-132525818D01*
X148109309Y-132443764D01*
X147898492Y-132423000D01*
X147757508Y-132423000D01*
X147546691Y-132443764D01*
X147502094Y-132457292D01*
X147318000Y-132273199D01*
X147318000Y-115353322D01*
X147321676Y-115315999D01*
X147318000Y-115278676D01*
X147318000Y-115278667D01*
X147307003Y-115167014D01*
X147263546Y-115023753D01*
X147192974Y-114891724D01*
X147098001Y-114775999D01*
X147069004Y-114752202D01*
X146323000Y-114006199D01*
X146323000Y-113944061D01*
X146283226Y-113744102D01*
X146205205Y-113555744D01*
X146091937Y-113386226D01*
X145947774Y-113242063D01*
X145778256Y-113128795D01*
X145589898Y-113050774D01*
X145389939Y-113011000D01*
X145186061Y-113011000D01*
X144986102Y-113050774D01*
X144797744Y-113128795D01*
X144628226Y-113242063D01*
X144484063Y-113386226D01*
X144370795Y-113555744D01*
X144292774Y-113744102D01*
X144253000Y-113944061D01*
X144253000Y-114147939D01*
X144292774Y-114347898D01*
X144370795Y-114536256D01*
X144484063Y-114705774D01*
X144628226Y-114849937D01*
X144797744Y-114963205D01*
X144986102Y-115041226D01*
X145186061Y-115081000D01*
X145248199Y-115081000D01*
X145798000Y-115630802D01*
X145798001Y-132513136D01*
X145569309Y-132443764D01*
X145358492Y-132423000D01*
X145217508Y-132423000D01*
X145006691Y-132443764D01*
X144736192Y-132525818D01*
X144486899Y-132659068D01*
X144268392Y-132838392D01*
X144089068Y-133056899D01*
X144018000Y-133189858D01*
X143946932Y-133056899D01*
X143767608Y-132838392D01*
X143549101Y-132659068D01*
X143299808Y-132525818D01*
X143029309Y-132443764D01*
X142818492Y-132423000D01*
X142677508Y-132423000D01*
X142466691Y-132443764D01*
X142196192Y-132525818D01*
X141946899Y-132659068D01*
X141728392Y-132838392D01*
X141549068Y-133056899D01*
X141478000Y-133189858D01*
X141406932Y-133056899D01*
X141227608Y-132838392D01*
X141009101Y-132659068D01*
X140759808Y-132525818D01*
X140489309Y-132443764D01*
X140278492Y-132423000D01*
X140137508Y-132423000D01*
X139926691Y-132443764D01*
X139656192Y-132525818D01*
X139553001Y-132580975D01*
X139553001Y-130761800D01*
X141227003Y-129087799D01*
X141256001Y-129064001D01*
X141282263Y-129032000D01*
X142576057Y-129032000D01*
X142603764Y-129313309D01*
X142685818Y-129583808D01*
X142819068Y-129833101D01*
X142998392Y-130051608D01*
X143216899Y-130230932D01*
X143466192Y-130364182D01*
X143736691Y-130446236D01*
X143947508Y-130467000D01*
X144088492Y-130467000D01*
X144299309Y-130446236D01*
X144569808Y-130364182D01*
X144819101Y-130230932D01*
X145037608Y-130051608D01*
X145216932Y-129833101D01*
X145350182Y-129583808D01*
X145432236Y-129313309D01*
X145459943Y-129032000D01*
X145432236Y-128750691D01*
X145350182Y-128480192D01*
X145216932Y-128230899D01*
X145037608Y-128012392D01*
X144819101Y-127833068D01*
X144569808Y-127699818D01*
X144299309Y-127617764D01*
X144088492Y-127597000D01*
X143947508Y-127597000D01*
X143736691Y-127617764D01*
X143466192Y-127699818D01*
X143216899Y-127833068D01*
X142998392Y-128012392D01*
X142819068Y-128230899D01*
X142685818Y-128480192D01*
X142603764Y-128750691D01*
X142576057Y-129032000D01*
X141282263Y-129032000D01*
X141350974Y-128948276D01*
X141421546Y-128816247D01*
X141465003Y-128672986D01*
X141476000Y-128561333D01*
X141476000Y-128561324D01*
X141479676Y-128524001D01*
X141476000Y-128486678D01*
X141476000Y-119330901D01*
X141517101Y-119308932D01*
X141735608Y-119129608D01*
X141914932Y-118911101D01*
X141988579Y-118773318D01*
X142103615Y-118965131D01*
X142292586Y-119173519D01*
X142518580Y-119341037D01*
X142772913Y-119461246D01*
X142906961Y-119501904D01*
X143129000Y-119379915D01*
X143129000Y-118237000D01*
X143383000Y-118237000D01*
X143383000Y-119379915D01*
X143605039Y-119501904D01*
X143739087Y-119461246D01*
X143993420Y-119341037D01*
X144219414Y-119173519D01*
X144408385Y-118965131D01*
X144553070Y-118723881D01*
X144647909Y-118459040D01*
X144526624Y-118237000D01*
X143383000Y-118237000D01*
X143129000Y-118237000D01*
X143109000Y-118237000D01*
X143109000Y-117983000D01*
X143129000Y-117983000D01*
X143129000Y-116840085D01*
X143383000Y-116840085D01*
X143383000Y-117983000D01*
X144526624Y-117983000D01*
X144647909Y-117760960D01*
X144553070Y-117496119D01*
X144408385Y-117254869D01*
X144219414Y-117046481D01*
X143993420Y-116878963D01*
X143739087Y-116758754D01*
X143605039Y-116718096D01*
X143383000Y-116840085D01*
X143129000Y-116840085D01*
X142906961Y-116718096D01*
X142772913Y-116758754D01*
X142518580Y-116878963D01*
X142292586Y-117046481D01*
X142103615Y-117254869D01*
X141988579Y-117446682D01*
X141914932Y-117308899D01*
X141735608Y-117090392D01*
X141517101Y-116911068D01*
X141267808Y-116777818D01*
X140997309Y-116695764D01*
X140786492Y-116675000D01*
X140645508Y-116675000D01*
X140434691Y-116695764D01*
X140390094Y-116709292D01*
X140061001Y-116380200D01*
X140061001Y-110754037D01*
X140106061Y-110763000D01*
X140309939Y-110763000D01*
X140509898Y-110723226D01*
X140698256Y-110645205D01*
X140867774Y-110531937D01*
X140911711Y-110488000D01*
X146497199Y-110488000D01*
X147576000Y-111566803D01*
M02*
