G04 #@! TF.GenerationSoftware,KiCad,Pcbnew,5.1.4*
G04 #@! TF.CreationDate,2019-08-26T14:36:03+01:00*
G04 #@! TF.ProjectId,z802,7a383032-2e6b-4696-9361-645f70636258,rev?*
G04 #@! TF.SameCoordinates,Original*
G04 #@! TF.FileFunction,Legend,Top*
G04 #@! TF.FilePolarity,Positive*
%FSLAX46Y46*%
G04 Gerber Fmt 4.6, Leading zero omitted, Abs format (unit mm)*
G04 Created by KiCad (PCBNEW 5.1.4) date 2019-08-26 14:36:03*
%MOMM*%
%LPD*%
G04 APERTURE LIST*
%ADD10C,0.120000*%
%ADD11C,0.150000*%
G04 APERTURE END LIST*
D10*
X128000000Y-53280000D02*
G75*
G02X126000000Y-53280000I-1000000J0D01*
G01*
X126000000Y-53280000D02*
X120540000Y-53280000D01*
X120540000Y-53280000D02*
X120540000Y-88960000D01*
X120540000Y-88960000D02*
X133460000Y-88960000D01*
X133460000Y-88960000D02*
X133460000Y-53280000D01*
X133460000Y-53280000D02*
X128000000Y-53280000D01*
X133460000Y-93920000D02*
X128000000Y-93920000D01*
X133460000Y-129600000D02*
X133460000Y-93920000D01*
X120540000Y-129600000D02*
X133460000Y-129600000D01*
X120540000Y-93920000D02*
X120540000Y-129600000D01*
X126000000Y-93920000D02*
X120540000Y-93920000D01*
X128000000Y-93920000D02*
G75*
G02X126000000Y-93920000I-1000000J0D01*
G01*
X142980665Y-106488608D02*
G75*
G03X146213000Y-106645516I1672335J1078608D01*
G01*
X142980665Y-104331392D02*
G75*
G02X146213000Y-104174484I1672335J-1078608D01*
G01*
X143611870Y-106489837D02*
G75*
G03X145693961Y-106490000I1041130J1079837D01*
G01*
X143611870Y-104330163D02*
G75*
G02X145693961Y-104330000I1041130J-1079837D01*
G01*
X146213000Y-106646000D02*
X146213000Y-106490000D01*
X146213000Y-104330000D02*
X146213000Y-104174000D01*
X146398000Y-53280000D02*
X145595530Y-53280000D01*
X144980470Y-53280000D02*
X144178000Y-53280000D01*
X146398000Y-72265000D02*
X146398000Y-53280000D01*
X144178000Y-72265000D02*
X144178000Y-53280000D01*
X146398000Y-72265000D02*
X145851471Y-72265000D01*
X144724529Y-72265000D02*
X144178000Y-72265000D01*
X146398000Y-73025000D02*
X146398000Y-73785000D01*
X146398000Y-73785000D02*
X145288000Y-73785000D01*
X146398000Y-78045000D02*
X145595530Y-78045000D01*
X144980470Y-78045000D02*
X144178000Y-78045000D01*
X146398000Y-86870000D02*
X146398000Y-78045000D01*
X144178000Y-86870000D02*
X144178000Y-78045000D01*
X146398000Y-86870000D02*
X145851471Y-86870000D01*
X144724529Y-86870000D02*
X144178000Y-86870000D01*
X146398000Y-87630000D02*
X146398000Y-88390000D01*
X146398000Y-88390000D02*
X145288000Y-88390000D01*
X144178000Y-97215000D02*
X144980470Y-97215000D01*
X145595530Y-97215000D02*
X146398000Y-97215000D01*
X144178000Y-94740000D02*
X144178000Y-97215000D01*
X146398000Y-94740000D02*
X146398000Y-97215000D01*
X144178000Y-94740000D02*
X144724529Y-94740000D01*
X145851471Y-94740000D02*
X146398000Y-94740000D01*
X144178000Y-93980000D02*
X144178000Y-93220000D01*
X144178000Y-93220000D02*
X145288000Y-93220000D01*
X109950000Y-120420000D02*
X109950000Y-120750000D01*
X109950000Y-120750000D02*
X103410000Y-120750000D01*
X103410000Y-120750000D02*
X103410000Y-120420000D01*
X109950000Y-118340000D02*
X109950000Y-118010000D01*
X109950000Y-118010000D02*
X103410000Y-118010000D01*
X103410000Y-118010000D02*
X103410000Y-118340000D01*
X75338000Y-116300000D02*
X75668000Y-116300000D01*
X75338000Y-109760000D02*
X75338000Y-116300000D01*
X75668000Y-109760000D02*
X75338000Y-109760000D01*
X78078000Y-116300000D02*
X77748000Y-116300000D01*
X78078000Y-109760000D02*
X78078000Y-116300000D01*
X77748000Y-109760000D02*
X78078000Y-109760000D01*
X77748000Y-120936000D02*
X78078000Y-120936000D01*
X78078000Y-120936000D02*
X78078000Y-127476000D01*
X78078000Y-127476000D02*
X77748000Y-127476000D01*
X75668000Y-120936000D02*
X75338000Y-120936000D01*
X75338000Y-120936000D02*
X75338000Y-127476000D01*
X75338000Y-127476000D02*
X75668000Y-127476000D01*
X103410000Y-123090000D02*
X103410000Y-123420000D01*
X109950000Y-123090000D02*
X103410000Y-123090000D01*
X109950000Y-123420000D02*
X109950000Y-123090000D01*
X103410000Y-125830000D02*
X103410000Y-125500000D01*
X109950000Y-125830000D02*
X103410000Y-125830000D01*
X109950000Y-125500000D02*
X109950000Y-125830000D01*
X109950000Y-115340000D02*
X109950000Y-115670000D01*
X109950000Y-115670000D02*
X103410000Y-115670000D01*
X103410000Y-115670000D02*
X103410000Y-115340000D01*
X109950000Y-113260000D02*
X109950000Y-112930000D01*
X109950000Y-112930000D02*
X103410000Y-112930000D01*
X103410000Y-112930000D02*
X103410000Y-113260000D01*
X146724000Y-121428000D02*
X146724000Y-116928000D01*
X142724000Y-122678000D02*
X144224000Y-122678000D01*
X140224000Y-116928000D02*
X140224000Y-121428000D01*
X144224000Y-115678000D02*
X142724000Y-115678000D01*
X91170000Y-78680000D02*
G75*
G02X89170000Y-78680000I-1000000J0D01*
G01*
X89170000Y-78680000D02*
X83710000Y-78680000D01*
X83710000Y-78680000D02*
X83710000Y-129600000D01*
X83710000Y-129600000D02*
X96630000Y-129600000D01*
X96630000Y-129600000D02*
X96630000Y-78680000D01*
X96630000Y-78680000D02*
X91170000Y-78680000D01*
X92694000Y-53534000D02*
G75*
G02X90694000Y-53534000I-1000000J0D01*
G01*
X90694000Y-53534000D02*
X89044000Y-53534000D01*
X89044000Y-53534000D02*
X89044000Y-71434000D01*
X89044000Y-71434000D02*
X94344000Y-71434000D01*
X94344000Y-71434000D02*
X94344000Y-53534000D01*
X94344000Y-53534000D02*
X92694000Y-53534000D01*
X108568000Y-53534000D02*
X106918000Y-53534000D01*
X108568000Y-71434000D02*
X108568000Y-53534000D01*
X103268000Y-71434000D02*
X108568000Y-71434000D01*
X103268000Y-53534000D02*
X103268000Y-71434000D01*
X104918000Y-53534000D02*
X103268000Y-53534000D01*
X106918000Y-53534000D02*
G75*
G02X104918000Y-53534000I-1000000J0D01*
G01*
X71528000Y-54498000D02*
X71528000Y-66648000D01*
X83678000Y-53748000D02*
X72278000Y-53748000D01*
X84428000Y-65898000D02*
X84428000Y-54498000D01*
X71528000Y-66648000D02*
X83678000Y-66648000D01*
X83678000Y-66648000D02*
G75*
G03X84428000Y-65898000I0J750000D01*
G01*
X84428000Y-54498000D02*
G75*
G03X83678000Y-53748000I-750000J0D01*
G01*
X72278000Y-53748000D02*
G75*
G03X71528000Y-54498000I0J-750000D01*
G01*
X72042000Y-77149000D02*
X72844470Y-77149000D01*
X73459530Y-77149000D02*
X74262000Y-77149000D01*
X72042000Y-75944000D02*
X72042000Y-77149000D01*
X74262000Y-75944000D02*
X74262000Y-77149000D01*
X72042000Y-75944000D02*
X72588529Y-75944000D01*
X73715471Y-75944000D02*
X74262000Y-75944000D01*
X72042000Y-75184000D02*
X72042000Y-74424000D01*
X72042000Y-74424000D02*
X73152000Y-74424000D01*
D11*
X126238095Y-51732380D02*
X126238095Y-52541904D01*
X126285714Y-52637142D01*
X126333333Y-52684761D01*
X126428571Y-52732380D01*
X126619047Y-52732380D01*
X126714285Y-52684761D01*
X126761904Y-52637142D01*
X126809523Y-52541904D01*
X126809523Y-51732380D01*
X127809523Y-52732380D02*
X127238095Y-52732380D01*
X127523809Y-52732380D02*
X127523809Y-51732380D01*
X127428571Y-51875238D01*
X127333333Y-51970476D01*
X127238095Y-52018095D01*
X126238095Y-92372380D02*
X126238095Y-93181904D01*
X126285714Y-93277142D01*
X126333333Y-93324761D01*
X126428571Y-93372380D01*
X126619047Y-93372380D01*
X126714285Y-93324761D01*
X126761904Y-93277142D01*
X126809523Y-93181904D01*
X126809523Y-92372380D01*
X127761904Y-92372380D02*
X127285714Y-92372380D01*
X127238095Y-92848571D01*
X127285714Y-92800952D01*
X127380952Y-92753333D01*
X127619047Y-92753333D01*
X127714285Y-92800952D01*
X127761904Y-92848571D01*
X127809523Y-92943809D01*
X127809523Y-93181904D01*
X127761904Y-93277142D01*
X127714285Y-93324761D01*
X127619047Y-93372380D01*
X127380952Y-93372380D01*
X127285714Y-93324761D01*
X127238095Y-93277142D01*
X143914904Y-108822380D02*
X143914904Y-107822380D01*
X144153000Y-107822380D01*
X144295857Y-107870000D01*
X144391095Y-107965238D01*
X144438714Y-108060476D01*
X144486333Y-108250952D01*
X144486333Y-108393809D01*
X144438714Y-108584285D01*
X144391095Y-108679523D01*
X144295857Y-108774761D01*
X144153000Y-108822380D01*
X143914904Y-108822380D01*
X145438714Y-108822380D02*
X144867285Y-108822380D01*
X145153000Y-108822380D02*
X145153000Y-107822380D01*
X145057761Y-107965238D01*
X144962523Y-108060476D01*
X144867285Y-108108095D01*
X144954666Y-74172380D02*
X144954666Y-74886666D01*
X144907047Y-75029523D01*
X144811809Y-75124761D01*
X144668952Y-75172380D01*
X144573714Y-75172380D01*
X145335619Y-74172380D02*
X145954666Y-74172380D01*
X145621333Y-74553333D01*
X145764190Y-74553333D01*
X145859428Y-74600952D01*
X145907047Y-74648571D01*
X145954666Y-74743809D01*
X145954666Y-74981904D01*
X145907047Y-75077142D01*
X145859428Y-75124761D01*
X145764190Y-75172380D01*
X145478476Y-75172380D01*
X145383238Y-75124761D01*
X145335619Y-75077142D01*
X144954666Y-88777380D02*
X144954666Y-89491666D01*
X144907047Y-89634523D01*
X144811809Y-89729761D01*
X144668952Y-89777380D01*
X144573714Y-89777380D01*
X145383238Y-88872619D02*
X145430857Y-88825000D01*
X145526095Y-88777380D01*
X145764190Y-88777380D01*
X145859428Y-88825000D01*
X145907047Y-88872619D01*
X145954666Y-88967857D01*
X145954666Y-89063095D01*
X145907047Y-89205952D01*
X145335619Y-89777380D01*
X145954666Y-89777380D01*
X144954666Y-91737380D02*
X144954666Y-92451666D01*
X144907047Y-92594523D01*
X144811809Y-92689761D01*
X144668952Y-92737380D01*
X144573714Y-92737380D01*
X145954666Y-92737380D02*
X145383238Y-92737380D01*
X145668952Y-92737380D02*
X145668952Y-91737380D01*
X145573714Y-91880238D01*
X145478476Y-91975476D01*
X145383238Y-92023095D01*
X106513333Y-122202380D02*
X106180000Y-121726190D01*
X105941904Y-122202380D02*
X105941904Y-121202380D01*
X106322857Y-121202380D01*
X106418095Y-121250000D01*
X106465714Y-121297619D01*
X106513333Y-121392857D01*
X106513333Y-121535714D01*
X106465714Y-121630952D01*
X106418095Y-121678571D01*
X106322857Y-121726190D01*
X105941904Y-121726190D01*
X107465714Y-122202380D02*
X106894285Y-122202380D01*
X107180000Y-122202380D02*
X107180000Y-121202380D01*
X107084761Y-121345238D01*
X106989523Y-121440476D01*
X106894285Y-121488095D01*
X79530380Y-113196666D02*
X79054190Y-113530000D01*
X79530380Y-113768095D02*
X78530380Y-113768095D01*
X78530380Y-113387142D01*
X78578000Y-113291904D01*
X78625619Y-113244285D01*
X78720857Y-113196666D01*
X78863714Y-113196666D01*
X78958952Y-113244285D01*
X79006571Y-113291904D01*
X79054190Y-113387142D01*
X79054190Y-113768095D01*
X78625619Y-112815714D02*
X78578000Y-112768095D01*
X78530380Y-112672857D01*
X78530380Y-112434761D01*
X78578000Y-112339523D01*
X78625619Y-112291904D01*
X78720857Y-112244285D01*
X78816095Y-112244285D01*
X78958952Y-112291904D01*
X79530380Y-112863333D01*
X79530380Y-112244285D01*
X79530380Y-124372666D02*
X79054190Y-124706000D01*
X79530380Y-124944095D02*
X78530380Y-124944095D01*
X78530380Y-124563142D01*
X78578000Y-124467904D01*
X78625619Y-124420285D01*
X78720857Y-124372666D01*
X78863714Y-124372666D01*
X78958952Y-124420285D01*
X79006571Y-124467904D01*
X79054190Y-124563142D01*
X79054190Y-124944095D01*
X78530380Y-124039333D02*
X78530380Y-123420285D01*
X78911333Y-123753619D01*
X78911333Y-123610761D01*
X78958952Y-123515523D01*
X79006571Y-123467904D01*
X79101809Y-123420285D01*
X79339904Y-123420285D01*
X79435142Y-123467904D01*
X79482761Y-123515523D01*
X79530380Y-123610761D01*
X79530380Y-123896476D01*
X79482761Y-123991714D01*
X79435142Y-124039333D01*
X106513333Y-127282380D02*
X106180000Y-126806190D01*
X105941904Y-127282380D02*
X105941904Y-126282380D01*
X106322857Y-126282380D01*
X106418095Y-126330000D01*
X106465714Y-126377619D01*
X106513333Y-126472857D01*
X106513333Y-126615714D01*
X106465714Y-126710952D01*
X106418095Y-126758571D01*
X106322857Y-126806190D01*
X105941904Y-126806190D01*
X107370476Y-126615714D02*
X107370476Y-127282380D01*
X107132380Y-126234761D02*
X106894285Y-126949047D01*
X107513333Y-126949047D01*
X106513333Y-117122380D02*
X106180000Y-116646190D01*
X105941904Y-117122380D02*
X105941904Y-116122380D01*
X106322857Y-116122380D01*
X106418095Y-116170000D01*
X106465714Y-116217619D01*
X106513333Y-116312857D01*
X106513333Y-116455714D01*
X106465714Y-116550952D01*
X106418095Y-116598571D01*
X106322857Y-116646190D01*
X105941904Y-116646190D01*
X107418095Y-116122380D02*
X106941904Y-116122380D01*
X106894285Y-116598571D01*
X106941904Y-116550952D01*
X107037142Y-116503333D01*
X107275238Y-116503333D01*
X107370476Y-116550952D01*
X107418095Y-116598571D01*
X107465714Y-116693809D01*
X107465714Y-116931904D01*
X107418095Y-117027142D01*
X107370476Y-117074761D01*
X107275238Y-117122380D01*
X107037142Y-117122380D01*
X106941904Y-117074761D01*
X106894285Y-117027142D01*
X139628761Y-120511333D02*
X139676380Y-120368476D01*
X139676380Y-120130380D01*
X139628761Y-120035142D01*
X139581142Y-119987523D01*
X139485904Y-119939904D01*
X139390666Y-119939904D01*
X139295428Y-119987523D01*
X139247809Y-120035142D01*
X139200190Y-120130380D01*
X139152571Y-120320857D01*
X139104952Y-120416095D01*
X139057333Y-120463714D01*
X138962095Y-120511333D01*
X138866857Y-120511333D01*
X138771619Y-120463714D01*
X138724000Y-120416095D01*
X138676380Y-120320857D01*
X138676380Y-120082761D01*
X138724000Y-119939904D01*
X138676380Y-119606571D02*
X139676380Y-119368476D01*
X138962095Y-119178000D01*
X139676380Y-118987523D01*
X138676380Y-118749428D01*
X139676380Y-117844666D02*
X139676380Y-118416095D01*
X139676380Y-118130380D02*
X138676380Y-118130380D01*
X138819238Y-118225619D01*
X138914476Y-118320857D01*
X138962095Y-118416095D01*
X89408095Y-77132380D02*
X89408095Y-77941904D01*
X89455714Y-78037142D01*
X89503333Y-78084761D01*
X89598571Y-78132380D01*
X89789047Y-78132380D01*
X89884285Y-78084761D01*
X89931904Y-78037142D01*
X89979523Y-77941904D01*
X89979523Y-77132380D01*
X90408095Y-77227619D02*
X90455714Y-77180000D01*
X90550952Y-77132380D01*
X90789047Y-77132380D01*
X90884285Y-77180000D01*
X90931904Y-77227619D01*
X90979523Y-77322857D01*
X90979523Y-77418095D01*
X90931904Y-77560952D01*
X90360476Y-78132380D01*
X90979523Y-78132380D01*
X90932095Y-51986380D02*
X90932095Y-52795904D01*
X90979714Y-52891142D01*
X91027333Y-52938761D01*
X91122571Y-52986380D01*
X91313047Y-52986380D01*
X91408285Y-52938761D01*
X91455904Y-52891142D01*
X91503523Y-52795904D01*
X91503523Y-51986380D01*
X91884476Y-51986380D02*
X92503523Y-51986380D01*
X92170190Y-52367333D01*
X92313047Y-52367333D01*
X92408285Y-52414952D01*
X92455904Y-52462571D01*
X92503523Y-52557809D01*
X92503523Y-52795904D01*
X92455904Y-52891142D01*
X92408285Y-52938761D01*
X92313047Y-52986380D01*
X92027333Y-52986380D01*
X91932095Y-52938761D01*
X91884476Y-52891142D01*
X105156095Y-51986380D02*
X105156095Y-52795904D01*
X105203714Y-52891142D01*
X105251333Y-52938761D01*
X105346571Y-52986380D01*
X105537047Y-52986380D01*
X105632285Y-52938761D01*
X105679904Y-52891142D01*
X105727523Y-52795904D01*
X105727523Y-51986380D01*
X106632285Y-52319714D02*
X106632285Y-52986380D01*
X106394190Y-51938761D02*
X106156095Y-52653047D01*
X106775142Y-52653047D01*
X77216095Y-52200380D02*
X77216095Y-53009904D01*
X77263714Y-53105142D01*
X77311333Y-53152761D01*
X77406571Y-53200380D01*
X77597047Y-53200380D01*
X77692285Y-53152761D01*
X77739904Y-53105142D01*
X77787523Y-53009904D01*
X77787523Y-52200380D01*
X78692285Y-52200380D02*
X78501809Y-52200380D01*
X78406571Y-52248000D01*
X78358952Y-52295619D01*
X78263714Y-52438476D01*
X78216095Y-52628952D01*
X78216095Y-53009904D01*
X78263714Y-53105142D01*
X78311333Y-53152761D01*
X78406571Y-53200380D01*
X78597047Y-53200380D01*
X78692285Y-53152761D01*
X78739904Y-53105142D01*
X78787523Y-53009904D01*
X78787523Y-52771809D01*
X78739904Y-52676571D01*
X78692285Y-52628952D01*
X78597047Y-52581333D01*
X78406571Y-52581333D01*
X78311333Y-52628952D01*
X78263714Y-52676571D01*
X78216095Y-52771809D01*
X72818666Y-72941380D02*
X72818666Y-73655666D01*
X72771047Y-73798523D01*
X72675809Y-73893761D01*
X72532952Y-73941380D01*
X72437714Y-73941380D01*
X73723428Y-73274714D02*
X73723428Y-73941380D01*
X73485333Y-72893761D02*
X73247238Y-73608047D01*
X73866285Y-73608047D01*
M02*
