G04 #@! TF.GenerationSoftware,KiCad,Pcbnew,5.1.4*
G04 #@! TF.CreationDate,2019-08-26T14:36:03+01:00*
G04 #@! TF.ProjectId,z802,7a383032-2e6b-4696-9361-645f70636258,rev?*
G04 #@! TF.SameCoordinates,Original*
G04 #@! TF.FileFunction,Soldermask,Bot*
G04 #@! TF.FilePolarity,Negative*
%FSLAX46Y46*%
G04 Gerber Fmt 4.6, Leading zero omitted, Abs format (unit mm)*
G04 Created by KiCad (PCBNEW 5.1.4) date 2019-08-26 14:36:03*
%MOMM*%
%LPD*%
G04 APERTURE LIST*
%ADD10C,0.100000*%
G04 APERTURE END LIST*
D10*
G36*
X134786823Y-127431313D02*
G01*
X134947242Y-127479976D01*
X135079906Y-127550886D01*
X135095078Y-127558996D01*
X135224659Y-127665341D01*
X135331004Y-127794922D01*
X135331005Y-127794924D01*
X135410024Y-127942758D01*
X135458687Y-128103177D01*
X135475117Y-128270000D01*
X135458687Y-128436823D01*
X135410024Y-128597242D01*
X135397507Y-128620659D01*
X135331004Y-128745078D01*
X135224659Y-128874659D01*
X135095078Y-128981004D01*
X135095076Y-128981005D01*
X134947242Y-129060024D01*
X134786823Y-129108687D01*
X134661804Y-129121000D01*
X134578196Y-129121000D01*
X134453177Y-129108687D01*
X134292758Y-129060024D01*
X134144924Y-128981005D01*
X134144922Y-128981004D01*
X134015341Y-128874659D01*
X133908996Y-128745078D01*
X133842493Y-128620659D01*
X133829976Y-128597242D01*
X133781313Y-128436823D01*
X133764883Y-128270000D01*
X133781313Y-128103177D01*
X133829976Y-127942758D01*
X133908995Y-127794924D01*
X133908996Y-127794922D01*
X134015341Y-127665341D01*
X134144922Y-127558996D01*
X134160094Y-127550886D01*
X134292758Y-127479976D01*
X134453177Y-127431313D01*
X134578196Y-127419000D01*
X134661804Y-127419000D01*
X134786823Y-127431313D01*
X134786823Y-127431313D01*
G37*
G36*
X119546823Y-127431313D02*
G01*
X119707242Y-127479976D01*
X119839906Y-127550886D01*
X119855078Y-127558996D01*
X119984659Y-127665341D01*
X120091004Y-127794922D01*
X120091005Y-127794924D01*
X120170024Y-127942758D01*
X120218687Y-128103177D01*
X120235117Y-128270000D01*
X120218687Y-128436823D01*
X120170024Y-128597242D01*
X120157507Y-128620659D01*
X120091004Y-128745078D01*
X119984659Y-128874659D01*
X119855078Y-128981004D01*
X119855076Y-128981005D01*
X119707242Y-129060024D01*
X119546823Y-129108687D01*
X119421804Y-129121000D01*
X119338196Y-129121000D01*
X119213177Y-129108687D01*
X119052758Y-129060024D01*
X118904924Y-128981005D01*
X118904922Y-128981004D01*
X118775341Y-128874659D01*
X118668996Y-128745078D01*
X118602493Y-128620659D01*
X118589976Y-128597242D01*
X118541313Y-128436823D01*
X118524883Y-128270000D01*
X118541313Y-128103177D01*
X118589976Y-127942758D01*
X118668995Y-127794924D01*
X118668996Y-127794922D01*
X118775341Y-127665341D01*
X118904922Y-127558996D01*
X118920094Y-127550886D01*
X119052758Y-127479976D01*
X119213177Y-127431313D01*
X119338196Y-127419000D01*
X119421804Y-127419000D01*
X119546823Y-127431313D01*
X119546823Y-127431313D01*
G37*
G36*
X97956823Y-127431313D02*
G01*
X98117242Y-127479976D01*
X98249906Y-127550886D01*
X98265078Y-127558996D01*
X98394659Y-127665341D01*
X98501004Y-127794922D01*
X98501005Y-127794924D01*
X98580024Y-127942758D01*
X98628687Y-128103177D01*
X98645117Y-128270000D01*
X98628687Y-128436823D01*
X98580024Y-128597242D01*
X98567507Y-128620659D01*
X98501004Y-128745078D01*
X98394659Y-128874659D01*
X98265078Y-128981004D01*
X98265076Y-128981005D01*
X98117242Y-129060024D01*
X97956823Y-129108687D01*
X97831804Y-129121000D01*
X97748196Y-129121000D01*
X97623177Y-129108687D01*
X97462758Y-129060024D01*
X97314924Y-128981005D01*
X97314922Y-128981004D01*
X97185341Y-128874659D01*
X97078996Y-128745078D01*
X97012493Y-128620659D01*
X96999976Y-128597242D01*
X96951313Y-128436823D01*
X96934883Y-128270000D01*
X96951313Y-128103177D01*
X96999976Y-127942758D01*
X97078995Y-127794924D01*
X97078996Y-127794922D01*
X97185341Y-127665341D01*
X97314922Y-127558996D01*
X97330094Y-127550886D01*
X97462758Y-127479976D01*
X97623177Y-127431313D01*
X97748196Y-127419000D01*
X97831804Y-127419000D01*
X97956823Y-127431313D01*
X97956823Y-127431313D01*
G37*
G36*
X82716823Y-127431313D02*
G01*
X82877242Y-127479976D01*
X83009906Y-127550886D01*
X83025078Y-127558996D01*
X83154659Y-127665341D01*
X83261004Y-127794922D01*
X83261005Y-127794924D01*
X83340024Y-127942758D01*
X83388687Y-128103177D01*
X83405117Y-128270000D01*
X83388687Y-128436823D01*
X83340024Y-128597242D01*
X83327507Y-128620659D01*
X83261004Y-128745078D01*
X83154659Y-128874659D01*
X83025078Y-128981004D01*
X83025076Y-128981005D01*
X82877242Y-129060024D01*
X82716823Y-129108687D01*
X82591804Y-129121000D01*
X82508196Y-129121000D01*
X82383177Y-129108687D01*
X82222758Y-129060024D01*
X82074924Y-128981005D01*
X82074922Y-128981004D01*
X81945341Y-128874659D01*
X81838996Y-128745078D01*
X81772493Y-128620659D01*
X81759976Y-128597242D01*
X81711313Y-128436823D01*
X81694883Y-128270000D01*
X81711313Y-128103177D01*
X81759976Y-127942758D01*
X81838995Y-127794924D01*
X81838996Y-127794922D01*
X81945341Y-127665341D01*
X82074922Y-127558996D01*
X82090094Y-127550886D01*
X82222758Y-127479976D01*
X82383177Y-127431313D01*
X82508196Y-127419000D01*
X82591804Y-127419000D01*
X82716823Y-127431313D01*
X82716823Y-127431313D01*
G37*
G36*
X76874823Y-127177313D02*
G01*
X77035242Y-127225976D01*
X77167906Y-127296886D01*
X77183078Y-127304996D01*
X77312659Y-127411341D01*
X77419004Y-127540922D01*
X77419005Y-127540924D01*
X77498024Y-127688758D01*
X77546687Y-127849177D01*
X77563117Y-128016000D01*
X77546687Y-128182823D01*
X77498024Y-128343242D01*
X77448004Y-128436823D01*
X77419004Y-128491078D01*
X77312659Y-128620659D01*
X77183078Y-128727004D01*
X77183076Y-128727005D01*
X77035242Y-128806024D01*
X76874823Y-128854687D01*
X76749804Y-128867000D01*
X76666196Y-128867000D01*
X76541177Y-128854687D01*
X76380758Y-128806024D01*
X76232924Y-128727005D01*
X76232922Y-128727004D01*
X76103341Y-128620659D01*
X75996996Y-128491078D01*
X75967996Y-128436823D01*
X75917976Y-128343242D01*
X75869313Y-128182823D01*
X75852883Y-128016000D01*
X75869313Y-127849177D01*
X75917976Y-127688758D01*
X75996995Y-127540924D01*
X75996996Y-127540922D01*
X76103341Y-127411341D01*
X76232922Y-127304996D01*
X76248094Y-127296886D01*
X76380758Y-127225976D01*
X76541177Y-127177313D01*
X76666196Y-127165000D01*
X76749804Y-127165000D01*
X76874823Y-127177313D01*
X76874823Y-127177313D01*
G37*
G36*
X134786823Y-124891313D02*
G01*
X134947242Y-124939976D01*
X135079906Y-125010886D01*
X135095078Y-125018996D01*
X135224659Y-125125341D01*
X135331004Y-125254922D01*
X135331005Y-125254924D01*
X135410024Y-125402758D01*
X135458687Y-125563177D01*
X135475117Y-125730000D01*
X135458687Y-125896823D01*
X135410024Y-126057242D01*
X135339114Y-126189906D01*
X135331004Y-126205078D01*
X135224659Y-126334659D01*
X135095078Y-126441004D01*
X135095076Y-126441005D01*
X134947242Y-126520024D01*
X134786823Y-126568687D01*
X134661804Y-126581000D01*
X134578196Y-126581000D01*
X134453177Y-126568687D01*
X134292758Y-126520024D01*
X134144924Y-126441005D01*
X134144922Y-126441004D01*
X134015341Y-126334659D01*
X133908996Y-126205078D01*
X133900886Y-126189906D01*
X133829976Y-126057242D01*
X133781313Y-125896823D01*
X133764883Y-125730000D01*
X133781313Y-125563177D01*
X133829976Y-125402758D01*
X133908995Y-125254924D01*
X133908996Y-125254922D01*
X134015341Y-125125341D01*
X134144922Y-125018996D01*
X134160094Y-125010886D01*
X134292758Y-124939976D01*
X134453177Y-124891313D01*
X134578196Y-124879000D01*
X134661804Y-124879000D01*
X134786823Y-124891313D01*
X134786823Y-124891313D01*
G37*
G36*
X97956823Y-124891313D02*
G01*
X98117242Y-124939976D01*
X98249906Y-125010886D01*
X98265078Y-125018996D01*
X98394659Y-125125341D01*
X98501004Y-125254922D01*
X98501005Y-125254924D01*
X98580024Y-125402758D01*
X98628687Y-125563177D01*
X98645117Y-125730000D01*
X98628687Y-125896823D01*
X98580024Y-126057242D01*
X98509114Y-126189906D01*
X98501004Y-126205078D01*
X98394659Y-126334659D01*
X98265078Y-126441004D01*
X98265076Y-126441005D01*
X98117242Y-126520024D01*
X97956823Y-126568687D01*
X97831804Y-126581000D01*
X97748196Y-126581000D01*
X97623177Y-126568687D01*
X97462758Y-126520024D01*
X97314924Y-126441005D01*
X97314922Y-126441004D01*
X97185341Y-126334659D01*
X97078996Y-126205078D01*
X97070886Y-126189906D01*
X96999976Y-126057242D01*
X96951313Y-125896823D01*
X96934883Y-125730000D01*
X96951313Y-125563177D01*
X96999976Y-125402758D01*
X97078995Y-125254924D01*
X97078996Y-125254922D01*
X97185341Y-125125341D01*
X97314922Y-125018996D01*
X97330094Y-125010886D01*
X97462758Y-124939976D01*
X97623177Y-124891313D01*
X97748196Y-124879000D01*
X97831804Y-124879000D01*
X97956823Y-124891313D01*
X97956823Y-124891313D01*
G37*
G36*
X82716823Y-124891313D02*
G01*
X82877242Y-124939976D01*
X83009906Y-125010886D01*
X83025078Y-125018996D01*
X83154659Y-125125341D01*
X83261004Y-125254922D01*
X83261005Y-125254924D01*
X83340024Y-125402758D01*
X83388687Y-125563177D01*
X83405117Y-125730000D01*
X83388687Y-125896823D01*
X83340024Y-126057242D01*
X83269114Y-126189906D01*
X83261004Y-126205078D01*
X83154659Y-126334659D01*
X83025078Y-126441004D01*
X83025076Y-126441005D01*
X82877242Y-126520024D01*
X82716823Y-126568687D01*
X82591804Y-126581000D01*
X82508196Y-126581000D01*
X82383177Y-126568687D01*
X82222758Y-126520024D01*
X82074924Y-126441005D01*
X82074922Y-126441004D01*
X81945341Y-126334659D01*
X81838996Y-126205078D01*
X81830886Y-126189906D01*
X81759976Y-126057242D01*
X81711313Y-125896823D01*
X81694883Y-125730000D01*
X81711313Y-125563177D01*
X81759976Y-125402758D01*
X81838995Y-125254924D01*
X81838996Y-125254922D01*
X81945341Y-125125341D01*
X82074922Y-125018996D01*
X82090094Y-125010886D01*
X82222758Y-124939976D01*
X82383177Y-124891313D01*
X82508196Y-124879000D01*
X82591804Y-124879000D01*
X82716823Y-124891313D01*
X82716823Y-124891313D01*
G37*
G36*
X119546823Y-124891313D02*
G01*
X119707242Y-124939976D01*
X119839906Y-125010886D01*
X119855078Y-125018996D01*
X119984659Y-125125341D01*
X120091004Y-125254922D01*
X120091005Y-125254924D01*
X120170024Y-125402758D01*
X120218687Y-125563177D01*
X120235117Y-125730000D01*
X120218687Y-125896823D01*
X120170024Y-126057242D01*
X120099114Y-126189906D01*
X120091004Y-126205078D01*
X119984659Y-126334659D01*
X119855078Y-126441004D01*
X119855076Y-126441005D01*
X119707242Y-126520024D01*
X119546823Y-126568687D01*
X119421804Y-126581000D01*
X119338196Y-126581000D01*
X119213177Y-126568687D01*
X119052758Y-126520024D01*
X118904924Y-126441005D01*
X118904922Y-126441004D01*
X118775341Y-126334659D01*
X118668996Y-126205078D01*
X118660886Y-126189906D01*
X118589976Y-126057242D01*
X118541313Y-125896823D01*
X118524883Y-125730000D01*
X118541313Y-125563177D01*
X118589976Y-125402758D01*
X118668995Y-125254924D01*
X118668996Y-125254922D01*
X118775341Y-125125341D01*
X118904922Y-125018996D01*
X118920094Y-125010886D01*
X119052758Y-124939976D01*
X119213177Y-124891313D01*
X119338196Y-124879000D01*
X119421804Y-124879000D01*
X119546823Y-124891313D01*
X119546823Y-124891313D01*
G37*
G36*
X110738228Y-123641703D02*
G01*
X110893100Y-123705853D01*
X111032481Y-123798985D01*
X111151015Y-123917519D01*
X111244147Y-124056900D01*
X111308297Y-124211772D01*
X111341000Y-124376184D01*
X111341000Y-124543816D01*
X111308297Y-124708228D01*
X111244147Y-124863100D01*
X111151015Y-125002481D01*
X111032481Y-125121015D01*
X110893100Y-125214147D01*
X110738228Y-125278297D01*
X110573816Y-125311000D01*
X110406184Y-125311000D01*
X110241772Y-125278297D01*
X110086900Y-125214147D01*
X109947519Y-125121015D01*
X109828985Y-125002481D01*
X109735853Y-124863100D01*
X109671703Y-124708228D01*
X109639000Y-124543816D01*
X109639000Y-124376184D01*
X109671703Y-124211772D01*
X109735853Y-124056900D01*
X109828985Y-123917519D01*
X109947519Y-123798985D01*
X110086900Y-123705853D01*
X110241772Y-123641703D01*
X110406184Y-123609000D01*
X110573816Y-123609000D01*
X110738228Y-123641703D01*
X110738228Y-123641703D01*
G37*
G36*
X103036823Y-123621313D02*
G01*
X103197242Y-123669976D01*
X103264361Y-123705852D01*
X103345078Y-123748996D01*
X103474659Y-123855341D01*
X103581004Y-123984922D01*
X103581005Y-123984924D01*
X103660024Y-124132758D01*
X103708687Y-124293177D01*
X103725117Y-124460000D01*
X103708687Y-124626823D01*
X103660024Y-124787242D01*
X103619477Y-124863100D01*
X103581004Y-124935078D01*
X103474659Y-125064659D01*
X103345078Y-125171004D01*
X103345076Y-125171005D01*
X103197242Y-125250024D01*
X103036823Y-125298687D01*
X102911804Y-125311000D01*
X102828196Y-125311000D01*
X102703177Y-125298687D01*
X102542758Y-125250024D01*
X102394924Y-125171005D01*
X102394922Y-125171004D01*
X102265341Y-125064659D01*
X102158996Y-124935078D01*
X102120523Y-124863100D01*
X102079976Y-124787242D01*
X102031313Y-124626823D01*
X102014883Y-124460000D01*
X102031313Y-124293177D01*
X102079976Y-124132758D01*
X102158995Y-123984924D01*
X102158996Y-123984922D01*
X102265341Y-123855341D01*
X102394922Y-123748996D01*
X102475639Y-123705852D01*
X102542758Y-123669976D01*
X102703177Y-123621313D01*
X102828196Y-123609000D01*
X102911804Y-123609000D01*
X103036823Y-123621313D01*
X103036823Y-123621313D01*
G37*
G36*
X119546823Y-122351313D02*
G01*
X119707242Y-122399976D01*
X119839906Y-122470886D01*
X119855078Y-122478996D01*
X119984659Y-122585341D01*
X120091004Y-122714922D01*
X120091005Y-122714924D01*
X120170024Y-122862758D01*
X120218687Y-123023177D01*
X120235117Y-123190000D01*
X120218687Y-123356823D01*
X120170024Y-123517242D01*
X120120978Y-123609000D01*
X120091004Y-123665078D01*
X119984659Y-123794659D01*
X119855078Y-123901004D01*
X119855076Y-123901005D01*
X119707242Y-123980024D01*
X119546823Y-124028687D01*
X119421804Y-124041000D01*
X119338196Y-124041000D01*
X119213177Y-124028687D01*
X119052758Y-123980024D01*
X118904924Y-123901005D01*
X118904922Y-123901004D01*
X118775341Y-123794659D01*
X118668996Y-123665078D01*
X118639022Y-123609000D01*
X118589976Y-123517242D01*
X118541313Y-123356823D01*
X118524883Y-123190000D01*
X118541313Y-123023177D01*
X118589976Y-122862758D01*
X118668995Y-122714924D01*
X118668996Y-122714922D01*
X118775341Y-122585341D01*
X118904922Y-122478996D01*
X118920094Y-122470886D01*
X119052758Y-122399976D01*
X119213177Y-122351313D01*
X119338196Y-122339000D01*
X119421804Y-122339000D01*
X119546823Y-122351313D01*
X119546823Y-122351313D01*
G37*
G36*
X134786823Y-122351313D02*
G01*
X134947242Y-122399976D01*
X135079906Y-122470886D01*
X135095078Y-122478996D01*
X135224659Y-122585341D01*
X135331004Y-122714922D01*
X135331005Y-122714924D01*
X135410024Y-122862758D01*
X135458687Y-123023177D01*
X135475117Y-123190000D01*
X135458687Y-123356823D01*
X135410024Y-123517242D01*
X135360978Y-123609000D01*
X135331004Y-123665078D01*
X135224659Y-123794659D01*
X135095078Y-123901004D01*
X135095076Y-123901005D01*
X134947242Y-123980024D01*
X134786823Y-124028687D01*
X134661804Y-124041000D01*
X134578196Y-124041000D01*
X134453177Y-124028687D01*
X134292758Y-123980024D01*
X134144924Y-123901005D01*
X134144922Y-123901004D01*
X134015341Y-123794659D01*
X133908996Y-123665078D01*
X133879022Y-123609000D01*
X133829976Y-123517242D01*
X133781313Y-123356823D01*
X133764883Y-123190000D01*
X133781313Y-123023177D01*
X133829976Y-122862758D01*
X133908995Y-122714924D01*
X133908996Y-122714922D01*
X134015341Y-122585341D01*
X134144922Y-122478996D01*
X134160094Y-122470886D01*
X134292758Y-122399976D01*
X134453177Y-122351313D01*
X134578196Y-122339000D01*
X134661804Y-122339000D01*
X134786823Y-122351313D01*
X134786823Y-122351313D01*
G37*
G36*
X97956823Y-122351313D02*
G01*
X98117242Y-122399976D01*
X98249906Y-122470886D01*
X98265078Y-122478996D01*
X98394659Y-122585341D01*
X98501004Y-122714922D01*
X98501005Y-122714924D01*
X98580024Y-122862758D01*
X98628687Y-123023177D01*
X98645117Y-123190000D01*
X98628687Y-123356823D01*
X98580024Y-123517242D01*
X98530978Y-123609000D01*
X98501004Y-123665078D01*
X98394659Y-123794659D01*
X98265078Y-123901004D01*
X98265076Y-123901005D01*
X98117242Y-123980024D01*
X97956823Y-124028687D01*
X97831804Y-124041000D01*
X97748196Y-124041000D01*
X97623177Y-124028687D01*
X97462758Y-123980024D01*
X97314924Y-123901005D01*
X97314922Y-123901004D01*
X97185341Y-123794659D01*
X97078996Y-123665078D01*
X97049022Y-123609000D01*
X96999976Y-123517242D01*
X96951313Y-123356823D01*
X96934883Y-123190000D01*
X96951313Y-123023177D01*
X96999976Y-122862758D01*
X97078995Y-122714924D01*
X97078996Y-122714922D01*
X97185341Y-122585341D01*
X97314922Y-122478996D01*
X97330094Y-122470886D01*
X97462758Y-122399976D01*
X97623177Y-122351313D01*
X97748196Y-122339000D01*
X97831804Y-122339000D01*
X97956823Y-122351313D01*
X97956823Y-122351313D01*
G37*
G36*
X82716823Y-122351313D02*
G01*
X82877242Y-122399976D01*
X83009906Y-122470886D01*
X83025078Y-122478996D01*
X83154659Y-122585341D01*
X83261004Y-122714922D01*
X83261005Y-122714924D01*
X83340024Y-122862758D01*
X83388687Y-123023177D01*
X83405117Y-123190000D01*
X83388687Y-123356823D01*
X83340024Y-123517242D01*
X83290978Y-123609000D01*
X83261004Y-123665078D01*
X83154659Y-123794659D01*
X83025078Y-123901004D01*
X83025076Y-123901005D01*
X82877242Y-123980024D01*
X82716823Y-124028687D01*
X82591804Y-124041000D01*
X82508196Y-124041000D01*
X82383177Y-124028687D01*
X82222758Y-123980024D01*
X82074924Y-123901005D01*
X82074922Y-123901004D01*
X81945341Y-123794659D01*
X81838996Y-123665078D01*
X81809022Y-123609000D01*
X81759976Y-123517242D01*
X81711313Y-123356823D01*
X81694883Y-123190000D01*
X81711313Y-123023177D01*
X81759976Y-122862758D01*
X81838995Y-122714924D01*
X81838996Y-122714922D01*
X81945341Y-122585341D01*
X82074922Y-122478996D01*
X82090094Y-122470886D01*
X82222758Y-122399976D01*
X82383177Y-122351313D01*
X82508196Y-122339000D01*
X82591804Y-122339000D01*
X82716823Y-122351313D01*
X82716823Y-122351313D01*
G37*
G36*
X141530564Y-121417389D02*
G01*
X141702693Y-121488687D01*
X141721835Y-121496616D01*
X141728396Y-121501000D01*
X141893973Y-121611635D01*
X142040365Y-121758027D01*
X142155385Y-121930167D01*
X142234611Y-122121436D01*
X142275000Y-122324484D01*
X142275000Y-122531516D01*
X142234611Y-122734564D01*
X142181511Y-122862758D01*
X142155384Y-122925835D01*
X142040365Y-123097973D01*
X141893973Y-123244365D01*
X141721835Y-123359384D01*
X141721834Y-123359385D01*
X141721833Y-123359385D01*
X141530564Y-123438611D01*
X141327516Y-123479000D01*
X141120484Y-123479000D01*
X140917436Y-123438611D01*
X140726167Y-123359385D01*
X140726166Y-123359385D01*
X140726165Y-123359384D01*
X140554027Y-123244365D01*
X140407635Y-123097973D01*
X140292616Y-122925835D01*
X140266489Y-122862758D01*
X140213389Y-122734564D01*
X140173000Y-122531516D01*
X140173000Y-122324484D01*
X140213389Y-122121436D01*
X140292615Y-121930167D01*
X140407635Y-121758027D01*
X140554027Y-121611635D01*
X140719604Y-121501000D01*
X140726165Y-121496616D01*
X140745307Y-121488687D01*
X140917436Y-121417389D01*
X141120484Y-121377000D01*
X141327516Y-121377000D01*
X141530564Y-121417389D01*
X141530564Y-121417389D01*
G37*
G36*
X146030564Y-121417389D02*
G01*
X146202693Y-121488687D01*
X146221835Y-121496616D01*
X146228396Y-121501000D01*
X146393973Y-121611635D01*
X146540365Y-121758027D01*
X146655385Y-121930167D01*
X146734611Y-122121436D01*
X146775000Y-122324484D01*
X146775000Y-122531516D01*
X146734611Y-122734564D01*
X146681511Y-122862758D01*
X146655384Y-122925835D01*
X146540365Y-123097973D01*
X146393973Y-123244365D01*
X146221835Y-123359384D01*
X146221834Y-123359385D01*
X146221833Y-123359385D01*
X146030564Y-123438611D01*
X145827516Y-123479000D01*
X145620484Y-123479000D01*
X145417436Y-123438611D01*
X145226167Y-123359385D01*
X145226166Y-123359385D01*
X145226165Y-123359384D01*
X145054027Y-123244365D01*
X144907635Y-123097973D01*
X144792616Y-122925835D01*
X144766489Y-122862758D01*
X144713389Y-122734564D01*
X144673000Y-122531516D01*
X144673000Y-122324484D01*
X144713389Y-122121436D01*
X144792615Y-121930167D01*
X144907635Y-121758027D01*
X145054027Y-121611635D01*
X145219604Y-121501000D01*
X145226165Y-121496616D01*
X145245307Y-121488687D01*
X145417436Y-121417389D01*
X145620484Y-121377000D01*
X145827516Y-121377000D01*
X146030564Y-121417389D01*
X146030564Y-121417389D01*
G37*
G36*
X82716823Y-119811313D02*
G01*
X82877242Y-119859976D01*
X83009906Y-119930886D01*
X83025078Y-119938996D01*
X83154659Y-120045341D01*
X83261004Y-120174922D01*
X83261005Y-120174924D01*
X83340024Y-120322758D01*
X83388687Y-120483177D01*
X83405117Y-120650000D01*
X83388687Y-120816823D01*
X83340024Y-120977242D01*
X83297384Y-121057015D01*
X83261004Y-121125078D01*
X83154659Y-121254659D01*
X83025078Y-121361004D01*
X83025076Y-121361005D01*
X82877242Y-121440024D01*
X82716823Y-121488687D01*
X82591804Y-121501000D01*
X82508196Y-121501000D01*
X82383177Y-121488687D01*
X82222758Y-121440024D01*
X82074924Y-121361005D01*
X82074922Y-121361004D01*
X81945341Y-121254659D01*
X81838996Y-121125078D01*
X81802616Y-121057015D01*
X81759976Y-120977242D01*
X81711313Y-120816823D01*
X81694883Y-120650000D01*
X81711313Y-120483177D01*
X81759976Y-120322758D01*
X81838995Y-120174924D01*
X81838996Y-120174922D01*
X81945341Y-120045341D01*
X82074922Y-119938996D01*
X82090094Y-119930886D01*
X82222758Y-119859976D01*
X82383177Y-119811313D01*
X82508196Y-119799000D01*
X82591804Y-119799000D01*
X82716823Y-119811313D01*
X82716823Y-119811313D01*
G37*
G36*
X97956823Y-119811313D02*
G01*
X98117242Y-119859976D01*
X98249906Y-119930886D01*
X98265078Y-119938996D01*
X98394659Y-120045341D01*
X98501004Y-120174922D01*
X98501005Y-120174924D01*
X98580024Y-120322758D01*
X98628687Y-120483177D01*
X98645117Y-120650000D01*
X98628687Y-120816823D01*
X98580024Y-120977242D01*
X98537384Y-121057015D01*
X98501004Y-121125078D01*
X98394659Y-121254659D01*
X98265078Y-121361004D01*
X98265076Y-121361005D01*
X98117242Y-121440024D01*
X97956823Y-121488687D01*
X97831804Y-121501000D01*
X97748196Y-121501000D01*
X97623177Y-121488687D01*
X97462758Y-121440024D01*
X97314924Y-121361005D01*
X97314922Y-121361004D01*
X97185341Y-121254659D01*
X97078996Y-121125078D01*
X97042616Y-121057015D01*
X96999976Y-120977242D01*
X96951313Y-120816823D01*
X96934883Y-120650000D01*
X96951313Y-120483177D01*
X96999976Y-120322758D01*
X97078995Y-120174924D01*
X97078996Y-120174922D01*
X97185341Y-120045341D01*
X97314922Y-119938996D01*
X97330094Y-119930886D01*
X97462758Y-119859976D01*
X97623177Y-119811313D01*
X97748196Y-119799000D01*
X97831804Y-119799000D01*
X97956823Y-119811313D01*
X97956823Y-119811313D01*
G37*
G36*
X119546823Y-119811313D02*
G01*
X119707242Y-119859976D01*
X119839906Y-119930886D01*
X119855078Y-119938996D01*
X119984659Y-120045341D01*
X120091004Y-120174922D01*
X120091005Y-120174924D01*
X120170024Y-120322758D01*
X120218687Y-120483177D01*
X120235117Y-120650000D01*
X120218687Y-120816823D01*
X120170024Y-120977242D01*
X120127384Y-121057015D01*
X120091004Y-121125078D01*
X119984659Y-121254659D01*
X119855078Y-121361004D01*
X119855076Y-121361005D01*
X119707242Y-121440024D01*
X119546823Y-121488687D01*
X119421804Y-121501000D01*
X119338196Y-121501000D01*
X119213177Y-121488687D01*
X119052758Y-121440024D01*
X118904924Y-121361005D01*
X118904922Y-121361004D01*
X118775341Y-121254659D01*
X118668996Y-121125078D01*
X118632616Y-121057015D01*
X118589976Y-120977242D01*
X118541313Y-120816823D01*
X118524883Y-120650000D01*
X118541313Y-120483177D01*
X118589976Y-120322758D01*
X118668995Y-120174924D01*
X118668996Y-120174922D01*
X118775341Y-120045341D01*
X118904922Y-119938996D01*
X118920094Y-119930886D01*
X119052758Y-119859976D01*
X119213177Y-119811313D01*
X119338196Y-119799000D01*
X119421804Y-119799000D01*
X119546823Y-119811313D01*
X119546823Y-119811313D01*
G37*
G36*
X134786823Y-119811313D02*
G01*
X134947242Y-119859976D01*
X135079906Y-119930886D01*
X135095078Y-119938996D01*
X135224659Y-120045341D01*
X135331004Y-120174922D01*
X135331005Y-120174924D01*
X135410024Y-120322758D01*
X135458687Y-120483177D01*
X135475117Y-120650000D01*
X135458687Y-120816823D01*
X135410024Y-120977242D01*
X135367384Y-121057015D01*
X135331004Y-121125078D01*
X135224659Y-121254659D01*
X135095078Y-121361004D01*
X135095076Y-121361005D01*
X134947242Y-121440024D01*
X134786823Y-121488687D01*
X134661804Y-121501000D01*
X134578196Y-121501000D01*
X134453177Y-121488687D01*
X134292758Y-121440024D01*
X134144924Y-121361005D01*
X134144922Y-121361004D01*
X134015341Y-121254659D01*
X133908996Y-121125078D01*
X133872616Y-121057015D01*
X133829976Y-120977242D01*
X133781313Y-120816823D01*
X133764883Y-120650000D01*
X133781313Y-120483177D01*
X133829976Y-120322758D01*
X133908995Y-120174924D01*
X133908996Y-120174922D01*
X134015341Y-120045341D01*
X134144922Y-119938996D01*
X134160094Y-119930886D01*
X134292758Y-119859976D01*
X134453177Y-119811313D01*
X134578196Y-119799000D01*
X134661804Y-119799000D01*
X134786823Y-119811313D01*
X134786823Y-119811313D01*
G37*
G36*
X76956228Y-119577703D02*
G01*
X77111100Y-119641853D01*
X77250481Y-119734985D01*
X77369015Y-119853519D01*
X77462147Y-119992900D01*
X77526297Y-120147772D01*
X77559000Y-120312184D01*
X77559000Y-120479816D01*
X77526297Y-120644228D01*
X77462147Y-120799100D01*
X77369015Y-120938481D01*
X77250481Y-121057015D01*
X77111100Y-121150147D01*
X76956228Y-121214297D01*
X76791816Y-121247000D01*
X76624184Y-121247000D01*
X76459772Y-121214297D01*
X76304900Y-121150147D01*
X76165519Y-121057015D01*
X76046985Y-120938481D01*
X75953853Y-120799100D01*
X75889703Y-120644228D01*
X75857000Y-120479816D01*
X75857000Y-120312184D01*
X75889703Y-120147772D01*
X75953853Y-119992900D01*
X76046985Y-119853519D01*
X76165519Y-119734985D01*
X76304900Y-119641853D01*
X76459772Y-119577703D01*
X76624184Y-119545000D01*
X76791816Y-119545000D01*
X76956228Y-119577703D01*
X76956228Y-119577703D01*
G37*
G36*
X103036823Y-118541313D02*
G01*
X103197242Y-118589976D01*
X103264361Y-118625852D01*
X103345078Y-118668996D01*
X103474659Y-118775341D01*
X103581004Y-118904922D01*
X103581005Y-118904924D01*
X103660024Y-119052758D01*
X103708687Y-119213177D01*
X103725117Y-119380000D01*
X103708687Y-119546823D01*
X103660024Y-119707242D01*
X103619477Y-119783100D01*
X103581004Y-119855078D01*
X103474659Y-119984659D01*
X103345078Y-120091004D01*
X103345076Y-120091005D01*
X103197242Y-120170024D01*
X103036823Y-120218687D01*
X102911804Y-120231000D01*
X102828196Y-120231000D01*
X102703177Y-120218687D01*
X102542758Y-120170024D01*
X102394924Y-120091005D01*
X102394922Y-120091004D01*
X102265341Y-119984659D01*
X102158996Y-119855078D01*
X102120523Y-119783100D01*
X102079976Y-119707242D01*
X102031313Y-119546823D01*
X102014883Y-119380000D01*
X102031313Y-119213177D01*
X102079976Y-119052758D01*
X102158995Y-118904924D01*
X102158996Y-118904922D01*
X102265341Y-118775341D01*
X102394922Y-118668996D01*
X102475639Y-118625852D01*
X102542758Y-118589976D01*
X102703177Y-118541313D01*
X102828196Y-118529000D01*
X102911804Y-118529000D01*
X103036823Y-118541313D01*
X103036823Y-118541313D01*
G37*
G36*
X110738228Y-118561703D02*
G01*
X110893100Y-118625853D01*
X111032481Y-118718985D01*
X111151015Y-118837519D01*
X111244147Y-118976900D01*
X111308297Y-119131772D01*
X111341000Y-119296184D01*
X111341000Y-119463816D01*
X111308297Y-119628228D01*
X111244147Y-119783100D01*
X111151015Y-119922481D01*
X111032481Y-120041015D01*
X110893100Y-120134147D01*
X110738228Y-120198297D01*
X110573816Y-120231000D01*
X110406184Y-120231000D01*
X110241772Y-120198297D01*
X110086900Y-120134147D01*
X109947519Y-120041015D01*
X109828985Y-119922481D01*
X109735853Y-119783100D01*
X109671703Y-119628228D01*
X109639000Y-119463816D01*
X109639000Y-119296184D01*
X109671703Y-119131772D01*
X109735853Y-118976900D01*
X109828985Y-118837519D01*
X109947519Y-118718985D01*
X110086900Y-118625853D01*
X110241772Y-118561703D01*
X110406184Y-118529000D01*
X110573816Y-118529000D01*
X110738228Y-118561703D01*
X110738228Y-118561703D01*
G37*
G36*
X97956823Y-117271313D02*
G01*
X98117242Y-117319976D01*
X98249906Y-117390886D01*
X98265078Y-117398996D01*
X98394659Y-117505341D01*
X98501004Y-117634922D01*
X98501005Y-117634924D01*
X98580024Y-117782758D01*
X98628687Y-117943177D01*
X98645117Y-118110000D01*
X98628687Y-118276823D01*
X98580024Y-118437242D01*
X98530978Y-118529000D01*
X98501004Y-118585078D01*
X98394659Y-118714659D01*
X98265078Y-118821004D01*
X98265076Y-118821005D01*
X98117242Y-118900024D01*
X97956823Y-118948687D01*
X97831804Y-118961000D01*
X97748196Y-118961000D01*
X97623177Y-118948687D01*
X97462758Y-118900024D01*
X97314924Y-118821005D01*
X97314922Y-118821004D01*
X97185341Y-118714659D01*
X97078996Y-118585078D01*
X97049022Y-118529000D01*
X96999976Y-118437242D01*
X96951313Y-118276823D01*
X96934883Y-118110000D01*
X96951313Y-117943177D01*
X96999976Y-117782758D01*
X97078995Y-117634924D01*
X97078996Y-117634922D01*
X97185341Y-117505341D01*
X97314922Y-117398996D01*
X97330094Y-117390886D01*
X97462758Y-117319976D01*
X97623177Y-117271313D01*
X97748196Y-117259000D01*
X97831804Y-117259000D01*
X97956823Y-117271313D01*
X97956823Y-117271313D01*
G37*
G36*
X134786823Y-117271313D02*
G01*
X134947242Y-117319976D01*
X135079906Y-117390886D01*
X135095078Y-117398996D01*
X135224659Y-117505341D01*
X135331004Y-117634922D01*
X135331005Y-117634924D01*
X135410024Y-117782758D01*
X135458687Y-117943177D01*
X135475117Y-118110000D01*
X135458687Y-118276823D01*
X135410024Y-118437242D01*
X135360978Y-118529000D01*
X135331004Y-118585078D01*
X135224659Y-118714659D01*
X135095078Y-118821004D01*
X135095076Y-118821005D01*
X134947242Y-118900024D01*
X134786823Y-118948687D01*
X134661804Y-118961000D01*
X134578196Y-118961000D01*
X134453177Y-118948687D01*
X134292758Y-118900024D01*
X134144924Y-118821005D01*
X134144922Y-118821004D01*
X134015341Y-118714659D01*
X133908996Y-118585078D01*
X133879022Y-118529000D01*
X133829976Y-118437242D01*
X133781313Y-118276823D01*
X133764883Y-118110000D01*
X133781313Y-117943177D01*
X133829976Y-117782758D01*
X133908995Y-117634924D01*
X133908996Y-117634922D01*
X134015341Y-117505341D01*
X134144922Y-117398996D01*
X134160094Y-117390886D01*
X134292758Y-117319976D01*
X134453177Y-117271313D01*
X134578196Y-117259000D01*
X134661804Y-117259000D01*
X134786823Y-117271313D01*
X134786823Y-117271313D01*
G37*
G36*
X119546823Y-117271313D02*
G01*
X119707242Y-117319976D01*
X119839906Y-117390886D01*
X119855078Y-117398996D01*
X119984659Y-117505341D01*
X120091004Y-117634922D01*
X120091005Y-117634924D01*
X120170024Y-117782758D01*
X120218687Y-117943177D01*
X120235117Y-118110000D01*
X120218687Y-118276823D01*
X120170024Y-118437242D01*
X120120978Y-118529000D01*
X120091004Y-118585078D01*
X119984659Y-118714659D01*
X119855078Y-118821004D01*
X119855076Y-118821005D01*
X119707242Y-118900024D01*
X119546823Y-118948687D01*
X119421804Y-118961000D01*
X119338196Y-118961000D01*
X119213177Y-118948687D01*
X119052758Y-118900024D01*
X118904924Y-118821005D01*
X118904922Y-118821004D01*
X118775341Y-118714659D01*
X118668996Y-118585078D01*
X118639022Y-118529000D01*
X118589976Y-118437242D01*
X118541313Y-118276823D01*
X118524883Y-118110000D01*
X118541313Y-117943177D01*
X118589976Y-117782758D01*
X118668995Y-117634924D01*
X118668996Y-117634922D01*
X118775341Y-117505341D01*
X118904922Y-117398996D01*
X118920094Y-117390886D01*
X119052758Y-117319976D01*
X119213177Y-117271313D01*
X119338196Y-117259000D01*
X119421804Y-117259000D01*
X119546823Y-117271313D01*
X119546823Y-117271313D01*
G37*
G36*
X82716823Y-117271313D02*
G01*
X82877242Y-117319976D01*
X83009906Y-117390886D01*
X83025078Y-117398996D01*
X83154659Y-117505341D01*
X83261004Y-117634922D01*
X83261005Y-117634924D01*
X83340024Y-117782758D01*
X83388687Y-117943177D01*
X83405117Y-118110000D01*
X83388687Y-118276823D01*
X83340024Y-118437242D01*
X83290978Y-118529000D01*
X83261004Y-118585078D01*
X83154659Y-118714659D01*
X83025078Y-118821004D01*
X83025076Y-118821005D01*
X82877242Y-118900024D01*
X82716823Y-118948687D01*
X82591804Y-118961000D01*
X82508196Y-118961000D01*
X82383177Y-118948687D01*
X82222758Y-118900024D01*
X82074924Y-118821005D01*
X82074922Y-118821004D01*
X81945341Y-118714659D01*
X81838996Y-118585078D01*
X81809022Y-118529000D01*
X81759976Y-118437242D01*
X81711313Y-118276823D01*
X81694883Y-118110000D01*
X81711313Y-117943177D01*
X81759976Y-117782758D01*
X81838995Y-117634924D01*
X81838996Y-117634922D01*
X81945341Y-117505341D01*
X82074922Y-117398996D01*
X82090094Y-117390886D01*
X82222758Y-117319976D01*
X82383177Y-117271313D01*
X82508196Y-117259000D01*
X82591804Y-117259000D01*
X82716823Y-117271313D01*
X82716823Y-117271313D01*
G37*
G36*
X76874823Y-116001313D02*
G01*
X77035242Y-116049976D01*
X77167906Y-116120886D01*
X77183078Y-116128996D01*
X77312659Y-116235341D01*
X77419004Y-116364922D01*
X77419005Y-116364924D01*
X77498024Y-116512758D01*
X77546687Y-116673177D01*
X77563117Y-116840000D01*
X77546687Y-117006823D01*
X77498024Y-117167242D01*
X77448978Y-117259000D01*
X77419004Y-117315078D01*
X77312659Y-117444659D01*
X77183078Y-117551004D01*
X77183076Y-117551005D01*
X77035242Y-117630024D01*
X76874823Y-117678687D01*
X76749804Y-117691000D01*
X76666196Y-117691000D01*
X76541177Y-117678687D01*
X76380758Y-117630024D01*
X76232924Y-117551005D01*
X76232922Y-117551004D01*
X76103341Y-117444659D01*
X75996996Y-117315078D01*
X75967022Y-117259000D01*
X75917976Y-117167242D01*
X75869313Y-117006823D01*
X75852883Y-116840000D01*
X75869313Y-116673177D01*
X75917976Y-116512758D01*
X75996995Y-116364924D01*
X75996996Y-116364922D01*
X76103341Y-116235341D01*
X76232922Y-116128996D01*
X76248094Y-116120886D01*
X76380758Y-116049976D01*
X76541177Y-116001313D01*
X76666196Y-115989000D01*
X76749804Y-115989000D01*
X76874823Y-116001313D01*
X76874823Y-116001313D01*
G37*
G36*
X141530564Y-114917389D02*
G01*
X141721833Y-114996615D01*
X141721835Y-114996616D01*
X141861630Y-115090024D01*
X141893973Y-115111635D01*
X142040365Y-115258027D01*
X142155385Y-115430167D01*
X142234611Y-115621436D01*
X142275000Y-115824484D01*
X142275000Y-116031516D01*
X142234611Y-116234564D01*
X142162487Y-116408687D01*
X142155384Y-116425835D01*
X142040365Y-116597973D01*
X141893973Y-116744365D01*
X141721835Y-116859384D01*
X141721834Y-116859385D01*
X141721833Y-116859385D01*
X141530564Y-116938611D01*
X141327516Y-116979000D01*
X141120484Y-116979000D01*
X140917436Y-116938611D01*
X140726167Y-116859385D01*
X140726166Y-116859385D01*
X140726165Y-116859384D01*
X140554027Y-116744365D01*
X140407635Y-116597973D01*
X140292616Y-116425835D01*
X140285513Y-116408687D01*
X140213389Y-116234564D01*
X140173000Y-116031516D01*
X140173000Y-115824484D01*
X140213389Y-115621436D01*
X140292615Y-115430167D01*
X140407635Y-115258027D01*
X140554027Y-115111635D01*
X140586370Y-115090024D01*
X140726165Y-114996616D01*
X140726167Y-114996615D01*
X140917436Y-114917389D01*
X141120484Y-114877000D01*
X141327516Y-114877000D01*
X141530564Y-114917389D01*
X141530564Y-114917389D01*
G37*
G36*
X146030564Y-114917389D02*
G01*
X146221833Y-114996615D01*
X146221835Y-114996616D01*
X146361630Y-115090024D01*
X146393973Y-115111635D01*
X146540365Y-115258027D01*
X146655385Y-115430167D01*
X146734611Y-115621436D01*
X146775000Y-115824484D01*
X146775000Y-116031516D01*
X146734611Y-116234564D01*
X146662487Y-116408687D01*
X146655384Y-116425835D01*
X146540365Y-116597973D01*
X146393973Y-116744365D01*
X146221835Y-116859384D01*
X146221834Y-116859385D01*
X146221833Y-116859385D01*
X146030564Y-116938611D01*
X145827516Y-116979000D01*
X145620484Y-116979000D01*
X145417436Y-116938611D01*
X145226167Y-116859385D01*
X145226166Y-116859385D01*
X145226165Y-116859384D01*
X145054027Y-116744365D01*
X144907635Y-116597973D01*
X144792616Y-116425835D01*
X144785513Y-116408687D01*
X144713389Y-116234564D01*
X144673000Y-116031516D01*
X144673000Y-115824484D01*
X144713389Y-115621436D01*
X144792615Y-115430167D01*
X144907635Y-115258027D01*
X145054027Y-115111635D01*
X145086370Y-115090024D01*
X145226165Y-114996616D01*
X145226167Y-114996615D01*
X145417436Y-114917389D01*
X145620484Y-114877000D01*
X145827516Y-114877000D01*
X146030564Y-114917389D01*
X146030564Y-114917389D01*
G37*
G36*
X119546823Y-114731313D02*
G01*
X119707242Y-114779976D01*
X119839906Y-114850886D01*
X119855078Y-114858996D01*
X119984659Y-114965341D01*
X120091004Y-115094922D01*
X120091005Y-115094924D01*
X120170024Y-115242758D01*
X120218687Y-115403177D01*
X120235117Y-115570000D01*
X120218687Y-115736823D01*
X120170024Y-115897242D01*
X120120978Y-115989000D01*
X120091004Y-116045078D01*
X119984659Y-116174659D01*
X119855078Y-116281004D01*
X119855076Y-116281005D01*
X119707242Y-116360024D01*
X119546823Y-116408687D01*
X119421804Y-116421000D01*
X119338196Y-116421000D01*
X119213177Y-116408687D01*
X119052758Y-116360024D01*
X118904924Y-116281005D01*
X118904922Y-116281004D01*
X118775341Y-116174659D01*
X118668996Y-116045078D01*
X118639022Y-115989000D01*
X118589976Y-115897242D01*
X118541313Y-115736823D01*
X118524883Y-115570000D01*
X118541313Y-115403177D01*
X118589976Y-115242758D01*
X118668995Y-115094924D01*
X118668996Y-115094922D01*
X118775341Y-114965341D01*
X118904922Y-114858996D01*
X118920094Y-114850886D01*
X119052758Y-114779976D01*
X119213177Y-114731313D01*
X119338196Y-114719000D01*
X119421804Y-114719000D01*
X119546823Y-114731313D01*
X119546823Y-114731313D01*
G37*
G36*
X97956823Y-114731313D02*
G01*
X98117242Y-114779976D01*
X98249906Y-114850886D01*
X98265078Y-114858996D01*
X98394659Y-114965341D01*
X98501004Y-115094922D01*
X98501005Y-115094924D01*
X98580024Y-115242758D01*
X98628687Y-115403177D01*
X98645117Y-115570000D01*
X98628687Y-115736823D01*
X98580024Y-115897242D01*
X98530978Y-115989000D01*
X98501004Y-116045078D01*
X98394659Y-116174659D01*
X98265078Y-116281004D01*
X98265076Y-116281005D01*
X98117242Y-116360024D01*
X97956823Y-116408687D01*
X97831804Y-116421000D01*
X97748196Y-116421000D01*
X97623177Y-116408687D01*
X97462758Y-116360024D01*
X97314924Y-116281005D01*
X97314922Y-116281004D01*
X97185341Y-116174659D01*
X97078996Y-116045078D01*
X97049022Y-115989000D01*
X96999976Y-115897242D01*
X96951313Y-115736823D01*
X96934883Y-115570000D01*
X96951313Y-115403177D01*
X96999976Y-115242758D01*
X97078995Y-115094924D01*
X97078996Y-115094922D01*
X97185341Y-114965341D01*
X97314922Y-114858996D01*
X97330094Y-114850886D01*
X97462758Y-114779976D01*
X97623177Y-114731313D01*
X97748196Y-114719000D01*
X97831804Y-114719000D01*
X97956823Y-114731313D01*
X97956823Y-114731313D01*
G37*
G36*
X82716823Y-114731313D02*
G01*
X82877242Y-114779976D01*
X83009906Y-114850886D01*
X83025078Y-114858996D01*
X83154659Y-114965341D01*
X83261004Y-115094922D01*
X83261005Y-115094924D01*
X83340024Y-115242758D01*
X83388687Y-115403177D01*
X83405117Y-115570000D01*
X83388687Y-115736823D01*
X83340024Y-115897242D01*
X83290978Y-115989000D01*
X83261004Y-116045078D01*
X83154659Y-116174659D01*
X83025078Y-116281004D01*
X83025076Y-116281005D01*
X82877242Y-116360024D01*
X82716823Y-116408687D01*
X82591804Y-116421000D01*
X82508196Y-116421000D01*
X82383177Y-116408687D01*
X82222758Y-116360024D01*
X82074924Y-116281005D01*
X82074922Y-116281004D01*
X81945341Y-116174659D01*
X81838996Y-116045078D01*
X81809022Y-115989000D01*
X81759976Y-115897242D01*
X81711313Y-115736823D01*
X81694883Y-115570000D01*
X81711313Y-115403177D01*
X81759976Y-115242758D01*
X81838995Y-115094924D01*
X81838996Y-115094922D01*
X81945341Y-114965341D01*
X82074922Y-114858996D01*
X82090094Y-114850886D01*
X82222758Y-114779976D01*
X82383177Y-114731313D01*
X82508196Y-114719000D01*
X82591804Y-114719000D01*
X82716823Y-114731313D01*
X82716823Y-114731313D01*
G37*
G36*
X134786823Y-114731313D02*
G01*
X134947242Y-114779976D01*
X135079906Y-114850886D01*
X135095078Y-114858996D01*
X135224659Y-114965341D01*
X135331004Y-115094922D01*
X135331005Y-115094924D01*
X135410024Y-115242758D01*
X135458687Y-115403177D01*
X135475117Y-115570000D01*
X135458687Y-115736823D01*
X135410024Y-115897242D01*
X135360978Y-115989000D01*
X135331004Y-116045078D01*
X135224659Y-116174659D01*
X135095078Y-116281004D01*
X135095076Y-116281005D01*
X134947242Y-116360024D01*
X134786823Y-116408687D01*
X134661804Y-116421000D01*
X134578196Y-116421000D01*
X134453177Y-116408687D01*
X134292758Y-116360024D01*
X134144924Y-116281005D01*
X134144922Y-116281004D01*
X134015341Y-116174659D01*
X133908996Y-116045078D01*
X133879022Y-115989000D01*
X133829976Y-115897242D01*
X133781313Y-115736823D01*
X133764883Y-115570000D01*
X133781313Y-115403177D01*
X133829976Y-115242758D01*
X133908995Y-115094924D01*
X133908996Y-115094922D01*
X134015341Y-114965341D01*
X134144922Y-114858996D01*
X134160094Y-114850886D01*
X134292758Y-114779976D01*
X134453177Y-114731313D01*
X134578196Y-114719000D01*
X134661804Y-114719000D01*
X134786823Y-114731313D01*
X134786823Y-114731313D01*
G37*
G36*
X110738228Y-113481703D02*
G01*
X110893100Y-113545853D01*
X111032481Y-113638985D01*
X111151015Y-113757519D01*
X111244147Y-113896900D01*
X111308297Y-114051772D01*
X111341000Y-114216184D01*
X111341000Y-114383816D01*
X111308297Y-114548228D01*
X111244147Y-114703100D01*
X111151015Y-114842481D01*
X111032481Y-114961015D01*
X110893100Y-115054147D01*
X110738228Y-115118297D01*
X110573816Y-115151000D01*
X110406184Y-115151000D01*
X110241772Y-115118297D01*
X110086900Y-115054147D01*
X109947519Y-114961015D01*
X109828985Y-114842481D01*
X109735853Y-114703100D01*
X109671703Y-114548228D01*
X109639000Y-114383816D01*
X109639000Y-114216184D01*
X109671703Y-114051772D01*
X109735853Y-113896900D01*
X109828985Y-113757519D01*
X109947519Y-113638985D01*
X110086900Y-113545853D01*
X110241772Y-113481703D01*
X110406184Y-113449000D01*
X110573816Y-113449000D01*
X110738228Y-113481703D01*
X110738228Y-113481703D01*
G37*
G36*
X103036823Y-113461313D02*
G01*
X103197242Y-113509976D01*
X103264361Y-113545852D01*
X103345078Y-113588996D01*
X103474659Y-113695341D01*
X103581004Y-113824922D01*
X103581005Y-113824924D01*
X103660024Y-113972758D01*
X103708687Y-114133177D01*
X103725117Y-114300000D01*
X103708687Y-114466823D01*
X103660024Y-114627242D01*
X103619477Y-114703100D01*
X103581004Y-114775078D01*
X103474659Y-114904659D01*
X103345078Y-115011004D01*
X103345076Y-115011005D01*
X103197242Y-115090024D01*
X103036823Y-115138687D01*
X102911804Y-115151000D01*
X102828196Y-115151000D01*
X102703177Y-115138687D01*
X102542758Y-115090024D01*
X102394924Y-115011005D01*
X102394922Y-115011004D01*
X102265341Y-114904659D01*
X102158996Y-114775078D01*
X102120523Y-114703100D01*
X102079976Y-114627242D01*
X102031313Y-114466823D01*
X102014883Y-114300000D01*
X102031313Y-114133177D01*
X102079976Y-113972758D01*
X102158995Y-113824924D01*
X102158996Y-113824922D01*
X102265341Y-113695341D01*
X102394922Y-113588996D01*
X102475639Y-113545852D01*
X102542758Y-113509976D01*
X102703177Y-113461313D01*
X102828196Y-113449000D01*
X102911804Y-113449000D01*
X103036823Y-113461313D01*
X103036823Y-113461313D01*
G37*
G36*
X134786823Y-112191313D02*
G01*
X134947242Y-112239976D01*
X135079906Y-112310886D01*
X135095078Y-112318996D01*
X135224659Y-112425341D01*
X135331004Y-112554922D01*
X135331005Y-112554924D01*
X135410024Y-112702758D01*
X135458687Y-112863177D01*
X135475117Y-113030000D01*
X135458687Y-113196823D01*
X135410024Y-113357242D01*
X135360978Y-113449000D01*
X135331004Y-113505078D01*
X135224659Y-113634659D01*
X135095078Y-113741004D01*
X135095076Y-113741005D01*
X134947242Y-113820024D01*
X134786823Y-113868687D01*
X134661804Y-113881000D01*
X134578196Y-113881000D01*
X134453177Y-113868687D01*
X134292758Y-113820024D01*
X134144924Y-113741005D01*
X134144922Y-113741004D01*
X134015341Y-113634659D01*
X133908996Y-113505078D01*
X133879022Y-113449000D01*
X133829976Y-113357242D01*
X133781313Y-113196823D01*
X133764883Y-113030000D01*
X133781313Y-112863177D01*
X133829976Y-112702758D01*
X133908995Y-112554924D01*
X133908996Y-112554922D01*
X134015341Y-112425341D01*
X134144922Y-112318996D01*
X134160094Y-112310886D01*
X134292758Y-112239976D01*
X134453177Y-112191313D01*
X134578196Y-112179000D01*
X134661804Y-112179000D01*
X134786823Y-112191313D01*
X134786823Y-112191313D01*
G37*
G36*
X119546823Y-112191313D02*
G01*
X119707242Y-112239976D01*
X119839906Y-112310886D01*
X119855078Y-112318996D01*
X119984659Y-112425341D01*
X120091004Y-112554922D01*
X120091005Y-112554924D01*
X120170024Y-112702758D01*
X120218687Y-112863177D01*
X120235117Y-113030000D01*
X120218687Y-113196823D01*
X120170024Y-113357242D01*
X120120978Y-113449000D01*
X120091004Y-113505078D01*
X119984659Y-113634659D01*
X119855078Y-113741004D01*
X119855076Y-113741005D01*
X119707242Y-113820024D01*
X119546823Y-113868687D01*
X119421804Y-113881000D01*
X119338196Y-113881000D01*
X119213177Y-113868687D01*
X119052758Y-113820024D01*
X118904924Y-113741005D01*
X118904922Y-113741004D01*
X118775341Y-113634659D01*
X118668996Y-113505078D01*
X118639022Y-113449000D01*
X118589976Y-113357242D01*
X118541313Y-113196823D01*
X118524883Y-113030000D01*
X118541313Y-112863177D01*
X118589976Y-112702758D01*
X118668995Y-112554924D01*
X118668996Y-112554922D01*
X118775341Y-112425341D01*
X118904922Y-112318996D01*
X118920094Y-112310886D01*
X119052758Y-112239976D01*
X119213177Y-112191313D01*
X119338196Y-112179000D01*
X119421804Y-112179000D01*
X119546823Y-112191313D01*
X119546823Y-112191313D01*
G37*
G36*
X97956823Y-112191313D02*
G01*
X98117242Y-112239976D01*
X98249906Y-112310886D01*
X98265078Y-112318996D01*
X98394659Y-112425341D01*
X98501004Y-112554922D01*
X98501005Y-112554924D01*
X98580024Y-112702758D01*
X98628687Y-112863177D01*
X98645117Y-113030000D01*
X98628687Y-113196823D01*
X98580024Y-113357242D01*
X98530978Y-113449000D01*
X98501004Y-113505078D01*
X98394659Y-113634659D01*
X98265078Y-113741004D01*
X98265076Y-113741005D01*
X98117242Y-113820024D01*
X97956823Y-113868687D01*
X97831804Y-113881000D01*
X97748196Y-113881000D01*
X97623177Y-113868687D01*
X97462758Y-113820024D01*
X97314924Y-113741005D01*
X97314922Y-113741004D01*
X97185341Y-113634659D01*
X97078996Y-113505078D01*
X97049022Y-113449000D01*
X96999976Y-113357242D01*
X96951313Y-113196823D01*
X96934883Y-113030000D01*
X96951313Y-112863177D01*
X96999976Y-112702758D01*
X97078995Y-112554924D01*
X97078996Y-112554922D01*
X97185341Y-112425341D01*
X97314922Y-112318996D01*
X97330094Y-112310886D01*
X97462758Y-112239976D01*
X97623177Y-112191313D01*
X97748196Y-112179000D01*
X97831804Y-112179000D01*
X97956823Y-112191313D01*
X97956823Y-112191313D01*
G37*
G36*
X82716823Y-112191313D02*
G01*
X82877242Y-112239976D01*
X83009906Y-112310886D01*
X83025078Y-112318996D01*
X83154659Y-112425341D01*
X83261004Y-112554922D01*
X83261005Y-112554924D01*
X83340024Y-112702758D01*
X83388687Y-112863177D01*
X83405117Y-113030000D01*
X83388687Y-113196823D01*
X83340024Y-113357242D01*
X83290978Y-113449000D01*
X83261004Y-113505078D01*
X83154659Y-113634659D01*
X83025078Y-113741004D01*
X83025076Y-113741005D01*
X82877242Y-113820024D01*
X82716823Y-113868687D01*
X82591804Y-113881000D01*
X82508196Y-113881000D01*
X82383177Y-113868687D01*
X82222758Y-113820024D01*
X82074924Y-113741005D01*
X82074922Y-113741004D01*
X81945341Y-113634659D01*
X81838996Y-113505078D01*
X81809022Y-113449000D01*
X81759976Y-113357242D01*
X81711313Y-113196823D01*
X81694883Y-113030000D01*
X81711313Y-112863177D01*
X81759976Y-112702758D01*
X81838995Y-112554924D01*
X81838996Y-112554922D01*
X81945341Y-112425341D01*
X82074922Y-112318996D01*
X82090094Y-112310886D01*
X82222758Y-112239976D01*
X82383177Y-112191313D01*
X82508196Y-112179000D01*
X82591804Y-112179000D01*
X82716823Y-112191313D01*
X82716823Y-112191313D01*
G37*
G36*
X134786823Y-109651313D02*
G01*
X134947242Y-109699976D01*
X135079906Y-109770886D01*
X135095078Y-109778996D01*
X135224659Y-109885341D01*
X135331004Y-110014922D01*
X135331005Y-110014924D01*
X135410024Y-110162758D01*
X135458687Y-110323177D01*
X135475117Y-110490000D01*
X135458687Y-110656823D01*
X135410024Y-110817242D01*
X135339114Y-110949906D01*
X135331004Y-110965078D01*
X135224659Y-111094659D01*
X135095078Y-111201004D01*
X135095076Y-111201005D01*
X134947242Y-111280024D01*
X134786823Y-111328687D01*
X134661804Y-111341000D01*
X134578196Y-111341000D01*
X134453177Y-111328687D01*
X134292758Y-111280024D01*
X134144924Y-111201005D01*
X134144922Y-111201004D01*
X134015341Y-111094659D01*
X133908996Y-110965078D01*
X133900886Y-110949906D01*
X133829976Y-110817242D01*
X133781313Y-110656823D01*
X133764883Y-110490000D01*
X133781313Y-110323177D01*
X133829976Y-110162758D01*
X133908995Y-110014924D01*
X133908996Y-110014922D01*
X134015341Y-109885341D01*
X134144922Y-109778996D01*
X134160094Y-109770886D01*
X134292758Y-109699976D01*
X134453177Y-109651313D01*
X134578196Y-109639000D01*
X134661804Y-109639000D01*
X134786823Y-109651313D01*
X134786823Y-109651313D01*
G37*
G36*
X97956823Y-109651313D02*
G01*
X98117242Y-109699976D01*
X98249906Y-109770886D01*
X98265078Y-109778996D01*
X98394659Y-109885341D01*
X98501004Y-110014922D01*
X98501005Y-110014924D01*
X98580024Y-110162758D01*
X98628687Y-110323177D01*
X98645117Y-110490000D01*
X98628687Y-110656823D01*
X98580024Y-110817242D01*
X98509114Y-110949906D01*
X98501004Y-110965078D01*
X98394659Y-111094659D01*
X98265078Y-111201004D01*
X98265076Y-111201005D01*
X98117242Y-111280024D01*
X97956823Y-111328687D01*
X97831804Y-111341000D01*
X97748196Y-111341000D01*
X97623177Y-111328687D01*
X97462758Y-111280024D01*
X97314924Y-111201005D01*
X97314922Y-111201004D01*
X97185341Y-111094659D01*
X97078996Y-110965078D01*
X97070886Y-110949906D01*
X96999976Y-110817242D01*
X96951313Y-110656823D01*
X96934883Y-110490000D01*
X96951313Y-110323177D01*
X96999976Y-110162758D01*
X97078995Y-110014924D01*
X97078996Y-110014922D01*
X97185341Y-109885341D01*
X97314922Y-109778996D01*
X97330094Y-109770886D01*
X97462758Y-109699976D01*
X97623177Y-109651313D01*
X97748196Y-109639000D01*
X97831804Y-109639000D01*
X97956823Y-109651313D01*
X97956823Y-109651313D01*
G37*
G36*
X82716823Y-109651313D02*
G01*
X82877242Y-109699976D01*
X83009906Y-109770886D01*
X83025078Y-109778996D01*
X83154659Y-109885341D01*
X83261004Y-110014922D01*
X83261005Y-110014924D01*
X83340024Y-110162758D01*
X83388687Y-110323177D01*
X83405117Y-110490000D01*
X83388687Y-110656823D01*
X83340024Y-110817242D01*
X83269114Y-110949906D01*
X83261004Y-110965078D01*
X83154659Y-111094659D01*
X83025078Y-111201004D01*
X83025076Y-111201005D01*
X82877242Y-111280024D01*
X82716823Y-111328687D01*
X82591804Y-111341000D01*
X82508196Y-111341000D01*
X82383177Y-111328687D01*
X82222758Y-111280024D01*
X82074924Y-111201005D01*
X82074922Y-111201004D01*
X81945341Y-111094659D01*
X81838996Y-110965078D01*
X81830886Y-110949906D01*
X81759976Y-110817242D01*
X81711313Y-110656823D01*
X81694883Y-110490000D01*
X81711313Y-110323177D01*
X81759976Y-110162758D01*
X81838995Y-110014924D01*
X81838996Y-110014922D01*
X81945341Y-109885341D01*
X82074922Y-109778996D01*
X82090094Y-109770886D01*
X82222758Y-109699976D01*
X82383177Y-109651313D01*
X82508196Y-109639000D01*
X82591804Y-109639000D01*
X82716823Y-109651313D01*
X82716823Y-109651313D01*
G37*
G36*
X119546823Y-109651313D02*
G01*
X119707242Y-109699976D01*
X119839906Y-109770886D01*
X119855078Y-109778996D01*
X119984659Y-109885341D01*
X120091004Y-110014922D01*
X120091005Y-110014924D01*
X120170024Y-110162758D01*
X120218687Y-110323177D01*
X120235117Y-110490000D01*
X120218687Y-110656823D01*
X120170024Y-110817242D01*
X120099114Y-110949906D01*
X120091004Y-110965078D01*
X119984659Y-111094659D01*
X119855078Y-111201004D01*
X119855076Y-111201005D01*
X119707242Y-111280024D01*
X119546823Y-111328687D01*
X119421804Y-111341000D01*
X119338196Y-111341000D01*
X119213177Y-111328687D01*
X119052758Y-111280024D01*
X118904924Y-111201005D01*
X118904922Y-111201004D01*
X118775341Y-111094659D01*
X118668996Y-110965078D01*
X118660886Y-110949906D01*
X118589976Y-110817242D01*
X118541313Y-110656823D01*
X118524883Y-110490000D01*
X118541313Y-110323177D01*
X118589976Y-110162758D01*
X118668995Y-110014924D01*
X118668996Y-110014922D01*
X118775341Y-109885341D01*
X118904922Y-109778996D01*
X118920094Y-109770886D01*
X119052758Y-109699976D01*
X119213177Y-109651313D01*
X119338196Y-109639000D01*
X119421804Y-109639000D01*
X119546823Y-109651313D01*
X119546823Y-109651313D01*
G37*
G36*
X76956228Y-108401703D02*
G01*
X77111100Y-108465853D01*
X77250481Y-108558985D01*
X77369015Y-108677519D01*
X77462147Y-108816900D01*
X77526297Y-108971772D01*
X77559000Y-109136184D01*
X77559000Y-109303816D01*
X77526297Y-109468228D01*
X77462147Y-109623100D01*
X77369015Y-109762481D01*
X77250481Y-109881015D01*
X77111100Y-109974147D01*
X76956228Y-110038297D01*
X76791816Y-110071000D01*
X76624184Y-110071000D01*
X76459772Y-110038297D01*
X76304900Y-109974147D01*
X76165519Y-109881015D01*
X76046985Y-109762481D01*
X75953853Y-109623100D01*
X75889703Y-109468228D01*
X75857000Y-109303816D01*
X75857000Y-109136184D01*
X75889703Y-108971772D01*
X75953853Y-108816900D01*
X76046985Y-108677519D01*
X76165519Y-108558985D01*
X76304900Y-108465853D01*
X76459772Y-108401703D01*
X76624184Y-108369000D01*
X76791816Y-108369000D01*
X76956228Y-108401703D01*
X76956228Y-108401703D01*
G37*
G36*
X82716823Y-107111313D02*
G01*
X82877242Y-107159976D01*
X83009906Y-107230886D01*
X83025078Y-107238996D01*
X83154659Y-107345341D01*
X83261004Y-107474922D01*
X83261005Y-107474924D01*
X83340024Y-107622758D01*
X83388687Y-107783177D01*
X83405117Y-107950000D01*
X83388687Y-108116823D01*
X83340024Y-108277242D01*
X83290978Y-108369000D01*
X83261004Y-108425078D01*
X83154659Y-108554659D01*
X83025078Y-108661004D01*
X83025076Y-108661005D01*
X82877242Y-108740024D01*
X82716823Y-108788687D01*
X82591804Y-108801000D01*
X82508196Y-108801000D01*
X82383177Y-108788687D01*
X82222758Y-108740024D01*
X82074924Y-108661005D01*
X82074922Y-108661004D01*
X81945341Y-108554659D01*
X81838996Y-108425078D01*
X81809022Y-108369000D01*
X81759976Y-108277242D01*
X81711313Y-108116823D01*
X81694883Y-107950000D01*
X81711313Y-107783177D01*
X81759976Y-107622758D01*
X81838995Y-107474924D01*
X81838996Y-107474922D01*
X81945341Y-107345341D01*
X82074922Y-107238996D01*
X82090094Y-107230886D01*
X82222758Y-107159976D01*
X82383177Y-107111313D01*
X82508196Y-107099000D01*
X82591804Y-107099000D01*
X82716823Y-107111313D01*
X82716823Y-107111313D01*
G37*
G36*
X119546823Y-107111313D02*
G01*
X119707242Y-107159976D01*
X119839906Y-107230886D01*
X119855078Y-107238996D01*
X119984659Y-107345341D01*
X120091004Y-107474922D01*
X120091005Y-107474924D01*
X120170024Y-107622758D01*
X120218687Y-107783177D01*
X120235117Y-107950000D01*
X120218687Y-108116823D01*
X120170024Y-108277242D01*
X120120978Y-108369000D01*
X120091004Y-108425078D01*
X119984659Y-108554659D01*
X119855078Y-108661004D01*
X119855076Y-108661005D01*
X119707242Y-108740024D01*
X119546823Y-108788687D01*
X119421804Y-108801000D01*
X119338196Y-108801000D01*
X119213177Y-108788687D01*
X119052758Y-108740024D01*
X118904924Y-108661005D01*
X118904922Y-108661004D01*
X118775341Y-108554659D01*
X118668996Y-108425078D01*
X118639022Y-108369000D01*
X118589976Y-108277242D01*
X118541313Y-108116823D01*
X118524883Y-107950000D01*
X118541313Y-107783177D01*
X118589976Y-107622758D01*
X118668995Y-107474924D01*
X118668996Y-107474922D01*
X118775341Y-107345341D01*
X118904922Y-107238996D01*
X118920094Y-107230886D01*
X119052758Y-107159976D01*
X119213177Y-107111313D01*
X119338196Y-107099000D01*
X119421804Y-107099000D01*
X119546823Y-107111313D01*
X119546823Y-107111313D01*
G37*
G36*
X97956823Y-107111313D02*
G01*
X98117242Y-107159976D01*
X98249906Y-107230886D01*
X98265078Y-107238996D01*
X98394659Y-107345341D01*
X98501004Y-107474922D01*
X98501005Y-107474924D01*
X98580024Y-107622758D01*
X98628687Y-107783177D01*
X98645117Y-107950000D01*
X98628687Y-108116823D01*
X98580024Y-108277242D01*
X98530978Y-108369000D01*
X98501004Y-108425078D01*
X98394659Y-108554659D01*
X98265078Y-108661004D01*
X98265076Y-108661005D01*
X98117242Y-108740024D01*
X97956823Y-108788687D01*
X97831804Y-108801000D01*
X97748196Y-108801000D01*
X97623177Y-108788687D01*
X97462758Y-108740024D01*
X97314924Y-108661005D01*
X97314922Y-108661004D01*
X97185341Y-108554659D01*
X97078996Y-108425078D01*
X97049022Y-108369000D01*
X96999976Y-108277242D01*
X96951313Y-108116823D01*
X96934883Y-107950000D01*
X96951313Y-107783177D01*
X96999976Y-107622758D01*
X97078995Y-107474924D01*
X97078996Y-107474922D01*
X97185341Y-107345341D01*
X97314922Y-107238996D01*
X97330094Y-107230886D01*
X97462758Y-107159976D01*
X97623177Y-107111313D01*
X97748196Y-107099000D01*
X97831804Y-107099000D01*
X97956823Y-107111313D01*
X97956823Y-107111313D01*
G37*
G36*
X134786823Y-107111313D02*
G01*
X134947242Y-107159976D01*
X135079906Y-107230886D01*
X135095078Y-107238996D01*
X135224659Y-107345341D01*
X135331004Y-107474922D01*
X135331005Y-107474924D01*
X135410024Y-107622758D01*
X135458687Y-107783177D01*
X135475117Y-107950000D01*
X135458687Y-108116823D01*
X135410024Y-108277242D01*
X135360978Y-108369000D01*
X135331004Y-108425078D01*
X135224659Y-108554659D01*
X135095078Y-108661004D01*
X135095076Y-108661005D01*
X134947242Y-108740024D01*
X134786823Y-108788687D01*
X134661804Y-108801000D01*
X134578196Y-108801000D01*
X134453177Y-108788687D01*
X134292758Y-108740024D01*
X134144924Y-108661005D01*
X134144922Y-108661004D01*
X134015341Y-108554659D01*
X133908996Y-108425078D01*
X133879022Y-108369000D01*
X133829976Y-108277242D01*
X133781313Y-108116823D01*
X133764883Y-107950000D01*
X133781313Y-107783177D01*
X133829976Y-107622758D01*
X133908995Y-107474924D01*
X133908996Y-107474922D01*
X134015341Y-107345341D01*
X134144922Y-107238996D01*
X134160094Y-107230886D01*
X134292758Y-107159976D01*
X134453177Y-107111313D01*
X134578196Y-107099000D01*
X134661804Y-107099000D01*
X134786823Y-107111313D01*
X134786823Y-107111313D01*
G37*
G36*
X146874000Y-106361000D02*
G01*
X144972000Y-106361000D01*
X144972000Y-104459000D01*
X146874000Y-104459000D01*
X146874000Y-106361000D01*
X146874000Y-106361000D01*
G37*
G36*
X143660395Y-104495546D02*
G01*
X143833466Y-104567234D01*
X143839572Y-104571314D01*
X143989227Y-104671310D01*
X144121690Y-104803773D01*
X144174081Y-104882182D01*
X144225766Y-104959534D01*
X144297454Y-105132605D01*
X144334000Y-105316333D01*
X144334000Y-105503667D01*
X144297454Y-105687395D01*
X144225766Y-105860466D01*
X144225765Y-105860467D01*
X144121690Y-106016227D01*
X143989227Y-106148690D01*
X143912400Y-106200024D01*
X143833466Y-106252766D01*
X143660395Y-106324454D01*
X143476667Y-106361000D01*
X143289333Y-106361000D01*
X143105605Y-106324454D01*
X142932534Y-106252766D01*
X142853600Y-106200024D01*
X142776773Y-106148690D01*
X142644310Y-106016227D01*
X142540235Y-105860467D01*
X142540234Y-105860466D01*
X142468546Y-105687395D01*
X142432000Y-105503667D01*
X142432000Y-105316333D01*
X142468546Y-105132605D01*
X142540234Y-104959534D01*
X142591919Y-104882182D01*
X142644310Y-104803773D01*
X142776773Y-104671310D01*
X142926428Y-104571314D01*
X142932534Y-104567234D01*
X143105605Y-104495546D01*
X143289333Y-104459000D01*
X143476667Y-104459000D01*
X143660395Y-104495546D01*
X143660395Y-104495546D01*
G37*
G36*
X134786823Y-104571313D02*
G01*
X134947242Y-104619976D01*
X135043279Y-104671309D01*
X135095078Y-104698996D01*
X135224659Y-104805341D01*
X135331004Y-104934922D01*
X135331005Y-104934924D01*
X135410024Y-105082758D01*
X135458687Y-105243177D01*
X135475117Y-105410000D01*
X135458687Y-105576823D01*
X135410024Y-105737242D01*
X135344159Y-105860466D01*
X135331004Y-105885078D01*
X135224659Y-106014659D01*
X135095078Y-106121004D01*
X135095076Y-106121005D01*
X134947242Y-106200024D01*
X134786823Y-106248687D01*
X134661804Y-106261000D01*
X134578196Y-106261000D01*
X134453177Y-106248687D01*
X134292758Y-106200024D01*
X134144924Y-106121005D01*
X134144922Y-106121004D01*
X134015341Y-106014659D01*
X133908996Y-105885078D01*
X133895841Y-105860466D01*
X133829976Y-105737242D01*
X133781313Y-105576823D01*
X133764883Y-105410000D01*
X133781313Y-105243177D01*
X133829976Y-105082758D01*
X133908995Y-104934924D01*
X133908996Y-104934922D01*
X134015341Y-104805341D01*
X134144922Y-104698996D01*
X134196721Y-104671309D01*
X134292758Y-104619976D01*
X134453177Y-104571313D01*
X134578196Y-104559000D01*
X134661804Y-104559000D01*
X134786823Y-104571313D01*
X134786823Y-104571313D01*
G37*
G36*
X97956823Y-104571313D02*
G01*
X98117242Y-104619976D01*
X98213279Y-104671309D01*
X98265078Y-104698996D01*
X98394659Y-104805341D01*
X98501004Y-104934922D01*
X98501005Y-104934924D01*
X98580024Y-105082758D01*
X98628687Y-105243177D01*
X98645117Y-105410000D01*
X98628687Y-105576823D01*
X98580024Y-105737242D01*
X98514159Y-105860466D01*
X98501004Y-105885078D01*
X98394659Y-106014659D01*
X98265078Y-106121004D01*
X98265076Y-106121005D01*
X98117242Y-106200024D01*
X97956823Y-106248687D01*
X97831804Y-106261000D01*
X97748196Y-106261000D01*
X97623177Y-106248687D01*
X97462758Y-106200024D01*
X97314924Y-106121005D01*
X97314922Y-106121004D01*
X97185341Y-106014659D01*
X97078996Y-105885078D01*
X97065841Y-105860466D01*
X96999976Y-105737242D01*
X96951313Y-105576823D01*
X96934883Y-105410000D01*
X96951313Y-105243177D01*
X96999976Y-105082758D01*
X97078995Y-104934924D01*
X97078996Y-104934922D01*
X97185341Y-104805341D01*
X97314922Y-104698996D01*
X97366721Y-104671309D01*
X97462758Y-104619976D01*
X97623177Y-104571313D01*
X97748196Y-104559000D01*
X97831804Y-104559000D01*
X97956823Y-104571313D01*
X97956823Y-104571313D01*
G37*
G36*
X82716823Y-104571313D02*
G01*
X82877242Y-104619976D01*
X82973279Y-104671309D01*
X83025078Y-104698996D01*
X83154659Y-104805341D01*
X83261004Y-104934922D01*
X83261005Y-104934924D01*
X83340024Y-105082758D01*
X83388687Y-105243177D01*
X83405117Y-105410000D01*
X83388687Y-105576823D01*
X83340024Y-105737242D01*
X83274159Y-105860466D01*
X83261004Y-105885078D01*
X83154659Y-106014659D01*
X83025078Y-106121004D01*
X83025076Y-106121005D01*
X82877242Y-106200024D01*
X82716823Y-106248687D01*
X82591804Y-106261000D01*
X82508196Y-106261000D01*
X82383177Y-106248687D01*
X82222758Y-106200024D01*
X82074924Y-106121005D01*
X82074922Y-106121004D01*
X81945341Y-106014659D01*
X81838996Y-105885078D01*
X81825841Y-105860466D01*
X81759976Y-105737242D01*
X81711313Y-105576823D01*
X81694883Y-105410000D01*
X81711313Y-105243177D01*
X81759976Y-105082758D01*
X81838995Y-104934924D01*
X81838996Y-104934922D01*
X81945341Y-104805341D01*
X82074922Y-104698996D01*
X82126721Y-104671309D01*
X82222758Y-104619976D01*
X82383177Y-104571313D01*
X82508196Y-104559000D01*
X82591804Y-104559000D01*
X82716823Y-104571313D01*
X82716823Y-104571313D01*
G37*
G36*
X119546823Y-104571313D02*
G01*
X119707242Y-104619976D01*
X119803279Y-104671309D01*
X119855078Y-104698996D01*
X119984659Y-104805341D01*
X120091004Y-104934922D01*
X120091005Y-104934924D01*
X120170024Y-105082758D01*
X120218687Y-105243177D01*
X120235117Y-105410000D01*
X120218687Y-105576823D01*
X120170024Y-105737242D01*
X120104159Y-105860466D01*
X120091004Y-105885078D01*
X119984659Y-106014659D01*
X119855078Y-106121004D01*
X119855076Y-106121005D01*
X119707242Y-106200024D01*
X119546823Y-106248687D01*
X119421804Y-106261000D01*
X119338196Y-106261000D01*
X119213177Y-106248687D01*
X119052758Y-106200024D01*
X118904924Y-106121005D01*
X118904922Y-106121004D01*
X118775341Y-106014659D01*
X118668996Y-105885078D01*
X118655841Y-105860466D01*
X118589976Y-105737242D01*
X118541313Y-105576823D01*
X118524883Y-105410000D01*
X118541313Y-105243177D01*
X118589976Y-105082758D01*
X118668995Y-104934924D01*
X118668996Y-104934922D01*
X118775341Y-104805341D01*
X118904922Y-104698996D01*
X118956721Y-104671309D01*
X119052758Y-104619976D01*
X119213177Y-104571313D01*
X119338196Y-104559000D01*
X119421804Y-104559000D01*
X119546823Y-104571313D01*
X119546823Y-104571313D01*
G37*
G36*
X134786823Y-102031313D02*
G01*
X134947242Y-102079976D01*
X135079906Y-102150886D01*
X135095078Y-102158996D01*
X135224659Y-102265341D01*
X135331004Y-102394922D01*
X135331005Y-102394924D01*
X135410024Y-102542758D01*
X135458687Y-102703177D01*
X135475117Y-102870000D01*
X135458687Y-103036823D01*
X135410024Y-103197242D01*
X135339114Y-103329906D01*
X135331004Y-103345078D01*
X135224659Y-103474659D01*
X135095078Y-103581004D01*
X135095076Y-103581005D01*
X134947242Y-103660024D01*
X134786823Y-103708687D01*
X134661804Y-103721000D01*
X134578196Y-103721000D01*
X134453177Y-103708687D01*
X134292758Y-103660024D01*
X134144924Y-103581005D01*
X134144922Y-103581004D01*
X134015341Y-103474659D01*
X133908996Y-103345078D01*
X133900886Y-103329906D01*
X133829976Y-103197242D01*
X133781313Y-103036823D01*
X133764883Y-102870000D01*
X133781313Y-102703177D01*
X133829976Y-102542758D01*
X133908995Y-102394924D01*
X133908996Y-102394922D01*
X134015341Y-102265341D01*
X134144922Y-102158996D01*
X134160094Y-102150886D01*
X134292758Y-102079976D01*
X134453177Y-102031313D01*
X134578196Y-102019000D01*
X134661804Y-102019000D01*
X134786823Y-102031313D01*
X134786823Y-102031313D01*
G37*
G36*
X82716823Y-102031313D02*
G01*
X82877242Y-102079976D01*
X83009906Y-102150886D01*
X83025078Y-102158996D01*
X83154659Y-102265341D01*
X83261004Y-102394922D01*
X83261005Y-102394924D01*
X83340024Y-102542758D01*
X83388687Y-102703177D01*
X83405117Y-102870000D01*
X83388687Y-103036823D01*
X83340024Y-103197242D01*
X83269114Y-103329906D01*
X83261004Y-103345078D01*
X83154659Y-103474659D01*
X83025078Y-103581004D01*
X83025076Y-103581005D01*
X82877242Y-103660024D01*
X82716823Y-103708687D01*
X82591804Y-103721000D01*
X82508196Y-103721000D01*
X82383177Y-103708687D01*
X82222758Y-103660024D01*
X82074924Y-103581005D01*
X82074922Y-103581004D01*
X81945341Y-103474659D01*
X81838996Y-103345078D01*
X81830886Y-103329906D01*
X81759976Y-103197242D01*
X81711313Y-103036823D01*
X81694883Y-102870000D01*
X81711313Y-102703177D01*
X81759976Y-102542758D01*
X81838995Y-102394924D01*
X81838996Y-102394922D01*
X81945341Y-102265341D01*
X82074922Y-102158996D01*
X82090094Y-102150886D01*
X82222758Y-102079976D01*
X82383177Y-102031313D01*
X82508196Y-102019000D01*
X82591804Y-102019000D01*
X82716823Y-102031313D01*
X82716823Y-102031313D01*
G37*
G36*
X97956823Y-102031313D02*
G01*
X98117242Y-102079976D01*
X98249906Y-102150886D01*
X98265078Y-102158996D01*
X98394659Y-102265341D01*
X98501004Y-102394922D01*
X98501005Y-102394924D01*
X98580024Y-102542758D01*
X98628687Y-102703177D01*
X98645117Y-102870000D01*
X98628687Y-103036823D01*
X98580024Y-103197242D01*
X98509114Y-103329906D01*
X98501004Y-103345078D01*
X98394659Y-103474659D01*
X98265078Y-103581004D01*
X98265076Y-103581005D01*
X98117242Y-103660024D01*
X97956823Y-103708687D01*
X97831804Y-103721000D01*
X97748196Y-103721000D01*
X97623177Y-103708687D01*
X97462758Y-103660024D01*
X97314924Y-103581005D01*
X97314922Y-103581004D01*
X97185341Y-103474659D01*
X97078996Y-103345078D01*
X97070886Y-103329906D01*
X96999976Y-103197242D01*
X96951313Y-103036823D01*
X96934883Y-102870000D01*
X96951313Y-102703177D01*
X96999976Y-102542758D01*
X97078995Y-102394924D01*
X97078996Y-102394922D01*
X97185341Y-102265341D01*
X97314922Y-102158996D01*
X97330094Y-102150886D01*
X97462758Y-102079976D01*
X97623177Y-102031313D01*
X97748196Y-102019000D01*
X97831804Y-102019000D01*
X97956823Y-102031313D01*
X97956823Y-102031313D01*
G37*
G36*
X119546823Y-102031313D02*
G01*
X119707242Y-102079976D01*
X119839906Y-102150886D01*
X119855078Y-102158996D01*
X119984659Y-102265341D01*
X120091004Y-102394922D01*
X120091005Y-102394924D01*
X120170024Y-102542758D01*
X120218687Y-102703177D01*
X120235117Y-102870000D01*
X120218687Y-103036823D01*
X120170024Y-103197242D01*
X120099114Y-103329906D01*
X120091004Y-103345078D01*
X119984659Y-103474659D01*
X119855078Y-103581004D01*
X119855076Y-103581005D01*
X119707242Y-103660024D01*
X119546823Y-103708687D01*
X119421804Y-103721000D01*
X119338196Y-103721000D01*
X119213177Y-103708687D01*
X119052758Y-103660024D01*
X118904924Y-103581005D01*
X118904922Y-103581004D01*
X118775341Y-103474659D01*
X118668996Y-103345078D01*
X118660886Y-103329906D01*
X118589976Y-103197242D01*
X118541313Y-103036823D01*
X118524883Y-102870000D01*
X118541313Y-102703177D01*
X118589976Y-102542758D01*
X118668995Y-102394924D01*
X118668996Y-102394922D01*
X118775341Y-102265341D01*
X118904922Y-102158996D01*
X118920094Y-102150886D01*
X119052758Y-102079976D01*
X119213177Y-102031313D01*
X119338196Y-102019000D01*
X119421804Y-102019000D01*
X119546823Y-102031313D01*
X119546823Y-102031313D01*
G37*
G36*
X134786823Y-99491313D02*
G01*
X134947242Y-99539976D01*
X135079906Y-99610886D01*
X135095078Y-99618996D01*
X135224659Y-99725341D01*
X135331004Y-99854922D01*
X135331005Y-99854924D01*
X135410024Y-100002758D01*
X135458687Y-100163177D01*
X135475117Y-100330000D01*
X135458687Y-100496823D01*
X135410024Y-100657242D01*
X135339114Y-100789906D01*
X135331004Y-100805078D01*
X135224659Y-100934659D01*
X135095078Y-101041004D01*
X135095076Y-101041005D01*
X134947242Y-101120024D01*
X134786823Y-101168687D01*
X134661804Y-101181000D01*
X134578196Y-101181000D01*
X134453177Y-101168687D01*
X134292758Y-101120024D01*
X134144924Y-101041005D01*
X134144922Y-101041004D01*
X134015341Y-100934659D01*
X133908996Y-100805078D01*
X133900886Y-100789906D01*
X133829976Y-100657242D01*
X133781313Y-100496823D01*
X133764883Y-100330000D01*
X133781313Y-100163177D01*
X133829976Y-100002758D01*
X133908995Y-99854924D01*
X133908996Y-99854922D01*
X134015341Y-99725341D01*
X134144922Y-99618996D01*
X134160094Y-99610886D01*
X134292758Y-99539976D01*
X134453177Y-99491313D01*
X134578196Y-99479000D01*
X134661804Y-99479000D01*
X134786823Y-99491313D01*
X134786823Y-99491313D01*
G37*
G36*
X82716823Y-99491313D02*
G01*
X82877242Y-99539976D01*
X83009906Y-99610886D01*
X83025078Y-99618996D01*
X83154659Y-99725341D01*
X83261004Y-99854922D01*
X83261005Y-99854924D01*
X83340024Y-100002758D01*
X83388687Y-100163177D01*
X83405117Y-100330000D01*
X83388687Y-100496823D01*
X83340024Y-100657242D01*
X83269114Y-100789906D01*
X83261004Y-100805078D01*
X83154659Y-100934659D01*
X83025078Y-101041004D01*
X83025076Y-101041005D01*
X82877242Y-101120024D01*
X82716823Y-101168687D01*
X82591804Y-101181000D01*
X82508196Y-101181000D01*
X82383177Y-101168687D01*
X82222758Y-101120024D01*
X82074924Y-101041005D01*
X82074922Y-101041004D01*
X81945341Y-100934659D01*
X81838996Y-100805078D01*
X81830886Y-100789906D01*
X81759976Y-100657242D01*
X81711313Y-100496823D01*
X81694883Y-100330000D01*
X81711313Y-100163177D01*
X81759976Y-100002758D01*
X81838995Y-99854924D01*
X81838996Y-99854922D01*
X81945341Y-99725341D01*
X82074922Y-99618996D01*
X82090094Y-99610886D01*
X82222758Y-99539976D01*
X82383177Y-99491313D01*
X82508196Y-99479000D01*
X82591804Y-99479000D01*
X82716823Y-99491313D01*
X82716823Y-99491313D01*
G37*
G36*
X97956823Y-99491313D02*
G01*
X98117242Y-99539976D01*
X98249906Y-99610886D01*
X98265078Y-99618996D01*
X98394659Y-99725341D01*
X98501004Y-99854922D01*
X98501005Y-99854924D01*
X98580024Y-100002758D01*
X98628687Y-100163177D01*
X98645117Y-100330000D01*
X98628687Y-100496823D01*
X98580024Y-100657242D01*
X98509114Y-100789906D01*
X98501004Y-100805078D01*
X98394659Y-100934659D01*
X98265078Y-101041004D01*
X98265076Y-101041005D01*
X98117242Y-101120024D01*
X97956823Y-101168687D01*
X97831804Y-101181000D01*
X97748196Y-101181000D01*
X97623177Y-101168687D01*
X97462758Y-101120024D01*
X97314924Y-101041005D01*
X97314922Y-101041004D01*
X97185341Y-100934659D01*
X97078996Y-100805078D01*
X97070886Y-100789906D01*
X96999976Y-100657242D01*
X96951313Y-100496823D01*
X96934883Y-100330000D01*
X96951313Y-100163177D01*
X96999976Y-100002758D01*
X97078995Y-99854924D01*
X97078996Y-99854922D01*
X97185341Y-99725341D01*
X97314922Y-99618996D01*
X97330094Y-99610886D01*
X97462758Y-99539976D01*
X97623177Y-99491313D01*
X97748196Y-99479000D01*
X97831804Y-99479000D01*
X97956823Y-99491313D01*
X97956823Y-99491313D01*
G37*
G36*
X119546823Y-99491313D02*
G01*
X119707242Y-99539976D01*
X119839906Y-99610886D01*
X119855078Y-99618996D01*
X119984659Y-99725341D01*
X120091004Y-99854922D01*
X120091005Y-99854924D01*
X120170024Y-100002758D01*
X120218687Y-100163177D01*
X120235117Y-100330000D01*
X120218687Y-100496823D01*
X120170024Y-100657242D01*
X120099114Y-100789906D01*
X120091004Y-100805078D01*
X119984659Y-100934659D01*
X119855078Y-101041004D01*
X119855076Y-101041005D01*
X119707242Y-101120024D01*
X119546823Y-101168687D01*
X119421804Y-101181000D01*
X119338196Y-101181000D01*
X119213177Y-101168687D01*
X119052758Y-101120024D01*
X118904924Y-101041005D01*
X118904922Y-101041004D01*
X118775341Y-100934659D01*
X118668996Y-100805078D01*
X118660886Y-100789906D01*
X118589976Y-100657242D01*
X118541313Y-100496823D01*
X118524883Y-100330000D01*
X118541313Y-100163177D01*
X118589976Y-100002758D01*
X118668995Y-99854924D01*
X118668996Y-99854922D01*
X118775341Y-99725341D01*
X118904922Y-99618996D01*
X118920094Y-99610886D01*
X119052758Y-99539976D01*
X119213177Y-99491313D01*
X119338196Y-99479000D01*
X119421804Y-99479000D01*
X119546823Y-99491313D01*
X119546823Y-99491313D01*
G37*
G36*
X134786823Y-96951313D02*
G01*
X134947242Y-96999976D01*
X135006258Y-97031521D01*
X135095078Y-97078996D01*
X135224659Y-97185341D01*
X135331004Y-97314922D01*
X135331005Y-97314924D01*
X135410024Y-97462758D01*
X135458687Y-97623177D01*
X135475117Y-97790000D01*
X135458687Y-97956823D01*
X135410024Y-98117242D01*
X135339114Y-98249906D01*
X135331004Y-98265078D01*
X135224659Y-98394659D01*
X135095078Y-98501004D01*
X135095076Y-98501005D01*
X134947242Y-98580024D01*
X134786823Y-98628687D01*
X134661804Y-98641000D01*
X134578196Y-98641000D01*
X134453177Y-98628687D01*
X134292758Y-98580024D01*
X134144924Y-98501005D01*
X134144922Y-98501004D01*
X134015341Y-98394659D01*
X133908996Y-98265078D01*
X133900886Y-98249906D01*
X133829976Y-98117242D01*
X133781313Y-97956823D01*
X133764883Y-97790000D01*
X133781313Y-97623177D01*
X133829976Y-97462758D01*
X133908995Y-97314924D01*
X133908996Y-97314922D01*
X134015341Y-97185341D01*
X134144922Y-97078996D01*
X134233742Y-97031521D01*
X134292758Y-96999976D01*
X134453177Y-96951313D01*
X134578196Y-96939000D01*
X134661804Y-96939000D01*
X134786823Y-96951313D01*
X134786823Y-96951313D01*
G37*
G36*
X119546823Y-96951313D02*
G01*
X119707242Y-96999976D01*
X119766258Y-97031521D01*
X119855078Y-97078996D01*
X119984659Y-97185341D01*
X120091004Y-97314922D01*
X120091005Y-97314924D01*
X120170024Y-97462758D01*
X120218687Y-97623177D01*
X120235117Y-97790000D01*
X120218687Y-97956823D01*
X120170024Y-98117242D01*
X120099114Y-98249906D01*
X120091004Y-98265078D01*
X119984659Y-98394659D01*
X119855078Y-98501004D01*
X119855076Y-98501005D01*
X119707242Y-98580024D01*
X119546823Y-98628687D01*
X119421804Y-98641000D01*
X119338196Y-98641000D01*
X119213177Y-98628687D01*
X119052758Y-98580024D01*
X118904924Y-98501005D01*
X118904922Y-98501004D01*
X118775341Y-98394659D01*
X118668996Y-98265078D01*
X118660886Y-98249906D01*
X118589976Y-98117242D01*
X118541313Y-97956823D01*
X118524883Y-97790000D01*
X118541313Y-97623177D01*
X118589976Y-97462758D01*
X118668995Y-97314924D01*
X118668996Y-97314922D01*
X118775341Y-97185341D01*
X118904922Y-97078996D01*
X118993742Y-97031521D01*
X119052758Y-96999976D01*
X119213177Y-96951313D01*
X119338196Y-96939000D01*
X119421804Y-96939000D01*
X119546823Y-96951313D01*
X119546823Y-96951313D01*
G37*
G36*
X82716823Y-96951313D02*
G01*
X82877242Y-96999976D01*
X82936258Y-97031521D01*
X83025078Y-97078996D01*
X83154659Y-97185341D01*
X83261004Y-97314922D01*
X83261005Y-97314924D01*
X83340024Y-97462758D01*
X83388687Y-97623177D01*
X83405117Y-97790000D01*
X83388687Y-97956823D01*
X83340024Y-98117242D01*
X83269114Y-98249906D01*
X83261004Y-98265078D01*
X83154659Y-98394659D01*
X83025078Y-98501004D01*
X83025076Y-98501005D01*
X82877242Y-98580024D01*
X82716823Y-98628687D01*
X82591804Y-98641000D01*
X82508196Y-98641000D01*
X82383177Y-98628687D01*
X82222758Y-98580024D01*
X82074924Y-98501005D01*
X82074922Y-98501004D01*
X81945341Y-98394659D01*
X81838996Y-98265078D01*
X81830886Y-98249906D01*
X81759976Y-98117242D01*
X81711313Y-97956823D01*
X81694883Y-97790000D01*
X81711313Y-97623177D01*
X81759976Y-97462758D01*
X81838995Y-97314924D01*
X81838996Y-97314922D01*
X81945341Y-97185341D01*
X82074922Y-97078996D01*
X82163742Y-97031521D01*
X82222758Y-96999976D01*
X82383177Y-96951313D01*
X82508196Y-96939000D01*
X82591804Y-96939000D01*
X82716823Y-96951313D01*
X82716823Y-96951313D01*
G37*
G36*
X97956823Y-96951313D02*
G01*
X98117242Y-96999976D01*
X98176258Y-97031521D01*
X98265078Y-97078996D01*
X98394659Y-97185341D01*
X98501004Y-97314922D01*
X98501005Y-97314924D01*
X98580024Y-97462758D01*
X98628687Y-97623177D01*
X98645117Y-97790000D01*
X98628687Y-97956823D01*
X98580024Y-98117242D01*
X98509114Y-98249906D01*
X98501004Y-98265078D01*
X98394659Y-98394659D01*
X98265078Y-98501004D01*
X98265076Y-98501005D01*
X98117242Y-98580024D01*
X97956823Y-98628687D01*
X97831804Y-98641000D01*
X97748196Y-98641000D01*
X97623177Y-98628687D01*
X97462758Y-98580024D01*
X97314924Y-98501005D01*
X97314922Y-98501004D01*
X97185341Y-98394659D01*
X97078996Y-98265078D01*
X97070886Y-98249906D01*
X96999976Y-98117242D01*
X96951313Y-97956823D01*
X96934883Y-97790000D01*
X96951313Y-97623177D01*
X96999976Y-97462758D01*
X97078995Y-97314924D01*
X97078996Y-97314922D01*
X97185341Y-97185341D01*
X97314922Y-97078996D01*
X97403742Y-97031521D01*
X97462758Y-96999976D01*
X97623177Y-96951313D01*
X97748196Y-96939000D01*
X97831804Y-96939000D01*
X97956823Y-96951313D01*
X97956823Y-96951313D01*
G37*
G36*
X145839000Y-94531000D02*
G01*
X145610735Y-94531000D01*
X145586349Y-94533402D01*
X145562900Y-94540515D01*
X145541289Y-94552066D01*
X145522347Y-94567611D01*
X145506802Y-94586553D01*
X145495251Y-94608164D01*
X145488138Y-94631613D01*
X145485736Y-94655999D01*
X145488138Y-94680385D01*
X145495251Y-94703834D01*
X145506802Y-94725445D01*
X145522347Y-94744387D01*
X145541289Y-94759932D01*
X145551802Y-94766233D01*
X145595600Y-94789644D01*
X145595602Y-94789645D01*
X145595601Y-94789645D01*
X145679501Y-94858499D01*
X145748357Y-94942400D01*
X145784995Y-95010945D01*
X145799521Y-95038121D01*
X145831027Y-95141985D01*
X145841666Y-95250000D01*
X145831027Y-95358015D01*
X145799521Y-95461879D01*
X145799519Y-95461882D01*
X145748357Y-95557600D01*
X145679501Y-95641501D01*
X145595600Y-95710357D01*
X145527055Y-95746995D01*
X145499879Y-95761521D01*
X145487131Y-95765388D01*
X145464504Y-95774760D01*
X145444130Y-95788374D01*
X145426803Y-95805701D01*
X145413189Y-95826075D01*
X145403812Y-95848714D01*
X145399031Y-95872747D01*
X145399031Y-95897251D01*
X145403811Y-95921285D01*
X145413188Y-95943924D01*
X145426802Y-95964298D01*
X145444129Y-95981625D01*
X145464503Y-95995239D01*
X145487131Y-96004612D01*
X145499879Y-96008479D01*
X145527055Y-96023005D01*
X145595600Y-96059643D01*
X145679501Y-96128499D01*
X145748357Y-96212400D01*
X145784995Y-96280945D01*
X145799521Y-96308121D01*
X145831027Y-96411985D01*
X145841666Y-96520000D01*
X145831027Y-96628015D01*
X145799521Y-96731879D01*
X145799519Y-96731882D01*
X145748357Y-96827600D01*
X145679501Y-96911501D01*
X145595600Y-96980357D01*
X145527055Y-97016995D01*
X145499879Y-97031521D01*
X145396015Y-97063027D01*
X145315067Y-97071000D01*
X145260933Y-97071000D01*
X145179985Y-97063027D01*
X145076121Y-97031521D01*
X145048945Y-97016995D01*
X144980400Y-96980357D01*
X144896499Y-96911501D01*
X144827643Y-96827600D01*
X144776481Y-96731882D01*
X144776479Y-96731879D01*
X144744973Y-96628015D01*
X144734334Y-96520000D01*
X144744973Y-96411985D01*
X144776479Y-96308121D01*
X144791005Y-96280945D01*
X144827643Y-96212400D01*
X144896499Y-96128499D01*
X144980400Y-96059643D01*
X145048945Y-96023005D01*
X145076121Y-96008479D01*
X145088869Y-96004612D01*
X145111496Y-95995240D01*
X145131870Y-95981626D01*
X145149197Y-95964299D01*
X145162811Y-95943925D01*
X145172188Y-95921286D01*
X145176969Y-95897253D01*
X145176969Y-95872749D01*
X145172189Y-95848715D01*
X145162812Y-95826076D01*
X145149198Y-95805702D01*
X145131871Y-95788375D01*
X145111497Y-95774761D01*
X145088869Y-95765388D01*
X145076121Y-95761521D01*
X145048945Y-95746995D01*
X144980400Y-95710357D01*
X144896499Y-95641501D01*
X144827643Y-95557600D01*
X144776481Y-95461882D01*
X144776479Y-95461879D01*
X144744973Y-95358015D01*
X144734334Y-95250000D01*
X144744973Y-95141985D01*
X144776479Y-95038121D01*
X144791005Y-95010945D01*
X144827643Y-94942400D01*
X144896499Y-94858499D01*
X144980399Y-94789645D01*
X144980398Y-94789645D01*
X144980400Y-94789644D01*
X145024193Y-94766236D01*
X145044563Y-94752625D01*
X145061890Y-94735298D01*
X145075504Y-94714924D01*
X145084881Y-94692285D01*
X145089662Y-94668252D01*
X145089662Y-94643748D01*
X145084882Y-94619714D01*
X145075505Y-94597076D01*
X145061891Y-94576701D01*
X145044564Y-94559374D01*
X145024190Y-94545760D01*
X145001551Y-94536383D01*
X144977518Y-94531602D01*
X144965265Y-94531000D01*
X144737000Y-94531000D01*
X144737000Y-93429000D01*
X145839000Y-93429000D01*
X145839000Y-94531000D01*
X145839000Y-94531000D01*
G37*
G36*
X82716823Y-94411313D02*
G01*
X82877242Y-94459976D01*
X83009906Y-94530886D01*
X83025078Y-94538996D01*
X83154659Y-94645341D01*
X83261004Y-94774922D01*
X83261005Y-94774924D01*
X83340024Y-94922758D01*
X83388687Y-95083177D01*
X83405117Y-95250000D01*
X83388687Y-95416823D01*
X83340024Y-95577242D01*
X83305677Y-95641501D01*
X83261004Y-95725078D01*
X83154659Y-95854659D01*
X83025078Y-95961004D01*
X83025076Y-95961005D01*
X82877242Y-96040024D01*
X82716823Y-96088687D01*
X82591804Y-96101000D01*
X82508196Y-96101000D01*
X82383177Y-96088687D01*
X82222758Y-96040024D01*
X82074924Y-95961005D01*
X82074922Y-95961004D01*
X81945341Y-95854659D01*
X81838996Y-95725078D01*
X81794323Y-95641501D01*
X81759976Y-95577242D01*
X81711313Y-95416823D01*
X81694883Y-95250000D01*
X81711313Y-95083177D01*
X81759976Y-94922758D01*
X81838995Y-94774924D01*
X81838996Y-94774922D01*
X81945341Y-94645341D01*
X82074922Y-94538996D01*
X82090094Y-94530886D01*
X82222758Y-94459976D01*
X82383177Y-94411313D01*
X82508196Y-94399000D01*
X82591804Y-94399000D01*
X82716823Y-94411313D01*
X82716823Y-94411313D01*
G37*
G36*
X120231000Y-96101000D02*
G01*
X118529000Y-96101000D01*
X118529000Y-94399000D01*
X120231000Y-94399000D01*
X120231000Y-96101000D01*
X120231000Y-96101000D01*
G37*
G36*
X134786823Y-94411313D02*
G01*
X134947242Y-94459976D01*
X135079906Y-94530886D01*
X135095078Y-94538996D01*
X135224659Y-94645341D01*
X135331004Y-94774922D01*
X135331005Y-94774924D01*
X135410024Y-94922758D01*
X135458687Y-95083177D01*
X135475117Y-95250000D01*
X135458687Y-95416823D01*
X135410024Y-95577242D01*
X135375677Y-95641501D01*
X135331004Y-95725078D01*
X135224659Y-95854659D01*
X135095078Y-95961004D01*
X135095076Y-95961005D01*
X134947242Y-96040024D01*
X134786823Y-96088687D01*
X134661804Y-96101000D01*
X134578196Y-96101000D01*
X134453177Y-96088687D01*
X134292758Y-96040024D01*
X134144924Y-95961005D01*
X134144922Y-95961004D01*
X134015341Y-95854659D01*
X133908996Y-95725078D01*
X133864323Y-95641501D01*
X133829976Y-95577242D01*
X133781313Y-95416823D01*
X133764883Y-95250000D01*
X133781313Y-95083177D01*
X133829976Y-94922758D01*
X133908995Y-94774924D01*
X133908996Y-94774922D01*
X134015341Y-94645341D01*
X134144922Y-94538996D01*
X134160094Y-94530886D01*
X134292758Y-94459976D01*
X134453177Y-94411313D01*
X134578196Y-94399000D01*
X134661804Y-94399000D01*
X134786823Y-94411313D01*
X134786823Y-94411313D01*
G37*
G36*
X97956823Y-94411313D02*
G01*
X98117242Y-94459976D01*
X98249906Y-94530886D01*
X98265078Y-94538996D01*
X98394659Y-94645341D01*
X98501004Y-94774922D01*
X98501005Y-94774924D01*
X98580024Y-94922758D01*
X98628687Y-95083177D01*
X98645117Y-95250000D01*
X98628687Y-95416823D01*
X98580024Y-95577242D01*
X98545677Y-95641501D01*
X98501004Y-95725078D01*
X98394659Y-95854659D01*
X98265078Y-95961004D01*
X98265076Y-95961005D01*
X98117242Y-96040024D01*
X97956823Y-96088687D01*
X97831804Y-96101000D01*
X97748196Y-96101000D01*
X97623177Y-96088687D01*
X97462758Y-96040024D01*
X97314924Y-95961005D01*
X97314922Y-95961004D01*
X97185341Y-95854659D01*
X97078996Y-95725078D01*
X97034323Y-95641501D01*
X96999976Y-95577242D01*
X96951313Y-95416823D01*
X96934883Y-95250000D01*
X96951313Y-95083177D01*
X96999976Y-94922758D01*
X97078995Y-94774924D01*
X97078996Y-94774922D01*
X97185341Y-94645341D01*
X97314922Y-94538996D01*
X97330094Y-94530886D01*
X97462758Y-94459976D01*
X97623177Y-94411313D01*
X97748196Y-94399000D01*
X97831804Y-94399000D01*
X97956823Y-94411313D01*
X97956823Y-94411313D01*
G37*
G36*
X82716823Y-91871313D02*
G01*
X82877242Y-91919976D01*
X83009906Y-91990886D01*
X83025078Y-91998996D01*
X83154659Y-92105341D01*
X83261004Y-92234922D01*
X83261005Y-92234924D01*
X83340024Y-92382758D01*
X83388687Y-92543177D01*
X83405117Y-92710000D01*
X83388687Y-92876823D01*
X83340024Y-93037242D01*
X83269114Y-93169906D01*
X83261004Y-93185078D01*
X83154659Y-93314659D01*
X83025078Y-93421004D01*
X83025076Y-93421005D01*
X82877242Y-93500024D01*
X82716823Y-93548687D01*
X82591804Y-93561000D01*
X82508196Y-93561000D01*
X82383177Y-93548687D01*
X82222758Y-93500024D01*
X82074924Y-93421005D01*
X82074922Y-93421004D01*
X81945341Y-93314659D01*
X81838996Y-93185078D01*
X81830886Y-93169906D01*
X81759976Y-93037242D01*
X81711313Y-92876823D01*
X81694883Y-92710000D01*
X81711313Y-92543177D01*
X81759976Y-92382758D01*
X81838995Y-92234924D01*
X81838996Y-92234922D01*
X81945341Y-92105341D01*
X82074922Y-91998996D01*
X82090094Y-91990886D01*
X82222758Y-91919976D01*
X82383177Y-91871313D01*
X82508196Y-91859000D01*
X82591804Y-91859000D01*
X82716823Y-91871313D01*
X82716823Y-91871313D01*
G37*
G36*
X97956823Y-91871313D02*
G01*
X98117242Y-91919976D01*
X98249906Y-91990886D01*
X98265078Y-91998996D01*
X98394659Y-92105341D01*
X98501004Y-92234922D01*
X98501005Y-92234924D01*
X98580024Y-92382758D01*
X98628687Y-92543177D01*
X98645117Y-92710000D01*
X98628687Y-92876823D01*
X98580024Y-93037242D01*
X98509114Y-93169906D01*
X98501004Y-93185078D01*
X98394659Y-93314659D01*
X98265078Y-93421004D01*
X98265076Y-93421005D01*
X98117242Y-93500024D01*
X97956823Y-93548687D01*
X97831804Y-93561000D01*
X97748196Y-93561000D01*
X97623177Y-93548687D01*
X97462758Y-93500024D01*
X97314924Y-93421005D01*
X97314922Y-93421004D01*
X97185341Y-93314659D01*
X97078996Y-93185078D01*
X97070886Y-93169906D01*
X96999976Y-93037242D01*
X96951313Y-92876823D01*
X96934883Y-92710000D01*
X96951313Y-92543177D01*
X96999976Y-92382758D01*
X97078995Y-92234924D01*
X97078996Y-92234922D01*
X97185341Y-92105341D01*
X97314922Y-91998996D01*
X97330094Y-91990886D01*
X97462758Y-91919976D01*
X97623177Y-91871313D01*
X97748196Y-91859000D01*
X97831804Y-91859000D01*
X97956823Y-91871313D01*
X97956823Y-91871313D01*
G37*
G36*
X97956823Y-89331313D02*
G01*
X98117242Y-89379976D01*
X98249906Y-89450886D01*
X98265078Y-89458996D01*
X98394659Y-89565341D01*
X98501004Y-89694922D01*
X98501005Y-89694924D01*
X98580024Y-89842758D01*
X98628687Y-90003177D01*
X98645117Y-90170000D01*
X98628687Y-90336823D01*
X98580024Y-90497242D01*
X98509114Y-90629906D01*
X98501004Y-90645078D01*
X98394659Y-90774659D01*
X98265078Y-90881004D01*
X98265076Y-90881005D01*
X98117242Y-90960024D01*
X97956823Y-91008687D01*
X97831804Y-91021000D01*
X97748196Y-91021000D01*
X97623177Y-91008687D01*
X97462758Y-90960024D01*
X97314924Y-90881005D01*
X97314922Y-90881004D01*
X97185341Y-90774659D01*
X97078996Y-90645078D01*
X97070886Y-90629906D01*
X96999976Y-90497242D01*
X96951313Y-90336823D01*
X96934883Y-90170000D01*
X96951313Y-90003177D01*
X96999976Y-89842758D01*
X97078995Y-89694924D01*
X97078996Y-89694922D01*
X97185341Y-89565341D01*
X97314922Y-89458996D01*
X97330094Y-89450886D01*
X97462758Y-89379976D01*
X97623177Y-89331313D01*
X97748196Y-89319000D01*
X97831804Y-89319000D01*
X97956823Y-89331313D01*
X97956823Y-89331313D01*
G37*
G36*
X82716823Y-89331313D02*
G01*
X82877242Y-89379976D01*
X83009906Y-89450886D01*
X83025078Y-89458996D01*
X83154659Y-89565341D01*
X83261004Y-89694922D01*
X83261005Y-89694924D01*
X83340024Y-89842758D01*
X83388687Y-90003177D01*
X83405117Y-90170000D01*
X83388687Y-90336823D01*
X83340024Y-90497242D01*
X83269114Y-90629906D01*
X83261004Y-90645078D01*
X83154659Y-90774659D01*
X83025078Y-90881004D01*
X83025076Y-90881005D01*
X82877242Y-90960024D01*
X82716823Y-91008687D01*
X82591804Y-91021000D01*
X82508196Y-91021000D01*
X82383177Y-91008687D01*
X82222758Y-90960024D01*
X82074924Y-90881005D01*
X82074922Y-90881004D01*
X81945341Y-90774659D01*
X81838996Y-90645078D01*
X81830886Y-90629906D01*
X81759976Y-90497242D01*
X81711313Y-90336823D01*
X81694883Y-90170000D01*
X81711313Y-90003177D01*
X81759976Y-89842758D01*
X81838995Y-89694924D01*
X81838996Y-89694922D01*
X81945341Y-89565341D01*
X82074922Y-89458996D01*
X82090094Y-89450886D01*
X82222758Y-89379976D01*
X82383177Y-89331313D01*
X82508196Y-89319000D01*
X82591804Y-89319000D01*
X82716823Y-89331313D01*
X82716823Y-89331313D01*
G37*
G36*
X82716823Y-86791313D02*
G01*
X82877242Y-86839976D01*
X82995202Y-86903027D01*
X83025078Y-86918996D01*
X83154659Y-87025341D01*
X83261004Y-87154922D01*
X83261005Y-87154924D01*
X83340024Y-87302758D01*
X83388687Y-87463177D01*
X83405117Y-87630000D01*
X83388687Y-87796823D01*
X83340024Y-87957242D01*
X83269114Y-88089906D01*
X83261004Y-88105078D01*
X83154659Y-88234659D01*
X83025078Y-88341004D01*
X83025076Y-88341005D01*
X82877242Y-88420024D01*
X82716823Y-88468687D01*
X82591804Y-88481000D01*
X82508196Y-88481000D01*
X82383177Y-88468687D01*
X82222758Y-88420024D01*
X82074924Y-88341005D01*
X82074922Y-88341004D01*
X81945341Y-88234659D01*
X81838996Y-88105078D01*
X81830886Y-88089906D01*
X81759976Y-87957242D01*
X81711313Y-87796823D01*
X81694883Y-87630000D01*
X81711313Y-87463177D01*
X81759976Y-87302758D01*
X81838995Y-87154924D01*
X81838996Y-87154922D01*
X81945341Y-87025341D01*
X82074922Y-86918996D01*
X82104798Y-86903027D01*
X82222758Y-86839976D01*
X82383177Y-86791313D01*
X82508196Y-86779000D01*
X82591804Y-86779000D01*
X82716823Y-86791313D01*
X82716823Y-86791313D01*
G37*
G36*
X97956823Y-86791313D02*
G01*
X98117242Y-86839976D01*
X98235202Y-86903027D01*
X98265078Y-86918996D01*
X98394659Y-87025341D01*
X98501004Y-87154922D01*
X98501005Y-87154924D01*
X98580024Y-87302758D01*
X98628687Y-87463177D01*
X98645117Y-87630000D01*
X98628687Y-87796823D01*
X98580024Y-87957242D01*
X98509114Y-88089906D01*
X98501004Y-88105078D01*
X98394659Y-88234659D01*
X98265078Y-88341004D01*
X98265076Y-88341005D01*
X98117242Y-88420024D01*
X97956823Y-88468687D01*
X97831804Y-88481000D01*
X97748196Y-88481000D01*
X97623177Y-88468687D01*
X97462758Y-88420024D01*
X97314924Y-88341005D01*
X97314922Y-88341004D01*
X97185341Y-88234659D01*
X97078996Y-88105078D01*
X97070886Y-88089906D01*
X96999976Y-87957242D01*
X96951313Y-87796823D01*
X96934883Y-87630000D01*
X96951313Y-87463177D01*
X96999976Y-87302758D01*
X97078995Y-87154924D01*
X97078996Y-87154922D01*
X97185341Y-87025341D01*
X97314922Y-86918996D01*
X97344798Y-86903027D01*
X97462758Y-86839976D01*
X97623177Y-86791313D01*
X97748196Y-86779000D01*
X97831804Y-86779000D01*
X97956823Y-86791313D01*
X97956823Y-86791313D01*
G37*
G36*
X134786823Y-86791313D02*
G01*
X134947242Y-86839976D01*
X135065202Y-86903027D01*
X135095078Y-86918996D01*
X135224659Y-87025341D01*
X135331004Y-87154922D01*
X135331005Y-87154924D01*
X135410024Y-87302758D01*
X135458687Y-87463177D01*
X135475117Y-87630000D01*
X135458687Y-87796823D01*
X135410024Y-87957242D01*
X135339114Y-88089906D01*
X135331004Y-88105078D01*
X135224659Y-88234659D01*
X135095078Y-88341004D01*
X135095076Y-88341005D01*
X134947242Y-88420024D01*
X134786823Y-88468687D01*
X134661804Y-88481000D01*
X134578196Y-88481000D01*
X134453177Y-88468687D01*
X134292758Y-88420024D01*
X134144924Y-88341005D01*
X134144922Y-88341004D01*
X134015341Y-88234659D01*
X133908996Y-88105078D01*
X133900886Y-88089906D01*
X133829976Y-87957242D01*
X133781313Y-87796823D01*
X133764883Y-87630000D01*
X133781313Y-87463177D01*
X133829976Y-87302758D01*
X133908995Y-87154924D01*
X133908996Y-87154922D01*
X134015341Y-87025341D01*
X134144922Y-86918996D01*
X134174798Y-86903027D01*
X134292758Y-86839976D01*
X134453177Y-86791313D01*
X134578196Y-86779000D01*
X134661804Y-86779000D01*
X134786823Y-86791313D01*
X134786823Y-86791313D01*
G37*
G36*
X119546823Y-86791313D02*
G01*
X119707242Y-86839976D01*
X119825202Y-86903027D01*
X119855078Y-86918996D01*
X119984659Y-87025341D01*
X120091004Y-87154922D01*
X120091005Y-87154924D01*
X120170024Y-87302758D01*
X120218687Y-87463177D01*
X120235117Y-87630000D01*
X120218687Y-87796823D01*
X120170024Y-87957242D01*
X120099114Y-88089906D01*
X120091004Y-88105078D01*
X119984659Y-88234659D01*
X119855078Y-88341004D01*
X119855076Y-88341005D01*
X119707242Y-88420024D01*
X119546823Y-88468687D01*
X119421804Y-88481000D01*
X119338196Y-88481000D01*
X119213177Y-88468687D01*
X119052758Y-88420024D01*
X118904924Y-88341005D01*
X118904922Y-88341004D01*
X118775341Y-88234659D01*
X118668996Y-88105078D01*
X118660886Y-88089906D01*
X118589976Y-87957242D01*
X118541313Y-87796823D01*
X118524883Y-87630000D01*
X118541313Y-87463177D01*
X118589976Y-87302758D01*
X118668995Y-87154924D01*
X118668996Y-87154922D01*
X118775341Y-87025341D01*
X118904922Y-86918996D01*
X118934798Y-86903027D01*
X119052758Y-86839976D01*
X119213177Y-86791313D01*
X119338196Y-86779000D01*
X119421804Y-86779000D01*
X119546823Y-86791313D01*
X119546823Y-86791313D01*
G37*
G36*
X145396015Y-78196973D02*
G01*
X145499879Y-78228479D01*
X145527055Y-78243005D01*
X145595600Y-78279643D01*
X145679501Y-78348499D01*
X145748357Y-78432400D01*
X145784995Y-78500945D01*
X145799521Y-78528121D01*
X145831027Y-78631985D01*
X145841666Y-78740000D01*
X145831027Y-78848015D01*
X145799521Y-78951879D01*
X145799519Y-78951882D01*
X145748357Y-79047600D01*
X145679501Y-79131501D01*
X145595600Y-79200357D01*
X145527055Y-79236995D01*
X145499879Y-79251521D01*
X145487131Y-79255388D01*
X145464504Y-79264760D01*
X145444130Y-79278374D01*
X145426803Y-79295701D01*
X145413189Y-79316075D01*
X145403812Y-79338714D01*
X145399031Y-79362747D01*
X145399031Y-79387251D01*
X145403811Y-79411285D01*
X145413188Y-79433924D01*
X145426802Y-79454298D01*
X145444129Y-79471625D01*
X145464503Y-79485239D01*
X145487131Y-79494612D01*
X145499879Y-79498479D01*
X145527055Y-79513005D01*
X145595600Y-79549643D01*
X145679501Y-79618499D01*
X145748357Y-79702400D01*
X145784995Y-79770945D01*
X145799521Y-79798121D01*
X145831027Y-79901985D01*
X145841666Y-80010000D01*
X145831027Y-80118015D01*
X145799521Y-80221879D01*
X145799519Y-80221882D01*
X145748357Y-80317600D01*
X145679501Y-80401501D01*
X145595600Y-80470357D01*
X145527055Y-80506995D01*
X145499879Y-80521521D01*
X145487131Y-80525388D01*
X145464504Y-80534760D01*
X145444130Y-80548374D01*
X145426803Y-80565701D01*
X145413189Y-80586075D01*
X145403812Y-80608714D01*
X145399031Y-80632747D01*
X145399031Y-80657251D01*
X145403811Y-80681285D01*
X145413188Y-80703924D01*
X145426802Y-80724298D01*
X145444129Y-80741625D01*
X145464503Y-80755239D01*
X145487131Y-80764612D01*
X145499879Y-80768479D01*
X145527055Y-80783005D01*
X145595600Y-80819643D01*
X145679501Y-80888499D01*
X145748357Y-80972400D01*
X145784995Y-81040945D01*
X145799521Y-81068121D01*
X145831027Y-81171985D01*
X145841666Y-81280000D01*
X145831027Y-81388015D01*
X145799521Y-81491879D01*
X145799519Y-81491882D01*
X145748357Y-81587600D01*
X145679501Y-81671501D01*
X145595600Y-81740357D01*
X145527055Y-81776995D01*
X145499879Y-81791521D01*
X145487131Y-81795388D01*
X145464504Y-81804760D01*
X145444130Y-81818374D01*
X145426803Y-81835701D01*
X145413189Y-81856075D01*
X145403812Y-81878714D01*
X145399031Y-81902747D01*
X145399031Y-81927251D01*
X145403811Y-81951285D01*
X145413188Y-81973924D01*
X145426802Y-81994298D01*
X145444129Y-82011625D01*
X145464503Y-82025239D01*
X145487131Y-82034612D01*
X145499879Y-82038479D01*
X145527055Y-82053005D01*
X145595600Y-82089643D01*
X145679501Y-82158499D01*
X145748357Y-82242400D01*
X145784995Y-82310945D01*
X145799521Y-82338121D01*
X145831027Y-82441985D01*
X145841666Y-82550000D01*
X145831027Y-82658015D01*
X145799521Y-82761879D01*
X145799519Y-82761882D01*
X145748357Y-82857600D01*
X145679501Y-82941501D01*
X145595600Y-83010357D01*
X145527055Y-83046995D01*
X145499879Y-83061521D01*
X145487131Y-83065388D01*
X145464504Y-83074760D01*
X145444130Y-83088374D01*
X145426803Y-83105701D01*
X145413189Y-83126075D01*
X145403812Y-83148714D01*
X145399031Y-83172747D01*
X145399031Y-83197251D01*
X145403811Y-83221285D01*
X145413188Y-83243924D01*
X145426802Y-83264298D01*
X145444129Y-83281625D01*
X145464503Y-83295239D01*
X145487131Y-83304612D01*
X145499879Y-83308479D01*
X145527055Y-83323005D01*
X145595600Y-83359643D01*
X145679501Y-83428499D01*
X145748357Y-83512400D01*
X145784995Y-83580945D01*
X145799521Y-83608121D01*
X145831027Y-83711985D01*
X145841666Y-83820000D01*
X145831027Y-83928015D01*
X145799521Y-84031879D01*
X145799519Y-84031882D01*
X145748357Y-84127600D01*
X145679501Y-84211501D01*
X145595600Y-84280357D01*
X145527055Y-84316995D01*
X145499879Y-84331521D01*
X145487131Y-84335388D01*
X145464504Y-84344760D01*
X145444130Y-84358374D01*
X145426803Y-84375701D01*
X145413189Y-84396075D01*
X145403812Y-84418714D01*
X145399031Y-84442747D01*
X145399031Y-84467251D01*
X145403811Y-84491285D01*
X145413188Y-84513924D01*
X145426802Y-84534298D01*
X145444129Y-84551625D01*
X145464503Y-84565239D01*
X145487131Y-84574612D01*
X145499879Y-84578479D01*
X145527055Y-84593005D01*
X145595600Y-84629643D01*
X145679501Y-84698499D01*
X145748357Y-84782400D01*
X145784995Y-84850945D01*
X145799521Y-84878121D01*
X145831027Y-84981985D01*
X145841666Y-85090000D01*
X145831027Y-85198015D01*
X145799521Y-85301879D01*
X145799519Y-85301882D01*
X145748357Y-85397600D01*
X145679501Y-85481501D01*
X145595600Y-85550357D01*
X145527055Y-85586995D01*
X145499879Y-85601521D01*
X145487131Y-85605388D01*
X145464504Y-85614760D01*
X145444130Y-85628374D01*
X145426803Y-85645701D01*
X145413189Y-85666075D01*
X145403812Y-85688714D01*
X145399031Y-85712747D01*
X145399031Y-85737251D01*
X145403811Y-85761285D01*
X145413188Y-85783924D01*
X145426802Y-85804298D01*
X145444129Y-85821625D01*
X145464503Y-85835239D01*
X145487131Y-85844612D01*
X145499879Y-85848479D01*
X145527055Y-85863005D01*
X145595600Y-85899643D01*
X145679501Y-85968499D01*
X145748357Y-86052400D01*
X145784995Y-86120945D01*
X145799521Y-86148121D01*
X145831027Y-86251985D01*
X145841666Y-86360000D01*
X145831027Y-86468015D01*
X145799521Y-86571879D01*
X145799519Y-86571882D01*
X145748357Y-86667600D01*
X145679501Y-86751501D01*
X145595600Y-86820356D01*
X145551807Y-86843764D01*
X145531437Y-86857375D01*
X145514110Y-86874702D01*
X145500496Y-86895076D01*
X145491119Y-86917715D01*
X145486338Y-86941748D01*
X145486338Y-86966252D01*
X145491118Y-86990286D01*
X145500495Y-87012924D01*
X145514109Y-87033299D01*
X145531436Y-87050626D01*
X145551810Y-87064240D01*
X145574449Y-87073617D01*
X145598482Y-87078398D01*
X145610735Y-87079000D01*
X145839000Y-87079000D01*
X145839000Y-88181000D01*
X144737000Y-88181000D01*
X144737000Y-87079000D01*
X144965265Y-87079000D01*
X144989651Y-87076598D01*
X145013100Y-87069485D01*
X145034711Y-87057934D01*
X145053653Y-87042389D01*
X145069198Y-87023447D01*
X145080749Y-87001836D01*
X145087862Y-86978387D01*
X145090264Y-86954001D01*
X145087862Y-86929615D01*
X145080749Y-86906166D01*
X145069198Y-86884555D01*
X145053653Y-86865613D01*
X145034711Y-86850068D01*
X145024198Y-86843767D01*
X144980400Y-86820356D01*
X144896499Y-86751501D01*
X144827643Y-86667600D01*
X144776481Y-86571882D01*
X144776479Y-86571879D01*
X144744973Y-86468015D01*
X144734334Y-86360000D01*
X144744973Y-86251985D01*
X144776479Y-86148121D01*
X144791005Y-86120945D01*
X144827643Y-86052400D01*
X144896499Y-85968499D01*
X144980400Y-85899643D01*
X145048945Y-85863005D01*
X145076121Y-85848479D01*
X145088869Y-85844612D01*
X145111496Y-85835240D01*
X145131870Y-85821626D01*
X145149197Y-85804299D01*
X145162811Y-85783925D01*
X145172188Y-85761286D01*
X145176969Y-85737253D01*
X145176969Y-85712749D01*
X145172189Y-85688715D01*
X145162812Y-85666076D01*
X145149198Y-85645702D01*
X145131871Y-85628375D01*
X145111497Y-85614761D01*
X145088869Y-85605388D01*
X145076121Y-85601521D01*
X145048945Y-85586995D01*
X144980400Y-85550357D01*
X144896499Y-85481501D01*
X144827643Y-85397600D01*
X144776481Y-85301882D01*
X144776479Y-85301879D01*
X144744973Y-85198015D01*
X144734334Y-85090000D01*
X144744973Y-84981985D01*
X144776479Y-84878121D01*
X144791005Y-84850945D01*
X144827643Y-84782400D01*
X144896499Y-84698499D01*
X144980400Y-84629643D01*
X145048945Y-84593005D01*
X145076121Y-84578479D01*
X145088869Y-84574612D01*
X145111496Y-84565240D01*
X145131870Y-84551626D01*
X145149197Y-84534299D01*
X145162811Y-84513925D01*
X145172188Y-84491286D01*
X145176969Y-84467253D01*
X145176969Y-84442749D01*
X145172189Y-84418715D01*
X145162812Y-84396076D01*
X145149198Y-84375702D01*
X145131871Y-84358375D01*
X145111497Y-84344761D01*
X145088869Y-84335388D01*
X145076121Y-84331521D01*
X145048945Y-84316995D01*
X144980400Y-84280357D01*
X144896499Y-84211501D01*
X144827643Y-84127600D01*
X144776481Y-84031882D01*
X144776479Y-84031879D01*
X144744973Y-83928015D01*
X144734334Y-83820000D01*
X144744973Y-83711985D01*
X144776479Y-83608121D01*
X144791005Y-83580945D01*
X144827643Y-83512400D01*
X144896499Y-83428499D01*
X144980400Y-83359643D01*
X145048945Y-83323005D01*
X145076121Y-83308479D01*
X145088869Y-83304612D01*
X145111496Y-83295240D01*
X145131870Y-83281626D01*
X145149197Y-83264299D01*
X145162811Y-83243925D01*
X145172188Y-83221286D01*
X145176969Y-83197253D01*
X145176969Y-83172749D01*
X145172189Y-83148715D01*
X145162812Y-83126076D01*
X145149198Y-83105702D01*
X145131871Y-83088375D01*
X145111497Y-83074761D01*
X145088869Y-83065388D01*
X145076121Y-83061521D01*
X145048945Y-83046995D01*
X144980400Y-83010357D01*
X144896499Y-82941501D01*
X144827643Y-82857600D01*
X144776481Y-82761882D01*
X144776479Y-82761879D01*
X144744973Y-82658015D01*
X144734334Y-82550000D01*
X144744973Y-82441985D01*
X144776479Y-82338121D01*
X144791005Y-82310945D01*
X144827643Y-82242400D01*
X144896499Y-82158499D01*
X144980400Y-82089643D01*
X145048945Y-82053005D01*
X145076121Y-82038479D01*
X145088869Y-82034612D01*
X145111496Y-82025240D01*
X145131870Y-82011626D01*
X145149197Y-81994299D01*
X145162811Y-81973925D01*
X145172188Y-81951286D01*
X145176969Y-81927253D01*
X145176969Y-81902749D01*
X145172189Y-81878715D01*
X145162812Y-81856076D01*
X145149198Y-81835702D01*
X145131871Y-81818375D01*
X145111497Y-81804761D01*
X145088869Y-81795388D01*
X145076121Y-81791521D01*
X145048945Y-81776995D01*
X144980400Y-81740357D01*
X144896499Y-81671501D01*
X144827643Y-81587600D01*
X144776481Y-81491882D01*
X144776479Y-81491879D01*
X144744973Y-81388015D01*
X144734334Y-81280000D01*
X144744973Y-81171985D01*
X144776479Y-81068121D01*
X144791005Y-81040945D01*
X144827643Y-80972400D01*
X144896499Y-80888499D01*
X144980400Y-80819643D01*
X145048945Y-80783005D01*
X145076121Y-80768479D01*
X145088869Y-80764612D01*
X145111496Y-80755240D01*
X145131870Y-80741626D01*
X145149197Y-80724299D01*
X145162811Y-80703925D01*
X145172188Y-80681286D01*
X145176969Y-80657253D01*
X145176969Y-80632749D01*
X145172189Y-80608715D01*
X145162812Y-80586076D01*
X145149198Y-80565702D01*
X145131871Y-80548375D01*
X145111497Y-80534761D01*
X145088869Y-80525388D01*
X145076121Y-80521521D01*
X145048945Y-80506995D01*
X144980400Y-80470357D01*
X144896499Y-80401501D01*
X144827643Y-80317600D01*
X144776481Y-80221882D01*
X144776479Y-80221879D01*
X144744973Y-80118015D01*
X144734334Y-80010000D01*
X144744973Y-79901985D01*
X144776479Y-79798121D01*
X144791005Y-79770945D01*
X144827643Y-79702400D01*
X144896499Y-79618499D01*
X144980400Y-79549643D01*
X145048945Y-79513005D01*
X145076121Y-79498479D01*
X145088869Y-79494612D01*
X145111496Y-79485240D01*
X145131870Y-79471626D01*
X145149197Y-79454299D01*
X145162811Y-79433925D01*
X145172188Y-79411286D01*
X145176969Y-79387253D01*
X145176969Y-79362749D01*
X145172189Y-79338715D01*
X145162812Y-79316076D01*
X145149198Y-79295702D01*
X145131871Y-79278375D01*
X145111497Y-79264761D01*
X145088869Y-79255388D01*
X145076121Y-79251521D01*
X145048945Y-79236995D01*
X144980400Y-79200357D01*
X144896499Y-79131501D01*
X144827643Y-79047600D01*
X144776481Y-78951882D01*
X144776479Y-78951879D01*
X144744973Y-78848015D01*
X144734334Y-78740000D01*
X144744973Y-78631985D01*
X144776479Y-78528121D01*
X144791005Y-78500945D01*
X144827643Y-78432400D01*
X144896499Y-78348499D01*
X144980400Y-78279643D01*
X145048945Y-78243005D01*
X145076121Y-78228479D01*
X145179985Y-78196973D01*
X145260933Y-78189000D01*
X145315067Y-78189000D01*
X145396015Y-78196973D01*
X145396015Y-78196973D01*
G37*
G36*
X82716823Y-84251313D02*
G01*
X82877242Y-84299976D01*
X82986497Y-84358374D01*
X83025078Y-84378996D01*
X83154659Y-84485341D01*
X83261004Y-84614922D01*
X83261005Y-84614924D01*
X83340024Y-84762758D01*
X83388687Y-84923177D01*
X83405117Y-85090000D01*
X83388687Y-85256823D01*
X83340024Y-85417242D01*
X83305677Y-85481501D01*
X83261004Y-85565078D01*
X83154659Y-85694659D01*
X83025078Y-85801004D01*
X83025076Y-85801005D01*
X82877242Y-85880024D01*
X82716823Y-85928687D01*
X82591804Y-85941000D01*
X82508196Y-85941000D01*
X82383177Y-85928687D01*
X82222758Y-85880024D01*
X82074924Y-85801005D01*
X82074922Y-85801004D01*
X81945341Y-85694659D01*
X81838996Y-85565078D01*
X81794323Y-85481501D01*
X81759976Y-85417242D01*
X81711313Y-85256823D01*
X81694883Y-85090000D01*
X81711313Y-84923177D01*
X81759976Y-84762758D01*
X81838995Y-84614924D01*
X81838996Y-84614922D01*
X81945341Y-84485341D01*
X82074922Y-84378996D01*
X82113503Y-84358374D01*
X82222758Y-84299976D01*
X82383177Y-84251313D01*
X82508196Y-84239000D01*
X82591804Y-84239000D01*
X82716823Y-84251313D01*
X82716823Y-84251313D01*
G37*
G36*
X97956823Y-84251313D02*
G01*
X98117242Y-84299976D01*
X98226497Y-84358374D01*
X98265078Y-84378996D01*
X98394659Y-84485341D01*
X98501004Y-84614922D01*
X98501005Y-84614924D01*
X98580024Y-84762758D01*
X98628687Y-84923177D01*
X98645117Y-85090000D01*
X98628687Y-85256823D01*
X98580024Y-85417242D01*
X98545677Y-85481501D01*
X98501004Y-85565078D01*
X98394659Y-85694659D01*
X98265078Y-85801004D01*
X98265076Y-85801005D01*
X98117242Y-85880024D01*
X97956823Y-85928687D01*
X97831804Y-85941000D01*
X97748196Y-85941000D01*
X97623177Y-85928687D01*
X97462758Y-85880024D01*
X97314924Y-85801005D01*
X97314922Y-85801004D01*
X97185341Y-85694659D01*
X97078996Y-85565078D01*
X97034323Y-85481501D01*
X96999976Y-85417242D01*
X96951313Y-85256823D01*
X96934883Y-85090000D01*
X96951313Y-84923177D01*
X96999976Y-84762758D01*
X97078995Y-84614924D01*
X97078996Y-84614922D01*
X97185341Y-84485341D01*
X97314922Y-84378996D01*
X97353503Y-84358374D01*
X97462758Y-84299976D01*
X97623177Y-84251313D01*
X97748196Y-84239000D01*
X97831804Y-84239000D01*
X97956823Y-84251313D01*
X97956823Y-84251313D01*
G37*
G36*
X134786823Y-84251313D02*
G01*
X134947242Y-84299976D01*
X135056497Y-84358374D01*
X135095078Y-84378996D01*
X135224659Y-84485341D01*
X135331004Y-84614922D01*
X135331005Y-84614924D01*
X135410024Y-84762758D01*
X135458687Y-84923177D01*
X135475117Y-85090000D01*
X135458687Y-85256823D01*
X135410024Y-85417242D01*
X135375677Y-85481501D01*
X135331004Y-85565078D01*
X135224659Y-85694659D01*
X135095078Y-85801004D01*
X135095076Y-85801005D01*
X134947242Y-85880024D01*
X134786823Y-85928687D01*
X134661804Y-85941000D01*
X134578196Y-85941000D01*
X134453177Y-85928687D01*
X134292758Y-85880024D01*
X134144924Y-85801005D01*
X134144922Y-85801004D01*
X134015341Y-85694659D01*
X133908996Y-85565078D01*
X133864323Y-85481501D01*
X133829976Y-85417242D01*
X133781313Y-85256823D01*
X133764883Y-85090000D01*
X133781313Y-84923177D01*
X133829976Y-84762758D01*
X133908995Y-84614924D01*
X133908996Y-84614922D01*
X134015341Y-84485341D01*
X134144922Y-84378996D01*
X134183503Y-84358374D01*
X134292758Y-84299976D01*
X134453177Y-84251313D01*
X134578196Y-84239000D01*
X134661804Y-84239000D01*
X134786823Y-84251313D01*
X134786823Y-84251313D01*
G37*
G36*
X119546823Y-84251313D02*
G01*
X119707242Y-84299976D01*
X119816497Y-84358374D01*
X119855078Y-84378996D01*
X119984659Y-84485341D01*
X120091004Y-84614922D01*
X120091005Y-84614924D01*
X120170024Y-84762758D01*
X120218687Y-84923177D01*
X120235117Y-85090000D01*
X120218687Y-85256823D01*
X120170024Y-85417242D01*
X120135677Y-85481501D01*
X120091004Y-85565078D01*
X119984659Y-85694659D01*
X119855078Y-85801004D01*
X119855076Y-85801005D01*
X119707242Y-85880024D01*
X119546823Y-85928687D01*
X119421804Y-85941000D01*
X119338196Y-85941000D01*
X119213177Y-85928687D01*
X119052758Y-85880024D01*
X118904924Y-85801005D01*
X118904922Y-85801004D01*
X118775341Y-85694659D01*
X118668996Y-85565078D01*
X118624323Y-85481501D01*
X118589976Y-85417242D01*
X118541313Y-85256823D01*
X118524883Y-85090000D01*
X118541313Y-84923177D01*
X118589976Y-84762758D01*
X118668995Y-84614924D01*
X118668996Y-84614922D01*
X118775341Y-84485341D01*
X118904922Y-84378996D01*
X118943503Y-84358374D01*
X119052758Y-84299976D01*
X119213177Y-84251313D01*
X119338196Y-84239000D01*
X119421804Y-84239000D01*
X119546823Y-84251313D01*
X119546823Y-84251313D01*
G37*
G36*
X97956823Y-81711313D02*
G01*
X98117242Y-81759976D01*
X98226497Y-81818374D01*
X98265078Y-81838996D01*
X98394659Y-81945341D01*
X98501004Y-82074922D01*
X98501005Y-82074924D01*
X98580024Y-82222758D01*
X98628687Y-82383177D01*
X98645117Y-82550000D01*
X98628687Y-82716823D01*
X98580024Y-82877242D01*
X98545677Y-82941501D01*
X98501004Y-83025078D01*
X98394659Y-83154659D01*
X98265078Y-83261004D01*
X98265076Y-83261005D01*
X98117242Y-83340024D01*
X97956823Y-83388687D01*
X97831804Y-83401000D01*
X97748196Y-83401000D01*
X97623177Y-83388687D01*
X97462758Y-83340024D01*
X97314924Y-83261005D01*
X97314922Y-83261004D01*
X97185341Y-83154659D01*
X97078996Y-83025078D01*
X97034323Y-82941501D01*
X96999976Y-82877242D01*
X96951313Y-82716823D01*
X96934883Y-82550000D01*
X96951313Y-82383177D01*
X96999976Y-82222758D01*
X97078995Y-82074924D01*
X97078996Y-82074922D01*
X97185341Y-81945341D01*
X97314922Y-81838996D01*
X97353503Y-81818374D01*
X97462758Y-81759976D01*
X97623177Y-81711313D01*
X97748196Y-81699000D01*
X97831804Y-81699000D01*
X97956823Y-81711313D01*
X97956823Y-81711313D01*
G37*
G36*
X82716823Y-81711313D02*
G01*
X82877242Y-81759976D01*
X82986497Y-81818374D01*
X83025078Y-81838996D01*
X83154659Y-81945341D01*
X83261004Y-82074922D01*
X83261005Y-82074924D01*
X83340024Y-82222758D01*
X83388687Y-82383177D01*
X83405117Y-82550000D01*
X83388687Y-82716823D01*
X83340024Y-82877242D01*
X83305677Y-82941501D01*
X83261004Y-83025078D01*
X83154659Y-83154659D01*
X83025078Y-83261004D01*
X83025076Y-83261005D01*
X82877242Y-83340024D01*
X82716823Y-83388687D01*
X82591804Y-83401000D01*
X82508196Y-83401000D01*
X82383177Y-83388687D01*
X82222758Y-83340024D01*
X82074924Y-83261005D01*
X82074922Y-83261004D01*
X81945341Y-83154659D01*
X81838996Y-83025078D01*
X81794323Y-82941501D01*
X81759976Y-82877242D01*
X81711313Y-82716823D01*
X81694883Y-82550000D01*
X81711313Y-82383177D01*
X81759976Y-82222758D01*
X81838995Y-82074924D01*
X81838996Y-82074922D01*
X81945341Y-81945341D01*
X82074922Y-81838996D01*
X82113503Y-81818374D01*
X82222758Y-81759976D01*
X82383177Y-81711313D01*
X82508196Y-81699000D01*
X82591804Y-81699000D01*
X82716823Y-81711313D01*
X82716823Y-81711313D01*
G37*
G36*
X134786823Y-81711313D02*
G01*
X134947242Y-81759976D01*
X135056497Y-81818374D01*
X135095078Y-81838996D01*
X135224659Y-81945341D01*
X135331004Y-82074922D01*
X135331005Y-82074924D01*
X135410024Y-82222758D01*
X135458687Y-82383177D01*
X135475117Y-82550000D01*
X135458687Y-82716823D01*
X135410024Y-82877242D01*
X135375677Y-82941501D01*
X135331004Y-83025078D01*
X135224659Y-83154659D01*
X135095078Y-83261004D01*
X135095076Y-83261005D01*
X134947242Y-83340024D01*
X134786823Y-83388687D01*
X134661804Y-83401000D01*
X134578196Y-83401000D01*
X134453177Y-83388687D01*
X134292758Y-83340024D01*
X134144924Y-83261005D01*
X134144922Y-83261004D01*
X134015341Y-83154659D01*
X133908996Y-83025078D01*
X133864323Y-82941501D01*
X133829976Y-82877242D01*
X133781313Y-82716823D01*
X133764883Y-82550000D01*
X133781313Y-82383177D01*
X133829976Y-82222758D01*
X133908995Y-82074924D01*
X133908996Y-82074922D01*
X134015341Y-81945341D01*
X134144922Y-81838996D01*
X134183503Y-81818374D01*
X134292758Y-81759976D01*
X134453177Y-81711313D01*
X134578196Y-81699000D01*
X134661804Y-81699000D01*
X134786823Y-81711313D01*
X134786823Y-81711313D01*
G37*
G36*
X119546823Y-81711313D02*
G01*
X119707242Y-81759976D01*
X119816497Y-81818374D01*
X119855078Y-81838996D01*
X119984659Y-81945341D01*
X120091004Y-82074922D01*
X120091005Y-82074924D01*
X120170024Y-82222758D01*
X120218687Y-82383177D01*
X120235117Y-82550000D01*
X120218687Y-82716823D01*
X120170024Y-82877242D01*
X120135677Y-82941501D01*
X120091004Y-83025078D01*
X119984659Y-83154659D01*
X119855078Y-83261004D01*
X119855076Y-83261005D01*
X119707242Y-83340024D01*
X119546823Y-83388687D01*
X119421804Y-83401000D01*
X119338196Y-83401000D01*
X119213177Y-83388687D01*
X119052758Y-83340024D01*
X118904924Y-83261005D01*
X118904922Y-83261004D01*
X118775341Y-83154659D01*
X118668996Y-83025078D01*
X118624323Y-82941501D01*
X118589976Y-82877242D01*
X118541313Y-82716823D01*
X118524883Y-82550000D01*
X118541313Y-82383177D01*
X118589976Y-82222758D01*
X118668995Y-82074924D01*
X118668996Y-82074922D01*
X118775341Y-81945341D01*
X118904922Y-81838996D01*
X118943503Y-81818374D01*
X119052758Y-81759976D01*
X119213177Y-81711313D01*
X119338196Y-81699000D01*
X119421804Y-81699000D01*
X119546823Y-81711313D01*
X119546823Y-81711313D01*
G37*
G36*
X119546823Y-79171313D02*
G01*
X119707242Y-79219976D01*
X119816497Y-79278374D01*
X119855078Y-79298996D01*
X119984659Y-79405341D01*
X120091004Y-79534922D01*
X120091005Y-79534924D01*
X120170024Y-79682758D01*
X120218687Y-79843177D01*
X120235117Y-80010000D01*
X120218687Y-80176823D01*
X120170024Y-80337242D01*
X120135677Y-80401501D01*
X120091004Y-80485078D01*
X119984659Y-80614659D01*
X119855078Y-80721004D01*
X119855076Y-80721005D01*
X119707242Y-80800024D01*
X119546823Y-80848687D01*
X119421804Y-80861000D01*
X119338196Y-80861000D01*
X119213177Y-80848687D01*
X119052758Y-80800024D01*
X118904924Y-80721005D01*
X118904922Y-80721004D01*
X118775341Y-80614659D01*
X118668996Y-80485078D01*
X118624323Y-80401501D01*
X118589976Y-80337242D01*
X118541313Y-80176823D01*
X118524883Y-80010000D01*
X118541313Y-79843177D01*
X118589976Y-79682758D01*
X118668995Y-79534924D01*
X118668996Y-79534922D01*
X118775341Y-79405341D01*
X118904922Y-79298996D01*
X118943503Y-79278374D01*
X119052758Y-79219976D01*
X119213177Y-79171313D01*
X119338196Y-79159000D01*
X119421804Y-79159000D01*
X119546823Y-79171313D01*
X119546823Y-79171313D01*
G37*
G36*
X83401000Y-80861000D02*
G01*
X81699000Y-80861000D01*
X81699000Y-79159000D01*
X83401000Y-79159000D01*
X83401000Y-80861000D01*
X83401000Y-80861000D01*
G37*
G36*
X134786823Y-79171313D02*
G01*
X134947242Y-79219976D01*
X135056497Y-79278374D01*
X135095078Y-79298996D01*
X135224659Y-79405341D01*
X135331004Y-79534922D01*
X135331005Y-79534924D01*
X135410024Y-79682758D01*
X135458687Y-79843177D01*
X135475117Y-80010000D01*
X135458687Y-80176823D01*
X135410024Y-80337242D01*
X135375677Y-80401501D01*
X135331004Y-80485078D01*
X135224659Y-80614659D01*
X135095078Y-80721004D01*
X135095076Y-80721005D01*
X134947242Y-80800024D01*
X134786823Y-80848687D01*
X134661804Y-80861000D01*
X134578196Y-80861000D01*
X134453177Y-80848687D01*
X134292758Y-80800024D01*
X134144924Y-80721005D01*
X134144922Y-80721004D01*
X134015341Y-80614659D01*
X133908996Y-80485078D01*
X133864323Y-80401501D01*
X133829976Y-80337242D01*
X133781313Y-80176823D01*
X133764883Y-80010000D01*
X133781313Y-79843177D01*
X133829976Y-79682758D01*
X133908995Y-79534924D01*
X133908996Y-79534922D01*
X134015341Y-79405341D01*
X134144922Y-79298996D01*
X134183503Y-79278374D01*
X134292758Y-79219976D01*
X134453177Y-79171313D01*
X134578196Y-79159000D01*
X134661804Y-79159000D01*
X134786823Y-79171313D01*
X134786823Y-79171313D01*
G37*
G36*
X97956823Y-79171313D02*
G01*
X98117242Y-79219976D01*
X98226497Y-79278374D01*
X98265078Y-79298996D01*
X98394659Y-79405341D01*
X98501004Y-79534922D01*
X98501005Y-79534924D01*
X98580024Y-79682758D01*
X98628687Y-79843177D01*
X98645117Y-80010000D01*
X98628687Y-80176823D01*
X98580024Y-80337242D01*
X98545677Y-80401501D01*
X98501004Y-80485078D01*
X98394659Y-80614659D01*
X98265078Y-80721004D01*
X98265076Y-80721005D01*
X98117242Y-80800024D01*
X97956823Y-80848687D01*
X97831804Y-80861000D01*
X97748196Y-80861000D01*
X97623177Y-80848687D01*
X97462758Y-80800024D01*
X97314924Y-80721005D01*
X97314922Y-80721004D01*
X97185341Y-80614659D01*
X97078996Y-80485078D01*
X97034323Y-80401501D01*
X96999976Y-80337242D01*
X96951313Y-80176823D01*
X96934883Y-80010000D01*
X96951313Y-79843177D01*
X96999976Y-79682758D01*
X97078995Y-79534924D01*
X97078996Y-79534922D01*
X97185341Y-79405341D01*
X97314922Y-79298996D01*
X97353503Y-79278374D01*
X97462758Y-79219976D01*
X97623177Y-79171313D01*
X97748196Y-79159000D01*
X97831804Y-79159000D01*
X97956823Y-79171313D01*
X97956823Y-79171313D01*
G37*
G36*
X119546823Y-76631313D02*
G01*
X119707242Y-76679976D01*
X119839906Y-76750886D01*
X119855078Y-76758996D01*
X119984659Y-76865341D01*
X120091004Y-76994922D01*
X120091005Y-76994924D01*
X120170024Y-77142758D01*
X120218687Y-77303177D01*
X120235117Y-77470000D01*
X120218687Y-77636823D01*
X120170024Y-77797242D01*
X120099114Y-77929906D01*
X120091004Y-77945078D01*
X119984659Y-78074659D01*
X119855078Y-78181004D01*
X119855076Y-78181005D01*
X119707242Y-78260024D01*
X119546823Y-78308687D01*
X119421804Y-78321000D01*
X119338196Y-78321000D01*
X119213177Y-78308687D01*
X119052758Y-78260024D01*
X118904924Y-78181005D01*
X118904922Y-78181004D01*
X118775341Y-78074659D01*
X118668996Y-77945078D01*
X118660886Y-77929906D01*
X118589976Y-77797242D01*
X118541313Y-77636823D01*
X118524883Y-77470000D01*
X118541313Y-77303177D01*
X118589976Y-77142758D01*
X118668995Y-76994924D01*
X118668996Y-76994922D01*
X118775341Y-76865341D01*
X118904922Y-76758996D01*
X118920094Y-76750886D01*
X119052758Y-76679976D01*
X119213177Y-76631313D01*
X119338196Y-76619000D01*
X119421804Y-76619000D01*
X119546823Y-76631313D01*
X119546823Y-76631313D01*
G37*
G36*
X134786823Y-76631313D02*
G01*
X134947242Y-76679976D01*
X135079906Y-76750886D01*
X135095078Y-76758996D01*
X135224659Y-76865341D01*
X135331004Y-76994922D01*
X135331005Y-76994924D01*
X135410024Y-77142758D01*
X135458687Y-77303177D01*
X135475117Y-77470000D01*
X135458687Y-77636823D01*
X135410024Y-77797242D01*
X135339114Y-77929906D01*
X135331004Y-77945078D01*
X135224659Y-78074659D01*
X135095078Y-78181004D01*
X135095076Y-78181005D01*
X134947242Y-78260024D01*
X134786823Y-78308687D01*
X134661804Y-78321000D01*
X134578196Y-78321000D01*
X134453177Y-78308687D01*
X134292758Y-78260024D01*
X134144924Y-78181005D01*
X134144922Y-78181004D01*
X134015341Y-78074659D01*
X133908996Y-77945078D01*
X133900886Y-77929906D01*
X133829976Y-77797242D01*
X133781313Y-77636823D01*
X133764883Y-77470000D01*
X133781313Y-77303177D01*
X133829976Y-77142758D01*
X133908995Y-76994924D01*
X133908996Y-76994922D01*
X134015341Y-76865341D01*
X134144922Y-76758996D01*
X134160094Y-76750886D01*
X134292758Y-76679976D01*
X134453177Y-76631313D01*
X134578196Y-76619000D01*
X134661804Y-76619000D01*
X134786823Y-76631313D01*
X134786823Y-76631313D01*
G37*
G36*
X73703000Y-75735000D02*
G01*
X73474735Y-75735000D01*
X73450349Y-75737402D01*
X73426900Y-75744515D01*
X73405289Y-75756066D01*
X73386347Y-75771611D01*
X73370802Y-75790553D01*
X73359251Y-75812164D01*
X73352138Y-75835613D01*
X73349736Y-75859999D01*
X73352138Y-75884385D01*
X73359251Y-75907834D01*
X73370802Y-75929445D01*
X73386347Y-75948387D01*
X73405289Y-75963932D01*
X73415802Y-75970233D01*
X73459600Y-75993644D01*
X73459602Y-75993645D01*
X73459601Y-75993645D01*
X73543501Y-76062499D01*
X73612357Y-76146400D01*
X73648995Y-76214945D01*
X73663521Y-76242121D01*
X73695027Y-76345985D01*
X73705666Y-76454000D01*
X73695027Y-76562015D01*
X73663521Y-76665879D01*
X73663519Y-76665882D01*
X73612357Y-76761600D01*
X73543501Y-76845501D01*
X73459600Y-76914357D01*
X73391055Y-76950995D01*
X73363879Y-76965521D01*
X73260015Y-76997027D01*
X73179067Y-77005000D01*
X73124933Y-77005000D01*
X73043985Y-76997027D01*
X72940121Y-76965521D01*
X72912945Y-76950995D01*
X72844400Y-76914357D01*
X72760499Y-76845501D01*
X72691643Y-76761600D01*
X72640481Y-76665882D01*
X72640479Y-76665879D01*
X72608973Y-76562015D01*
X72598334Y-76454000D01*
X72608973Y-76345985D01*
X72640479Y-76242121D01*
X72655005Y-76214945D01*
X72691643Y-76146400D01*
X72760499Y-76062499D01*
X72844399Y-75993645D01*
X72844398Y-75993645D01*
X72844400Y-75993644D01*
X72888193Y-75970236D01*
X72908563Y-75956625D01*
X72925890Y-75939298D01*
X72939504Y-75918924D01*
X72948881Y-75896285D01*
X72953662Y-75872252D01*
X72953662Y-75847748D01*
X72948882Y-75823714D01*
X72939505Y-75801076D01*
X72925891Y-75780701D01*
X72908564Y-75763374D01*
X72888190Y-75749760D01*
X72865551Y-75740383D01*
X72841518Y-75735602D01*
X72829265Y-75735000D01*
X72601000Y-75735000D01*
X72601000Y-74633000D01*
X73703000Y-74633000D01*
X73703000Y-75735000D01*
X73703000Y-75735000D01*
G37*
G36*
X119546823Y-74091313D02*
G01*
X119707242Y-74139976D01*
X119839906Y-74210886D01*
X119855078Y-74218996D01*
X119984659Y-74325341D01*
X120091004Y-74454922D01*
X120091005Y-74454924D01*
X120170024Y-74602758D01*
X120218687Y-74763177D01*
X120235117Y-74930000D01*
X120218687Y-75096823D01*
X120170024Y-75257242D01*
X120099114Y-75389906D01*
X120091004Y-75405078D01*
X119984659Y-75534659D01*
X119855078Y-75641004D01*
X119855076Y-75641005D01*
X119707242Y-75720024D01*
X119546823Y-75768687D01*
X119421804Y-75781000D01*
X119338196Y-75781000D01*
X119213177Y-75768687D01*
X119052758Y-75720024D01*
X118904924Y-75641005D01*
X118904922Y-75641004D01*
X118775341Y-75534659D01*
X118668996Y-75405078D01*
X118660886Y-75389906D01*
X118589976Y-75257242D01*
X118541313Y-75096823D01*
X118524883Y-74930000D01*
X118541313Y-74763177D01*
X118589976Y-74602758D01*
X118668995Y-74454924D01*
X118668996Y-74454922D01*
X118775341Y-74325341D01*
X118904922Y-74218996D01*
X118920094Y-74210886D01*
X119052758Y-74139976D01*
X119213177Y-74091313D01*
X119338196Y-74079000D01*
X119421804Y-74079000D01*
X119546823Y-74091313D01*
X119546823Y-74091313D01*
G37*
G36*
X134786823Y-74091313D02*
G01*
X134947242Y-74139976D01*
X135079906Y-74210886D01*
X135095078Y-74218996D01*
X135224659Y-74325341D01*
X135331004Y-74454922D01*
X135331005Y-74454924D01*
X135410024Y-74602758D01*
X135458687Y-74763177D01*
X135475117Y-74930000D01*
X135458687Y-75096823D01*
X135410024Y-75257242D01*
X135339114Y-75389906D01*
X135331004Y-75405078D01*
X135224659Y-75534659D01*
X135095078Y-75641004D01*
X135095076Y-75641005D01*
X134947242Y-75720024D01*
X134786823Y-75768687D01*
X134661804Y-75781000D01*
X134578196Y-75781000D01*
X134453177Y-75768687D01*
X134292758Y-75720024D01*
X134144924Y-75641005D01*
X134144922Y-75641004D01*
X134015341Y-75534659D01*
X133908996Y-75405078D01*
X133900886Y-75389906D01*
X133829976Y-75257242D01*
X133781313Y-75096823D01*
X133764883Y-74930000D01*
X133781313Y-74763177D01*
X133829976Y-74602758D01*
X133908995Y-74454924D01*
X133908996Y-74454922D01*
X134015341Y-74325341D01*
X134144922Y-74218996D01*
X134160094Y-74210886D01*
X134292758Y-74139976D01*
X134453177Y-74091313D01*
X134578196Y-74079000D01*
X134661804Y-74079000D01*
X134786823Y-74091313D01*
X134786823Y-74091313D01*
G37*
G36*
X145396015Y-53431973D02*
G01*
X145499879Y-53463479D01*
X145527055Y-53478005D01*
X145595600Y-53514643D01*
X145679501Y-53583499D01*
X145748357Y-53667400D01*
X145784995Y-53735945D01*
X145799521Y-53763121D01*
X145831027Y-53866985D01*
X145841666Y-53975000D01*
X145831027Y-54083015D01*
X145799521Y-54186879D01*
X145799519Y-54186882D01*
X145748357Y-54282600D01*
X145679501Y-54366501D01*
X145595600Y-54435357D01*
X145527055Y-54471995D01*
X145499879Y-54486521D01*
X145487131Y-54490388D01*
X145464504Y-54499760D01*
X145444130Y-54513374D01*
X145426803Y-54530701D01*
X145413189Y-54551075D01*
X145403812Y-54573714D01*
X145399031Y-54597747D01*
X145399031Y-54622251D01*
X145403811Y-54646285D01*
X145413188Y-54668924D01*
X145426802Y-54689298D01*
X145444129Y-54706625D01*
X145464503Y-54720239D01*
X145487131Y-54729612D01*
X145499879Y-54733479D01*
X145527055Y-54748005D01*
X145595600Y-54784643D01*
X145679501Y-54853499D01*
X145748357Y-54937400D01*
X145784995Y-55005945D01*
X145799521Y-55033121D01*
X145831027Y-55136985D01*
X145841666Y-55245000D01*
X145831027Y-55353015D01*
X145799521Y-55456879D01*
X145799519Y-55456882D01*
X145748357Y-55552600D01*
X145679501Y-55636501D01*
X145595600Y-55705357D01*
X145527055Y-55741995D01*
X145499879Y-55756521D01*
X145487131Y-55760388D01*
X145464504Y-55769760D01*
X145444130Y-55783374D01*
X145426803Y-55800701D01*
X145413189Y-55821075D01*
X145403812Y-55843714D01*
X145399031Y-55867747D01*
X145399031Y-55892251D01*
X145403811Y-55916285D01*
X145413188Y-55938924D01*
X145426802Y-55959298D01*
X145444129Y-55976625D01*
X145464503Y-55990239D01*
X145487131Y-55999612D01*
X145499879Y-56003479D01*
X145527055Y-56018005D01*
X145595600Y-56054643D01*
X145679501Y-56123499D01*
X145748357Y-56207400D01*
X145784995Y-56275945D01*
X145799521Y-56303121D01*
X145831027Y-56406985D01*
X145841666Y-56515000D01*
X145831027Y-56623015D01*
X145799521Y-56726879D01*
X145799519Y-56726882D01*
X145748357Y-56822600D01*
X145679501Y-56906501D01*
X145595600Y-56975357D01*
X145527055Y-57011995D01*
X145499879Y-57026521D01*
X145487131Y-57030388D01*
X145464504Y-57039760D01*
X145444130Y-57053374D01*
X145426803Y-57070701D01*
X145413189Y-57091075D01*
X145403812Y-57113714D01*
X145399031Y-57137747D01*
X145399031Y-57162251D01*
X145403811Y-57186285D01*
X145413188Y-57208924D01*
X145426802Y-57229298D01*
X145444129Y-57246625D01*
X145464503Y-57260239D01*
X145487131Y-57269612D01*
X145499879Y-57273479D01*
X145527055Y-57288005D01*
X145595600Y-57324643D01*
X145679501Y-57393499D01*
X145748357Y-57477400D01*
X145784995Y-57545945D01*
X145799521Y-57573121D01*
X145831027Y-57676985D01*
X145841666Y-57785000D01*
X145831027Y-57893015D01*
X145799521Y-57996879D01*
X145799519Y-57996882D01*
X145748357Y-58092600D01*
X145679501Y-58176501D01*
X145595600Y-58245357D01*
X145527055Y-58281995D01*
X145499879Y-58296521D01*
X145487131Y-58300388D01*
X145464504Y-58309760D01*
X145444130Y-58323374D01*
X145426803Y-58340701D01*
X145413189Y-58361075D01*
X145403812Y-58383714D01*
X145399031Y-58407747D01*
X145399031Y-58432251D01*
X145403811Y-58456285D01*
X145413188Y-58478924D01*
X145426802Y-58499298D01*
X145444129Y-58516625D01*
X145464503Y-58530239D01*
X145487131Y-58539612D01*
X145499879Y-58543479D01*
X145527055Y-58558005D01*
X145595600Y-58594643D01*
X145679501Y-58663499D01*
X145748357Y-58747400D01*
X145784995Y-58815945D01*
X145799521Y-58843121D01*
X145831027Y-58946985D01*
X145841666Y-59055000D01*
X145831027Y-59163015D01*
X145799521Y-59266879D01*
X145799519Y-59266882D01*
X145748357Y-59362600D01*
X145679501Y-59446501D01*
X145595600Y-59515357D01*
X145527055Y-59551995D01*
X145499879Y-59566521D01*
X145487131Y-59570388D01*
X145464504Y-59579760D01*
X145444130Y-59593374D01*
X145426803Y-59610701D01*
X145413189Y-59631075D01*
X145403812Y-59653714D01*
X145399031Y-59677747D01*
X145399031Y-59702251D01*
X145403811Y-59726285D01*
X145413188Y-59748924D01*
X145426802Y-59769298D01*
X145444129Y-59786625D01*
X145464503Y-59800239D01*
X145487131Y-59809612D01*
X145499879Y-59813479D01*
X145527055Y-59828005D01*
X145595600Y-59864643D01*
X145679501Y-59933499D01*
X145748357Y-60017400D01*
X145784995Y-60085945D01*
X145799521Y-60113121D01*
X145831027Y-60216985D01*
X145841666Y-60325000D01*
X145831027Y-60433015D01*
X145799521Y-60536879D01*
X145799519Y-60536882D01*
X145748357Y-60632600D01*
X145679501Y-60716501D01*
X145595600Y-60785357D01*
X145527055Y-60821995D01*
X145499879Y-60836521D01*
X145487131Y-60840388D01*
X145464504Y-60849760D01*
X145444130Y-60863374D01*
X145426803Y-60880701D01*
X145413189Y-60901075D01*
X145403812Y-60923714D01*
X145399031Y-60947747D01*
X145399031Y-60972251D01*
X145403811Y-60996285D01*
X145413188Y-61018924D01*
X145426802Y-61039298D01*
X145444129Y-61056625D01*
X145464503Y-61070239D01*
X145487131Y-61079612D01*
X145499879Y-61083479D01*
X145527055Y-61098005D01*
X145595600Y-61134643D01*
X145679501Y-61203499D01*
X145748357Y-61287400D01*
X145784995Y-61355945D01*
X145799521Y-61383121D01*
X145831027Y-61486985D01*
X145841666Y-61595000D01*
X145831027Y-61703015D01*
X145799521Y-61806879D01*
X145799519Y-61806882D01*
X145748357Y-61902600D01*
X145679501Y-61986501D01*
X145595600Y-62055357D01*
X145527055Y-62091995D01*
X145499879Y-62106521D01*
X145487131Y-62110388D01*
X145464504Y-62119760D01*
X145444130Y-62133374D01*
X145426803Y-62150701D01*
X145413189Y-62171075D01*
X145403812Y-62193714D01*
X145399031Y-62217747D01*
X145399031Y-62242251D01*
X145403811Y-62266285D01*
X145413188Y-62288924D01*
X145426802Y-62309298D01*
X145444129Y-62326625D01*
X145464503Y-62340239D01*
X145487131Y-62349612D01*
X145499879Y-62353479D01*
X145527055Y-62368005D01*
X145595600Y-62404643D01*
X145679501Y-62473499D01*
X145748357Y-62557400D01*
X145784995Y-62625945D01*
X145799521Y-62653121D01*
X145831027Y-62756985D01*
X145841666Y-62865000D01*
X145831027Y-62973015D01*
X145799521Y-63076879D01*
X145799519Y-63076882D01*
X145748357Y-63172600D01*
X145679501Y-63256501D01*
X145595600Y-63325357D01*
X145527055Y-63361995D01*
X145499879Y-63376521D01*
X145487131Y-63380388D01*
X145464504Y-63389760D01*
X145444130Y-63403374D01*
X145426803Y-63420701D01*
X145413189Y-63441075D01*
X145403812Y-63463714D01*
X145399031Y-63487747D01*
X145399031Y-63512251D01*
X145403811Y-63536285D01*
X145413188Y-63558924D01*
X145426802Y-63579298D01*
X145444129Y-63596625D01*
X145464503Y-63610239D01*
X145487131Y-63619612D01*
X145499879Y-63623479D01*
X145527055Y-63638005D01*
X145595600Y-63674643D01*
X145679501Y-63743499D01*
X145748357Y-63827400D01*
X145784995Y-63895945D01*
X145799521Y-63923121D01*
X145831027Y-64026985D01*
X145841666Y-64135000D01*
X145831027Y-64243015D01*
X145799521Y-64346879D01*
X145799519Y-64346882D01*
X145748357Y-64442600D01*
X145679501Y-64526501D01*
X145595600Y-64595357D01*
X145527055Y-64631995D01*
X145499879Y-64646521D01*
X145487131Y-64650388D01*
X145464504Y-64659760D01*
X145444130Y-64673374D01*
X145426803Y-64690701D01*
X145413189Y-64711075D01*
X145403812Y-64733714D01*
X145399031Y-64757747D01*
X145399031Y-64782251D01*
X145403811Y-64806285D01*
X145413188Y-64828924D01*
X145426802Y-64849298D01*
X145444129Y-64866625D01*
X145464503Y-64880239D01*
X145487131Y-64889612D01*
X145499879Y-64893479D01*
X145527055Y-64908005D01*
X145595600Y-64944643D01*
X145679501Y-65013499D01*
X145748357Y-65097400D01*
X145784995Y-65165945D01*
X145799521Y-65193121D01*
X145831027Y-65296985D01*
X145841666Y-65405000D01*
X145831027Y-65513015D01*
X145799521Y-65616879D01*
X145799519Y-65616882D01*
X145748357Y-65712600D01*
X145679501Y-65796501D01*
X145595600Y-65865357D01*
X145527055Y-65901995D01*
X145499879Y-65916521D01*
X145487131Y-65920388D01*
X145464504Y-65929760D01*
X145444130Y-65943374D01*
X145426803Y-65960701D01*
X145413189Y-65981075D01*
X145403812Y-66003714D01*
X145399031Y-66027747D01*
X145399031Y-66052251D01*
X145403811Y-66076285D01*
X145413188Y-66098924D01*
X145426802Y-66119298D01*
X145444129Y-66136625D01*
X145464503Y-66150239D01*
X145487131Y-66159612D01*
X145499879Y-66163479D01*
X145527055Y-66178005D01*
X145595600Y-66214643D01*
X145679501Y-66283499D01*
X145748357Y-66367400D01*
X145784995Y-66435945D01*
X145799521Y-66463121D01*
X145831027Y-66566985D01*
X145841666Y-66675000D01*
X145831027Y-66783015D01*
X145799521Y-66886879D01*
X145799519Y-66886882D01*
X145748357Y-66982600D01*
X145679501Y-67066501D01*
X145595600Y-67135357D01*
X145527055Y-67171995D01*
X145499879Y-67186521D01*
X145487131Y-67190388D01*
X145464504Y-67199760D01*
X145444130Y-67213374D01*
X145426803Y-67230701D01*
X145413189Y-67251075D01*
X145403812Y-67273714D01*
X145399031Y-67297747D01*
X145399031Y-67322251D01*
X145403811Y-67346285D01*
X145413188Y-67368924D01*
X145426802Y-67389298D01*
X145444129Y-67406625D01*
X145464503Y-67420239D01*
X145487131Y-67429612D01*
X145499879Y-67433479D01*
X145527055Y-67448005D01*
X145595600Y-67484643D01*
X145679501Y-67553499D01*
X145748357Y-67637400D01*
X145784995Y-67705945D01*
X145799521Y-67733121D01*
X145831027Y-67836985D01*
X145841666Y-67945000D01*
X145831027Y-68053015D01*
X145799521Y-68156879D01*
X145799519Y-68156882D01*
X145748357Y-68252600D01*
X145679501Y-68336501D01*
X145595600Y-68405357D01*
X145527055Y-68441995D01*
X145499879Y-68456521D01*
X145487131Y-68460388D01*
X145464504Y-68469760D01*
X145444130Y-68483374D01*
X145426803Y-68500701D01*
X145413189Y-68521075D01*
X145403812Y-68543714D01*
X145399031Y-68567747D01*
X145399031Y-68592251D01*
X145403811Y-68616285D01*
X145413188Y-68638924D01*
X145426802Y-68659298D01*
X145444129Y-68676625D01*
X145464503Y-68690239D01*
X145487131Y-68699612D01*
X145499879Y-68703479D01*
X145527055Y-68718005D01*
X145595600Y-68754643D01*
X145679501Y-68823499D01*
X145748357Y-68907400D01*
X145784995Y-68975945D01*
X145799521Y-69003121D01*
X145831027Y-69106985D01*
X145841666Y-69215000D01*
X145831027Y-69323015D01*
X145799521Y-69426879D01*
X145799519Y-69426882D01*
X145748357Y-69522600D01*
X145679501Y-69606501D01*
X145595600Y-69675357D01*
X145527055Y-69711995D01*
X145499879Y-69726521D01*
X145487131Y-69730388D01*
X145464504Y-69739760D01*
X145444130Y-69753374D01*
X145426803Y-69770701D01*
X145413189Y-69791075D01*
X145403812Y-69813714D01*
X145399031Y-69837747D01*
X145399031Y-69862251D01*
X145403811Y-69886285D01*
X145413188Y-69908924D01*
X145426802Y-69929298D01*
X145444129Y-69946625D01*
X145464503Y-69960239D01*
X145487131Y-69969612D01*
X145499879Y-69973479D01*
X145527055Y-69988005D01*
X145595600Y-70024643D01*
X145679501Y-70093499D01*
X145748357Y-70177400D01*
X145784995Y-70245945D01*
X145799521Y-70273121D01*
X145831027Y-70376985D01*
X145841666Y-70485000D01*
X145831027Y-70593015D01*
X145799521Y-70696879D01*
X145799519Y-70696882D01*
X145748357Y-70792600D01*
X145679501Y-70876501D01*
X145595600Y-70945357D01*
X145527055Y-70981995D01*
X145499879Y-70996521D01*
X145487131Y-71000388D01*
X145464504Y-71009760D01*
X145444130Y-71023374D01*
X145426803Y-71040701D01*
X145413189Y-71061075D01*
X145403812Y-71083714D01*
X145399031Y-71107747D01*
X145399031Y-71132251D01*
X145403811Y-71156285D01*
X145413188Y-71178924D01*
X145426802Y-71199298D01*
X145444129Y-71216625D01*
X145464503Y-71230239D01*
X145487131Y-71239612D01*
X145499879Y-71243479D01*
X145527055Y-71258005D01*
X145595600Y-71294643D01*
X145679501Y-71363499D01*
X145748357Y-71447400D01*
X145784995Y-71515945D01*
X145799521Y-71543121D01*
X145831027Y-71646985D01*
X145841666Y-71755000D01*
X145831027Y-71863015D01*
X145799521Y-71966879D01*
X145799519Y-71966882D01*
X145748357Y-72062600D01*
X145679501Y-72146501D01*
X145595600Y-72215356D01*
X145551807Y-72238764D01*
X145531437Y-72252375D01*
X145514110Y-72269702D01*
X145500496Y-72290076D01*
X145491119Y-72312715D01*
X145486338Y-72336748D01*
X145486338Y-72361252D01*
X145491118Y-72385286D01*
X145500495Y-72407924D01*
X145514109Y-72428299D01*
X145531436Y-72445626D01*
X145551810Y-72459240D01*
X145574449Y-72468617D01*
X145598482Y-72473398D01*
X145610735Y-72474000D01*
X145839000Y-72474000D01*
X145839000Y-73576000D01*
X144737000Y-73576000D01*
X144737000Y-72474000D01*
X144965265Y-72474000D01*
X144989651Y-72471598D01*
X145013100Y-72464485D01*
X145034711Y-72452934D01*
X145053653Y-72437389D01*
X145069198Y-72418447D01*
X145080749Y-72396836D01*
X145087862Y-72373387D01*
X145090264Y-72349001D01*
X145087862Y-72324615D01*
X145080749Y-72301166D01*
X145069198Y-72279555D01*
X145053653Y-72260613D01*
X145034711Y-72245068D01*
X145024198Y-72238767D01*
X144980400Y-72215356D01*
X144896499Y-72146501D01*
X144827643Y-72062600D01*
X144776481Y-71966882D01*
X144776479Y-71966879D01*
X144744973Y-71863015D01*
X144734334Y-71755000D01*
X144744973Y-71646985D01*
X144776479Y-71543121D01*
X144791005Y-71515945D01*
X144827643Y-71447400D01*
X144896499Y-71363499D01*
X144980400Y-71294643D01*
X145048945Y-71258005D01*
X145076121Y-71243479D01*
X145088869Y-71239612D01*
X145111496Y-71230240D01*
X145131870Y-71216626D01*
X145149197Y-71199299D01*
X145162811Y-71178925D01*
X145172188Y-71156286D01*
X145176969Y-71132253D01*
X145176969Y-71107749D01*
X145172189Y-71083715D01*
X145162812Y-71061076D01*
X145149198Y-71040702D01*
X145131871Y-71023375D01*
X145111497Y-71009761D01*
X145088869Y-71000388D01*
X145076121Y-70996521D01*
X145048945Y-70981995D01*
X144980400Y-70945357D01*
X144896499Y-70876501D01*
X144827643Y-70792600D01*
X144776481Y-70696882D01*
X144776479Y-70696879D01*
X144744973Y-70593015D01*
X144734334Y-70485000D01*
X144744973Y-70376985D01*
X144776479Y-70273121D01*
X144791005Y-70245945D01*
X144827643Y-70177400D01*
X144896499Y-70093499D01*
X144980400Y-70024643D01*
X145048945Y-69988005D01*
X145076121Y-69973479D01*
X145088869Y-69969612D01*
X145111496Y-69960240D01*
X145131870Y-69946626D01*
X145149197Y-69929299D01*
X145162811Y-69908925D01*
X145172188Y-69886286D01*
X145176969Y-69862253D01*
X145176969Y-69837749D01*
X145172189Y-69813715D01*
X145162812Y-69791076D01*
X145149198Y-69770702D01*
X145131871Y-69753375D01*
X145111497Y-69739761D01*
X145088869Y-69730388D01*
X145076121Y-69726521D01*
X145048945Y-69711995D01*
X144980400Y-69675357D01*
X144896499Y-69606501D01*
X144827643Y-69522600D01*
X144776481Y-69426882D01*
X144776479Y-69426879D01*
X144744973Y-69323015D01*
X144734334Y-69215000D01*
X144744973Y-69106985D01*
X144776479Y-69003121D01*
X144791005Y-68975945D01*
X144827643Y-68907400D01*
X144896499Y-68823499D01*
X144980400Y-68754643D01*
X145048945Y-68718005D01*
X145076121Y-68703479D01*
X145088869Y-68699612D01*
X145111496Y-68690240D01*
X145131870Y-68676626D01*
X145149197Y-68659299D01*
X145162811Y-68638925D01*
X145172188Y-68616286D01*
X145176969Y-68592253D01*
X145176969Y-68567749D01*
X145172189Y-68543715D01*
X145162812Y-68521076D01*
X145149198Y-68500702D01*
X145131871Y-68483375D01*
X145111497Y-68469761D01*
X145088869Y-68460388D01*
X145076121Y-68456521D01*
X145048945Y-68441995D01*
X144980400Y-68405357D01*
X144896499Y-68336501D01*
X144827643Y-68252600D01*
X144776481Y-68156882D01*
X144776479Y-68156879D01*
X144744973Y-68053015D01*
X144734334Y-67945000D01*
X144744973Y-67836985D01*
X144776479Y-67733121D01*
X144791005Y-67705945D01*
X144827643Y-67637400D01*
X144896499Y-67553499D01*
X144980400Y-67484643D01*
X145048945Y-67448005D01*
X145076121Y-67433479D01*
X145088869Y-67429612D01*
X145111496Y-67420240D01*
X145131870Y-67406626D01*
X145149197Y-67389299D01*
X145162811Y-67368925D01*
X145172188Y-67346286D01*
X145176969Y-67322253D01*
X145176969Y-67297749D01*
X145172189Y-67273715D01*
X145162812Y-67251076D01*
X145149198Y-67230702D01*
X145131871Y-67213375D01*
X145111497Y-67199761D01*
X145088869Y-67190388D01*
X145076121Y-67186521D01*
X145048945Y-67171995D01*
X144980400Y-67135357D01*
X144896499Y-67066501D01*
X144827643Y-66982600D01*
X144776481Y-66886882D01*
X144776479Y-66886879D01*
X144744973Y-66783015D01*
X144734334Y-66675000D01*
X144744973Y-66566985D01*
X144776479Y-66463121D01*
X144791005Y-66435945D01*
X144827643Y-66367400D01*
X144896499Y-66283499D01*
X144980400Y-66214643D01*
X145048945Y-66178005D01*
X145076121Y-66163479D01*
X145088869Y-66159612D01*
X145111496Y-66150240D01*
X145131870Y-66136626D01*
X145149197Y-66119299D01*
X145162811Y-66098925D01*
X145172188Y-66076286D01*
X145176969Y-66052253D01*
X145176969Y-66027749D01*
X145172189Y-66003715D01*
X145162812Y-65981076D01*
X145149198Y-65960702D01*
X145131871Y-65943375D01*
X145111497Y-65929761D01*
X145088869Y-65920388D01*
X145076121Y-65916521D01*
X145048945Y-65901995D01*
X144980400Y-65865357D01*
X144896499Y-65796501D01*
X144827643Y-65712600D01*
X144776481Y-65616882D01*
X144776479Y-65616879D01*
X144744973Y-65513015D01*
X144734334Y-65405000D01*
X144744973Y-65296985D01*
X144776479Y-65193121D01*
X144791005Y-65165945D01*
X144827643Y-65097400D01*
X144896499Y-65013499D01*
X144980400Y-64944643D01*
X145048945Y-64908005D01*
X145076121Y-64893479D01*
X145088869Y-64889612D01*
X145111496Y-64880240D01*
X145131870Y-64866626D01*
X145149197Y-64849299D01*
X145162811Y-64828925D01*
X145172188Y-64806286D01*
X145176969Y-64782253D01*
X145176969Y-64757749D01*
X145172189Y-64733715D01*
X145162812Y-64711076D01*
X145149198Y-64690702D01*
X145131871Y-64673375D01*
X145111497Y-64659761D01*
X145088869Y-64650388D01*
X145076121Y-64646521D01*
X145048945Y-64631995D01*
X144980400Y-64595357D01*
X144896499Y-64526501D01*
X144827643Y-64442600D01*
X144776481Y-64346882D01*
X144776479Y-64346879D01*
X144744973Y-64243015D01*
X144734334Y-64135000D01*
X144744973Y-64026985D01*
X144776479Y-63923121D01*
X144791005Y-63895945D01*
X144827643Y-63827400D01*
X144896499Y-63743499D01*
X144980400Y-63674643D01*
X145048945Y-63638005D01*
X145076121Y-63623479D01*
X145088869Y-63619612D01*
X145111496Y-63610240D01*
X145131870Y-63596626D01*
X145149197Y-63579299D01*
X145162811Y-63558925D01*
X145172188Y-63536286D01*
X145176969Y-63512253D01*
X145176969Y-63487749D01*
X145172189Y-63463715D01*
X145162812Y-63441076D01*
X145149198Y-63420702D01*
X145131871Y-63403375D01*
X145111497Y-63389761D01*
X145088869Y-63380388D01*
X145076121Y-63376521D01*
X145048945Y-63361995D01*
X144980400Y-63325357D01*
X144896499Y-63256501D01*
X144827643Y-63172600D01*
X144776481Y-63076882D01*
X144776479Y-63076879D01*
X144744973Y-62973015D01*
X144734334Y-62865000D01*
X144744973Y-62756985D01*
X144776479Y-62653121D01*
X144791005Y-62625945D01*
X144827643Y-62557400D01*
X144896499Y-62473499D01*
X144980400Y-62404643D01*
X145048945Y-62368005D01*
X145076121Y-62353479D01*
X145088869Y-62349612D01*
X145111496Y-62340240D01*
X145131870Y-62326626D01*
X145149197Y-62309299D01*
X145162811Y-62288925D01*
X145172188Y-62266286D01*
X145176969Y-62242253D01*
X145176969Y-62217749D01*
X145172189Y-62193715D01*
X145162812Y-62171076D01*
X145149198Y-62150702D01*
X145131871Y-62133375D01*
X145111497Y-62119761D01*
X145088869Y-62110388D01*
X145076121Y-62106521D01*
X145048945Y-62091995D01*
X144980400Y-62055357D01*
X144896499Y-61986501D01*
X144827643Y-61902600D01*
X144776481Y-61806882D01*
X144776479Y-61806879D01*
X144744973Y-61703015D01*
X144734334Y-61595000D01*
X144744973Y-61486985D01*
X144776479Y-61383121D01*
X144791005Y-61355945D01*
X144827643Y-61287400D01*
X144896499Y-61203499D01*
X144980400Y-61134643D01*
X145048945Y-61098005D01*
X145076121Y-61083479D01*
X145088869Y-61079612D01*
X145111496Y-61070240D01*
X145131870Y-61056626D01*
X145149197Y-61039299D01*
X145162811Y-61018925D01*
X145172188Y-60996286D01*
X145176969Y-60972253D01*
X145176969Y-60947749D01*
X145172189Y-60923715D01*
X145162812Y-60901076D01*
X145149198Y-60880702D01*
X145131871Y-60863375D01*
X145111497Y-60849761D01*
X145088869Y-60840388D01*
X145076121Y-60836521D01*
X145048945Y-60821995D01*
X144980400Y-60785357D01*
X144896499Y-60716501D01*
X144827643Y-60632600D01*
X144776481Y-60536882D01*
X144776479Y-60536879D01*
X144744973Y-60433015D01*
X144734334Y-60325000D01*
X144744973Y-60216985D01*
X144776479Y-60113121D01*
X144791005Y-60085945D01*
X144827643Y-60017400D01*
X144896499Y-59933499D01*
X144980400Y-59864643D01*
X145048945Y-59828005D01*
X145076121Y-59813479D01*
X145088869Y-59809612D01*
X145111496Y-59800240D01*
X145131870Y-59786626D01*
X145149197Y-59769299D01*
X145162811Y-59748925D01*
X145172188Y-59726286D01*
X145176969Y-59702253D01*
X145176969Y-59677749D01*
X145172189Y-59653715D01*
X145162812Y-59631076D01*
X145149198Y-59610702D01*
X145131871Y-59593375D01*
X145111497Y-59579761D01*
X145088869Y-59570388D01*
X145076121Y-59566521D01*
X145048945Y-59551995D01*
X144980400Y-59515357D01*
X144896499Y-59446501D01*
X144827643Y-59362600D01*
X144776481Y-59266882D01*
X144776479Y-59266879D01*
X144744973Y-59163015D01*
X144734334Y-59055000D01*
X144744973Y-58946985D01*
X144776479Y-58843121D01*
X144791005Y-58815945D01*
X144827643Y-58747400D01*
X144896499Y-58663499D01*
X144980400Y-58594643D01*
X145048945Y-58558005D01*
X145076121Y-58543479D01*
X145088869Y-58539612D01*
X145111496Y-58530240D01*
X145131870Y-58516626D01*
X145149197Y-58499299D01*
X145162811Y-58478925D01*
X145172188Y-58456286D01*
X145176969Y-58432253D01*
X145176969Y-58407749D01*
X145172189Y-58383715D01*
X145162812Y-58361076D01*
X145149198Y-58340702D01*
X145131871Y-58323375D01*
X145111497Y-58309761D01*
X145088869Y-58300388D01*
X145076121Y-58296521D01*
X145048945Y-58281995D01*
X144980400Y-58245357D01*
X144896499Y-58176501D01*
X144827643Y-58092600D01*
X144776481Y-57996882D01*
X144776479Y-57996879D01*
X144744973Y-57893015D01*
X144734334Y-57785000D01*
X144744973Y-57676985D01*
X144776479Y-57573121D01*
X144791005Y-57545945D01*
X144827643Y-57477400D01*
X144896499Y-57393499D01*
X144980400Y-57324643D01*
X145048945Y-57288005D01*
X145076121Y-57273479D01*
X145088869Y-57269612D01*
X145111496Y-57260240D01*
X145131870Y-57246626D01*
X145149197Y-57229299D01*
X145162811Y-57208925D01*
X145172188Y-57186286D01*
X145176969Y-57162253D01*
X145176969Y-57137749D01*
X145172189Y-57113715D01*
X145162812Y-57091076D01*
X145149198Y-57070702D01*
X145131871Y-57053375D01*
X145111497Y-57039761D01*
X145088869Y-57030388D01*
X145076121Y-57026521D01*
X145048945Y-57011995D01*
X144980400Y-56975357D01*
X144896499Y-56906501D01*
X144827643Y-56822600D01*
X144776481Y-56726882D01*
X144776479Y-56726879D01*
X144744973Y-56623015D01*
X144734334Y-56515000D01*
X144744973Y-56406985D01*
X144776479Y-56303121D01*
X144791005Y-56275945D01*
X144827643Y-56207400D01*
X144896499Y-56123499D01*
X144980400Y-56054643D01*
X145048945Y-56018005D01*
X145076121Y-56003479D01*
X145088869Y-55999612D01*
X145111496Y-55990240D01*
X145131870Y-55976626D01*
X145149197Y-55959299D01*
X145162811Y-55938925D01*
X145172188Y-55916286D01*
X145176969Y-55892253D01*
X145176969Y-55867749D01*
X145172189Y-55843715D01*
X145162812Y-55821076D01*
X145149198Y-55800702D01*
X145131871Y-55783375D01*
X145111497Y-55769761D01*
X145088869Y-55760388D01*
X145076121Y-55756521D01*
X145048945Y-55741995D01*
X144980400Y-55705357D01*
X144896499Y-55636501D01*
X144827643Y-55552600D01*
X144776481Y-55456882D01*
X144776479Y-55456879D01*
X144744973Y-55353015D01*
X144734334Y-55245000D01*
X144744973Y-55136985D01*
X144776479Y-55033121D01*
X144791005Y-55005945D01*
X144827643Y-54937400D01*
X144896499Y-54853499D01*
X144980400Y-54784643D01*
X145048945Y-54748005D01*
X145076121Y-54733479D01*
X145088869Y-54729612D01*
X145111496Y-54720240D01*
X145131870Y-54706626D01*
X145149197Y-54689299D01*
X145162811Y-54668925D01*
X145172188Y-54646286D01*
X145176969Y-54622253D01*
X145176969Y-54597749D01*
X145172189Y-54573715D01*
X145162812Y-54551076D01*
X145149198Y-54530702D01*
X145131871Y-54513375D01*
X145111497Y-54499761D01*
X145088869Y-54490388D01*
X145076121Y-54486521D01*
X145048945Y-54471995D01*
X144980400Y-54435357D01*
X144896499Y-54366501D01*
X144827643Y-54282600D01*
X144776481Y-54186882D01*
X144776479Y-54186879D01*
X144744973Y-54083015D01*
X144734334Y-53975000D01*
X144744973Y-53866985D01*
X144776479Y-53763121D01*
X144791005Y-53735945D01*
X144827643Y-53667400D01*
X144896499Y-53583499D01*
X144980400Y-53514643D01*
X145048945Y-53478005D01*
X145076121Y-53463479D01*
X145179985Y-53431973D01*
X145260933Y-53424000D01*
X145315067Y-53424000D01*
X145396015Y-53431973D01*
X145396015Y-53431973D01*
G37*
G36*
X134786823Y-71551313D02*
G01*
X134947242Y-71599976D01*
X135035193Y-71646987D01*
X135095078Y-71678996D01*
X135224659Y-71785341D01*
X135331004Y-71914922D01*
X135331005Y-71914924D01*
X135410024Y-72062758D01*
X135458687Y-72223177D01*
X135475117Y-72390000D01*
X135458687Y-72556823D01*
X135410024Y-72717242D01*
X135339114Y-72849906D01*
X135331004Y-72865078D01*
X135224659Y-72994659D01*
X135095078Y-73101004D01*
X135095076Y-73101005D01*
X134947242Y-73180024D01*
X134786823Y-73228687D01*
X134661804Y-73241000D01*
X134578196Y-73241000D01*
X134453177Y-73228687D01*
X134292758Y-73180024D01*
X134144924Y-73101005D01*
X134144922Y-73101004D01*
X134015341Y-72994659D01*
X133908996Y-72865078D01*
X133900886Y-72849906D01*
X133829976Y-72717242D01*
X133781313Y-72556823D01*
X133764883Y-72390000D01*
X133781313Y-72223177D01*
X133829976Y-72062758D01*
X133908995Y-71914924D01*
X133908996Y-71914922D01*
X134015341Y-71785341D01*
X134144922Y-71678996D01*
X134204807Y-71646987D01*
X134292758Y-71599976D01*
X134453177Y-71551313D01*
X134578196Y-71539000D01*
X134661804Y-71539000D01*
X134786823Y-71551313D01*
X134786823Y-71551313D01*
G37*
G36*
X119546823Y-71551313D02*
G01*
X119707242Y-71599976D01*
X119795193Y-71646987D01*
X119855078Y-71678996D01*
X119984659Y-71785341D01*
X120091004Y-71914922D01*
X120091005Y-71914924D01*
X120170024Y-72062758D01*
X120218687Y-72223177D01*
X120235117Y-72390000D01*
X120218687Y-72556823D01*
X120170024Y-72717242D01*
X120099114Y-72849906D01*
X120091004Y-72865078D01*
X119984659Y-72994659D01*
X119855078Y-73101004D01*
X119855076Y-73101005D01*
X119707242Y-73180024D01*
X119546823Y-73228687D01*
X119421804Y-73241000D01*
X119338196Y-73241000D01*
X119213177Y-73228687D01*
X119052758Y-73180024D01*
X118904924Y-73101005D01*
X118904922Y-73101004D01*
X118775341Y-72994659D01*
X118668996Y-72865078D01*
X118660886Y-72849906D01*
X118589976Y-72717242D01*
X118541313Y-72556823D01*
X118524883Y-72390000D01*
X118541313Y-72223177D01*
X118589976Y-72062758D01*
X118668995Y-71914924D01*
X118668996Y-71914922D01*
X118775341Y-71785341D01*
X118904922Y-71678996D01*
X118964807Y-71646987D01*
X119052758Y-71599976D01*
X119213177Y-71551313D01*
X119338196Y-71539000D01*
X119421804Y-71539000D01*
X119546823Y-71551313D01*
X119546823Y-71551313D01*
G37*
G36*
X95670823Y-69265313D02*
G01*
X95831242Y-69313976D01*
X95963906Y-69384886D01*
X95979078Y-69392996D01*
X96108659Y-69499341D01*
X96215004Y-69628922D01*
X96215005Y-69628924D01*
X96294024Y-69776758D01*
X96342687Y-69937177D01*
X96359117Y-70104000D01*
X96342687Y-70270823D01*
X96294024Y-70431242D01*
X96224665Y-70561004D01*
X96215004Y-70579078D01*
X96108659Y-70708659D01*
X95979078Y-70815004D01*
X95979076Y-70815005D01*
X95831242Y-70894024D01*
X95670823Y-70942687D01*
X95545804Y-70955000D01*
X95462196Y-70955000D01*
X95337177Y-70942687D01*
X95176758Y-70894024D01*
X95028924Y-70815005D01*
X95028922Y-70815004D01*
X94899341Y-70708659D01*
X94792996Y-70579078D01*
X94783335Y-70561004D01*
X94713976Y-70431242D01*
X94665313Y-70270823D01*
X94648883Y-70104000D01*
X94665313Y-69937177D01*
X94713976Y-69776758D01*
X94792995Y-69628924D01*
X94792996Y-69628922D01*
X94899341Y-69499341D01*
X95028922Y-69392996D01*
X95044094Y-69384886D01*
X95176758Y-69313976D01*
X95337177Y-69265313D01*
X95462196Y-69253000D01*
X95545804Y-69253000D01*
X95670823Y-69265313D01*
X95670823Y-69265313D01*
G37*
G36*
X102274823Y-69265313D02*
G01*
X102435242Y-69313976D01*
X102567906Y-69384886D01*
X102583078Y-69392996D01*
X102712659Y-69499341D01*
X102819004Y-69628922D01*
X102819005Y-69628924D01*
X102898024Y-69776758D01*
X102946687Y-69937177D01*
X102963117Y-70104000D01*
X102946687Y-70270823D01*
X102898024Y-70431242D01*
X102828665Y-70561004D01*
X102819004Y-70579078D01*
X102712659Y-70708659D01*
X102583078Y-70815004D01*
X102583076Y-70815005D01*
X102435242Y-70894024D01*
X102274823Y-70942687D01*
X102149804Y-70955000D01*
X102066196Y-70955000D01*
X101941177Y-70942687D01*
X101780758Y-70894024D01*
X101632924Y-70815005D01*
X101632922Y-70815004D01*
X101503341Y-70708659D01*
X101396996Y-70579078D01*
X101387335Y-70561004D01*
X101317976Y-70431242D01*
X101269313Y-70270823D01*
X101252883Y-70104000D01*
X101269313Y-69937177D01*
X101317976Y-69776758D01*
X101396995Y-69628924D01*
X101396996Y-69628922D01*
X101503341Y-69499341D01*
X101632922Y-69392996D01*
X101648094Y-69384886D01*
X101780758Y-69313976D01*
X101941177Y-69265313D01*
X102066196Y-69253000D01*
X102149804Y-69253000D01*
X102274823Y-69265313D01*
X102274823Y-69265313D01*
G37*
G36*
X109894823Y-69265313D02*
G01*
X110055242Y-69313976D01*
X110187906Y-69384886D01*
X110203078Y-69392996D01*
X110332659Y-69499341D01*
X110439004Y-69628922D01*
X110439005Y-69628924D01*
X110518024Y-69776758D01*
X110566687Y-69937177D01*
X110583117Y-70104000D01*
X110566687Y-70270823D01*
X110518024Y-70431242D01*
X110448665Y-70561004D01*
X110439004Y-70579078D01*
X110332659Y-70708659D01*
X110203078Y-70815004D01*
X110203076Y-70815005D01*
X110055242Y-70894024D01*
X109894823Y-70942687D01*
X109769804Y-70955000D01*
X109686196Y-70955000D01*
X109561177Y-70942687D01*
X109400758Y-70894024D01*
X109252924Y-70815005D01*
X109252922Y-70815004D01*
X109123341Y-70708659D01*
X109016996Y-70579078D01*
X109007335Y-70561004D01*
X108937976Y-70431242D01*
X108889313Y-70270823D01*
X108872883Y-70104000D01*
X108889313Y-69937177D01*
X108937976Y-69776758D01*
X109016995Y-69628924D01*
X109016996Y-69628922D01*
X109123341Y-69499341D01*
X109252922Y-69392996D01*
X109268094Y-69384886D01*
X109400758Y-69313976D01*
X109561177Y-69265313D01*
X109686196Y-69253000D01*
X109769804Y-69253000D01*
X109894823Y-69265313D01*
X109894823Y-69265313D01*
G37*
G36*
X88050823Y-69265313D02*
G01*
X88211242Y-69313976D01*
X88343906Y-69384886D01*
X88359078Y-69392996D01*
X88488659Y-69499341D01*
X88595004Y-69628922D01*
X88595005Y-69628924D01*
X88674024Y-69776758D01*
X88722687Y-69937177D01*
X88739117Y-70104000D01*
X88722687Y-70270823D01*
X88674024Y-70431242D01*
X88604665Y-70561004D01*
X88595004Y-70579078D01*
X88488659Y-70708659D01*
X88359078Y-70815004D01*
X88359076Y-70815005D01*
X88211242Y-70894024D01*
X88050823Y-70942687D01*
X87925804Y-70955000D01*
X87842196Y-70955000D01*
X87717177Y-70942687D01*
X87556758Y-70894024D01*
X87408924Y-70815005D01*
X87408922Y-70815004D01*
X87279341Y-70708659D01*
X87172996Y-70579078D01*
X87163335Y-70561004D01*
X87093976Y-70431242D01*
X87045313Y-70270823D01*
X87028883Y-70104000D01*
X87045313Y-69937177D01*
X87093976Y-69776758D01*
X87172995Y-69628924D01*
X87172996Y-69628922D01*
X87279341Y-69499341D01*
X87408922Y-69392996D01*
X87424094Y-69384886D01*
X87556758Y-69313976D01*
X87717177Y-69265313D01*
X87842196Y-69253000D01*
X87925804Y-69253000D01*
X88050823Y-69265313D01*
X88050823Y-69265313D01*
G37*
G36*
X134786823Y-69011313D02*
G01*
X134947242Y-69059976D01*
X135035193Y-69106987D01*
X135095078Y-69138996D01*
X135224659Y-69245341D01*
X135331004Y-69374922D01*
X135331005Y-69374924D01*
X135410024Y-69522758D01*
X135458687Y-69683177D01*
X135475117Y-69850000D01*
X135458687Y-70016823D01*
X135410024Y-70177242D01*
X135339114Y-70309906D01*
X135331004Y-70325078D01*
X135224659Y-70454659D01*
X135095078Y-70561004D01*
X135095076Y-70561005D01*
X134947242Y-70640024D01*
X134786823Y-70688687D01*
X134661804Y-70701000D01*
X134578196Y-70701000D01*
X134453177Y-70688687D01*
X134292758Y-70640024D01*
X134144924Y-70561005D01*
X134144922Y-70561004D01*
X134015341Y-70454659D01*
X133908996Y-70325078D01*
X133900886Y-70309906D01*
X133829976Y-70177242D01*
X133781313Y-70016823D01*
X133764883Y-69850000D01*
X133781313Y-69683177D01*
X133829976Y-69522758D01*
X133908995Y-69374924D01*
X133908996Y-69374922D01*
X134015341Y-69245341D01*
X134144922Y-69138996D01*
X134204807Y-69106987D01*
X134292758Y-69059976D01*
X134453177Y-69011313D01*
X134578196Y-68999000D01*
X134661804Y-68999000D01*
X134786823Y-69011313D01*
X134786823Y-69011313D01*
G37*
G36*
X119546823Y-69011313D02*
G01*
X119707242Y-69059976D01*
X119795193Y-69106987D01*
X119855078Y-69138996D01*
X119984659Y-69245341D01*
X120091004Y-69374922D01*
X120091005Y-69374924D01*
X120170024Y-69522758D01*
X120218687Y-69683177D01*
X120235117Y-69850000D01*
X120218687Y-70016823D01*
X120170024Y-70177242D01*
X120099114Y-70309906D01*
X120091004Y-70325078D01*
X119984659Y-70454659D01*
X119855078Y-70561004D01*
X119855076Y-70561005D01*
X119707242Y-70640024D01*
X119546823Y-70688687D01*
X119421804Y-70701000D01*
X119338196Y-70701000D01*
X119213177Y-70688687D01*
X119052758Y-70640024D01*
X118904924Y-70561005D01*
X118904922Y-70561004D01*
X118775341Y-70454659D01*
X118668996Y-70325078D01*
X118660886Y-70309906D01*
X118589976Y-70177242D01*
X118541313Y-70016823D01*
X118524883Y-69850000D01*
X118541313Y-69683177D01*
X118589976Y-69522758D01*
X118668995Y-69374924D01*
X118668996Y-69374922D01*
X118775341Y-69245341D01*
X118904922Y-69138996D01*
X118964807Y-69106987D01*
X119052758Y-69059976D01*
X119213177Y-69011313D01*
X119338196Y-68999000D01*
X119421804Y-68999000D01*
X119546823Y-69011313D01*
X119546823Y-69011313D01*
G37*
G36*
X88050823Y-66725313D02*
G01*
X88211242Y-66773976D01*
X88343906Y-66844886D01*
X88359078Y-66852996D01*
X88488659Y-66959341D01*
X88595004Y-67088922D01*
X88595005Y-67088924D01*
X88674024Y-67236758D01*
X88722687Y-67397177D01*
X88739117Y-67564000D01*
X88722687Y-67730823D01*
X88674024Y-67891242D01*
X88604665Y-68021004D01*
X88595004Y-68039078D01*
X88488659Y-68168659D01*
X88359078Y-68275004D01*
X88359076Y-68275005D01*
X88211242Y-68354024D01*
X88050823Y-68402687D01*
X87925804Y-68415000D01*
X87842196Y-68415000D01*
X87717177Y-68402687D01*
X87556758Y-68354024D01*
X87408924Y-68275005D01*
X87408922Y-68275004D01*
X87279341Y-68168659D01*
X87172996Y-68039078D01*
X87163335Y-68021004D01*
X87093976Y-67891242D01*
X87045313Y-67730823D01*
X87028883Y-67564000D01*
X87045313Y-67397177D01*
X87093976Y-67236758D01*
X87172995Y-67088924D01*
X87172996Y-67088922D01*
X87279341Y-66959341D01*
X87408922Y-66852996D01*
X87424094Y-66844886D01*
X87556758Y-66773976D01*
X87717177Y-66725313D01*
X87842196Y-66713000D01*
X87925804Y-66713000D01*
X88050823Y-66725313D01*
X88050823Y-66725313D01*
G37*
G36*
X109894823Y-66725313D02*
G01*
X110055242Y-66773976D01*
X110187906Y-66844886D01*
X110203078Y-66852996D01*
X110332659Y-66959341D01*
X110439004Y-67088922D01*
X110439005Y-67088924D01*
X110518024Y-67236758D01*
X110566687Y-67397177D01*
X110583117Y-67564000D01*
X110566687Y-67730823D01*
X110518024Y-67891242D01*
X110448665Y-68021004D01*
X110439004Y-68039078D01*
X110332659Y-68168659D01*
X110203078Y-68275004D01*
X110203076Y-68275005D01*
X110055242Y-68354024D01*
X109894823Y-68402687D01*
X109769804Y-68415000D01*
X109686196Y-68415000D01*
X109561177Y-68402687D01*
X109400758Y-68354024D01*
X109252924Y-68275005D01*
X109252922Y-68275004D01*
X109123341Y-68168659D01*
X109016996Y-68039078D01*
X109007335Y-68021004D01*
X108937976Y-67891242D01*
X108889313Y-67730823D01*
X108872883Y-67564000D01*
X108889313Y-67397177D01*
X108937976Y-67236758D01*
X109016995Y-67088924D01*
X109016996Y-67088922D01*
X109123341Y-66959341D01*
X109252922Y-66852996D01*
X109268094Y-66844886D01*
X109400758Y-66773976D01*
X109561177Y-66725313D01*
X109686196Y-66713000D01*
X109769804Y-66713000D01*
X109894823Y-66725313D01*
X109894823Y-66725313D01*
G37*
G36*
X102274823Y-66725313D02*
G01*
X102435242Y-66773976D01*
X102567906Y-66844886D01*
X102583078Y-66852996D01*
X102712659Y-66959341D01*
X102819004Y-67088922D01*
X102819005Y-67088924D01*
X102898024Y-67236758D01*
X102946687Y-67397177D01*
X102963117Y-67564000D01*
X102946687Y-67730823D01*
X102898024Y-67891242D01*
X102828665Y-68021004D01*
X102819004Y-68039078D01*
X102712659Y-68168659D01*
X102583078Y-68275004D01*
X102583076Y-68275005D01*
X102435242Y-68354024D01*
X102274823Y-68402687D01*
X102149804Y-68415000D01*
X102066196Y-68415000D01*
X101941177Y-68402687D01*
X101780758Y-68354024D01*
X101632924Y-68275005D01*
X101632922Y-68275004D01*
X101503341Y-68168659D01*
X101396996Y-68039078D01*
X101387335Y-68021004D01*
X101317976Y-67891242D01*
X101269313Y-67730823D01*
X101252883Y-67564000D01*
X101269313Y-67397177D01*
X101317976Y-67236758D01*
X101396995Y-67088924D01*
X101396996Y-67088922D01*
X101503341Y-66959341D01*
X101632922Y-66852996D01*
X101648094Y-66844886D01*
X101780758Y-66773976D01*
X101941177Y-66725313D01*
X102066196Y-66713000D01*
X102149804Y-66713000D01*
X102274823Y-66725313D01*
X102274823Y-66725313D01*
G37*
G36*
X95670823Y-66725313D02*
G01*
X95831242Y-66773976D01*
X95963906Y-66844886D01*
X95979078Y-66852996D01*
X96108659Y-66959341D01*
X96215004Y-67088922D01*
X96215005Y-67088924D01*
X96294024Y-67236758D01*
X96342687Y-67397177D01*
X96359117Y-67564000D01*
X96342687Y-67730823D01*
X96294024Y-67891242D01*
X96224665Y-68021004D01*
X96215004Y-68039078D01*
X96108659Y-68168659D01*
X95979078Y-68275004D01*
X95979076Y-68275005D01*
X95831242Y-68354024D01*
X95670823Y-68402687D01*
X95545804Y-68415000D01*
X95462196Y-68415000D01*
X95337177Y-68402687D01*
X95176758Y-68354024D01*
X95028924Y-68275005D01*
X95028922Y-68275004D01*
X94899341Y-68168659D01*
X94792996Y-68039078D01*
X94783335Y-68021004D01*
X94713976Y-67891242D01*
X94665313Y-67730823D01*
X94648883Y-67564000D01*
X94665313Y-67397177D01*
X94713976Y-67236758D01*
X94792995Y-67088924D01*
X94792996Y-67088922D01*
X94899341Y-66959341D01*
X95028922Y-66852996D01*
X95044094Y-66844886D01*
X95176758Y-66773976D01*
X95337177Y-66725313D01*
X95462196Y-66713000D01*
X95545804Y-66713000D01*
X95670823Y-66725313D01*
X95670823Y-66725313D01*
G37*
G36*
X119546823Y-66471313D02*
G01*
X119707242Y-66519976D01*
X119795193Y-66566987D01*
X119855078Y-66598996D01*
X119984659Y-66705341D01*
X120091004Y-66834922D01*
X120091005Y-66834924D01*
X120170024Y-66982758D01*
X120218687Y-67143177D01*
X120235117Y-67310000D01*
X120218687Y-67476823D01*
X120170024Y-67637242D01*
X120099114Y-67769906D01*
X120091004Y-67785078D01*
X119984659Y-67914659D01*
X119855078Y-68021004D01*
X119855076Y-68021005D01*
X119707242Y-68100024D01*
X119546823Y-68148687D01*
X119421804Y-68161000D01*
X119338196Y-68161000D01*
X119213177Y-68148687D01*
X119052758Y-68100024D01*
X118904924Y-68021005D01*
X118904922Y-68021004D01*
X118775341Y-67914659D01*
X118668996Y-67785078D01*
X118660886Y-67769906D01*
X118589976Y-67637242D01*
X118541313Y-67476823D01*
X118524883Y-67310000D01*
X118541313Y-67143177D01*
X118589976Y-66982758D01*
X118668995Y-66834924D01*
X118668996Y-66834922D01*
X118775341Y-66705341D01*
X118904922Y-66598996D01*
X118964807Y-66566987D01*
X119052758Y-66519976D01*
X119213177Y-66471313D01*
X119338196Y-66459000D01*
X119421804Y-66459000D01*
X119546823Y-66471313D01*
X119546823Y-66471313D01*
G37*
G36*
X134786823Y-66471313D02*
G01*
X134947242Y-66519976D01*
X135035193Y-66566987D01*
X135095078Y-66598996D01*
X135224659Y-66705341D01*
X135331004Y-66834922D01*
X135331005Y-66834924D01*
X135410024Y-66982758D01*
X135458687Y-67143177D01*
X135475117Y-67310000D01*
X135458687Y-67476823D01*
X135410024Y-67637242D01*
X135339114Y-67769906D01*
X135331004Y-67785078D01*
X135224659Y-67914659D01*
X135095078Y-68021004D01*
X135095076Y-68021005D01*
X134947242Y-68100024D01*
X134786823Y-68148687D01*
X134661804Y-68161000D01*
X134578196Y-68161000D01*
X134453177Y-68148687D01*
X134292758Y-68100024D01*
X134144924Y-68021005D01*
X134144922Y-68021004D01*
X134015341Y-67914659D01*
X133908996Y-67785078D01*
X133900886Y-67769906D01*
X133829976Y-67637242D01*
X133781313Y-67476823D01*
X133764883Y-67310000D01*
X133781313Y-67143177D01*
X133829976Y-66982758D01*
X133908995Y-66834924D01*
X133908996Y-66834922D01*
X134015341Y-66705341D01*
X134144922Y-66598996D01*
X134204807Y-66566987D01*
X134292758Y-66519976D01*
X134453177Y-66471313D01*
X134578196Y-66459000D01*
X134661804Y-66459000D01*
X134786823Y-66471313D01*
X134786823Y-66471313D01*
G37*
G36*
X95670823Y-64185313D02*
G01*
X95831242Y-64233976D01*
X95963906Y-64304886D01*
X95979078Y-64312996D01*
X96108659Y-64419341D01*
X96215004Y-64548922D01*
X96215005Y-64548924D01*
X96294024Y-64696758D01*
X96342687Y-64857177D01*
X96359117Y-65024000D01*
X96342687Y-65190823D01*
X96294024Y-65351242D01*
X96224665Y-65481004D01*
X96215004Y-65499078D01*
X96108659Y-65628659D01*
X95979078Y-65735004D01*
X95979076Y-65735005D01*
X95831242Y-65814024D01*
X95670823Y-65862687D01*
X95545804Y-65875000D01*
X95462196Y-65875000D01*
X95337177Y-65862687D01*
X95176758Y-65814024D01*
X95028924Y-65735005D01*
X95028922Y-65735004D01*
X94899341Y-65628659D01*
X94792996Y-65499078D01*
X94783335Y-65481004D01*
X94713976Y-65351242D01*
X94665313Y-65190823D01*
X94648883Y-65024000D01*
X94665313Y-64857177D01*
X94713976Y-64696758D01*
X94792995Y-64548924D01*
X94792996Y-64548922D01*
X94899341Y-64419341D01*
X95028922Y-64312996D01*
X95044094Y-64304886D01*
X95176758Y-64233976D01*
X95337177Y-64185313D01*
X95462196Y-64173000D01*
X95545804Y-64173000D01*
X95670823Y-64185313D01*
X95670823Y-64185313D01*
G37*
G36*
X109894823Y-64185313D02*
G01*
X110055242Y-64233976D01*
X110187906Y-64304886D01*
X110203078Y-64312996D01*
X110332659Y-64419341D01*
X110439004Y-64548922D01*
X110439005Y-64548924D01*
X110518024Y-64696758D01*
X110566687Y-64857177D01*
X110583117Y-65024000D01*
X110566687Y-65190823D01*
X110518024Y-65351242D01*
X110448665Y-65481004D01*
X110439004Y-65499078D01*
X110332659Y-65628659D01*
X110203078Y-65735004D01*
X110203076Y-65735005D01*
X110055242Y-65814024D01*
X109894823Y-65862687D01*
X109769804Y-65875000D01*
X109686196Y-65875000D01*
X109561177Y-65862687D01*
X109400758Y-65814024D01*
X109252924Y-65735005D01*
X109252922Y-65735004D01*
X109123341Y-65628659D01*
X109016996Y-65499078D01*
X109007335Y-65481004D01*
X108937976Y-65351242D01*
X108889313Y-65190823D01*
X108872883Y-65024000D01*
X108889313Y-64857177D01*
X108937976Y-64696758D01*
X109016995Y-64548924D01*
X109016996Y-64548922D01*
X109123341Y-64419341D01*
X109252922Y-64312996D01*
X109268094Y-64304886D01*
X109400758Y-64233976D01*
X109561177Y-64185313D01*
X109686196Y-64173000D01*
X109769804Y-64173000D01*
X109894823Y-64185313D01*
X109894823Y-64185313D01*
G37*
G36*
X102274823Y-64185313D02*
G01*
X102435242Y-64233976D01*
X102567906Y-64304886D01*
X102583078Y-64312996D01*
X102712659Y-64419341D01*
X102819004Y-64548922D01*
X102819005Y-64548924D01*
X102898024Y-64696758D01*
X102946687Y-64857177D01*
X102963117Y-65024000D01*
X102946687Y-65190823D01*
X102898024Y-65351242D01*
X102828665Y-65481004D01*
X102819004Y-65499078D01*
X102712659Y-65628659D01*
X102583078Y-65735004D01*
X102583076Y-65735005D01*
X102435242Y-65814024D01*
X102274823Y-65862687D01*
X102149804Y-65875000D01*
X102066196Y-65875000D01*
X101941177Y-65862687D01*
X101780758Y-65814024D01*
X101632924Y-65735005D01*
X101632922Y-65735004D01*
X101503341Y-65628659D01*
X101396996Y-65499078D01*
X101387335Y-65481004D01*
X101317976Y-65351242D01*
X101269313Y-65190823D01*
X101252883Y-65024000D01*
X101269313Y-64857177D01*
X101317976Y-64696758D01*
X101396995Y-64548924D01*
X101396996Y-64548922D01*
X101503341Y-64419341D01*
X101632922Y-64312996D01*
X101648094Y-64304886D01*
X101780758Y-64233976D01*
X101941177Y-64185313D01*
X102066196Y-64173000D01*
X102149804Y-64173000D01*
X102274823Y-64185313D01*
X102274823Y-64185313D01*
G37*
G36*
X88050823Y-64185313D02*
G01*
X88211242Y-64233976D01*
X88343906Y-64304886D01*
X88359078Y-64312996D01*
X88488659Y-64419341D01*
X88595004Y-64548922D01*
X88595005Y-64548924D01*
X88674024Y-64696758D01*
X88722687Y-64857177D01*
X88739117Y-65024000D01*
X88722687Y-65190823D01*
X88674024Y-65351242D01*
X88604665Y-65481004D01*
X88595004Y-65499078D01*
X88488659Y-65628659D01*
X88359078Y-65735004D01*
X88359076Y-65735005D01*
X88211242Y-65814024D01*
X88050823Y-65862687D01*
X87925804Y-65875000D01*
X87842196Y-65875000D01*
X87717177Y-65862687D01*
X87556758Y-65814024D01*
X87408924Y-65735005D01*
X87408922Y-65735004D01*
X87279341Y-65628659D01*
X87172996Y-65499078D01*
X87163335Y-65481004D01*
X87093976Y-65351242D01*
X87045313Y-65190823D01*
X87028883Y-65024000D01*
X87045313Y-64857177D01*
X87093976Y-64696758D01*
X87172995Y-64548924D01*
X87172996Y-64548922D01*
X87279341Y-64419341D01*
X87408922Y-64312996D01*
X87424094Y-64304886D01*
X87556758Y-64233976D01*
X87717177Y-64185313D01*
X87842196Y-64173000D01*
X87925804Y-64173000D01*
X88050823Y-64185313D01*
X88050823Y-64185313D01*
G37*
G36*
X119546823Y-63931313D02*
G01*
X119707242Y-63979976D01*
X119795193Y-64026987D01*
X119855078Y-64058996D01*
X119984659Y-64165341D01*
X120091004Y-64294922D01*
X120091005Y-64294924D01*
X120170024Y-64442758D01*
X120218687Y-64603177D01*
X120235117Y-64770000D01*
X120218687Y-64936823D01*
X120170024Y-65097242D01*
X120099114Y-65229906D01*
X120091004Y-65245078D01*
X119984659Y-65374659D01*
X119855078Y-65481004D01*
X119855076Y-65481005D01*
X119707242Y-65560024D01*
X119546823Y-65608687D01*
X119421804Y-65621000D01*
X119338196Y-65621000D01*
X119213177Y-65608687D01*
X119052758Y-65560024D01*
X118904924Y-65481005D01*
X118904922Y-65481004D01*
X118775341Y-65374659D01*
X118668996Y-65245078D01*
X118660886Y-65229906D01*
X118589976Y-65097242D01*
X118541313Y-64936823D01*
X118524883Y-64770000D01*
X118541313Y-64603177D01*
X118589976Y-64442758D01*
X118668995Y-64294924D01*
X118668996Y-64294922D01*
X118775341Y-64165341D01*
X118904922Y-64058996D01*
X118964807Y-64026987D01*
X119052758Y-63979976D01*
X119213177Y-63931313D01*
X119338196Y-63919000D01*
X119421804Y-63919000D01*
X119546823Y-63931313D01*
X119546823Y-63931313D01*
G37*
G36*
X134786823Y-63931313D02*
G01*
X134947242Y-63979976D01*
X135035193Y-64026987D01*
X135095078Y-64058996D01*
X135224659Y-64165341D01*
X135331004Y-64294922D01*
X135331005Y-64294924D01*
X135410024Y-64442758D01*
X135458687Y-64603177D01*
X135475117Y-64770000D01*
X135458687Y-64936823D01*
X135410024Y-65097242D01*
X135339114Y-65229906D01*
X135331004Y-65245078D01*
X135224659Y-65374659D01*
X135095078Y-65481004D01*
X135095076Y-65481005D01*
X134947242Y-65560024D01*
X134786823Y-65608687D01*
X134661804Y-65621000D01*
X134578196Y-65621000D01*
X134453177Y-65608687D01*
X134292758Y-65560024D01*
X134144924Y-65481005D01*
X134144922Y-65481004D01*
X134015341Y-65374659D01*
X133908996Y-65245078D01*
X133900886Y-65229906D01*
X133829976Y-65097242D01*
X133781313Y-64936823D01*
X133764883Y-64770000D01*
X133781313Y-64603177D01*
X133829976Y-64442758D01*
X133908995Y-64294924D01*
X133908996Y-64294922D01*
X134015341Y-64165341D01*
X134144922Y-64058996D01*
X134204807Y-64026987D01*
X134292758Y-63979976D01*
X134453177Y-63931313D01*
X134578196Y-63919000D01*
X134661804Y-63919000D01*
X134786823Y-63931313D01*
X134786823Y-63931313D01*
G37*
G36*
X75019000Y-64859000D02*
G01*
X73317000Y-64859000D01*
X73317000Y-63157000D01*
X75019000Y-63157000D01*
X75019000Y-64859000D01*
X75019000Y-64859000D01*
G37*
G36*
X82036228Y-63189703D02*
G01*
X82191100Y-63253853D01*
X82330481Y-63346985D01*
X82449015Y-63465519D01*
X82542147Y-63604900D01*
X82606297Y-63759772D01*
X82639000Y-63924184D01*
X82639000Y-64091816D01*
X82606297Y-64256228D01*
X82542147Y-64411100D01*
X82449015Y-64550481D01*
X82330481Y-64669015D01*
X82191100Y-64762147D01*
X82036228Y-64826297D01*
X81871816Y-64859000D01*
X81704184Y-64859000D01*
X81539772Y-64826297D01*
X81384900Y-64762147D01*
X81245519Y-64669015D01*
X81126985Y-64550481D01*
X81033853Y-64411100D01*
X80969703Y-64256228D01*
X80937000Y-64091816D01*
X80937000Y-63924184D01*
X80969703Y-63759772D01*
X81033853Y-63604900D01*
X81126985Y-63465519D01*
X81245519Y-63346985D01*
X81384900Y-63253853D01*
X81539772Y-63189703D01*
X81704184Y-63157000D01*
X81871816Y-63157000D01*
X82036228Y-63189703D01*
X82036228Y-63189703D01*
G37*
G36*
X88050823Y-61645313D02*
G01*
X88211242Y-61693976D01*
X88343906Y-61764886D01*
X88359078Y-61772996D01*
X88488659Y-61879341D01*
X88595004Y-62008922D01*
X88595005Y-62008924D01*
X88674024Y-62156758D01*
X88722687Y-62317177D01*
X88739117Y-62484000D01*
X88722687Y-62650823D01*
X88674024Y-62811242D01*
X88604665Y-62941004D01*
X88595004Y-62959078D01*
X88488659Y-63088659D01*
X88359078Y-63195004D01*
X88359076Y-63195005D01*
X88211242Y-63274024D01*
X88050823Y-63322687D01*
X87925804Y-63335000D01*
X87842196Y-63335000D01*
X87717177Y-63322687D01*
X87556758Y-63274024D01*
X87408924Y-63195005D01*
X87408922Y-63195004D01*
X87279341Y-63088659D01*
X87172996Y-62959078D01*
X87163335Y-62941004D01*
X87093976Y-62811242D01*
X87045313Y-62650823D01*
X87028883Y-62484000D01*
X87045313Y-62317177D01*
X87093976Y-62156758D01*
X87172995Y-62008924D01*
X87172996Y-62008922D01*
X87279341Y-61879341D01*
X87408922Y-61772996D01*
X87424094Y-61764886D01*
X87556758Y-61693976D01*
X87717177Y-61645313D01*
X87842196Y-61633000D01*
X87925804Y-61633000D01*
X88050823Y-61645313D01*
X88050823Y-61645313D01*
G37*
G36*
X95670823Y-61645313D02*
G01*
X95831242Y-61693976D01*
X95963906Y-61764886D01*
X95979078Y-61772996D01*
X96108659Y-61879341D01*
X96215004Y-62008922D01*
X96215005Y-62008924D01*
X96294024Y-62156758D01*
X96342687Y-62317177D01*
X96359117Y-62484000D01*
X96342687Y-62650823D01*
X96294024Y-62811242D01*
X96224665Y-62941004D01*
X96215004Y-62959078D01*
X96108659Y-63088659D01*
X95979078Y-63195004D01*
X95979076Y-63195005D01*
X95831242Y-63274024D01*
X95670823Y-63322687D01*
X95545804Y-63335000D01*
X95462196Y-63335000D01*
X95337177Y-63322687D01*
X95176758Y-63274024D01*
X95028924Y-63195005D01*
X95028922Y-63195004D01*
X94899341Y-63088659D01*
X94792996Y-62959078D01*
X94783335Y-62941004D01*
X94713976Y-62811242D01*
X94665313Y-62650823D01*
X94648883Y-62484000D01*
X94665313Y-62317177D01*
X94713976Y-62156758D01*
X94792995Y-62008924D01*
X94792996Y-62008922D01*
X94899341Y-61879341D01*
X95028922Y-61772996D01*
X95044094Y-61764886D01*
X95176758Y-61693976D01*
X95337177Y-61645313D01*
X95462196Y-61633000D01*
X95545804Y-61633000D01*
X95670823Y-61645313D01*
X95670823Y-61645313D01*
G37*
G36*
X109894823Y-61645313D02*
G01*
X110055242Y-61693976D01*
X110187906Y-61764886D01*
X110203078Y-61772996D01*
X110332659Y-61879341D01*
X110439004Y-62008922D01*
X110439005Y-62008924D01*
X110518024Y-62156758D01*
X110566687Y-62317177D01*
X110583117Y-62484000D01*
X110566687Y-62650823D01*
X110518024Y-62811242D01*
X110448665Y-62941004D01*
X110439004Y-62959078D01*
X110332659Y-63088659D01*
X110203078Y-63195004D01*
X110203076Y-63195005D01*
X110055242Y-63274024D01*
X109894823Y-63322687D01*
X109769804Y-63335000D01*
X109686196Y-63335000D01*
X109561177Y-63322687D01*
X109400758Y-63274024D01*
X109252924Y-63195005D01*
X109252922Y-63195004D01*
X109123341Y-63088659D01*
X109016996Y-62959078D01*
X109007335Y-62941004D01*
X108937976Y-62811242D01*
X108889313Y-62650823D01*
X108872883Y-62484000D01*
X108889313Y-62317177D01*
X108937976Y-62156758D01*
X109016995Y-62008924D01*
X109016996Y-62008922D01*
X109123341Y-61879341D01*
X109252922Y-61772996D01*
X109268094Y-61764886D01*
X109400758Y-61693976D01*
X109561177Y-61645313D01*
X109686196Y-61633000D01*
X109769804Y-61633000D01*
X109894823Y-61645313D01*
X109894823Y-61645313D01*
G37*
G36*
X102274823Y-61645313D02*
G01*
X102435242Y-61693976D01*
X102567906Y-61764886D01*
X102583078Y-61772996D01*
X102712659Y-61879341D01*
X102819004Y-62008922D01*
X102819005Y-62008924D01*
X102898024Y-62156758D01*
X102946687Y-62317177D01*
X102963117Y-62484000D01*
X102946687Y-62650823D01*
X102898024Y-62811242D01*
X102828665Y-62941004D01*
X102819004Y-62959078D01*
X102712659Y-63088659D01*
X102583078Y-63195004D01*
X102583076Y-63195005D01*
X102435242Y-63274024D01*
X102274823Y-63322687D01*
X102149804Y-63335000D01*
X102066196Y-63335000D01*
X101941177Y-63322687D01*
X101780758Y-63274024D01*
X101632924Y-63195005D01*
X101632922Y-63195004D01*
X101503341Y-63088659D01*
X101396996Y-62959078D01*
X101387335Y-62941004D01*
X101317976Y-62811242D01*
X101269313Y-62650823D01*
X101252883Y-62484000D01*
X101269313Y-62317177D01*
X101317976Y-62156758D01*
X101396995Y-62008924D01*
X101396996Y-62008922D01*
X101503341Y-61879341D01*
X101632922Y-61772996D01*
X101648094Y-61764886D01*
X101780758Y-61693976D01*
X101941177Y-61645313D01*
X102066196Y-61633000D01*
X102149804Y-61633000D01*
X102274823Y-61645313D01*
X102274823Y-61645313D01*
G37*
G36*
X134786823Y-61391313D02*
G01*
X134947242Y-61439976D01*
X135035193Y-61486987D01*
X135095078Y-61518996D01*
X135224659Y-61625341D01*
X135331004Y-61754922D01*
X135331005Y-61754924D01*
X135410024Y-61902758D01*
X135458687Y-62063177D01*
X135475117Y-62230000D01*
X135458687Y-62396823D01*
X135410024Y-62557242D01*
X135339114Y-62689906D01*
X135331004Y-62705078D01*
X135224659Y-62834659D01*
X135095078Y-62941004D01*
X135095076Y-62941005D01*
X134947242Y-63020024D01*
X134786823Y-63068687D01*
X134661804Y-63081000D01*
X134578196Y-63081000D01*
X134453177Y-63068687D01*
X134292758Y-63020024D01*
X134144924Y-62941005D01*
X134144922Y-62941004D01*
X134015341Y-62834659D01*
X133908996Y-62705078D01*
X133900886Y-62689906D01*
X133829976Y-62557242D01*
X133781313Y-62396823D01*
X133764883Y-62230000D01*
X133781313Y-62063177D01*
X133829976Y-61902758D01*
X133908995Y-61754924D01*
X133908996Y-61754922D01*
X134015341Y-61625341D01*
X134144922Y-61518996D01*
X134204807Y-61486987D01*
X134292758Y-61439976D01*
X134453177Y-61391313D01*
X134578196Y-61379000D01*
X134661804Y-61379000D01*
X134786823Y-61391313D01*
X134786823Y-61391313D01*
G37*
G36*
X119546823Y-61391313D02*
G01*
X119707242Y-61439976D01*
X119795193Y-61486987D01*
X119855078Y-61518996D01*
X119984659Y-61625341D01*
X120091004Y-61754922D01*
X120091005Y-61754924D01*
X120170024Y-61902758D01*
X120218687Y-62063177D01*
X120235117Y-62230000D01*
X120218687Y-62396823D01*
X120170024Y-62557242D01*
X120099114Y-62689906D01*
X120091004Y-62705078D01*
X119984659Y-62834659D01*
X119855078Y-62941004D01*
X119855076Y-62941005D01*
X119707242Y-63020024D01*
X119546823Y-63068687D01*
X119421804Y-63081000D01*
X119338196Y-63081000D01*
X119213177Y-63068687D01*
X119052758Y-63020024D01*
X118904924Y-62941005D01*
X118904922Y-62941004D01*
X118775341Y-62834659D01*
X118668996Y-62705078D01*
X118660886Y-62689906D01*
X118589976Y-62557242D01*
X118541313Y-62396823D01*
X118524883Y-62230000D01*
X118541313Y-62063177D01*
X118589976Y-61902758D01*
X118668995Y-61754924D01*
X118668996Y-61754922D01*
X118775341Y-61625341D01*
X118904922Y-61518996D01*
X118964807Y-61486987D01*
X119052758Y-61439976D01*
X119213177Y-61391313D01*
X119338196Y-61379000D01*
X119421804Y-61379000D01*
X119546823Y-61391313D01*
X119546823Y-61391313D01*
G37*
G36*
X109894823Y-59105313D02*
G01*
X110055242Y-59153976D01*
X110187906Y-59224886D01*
X110203078Y-59232996D01*
X110332659Y-59339341D01*
X110439004Y-59468922D01*
X110439005Y-59468924D01*
X110518024Y-59616758D01*
X110566687Y-59777177D01*
X110583117Y-59944000D01*
X110566687Y-60110823D01*
X110518024Y-60271242D01*
X110448665Y-60401004D01*
X110439004Y-60419078D01*
X110332659Y-60548659D01*
X110203078Y-60655004D01*
X110203076Y-60655005D01*
X110055242Y-60734024D01*
X109894823Y-60782687D01*
X109769804Y-60795000D01*
X109686196Y-60795000D01*
X109561177Y-60782687D01*
X109400758Y-60734024D01*
X109252924Y-60655005D01*
X109252922Y-60655004D01*
X109123341Y-60548659D01*
X109016996Y-60419078D01*
X109007335Y-60401004D01*
X108937976Y-60271242D01*
X108889313Y-60110823D01*
X108872883Y-59944000D01*
X108889313Y-59777177D01*
X108937976Y-59616758D01*
X109016995Y-59468924D01*
X109016996Y-59468922D01*
X109123341Y-59339341D01*
X109252922Y-59232996D01*
X109268094Y-59224886D01*
X109400758Y-59153976D01*
X109561177Y-59105313D01*
X109686196Y-59093000D01*
X109769804Y-59093000D01*
X109894823Y-59105313D01*
X109894823Y-59105313D01*
G37*
G36*
X88050823Y-59105313D02*
G01*
X88211242Y-59153976D01*
X88343906Y-59224886D01*
X88359078Y-59232996D01*
X88488659Y-59339341D01*
X88595004Y-59468922D01*
X88595005Y-59468924D01*
X88674024Y-59616758D01*
X88722687Y-59777177D01*
X88739117Y-59944000D01*
X88722687Y-60110823D01*
X88674024Y-60271242D01*
X88604665Y-60401004D01*
X88595004Y-60419078D01*
X88488659Y-60548659D01*
X88359078Y-60655004D01*
X88359076Y-60655005D01*
X88211242Y-60734024D01*
X88050823Y-60782687D01*
X87925804Y-60795000D01*
X87842196Y-60795000D01*
X87717177Y-60782687D01*
X87556758Y-60734024D01*
X87408924Y-60655005D01*
X87408922Y-60655004D01*
X87279341Y-60548659D01*
X87172996Y-60419078D01*
X87163335Y-60401004D01*
X87093976Y-60271242D01*
X87045313Y-60110823D01*
X87028883Y-59944000D01*
X87045313Y-59777177D01*
X87093976Y-59616758D01*
X87172995Y-59468924D01*
X87172996Y-59468922D01*
X87279341Y-59339341D01*
X87408922Y-59232996D01*
X87424094Y-59224886D01*
X87556758Y-59153976D01*
X87717177Y-59105313D01*
X87842196Y-59093000D01*
X87925804Y-59093000D01*
X88050823Y-59105313D01*
X88050823Y-59105313D01*
G37*
G36*
X95670823Y-59105313D02*
G01*
X95831242Y-59153976D01*
X95963906Y-59224886D01*
X95979078Y-59232996D01*
X96108659Y-59339341D01*
X96215004Y-59468922D01*
X96215005Y-59468924D01*
X96294024Y-59616758D01*
X96342687Y-59777177D01*
X96359117Y-59944000D01*
X96342687Y-60110823D01*
X96294024Y-60271242D01*
X96224665Y-60401004D01*
X96215004Y-60419078D01*
X96108659Y-60548659D01*
X95979078Y-60655004D01*
X95979076Y-60655005D01*
X95831242Y-60734024D01*
X95670823Y-60782687D01*
X95545804Y-60795000D01*
X95462196Y-60795000D01*
X95337177Y-60782687D01*
X95176758Y-60734024D01*
X95028924Y-60655005D01*
X95028922Y-60655004D01*
X94899341Y-60548659D01*
X94792996Y-60419078D01*
X94783335Y-60401004D01*
X94713976Y-60271242D01*
X94665313Y-60110823D01*
X94648883Y-59944000D01*
X94665313Y-59777177D01*
X94713976Y-59616758D01*
X94792995Y-59468924D01*
X94792996Y-59468922D01*
X94899341Y-59339341D01*
X95028922Y-59232996D01*
X95044094Y-59224886D01*
X95176758Y-59153976D01*
X95337177Y-59105313D01*
X95462196Y-59093000D01*
X95545804Y-59093000D01*
X95670823Y-59105313D01*
X95670823Y-59105313D01*
G37*
G36*
X102274823Y-59105313D02*
G01*
X102435242Y-59153976D01*
X102567906Y-59224886D01*
X102583078Y-59232996D01*
X102712659Y-59339341D01*
X102819004Y-59468922D01*
X102819005Y-59468924D01*
X102898024Y-59616758D01*
X102946687Y-59777177D01*
X102963117Y-59944000D01*
X102946687Y-60110823D01*
X102898024Y-60271242D01*
X102828665Y-60401004D01*
X102819004Y-60419078D01*
X102712659Y-60548659D01*
X102583078Y-60655004D01*
X102583076Y-60655005D01*
X102435242Y-60734024D01*
X102274823Y-60782687D01*
X102149804Y-60795000D01*
X102066196Y-60795000D01*
X101941177Y-60782687D01*
X101780758Y-60734024D01*
X101632924Y-60655005D01*
X101632922Y-60655004D01*
X101503341Y-60548659D01*
X101396996Y-60419078D01*
X101387335Y-60401004D01*
X101317976Y-60271242D01*
X101269313Y-60110823D01*
X101252883Y-59944000D01*
X101269313Y-59777177D01*
X101317976Y-59616758D01*
X101396995Y-59468924D01*
X101396996Y-59468922D01*
X101503341Y-59339341D01*
X101632922Y-59232996D01*
X101648094Y-59224886D01*
X101780758Y-59153976D01*
X101941177Y-59105313D01*
X102066196Y-59093000D01*
X102149804Y-59093000D01*
X102274823Y-59105313D01*
X102274823Y-59105313D01*
G37*
G36*
X119546823Y-58851313D02*
G01*
X119707242Y-58899976D01*
X119795193Y-58946987D01*
X119855078Y-58978996D01*
X119984659Y-59085341D01*
X120091004Y-59214922D01*
X120091005Y-59214924D01*
X120170024Y-59362758D01*
X120218687Y-59523177D01*
X120235117Y-59690000D01*
X120218687Y-59856823D01*
X120170024Y-60017242D01*
X120099114Y-60149906D01*
X120091004Y-60165078D01*
X119984659Y-60294659D01*
X119855078Y-60401004D01*
X119855076Y-60401005D01*
X119707242Y-60480024D01*
X119546823Y-60528687D01*
X119421804Y-60541000D01*
X119338196Y-60541000D01*
X119213177Y-60528687D01*
X119052758Y-60480024D01*
X118904924Y-60401005D01*
X118904922Y-60401004D01*
X118775341Y-60294659D01*
X118668996Y-60165078D01*
X118660886Y-60149906D01*
X118589976Y-60017242D01*
X118541313Y-59856823D01*
X118524883Y-59690000D01*
X118541313Y-59523177D01*
X118589976Y-59362758D01*
X118668995Y-59214924D01*
X118668996Y-59214922D01*
X118775341Y-59085341D01*
X118904922Y-58978996D01*
X118964807Y-58946987D01*
X119052758Y-58899976D01*
X119213177Y-58851313D01*
X119338196Y-58839000D01*
X119421804Y-58839000D01*
X119546823Y-58851313D01*
X119546823Y-58851313D01*
G37*
G36*
X134786823Y-58851313D02*
G01*
X134947242Y-58899976D01*
X135035193Y-58946987D01*
X135095078Y-58978996D01*
X135224659Y-59085341D01*
X135331004Y-59214922D01*
X135331005Y-59214924D01*
X135410024Y-59362758D01*
X135458687Y-59523177D01*
X135475117Y-59690000D01*
X135458687Y-59856823D01*
X135410024Y-60017242D01*
X135339114Y-60149906D01*
X135331004Y-60165078D01*
X135224659Y-60294659D01*
X135095078Y-60401004D01*
X135095076Y-60401005D01*
X134947242Y-60480024D01*
X134786823Y-60528687D01*
X134661804Y-60541000D01*
X134578196Y-60541000D01*
X134453177Y-60528687D01*
X134292758Y-60480024D01*
X134144924Y-60401005D01*
X134144922Y-60401004D01*
X134015341Y-60294659D01*
X133908996Y-60165078D01*
X133900886Y-60149906D01*
X133829976Y-60017242D01*
X133781313Y-59856823D01*
X133764883Y-59690000D01*
X133781313Y-59523177D01*
X133829976Y-59362758D01*
X133908995Y-59214924D01*
X133908996Y-59214922D01*
X134015341Y-59085341D01*
X134144922Y-58978996D01*
X134204807Y-58946987D01*
X134292758Y-58899976D01*
X134453177Y-58851313D01*
X134578196Y-58839000D01*
X134661804Y-58839000D01*
X134786823Y-58851313D01*
X134786823Y-58851313D01*
G37*
G36*
X102274823Y-56565313D02*
G01*
X102435242Y-56613976D01*
X102567906Y-56684886D01*
X102583078Y-56692996D01*
X102712659Y-56799341D01*
X102819004Y-56928922D01*
X102819005Y-56928924D01*
X102898024Y-57076758D01*
X102946687Y-57237177D01*
X102963117Y-57404000D01*
X102946687Y-57570823D01*
X102898024Y-57731242D01*
X102828665Y-57861004D01*
X102819004Y-57879078D01*
X102712659Y-58008659D01*
X102583078Y-58115004D01*
X102583076Y-58115005D01*
X102435242Y-58194024D01*
X102274823Y-58242687D01*
X102149804Y-58255000D01*
X102066196Y-58255000D01*
X101941177Y-58242687D01*
X101780758Y-58194024D01*
X101632924Y-58115005D01*
X101632922Y-58115004D01*
X101503341Y-58008659D01*
X101396996Y-57879078D01*
X101387335Y-57861004D01*
X101317976Y-57731242D01*
X101269313Y-57570823D01*
X101252883Y-57404000D01*
X101269313Y-57237177D01*
X101317976Y-57076758D01*
X101396995Y-56928924D01*
X101396996Y-56928922D01*
X101503341Y-56799341D01*
X101632922Y-56692996D01*
X101648094Y-56684886D01*
X101780758Y-56613976D01*
X101941177Y-56565313D01*
X102066196Y-56553000D01*
X102149804Y-56553000D01*
X102274823Y-56565313D01*
X102274823Y-56565313D01*
G37*
G36*
X88050823Y-56565313D02*
G01*
X88211242Y-56613976D01*
X88343906Y-56684886D01*
X88359078Y-56692996D01*
X88488659Y-56799341D01*
X88595004Y-56928922D01*
X88595005Y-56928924D01*
X88674024Y-57076758D01*
X88722687Y-57237177D01*
X88739117Y-57404000D01*
X88722687Y-57570823D01*
X88674024Y-57731242D01*
X88604665Y-57861004D01*
X88595004Y-57879078D01*
X88488659Y-58008659D01*
X88359078Y-58115004D01*
X88359076Y-58115005D01*
X88211242Y-58194024D01*
X88050823Y-58242687D01*
X87925804Y-58255000D01*
X87842196Y-58255000D01*
X87717177Y-58242687D01*
X87556758Y-58194024D01*
X87408924Y-58115005D01*
X87408922Y-58115004D01*
X87279341Y-58008659D01*
X87172996Y-57879078D01*
X87163335Y-57861004D01*
X87093976Y-57731242D01*
X87045313Y-57570823D01*
X87028883Y-57404000D01*
X87045313Y-57237177D01*
X87093976Y-57076758D01*
X87172995Y-56928924D01*
X87172996Y-56928922D01*
X87279341Y-56799341D01*
X87408922Y-56692996D01*
X87424094Y-56684886D01*
X87556758Y-56613976D01*
X87717177Y-56565313D01*
X87842196Y-56553000D01*
X87925804Y-56553000D01*
X88050823Y-56565313D01*
X88050823Y-56565313D01*
G37*
G36*
X95670823Y-56565313D02*
G01*
X95831242Y-56613976D01*
X95963906Y-56684886D01*
X95979078Y-56692996D01*
X96108659Y-56799341D01*
X96215004Y-56928922D01*
X96215005Y-56928924D01*
X96294024Y-57076758D01*
X96342687Y-57237177D01*
X96359117Y-57404000D01*
X96342687Y-57570823D01*
X96294024Y-57731242D01*
X96224665Y-57861004D01*
X96215004Y-57879078D01*
X96108659Y-58008659D01*
X95979078Y-58115004D01*
X95979076Y-58115005D01*
X95831242Y-58194024D01*
X95670823Y-58242687D01*
X95545804Y-58255000D01*
X95462196Y-58255000D01*
X95337177Y-58242687D01*
X95176758Y-58194024D01*
X95028924Y-58115005D01*
X95028922Y-58115004D01*
X94899341Y-58008659D01*
X94792996Y-57879078D01*
X94783335Y-57861004D01*
X94713976Y-57731242D01*
X94665313Y-57570823D01*
X94648883Y-57404000D01*
X94665313Y-57237177D01*
X94713976Y-57076758D01*
X94792995Y-56928924D01*
X94792996Y-56928922D01*
X94899341Y-56799341D01*
X95028922Y-56692996D01*
X95044094Y-56684886D01*
X95176758Y-56613976D01*
X95337177Y-56565313D01*
X95462196Y-56553000D01*
X95545804Y-56553000D01*
X95670823Y-56565313D01*
X95670823Y-56565313D01*
G37*
G36*
X109894823Y-56565313D02*
G01*
X110055242Y-56613976D01*
X110187906Y-56684886D01*
X110203078Y-56692996D01*
X110332659Y-56799341D01*
X110439004Y-56928922D01*
X110439005Y-56928924D01*
X110518024Y-57076758D01*
X110566687Y-57237177D01*
X110583117Y-57404000D01*
X110566687Y-57570823D01*
X110518024Y-57731242D01*
X110448665Y-57861004D01*
X110439004Y-57879078D01*
X110332659Y-58008659D01*
X110203078Y-58115004D01*
X110203076Y-58115005D01*
X110055242Y-58194024D01*
X109894823Y-58242687D01*
X109769804Y-58255000D01*
X109686196Y-58255000D01*
X109561177Y-58242687D01*
X109400758Y-58194024D01*
X109252924Y-58115005D01*
X109252922Y-58115004D01*
X109123341Y-58008659D01*
X109016996Y-57879078D01*
X109007335Y-57861004D01*
X108937976Y-57731242D01*
X108889313Y-57570823D01*
X108872883Y-57404000D01*
X108889313Y-57237177D01*
X108937976Y-57076758D01*
X109016995Y-56928924D01*
X109016996Y-56928922D01*
X109123341Y-56799341D01*
X109252922Y-56692996D01*
X109268094Y-56684886D01*
X109400758Y-56613976D01*
X109561177Y-56565313D01*
X109686196Y-56553000D01*
X109769804Y-56553000D01*
X109894823Y-56565313D01*
X109894823Y-56565313D01*
G37*
G36*
X119546823Y-56311313D02*
G01*
X119707242Y-56359976D01*
X119795193Y-56406987D01*
X119855078Y-56438996D01*
X119984659Y-56545341D01*
X120091004Y-56674922D01*
X120091005Y-56674924D01*
X120170024Y-56822758D01*
X120218687Y-56983177D01*
X120235117Y-57150000D01*
X120218687Y-57316823D01*
X120170024Y-57477242D01*
X120099114Y-57609906D01*
X120091004Y-57625078D01*
X119984659Y-57754659D01*
X119855078Y-57861004D01*
X119855076Y-57861005D01*
X119707242Y-57940024D01*
X119546823Y-57988687D01*
X119421804Y-58001000D01*
X119338196Y-58001000D01*
X119213177Y-57988687D01*
X119052758Y-57940024D01*
X118904924Y-57861005D01*
X118904922Y-57861004D01*
X118775341Y-57754659D01*
X118668996Y-57625078D01*
X118660886Y-57609906D01*
X118589976Y-57477242D01*
X118541313Y-57316823D01*
X118524883Y-57150000D01*
X118541313Y-56983177D01*
X118589976Y-56822758D01*
X118668995Y-56674924D01*
X118668996Y-56674922D01*
X118775341Y-56545341D01*
X118904922Y-56438996D01*
X118964807Y-56406987D01*
X119052758Y-56359976D01*
X119213177Y-56311313D01*
X119338196Y-56299000D01*
X119421804Y-56299000D01*
X119546823Y-56311313D01*
X119546823Y-56311313D01*
G37*
G36*
X134786823Y-56311313D02*
G01*
X134947242Y-56359976D01*
X135035193Y-56406987D01*
X135095078Y-56438996D01*
X135224659Y-56545341D01*
X135331004Y-56674922D01*
X135331005Y-56674924D01*
X135410024Y-56822758D01*
X135458687Y-56983177D01*
X135475117Y-57150000D01*
X135458687Y-57316823D01*
X135410024Y-57477242D01*
X135339114Y-57609906D01*
X135331004Y-57625078D01*
X135224659Y-57754659D01*
X135095078Y-57861004D01*
X135095076Y-57861005D01*
X134947242Y-57940024D01*
X134786823Y-57988687D01*
X134661804Y-58001000D01*
X134578196Y-58001000D01*
X134453177Y-57988687D01*
X134292758Y-57940024D01*
X134144924Y-57861005D01*
X134144922Y-57861004D01*
X134015341Y-57754659D01*
X133908996Y-57625078D01*
X133900886Y-57609906D01*
X133829976Y-57477242D01*
X133781313Y-57316823D01*
X133764883Y-57150000D01*
X133781313Y-56983177D01*
X133829976Y-56822758D01*
X133908995Y-56674924D01*
X133908996Y-56674922D01*
X134015341Y-56545341D01*
X134144922Y-56438996D01*
X134204807Y-56406987D01*
X134292758Y-56359976D01*
X134453177Y-56311313D01*
X134578196Y-56299000D01*
X134661804Y-56299000D01*
X134786823Y-56311313D01*
X134786823Y-56311313D01*
G37*
G36*
X82036228Y-55569703D02*
G01*
X82191100Y-55633853D01*
X82330481Y-55726985D01*
X82449015Y-55845519D01*
X82542147Y-55984900D01*
X82606297Y-56139772D01*
X82639000Y-56304184D01*
X82639000Y-56471816D01*
X82606297Y-56636228D01*
X82542147Y-56791100D01*
X82449015Y-56930481D01*
X82330481Y-57049015D01*
X82191100Y-57142147D01*
X82036228Y-57206297D01*
X81871816Y-57239000D01*
X81704184Y-57239000D01*
X81539772Y-57206297D01*
X81384900Y-57142147D01*
X81245519Y-57049015D01*
X81126985Y-56930481D01*
X81033853Y-56791100D01*
X80969703Y-56636228D01*
X80937000Y-56471816D01*
X80937000Y-56304184D01*
X80969703Y-56139772D01*
X81033853Y-55984900D01*
X81126985Y-55845519D01*
X81245519Y-55726985D01*
X81384900Y-55633853D01*
X81539772Y-55569703D01*
X81704184Y-55537000D01*
X81871816Y-55537000D01*
X82036228Y-55569703D01*
X82036228Y-55569703D01*
G37*
G36*
X74416228Y-55569703D02*
G01*
X74571100Y-55633853D01*
X74710481Y-55726985D01*
X74829015Y-55845519D01*
X74922147Y-55984900D01*
X74986297Y-56139772D01*
X75019000Y-56304184D01*
X75019000Y-56471816D01*
X74986297Y-56636228D01*
X74922147Y-56791100D01*
X74829015Y-56930481D01*
X74710481Y-57049015D01*
X74571100Y-57142147D01*
X74416228Y-57206297D01*
X74251816Y-57239000D01*
X74084184Y-57239000D01*
X73919772Y-57206297D01*
X73764900Y-57142147D01*
X73625519Y-57049015D01*
X73506985Y-56930481D01*
X73413853Y-56791100D01*
X73349703Y-56636228D01*
X73317000Y-56471816D01*
X73317000Y-56304184D01*
X73349703Y-56139772D01*
X73413853Y-55984900D01*
X73506985Y-55845519D01*
X73625519Y-55726985D01*
X73764900Y-55633853D01*
X73919772Y-55569703D01*
X74084184Y-55537000D01*
X74251816Y-55537000D01*
X74416228Y-55569703D01*
X74416228Y-55569703D01*
G37*
G36*
X95670823Y-54025313D02*
G01*
X95831242Y-54073976D01*
X95963906Y-54144886D01*
X95979078Y-54152996D01*
X96108659Y-54259341D01*
X96215004Y-54388922D01*
X96215005Y-54388924D01*
X96294024Y-54536758D01*
X96342687Y-54697177D01*
X96359117Y-54864000D01*
X96342687Y-55030823D01*
X96294024Y-55191242D01*
X96224665Y-55321004D01*
X96215004Y-55339078D01*
X96108659Y-55468659D01*
X95979078Y-55575004D01*
X95979076Y-55575005D01*
X95831242Y-55654024D01*
X95670823Y-55702687D01*
X95545804Y-55715000D01*
X95462196Y-55715000D01*
X95337177Y-55702687D01*
X95176758Y-55654024D01*
X95028924Y-55575005D01*
X95028922Y-55575004D01*
X94899341Y-55468659D01*
X94792996Y-55339078D01*
X94783335Y-55321004D01*
X94713976Y-55191242D01*
X94665313Y-55030823D01*
X94648883Y-54864000D01*
X94665313Y-54697177D01*
X94713976Y-54536758D01*
X94792995Y-54388924D01*
X94792996Y-54388922D01*
X94899341Y-54259341D01*
X95028922Y-54152996D01*
X95044094Y-54144886D01*
X95176758Y-54073976D01*
X95337177Y-54025313D01*
X95462196Y-54013000D01*
X95545804Y-54013000D01*
X95670823Y-54025313D01*
X95670823Y-54025313D01*
G37*
G36*
X102959000Y-55715000D02*
G01*
X101257000Y-55715000D01*
X101257000Y-54013000D01*
X102959000Y-54013000D01*
X102959000Y-55715000D01*
X102959000Y-55715000D01*
G37*
G36*
X88735000Y-55715000D02*
G01*
X87033000Y-55715000D01*
X87033000Y-54013000D01*
X88735000Y-54013000D01*
X88735000Y-55715000D01*
X88735000Y-55715000D01*
G37*
G36*
X109894823Y-54025313D02*
G01*
X110055242Y-54073976D01*
X110187906Y-54144886D01*
X110203078Y-54152996D01*
X110332659Y-54259341D01*
X110439004Y-54388922D01*
X110439005Y-54388924D01*
X110518024Y-54536758D01*
X110566687Y-54697177D01*
X110583117Y-54864000D01*
X110566687Y-55030823D01*
X110518024Y-55191242D01*
X110448665Y-55321004D01*
X110439004Y-55339078D01*
X110332659Y-55468659D01*
X110203078Y-55575004D01*
X110203076Y-55575005D01*
X110055242Y-55654024D01*
X109894823Y-55702687D01*
X109769804Y-55715000D01*
X109686196Y-55715000D01*
X109561177Y-55702687D01*
X109400758Y-55654024D01*
X109252924Y-55575005D01*
X109252922Y-55575004D01*
X109123341Y-55468659D01*
X109016996Y-55339078D01*
X109007335Y-55321004D01*
X108937976Y-55191242D01*
X108889313Y-55030823D01*
X108872883Y-54864000D01*
X108889313Y-54697177D01*
X108937976Y-54536758D01*
X109016995Y-54388924D01*
X109016996Y-54388922D01*
X109123341Y-54259341D01*
X109252922Y-54152996D01*
X109268094Y-54144886D01*
X109400758Y-54073976D01*
X109561177Y-54025313D01*
X109686196Y-54013000D01*
X109769804Y-54013000D01*
X109894823Y-54025313D01*
X109894823Y-54025313D01*
G37*
G36*
X134786823Y-53771313D02*
G01*
X134947242Y-53819976D01*
X135035193Y-53866987D01*
X135095078Y-53898996D01*
X135224659Y-54005341D01*
X135331004Y-54134922D01*
X135331005Y-54134924D01*
X135410024Y-54282758D01*
X135458687Y-54443177D01*
X135475117Y-54610000D01*
X135458687Y-54776823D01*
X135410024Y-54937242D01*
X135339114Y-55069906D01*
X135331004Y-55085078D01*
X135224659Y-55214659D01*
X135095078Y-55321004D01*
X135095076Y-55321005D01*
X134947242Y-55400024D01*
X134786823Y-55448687D01*
X134661804Y-55461000D01*
X134578196Y-55461000D01*
X134453177Y-55448687D01*
X134292758Y-55400024D01*
X134144924Y-55321005D01*
X134144922Y-55321004D01*
X134015341Y-55214659D01*
X133908996Y-55085078D01*
X133900886Y-55069906D01*
X133829976Y-54937242D01*
X133781313Y-54776823D01*
X133764883Y-54610000D01*
X133781313Y-54443177D01*
X133829976Y-54282758D01*
X133908995Y-54134924D01*
X133908996Y-54134922D01*
X134015341Y-54005341D01*
X134144922Y-53898996D01*
X134204807Y-53866987D01*
X134292758Y-53819976D01*
X134453177Y-53771313D01*
X134578196Y-53759000D01*
X134661804Y-53759000D01*
X134786823Y-53771313D01*
X134786823Y-53771313D01*
G37*
G36*
X120231000Y-55461000D02*
G01*
X118529000Y-55461000D01*
X118529000Y-53759000D01*
X120231000Y-53759000D01*
X120231000Y-55461000D01*
X120231000Y-55461000D01*
G37*
M02*
