G04 #@! TF.GenerationSoftware,KiCad,Pcbnew,5.1.4*
G04 #@! TF.CreationDate,2019-08-26T14:36:03+01:00*
G04 #@! TF.ProjectId,z802,7a383032-2e6b-4696-9361-645f70636258,rev?*
G04 #@! TF.SameCoordinates,Original*
G04 #@! TF.FileFunction,Copper,L1,Top*
G04 #@! TF.FilePolarity,Positive*
%FSLAX46Y46*%
G04 Gerber Fmt 4.6, Leading zero omitted, Abs format (unit mm)*
G04 Created by KiCad (PCBNEW 5.1.4) date 2019-08-26 14:36:03*
%MOMM*%
%LPD*%
G04 APERTURE LIST*
%ADD10R,1.600000X1.600000*%
%ADD11O,1.600000X1.600000*%
%ADD12R,1.800000X1.800000*%
%ADD13C,1.800000*%
%ADD14R,1.000000X1.000000*%
%ADD15O,1.000000X1.000000*%
%ADD16C,1.600000*%
%ADD17C,2.000000*%
%ADD18C,0.800000*%
%ADD19C,0.250000*%
%ADD20C,0.254000*%
G04 APERTURE END LIST*
D10*
X119380000Y-54610000D03*
D11*
X134620000Y-87630000D03*
X119380000Y-57150000D03*
X134620000Y-85090000D03*
X119380000Y-59690000D03*
X134620000Y-82550000D03*
X119380000Y-62230000D03*
X134620000Y-80010000D03*
X119380000Y-64770000D03*
X134620000Y-77470000D03*
X119380000Y-67310000D03*
X134620000Y-74930000D03*
X119380000Y-69850000D03*
X134620000Y-72390000D03*
X119380000Y-72390000D03*
X134620000Y-69850000D03*
X119380000Y-74930000D03*
X134620000Y-67310000D03*
X119380000Y-77470000D03*
X134620000Y-64770000D03*
X119380000Y-80010000D03*
X134620000Y-62230000D03*
X119380000Y-82550000D03*
X134620000Y-59690000D03*
X119380000Y-85090000D03*
X134620000Y-57150000D03*
X119380000Y-87630000D03*
X134620000Y-54610000D03*
X134620000Y-95250000D03*
X119380000Y-128270000D03*
X134620000Y-97790000D03*
X119380000Y-125730000D03*
X134620000Y-100330000D03*
X119380000Y-123190000D03*
X134620000Y-102870000D03*
X119380000Y-120650000D03*
X134620000Y-105410000D03*
X119380000Y-118110000D03*
X134620000Y-107950000D03*
X119380000Y-115570000D03*
X134620000Y-110490000D03*
X119380000Y-113030000D03*
X134620000Y-113030000D03*
X119380000Y-110490000D03*
X134620000Y-115570000D03*
X119380000Y-107950000D03*
X134620000Y-118110000D03*
X119380000Y-105410000D03*
X134620000Y-120650000D03*
X119380000Y-102870000D03*
X134620000Y-123190000D03*
X119380000Y-100330000D03*
X134620000Y-125730000D03*
X119380000Y-97790000D03*
X134620000Y-128270000D03*
D10*
X119380000Y-95250000D03*
D12*
X145923000Y-105410000D03*
D13*
X143383000Y-105410000D03*
D14*
X145288000Y-73025000D03*
D15*
X145288000Y-71755000D03*
X145288000Y-70485000D03*
X145288000Y-69215000D03*
X145288000Y-67945000D03*
X145288000Y-66675000D03*
X145288000Y-65405000D03*
X145288000Y-64135000D03*
X145288000Y-62865000D03*
X145288000Y-61595000D03*
X145288000Y-60325000D03*
X145288000Y-59055000D03*
X145288000Y-57785000D03*
X145288000Y-56515000D03*
X145288000Y-55245000D03*
X145288000Y-53975000D03*
D14*
X145288000Y-87630000D03*
D15*
X145288000Y-86360000D03*
X145288000Y-85090000D03*
X145288000Y-83820000D03*
X145288000Y-82550000D03*
X145288000Y-81280000D03*
X145288000Y-80010000D03*
X145288000Y-78740000D03*
D14*
X145288000Y-93980000D03*
D15*
X145288000Y-95250000D03*
X145288000Y-96520000D03*
D16*
X110490000Y-119380000D03*
D11*
X102870000Y-119380000D03*
X76708000Y-116840000D03*
D16*
X76708000Y-109220000D03*
X76708000Y-120396000D03*
D11*
X76708000Y-128016000D03*
X102870000Y-124460000D03*
D16*
X110490000Y-124460000D03*
X110490000Y-114300000D03*
D11*
X102870000Y-114300000D03*
D17*
X145724000Y-122428000D03*
X141224000Y-122428000D03*
X145724000Y-115928000D03*
X141224000Y-115928000D03*
D10*
X82550000Y-80010000D03*
D11*
X97790000Y-128270000D03*
X82550000Y-82550000D03*
X97790000Y-125730000D03*
X82550000Y-85090000D03*
X97790000Y-123190000D03*
X82550000Y-87630000D03*
X97790000Y-120650000D03*
X82550000Y-90170000D03*
X97790000Y-118110000D03*
X82550000Y-92710000D03*
X97790000Y-115570000D03*
X82550000Y-95250000D03*
X97790000Y-113030000D03*
X82550000Y-97790000D03*
X97790000Y-110490000D03*
X82550000Y-100330000D03*
X97790000Y-107950000D03*
X82550000Y-102870000D03*
X97790000Y-105410000D03*
X82550000Y-105410000D03*
X97790000Y-102870000D03*
X82550000Y-107950000D03*
X97790000Y-100330000D03*
X82550000Y-110490000D03*
X97790000Y-97790000D03*
X82550000Y-113030000D03*
X97790000Y-95250000D03*
X82550000Y-115570000D03*
X97790000Y-92710000D03*
X82550000Y-118110000D03*
X97790000Y-90170000D03*
X82550000Y-120650000D03*
X97790000Y-87630000D03*
X82550000Y-123190000D03*
X97790000Y-85090000D03*
X82550000Y-125730000D03*
X97790000Y-82550000D03*
X82550000Y-128270000D03*
X97790000Y-80010000D03*
D10*
X87884000Y-54864000D03*
D11*
X95504000Y-70104000D03*
X87884000Y-57404000D03*
X95504000Y-67564000D03*
X87884000Y-59944000D03*
X95504000Y-65024000D03*
X87884000Y-62484000D03*
X95504000Y-62484000D03*
X87884000Y-65024000D03*
X95504000Y-59944000D03*
X87884000Y-67564000D03*
X95504000Y-57404000D03*
X87884000Y-70104000D03*
X95504000Y-54864000D03*
X109728000Y-54864000D03*
X102108000Y-70104000D03*
X109728000Y-57404000D03*
X102108000Y-67564000D03*
X109728000Y-59944000D03*
X102108000Y-65024000D03*
X109728000Y-62484000D03*
X102108000Y-62484000D03*
X109728000Y-65024000D03*
X102108000Y-59944000D03*
X109728000Y-67564000D03*
X102108000Y-57404000D03*
X109728000Y-70104000D03*
D10*
X102108000Y-54864000D03*
X74168000Y-64008000D03*
D16*
X74168000Y-56388000D03*
X81788000Y-56388000D03*
X81788000Y-64008000D03*
D14*
X73152000Y-75184000D03*
D15*
X73152000Y-76454000D03*
D18*
X74168000Y-81788000D03*
X93980000Y-105156000D03*
X91440000Y-105664000D03*
X93726000Y-107950000D03*
X139192000Y-130048000D03*
X107696000Y-99060000D03*
X139192000Y-96012000D03*
X129540000Y-112776000D03*
X129540000Y-116840000D03*
X116840000Y-130120001D03*
X111755347Y-125979347D03*
X141224000Y-73660000D03*
X146304000Y-76200000D03*
X146304000Y-89408000D03*
X125984000Y-114300000D03*
X122936000Y-115824000D03*
X115824000Y-120904000D03*
X116332000Y-116332000D03*
X84836000Y-117856000D03*
X89916000Y-128524000D03*
X125476000Y-124968000D03*
X123444000Y-110744000D03*
X130048000Y-91948000D03*
X90424000Y-110236000D03*
X90424000Y-114808000D03*
X128524000Y-86360000D03*
X128524000Y-91149000D03*
X122428000Y-110744000D03*
X130048000Y-88392000D03*
X125984000Y-111252000D03*
X131064000Y-96520000D03*
X131064000Y-92964000D03*
X131064000Y-91223000D03*
X122936000Y-114300000D03*
X112696584Y-111839416D03*
X138118009Y-117798009D03*
X109728000Y-107696000D03*
X94996000Y-104140000D03*
X90424000Y-101092000D03*
X87884000Y-103632000D03*
X121412000Y-100584000D03*
X123444000Y-89916000D03*
X132080000Y-115316000D03*
X115824000Y-82296000D03*
X103124000Y-105156000D03*
X89916000Y-106680000D03*
X131572000Y-125476000D03*
X131572000Y-106172000D03*
X128524000Y-102616000D03*
X132588000Y-97028000D03*
X139192000Y-90932000D03*
X135636000Y-90932000D03*
X133895000Y-90932000D03*
X123956653Y-87371347D03*
X128016000Y-125476000D03*
X116844653Y-129036653D03*
X115316000Y-128016000D03*
X88900000Y-109728000D03*
X93472000Y-113284000D03*
X122428000Y-119380000D03*
X140716000Y-93980000D03*
X140716000Y-96012000D03*
X139192000Y-121412000D03*
X136652000Y-121412000D03*
X117348000Y-113284000D03*
X100584000Y-102616000D03*
X105664000Y-105156000D03*
X105156000Y-103341000D03*
X109220000Y-103124000D03*
X107696000Y-100584000D03*
X94996000Y-101600000D03*
X106172000Y-86868000D03*
X104648000Y-85852000D03*
X103124000Y-84328000D03*
X101600000Y-83820000D03*
X143256000Y-99568000D03*
X147828000Y-99060000D03*
X121412000Y-107696000D03*
X127000000Y-107696000D03*
X128524000Y-106172000D03*
X122936000Y-60960000D03*
X115447653Y-69727653D03*
X110744000Y-74676000D03*
X116840000Y-84836000D03*
X120396000Y-89408000D03*
X122645000Y-88900000D03*
X125984000Y-91149000D03*
X122936000Y-97028000D03*
X130265001Y-98261001D03*
X131572000Y-102616000D03*
X130041239Y-100033740D03*
X132588000Y-63500000D03*
X129540000Y-60960000D03*
X110236000Y-72644000D03*
X104648000Y-78232000D03*
X136943000Y-101092000D03*
X142748000Y-98552000D03*
X148844000Y-93472000D03*
X148649241Y-90776028D03*
X142748000Y-93472000D03*
X141224000Y-88900000D03*
X136144000Y-89408000D03*
X133895000Y-89480001D03*
X124460000Y-84328000D03*
X124460000Y-79756000D03*
X126492000Y-78232000D03*
X128524000Y-74676000D03*
X128188795Y-72756864D03*
X131826000Y-72390000D03*
X136144000Y-97028000D03*
X140716000Y-89916000D03*
X137668000Y-88900000D03*
X140208000Y-86360000D03*
X142748000Y-77724000D03*
X142240000Y-72136000D03*
X93472000Y-77216000D03*
X131572000Y-58420000D03*
X127000000Y-58420000D03*
X123952000Y-70104000D03*
X121920000Y-75184000D03*
X120396000Y-90932000D03*
X120396000Y-92964000D03*
X129032000Y-97536000D03*
X127000000Y-72644000D03*
X128016000Y-101092000D03*
X88392000Y-75692000D03*
X91948000Y-54356000D03*
X91948000Y-58420000D03*
X124460000Y-119380000D03*
X124460000Y-122936000D03*
X113792000Y-126492000D03*
X138684000Y-93472000D03*
X107696000Y-121920000D03*
X112268000Y-121920000D03*
X86360000Y-73660000D03*
X90424000Y-67564000D03*
X90424000Y-73152000D03*
D19*
X120179999Y-129069999D02*
X119380000Y-128270000D01*
X120505001Y-129395001D02*
X120179999Y-129069999D01*
X138756999Y-129395001D02*
X120505001Y-129395001D01*
X145724000Y-122428000D02*
X138756999Y-129395001D01*
X82800003Y-101455001D02*
X81643001Y-101455001D01*
X89295002Y-107950000D02*
X82800003Y-101455001D01*
X81643001Y-101455001D02*
X74168000Y-93980000D01*
X74168000Y-93980000D02*
X74168000Y-81788000D01*
X118839999Y-76344999D02*
X111760000Y-83424998D01*
X119380000Y-87630000D02*
X120505001Y-86504999D01*
X119920001Y-76344999D02*
X118839999Y-76344999D01*
X120505001Y-76929999D02*
X119920001Y-76344999D01*
X120505001Y-86504999D02*
X120505001Y-76929999D01*
X96089000Y-105156000D02*
X93980000Y-105156000D01*
X97249999Y-103995001D02*
X96089000Y-105156000D01*
X111760000Y-89536410D02*
X98915001Y-102381409D01*
X111760000Y-83424998D02*
X111760000Y-89536410D01*
X98915001Y-103410001D02*
X98330001Y-103995001D01*
X98915001Y-102381409D02*
X98915001Y-103410001D01*
X98330001Y-103995001D02*
X97249999Y-103995001D01*
X91440000Y-105664000D02*
X93726000Y-107950000D01*
X97790000Y-107950000D02*
X93726000Y-107950000D01*
X93726000Y-107950000D02*
X89295002Y-107950000D01*
X111542999Y-119992003D02*
X112268000Y-119267002D01*
X111542999Y-122268001D02*
X111542999Y-119992003D01*
X139192000Y-130048000D02*
X119322998Y-130048000D01*
X119322998Y-130048000D02*
X111542999Y-122268001D01*
X110885002Y-113030000D02*
X98921370Y-113030000D01*
X98921370Y-113030000D02*
X97790000Y-113030000D01*
X112268000Y-114412998D02*
X110885002Y-113030000D01*
X112268000Y-119267002D02*
X112268000Y-114412998D01*
X144538000Y-93980000D02*
X139458000Y-99060000D01*
X145288000Y-93980000D02*
X144538000Y-93980000D01*
X139458000Y-99060000D02*
X128524000Y-99060000D01*
X128524000Y-99060000D02*
X125476000Y-99060000D01*
X125476000Y-99060000D02*
X107696000Y-99060000D01*
X137414000Y-97790000D02*
X134620000Y-97790000D01*
X139192000Y-96012000D02*
X137414000Y-97790000D01*
X129540000Y-112776000D02*
X129540000Y-116840000D01*
X116840000Y-130120001D02*
X115896001Y-130120001D01*
X115896001Y-130120001D02*
X111755347Y-125979347D01*
X145288000Y-96520000D02*
X145288000Y-98552000D01*
X145288000Y-98552000D02*
X148844000Y-102108000D01*
X148844000Y-102108000D02*
X148844000Y-107696000D01*
X146050000Y-110490000D02*
X134620000Y-110490000D01*
X148844000Y-107696000D02*
X146050000Y-110490000D01*
X141224000Y-73660000D02*
X143764000Y-76200000D01*
X143764000Y-76200000D02*
X146304000Y-76200000D01*
X146304000Y-95504000D02*
X145288000Y-96520000D01*
X146304000Y-89408000D02*
X146304000Y-95504000D01*
X125984000Y-114300000D02*
X124460000Y-115824000D01*
X124460000Y-115824000D02*
X122936000Y-115824000D01*
X116332000Y-116332000D02*
X115824000Y-120904000D01*
X140912998Y-87630000D02*
X144538000Y-87630000D01*
X119380000Y-80010000D02*
X115824000Y-83566000D01*
X144538000Y-87630000D02*
X145288000Y-87630000D01*
X115824000Y-83566000D02*
X115824000Y-88900000D01*
X115824000Y-88900000D02*
X118872000Y-91948000D01*
X136594998Y-91948000D02*
X140912998Y-87630000D01*
X84836000Y-117856000D02*
X84836000Y-123444000D01*
X84836000Y-123444000D02*
X89916000Y-128524000D01*
X119380000Y-120650000D02*
X121920000Y-118110000D01*
X123444000Y-110801002D02*
X123444000Y-110744000D01*
X121920000Y-118110000D02*
X121920000Y-112325002D01*
X121920000Y-112325002D02*
X123444000Y-110801002D01*
X130048000Y-91948000D02*
X136594998Y-91948000D01*
X118872000Y-91948000D02*
X130048000Y-91948000D01*
X122231002Y-120650000D02*
X120511370Y-120650000D01*
X120511370Y-120650000D02*
X119380000Y-120650000D01*
X123153001Y-119728001D02*
X122231002Y-120650000D01*
X125476000Y-118872000D02*
X124713012Y-118560010D01*
X123153001Y-119291409D02*
X123153001Y-119728001D01*
X125476000Y-124968000D02*
X125476000Y-118872000D01*
X124713012Y-118560010D02*
X123884400Y-118560010D01*
X123884400Y-118560010D02*
X123153001Y-119291409D01*
X83312000Y-114808000D02*
X82550000Y-115570000D01*
X90424000Y-114808000D02*
X83312000Y-114808000D01*
X128524000Y-86360000D02*
X128524000Y-91149000D01*
X91295001Y-109364999D02*
X90424000Y-110236000D01*
X114300000Y-112268000D02*
X111904999Y-109364999D01*
X111904999Y-109364999D02*
X91295001Y-109364999D01*
X121267001Y-111904999D02*
X122428000Y-110744000D01*
X116187001Y-111904999D02*
X121267001Y-111904999D01*
X114300000Y-112268000D02*
X116187001Y-111904999D01*
X119380000Y-123190000D02*
X114808000Y-121412000D01*
X114808000Y-121412000D02*
X114300000Y-112268000D01*
X145288000Y-85090000D02*
X138938000Y-85090000D01*
X135272999Y-88755001D02*
X133459001Y-88755001D01*
X138938000Y-85090000D02*
X135272999Y-88755001D01*
X130411001Y-88755001D02*
X130048000Y-88392000D01*
X131064000Y-96520000D02*
X131064000Y-92964000D01*
X131064000Y-89118002D02*
X131427001Y-88755001D01*
X133459001Y-88755001D02*
X131427001Y-88755001D01*
X131064000Y-91223000D02*
X131064000Y-89118002D01*
X131427001Y-88755001D02*
X130411001Y-88755001D01*
X122936000Y-114300000D02*
X125984000Y-111760000D01*
X125984000Y-111760000D02*
X125984000Y-111252000D01*
X83349999Y-108749999D02*
X82550000Y-107950000D01*
X86215001Y-111615001D02*
X83349999Y-108749999D01*
X112696584Y-111839416D02*
X112123001Y-111615001D01*
X112123001Y-111615001D02*
X86215001Y-111615001D01*
X113792000Y-121412000D02*
X119380000Y-125730000D01*
X112696584Y-111839416D02*
X113792000Y-121412000D01*
X138430000Y-83820000D02*
X134620000Y-87630000D01*
X145288000Y-83820000D02*
X138430000Y-83820000D01*
X132675997Y-116984999D02*
X130556000Y-114865002D01*
X138118009Y-117798009D02*
X137304999Y-116984999D01*
X137304999Y-116984999D02*
X132675997Y-116984999D01*
X126912003Y-109075001D02*
X116695001Y-109075001D01*
X130556000Y-114865002D02*
X130556000Y-112718998D01*
X130556000Y-112718998D02*
X126912003Y-109075001D01*
X116695001Y-109075001D02*
X115316000Y-107696000D01*
X115316000Y-107696000D02*
X109728000Y-107696000D01*
X94996000Y-104140000D02*
X93472000Y-104140000D01*
X93472000Y-104140000D02*
X90424000Y-101092000D01*
X82550000Y-98298000D02*
X82550000Y-97790000D01*
X87884000Y-103632000D02*
X82550000Y-98298000D01*
X137160000Y-82550000D02*
X134620000Y-85090000D01*
X145288000Y-82550000D02*
X137160000Y-82550000D01*
X128270000Y-85090000D02*
X134620000Y-85090000D01*
X123444000Y-89916000D02*
X128270000Y-85090000D01*
X132080000Y-111252000D02*
X121412000Y-100584000D01*
X132080000Y-115316000D02*
X132080000Y-111252000D01*
X120540999Y-101455001D02*
X121412000Y-100584000D01*
X119129997Y-101455001D02*
X120540999Y-101455001D01*
X114049997Y-106535001D02*
X119129997Y-101455001D01*
X82550000Y-95250000D02*
X93835001Y-106535001D01*
X93835001Y-106535001D02*
X114049997Y-106535001D01*
X135890000Y-81280000D02*
X134620000Y-82550000D01*
X145288000Y-81280000D02*
X135890000Y-81280000D01*
X115824000Y-82296000D02*
X114300000Y-83820000D01*
X114300000Y-91382998D02*
X103124000Y-102558998D01*
X114300000Y-83820000D02*
X114300000Y-91382998D01*
X103124000Y-102558998D02*
X103124000Y-105156000D01*
X83349999Y-101129999D02*
X82550000Y-100330000D01*
X87593001Y-104357001D02*
X86577001Y-104357001D01*
X86577001Y-104357001D02*
X83349999Y-101129999D01*
X89916000Y-106680000D02*
X87593001Y-104357001D01*
X134620000Y-123190000D02*
X132334000Y-125476000D01*
X132334000Y-125476000D02*
X131572000Y-125476000D01*
X131572000Y-106172000D02*
X128524000Y-103124000D01*
X128524000Y-103124000D02*
X128524000Y-102616000D01*
X136201776Y-93922224D02*
X139192000Y-90932000D01*
X132588000Y-97028000D02*
X132588000Y-95616998D01*
X134282774Y-93922224D02*
X136201776Y-93922224D01*
X132588000Y-95616998D02*
X134282774Y-93922224D01*
X135636000Y-90932000D02*
X134112000Y-90932000D01*
X134112000Y-90932000D02*
X133895000Y-90932000D01*
X128778000Y-82550000D02*
X134620000Y-82550000D01*
X123956653Y-87371347D02*
X128778000Y-82550000D01*
X145288000Y-80010000D02*
X134620000Y-80010000D01*
X138843010Y-118146010D02*
X138843010Y-113443010D01*
X137139019Y-119850001D02*
X138843010Y-118146010D01*
X134620000Y-120650000D02*
X135419999Y-119850001D01*
X135419999Y-119850001D02*
X137139019Y-119850001D01*
X138843010Y-113443010D02*
X140526020Y-111760000D01*
X147029001Y-99656591D02*
X149352000Y-101979590D01*
X145288000Y-80010000D02*
X147029001Y-81751001D01*
X147029001Y-81751001D02*
X147029001Y-99656591D01*
X149352000Y-101979590D02*
X149352000Y-109220000D01*
X146812000Y-111760000D02*
X140526020Y-111760000D01*
X149352000Y-109220000D02*
X146812000Y-111760000D01*
X116844653Y-129036653D02*
X116336653Y-129036653D01*
X116336653Y-129036653D02*
X115316000Y-128016000D01*
X82550000Y-103378000D02*
X82550000Y-102870000D01*
X88900000Y-109728000D02*
X82550000Y-103378000D01*
X132080000Y-123444000D02*
X128016000Y-125476000D01*
X134620000Y-120650000D02*
X132080000Y-123444000D01*
X135890000Y-78740000D02*
X134620000Y-77470000D01*
X145288000Y-78740000D02*
X135890000Y-78740000D01*
X82550000Y-110490000D02*
X85344000Y-113284000D01*
X85344000Y-113284000D02*
X93472000Y-113284000D01*
X140716000Y-93980000D02*
X140716000Y-96012000D01*
X139192000Y-121412000D02*
X136652000Y-121412000D01*
X131318000Y-118110000D02*
X134620000Y-118110000D01*
X131064000Y-117856000D02*
X131318000Y-118110000D01*
X122428000Y-119380000D02*
X123444000Y-116840000D01*
X123444000Y-116840000D02*
X131064000Y-117856000D01*
X119380000Y-77470000D02*
X112268000Y-84582000D01*
X112268000Y-84582000D02*
X112268000Y-90932000D01*
X100584000Y-102616000D02*
X97790000Y-105410000D01*
X112268000Y-90932000D02*
X100584000Y-102616000D01*
X119380000Y-118110000D02*
X117348000Y-116078000D01*
X117348000Y-116078000D02*
X117348000Y-113284000D01*
X118580001Y-75729999D02*
X118326001Y-75729999D01*
X119380000Y-74930000D02*
X118580001Y-75729999D01*
X118326001Y-75729999D02*
X110744000Y-83312000D01*
X110744000Y-89916000D02*
X97790000Y-102870000D01*
X110744000Y-83312000D02*
X110744000Y-89916000D01*
X105664000Y-105156000D02*
X105664000Y-103849000D01*
X105664000Y-103849000D02*
X105156000Y-103341000D01*
X119380000Y-72390000D02*
X109220000Y-82550000D01*
X109220000Y-88900000D02*
X97790000Y-100330000D01*
X109220000Y-82550000D02*
X109220000Y-88900000D01*
X109220000Y-103124000D02*
X109220000Y-102108000D01*
X109220000Y-102108000D02*
X107696000Y-100584000D01*
X145288000Y-70485000D02*
X142367000Y-70485000D01*
X142367000Y-70485000D02*
X136652000Y-76200000D01*
X136652000Y-76200000D02*
X134112000Y-76200000D01*
X134112000Y-76200000D02*
X130556000Y-79756000D01*
X130556000Y-79756000D02*
X125984000Y-79756000D01*
X125984000Y-79756000D02*
X123444000Y-77216000D01*
X120511370Y-72390000D02*
X119380000Y-72390000D01*
X123444000Y-75322630D02*
X120511370Y-72390000D01*
X123444000Y-77216000D02*
X123444000Y-75322630D01*
X97790000Y-97790000D02*
X107696000Y-87884000D01*
X107696000Y-81534000D02*
X119380000Y-69850000D01*
X107696000Y-87884000D02*
X107696000Y-81534000D01*
X145288000Y-69215000D02*
X140589000Y-69215000D01*
X140589000Y-69215000D02*
X136144000Y-73660000D01*
X136144000Y-73660000D02*
X125476000Y-73660000D01*
X121666000Y-69850000D02*
X119380000Y-69850000D01*
X125476000Y-73660000D02*
X121666000Y-69850000D01*
X94996000Y-101600000D02*
X93980000Y-100584000D01*
X93980000Y-100584000D02*
X93980000Y-98552000D01*
X94742000Y-97790000D02*
X97790000Y-97790000D01*
X93980000Y-98552000D02*
X94742000Y-97790000D01*
X106172000Y-80518000D02*
X119380000Y-67310000D01*
X97790000Y-95250000D02*
X106172000Y-86868000D01*
X106172000Y-86868000D02*
X106172000Y-80518000D01*
X123190000Y-67310000D02*
X119380000Y-67310000D01*
X127144999Y-71264999D02*
X123190000Y-67310000D01*
X135491001Y-71264999D02*
X127144999Y-71264999D01*
X145288000Y-67945000D02*
X138811000Y-67945000D01*
X138811000Y-67945000D02*
X135491001Y-71264999D01*
X104648000Y-79502000D02*
X119380000Y-64770000D01*
X97790000Y-92710000D02*
X104648000Y-85852000D01*
X127871001Y-68435001D02*
X124206000Y-64770000D01*
X124206000Y-64770000D02*
X119380000Y-64770000D01*
X136796999Y-68435001D02*
X127871001Y-68435001D01*
X145288000Y-66675000D02*
X138557000Y-66675000D01*
X138557000Y-66675000D02*
X136796999Y-68435001D01*
X104648000Y-85852000D02*
X104648000Y-79502000D01*
X103124000Y-78486000D02*
X119380000Y-62230000D01*
X97790000Y-90170000D02*
X103124000Y-84836000D01*
X119380000Y-62230000D02*
X128270000Y-62230000D01*
X131935001Y-65895001D02*
X140352999Y-65895001D01*
X128270000Y-62230000D02*
X131935001Y-65895001D01*
X140843000Y-65405000D02*
X145288000Y-65405000D01*
X140352999Y-65895001D02*
X140843000Y-65405000D01*
X103124000Y-84836000D02*
X103124000Y-84328000D01*
X103124000Y-84328000D02*
X103124000Y-78486000D01*
X97790000Y-87630000D02*
X101600000Y-83820000D01*
X101600000Y-83820000D02*
X101600000Y-77724000D01*
X101600000Y-77724000D02*
X106172000Y-73152000D01*
X118580001Y-60489999D02*
X119380000Y-59690000D01*
X115171001Y-63898999D02*
X118580001Y-60489999D01*
X109187999Y-63898999D02*
X115171001Y-63898999D01*
X106172000Y-66914998D02*
X109187999Y-63898999D01*
X106172000Y-73152000D02*
X106172000Y-66914998D01*
X130414998Y-59690000D02*
X134224998Y-63500000D01*
X119380000Y-59690000D02*
X130414998Y-59690000D01*
X134224998Y-63500000D02*
X141732000Y-63500000D01*
X142367000Y-64135000D02*
X145288000Y-64135000D01*
X141732000Y-63500000D02*
X142367000Y-64135000D01*
X144653000Y-62230000D02*
X134620000Y-62230000D01*
X145288000Y-62865000D02*
X144653000Y-62230000D01*
X134620000Y-102870000D02*
X139954000Y-102870000D01*
X139954000Y-102870000D02*
X143256000Y-99568000D01*
X147828000Y-65405000D02*
X145288000Y-62865000D01*
X147828000Y-99060000D02*
X147828000Y-65405000D01*
X121412000Y-107696000D02*
X127000000Y-107696000D01*
X133494999Y-103995001D02*
X133820001Y-103669999D01*
X133494999Y-105322003D02*
X133494999Y-103995001D01*
X133820001Y-103669999D02*
X134620000Y-102870000D01*
X131920001Y-106897001D02*
X133494999Y-105322003D01*
X129249001Y-106897001D02*
X131920001Y-106897001D01*
X128524000Y-106172000D02*
X129249001Y-106897001D01*
X132276998Y-64770000D02*
X128466998Y-60960000D01*
X134620000Y-64770000D02*
X132276998Y-64770000D01*
X128466998Y-60960000D02*
X122936000Y-60960000D01*
X115447653Y-69727653D02*
X110744000Y-74431306D01*
X110744000Y-74431306D02*
X110744000Y-74676000D01*
X119492998Y-89408000D02*
X120396000Y-89408000D01*
X116840000Y-84836000D02*
X116440001Y-85235999D01*
X116440001Y-86355003D02*
X119492998Y-89408000D01*
X116440001Y-85235999D02*
X116440001Y-86355003D01*
X123603998Y-91149000D02*
X125984000Y-91149000D01*
X122645000Y-88900000D02*
X122645000Y-90190002D01*
X122645000Y-90190002D02*
X123603998Y-91149000D01*
X124169001Y-98261001D02*
X130265001Y-98261001D01*
X122936000Y-97028000D02*
X124169001Y-98261001D01*
X128001258Y-100033740D02*
X130041239Y-100033740D01*
X130773001Y-101817001D02*
X127667999Y-101817001D01*
X131572000Y-102616000D02*
X130773001Y-101817001D01*
X127667999Y-101817001D02*
X127290999Y-101440001D01*
X127290999Y-101440001D02*
X127290999Y-100743999D01*
X127290999Y-100743999D02*
X128001258Y-100033740D01*
X132588000Y-63500000D02*
X130048000Y-60960000D01*
X130048000Y-60960000D02*
X129540000Y-60960000D01*
X110236000Y-72644000D02*
X104648000Y-78232000D01*
X136943000Y-101092000D02*
X140208000Y-101092000D01*
X140208000Y-101092000D02*
X142748000Y-98552000D01*
X148844000Y-93472000D02*
X148844000Y-90970787D01*
X148844000Y-90970787D02*
X148649241Y-90776028D01*
X142748000Y-93472000D02*
X142748000Y-90424000D01*
X142748000Y-90424000D02*
X141224000Y-88900000D01*
X136144000Y-89408000D02*
X133967001Y-89408000D01*
X133967001Y-89408000D02*
X133895000Y-89480001D01*
X124460000Y-84328000D02*
X124460000Y-79756000D01*
X126492000Y-78232000D02*
X126492000Y-76708000D01*
X126492000Y-76708000D02*
X128524000Y-74676000D01*
X131459136Y-72756864D02*
X131826000Y-72390000D01*
X128188795Y-72756864D02*
X131459136Y-72756864D01*
X136994997Y-96628001D02*
X141732000Y-91890998D01*
X136144000Y-97028000D02*
X136543999Y-96628001D01*
X136543999Y-96628001D02*
X136994997Y-96628001D01*
X141732000Y-91890998D02*
X141732000Y-90932000D01*
X141732000Y-90932000D02*
X140716000Y-89916000D01*
X137668000Y-88900000D02*
X140208000Y-86360000D01*
X141674998Y-72136000D02*
X142240000Y-72136000D01*
X140498999Y-73311999D02*
X141674998Y-72136000D01*
X142748000Y-77724000D02*
X140498999Y-75474999D01*
X140498999Y-75474999D02*
X140498999Y-73311999D01*
X87884000Y-77216000D02*
X82550000Y-82550000D01*
X104648000Y-72644000D02*
X100076000Y-77216000D01*
X116727002Y-57150000D02*
X112518003Y-61358999D01*
X119380000Y-57150000D02*
X116727002Y-57150000D01*
X104648000Y-65898998D02*
X104648000Y-72644000D01*
X112518003Y-61358999D02*
X109187999Y-61358999D01*
X109187999Y-61358999D02*
X104648000Y-65898998D01*
X142875000Y-57785000D02*
X145288000Y-57785000D01*
X133096000Y-58420000D02*
X142240000Y-58420000D01*
X119380000Y-57150000D02*
X131826000Y-57150000D01*
X142240000Y-58420000D02*
X142875000Y-57785000D01*
X131826000Y-57150000D02*
X133096000Y-58420000D01*
X93472000Y-77216000D02*
X87884000Y-77216000D01*
X100076000Y-77216000D02*
X93472000Y-77216000D01*
X131572000Y-58420000D02*
X127000000Y-58420000D01*
X123952000Y-70104000D02*
X123952000Y-71110694D01*
X121920000Y-75184000D02*
X121920000Y-79756000D01*
X121920000Y-79756000D02*
X121920000Y-89408000D01*
X121920000Y-89408000D02*
X120396000Y-90932000D01*
X120396000Y-92964000D02*
X124460000Y-92964000D01*
X124460000Y-92964000D02*
X129032000Y-97536000D01*
X123952000Y-71110694D02*
X123952000Y-71120000D01*
X123952000Y-71120000D02*
X125476000Y-72644000D01*
X125476000Y-72644000D02*
X127000000Y-72644000D01*
X134366000Y-100076000D02*
X134620000Y-100330000D01*
X128016000Y-101092000D02*
X134366000Y-100076000D01*
X81280000Y-86360000D02*
X81750001Y-86830001D01*
X81280000Y-78232000D02*
X81280000Y-86360000D01*
X81750001Y-86830001D02*
X82550000Y-87630000D01*
X119380000Y-54610000D02*
X115570000Y-54610000D01*
X103233001Y-71518999D02*
X99060000Y-75692000D01*
X115570000Y-54610000D02*
X111650999Y-58529001D01*
X111650999Y-58529001D02*
X109477997Y-58529001D01*
X83820000Y-75692000D02*
X81280000Y-78232000D01*
X109477997Y-58529001D02*
X103233001Y-64773997D01*
X103233001Y-64773997D02*
X103233001Y-71518999D01*
X145288000Y-55245000D02*
X139319000Y-55245000D01*
X138828999Y-55735001D02*
X124315001Y-55735001D01*
X139319000Y-55245000D02*
X138828999Y-55735001D01*
X123190000Y-54610000D02*
X119380000Y-54610000D01*
X124315001Y-55735001D02*
X123190000Y-54610000D01*
X88392000Y-75692000D02*
X83820000Y-75692000D01*
X99060000Y-75692000D02*
X88392000Y-75692000D01*
X101058000Y-54864000D02*
X99026000Y-52832000D01*
X102108000Y-54864000D02*
X101058000Y-54864000D01*
X99026000Y-52832000D02*
X93472000Y-52832000D01*
X93472000Y-52832000D02*
X91948000Y-54356000D01*
X91948000Y-60960000D02*
X87884000Y-65024000D01*
X91948000Y-58420000D02*
X91948000Y-60960000D01*
X103158000Y-54864000D02*
X104682000Y-53340000D01*
X102108000Y-54864000D02*
X103158000Y-54864000D01*
X144653000Y-53340000D02*
X145288000Y-53975000D01*
X104682000Y-53340000D02*
X144653000Y-53340000D01*
X73152000Y-96012000D02*
X82550000Y-105410000D01*
X73152000Y-76454000D02*
X73152000Y-96012000D01*
X75908001Y-119596001D02*
X76708000Y-120396000D01*
X75184000Y-118872000D02*
X75908001Y-119596001D01*
X75184000Y-110744000D02*
X75184000Y-118872000D01*
X76708000Y-109220000D02*
X75184000Y-110744000D01*
X110490000Y-124460000D02*
X110490000Y-119380000D01*
X110490000Y-119380000D02*
X110490000Y-114300000D01*
X80518000Y-105410000D02*
X76708000Y-109220000D01*
X82550000Y-105410000D02*
X80518000Y-105410000D01*
X74168000Y-128016000D02*
X74168000Y-122936000D01*
X74168000Y-122936000D02*
X76708000Y-120396000D01*
X110490000Y-124460000D02*
X110490000Y-126746000D01*
X110490000Y-126746000D02*
X107696000Y-129540000D01*
X107696000Y-129540000D02*
X75692000Y-129540000D01*
X75692000Y-129540000D02*
X74168000Y-128016000D01*
X124460000Y-119380000D02*
X124460000Y-122936000D01*
X111760000Y-124460000D02*
X110490000Y-124460000D01*
X113792000Y-126492000D02*
X111760000Y-124460000D01*
X76708000Y-73605106D02*
X73859106Y-76454000D01*
X76708000Y-58928000D02*
X76708000Y-73605106D01*
X73859106Y-76454000D02*
X73152000Y-76454000D01*
X74168000Y-56388000D02*
X76708000Y-58928000D01*
X134620000Y-94996000D02*
X134620000Y-95250000D01*
X138684000Y-93472000D02*
X134620000Y-94996000D01*
X99060000Y-119380000D02*
X97790000Y-118110000D01*
X102870000Y-119380000D02*
X99060000Y-119380000D01*
X81280000Y-116840000D02*
X82550000Y-118110000D01*
X76708000Y-116840000D02*
X81280000Y-116840000D01*
X76708000Y-125360630D02*
X76708000Y-126884630D01*
X81418630Y-120650000D02*
X76708000Y-125360630D01*
X76708000Y-126884630D02*
X76708000Y-128016000D01*
X82550000Y-120650000D02*
X81418630Y-120650000D01*
X99060000Y-120650000D02*
X97790000Y-120650000D01*
X102870000Y-124460000D02*
X99060000Y-120650000D01*
X99060000Y-114300000D02*
X97790000Y-115570000D01*
X102870000Y-114300000D02*
X99060000Y-114300000D01*
X102870000Y-114300000D02*
X102870000Y-117094000D01*
X102870000Y-117094000D02*
X107696000Y-121920000D01*
X140224001Y-123427999D02*
X141224000Y-122428000D01*
X136796999Y-126855001D02*
X140224001Y-123427999D01*
X117203001Y-126855001D02*
X136796999Y-126855001D01*
X112268000Y-121920000D02*
X117203001Y-126855001D01*
X141224000Y-117342213D02*
X141224000Y-122428000D01*
X141224000Y-115928000D02*
X141224000Y-117342213D01*
X80074205Y-90234205D02*
X81750001Y-91910001D01*
X80074205Y-58101795D02*
X80074205Y-90234205D01*
X81750001Y-91910001D02*
X82550000Y-92710000D01*
X81788000Y-56388000D02*
X80074205Y-58101795D01*
X87884000Y-54864000D02*
X86834000Y-54864000D01*
X86834000Y-54864000D02*
X86360000Y-55338000D01*
X87884000Y-62484000D02*
X86360000Y-62484000D01*
X86360000Y-55338000D02*
X86360000Y-62484000D01*
X86360000Y-62484000D02*
X86360000Y-73660000D01*
X101308001Y-56604001D02*
X102108000Y-57404000D01*
X100693001Y-55989001D02*
X101308001Y-56604001D01*
X89298999Y-55989001D02*
X100693001Y-55989001D01*
X87884000Y-57404000D02*
X89298999Y-55989001D01*
X90424000Y-67564000D02*
X90424000Y-72136000D01*
X90424000Y-72136000D02*
X90424000Y-73152000D01*
D20*
G36*
X150216001Y-130404000D02*
G01*
X140164816Y-130404000D01*
X140187226Y-130349898D01*
X140227000Y-130149939D01*
X140227000Y-129946061D01*
X140187226Y-129746102D01*
X140109205Y-129557744D01*
X139995937Y-129388226D01*
X139851774Y-129244063D01*
X139682256Y-129130795D01*
X139493898Y-129052774D01*
X139293939Y-129013000D01*
X139090061Y-129013000D01*
X138890102Y-129052774D01*
X138701744Y-129130795D01*
X138532226Y-129244063D01*
X138488289Y-129288000D01*
X135640928Y-129288000D01*
X135818932Y-129071101D01*
X135952182Y-128821808D01*
X136034236Y-128551309D01*
X136061943Y-128270000D01*
X136034236Y-127988691D01*
X135952182Y-127718192D01*
X135897025Y-127615001D01*
X136759677Y-127615001D01*
X136796999Y-127618677D01*
X136834321Y-127615001D01*
X136834332Y-127615001D01*
X136945985Y-127604004D01*
X137089246Y-127560547D01*
X137221275Y-127489975D01*
X137337000Y-127395002D01*
X137360803Y-127365998D01*
X140732625Y-123994177D01*
X140747088Y-124000168D01*
X141062967Y-124063000D01*
X141385033Y-124063000D01*
X141700912Y-124000168D01*
X141998463Y-123876918D01*
X142266252Y-123697987D01*
X142400826Y-123563413D01*
X144768192Y-123563413D01*
X144863956Y-123827814D01*
X145153571Y-123968704D01*
X145465108Y-124050384D01*
X145786595Y-124069718D01*
X146105675Y-124025961D01*
X146410088Y-123920795D01*
X146584044Y-123827814D01*
X146679808Y-123563413D01*
X145724000Y-122607605D01*
X144768192Y-123563413D01*
X142400826Y-123563413D01*
X142493987Y-123470252D01*
X142672918Y-123202463D01*
X142796168Y-122904912D01*
X142859000Y-122589033D01*
X142859000Y-122490595D01*
X144082282Y-122490595D01*
X144126039Y-122809675D01*
X144231205Y-123114088D01*
X144324186Y-123288044D01*
X144588587Y-123383808D01*
X145544395Y-122428000D01*
X145903605Y-122428000D01*
X146859413Y-123383808D01*
X147123814Y-123288044D01*
X147264704Y-122998429D01*
X147346384Y-122686892D01*
X147365718Y-122365405D01*
X147321961Y-122046325D01*
X147216795Y-121741912D01*
X147123814Y-121567956D01*
X146859413Y-121472192D01*
X145903605Y-122428000D01*
X145544395Y-122428000D01*
X144588587Y-121472192D01*
X144324186Y-121567956D01*
X144183296Y-121857571D01*
X144101616Y-122169108D01*
X144082282Y-122490595D01*
X142859000Y-122490595D01*
X142859000Y-122266967D01*
X142796168Y-121951088D01*
X142672918Y-121653537D01*
X142493987Y-121385748D01*
X142400826Y-121292587D01*
X144768192Y-121292587D01*
X145724000Y-122248395D01*
X146679808Y-121292587D01*
X146584044Y-121028186D01*
X146294429Y-120887296D01*
X145982892Y-120805616D01*
X145661405Y-120786282D01*
X145342325Y-120830039D01*
X145037912Y-120935205D01*
X144863956Y-121028186D01*
X144768192Y-121292587D01*
X142400826Y-121292587D01*
X142266252Y-121158013D01*
X141998463Y-120979082D01*
X141984000Y-120973091D01*
X141984000Y-117382909D01*
X141998463Y-117376918D01*
X142266252Y-117197987D01*
X142400826Y-117063413D01*
X144768192Y-117063413D01*
X144863956Y-117327814D01*
X145153571Y-117468704D01*
X145465108Y-117550384D01*
X145786595Y-117569718D01*
X146105675Y-117525961D01*
X146410088Y-117420795D01*
X146584044Y-117327814D01*
X146679808Y-117063413D01*
X145724000Y-116107605D01*
X144768192Y-117063413D01*
X142400826Y-117063413D01*
X142493987Y-116970252D01*
X142672918Y-116702463D01*
X142796168Y-116404912D01*
X142859000Y-116089033D01*
X142859000Y-115990595D01*
X144082282Y-115990595D01*
X144126039Y-116309675D01*
X144231205Y-116614088D01*
X144324186Y-116788044D01*
X144588587Y-116883808D01*
X145544395Y-115928000D01*
X145903605Y-115928000D01*
X146859413Y-116883808D01*
X147123814Y-116788044D01*
X147264704Y-116498429D01*
X147346384Y-116186892D01*
X147365718Y-115865405D01*
X147321961Y-115546325D01*
X147216795Y-115241912D01*
X147123814Y-115067956D01*
X146859413Y-114972192D01*
X145903605Y-115928000D01*
X145544395Y-115928000D01*
X144588587Y-114972192D01*
X144324186Y-115067956D01*
X144183296Y-115357571D01*
X144101616Y-115669108D01*
X144082282Y-115990595D01*
X142859000Y-115990595D01*
X142859000Y-115766967D01*
X142796168Y-115451088D01*
X142672918Y-115153537D01*
X142493987Y-114885748D01*
X142400826Y-114792587D01*
X144768192Y-114792587D01*
X145724000Y-115748395D01*
X146679808Y-114792587D01*
X146584044Y-114528186D01*
X146294429Y-114387296D01*
X145982892Y-114305616D01*
X145661405Y-114286282D01*
X145342325Y-114330039D01*
X145037912Y-114435205D01*
X144863956Y-114528186D01*
X144768192Y-114792587D01*
X142400826Y-114792587D01*
X142266252Y-114658013D01*
X141998463Y-114479082D01*
X141700912Y-114355832D01*
X141385033Y-114293000D01*
X141062967Y-114293000D01*
X140747088Y-114355832D01*
X140449537Y-114479082D01*
X140181748Y-114658013D01*
X139954013Y-114885748D01*
X139775082Y-115153537D01*
X139651832Y-115451088D01*
X139603010Y-115696534D01*
X139603010Y-113757811D01*
X140840822Y-112520000D01*
X146774678Y-112520000D01*
X146812000Y-112523676D01*
X146849322Y-112520000D01*
X146849333Y-112520000D01*
X146960986Y-112509003D01*
X147104247Y-112465546D01*
X147236276Y-112394974D01*
X147352001Y-112300001D01*
X147375804Y-112270997D01*
X149863008Y-109783795D01*
X149892001Y-109760001D01*
X149915795Y-109731008D01*
X149915799Y-109731004D01*
X149986973Y-109644277D01*
X149989901Y-109638800D01*
X150057546Y-109512247D01*
X150101003Y-109368986D01*
X150112000Y-109257333D01*
X150112000Y-109257324D01*
X150115676Y-109220001D01*
X150112000Y-109182678D01*
X150112000Y-102016915D01*
X150115676Y-101979590D01*
X150112000Y-101942265D01*
X150112000Y-101942257D01*
X150101003Y-101830604D01*
X150057546Y-101687343D01*
X149986974Y-101555314D01*
X149892001Y-101439589D01*
X149863004Y-101415792D01*
X148381895Y-99934683D01*
X148487774Y-99863937D01*
X148631937Y-99719774D01*
X148745205Y-99550256D01*
X148823226Y-99361898D01*
X148863000Y-99161939D01*
X148863000Y-98958061D01*
X148823226Y-98758102D01*
X148745205Y-98569744D01*
X148631937Y-98400226D01*
X148588000Y-98356289D01*
X148588000Y-94476356D01*
X148742061Y-94507000D01*
X148945939Y-94507000D01*
X149145898Y-94467226D01*
X149334256Y-94389205D01*
X149503774Y-94275937D01*
X149647937Y-94131774D01*
X149761205Y-93962256D01*
X149839226Y-93773898D01*
X149879000Y-93573939D01*
X149879000Y-93370061D01*
X149839226Y-93170102D01*
X149761205Y-92981744D01*
X149647937Y-92812226D01*
X149604000Y-92768289D01*
X149604000Y-91175621D01*
X149644467Y-91077926D01*
X149684241Y-90877967D01*
X149684241Y-90674089D01*
X149644467Y-90474130D01*
X149566446Y-90285772D01*
X149453178Y-90116254D01*
X149309015Y-89972091D01*
X149139497Y-89858823D01*
X148951139Y-89780802D01*
X148751180Y-89741028D01*
X148588000Y-89741028D01*
X148588000Y-65442322D01*
X148591676Y-65404999D01*
X148588000Y-65367676D01*
X148588000Y-65367667D01*
X148577003Y-65256014D01*
X148533546Y-65112753D01*
X148462974Y-64980724D01*
X148423383Y-64932482D01*
X148391799Y-64893996D01*
X148391795Y-64893992D01*
X148368001Y-64864999D01*
X148339008Y-64841205D01*
X146422601Y-62924800D01*
X146428491Y-62865000D01*
X146406577Y-62642501D01*
X146341676Y-62428553D01*
X146236284Y-62231377D01*
X146235154Y-62230000D01*
X146236284Y-62228623D01*
X146341676Y-62031447D01*
X146406577Y-61817499D01*
X146428491Y-61595000D01*
X146406577Y-61372501D01*
X146341676Y-61158553D01*
X146236284Y-60961377D01*
X146235154Y-60960000D01*
X146236284Y-60958623D01*
X146341676Y-60761447D01*
X146406577Y-60547499D01*
X146428491Y-60325000D01*
X146406577Y-60102501D01*
X146341676Y-59888553D01*
X146236284Y-59691377D01*
X146235154Y-59690000D01*
X146236284Y-59688623D01*
X146341676Y-59491447D01*
X146406577Y-59277499D01*
X146428491Y-59055000D01*
X146406577Y-58832501D01*
X146341676Y-58618553D01*
X146236284Y-58421377D01*
X146235154Y-58420000D01*
X146236284Y-58418623D01*
X146341676Y-58221447D01*
X146406577Y-58007499D01*
X146428491Y-57785000D01*
X146406577Y-57562501D01*
X146341676Y-57348553D01*
X146236284Y-57151377D01*
X146235154Y-57150000D01*
X146236284Y-57148623D01*
X146341676Y-56951447D01*
X146406577Y-56737499D01*
X146428491Y-56515000D01*
X146406577Y-56292501D01*
X146341676Y-56078553D01*
X146236284Y-55881377D01*
X146235154Y-55880000D01*
X146236284Y-55878623D01*
X146341676Y-55681447D01*
X146406577Y-55467499D01*
X146428491Y-55245000D01*
X146406577Y-55022501D01*
X146341676Y-54808553D01*
X146236284Y-54611377D01*
X146235154Y-54610000D01*
X146236284Y-54608623D01*
X146341676Y-54411447D01*
X146406577Y-54197499D01*
X146428491Y-53975000D01*
X146406577Y-53752501D01*
X146341676Y-53538553D01*
X146236284Y-53341377D01*
X146094449Y-53168551D01*
X145921623Y-53026716D01*
X145724447Y-52921324D01*
X145510499Y-52856423D01*
X145343752Y-52840000D01*
X145232248Y-52840000D01*
X145228200Y-52840399D01*
X145216803Y-52829002D01*
X145193001Y-52799999D01*
X145077276Y-52705026D01*
X144945247Y-52634454D01*
X144801986Y-52590997D01*
X144690333Y-52580000D01*
X144690322Y-52580000D01*
X144653000Y-52576324D01*
X144615678Y-52580000D01*
X104719322Y-52580000D01*
X104681999Y-52576324D01*
X104644676Y-52580000D01*
X104644667Y-52580000D01*
X104533014Y-52590997D01*
X104389753Y-52634454D01*
X104257724Y-52705026D01*
X104257722Y-52705027D01*
X104257723Y-52705027D01*
X104170996Y-52776201D01*
X104170992Y-52776205D01*
X104141999Y-52799999D01*
X104118205Y-52828992D01*
X103345563Y-53601635D01*
X103262494Y-53533463D01*
X103152180Y-53474498D01*
X103032482Y-53438188D01*
X102908000Y-53425928D01*
X101308000Y-53425928D01*
X101183518Y-53438188D01*
X101063820Y-53474498D01*
X100953506Y-53533463D01*
X100870437Y-53601636D01*
X99589804Y-52321003D01*
X99566001Y-52291999D01*
X99450276Y-52197026D01*
X99318247Y-52126454D01*
X99174986Y-52082997D01*
X99063333Y-52072000D01*
X99063322Y-52072000D01*
X99026000Y-52068324D01*
X98988678Y-52072000D01*
X93509322Y-52072000D01*
X93471999Y-52068324D01*
X93434676Y-52072000D01*
X93434667Y-52072000D01*
X93323014Y-52082997D01*
X93179753Y-52126454D01*
X93047724Y-52197026D01*
X93047722Y-52197027D01*
X93047723Y-52197027D01*
X92960996Y-52268201D01*
X92960992Y-52268205D01*
X92931999Y-52291999D01*
X92908205Y-52320992D01*
X91908198Y-53321000D01*
X91846061Y-53321000D01*
X91646102Y-53360774D01*
X91457744Y-53438795D01*
X91288226Y-53552063D01*
X91144063Y-53696226D01*
X91030795Y-53865744D01*
X90952774Y-54054102D01*
X90913000Y-54254061D01*
X90913000Y-54457939D01*
X90952774Y-54657898D01*
X91030795Y-54846256D01*
X91144063Y-55015774D01*
X91288226Y-55159937D01*
X91391588Y-55229001D01*
X89336324Y-55229001D01*
X89322072Y-55227597D01*
X89322072Y-54064000D01*
X89309812Y-53939518D01*
X89273502Y-53819820D01*
X89214537Y-53709506D01*
X89135185Y-53612815D01*
X89038494Y-53533463D01*
X88928180Y-53474498D01*
X88808482Y-53438188D01*
X88684000Y-53425928D01*
X87084000Y-53425928D01*
X86959518Y-53438188D01*
X86839820Y-53474498D01*
X86729506Y-53533463D01*
X86632815Y-53612815D01*
X86553463Y-53709506D01*
X86494498Y-53819820D01*
X86458188Y-53939518D01*
X86445928Y-54064000D01*
X86445928Y-54209674D01*
X86409724Y-54229026D01*
X86293999Y-54323999D01*
X86270196Y-54353003D01*
X85849003Y-54774196D01*
X85819999Y-54797999D01*
X85780396Y-54846256D01*
X85725026Y-54913724D01*
X85663166Y-55029455D01*
X85654454Y-55045754D01*
X85610997Y-55189015D01*
X85600000Y-55300668D01*
X85600000Y-55300678D01*
X85596324Y-55338000D01*
X85600000Y-55375323D01*
X85600001Y-62446657D01*
X85596323Y-62484000D01*
X85600000Y-62521333D01*
X85600001Y-72956288D01*
X85556063Y-73000226D01*
X85442795Y-73169744D01*
X85364774Y-73358102D01*
X85325000Y-73558061D01*
X85325000Y-73761939D01*
X85364774Y-73961898D01*
X85442795Y-74150256D01*
X85556063Y-74319774D01*
X85700226Y-74463937D01*
X85869744Y-74577205D01*
X86058102Y-74655226D01*
X86258061Y-74695000D01*
X86461939Y-74695000D01*
X86661898Y-74655226D01*
X86850256Y-74577205D01*
X87019774Y-74463937D01*
X87163937Y-74319774D01*
X87277205Y-74150256D01*
X87355226Y-73961898D01*
X87395000Y-73761939D01*
X87395000Y-73558061D01*
X87355226Y-73358102D01*
X87277205Y-73169744D01*
X87163937Y-73000226D01*
X87120000Y-72956289D01*
X87120000Y-71322763D01*
X87332192Y-71436182D01*
X87602691Y-71518236D01*
X87813508Y-71539000D01*
X87954492Y-71539000D01*
X88165309Y-71518236D01*
X88435808Y-71436182D01*
X88685101Y-71302932D01*
X88903608Y-71123608D01*
X89082932Y-70905101D01*
X89216182Y-70655808D01*
X89298236Y-70385309D01*
X89325943Y-70104000D01*
X89298236Y-69822691D01*
X89216182Y-69552192D01*
X89082932Y-69302899D01*
X88903608Y-69084392D01*
X88685101Y-68905068D01*
X88552142Y-68834000D01*
X88685101Y-68762932D01*
X88903608Y-68583608D01*
X89082932Y-68365101D01*
X89216182Y-68115808D01*
X89298236Y-67845309D01*
X89325943Y-67564000D01*
X89315903Y-67462061D01*
X89389000Y-67462061D01*
X89389000Y-67665939D01*
X89428774Y-67865898D01*
X89506795Y-68054256D01*
X89620063Y-68223774D01*
X89664000Y-68267711D01*
X89664001Y-72098658D01*
X89664000Y-72098668D01*
X89664000Y-72448289D01*
X89620063Y-72492226D01*
X89506795Y-72661744D01*
X89428774Y-72850102D01*
X89389000Y-73050061D01*
X89389000Y-73253939D01*
X89428774Y-73453898D01*
X89506795Y-73642256D01*
X89620063Y-73811774D01*
X89764226Y-73955937D01*
X89933744Y-74069205D01*
X90122102Y-74147226D01*
X90322061Y-74187000D01*
X90525939Y-74187000D01*
X90725898Y-74147226D01*
X90914256Y-74069205D01*
X91083774Y-73955937D01*
X91227937Y-73811774D01*
X91341205Y-73642256D01*
X91419226Y-73453898D01*
X91459000Y-73253939D01*
X91459000Y-73050061D01*
X91419226Y-72850102D01*
X91341205Y-72661744D01*
X91227937Y-72492226D01*
X91184000Y-72448289D01*
X91184000Y-68267711D01*
X91227937Y-68223774D01*
X91341205Y-68054256D01*
X91419226Y-67865898D01*
X91459000Y-67665939D01*
X91459000Y-67462061D01*
X91419226Y-67262102D01*
X91341205Y-67073744D01*
X91227937Y-66904226D01*
X91083774Y-66760063D01*
X90914256Y-66646795D01*
X90725898Y-66568774D01*
X90525939Y-66529000D01*
X90322061Y-66529000D01*
X90122102Y-66568774D01*
X89933744Y-66646795D01*
X89764226Y-66760063D01*
X89620063Y-66904226D01*
X89506795Y-67073744D01*
X89428774Y-67262102D01*
X89389000Y-67462061D01*
X89315903Y-67462061D01*
X89298236Y-67282691D01*
X89216182Y-67012192D01*
X89082932Y-66762899D01*
X88903608Y-66544392D01*
X88685101Y-66365068D01*
X88552142Y-66294000D01*
X88685101Y-66222932D01*
X88903608Y-66043608D01*
X89082932Y-65825101D01*
X89216182Y-65575808D01*
X89298236Y-65305309D01*
X89325943Y-65024000D01*
X89298236Y-64742691D01*
X89284708Y-64698094D01*
X92459003Y-61523799D01*
X92488001Y-61500001D01*
X92546353Y-61428899D01*
X92582974Y-61384277D01*
X92653546Y-61252247D01*
X92684010Y-61151818D01*
X92697003Y-61108986D01*
X92708000Y-60997333D01*
X92708000Y-60997323D01*
X92711676Y-60960000D01*
X92708000Y-60922677D01*
X92708000Y-59123711D01*
X92751937Y-59079774D01*
X92865205Y-58910256D01*
X92943226Y-58721898D01*
X92983000Y-58521939D01*
X92983000Y-58318061D01*
X92943226Y-58118102D01*
X92865205Y-57929744D01*
X92751937Y-57760226D01*
X92607774Y-57616063D01*
X92438256Y-57502795D01*
X92249898Y-57424774D01*
X92049939Y-57385000D01*
X91846061Y-57385000D01*
X91646102Y-57424774D01*
X91457744Y-57502795D01*
X91288226Y-57616063D01*
X91144063Y-57760226D01*
X91030795Y-57929744D01*
X90952774Y-58118102D01*
X90913000Y-58318061D01*
X90913000Y-58521939D01*
X90952774Y-58721898D01*
X91030795Y-58910256D01*
X91144063Y-59079774D01*
X91188000Y-59123711D01*
X91188001Y-60645197D01*
X89323402Y-62509796D01*
X89325943Y-62484000D01*
X89298236Y-62202691D01*
X89216182Y-61932192D01*
X89082932Y-61682899D01*
X88903608Y-61464392D01*
X88685101Y-61285068D01*
X88552142Y-61214000D01*
X88685101Y-61142932D01*
X88903608Y-60963608D01*
X89082932Y-60745101D01*
X89216182Y-60495808D01*
X89298236Y-60225309D01*
X89325943Y-59944000D01*
X89298236Y-59662691D01*
X89216182Y-59392192D01*
X89082932Y-59142899D01*
X88903608Y-58924392D01*
X88685101Y-58745068D01*
X88552142Y-58674000D01*
X88685101Y-58602932D01*
X88903608Y-58423608D01*
X89082932Y-58205101D01*
X89216182Y-57955808D01*
X89298236Y-57685309D01*
X89325943Y-57404000D01*
X89298236Y-57122691D01*
X89284708Y-57078094D01*
X89613801Y-56749001D01*
X94226975Y-56749001D01*
X94171818Y-56852192D01*
X94089764Y-57122691D01*
X94062057Y-57404000D01*
X94089764Y-57685309D01*
X94171818Y-57955808D01*
X94305068Y-58205101D01*
X94484392Y-58423608D01*
X94702899Y-58602932D01*
X94835858Y-58674000D01*
X94702899Y-58745068D01*
X94484392Y-58924392D01*
X94305068Y-59142899D01*
X94171818Y-59392192D01*
X94089764Y-59662691D01*
X94062057Y-59944000D01*
X94089764Y-60225309D01*
X94171818Y-60495808D01*
X94305068Y-60745101D01*
X94484392Y-60963608D01*
X94702899Y-61142932D01*
X94835858Y-61214000D01*
X94702899Y-61285068D01*
X94484392Y-61464392D01*
X94305068Y-61682899D01*
X94171818Y-61932192D01*
X94089764Y-62202691D01*
X94062057Y-62484000D01*
X94089764Y-62765309D01*
X94171818Y-63035808D01*
X94305068Y-63285101D01*
X94484392Y-63503608D01*
X94702899Y-63682932D01*
X94835858Y-63754000D01*
X94702899Y-63825068D01*
X94484392Y-64004392D01*
X94305068Y-64222899D01*
X94171818Y-64472192D01*
X94089764Y-64742691D01*
X94062057Y-65024000D01*
X94089764Y-65305309D01*
X94171818Y-65575808D01*
X94305068Y-65825101D01*
X94484392Y-66043608D01*
X94702899Y-66222932D01*
X94835858Y-66294000D01*
X94702899Y-66365068D01*
X94484392Y-66544392D01*
X94305068Y-66762899D01*
X94171818Y-67012192D01*
X94089764Y-67282691D01*
X94062057Y-67564000D01*
X94089764Y-67845309D01*
X94171818Y-68115808D01*
X94305068Y-68365101D01*
X94484392Y-68583608D01*
X94702899Y-68762932D01*
X94835858Y-68834000D01*
X94702899Y-68905068D01*
X94484392Y-69084392D01*
X94305068Y-69302899D01*
X94171818Y-69552192D01*
X94089764Y-69822691D01*
X94062057Y-70104000D01*
X94089764Y-70385309D01*
X94171818Y-70655808D01*
X94305068Y-70905101D01*
X94484392Y-71123608D01*
X94702899Y-71302932D01*
X94952192Y-71436182D01*
X95222691Y-71518236D01*
X95433508Y-71539000D01*
X95574492Y-71539000D01*
X95785309Y-71518236D01*
X96055808Y-71436182D01*
X96305101Y-71302932D01*
X96523608Y-71123608D01*
X96702932Y-70905101D01*
X96836182Y-70655808D01*
X96918236Y-70385309D01*
X96945943Y-70104000D01*
X96918236Y-69822691D01*
X96836182Y-69552192D01*
X96702932Y-69302899D01*
X96523608Y-69084392D01*
X96305101Y-68905068D01*
X96172142Y-68834000D01*
X96305101Y-68762932D01*
X96523608Y-68583608D01*
X96702932Y-68365101D01*
X96836182Y-68115808D01*
X96918236Y-67845309D01*
X96945943Y-67564000D01*
X96918236Y-67282691D01*
X96836182Y-67012192D01*
X96702932Y-66762899D01*
X96523608Y-66544392D01*
X96305101Y-66365068D01*
X96172142Y-66294000D01*
X96305101Y-66222932D01*
X96523608Y-66043608D01*
X96702932Y-65825101D01*
X96836182Y-65575808D01*
X96918236Y-65305309D01*
X96945943Y-65024000D01*
X96918236Y-64742691D01*
X96836182Y-64472192D01*
X96702932Y-64222899D01*
X96523608Y-64004392D01*
X96305101Y-63825068D01*
X96172142Y-63754000D01*
X96305101Y-63682932D01*
X96523608Y-63503608D01*
X96702932Y-63285101D01*
X96836182Y-63035808D01*
X96918236Y-62765309D01*
X96945943Y-62484000D01*
X96918236Y-62202691D01*
X96836182Y-61932192D01*
X96702932Y-61682899D01*
X96523608Y-61464392D01*
X96305101Y-61285068D01*
X96172142Y-61214000D01*
X96305101Y-61142932D01*
X96523608Y-60963608D01*
X96702932Y-60745101D01*
X96836182Y-60495808D01*
X96918236Y-60225309D01*
X96945943Y-59944000D01*
X96918236Y-59662691D01*
X96836182Y-59392192D01*
X96702932Y-59142899D01*
X96523608Y-58924392D01*
X96305101Y-58745068D01*
X96172142Y-58674000D01*
X96305101Y-58602932D01*
X96523608Y-58423608D01*
X96702932Y-58205101D01*
X96836182Y-57955808D01*
X96918236Y-57685309D01*
X96945943Y-57404000D01*
X96918236Y-57122691D01*
X96836182Y-56852192D01*
X96781025Y-56749001D01*
X100378200Y-56749001D01*
X100707292Y-57078094D01*
X100693764Y-57122691D01*
X100666057Y-57404000D01*
X100693764Y-57685309D01*
X100775818Y-57955808D01*
X100909068Y-58205101D01*
X101088392Y-58423608D01*
X101306899Y-58602932D01*
X101439858Y-58674000D01*
X101306899Y-58745068D01*
X101088392Y-58924392D01*
X100909068Y-59142899D01*
X100775818Y-59392192D01*
X100693764Y-59662691D01*
X100666057Y-59944000D01*
X100693764Y-60225309D01*
X100775818Y-60495808D01*
X100909068Y-60745101D01*
X101088392Y-60963608D01*
X101306899Y-61142932D01*
X101439858Y-61214000D01*
X101306899Y-61285068D01*
X101088392Y-61464392D01*
X100909068Y-61682899D01*
X100775818Y-61932192D01*
X100693764Y-62202691D01*
X100666057Y-62484000D01*
X100693764Y-62765309D01*
X100775818Y-63035808D01*
X100909068Y-63285101D01*
X101088392Y-63503608D01*
X101306899Y-63682932D01*
X101439858Y-63754000D01*
X101306899Y-63825068D01*
X101088392Y-64004392D01*
X100909068Y-64222899D01*
X100775818Y-64472192D01*
X100693764Y-64742691D01*
X100666057Y-65024000D01*
X100693764Y-65305309D01*
X100775818Y-65575808D01*
X100909068Y-65825101D01*
X101088392Y-66043608D01*
X101306899Y-66222932D01*
X101439858Y-66294000D01*
X101306899Y-66365068D01*
X101088392Y-66544392D01*
X100909068Y-66762899D01*
X100775818Y-67012192D01*
X100693764Y-67282691D01*
X100666057Y-67564000D01*
X100693764Y-67845309D01*
X100775818Y-68115808D01*
X100909068Y-68365101D01*
X101088392Y-68583608D01*
X101306899Y-68762932D01*
X101439858Y-68834000D01*
X101306899Y-68905068D01*
X101088392Y-69084392D01*
X100909068Y-69302899D01*
X100775818Y-69552192D01*
X100693764Y-69822691D01*
X100666057Y-70104000D01*
X100693764Y-70385309D01*
X100775818Y-70655808D01*
X100909068Y-70905101D01*
X101088392Y-71123608D01*
X101306899Y-71302932D01*
X101556192Y-71436182D01*
X101826691Y-71518236D01*
X102037508Y-71539000D01*
X102138198Y-71539000D01*
X98745199Y-74932000D01*
X89095711Y-74932000D01*
X89051774Y-74888063D01*
X88882256Y-74774795D01*
X88693898Y-74696774D01*
X88493939Y-74657000D01*
X88290061Y-74657000D01*
X88090102Y-74696774D01*
X87901744Y-74774795D01*
X87732226Y-74888063D01*
X87688289Y-74932000D01*
X83857322Y-74932000D01*
X83819999Y-74928324D01*
X83782676Y-74932000D01*
X83782667Y-74932000D01*
X83671014Y-74942997D01*
X83527753Y-74986454D01*
X83395724Y-75057026D01*
X83395722Y-75057027D01*
X83395723Y-75057027D01*
X83308996Y-75128201D01*
X83308992Y-75128205D01*
X83279999Y-75151999D01*
X83256205Y-75180992D01*
X80834205Y-77602994D01*
X80834205Y-65092552D01*
X80858630Y-65116977D01*
X80974903Y-65000704D01*
X81046486Y-65244671D01*
X81301996Y-65365571D01*
X81576184Y-65434300D01*
X81858512Y-65448217D01*
X82138130Y-65406787D01*
X82404292Y-65311603D01*
X82529514Y-65244671D01*
X82601097Y-65000702D01*
X81788000Y-64187605D01*
X81773858Y-64201748D01*
X81594253Y-64022143D01*
X81608395Y-64008000D01*
X81967605Y-64008000D01*
X82780702Y-64821097D01*
X83024671Y-64749514D01*
X83145571Y-64494004D01*
X83214300Y-64219816D01*
X83228217Y-63937488D01*
X83186787Y-63657870D01*
X83091603Y-63391708D01*
X83024671Y-63266486D01*
X82780702Y-63194903D01*
X81967605Y-64008000D01*
X81608395Y-64008000D01*
X81594253Y-63993858D01*
X81773858Y-63814253D01*
X81788000Y-63828395D01*
X82601097Y-63015298D01*
X82529514Y-62771329D01*
X82274004Y-62650429D01*
X81999816Y-62581700D01*
X81717488Y-62567783D01*
X81437870Y-62609213D01*
X81171708Y-62704397D01*
X81046486Y-62771329D01*
X80974903Y-63015296D01*
X80858630Y-62899023D01*
X80834205Y-62923448D01*
X80834205Y-58416596D01*
X81464114Y-57786688D01*
X81646665Y-57823000D01*
X81929335Y-57823000D01*
X82206574Y-57767853D01*
X82467727Y-57659680D01*
X82702759Y-57502637D01*
X82902637Y-57302759D01*
X83059680Y-57067727D01*
X83167853Y-56806574D01*
X83223000Y-56529335D01*
X83223000Y-56246665D01*
X83167853Y-55969426D01*
X83059680Y-55708273D01*
X82902637Y-55473241D01*
X82702759Y-55273363D01*
X82467727Y-55116320D01*
X82206574Y-55008147D01*
X81929335Y-54953000D01*
X81646665Y-54953000D01*
X81369426Y-55008147D01*
X81108273Y-55116320D01*
X80873241Y-55273363D01*
X80673363Y-55473241D01*
X80516320Y-55708273D01*
X80408147Y-55969426D01*
X80353000Y-56246665D01*
X80353000Y-56529335D01*
X80389312Y-56711886D01*
X79563208Y-57537991D01*
X79534204Y-57561794D01*
X79489667Y-57616063D01*
X79439231Y-57677519D01*
X79384454Y-57779999D01*
X79368659Y-57809549D01*
X79325202Y-57952810D01*
X79314205Y-58064463D01*
X79314205Y-58064473D01*
X79310529Y-58101795D01*
X79314205Y-58139117D01*
X79314206Y-90196872D01*
X79310529Y-90234205D01*
X79314206Y-90271538D01*
X79325203Y-90383191D01*
X79336671Y-90420997D01*
X79368659Y-90526451D01*
X79439231Y-90658481D01*
X79500178Y-90732744D01*
X79534205Y-90774206D01*
X79563203Y-90798004D01*
X81149292Y-92384095D01*
X81135764Y-92428691D01*
X81108057Y-92710000D01*
X81135764Y-92991309D01*
X81217818Y-93261808D01*
X81351068Y-93511101D01*
X81530392Y-93729608D01*
X81748899Y-93908932D01*
X81881858Y-93980000D01*
X81748899Y-94051068D01*
X81530392Y-94230392D01*
X81351068Y-94448899D01*
X81217818Y-94698192D01*
X81135764Y-94968691D01*
X81108057Y-95250000D01*
X81135764Y-95531309D01*
X81217818Y-95801808D01*
X81351068Y-96051101D01*
X81530392Y-96269608D01*
X81748899Y-96448932D01*
X81881858Y-96520000D01*
X81748899Y-96591068D01*
X81530392Y-96770392D01*
X81351068Y-96988899D01*
X81217818Y-97238192D01*
X81135764Y-97508691D01*
X81108057Y-97790000D01*
X81135764Y-98071309D01*
X81217818Y-98341808D01*
X81351068Y-98591101D01*
X81530392Y-98809608D01*
X81748899Y-98988932D01*
X81881858Y-99060000D01*
X81748899Y-99131068D01*
X81530392Y-99310392D01*
X81351068Y-99528899D01*
X81217818Y-99778192D01*
X81135764Y-100048691D01*
X81108057Y-100330000D01*
X81135764Y-100611309D01*
X81217818Y-100881808D01*
X81351068Y-101131101D01*
X81530392Y-101349608D01*
X81748899Y-101528932D01*
X81881858Y-101600000D01*
X81748899Y-101671068D01*
X81530392Y-101850392D01*
X81351068Y-102068899D01*
X81217818Y-102318192D01*
X81135764Y-102588691D01*
X81108057Y-102870000D01*
X81110598Y-102895796D01*
X73912000Y-95697199D01*
X73912000Y-77298569D01*
X73958449Y-77260449D01*
X74005374Y-77203271D01*
X74008092Y-77203003D01*
X74151353Y-77159546D01*
X74283382Y-77088974D01*
X74399107Y-76994001D01*
X74422910Y-76964997D01*
X77219003Y-74168905D01*
X77248001Y-74145107D01*
X77342974Y-74029382D01*
X77413546Y-73897353D01*
X77457003Y-73754092D01*
X77468000Y-73642439D01*
X77471677Y-73605106D01*
X77468000Y-73567773D01*
X77468000Y-58965322D01*
X77471676Y-58927999D01*
X77468000Y-58890676D01*
X77468000Y-58890667D01*
X77457003Y-58779014D01*
X77413546Y-58635753D01*
X77342974Y-58503724D01*
X77274263Y-58419999D01*
X77271799Y-58416996D01*
X77271795Y-58416992D01*
X77248001Y-58387999D01*
X77219009Y-58364206D01*
X75566688Y-56711886D01*
X75603000Y-56529335D01*
X75603000Y-56246665D01*
X75547853Y-55969426D01*
X75439680Y-55708273D01*
X75282637Y-55473241D01*
X75082759Y-55273363D01*
X74847727Y-55116320D01*
X74586574Y-55008147D01*
X74309335Y-54953000D01*
X74026665Y-54953000D01*
X73749426Y-55008147D01*
X73488273Y-55116320D01*
X73253241Y-55273363D01*
X73053363Y-55473241D01*
X72896320Y-55708273D01*
X72788147Y-55969426D01*
X72733000Y-56246665D01*
X72733000Y-56529335D01*
X72788147Y-56806574D01*
X72896320Y-57067727D01*
X73053363Y-57302759D01*
X73253241Y-57502637D01*
X73488273Y-57659680D01*
X73749426Y-57767853D01*
X74026665Y-57823000D01*
X74309335Y-57823000D01*
X74491886Y-57786688D01*
X75948000Y-59242803D01*
X75948001Y-73290303D01*
X74181307Y-75056998D01*
X74128252Y-75056998D01*
X74287000Y-74898250D01*
X74290072Y-74684000D01*
X74277812Y-74559518D01*
X74241502Y-74439820D01*
X74182537Y-74329506D01*
X74103185Y-74232815D01*
X74006494Y-74153463D01*
X73896180Y-74094498D01*
X73776482Y-74058188D01*
X73652000Y-74045928D01*
X73437750Y-74049000D01*
X73279000Y-74207750D01*
X73279000Y-75057000D01*
X73299000Y-75057000D01*
X73299000Y-75311000D01*
X73279000Y-75311000D01*
X73279000Y-75326017D01*
X73207752Y-75319000D01*
X73096248Y-75319000D01*
X73025000Y-75326017D01*
X73025000Y-75311000D01*
X72175750Y-75311000D01*
X72017000Y-75469750D01*
X72013928Y-75684000D01*
X72026188Y-75808482D01*
X72062498Y-75928180D01*
X72104297Y-76006379D01*
X72098324Y-76017553D01*
X72033423Y-76231501D01*
X72011509Y-76454000D01*
X72033423Y-76676499D01*
X72098324Y-76890447D01*
X72203716Y-77087623D01*
X72345551Y-77260449D01*
X72392000Y-77298569D01*
X72392001Y-95974667D01*
X72388324Y-96012000D01*
X72392001Y-96049333D01*
X72402998Y-96160986D01*
X72414312Y-96198284D01*
X72446454Y-96304246D01*
X72517026Y-96436276D01*
X72570296Y-96501185D01*
X72612000Y-96552001D01*
X72640998Y-96575799D01*
X80715198Y-104650000D01*
X80555325Y-104650000D01*
X80518000Y-104646324D01*
X80480675Y-104650000D01*
X80480667Y-104650000D01*
X80369014Y-104660997D01*
X80225753Y-104704454D01*
X80093724Y-104775026D01*
X79977999Y-104869999D01*
X79954201Y-104898997D01*
X77031887Y-107821312D01*
X76849335Y-107785000D01*
X76566665Y-107785000D01*
X76289426Y-107840147D01*
X76028273Y-107948320D01*
X75793241Y-108105363D01*
X75593363Y-108305241D01*
X75436320Y-108540273D01*
X75328147Y-108801426D01*
X75273000Y-109078665D01*
X75273000Y-109361335D01*
X75309312Y-109543886D01*
X74673002Y-110180197D01*
X74643999Y-110203999D01*
X74603175Y-110253744D01*
X74549026Y-110319724D01*
X74483613Y-110442102D01*
X74478454Y-110451754D01*
X74434997Y-110595015D01*
X74424000Y-110706668D01*
X74424000Y-110706678D01*
X74420324Y-110744000D01*
X74424000Y-110781322D01*
X74424001Y-118834667D01*
X74420324Y-118872000D01*
X74424001Y-118909333D01*
X74434998Y-119020986D01*
X74445619Y-119056000D01*
X74478454Y-119164246D01*
X74549026Y-119296276D01*
X74617737Y-119380000D01*
X74644000Y-119412001D01*
X74672998Y-119435799D01*
X75309312Y-120072114D01*
X75273000Y-120254665D01*
X75273000Y-120537335D01*
X75309312Y-120719886D01*
X73656998Y-122372201D01*
X73628000Y-122395999D01*
X73604202Y-122424997D01*
X73604201Y-122424998D01*
X73533026Y-122511724D01*
X73462454Y-122643754D01*
X73446910Y-122694998D01*
X73420960Y-122780548D01*
X73418998Y-122787015D01*
X73404324Y-122936000D01*
X73408001Y-122973332D01*
X73408000Y-127978677D01*
X73404324Y-128016000D01*
X73408000Y-128053322D01*
X73408000Y-128053332D01*
X73418997Y-128164985D01*
X73459136Y-128297309D01*
X73462454Y-128308246D01*
X73533026Y-128440276D01*
X73572871Y-128488826D01*
X73627999Y-128556001D01*
X73657002Y-128579803D01*
X75128205Y-130051008D01*
X75151999Y-130080001D01*
X75180992Y-130103795D01*
X75180996Y-130103799D01*
X75237219Y-130149939D01*
X75267724Y-130174974D01*
X75399753Y-130245546D01*
X75543014Y-130289003D01*
X75654667Y-130300000D01*
X75654676Y-130300000D01*
X75691999Y-130303676D01*
X75729322Y-130300000D01*
X107658678Y-130300000D01*
X107696000Y-130303676D01*
X107733322Y-130300000D01*
X107733333Y-130300000D01*
X107844986Y-130289003D01*
X107988247Y-130245546D01*
X108120276Y-130174974D01*
X108236001Y-130080001D01*
X108259804Y-130050997D01*
X111001003Y-127309799D01*
X111030001Y-127286001D01*
X111124974Y-127170276D01*
X111195546Y-127038247D01*
X111239003Y-126894986D01*
X111240469Y-126880100D01*
X111265091Y-126896552D01*
X111453449Y-126974573D01*
X111653408Y-127014347D01*
X111715546Y-127014347D01*
X115105198Y-130404000D01*
X70256000Y-130404000D01*
X70256000Y-74684000D01*
X72013928Y-74684000D01*
X72017000Y-74898250D01*
X72175750Y-75057000D01*
X73025000Y-75057000D01*
X73025000Y-74207750D01*
X72866250Y-74049000D01*
X72652000Y-74045928D01*
X72527518Y-74058188D01*
X72407820Y-74094498D01*
X72297506Y-74153463D01*
X72200815Y-74232815D01*
X72121463Y-74329506D01*
X72062498Y-74439820D01*
X72026188Y-74559518D01*
X72013928Y-74684000D01*
X70256000Y-74684000D01*
X70256000Y-63208000D01*
X72729928Y-63208000D01*
X72729928Y-64808000D01*
X72742188Y-64932482D01*
X72778498Y-65052180D01*
X72837463Y-65162494D01*
X72916815Y-65259185D01*
X73013506Y-65338537D01*
X73123820Y-65397502D01*
X73243518Y-65433812D01*
X73368000Y-65446072D01*
X74968000Y-65446072D01*
X75092482Y-65433812D01*
X75212180Y-65397502D01*
X75322494Y-65338537D01*
X75419185Y-65259185D01*
X75498537Y-65162494D01*
X75557502Y-65052180D01*
X75593812Y-64932482D01*
X75606072Y-64808000D01*
X75606072Y-63208000D01*
X75593812Y-63083518D01*
X75557502Y-62963820D01*
X75498537Y-62853506D01*
X75419185Y-62756815D01*
X75322494Y-62677463D01*
X75212180Y-62618498D01*
X75092482Y-62582188D01*
X74968000Y-62569928D01*
X73368000Y-62569928D01*
X73243518Y-62582188D01*
X73123820Y-62618498D01*
X73013506Y-62677463D01*
X72916815Y-62756815D01*
X72837463Y-62853506D01*
X72778498Y-62963820D01*
X72742188Y-63083518D01*
X72729928Y-63208000D01*
X70256000Y-63208000D01*
X70256000Y-51968000D01*
X150216000Y-51968000D01*
X150216001Y-130404000D01*
X150216001Y-130404000D01*
G37*
X150216001Y-130404000D02*
X140164816Y-130404000D01*
X140187226Y-130349898D01*
X140227000Y-130149939D01*
X140227000Y-129946061D01*
X140187226Y-129746102D01*
X140109205Y-129557744D01*
X139995937Y-129388226D01*
X139851774Y-129244063D01*
X139682256Y-129130795D01*
X139493898Y-129052774D01*
X139293939Y-129013000D01*
X139090061Y-129013000D01*
X138890102Y-129052774D01*
X138701744Y-129130795D01*
X138532226Y-129244063D01*
X138488289Y-129288000D01*
X135640928Y-129288000D01*
X135818932Y-129071101D01*
X135952182Y-128821808D01*
X136034236Y-128551309D01*
X136061943Y-128270000D01*
X136034236Y-127988691D01*
X135952182Y-127718192D01*
X135897025Y-127615001D01*
X136759677Y-127615001D01*
X136796999Y-127618677D01*
X136834321Y-127615001D01*
X136834332Y-127615001D01*
X136945985Y-127604004D01*
X137089246Y-127560547D01*
X137221275Y-127489975D01*
X137337000Y-127395002D01*
X137360803Y-127365998D01*
X140732625Y-123994177D01*
X140747088Y-124000168D01*
X141062967Y-124063000D01*
X141385033Y-124063000D01*
X141700912Y-124000168D01*
X141998463Y-123876918D01*
X142266252Y-123697987D01*
X142400826Y-123563413D01*
X144768192Y-123563413D01*
X144863956Y-123827814D01*
X145153571Y-123968704D01*
X145465108Y-124050384D01*
X145786595Y-124069718D01*
X146105675Y-124025961D01*
X146410088Y-123920795D01*
X146584044Y-123827814D01*
X146679808Y-123563413D01*
X145724000Y-122607605D01*
X144768192Y-123563413D01*
X142400826Y-123563413D01*
X142493987Y-123470252D01*
X142672918Y-123202463D01*
X142796168Y-122904912D01*
X142859000Y-122589033D01*
X142859000Y-122490595D01*
X144082282Y-122490595D01*
X144126039Y-122809675D01*
X144231205Y-123114088D01*
X144324186Y-123288044D01*
X144588587Y-123383808D01*
X145544395Y-122428000D01*
X145903605Y-122428000D01*
X146859413Y-123383808D01*
X147123814Y-123288044D01*
X147264704Y-122998429D01*
X147346384Y-122686892D01*
X147365718Y-122365405D01*
X147321961Y-122046325D01*
X147216795Y-121741912D01*
X147123814Y-121567956D01*
X146859413Y-121472192D01*
X145903605Y-122428000D01*
X145544395Y-122428000D01*
X144588587Y-121472192D01*
X144324186Y-121567956D01*
X144183296Y-121857571D01*
X144101616Y-122169108D01*
X144082282Y-122490595D01*
X142859000Y-122490595D01*
X142859000Y-122266967D01*
X142796168Y-121951088D01*
X142672918Y-121653537D01*
X142493987Y-121385748D01*
X142400826Y-121292587D01*
X144768192Y-121292587D01*
X145724000Y-122248395D01*
X146679808Y-121292587D01*
X146584044Y-121028186D01*
X146294429Y-120887296D01*
X145982892Y-120805616D01*
X145661405Y-120786282D01*
X145342325Y-120830039D01*
X145037912Y-120935205D01*
X144863956Y-121028186D01*
X144768192Y-121292587D01*
X142400826Y-121292587D01*
X142266252Y-121158013D01*
X141998463Y-120979082D01*
X141984000Y-120973091D01*
X141984000Y-117382909D01*
X141998463Y-117376918D01*
X142266252Y-117197987D01*
X142400826Y-117063413D01*
X144768192Y-117063413D01*
X144863956Y-117327814D01*
X145153571Y-117468704D01*
X145465108Y-117550384D01*
X145786595Y-117569718D01*
X146105675Y-117525961D01*
X146410088Y-117420795D01*
X146584044Y-117327814D01*
X146679808Y-117063413D01*
X145724000Y-116107605D01*
X144768192Y-117063413D01*
X142400826Y-117063413D01*
X142493987Y-116970252D01*
X142672918Y-116702463D01*
X142796168Y-116404912D01*
X142859000Y-116089033D01*
X142859000Y-115990595D01*
X144082282Y-115990595D01*
X144126039Y-116309675D01*
X144231205Y-116614088D01*
X144324186Y-116788044D01*
X144588587Y-116883808D01*
X145544395Y-115928000D01*
X145903605Y-115928000D01*
X146859413Y-116883808D01*
X147123814Y-116788044D01*
X147264704Y-116498429D01*
X147346384Y-116186892D01*
X147365718Y-115865405D01*
X147321961Y-115546325D01*
X147216795Y-115241912D01*
X147123814Y-115067956D01*
X146859413Y-114972192D01*
X145903605Y-115928000D01*
X145544395Y-115928000D01*
X144588587Y-114972192D01*
X144324186Y-115067956D01*
X144183296Y-115357571D01*
X144101616Y-115669108D01*
X144082282Y-115990595D01*
X142859000Y-115990595D01*
X142859000Y-115766967D01*
X142796168Y-115451088D01*
X142672918Y-115153537D01*
X142493987Y-114885748D01*
X142400826Y-114792587D01*
X144768192Y-114792587D01*
X145724000Y-115748395D01*
X146679808Y-114792587D01*
X146584044Y-114528186D01*
X146294429Y-114387296D01*
X145982892Y-114305616D01*
X145661405Y-114286282D01*
X145342325Y-114330039D01*
X145037912Y-114435205D01*
X144863956Y-114528186D01*
X144768192Y-114792587D01*
X142400826Y-114792587D01*
X142266252Y-114658013D01*
X141998463Y-114479082D01*
X141700912Y-114355832D01*
X141385033Y-114293000D01*
X141062967Y-114293000D01*
X140747088Y-114355832D01*
X140449537Y-114479082D01*
X140181748Y-114658013D01*
X139954013Y-114885748D01*
X139775082Y-115153537D01*
X139651832Y-115451088D01*
X139603010Y-115696534D01*
X139603010Y-113757811D01*
X140840822Y-112520000D01*
X146774678Y-112520000D01*
X146812000Y-112523676D01*
X146849322Y-112520000D01*
X146849333Y-112520000D01*
X146960986Y-112509003D01*
X147104247Y-112465546D01*
X147236276Y-112394974D01*
X147352001Y-112300001D01*
X147375804Y-112270997D01*
X149863008Y-109783795D01*
X149892001Y-109760001D01*
X149915795Y-109731008D01*
X149915799Y-109731004D01*
X149986973Y-109644277D01*
X149989901Y-109638800D01*
X150057546Y-109512247D01*
X150101003Y-109368986D01*
X150112000Y-109257333D01*
X150112000Y-109257324D01*
X150115676Y-109220001D01*
X150112000Y-109182678D01*
X150112000Y-102016915D01*
X150115676Y-101979590D01*
X150112000Y-101942265D01*
X150112000Y-101942257D01*
X150101003Y-101830604D01*
X150057546Y-101687343D01*
X149986974Y-101555314D01*
X149892001Y-101439589D01*
X149863004Y-101415792D01*
X148381895Y-99934683D01*
X148487774Y-99863937D01*
X148631937Y-99719774D01*
X148745205Y-99550256D01*
X148823226Y-99361898D01*
X148863000Y-99161939D01*
X148863000Y-98958061D01*
X148823226Y-98758102D01*
X148745205Y-98569744D01*
X148631937Y-98400226D01*
X148588000Y-98356289D01*
X148588000Y-94476356D01*
X148742061Y-94507000D01*
X148945939Y-94507000D01*
X149145898Y-94467226D01*
X149334256Y-94389205D01*
X149503774Y-94275937D01*
X149647937Y-94131774D01*
X149761205Y-93962256D01*
X149839226Y-93773898D01*
X149879000Y-93573939D01*
X149879000Y-93370061D01*
X149839226Y-93170102D01*
X149761205Y-92981744D01*
X149647937Y-92812226D01*
X149604000Y-92768289D01*
X149604000Y-91175621D01*
X149644467Y-91077926D01*
X149684241Y-90877967D01*
X149684241Y-90674089D01*
X149644467Y-90474130D01*
X149566446Y-90285772D01*
X149453178Y-90116254D01*
X149309015Y-89972091D01*
X149139497Y-89858823D01*
X148951139Y-89780802D01*
X148751180Y-89741028D01*
X148588000Y-89741028D01*
X148588000Y-65442322D01*
X148591676Y-65404999D01*
X148588000Y-65367676D01*
X148588000Y-65367667D01*
X148577003Y-65256014D01*
X148533546Y-65112753D01*
X148462974Y-64980724D01*
X148423383Y-64932482D01*
X148391799Y-64893996D01*
X148391795Y-64893992D01*
X148368001Y-64864999D01*
X148339008Y-64841205D01*
X146422601Y-62924800D01*
X146428491Y-62865000D01*
X146406577Y-62642501D01*
X146341676Y-62428553D01*
X146236284Y-62231377D01*
X146235154Y-62230000D01*
X146236284Y-62228623D01*
X146341676Y-62031447D01*
X146406577Y-61817499D01*
X146428491Y-61595000D01*
X146406577Y-61372501D01*
X146341676Y-61158553D01*
X146236284Y-60961377D01*
X146235154Y-60960000D01*
X146236284Y-60958623D01*
X146341676Y-60761447D01*
X146406577Y-60547499D01*
X146428491Y-60325000D01*
X146406577Y-60102501D01*
X146341676Y-59888553D01*
X146236284Y-59691377D01*
X146235154Y-59690000D01*
X146236284Y-59688623D01*
X146341676Y-59491447D01*
X146406577Y-59277499D01*
X146428491Y-59055000D01*
X146406577Y-58832501D01*
X146341676Y-58618553D01*
X146236284Y-58421377D01*
X146235154Y-58420000D01*
X146236284Y-58418623D01*
X146341676Y-58221447D01*
X146406577Y-58007499D01*
X146428491Y-57785000D01*
X146406577Y-57562501D01*
X146341676Y-57348553D01*
X146236284Y-57151377D01*
X146235154Y-57150000D01*
X146236284Y-57148623D01*
X146341676Y-56951447D01*
X146406577Y-56737499D01*
X146428491Y-56515000D01*
X146406577Y-56292501D01*
X146341676Y-56078553D01*
X146236284Y-55881377D01*
X146235154Y-55880000D01*
X146236284Y-55878623D01*
X146341676Y-55681447D01*
X146406577Y-55467499D01*
X146428491Y-55245000D01*
X146406577Y-55022501D01*
X146341676Y-54808553D01*
X146236284Y-54611377D01*
X146235154Y-54610000D01*
X146236284Y-54608623D01*
X146341676Y-54411447D01*
X146406577Y-54197499D01*
X146428491Y-53975000D01*
X146406577Y-53752501D01*
X146341676Y-53538553D01*
X146236284Y-53341377D01*
X146094449Y-53168551D01*
X145921623Y-53026716D01*
X145724447Y-52921324D01*
X145510499Y-52856423D01*
X145343752Y-52840000D01*
X145232248Y-52840000D01*
X145228200Y-52840399D01*
X145216803Y-52829002D01*
X145193001Y-52799999D01*
X145077276Y-52705026D01*
X144945247Y-52634454D01*
X144801986Y-52590997D01*
X144690333Y-52580000D01*
X144690322Y-52580000D01*
X144653000Y-52576324D01*
X144615678Y-52580000D01*
X104719322Y-52580000D01*
X104681999Y-52576324D01*
X104644676Y-52580000D01*
X104644667Y-52580000D01*
X104533014Y-52590997D01*
X104389753Y-52634454D01*
X104257724Y-52705026D01*
X104257722Y-52705027D01*
X104257723Y-52705027D01*
X104170996Y-52776201D01*
X104170992Y-52776205D01*
X104141999Y-52799999D01*
X104118205Y-52828992D01*
X103345563Y-53601635D01*
X103262494Y-53533463D01*
X103152180Y-53474498D01*
X103032482Y-53438188D01*
X102908000Y-53425928D01*
X101308000Y-53425928D01*
X101183518Y-53438188D01*
X101063820Y-53474498D01*
X100953506Y-53533463D01*
X100870437Y-53601636D01*
X99589804Y-52321003D01*
X99566001Y-52291999D01*
X99450276Y-52197026D01*
X99318247Y-52126454D01*
X99174986Y-52082997D01*
X99063333Y-52072000D01*
X99063322Y-52072000D01*
X99026000Y-52068324D01*
X98988678Y-52072000D01*
X93509322Y-52072000D01*
X93471999Y-52068324D01*
X93434676Y-52072000D01*
X93434667Y-52072000D01*
X93323014Y-52082997D01*
X93179753Y-52126454D01*
X93047724Y-52197026D01*
X93047722Y-52197027D01*
X93047723Y-52197027D01*
X92960996Y-52268201D01*
X92960992Y-52268205D01*
X92931999Y-52291999D01*
X92908205Y-52320992D01*
X91908198Y-53321000D01*
X91846061Y-53321000D01*
X91646102Y-53360774D01*
X91457744Y-53438795D01*
X91288226Y-53552063D01*
X91144063Y-53696226D01*
X91030795Y-53865744D01*
X90952774Y-54054102D01*
X90913000Y-54254061D01*
X90913000Y-54457939D01*
X90952774Y-54657898D01*
X91030795Y-54846256D01*
X91144063Y-55015774D01*
X91288226Y-55159937D01*
X91391588Y-55229001D01*
X89336324Y-55229001D01*
X89322072Y-55227597D01*
X89322072Y-54064000D01*
X89309812Y-53939518D01*
X89273502Y-53819820D01*
X89214537Y-53709506D01*
X89135185Y-53612815D01*
X89038494Y-53533463D01*
X88928180Y-53474498D01*
X88808482Y-53438188D01*
X88684000Y-53425928D01*
X87084000Y-53425928D01*
X86959518Y-53438188D01*
X86839820Y-53474498D01*
X86729506Y-53533463D01*
X86632815Y-53612815D01*
X86553463Y-53709506D01*
X86494498Y-53819820D01*
X86458188Y-53939518D01*
X86445928Y-54064000D01*
X86445928Y-54209674D01*
X86409724Y-54229026D01*
X86293999Y-54323999D01*
X86270196Y-54353003D01*
X85849003Y-54774196D01*
X85819999Y-54797999D01*
X85780396Y-54846256D01*
X85725026Y-54913724D01*
X85663166Y-55029455D01*
X85654454Y-55045754D01*
X85610997Y-55189015D01*
X85600000Y-55300668D01*
X85600000Y-55300678D01*
X85596324Y-55338000D01*
X85600000Y-55375323D01*
X85600001Y-62446657D01*
X85596323Y-62484000D01*
X85600000Y-62521333D01*
X85600001Y-72956288D01*
X85556063Y-73000226D01*
X85442795Y-73169744D01*
X85364774Y-73358102D01*
X85325000Y-73558061D01*
X85325000Y-73761939D01*
X85364774Y-73961898D01*
X85442795Y-74150256D01*
X85556063Y-74319774D01*
X85700226Y-74463937D01*
X85869744Y-74577205D01*
X86058102Y-74655226D01*
X86258061Y-74695000D01*
X86461939Y-74695000D01*
X86661898Y-74655226D01*
X86850256Y-74577205D01*
X87019774Y-74463937D01*
X87163937Y-74319774D01*
X87277205Y-74150256D01*
X87355226Y-73961898D01*
X87395000Y-73761939D01*
X87395000Y-73558061D01*
X87355226Y-73358102D01*
X87277205Y-73169744D01*
X87163937Y-73000226D01*
X87120000Y-72956289D01*
X87120000Y-71322763D01*
X87332192Y-71436182D01*
X87602691Y-71518236D01*
X87813508Y-71539000D01*
X87954492Y-71539000D01*
X88165309Y-71518236D01*
X88435808Y-71436182D01*
X88685101Y-71302932D01*
X88903608Y-71123608D01*
X89082932Y-70905101D01*
X89216182Y-70655808D01*
X89298236Y-70385309D01*
X89325943Y-70104000D01*
X89298236Y-69822691D01*
X89216182Y-69552192D01*
X89082932Y-69302899D01*
X88903608Y-69084392D01*
X88685101Y-68905068D01*
X88552142Y-68834000D01*
X88685101Y-68762932D01*
X88903608Y-68583608D01*
X89082932Y-68365101D01*
X89216182Y-68115808D01*
X89298236Y-67845309D01*
X89325943Y-67564000D01*
X89315903Y-67462061D01*
X89389000Y-67462061D01*
X89389000Y-67665939D01*
X89428774Y-67865898D01*
X89506795Y-68054256D01*
X89620063Y-68223774D01*
X89664000Y-68267711D01*
X89664001Y-72098658D01*
X89664000Y-72098668D01*
X89664000Y-72448289D01*
X89620063Y-72492226D01*
X89506795Y-72661744D01*
X89428774Y-72850102D01*
X89389000Y-73050061D01*
X89389000Y-73253939D01*
X89428774Y-73453898D01*
X89506795Y-73642256D01*
X89620063Y-73811774D01*
X89764226Y-73955937D01*
X89933744Y-74069205D01*
X90122102Y-74147226D01*
X90322061Y-74187000D01*
X90525939Y-74187000D01*
X90725898Y-74147226D01*
X90914256Y-74069205D01*
X91083774Y-73955937D01*
X91227937Y-73811774D01*
X91341205Y-73642256D01*
X91419226Y-73453898D01*
X91459000Y-73253939D01*
X91459000Y-73050061D01*
X91419226Y-72850102D01*
X91341205Y-72661744D01*
X91227937Y-72492226D01*
X91184000Y-72448289D01*
X91184000Y-68267711D01*
X91227937Y-68223774D01*
X91341205Y-68054256D01*
X91419226Y-67865898D01*
X91459000Y-67665939D01*
X91459000Y-67462061D01*
X91419226Y-67262102D01*
X91341205Y-67073744D01*
X91227937Y-66904226D01*
X91083774Y-66760063D01*
X90914256Y-66646795D01*
X90725898Y-66568774D01*
X90525939Y-66529000D01*
X90322061Y-66529000D01*
X90122102Y-66568774D01*
X89933744Y-66646795D01*
X89764226Y-66760063D01*
X89620063Y-66904226D01*
X89506795Y-67073744D01*
X89428774Y-67262102D01*
X89389000Y-67462061D01*
X89315903Y-67462061D01*
X89298236Y-67282691D01*
X89216182Y-67012192D01*
X89082932Y-66762899D01*
X88903608Y-66544392D01*
X88685101Y-66365068D01*
X88552142Y-66294000D01*
X88685101Y-66222932D01*
X88903608Y-66043608D01*
X89082932Y-65825101D01*
X89216182Y-65575808D01*
X89298236Y-65305309D01*
X89325943Y-65024000D01*
X89298236Y-64742691D01*
X89284708Y-64698094D01*
X92459003Y-61523799D01*
X92488001Y-61500001D01*
X92546353Y-61428899D01*
X92582974Y-61384277D01*
X92653546Y-61252247D01*
X92684010Y-61151818D01*
X92697003Y-61108986D01*
X92708000Y-60997333D01*
X92708000Y-60997323D01*
X92711676Y-60960000D01*
X92708000Y-60922677D01*
X92708000Y-59123711D01*
X92751937Y-59079774D01*
X92865205Y-58910256D01*
X92943226Y-58721898D01*
X92983000Y-58521939D01*
X92983000Y-58318061D01*
X92943226Y-58118102D01*
X92865205Y-57929744D01*
X92751937Y-57760226D01*
X92607774Y-57616063D01*
X92438256Y-57502795D01*
X92249898Y-57424774D01*
X92049939Y-57385000D01*
X91846061Y-57385000D01*
X91646102Y-57424774D01*
X91457744Y-57502795D01*
X91288226Y-57616063D01*
X91144063Y-57760226D01*
X91030795Y-57929744D01*
X90952774Y-58118102D01*
X90913000Y-58318061D01*
X90913000Y-58521939D01*
X90952774Y-58721898D01*
X91030795Y-58910256D01*
X91144063Y-59079774D01*
X91188000Y-59123711D01*
X91188001Y-60645197D01*
X89323402Y-62509796D01*
X89325943Y-62484000D01*
X89298236Y-62202691D01*
X89216182Y-61932192D01*
X89082932Y-61682899D01*
X88903608Y-61464392D01*
X88685101Y-61285068D01*
X88552142Y-61214000D01*
X88685101Y-61142932D01*
X88903608Y-60963608D01*
X89082932Y-60745101D01*
X89216182Y-60495808D01*
X89298236Y-60225309D01*
X89325943Y-59944000D01*
X89298236Y-59662691D01*
X89216182Y-59392192D01*
X89082932Y-59142899D01*
X88903608Y-58924392D01*
X88685101Y-58745068D01*
X88552142Y-58674000D01*
X88685101Y-58602932D01*
X88903608Y-58423608D01*
X89082932Y-58205101D01*
X89216182Y-57955808D01*
X89298236Y-57685309D01*
X89325943Y-57404000D01*
X89298236Y-57122691D01*
X89284708Y-57078094D01*
X89613801Y-56749001D01*
X94226975Y-56749001D01*
X94171818Y-56852192D01*
X94089764Y-57122691D01*
X94062057Y-57404000D01*
X94089764Y-57685309D01*
X94171818Y-57955808D01*
X94305068Y-58205101D01*
X94484392Y-58423608D01*
X94702899Y-58602932D01*
X94835858Y-58674000D01*
X94702899Y-58745068D01*
X94484392Y-58924392D01*
X94305068Y-59142899D01*
X94171818Y-59392192D01*
X94089764Y-59662691D01*
X94062057Y-59944000D01*
X94089764Y-60225309D01*
X94171818Y-60495808D01*
X94305068Y-60745101D01*
X94484392Y-60963608D01*
X94702899Y-61142932D01*
X94835858Y-61214000D01*
X94702899Y-61285068D01*
X94484392Y-61464392D01*
X94305068Y-61682899D01*
X94171818Y-61932192D01*
X94089764Y-62202691D01*
X94062057Y-62484000D01*
X94089764Y-62765309D01*
X94171818Y-63035808D01*
X94305068Y-63285101D01*
X94484392Y-63503608D01*
X94702899Y-63682932D01*
X94835858Y-63754000D01*
X94702899Y-63825068D01*
X94484392Y-64004392D01*
X94305068Y-64222899D01*
X94171818Y-64472192D01*
X94089764Y-64742691D01*
X94062057Y-65024000D01*
X94089764Y-65305309D01*
X94171818Y-65575808D01*
X94305068Y-65825101D01*
X94484392Y-66043608D01*
X94702899Y-66222932D01*
X94835858Y-66294000D01*
X94702899Y-66365068D01*
X94484392Y-66544392D01*
X94305068Y-66762899D01*
X94171818Y-67012192D01*
X94089764Y-67282691D01*
X94062057Y-67564000D01*
X94089764Y-67845309D01*
X94171818Y-68115808D01*
X94305068Y-68365101D01*
X94484392Y-68583608D01*
X94702899Y-68762932D01*
X94835858Y-68834000D01*
X94702899Y-68905068D01*
X94484392Y-69084392D01*
X94305068Y-69302899D01*
X94171818Y-69552192D01*
X94089764Y-69822691D01*
X94062057Y-70104000D01*
X94089764Y-70385309D01*
X94171818Y-70655808D01*
X94305068Y-70905101D01*
X94484392Y-71123608D01*
X94702899Y-71302932D01*
X94952192Y-71436182D01*
X95222691Y-71518236D01*
X95433508Y-71539000D01*
X95574492Y-71539000D01*
X95785309Y-71518236D01*
X96055808Y-71436182D01*
X96305101Y-71302932D01*
X96523608Y-71123608D01*
X96702932Y-70905101D01*
X96836182Y-70655808D01*
X96918236Y-70385309D01*
X96945943Y-70104000D01*
X96918236Y-69822691D01*
X96836182Y-69552192D01*
X96702932Y-69302899D01*
X96523608Y-69084392D01*
X96305101Y-68905068D01*
X96172142Y-68834000D01*
X96305101Y-68762932D01*
X96523608Y-68583608D01*
X96702932Y-68365101D01*
X96836182Y-68115808D01*
X96918236Y-67845309D01*
X96945943Y-67564000D01*
X96918236Y-67282691D01*
X96836182Y-67012192D01*
X96702932Y-66762899D01*
X96523608Y-66544392D01*
X96305101Y-66365068D01*
X96172142Y-66294000D01*
X96305101Y-66222932D01*
X96523608Y-66043608D01*
X96702932Y-65825101D01*
X96836182Y-65575808D01*
X96918236Y-65305309D01*
X96945943Y-65024000D01*
X96918236Y-64742691D01*
X96836182Y-64472192D01*
X96702932Y-64222899D01*
X96523608Y-64004392D01*
X96305101Y-63825068D01*
X96172142Y-63754000D01*
X96305101Y-63682932D01*
X96523608Y-63503608D01*
X96702932Y-63285101D01*
X96836182Y-63035808D01*
X96918236Y-62765309D01*
X96945943Y-62484000D01*
X96918236Y-62202691D01*
X96836182Y-61932192D01*
X96702932Y-61682899D01*
X96523608Y-61464392D01*
X96305101Y-61285068D01*
X96172142Y-61214000D01*
X96305101Y-61142932D01*
X96523608Y-60963608D01*
X96702932Y-60745101D01*
X96836182Y-60495808D01*
X96918236Y-60225309D01*
X96945943Y-59944000D01*
X96918236Y-59662691D01*
X96836182Y-59392192D01*
X96702932Y-59142899D01*
X96523608Y-58924392D01*
X96305101Y-58745068D01*
X96172142Y-58674000D01*
X96305101Y-58602932D01*
X96523608Y-58423608D01*
X96702932Y-58205101D01*
X96836182Y-57955808D01*
X96918236Y-57685309D01*
X96945943Y-57404000D01*
X96918236Y-57122691D01*
X96836182Y-56852192D01*
X96781025Y-56749001D01*
X100378200Y-56749001D01*
X100707292Y-57078094D01*
X100693764Y-57122691D01*
X100666057Y-57404000D01*
X100693764Y-57685309D01*
X100775818Y-57955808D01*
X100909068Y-58205101D01*
X101088392Y-58423608D01*
X101306899Y-58602932D01*
X101439858Y-58674000D01*
X101306899Y-58745068D01*
X101088392Y-58924392D01*
X100909068Y-59142899D01*
X100775818Y-59392192D01*
X100693764Y-59662691D01*
X100666057Y-59944000D01*
X100693764Y-60225309D01*
X100775818Y-60495808D01*
X100909068Y-60745101D01*
X101088392Y-60963608D01*
X101306899Y-61142932D01*
X101439858Y-61214000D01*
X101306899Y-61285068D01*
X101088392Y-61464392D01*
X100909068Y-61682899D01*
X100775818Y-61932192D01*
X100693764Y-62202691D01*
X100666057Y-62484000D01*
X100693764Y-62765309D01*
X100775818Y-63035808D01*
X100909068Y-63285101D01*
X101088392Y-63503608D01*
X101306899Y-63682932D01*
X101439858Y-63754000D01*
X101306899Y-63825068D01*
X101088392Y-64004392D01*
X100909068Y-64222899D01*
X100775818Y-64472192D01*
X100693764Y-64742691D01*
X100666057Y-65024000D01*
X100693764Y-65305309D01*
X100775818Y-65575808D01*
X100909068Y-65825101D01*
X101088392Y-66043608D01*
X101306899Y-66222932D01*
X101439858Y-66294000D01*
X101306899Y-66365068D01*
X101088392Y-66544392D01*
X100909068Y-66762899D01*
X100775818Y-67012192D01*
X100693764Y-67282691D01*
X100666057Y-67564000D01*
X100693764Y-67845309D01*
X100775818Y-68115808D01*
X100909068Y-68365101D01*
X101088392Y-68583608D01*
X101306899Y-68762932D01*
X101439858Y-68834000D01*
X101306899Y-68905068D01*
X101088392Y-69084392D01*
X100909068Y-69302899D01*
X100775818Y-69552192D01*
X100693764Y-69822691D01*
X100666057Y-70104000D01*
X100693764Y-70385309D01*
X100775818Y-70655808D01*
X100909068Y-70905101D01*
X101088392Y-71123608D01*
X101306899Y-71302932D01*
X101556192Y-71436182D01*
X101826691Y-71518236D01*
X102037508Y-71539000D01*
X102138198Y-71539000D01*
X98745199Y-74932000D01*
X89095711Y-74932000D01*
X89051774Y-74888063D01*
X88882256Y-74774795D01*
X88693898Y-74696774D01*
X88493939Y-74657000D01*
X88290061Y-74657000D01*
X88090102Y-74696774D01*
X87901744Y-74774795D01*
X87732226Y-74888063D01*
X87688289Y-74932000D01*
X83857322Y-74932000D01*
X83819999Y-74928324D01*
X83782676Y-74932000D01*
X83782667Y-74932000D01*
X83671014Y-74942997D01*
X83527753Y-74986454D01*
X83395724Y-75057026D01*
X83395722Y-75057027D01*
X83395723Y-75057027D01*
X83308996Y-75128201D01*
X83308992Y-75128205D01*
X83279999Y-75151999D01*
X83256205Y-75180992D01*
X80834205Y-77602994D01*
X80834205Y-65092552D01*
X80858630Y-65116977D01*
X80974903Y-65000704D01*
X81046486Y-65244671D01*
X81301996Y-65365571D01*
X81576184Y-65434300D01*
X81858512Y-65448217D01*
X82138130Y-65406787D01*
X82404292Y-65311603D01*
X82529514Y-65244671D01*
X82601097Y-65000702D01*
X81788000Y-64187605D01*
X81773858Y-64201748D01*
X81594253Y-64022143D01*
X81608395Y-64008000D01*
X81967605Y-64008000D01*
X82780702Y-64821097D01*
X83024671Y-64749514D01*
X83145571Y-64494004D01*
X83214300Y-64219816D01*
X83228217Y-63937488D01*
X83186787Y-63657870D01*
X83091603Y-63391708D01*
X83024671Y-63266486D01*
X82780702Y-63194903D01*
X81967605Y-64008000D01*
X81608395Y-64008000D01*
X81594253Y-63993858D01*
X81773858Y-63814253D01*
X81788000Y-63828395D01*
X82601097Y-63015298D01*
X82529514Y-62771329D01*
X82274004Y-62650429D01*
X81999816Y-62581700D01*
X81717488Y-62567783D01*
X81437870Y-62609213D01*
X81171708Y-62704397D01*
X81046486Y-62771329D01*
X80974903Y-63015296D01*
X80858630Y-62899023D01*
X80834205Y-62923448D01*
X80834205Y-58416596D01*
X81464114Y-57786688D01*
X81646665Y-57823000D01*
X81929335Y-57823000D01*
X82206574Y-57767853D01*
X82467727Y-57659680D01*
X82702759Y-57502637D01*
X82902637Y-57302759D01*
X83059680Y-57067727D01*
X83167853Y-56806574D01*
X83223000Y-56529335D01*
X83223000Y-56246665D01*
X83167853Y-55969426D01*
X83059680Y-55708273D01*
X82902637Y-55473241D01*
X82702759Y-55273363D01*
X82467727Y-55116320D01*
X82206574Y-55008147D01*
X81929335Y-54953000D01*
X81646665Y-54953000D01*
X81369426Y-55008147D01*
X81108273Y-55116320D01*
X80873241Y-55273363D01*
X80673363Y-55473241D01*
X80516320Y-55708273D01*
X80408147Y-55969426D01*
X80353000Y-56246665D01*
X80353000Y-56529335D01*
X80389312Y-56711886D01*
X79563208Y-57537991D01*
X79534204Y-57561794D01*
X79489667Y-57616063D01*
X79439231Y-57677519D01*
X79384454Y-57779999D01*
X79368659Y-57809549D01*
X79325202Y-57952810D01*
X79314205Y-58064463D01*
X79314205Y-58064473D01*
X79310529Y-58101795D01*
X79314205Y-58139117D01*
X79314206Y-90196872D01*
X79310529Y-90234205D01*
X79314206Y-90271538D01*
X79325203Y-90383191D01*
X79336671Y-90420997D01*
X79368659Y-90526451D01*
X79439231Y-90658481D01*
X79500178Y-90732744D01*
X79534205Y-90774206D01*
X79563203Y-90798004D01*
X81149292Y-92384095D01*
X81135764Y-92428691D01*
X81108057Y-92710000D01*
X81135764Y-92991309D01*
X81217818Y-93261808D01*
X81351068Y-93511101D01*
X81530392Y-93729608D01*
X81748899Y-93908932D01*
X81881858Y-93980000D01*
X81748899Y-94051068D01*
X81530392Y-94230392D01*
X81351068Y-94448899D01*
X81217818Y-94698192D01*
X81135764Y-94968691D01*
X81108057Y-95250000D01*
X81135764Y-95531309D01*
X81217818Y-95801808D01*
X81351068Y-96051101D01*
X81530392Y-96269608D01*
X81748899Y-96448932D01*
X81881858Y-96520000D01*
X81748899Y-96591068D01*
X81530392Y-96770392D01*
X81351068Y-96988899D01*
X81217818Y-97238192D01*
X81135764Y-97508691D01*
X81108057Y-97790000D01*
X81135764Y-98071309D01*
X81217818Y-98341808D01*
X81351068Y-98591101D01*
X81530392Y-98809608D01*
X81748899Y-98988932D01*
X81881858Y-99060000D01*
X81748899Y-99131068D01*
X81530392Y-99310392D01*
X81351068Y-99528899D01*
X81217818Y-99778192D01*
X81135764Y-100048691D01*
X81108057Y-100330000D01*
X81135764Y-100611309D01*
X81217818Y-100881808D01*
X81351068Y-101131101D01*
X81530392Y-101349608D01*
X81748899Y-101528932D01*
X81881858Y-101600000D01*
X81748899Y-101671068D01*
X81530392Y-101850392D01*
X81351068Y-102068899D01*
X81217818Y-102318192D01*
X81135764Y-102588691D01*
X81108057Y-102870000D01*
X81110598Y-102895796D01*
X73912000Y-95697199D01*
X73912000Y-77298569D01*
X73958449Y-77260449D01*
X74005374Y-77203271D01*
X74008092Y-77203003D01*
X74151353Y-77159546D01*
X74283382Y-77088974D01*
X74399107Y-76994001D01*
X74422910Y-76964997D01*
X77219003Y-74168905D01*
X77248001Y-74145107D01*
X77342974Y-74029382D01*
X77413546Y-73897353D01*
X77457003Y-73754092D01*
X77468000Y-73642439D01*
X77471677Y-73605106D01*
X77468000Y-73567773D01*
X77468000Y-58965322D01*
X77471676Y-58927999D01*
X77468000Y-58890676D01*
X77468000Y-58890667D01*
X77457003Y-58779014D01*
X77413546Y-58635753D01*
X77342974Y-58503724D01*
X77274263Y-58419999D01*
X77271799Y-58416996D01*
X77271795Y-58416992D01*
X77248001Y-58387999D01*
X77219009Y-58364206D01*
X75566688Y-56711886D01*
X75603000Y-56529335D01*
X75603000Y-56246665D01*
X75547853Y-55969426D01*
X75439680Y-55708273D01*
X75282637Y-55473241D01*
X75082759Y-55273363D01*
X74847727Y-55116320D01*
X74586574Y-55008147D01*
X74309335Y-54953000D01*
X74026665Y-54953000D01*
X73749426Y-55008147D01*
X73488273Y-55116320D01*
X73253241Y-55273363D01*
X73053363Y-55473241D01*
X72896320Y-55708273D01*
X72788147Y-55969426D01*
X72733000Y-56246665D01*
X72733000Y-56529335D01*
X72788147Y-56806574D01*
X72896320Y-57067727D01*
X73053363Y-57302759D01*
X73253241Y-57502637D01*
X73488273Y-57659680D01*
X73749426Y-57767853D01*
X74026665Y-57823000D01*
X74309335Y-57823000D01*
X74491886Y-57786688D01*
X75948000Y-59242803D01*
X75948001Y-73290303D01*
X74181307Y-75056998D01*
X74128252Y-75056998D01*
X74287000Y-74898250D01*
X74290072Y-74684000D01*
X74277812Y-74559518D01*
X74241502Y-74439820D01*
X74182537Y-74329506D01*
X74103185Y-74232815D01*
X74006494Y-74153463D01*
X73896180Y-74094498D01*
X73776482Y-74058188D01*
X73652000Y-74045928D01*
X73437750Y-74049000D01*
X73279000Y-74207750D01*
X73279000Y-75057000D01*
X73299000Y-75057000D01*
X73299000Y-75311000D01*
X73279000Y-75311000D01*
X73279000Y-75326017D01*
X73207752Y-75319000D01*
X73096248Y-75319000D01*
X73025000Y-75326017D01*
X73025000Y-75311000D01*
X72175750Y-75311000D01*
X72017000Y-75469750D01*
X72013928Y-75684000D01*
X72026188Y-75808482D01*
X72062498Y-75928180D01*
X72104297Y-76006379D01*
X72098324Y-76017553D01*
X72033423Y-76231501D01*
X72011509Y-76454000D01*
X72033423Y-76676499D01*
X72098324Y-76890447D01*
X72203716Y-77087623D01*
X72345551Y-77260449D01*
X72392000Y-77298569D01*
X72392001Y-95974667D01*
X72388324Y-96012000D01*
X72392001Y-96049333D01*
X72402998Y-96160986D01*
X72414312Y-96198284D01*
X72446454Y-96304246D01*
X72517026Y-96436276D01*
X72570296Y-96501185D01*
X72612000Y-96552001D01*
X72640998Y-96575799D01*
X80715198Y-104650000D01*
X80555325Y-104650000D01*
X80518000Y-104646324D01*
X80480675Y-104650000D01*
X80480667Y-104650000D01*
X80369014Y-104660997D01*
X80225753Y-104704454D01*
X80093724Y-104775026D01*
X79977999Y-104869999D01*
X79954201Y-104898997D01*
X77031887Y-107821312D01*
X76849335Y-107785000D01*
X76566665Y-107785000D01*
X76289426Y-107840147D01*
X76028273Y-107948320D01*
X75793241Y-108105363D01*
X75593363Y-108305241D01*
X75436320Y-108540273D01*
X75328147Y-108801426D01*
X75273000Y-109078665D01*
X75273000Y-109361335D01*
X75309312Y-109543886D01*
X74673002Y-110180197D01*
X74643999Y-110203999D01*
X74603175Y-110253744D01*
X74549026Y-110319724D01*
X74483613Y-110442102D01*
X74478454Y-110451754D01*
X74434997Y-110595015D01*
X74424000Y-110706668D01*
X74424000Y-110706678D01*
X74420324Y-110744000D01*
X74424000Y-110781322D01*
X74424001Y-118834667D01*
X74420324Y-118872000D01*
X74424001Y-118909333D01*
X74434998Y-119020986D01*
X74445619Y-119056000D01*
X74478454Y-119164246D01*
X74549026Y-119296276D01*
X74617737Y-119380000D01*
X74644000Y-119412001D01*
X74672998Y-119435799D01*
X75309312Y-120072114D01*
X75273000Y-120254665D01*
X75273000Y-120537335D01*
X75309312Y-120719886D01*
X73656998Y-122372201D01*
X73628000Y-122395999D01*
X73604202Y-122424997D01*
X73604201Y-122424998D01*
X73533026Y-122511724D01*
X73462454Y-122643754D01*
X73446910Y-122694998D01*
X73420960Y-122780548D01*
X73418998Y-122787015D01*
X73404324Y-122936000D01*
X73408001Y-122973332D01*
X73408000Y-127978677D01*
X73404324Y-128016000D01*
X73408000Y-128053322D01*
X73408000Y-128053332D01*
X73418997Y-128164985D01*
X73459136Y-128297309D01*
X73462454Y-128308246D01*
X73533026Y-128440276D01*
X73572871Y-128488826D01*
X73627999Y-128556001D01*
X73657002Y-128579803D01*
X75128205Y-130051008D01*
X75151999Y-130080001D01*
X75180992Y-130103795D01*
X75180996Y-130103799D01*
X75237219Y-130149939D01*
X75267724Y-130174974D01*
X75399753Y-130245546D01*
X75543014Y-130289003D01*
X75654667Y-130300000D01*
X75654676Y-130300000D01*
X75691999Y-130303676D01*
X75729322Y-130300000D01*
X107658678Y-130300000D01*
X107696000Y-130303676D01*
X107733322Y-130300000D01*
X107733333Y-130300000D01*
X107844986Y-130289003D01*
X107988247Y-130245546D01*
X108120276Y-130174974D01*
X108236001Y-130080001D01*
X108259804Y-130050997D01*
X111001003Y-127309799D01*
X111030001Y-127286001D01*
X111124974Y-127170276D01*
X111195546Y-127038247D01*
X111239003Y-126894986D01*
X111240469Y-126880100D01*
X111265091Y-126896552D01*
X111453449Y-126974573D01*
X111653408Y-127014347D01*
X111715546Y-127014347D01*
X115105198Y-130404000D01*
X70256000Y-130404000D01*
X70256000Y-74684000D01*
X72013928Y-74684000D01*
X72017000Y-74898250D01*
X72175750Y-75057000D01*
X73025000Y-75057000D01*
X73025000Y-74207750D01*
X72866250Y-74049000D01*
X72652000Y-74045928D01*
X72527518Y-74058188D01*
X72407820Y-74094498D01*
X72297506Y-74153463D01*
X72200815Y-74232815D01*
X72121463Y-74329506D01*
X72062498Y-74439820D01*
X72026188Y-74559518D01*
X72013928Y-74684000D01*
X70256000Y-74684000D01*
X70256000Y-63208000D01*
X72729928Y-63208000D01*
X72729928Y-64808000D01*
X72742188Y-64932482D01*
X72778498Y-65052180D01*
X72837463Y-65162494D01*
X72916815Y-65259185D01*
X73013506Y-65338537D01*
X73123820Y-65397502D01*
X73243518Y-65433812D01*
X73368000Y-65446072D01*
X74968000Y-65446072D01*
X75092482Y-65433812D01*
X75212180Y-65397502D01*
X75322494Y-65338537D01*
X75419185Y-65259185D01*
X75498537Y-65162494D01*
X75557502Y-65052180D01*
X75593812Y-64932482D01*
X75606072Y-64808000D01*
X75606072Y-63208000D01*
X75593812Y-63083518D01*
X75557502Y-62963820D01*
X75498537Y-62853506D01*
X75419185Y-62756815D01*
X75322494Y-62677463D01*
X75212180Y-62618498D01*
X75092482Y-62582188D01*
X74968000Y-62569928D01*
X73368000Y-62569928D01*
X73243518Y-62582188D01*
X73123820Y-62618498D01*
X73013506Y-62677463D01*
X72916815Y-62756815D01*
X72837463Y-62853506D01*
X72778498Y-62963820D01*
X72742188Y-63083518D01*
X72729928Y-63208000D01*
X70256000Y-63208000D01*
X70256000Y-51968000D01*
X150216000Y-51968000D01*
X150216001Y-130404000D01*
G36*
X133287818Y-127718192D02*
G01*
X133205764Y-127988691D01*
X133178057Y-128270000D01*
X133205764Y-128551309D01*
X133287818Y-128821808D01*
X133421068Y-129071101D01*
X133599072Y-129288000D01*
X120383324Y-129288000D01*
X120443519Y-129233414D01*
X120611037Y-129007420D01*
X120731246Y-128753087D01*
X120771904Y-128619039D01*
X120649915Y-128397000D01*
X119507000Y-128397000D01*
X119507000Y-128417000D01*
X119253000Y-128417000D01*
X119253000Y-128397000D01*
X119233000Y-128397000D01*
X119233000Y-128143000D01*
X119253000Y-128143000D01*
X119253000Y-128123000D01*
X119507000Y-128123000D01*
X119507000Y-128143000D01*
X120649915Y-128143000D01*
X120771904Y-127920961D01*
X120731246Y-127786913D01*
X120649993Y-127615001D01*
X133342975Y-127615001D01*
X133287818Y-127718192D01*
X133287818Y-127718192D01*
G37*
X133287818Y-127718192D02*
X133205764Y-127988691D01*
X133178057Y-128270000D01*
X133205764Y-128551309D01*
X133287818Y-128821808D01*
X133421068Y-129071101D01*
X133599072Y-129288000D01*
X120383324Y-129288000D01*
X120443519Y-129233414D01*
X120611037Y-129007420D01*
X120731246Y-128753087D01*
X120771904Y-128619039D01*
X120649915Y-128397000D01*
X119507000Y-128397000D01*
X119507000Y-128417000D01*
X119253000Y-128417000D01*
X119253000Y-128397000D01*
X119233000Y-128397000D01*
X119233000Y-128143000D01*
X119253000Y-128143000D01*
X119253000Y-128123000D01*
X119507000Y-128123000D01*
X119507000Y-128143000D01*
X120649915Y-128143000D01*
X120771904Y-127920961D01*
X120731246Y-127786913D01*
X120649993Y-127615001D01*
X133342975Y-127615001D01*
X133287818Y-127718192D01*
G36*
X144169423Y-95472499D02*
G01*
X144234324Y-95686447D01*
X144339716Y-95883623D01*
X144340846Y-95885000D01*
X144339716Y-95886377D01*
X144234324Y-96083553D01*
X144169423Y-96297501D01*
X144147509Y-96520000D01*
X144169423Y-96742499D01*
X144234324Y-96956447D01*
X144339716Y-97153623D01*
X144481551Y-97326449D01*
X144528000Y-97364569D01*
X144528001Y-98514667D01*
X144524324Y-98552000D01*
X144528001Y-98589333D01*
X144538998Y-98700986D01*
X144545456Y-98722275D01*
X144582454Y-98844246D01*
X144653026Y-98976276D01*
X144704104Y-99038514D01*
X144748000Y-99092001D01*
X144776998Y-99115799D01*
X148084000Y-102422803D01*
X148084001Y-107381197D01*
X145735199Y-109730000D01*
X135840901Y-109730000D01*
X135818932Y-109688899D01*
X135639608Y-109470392D01*
X135421101Y-109291068D01*
X135288142Y-109220000D01*
X135421101Y-109148932D01*
X135639608Y-108969608D01*
X135818932Y-108751101D01*
X135952182Y-108501808D01*
X136034236Y-108231309D01*
X136061943Y-107950000D01*
X136034236Y-107668691D01*
X135952182Y-107398192D01*
X135818932Y-107148899D01*
X135639608Y-106930392D01*
X135421101Y-106751068D01*
X135288142Y-106680000D01*
X135421101Y-106608932D01*
X135639608Y-106429608D01*
X135818932Y-106211101D01*
X135952182Y-105961808D01*
X136034236Y-105691309D01*
X136061943Y-105410000D01*
X136047053Y-105258816D01*
X141848000Y-105258816D01*
X141848000Y-105561184D01*
X141906989Y-105857743D01*
X142022701Y-106137095D01*
X142190688Y-106388505D01*
X142404495Y-106602312D01*
X142655905Y-106770299D01*
X142935257Y-106886011D01*
X143231816Y-106945000D01*
X143534184Y-106945000D01*
X143830743Y-106886011D01*
X144110095Y-106770299D01*
X144361505Y-106602312D01*
X144427944Y-106535873D01*
X144433498Y-106554180D01*
X144492463Y-106664494D01*
X144571815Y-106761185D01*
X144668506Y-106840537D01*
X144778820Y-106899502D01*
X144898518Y-106935812D01*
X145023000Y-106948072D01*
X145637250Y-106945000D01*
X145796000Y-106786250D01*
X145796000Y-105537000D01*
X146050000Y-105537000D01*
X146050000Y-106786250D01*
X146208750Y-106945000D01*
X146823000Y-106948072D01*
X146947482Y-106935812D01*
X147067180Y-106899502D01*
X147177494Y-106840537D01*
X147274185Y-106761185D01*
X147353537Y-106664494D01*
X147412502Y-106554180D01*
X147448812Y-106434482D01*
X147461072Y-106310000D01*
X147458000Y-105695750D01*
X147299250Y-105537000D01*
X146050000Y-105537000D01*
X145796000Y-105537000D01*
X145776000Y-105537000D01*
X145776000Y-105283000D01*
X145796000Y-105283000D01*
X145796000Y-104033750D01*
X146050000Y-104033750D01*
X146050000Y-105283000D01*
X147299250Y-105283000D01*
X147458000Y-105124250D01*
X147461072Y-104510000D01*
X147448812Y-104385518D01*
X147412502Y-104265820D01*
X147353537Y-104155506D01*
X147274185Y-104058815D01*
X147177494Y-103979463D01*
X147067180Y-103920498D01*
X146947482Y-103884188D01*
X146823000Y-103871928D01*
X146208750Y-103875000D01*
X146050000Y-104033750D01*
X145796000Y-104033750D01*
X145637250Y-103875000D01*
X145023000Y-103871928D01*
X144898518Y-103884188D01*
X144778820Y-103920498D01*
X144668506Y-103979463D01*
X144571815Y-104058815D01*
X144492463Y-104155506D01*
X144433498Y-104265820D01*
X144427944Y-104284127D01*
X144361505Y-104217688D01*
X144110095Y-104049701D01*
X143830743Y-103933989D01*
X143534184Y-103875000D01*
X143231816Y-103875000D01*
X142935257Y-103933989D01*
X142655905Y-104049701D01*
X142404495Y-104217688D01*
X142190688Y-104431495D01*
X142022701Y-104682905D01*
X141906989Y-104962257D01*
X141848000Y-105258816D01*
X136047053Y-105258816D01*
X136034236Y-105128691D01*
X135952182Y-104858192D01*
X135818932Y-104608899D01*
X135639608Y-104390392D01*
X135421101Y-104211068D01*
X135288142Y-104140000D01*
X135421101Y-104068932D01*
X135639608Y-103889608D01*
X135818932Y-103671101D01*
X135840901Y-103630000D01*
X139916678Y-103630000D01*
X139954000Y-103633676D01*
X139991322Y-103630000D01*
X139991333Y-103630000D01*
X140102986Y-103619003D01*
X140246247Y-103575546D01*
X140378276Y-103504974D01*
X140494001Y-103410001D01*
X140517804Y-103380997D01*
X143295802Y-100603000D01*
X143357939Y-100603000D01*
X143557898Y-100563226D01*
X143746256Y-100485205D01*
X143915774Y-100371937D01*
X144059937Y-100227774D01*
X144173205Y-100058256D01*
X144251226Y-99869898D01*
X144291000Y-99669939D01*
X144291000Y-99466061D01*
X144251226Y-99266102D01*
X144173205Y-99077744D01*
X144059937Y-98908226D01*
X143915774Y-98764063D01*
X143779241Y-98672835D01*
X143783000Y-98653939D01*
X143783000Y-98450061D01*
X143743226Y-98250102D01*
X143665205Y-98061744D01*
X143551937Y-97892226D01*
X143407774Y-97748063D01*
X143238256Y-97634795D01*
X143049898Y-97556774D01*
X142849939Y-97517000D01*
X142646061Y-97517000D01*
X142446102Y-97556774D01*
X142257744Y-97634795D01*
X142088226Y-97748063D01*
X141944063Y-97892226D01*
X141830795Y-98061744D01*
X141752774Y-98250102D01*
X141713000Y-98450061D01*
X141713000Y-98512197D01*
X139893199Y-100332000D01*
X137646711Y-100332000D01*
X137602774Y-100288063D01*
X137433256Y-100174795D01*
X137244898Y-100096774D01*
X137044939Y-100057000D01*
X136841061Y-100057000D01*
X136641102Y-100096774D01*
X136452744Y-100174795D01*
X136283226Y-100288063D01*
X136139063Y-100432226D01*
X136036800Y-100585273D01*
X136061943Y-100330000D01*
X136034236Y-100048691D01*
X135964864Y-99820000D01*
X139420678Y-99820000D01*
X139458000Y-99823676D01*
X139495322Y-99820000D01*
X139495333Y-99820000D01*
X139606986Y-99809003D01*
X139750247Y-99765546D01*
X139882276Y-99694974D01*
X139998001Y-99600001D01*
X140021804Y-99570997D01*
X144165019Y-95427783D01*
X144169423Y-95472499D01*
X144169423Y-95472499D01*
G37*
X144169423Y-95472499D02*
X144234324Y-95686447D01*
X144339716Y-95883623D01*
X144340846Y-95885000D01*
X144339716Y-95886377D01*
X144234324Y-96083553D01*
X144169423Y-96297501D01*
X144147509Y-96520000D01*
X144169423Y-96742499D01*
X144234324Y-96956447D01*
X144339716Y-97153623D01*
X144481551Y-97326449D01*
X144528000Y-97364569D01*
X144528001Y-98514667D01*
X144524324Y-98552000D01*
X144528001Y-98589333D01*
X144538998Y-98700986D01*
X144545456Y-98722275D01*
X144582454Y-98844246D01*
X144653026Y-98976276D01*
X144704104Y-99038514D01*
X144748000Y-99092001D01*
X144776998Y-99115799D01*
X148084000Y-102422803D01*
X148084001Y-107381197D01*
X145735199Y-109730000D01*
X135840901Y-109730000D01*
X135818932Y-109688899D01*
X135639608Y-109470392D01*
X135421101Y-109291068D01*
X135288142Y-109220000D01*
X135421101Y-109148932D01*
X135639608Y-108969608D01*
X135818932Y-108751101D01*
X135952182Y-108501808D01*
X136034236Y-108231309D01*
X136061943Y-107950000D01*
X136034236Y-107668691D01*
X135952182Y-107398192D01*
X135818932Y-107148899D01*
X135639608Y-106930392D01*
X135421101Y-106751068D01*
X135288142Y-106680000D01*
X135421101Y-106608932D01*
X135639608Y-106429608D01*
X135818932Y-106211101D01*
X135952182Y-105961808D01*
X136034236Y-105691309D01*
X136061943Y-105410000D01*
X136047053Y-105258816D01*
X141848000Y-105258816D01*
X141848000Y-105561184D01*
X141906989Y-105857743D01*
X142022701Y-106137095D01*
X142190688Y-106388505D01*
X142404495Y-106602312D01*
X142655905Y-106770299D01*
X142935257Y-106886011D01*
X143231816Y-106945000D01*
X143534184Y-106945000D01*
X143830743Y-106886011D01*
X144110095Y-106770299D01*
X144361505Y-106602312D01*
X144427944Y-106535873D01*
X144433498Y-106554180D01*
X144492463Y-106664494D01*
X144571815Y-106761185D01*
X144668506Y-106840537D01*
X144778820Y-106899502D01*
X144898518Y-106935812D01*
X145023000Y-106948072D01*
X145637250Y-106945000D01*
X145796000Y-106786250D01*
X145796000Y-105537000D01*
X146050000Y-105537000D01*
X146050000Y-106786250D01*
X146208750Y-106945000D01*
X146823000Y-106948072D01*
X146947482Y-106935812D01*
X147067180Y-106899502D01*
X147177494Y-106840537D01*
X147274185Y-106761185D01*
X147353537Y-106664494D01*
X147412502Y-106554180D01*
X147448812Y-106434482D01*
X147461072Y-106310000D01*
X147458000Y-105695750D01*
X147299250Y-105537000D01*
X146050000Y-105537000D01*
X145796000Y-105537000D01*
X145776000Y-105537000D01*
X145776000Y-105283000D01*
X145796000Y-105283000D01*
X145796000Y-104033750D01*
X146050000Y-104033750D01*
X146050000Y-105283000D01*
X147299250Y-105283000D01*
X147458000Y-105124250D01*
X147461072Y-104510000D01*
X147448812Y-104385518D01*
X147412502Y-104265820D01*
X147353537Y-104155506D01*
X147274185Y-104058815D01*
X147177494Y-103979463D01*
X147067180Y-103920498D01*
X146947482Y-103884188D01*
X146823000Y-103871928D01*
X146208750Y-103875000D01*
X146050000Y-104033750D01*
X145796000Y-104033750D01*
X145637250Y-103875000D01*
X145023000Y-103871928D01*
X144898518Y-103884188D01*
X144778820Y-103920498D01*
X144668506Y-103979463D01*
X144571815Y-104058815D01*
X144492463Y-104155506D01*
X144433498Y-104265820D01*
X144427944Y-104284127D01*
X144361505Y-104217688D01*
X144110095Y-104049701D01*
X143830743Y-103933989D01*
X143534184Y-103875000D01*
X143231816Y-103875000D01*
X142935257Y-103933989D01*
X142655905Y-104049701D01*
X142404495Y-104217688D01*
X142190688Y-104431495D01*
X142022701Y-104682905D01*
X141906989Y-104962257D01*
X141848000Y-105258816D01*
X136047053Y-105258816D01*
X136034236Y-105128691D01*
X135952182Y-104858192D01*
X135818932Y-104608899D01*
X135639608Y-104390392D01*
X135421101Y-104211068D01*
X135288142Y-104140000D01*
X135421101Y-104068932D01*
X135639608Y-103889608D01*
X135818932Y-103671101D01*
X135840901Y-103630000D01*
X139916678Y-103630000D01*
X139954000Y-103633676D01*
X139991322Y-103630000D01*
X139991333Y-103630000D01*
X140102986Y-103619003D01*
X140246247Y-103575546D01*
X140378276Y-103504974D01*
X140494001Y-103410001D01*
X140517804Y-103380997D01*
X143295802Y-100603000D01*
X143357939Y-100603000D01*
X143557898Y-100563226D01*
X143746256Y-100485205D01*
X143915774Y-100371937D01*
X144059937Y-100227774D01*
X144173205Y-100058256D01*
X144251226Y-99869898D01*
X144291000Y-99669939D01*
X144291000Y-99466061D01*
X144251226Y-99266102D01*
X144173205Y-99077744D01*
X144059937Y-98908226D01*
X143915774Y-98764063D01*
X143779241Y-98672835D01*
X143783000Y-98653939D01*
X143783000Y-98450061D01*
X143743226Y-98250102D01*
X143665205Y-98061744D01*
X143551937Y-97892226D01*
X143407774Y-97748063D01*
X143238256Y-97634795D01*
X143049898Y-97556774D01*
X142849939Y-97517000D01*
X142646061Y-97517000D01*
X142446102Y-97556774D01*
X142257744Y-97634795D01*
X142088226Y-97748063D01*
X141944063Y-97892226D01*
X141830795Y-98061744D01*
X141752774Y-98250102D01*
X141713000Y-98450061D01*
X141713000Y-98512197D01*
X139893199Y-100332000D01*
X137646711Y-100332000D01*
X137602774Y-100288063D01*
X137433256Y-100174795D01*
X137244898Y-100096774D01*
X137044939Y-100057000D01*
X136841061Y-100057000D01*
X136641102Y-100096774D01*
X136452744Y-100174795D01*
X136283226Y-100288063D01*
X136139063Y-100432226D01*
X136036800Y-100585273D01*
X136061943Y-100330000D01*
X136034236Y-100048691D01*
X135964864Y-99820000D01*
X139420678Y-99820000D01*
X139458000Y-99823676D01*
X139495322Y-99820000D01*
X139495333Y-99820000D01*
X139606986Y-99809003D01*
X139750247Y-99765546D01*
X139882276Y-99694974D01*
X139998001Y-99600001D01*
X140021804Y-99570997D01*
X144165019Y-95427783D01*
X144169423Y-95472499D01*
G36*
X93271206Y-107046009D02*
G01*
X93295000Y-107075002D01*
X93323993Y-107098796D01*
X93323997Y-107098800D01*
X93330670Y-107104276D01*
X93410725Y-107169975D01*
X93542754Y-107240547D01*
X93686015Y-107284004D01*
X93797668Y-107295001D01*
X93797677Y-107295001D01*
X93835000Y-107298677D01*
X93872323Y-107295001D01*
X96520007Y-107295001D01*
X96438754Y-107466913D01*
X96398096Y-107600961D01*
X96520085Y-107823000D01*
X97663000Y-107823000D01*
X97663000Y-107803000D01*
X97917000Y-107803000D01*
X97917000Y-107823000D01*
X99059915Y-107823000D01*
X99181904Y-107600961D01*
X99141246Y-107466913D01*
X99059993Y-107295001D01*
X108773823Y-107295001D01*
X108732774Y-107394102D01*
X108693000Y-107594061D01*
X108693000Y-107797939D01*
X108732774Y-107997898D01*
X108810795Y-108186256D01*
X108924063Y-108355774D01*
X109068226Y-108499937D01*
X109225463Y-108604999D01*
X99059993Y-108604999D01*
X99141246Y-108433087D01*
X99181904Y-108299039D01*
X99059915Y-108077000D01*
X97917000Y-108077000D01*
X97917000Y-108097000D01*
X97663000Y-108097000D01*
X97663000Y-108077000D01*
X96520085Y-108077000D01*
X96398096Y-108299039D01*
X96438754Y-108433087D01*
X96520007Y-108604999D01*
X91332323Y-108604999D01*
X91295000Y-108601323D01*
X91257677Y-108604999D01*
X91257668Y-108604999D01*
X91146015Y-108615996D01*
X91002754Y-108659453D01*
X90870725Y-108730025D01*
X90854686Y-108743188D01*
X90783997Y-108801200D01*
X90783993Y-108801204D01*
X90755000Y-108824998D01*
X90731206Y-108853991D01*
X90384198Y-109201000D01*
X90322061Y-109201000D01*
X90122102Y-109240774D01*
X89933744Y-109318795D01*
X89868763Y-109362214D01*
X89817205Y-109237744D01*
X89703937Y-109068226D01*
X89559774Y-108924063D01*
X89390256Y-108810795D01*
X89201898Y-108732774D01*
X89001939Y-108693000D01*
X88939802Y-108693000D01*
X83807789Y-103560988D01*
X83882182Y-103421808D01*
X83964236Y-103151309D01*
X83991943Y-102870000D01*
X83989402Y-102844204D01*
X86013201Y-104868003D01*
X86037000Y-104897002D01*
X86065998Y-104920800D01*
X86152724Y-104991975D01*
X86223409Y-105029757D01*
X86284754Y-105062547D01*
X86428015Y-105106004D01*
X86539668Y-105117001D01*
X86539678Y-105117001D01*
X86577001Y-105120677D01*
X86614323Y-105117001D01*
X87278200Y-105117001D01*
X88881000Y-106719802D01*
X88881000Y-106781939D01*
X88920774Y-106981898D01*
X88998795Y-107170256D01*
X89112063Y-107339774D01*
X89256226Y-107483937D01*
X89425744Y-107597205D01*
X89614102Y-107675226D01*
X89814061Y-107715000D01*
X90017939Y-107715000D01*
X90217898Y-107675226D01*
X90406256Y-107597205D01*
X90575774Y-107483937D01*
X90719937Y-107339774D01*
X90833205Y-107170256D01*
X90911226Y-106981898D01*
X90951000Y-106781939D01*
X90951000Y-106578061D01*
X90911226Y-106378102D01*
X90833205Y-106189744D01*
X90719937Y-106020226D01*
X90575774Y-105876063D01*
X90406256Y-105762795D01*
X90217898Y-105684774D01*
X90017939Y-105645000D01*
X89955802Y-105645000D01*
X88645256Y-104334455D01*
X88687937Y-104291774D01*
X88801205Y-104122256D01*
X88879226Y-103933898D01*
X88919000Y-103733939D01*
X88919000Y-103530061D01*
X88879226Y-103330102D01*
X88801205Y-103141744D01*
X88687937Y-102972226D01*
X88543774Y-102828063D01*
X88374256Y-102714795D01*
X88185898Y-102636774D01*
X87985939Y-102597000D01*
X87923802Y-102597000D01*
X83807789Y-98480988D01*
X83882182Y-98341808D01*
X83964236Y-98071309D01*
X83991943Y-97790000D01*
X83989402Y-97764204D01*
X93271206Y-107046009D01*
X93271206Y-107046009D01*
G37*
X93271206Y-107046009D02*
X93295000Y-107075002D01*
X93323993Y-107098796D01*
X93323997Y-107098800D01*
X93330670Y-107104276D01*
X93410725Y-107169975D01*
X93542754Y-107240547D01*
X93686015Y-107284004D01*
X93797668Y-107295001D01*
X93797677Y-107295001D01*
X93835000Y-107298677D01*
X93872323Y-107295001D01*
X96520007Y-107295001D01*
X96438754Y-107466913D01*
X96398096Y-107600961D01*
X96520085Y-107823000D01*
X97663000Y-107823000D01*
X97663000Y-107803000D01*
X97917000Y-107803000D01*
X97917000Y-107823000D01*
X99059915Y-107823000D01*
X99181904Y-107600961D01*
X99141246Y-107466913D01*
X99059993Y-107295001D01*
X108773823Y-107295001D01*
X108732774Y-107394102D01*
X108693000Y-107594061D01*
X108693000Y-107797939D01*
X108732774Y-107997898D01*
X108810795Y-108186256D01*
X108924063Y-108355774D01*
X109068226Y-108499937D01*
X109225463Y-108604999D01*
X99059993Y-108604999D01*
X99141246Y-108433087D01*
X99181904Y-108299039D01*
X99059915Y-108077000D01*
X97917000Y-108077000D01*
X97917000Y-108097000D01*
X97663000Y-108097000D01*
X97663000Y-108077000D01*
X96520085Y-108077000D01*
X96398096Y-108299039D01*
X96438754Y-108433087D01*
X96520007Y-108604999D01*
X91332323Y-108604999D01*
X91295000Y-108601323D01*
X91257677Y-108604999D01*
X91257668Y-108604999D01*
X91146015Y-108615996D01*
X91002754Y-108659453D01*
X90870725Y-108730025D01*
X90854686Y-108743188D01*
X90783997Y-108801200D01*
X90783993Y-108801204D01*
X90755000Y-108824998D01*
X90731206Y-108853991D01*
X90384198Y-109201000D01*
X90322061Y-109201000D01*
X90122102Y-109240774D01*
X89933744Y-109318795D01*
X89868763Y-109362214D01*
X89817205Y-109237744D01*
X89703937Y-109068226D01*
X89559774Y-108924063D01*
X89390256Y-108810795D01*
X89201898Y-108732774D01*
X89001939Y-108693000D01*
X88939802Y-108693000D01*
X83807789Y-103560988D01*
X83882182Y-103421808D01*
X83964236Y-103151309D01*
X83991943Y-102870000D01*
X83989402Y-102844204D01*
X86013201Y-104868003D01*
X86037000Y-104897002D01*
X86065998Y-104920800D01*
X86152724Y-104991975D01*
X86223409Y-105029757D01*
X86284754Y-105062547D01*
X86428015Y-105106004D01*
X86539668Y-105117001D01*
X86539678Y-105117001D01*
X86577001Y-105120677D01*
X86614323Y-105117001D01*
X87278200Y-105117001D01*
X88881000Y-106719802D01*
X88881000Y-106781939D01*
X88920774Y-106981898D01*
X88998795Y-107170256D01*
X89112063Y-107339774D01*
X89256226Y-107483937D01*
X89425744Y-107597205D01*
X89614102Y-107675226D01*
X89814061Y-107715000D01*
X90017939Y-107715000D01*
X90217898Y-107675226D01*
X90406256Y-107597205D01*
X90575774Y-107483937D01*
X90719937Y-107339774D01*
X90833205Y-107170256D01*
X90911226Y-106981898D01*
X90951000Y-106781939D01*
X90951000Y-106578061D01*
X90911226Y-106378102D01*
X90833205Y-106189744D01*
X90719937Y-106020226D01*
X90575774Y-105876063D01*
X90406256Y-105762795D01*
X90217898Y-105684774D01*
X90017939Y-105645000D01*
X89955802Y-105645000D01*
X88645256Y-104334455D01*
X88687937Y-104291774D01*
X88801205Y-104122256D01*
X88879226Y-103933898D01*
X88919000Y-103733939D01*
X88919000Y-103530061D01*
X88879226Y-103330102D01*
X88801205Y-103141744D01*
X88687937Y-102972226D01*
X88543774Y-102828063D01*
X88374256Y-102714795D01*
X88185898Y-102636774D01*
X87985939Y-102597000D01*
X87923802Y-102597000D01*
X83807789Y-98480988D01*
X83882182Y-98341808D01*
X83964236Y-98071309D01*
X83991943Y-97790000D01*
X83989402Y-97764204D01*
X93271206Y-107046009D01*
G36*
X100871251Y-77508247D02*
G01*
X100850998Y-77575014D01*
X100848830Y-77597026D01*
X100836324Y-77724000D01*
X100840001Y-77761332D01*
X100840000Y-83116289D01*
X100796063Y-83160226D01*
X100682795Y-83329744D01*
X100604774Y-83518102D01*
X100565000Y-83718061D01*
X100565000Y-83780198D01*
X99229402Y-85115796D01*
X99231943Y-85090000D01*
X99204236Y-84808691D01*
X99122182Y-84538192D01*
X98988932Y-84288899D01*
X98809608Y-84070392D01*
X98591101Y-83891068D01*
X98458142Y-83820000D01*
X98591101Y-83748932D01*
X98809608Y-83569608D01*
X98988932Y-83351101D01*
X99122182Y-83101808D01*
X99204236Y-82831309D01*
X99231943Y-82550000D01*
X99204236Y-82268691D01*
X99122182Y-81998192D01*
X98988932Y-81748899D01*
X98809608Y-81530392D01*
X98591101Y-81351068D01*
X98458142Y-81280000D01*
X98591101Y-81208932D01*
X98809608Y-81029608D01*
X98988932Y-80811101D01*
X99122182Y-80561808D01*
X99204236Y-80291309D01*
X99231943Y-80010000D01*
X99204236Y-79728691D01*
X99122182Y-79458192D01*
X98988932Y-79208899D01*
X98809608Y-78990392D01*
X98591101Y-78811068D01*
X98341808Y-78677818D01*
X98071309Y-78595764D01*
X97860492Y-78575000D01*
X97719508Y-78575000D01*
X97508691Y-78595764D01*
X97238192Y-78677818D01*
X96988899Y-78811068D01*
X96770392Y-78990392D01*
X96591068Y-79208899D01*
X96457818Y-79458192D01*
X96375764Y-79728691D01*
X96348057Y-80010000D01*
X96375764Y-80291309D01*
X96457818Y-80561808D01*
X96591068Y-80811101D01*
X96770392Y-81029608D01*
X96988899Y-81208932D01*
X97121858Y-81280000D01*
X96988899Y-81351068D01*
X96770392Y-81530392D01*
X96591068Y-81748899D01*
X96457818Y-81998192D01*
X96375764Y-82268691D01*
X96348057Y-82550000D01*
X96375764Y-82831309D01*
X96457818Y-83101808D01*
X96591068Y-83351101D01*
X96770392Y-83569608D01*
X96988899Y-83748932D01*
X97121858Y-83820000D01*
X96988899Y-83891068D01*
X96770392Y-84070392D01*
X96591068Y-84288899D01*
X96457818Y-84538192D01*
X96375764Y-84808691D01*
X96348057Y-85090000D01*
X96375764Y-85371309D01*
X96457818Y-85641808D01*
X96591068Y-85891101D01*
X96770392Y-86109608D01*
X96988899Y-86288932D01*
X97121858Y-86360000D01*
X96988899Y-86431068D01*
X96770392Y-86610392D01*
X96591068Y-86828899D01*
X96457818Y-87078192D01*
X96375764Y-87348691D01*
X96348057Y-87630000D01*
X96375764Y-87911309D01*
X96457818Y-88181808D01*
X96591068Y-88431101D01*
X96770392Y-88649608D01*
X96988899Y-88828932D01*
X97121858Y-88900000D01*
X96988899Y-88971068D01*
X96770392Y-89150392D01*
X96591068Y-89368899D01*
X96457818Y-89618192D01*
X96375764Y-89888691D01*
X96348057Y-90170000D01*
X96375764Y-90451309D01*
X96457818Y-90721808D01*
X96591068Y-90971101D01*
X96770392Y-91189608D01*
X96988899Y-91368932D01*
X97121858Y-91440000D01*
X96988899Y-91511068D01*
X96770392Y-91690392D01*
X96591068Y-91908899D01*
X96457818Y-92158192D01*
X96375764Y-92428691D01*
X96348057Y-92710000D01*
X96375764Y-92991309D01*
X96457818Y-93261808D01*
X96591068Y-93511101D01*
X96770392Y-93729608D01*
X96988899Y-93908932D01*
X97121858Y-93980000D01*
X96988899Y-94051068D01*
X96770392Y-94230392D01*
X96591068Y-94448899D01*
X96457818Y-94698192D01*
X96375764Y-94968691D01*
X96348057Y-95250000D01*
X96375764Y-95531309D01*
X96457818Y-95801808D01*
X96591068Y-96051101D01*
X96770392Y-96269608D01*
X96988899Y-96448932D01*
X97121858Y-96520000D01*
X96988899Y-96591068D01*
X96770392Y-96770392D01*
X96591068Y-96988899D01*
X96569099Y-97030000D01*
X94779325Y-97030000D01*
X94742000Y-97026324D01*
X94704675Y-97030000D01*
X94704667Y-97030000D01*
X94593014Y-97040997D01*
X94449753Y-97084454D01*
X94317724Y-97155026D01*
X94201999Y-97249999D01*
X94178201Y-97278998D01*
X93468998Y-97988201D01*
X93440000Y-98011999D01*
X93416202Y-98040997D01*
X93416201Y-98040998D01*
X93345026Y-98127724D01*
X93274454Y-98259754D01*
X93230998Y-98403015D01*
X93216324Y-98552000D01*
X93220001Y-98589332D01*
X93220000Y-100546677D01*
X93216324Y-100584000D01*
X93220000Y-100621322D01*
X93220000Y-100621332D01*
X93230997Y-100732985D01*
X93263763Y-100841002D01*
X93274454Y-100876246D01*
X93345026Y-101008276D01*
X93367980Y-101036245D01*
X93439999Y-101124001D01*
X93469002Y-101147804D01*
X93961000Y-101639802D01*
X93961000Y-101701939D01*
X94000774Y-101901898D01*
X94078795Y-102090256D01*
X94192063Y-102259774D01*
X94336226Y-102403937D01*
X94505744Y-102517205D01*
X94694102Y-102595226D01*
X94894061Y-102635000D01*
X95097939Y-102635000D01*
X95297898Y-102595226D01*
X95486256Y-102517205D01*
X95655774Y-102403937D01*
X95799937Y-102259774D01*
X95913205Y-102090256D01*
X95991226Y-101901898D01*
X96031000Y-101701939D01*
X96031000Y-101498061D01*
X95991226Y-101298102D01*
X95913205Y-101109744D01*
X95799937Y-100940226D01*
X95655774Y-100796063D01*
X95486256Y-100682795D01*
X95297898Y-100604774D01*
X95097939Y-100565000D01*
X95035802Y-100565000D01*
X94740000Y-100269199D01*
X94740000Y-98866801D01*
X95056802Y-98550000D01*
X96569099Y-98550000D01*
X96591068Y-98591101D01*
X96770392Y-98809608D01*
X96988899Y-98988932D01*
X97121858Y-99060000D01*
X96988899Y-99131068D01*
X96770392Y-99310392D01*
X96591068Y-99528899D01*
X96457818Y-99778192D01*
X96375764Y-100048691D01*
X96348057Y-100330000D01*
X96375764Y-100611309D01*
X96457818Y-100881808D01*
X96591068Y-101131101D01*
X96770392Y-101349608D01*
X96988899Y-101528932D01*
X97121858Y-101600000D01*
X96988899Y-101671068D01*
X96770392Y-101850392D01*
X96591068Y-102068899D01*
X96457818Y-102318192D01*
X96375764Y-102588691D01*
X96348057Y-102870000D01*
X96375764Y-103151309D01*
X96457818Y-103421808D01*
X96591068Y-103671101D01*
X96770392Y-103889608D01*
X96988899Y-104068932D01*
X97121858Y-104140000D01*
X96988899Y-104211068D01*
X96770392Y-104390392D01*
X96591068Y-104608899D01*
X96457818Y-104858192D01*
X96375764Y-105128691D01*
X96348057Y-105410000D01*
X96375764Y-105691309D01*
X96401151Y-105775001D01*
X94149804Y-105775001D01*
X93238025Y-104863222D01*
X93323014Y-104889003D01*
X93434667Y-104900000D01*
X93434677Y-104900000D01*
X93472000Y-104903676D01*
X93509323Y-104900000D01*
X94292289Y-104900000D01*
X94336226Y-104943937D01*
X94505744Y-105057205D01*
X94694102Y-105135226D01*
X94894061Y-105175000D01*
X95097939Y-105175000D01*
X95297898Y-105135226D01*
X95486256Y-105057205D01*
X95655774Y-104943937D01*
X95799937Y-104799774D01*
X95913205Y-104630256D01*
X95991226Y-104441898D01*
X96031000Y-104241939D01*
X96031000Y-104038061D01*
X95991226Y-103838102D01*
X95913205Y-103649744D01*
X95799937Y-103480226D01*
X95655774Y-103336063D01*
X95486256Y-103222795D01*
X95297898Y-103144774D01*
X95097939Y-103105000D01*
X94894061Y-103105000D01*
X94694102Y-103144774D01*
X94505744Y-103222795D01*
X94336226Y-103336063D01*
X94292289Y-103380000D01*
X93786802Y-103380000D01*
X91459000Y-101052199D01*
X91459000Y-100990061D01*
X91419226Y-100790102D01*
X91341205Y-100601744D01*
X91227937Y-100432226D01*
X91083774Y-100288063D01*
X90914256Y-100174795D01*
X90725898Y-100096774D01*
X90525939Y-100057000D01*
X90322061Y-100057000D01*
X90122102Y-100096774D01*
X89933744Y-100174795D01*
X89764226Y-100288063D01*
X89620063Y-100432226D01*
X89506795Y-100601744D01*
X89428774Y-100790102D01*
X89389000Y-100990061D01*
X89389000Y-101014198D01*
X83950708Y-95575907D01*
X83964236Y-95531309D01*
X83991943Y-95250000D01*
X83964236Y-94968691D01*
X83882182Y-94698192D01*
X83748932Y-94448899D01*
X83569608Y-94230392D01*
X83351101Y-94051068D01*
X83218142Y-93980000D01*
X83351101Y-93908932D01*
X83569608Y-93729608D01*
X83748932Y-93511101D01*
X83882182Y-93261808D01*
X83964236Y-92991309D01*
X83991943Y-92710000D01*
X83964236Y-92428691D01*
X83882182Y-92158192D01*
X83748932Y-91908899D01*
X83569608Y-91690392D01*
X83351101Y-91511068D01*
X83218142Y-91440000D01*
X83351101Y-91368932D01*
X83569608Y-91189608D01*
X83748932Y-90971101D01*
X83882182Y-90721808D01*
X83964236Y-90451309D01*
X83991943Y-90170000D01*
X83964236Y-89888691D01*
X83882182Y-89618192D01*
X83748932Y-89368899D01*
X83569608Y-89150392D01*
X83351101Y-88971068D01*
X83218142Y-88900000D01*
X83351101Y-88828932D01*
X83569608Y-88649608D01*
X83748932Y-88431101D01*
X83882182Y-88181808D01*
X83964236Y-87911309D01*
X83991943Y-87630000D01*
X83964236Y-87348691D01*
X83882182Y-87078192D01*
X83748932Y-86828899D01*
X83569608Y-86610392D01*
X83351101Y-86431068D01*
X83218142Y-86360000D01*
X83351101Y-86288932D01*
X83569608Y-86109608D01*
X83748932Y-85891101D01*
X83882182Y-85641808D01*
X83964236Y-85371309D01*
X83991943Y-85090000D01*
X83964236Y-84808691D01*
X83882182Y-84538192D01*
X83748932Y-84288899D01*
X83569608Y-84070392D01*
X83351101Y-83891068D01*
X83218142Y-83820000D01*
X83351101Y-83748932D01*
X83569608Y-83569608D01*
X83748932Y-83351101D01*
X83882182Y-83101808D01*
X83964236Y-82831309D01*
X83991943Y-82550000D01*
X83964236Y-82268691D01*
X83950708Y-82224094D01*
X88198802Y-77976000D01*
X92768289Y-77976000D01*
X92812226Y-78019937D01*
X92981744Y-78133205D01*
X93170102Y-78211226D01*
X93370061Y-78251000D01*
X93573939Y-78251000D01*
X93773898Y-78211226D01*
X93962256Y-78133205D01*
X94131774Y-78019937D01*
X94175711Y-77976000D01*
X100038678Y-77976000D01*
X100076000Y-77979676D01*
X100113322Y-77976000D01*
X100113333Y-77976000D01*
X100224986Y-77965003D01*
X100368247Y-77921546D01*
X100500276Y-77850974D01*
X100616001Y-77756001D01*
X100639804Y-77726997D01*
X100876779Y-77490022D01*
X100871251Y-77508247D01*
X100871251Y-77508247D01*
G37*
X100871251Y-77508247D02*
X100850998Y-77575014D01*
X100848830Y-77597026D01*
X100836324Y-77724000D01*
X100840001Y-77761332D01*
X100840000Y-83116289D01*
X100796063Y-83160226D01*
X100682795Y-83329744D01*
X100604774Y-83518102D01*
X100565000Y-83718061D01*
X100565000Y-83780198D01*
X99229402Y-85115796D01*
X99231943Y-85090000D01*
X99204236Y-84808691D01*
X99122182Y-84538192D01*
X98988932Y-84288899D01*
X98809608Y-84070392D01*
X98591101Y-83891068D01*
X98458142Y-83820000D01*
X98591101Y-83748932D01*
X98809608Y-83569608D01*
X98988932Y-83351101D01*
X99122182Y-83101808D01*
X99204236Y-82831309D01*
X99231943Y-82550000D01*
X99204236Y-82268691D01*
X99122182Y-81998192D01*
X98988932Y-81748899D01*
X98809608Y-81530392D01*
X98591101Y-81351068D01*
X98458142Y-81280000D01*
X98591101Y-81208932D01*
X98809608Y-81029608D01*
X98988932Y-80811101D01*
X99122182Y-80561808D01*
X99204236Y-80291309D01*
X99231943Y-80010000D01*
X99204236Y-79728691D01*
X99122182Y-79458192D01*
X98988932Y-79208899D01*
X98809608Y-78990392D01*
X98591101Y-78811068D01*
X98341808Y-78677818D01*
X98071309Y-78595764D01*
X97860492Y-78575000D01*
X97719508Y-78575000D01*
X97508691Y-78595764D01*
X97238192Y-78677818D01*
X96988899Y-78811068D01*
X96770392Y-78990392D01*
X96591068Y-79208899D01*
X96457818Y-79458192D01*
X96375764Y-79728691D01*
X96348057Y-80010000D01*
X96375764Y-80291309D01*
X96457818Y-80561808D01*
X96591068Y-80811101D01*
X96770392Y-81029608D01*
X96988899Y-81208932D01*
X97121858Y-81280000D01*
X96988899Y-81351068D01*
X96770392Y-81530392D01*
X96591068Y-81748899D01*
X96457818Y-81998192D01*
X96375764Y-82268691D01*
X96348057Y-82550000D01*
X96375764Y-82831309D01*
X96457818Y-83101808D01*
X96591068Y-83351101D01*
X96770392Y-83569608D01*
X96988899Y-83748932D01*
X97121858Y-83820000D01*
X96988899Y-83891068D01*
X96770392Y-84070392D01*
X96591068Y-84288899D01*
X96457818Y-84538192D01*
X96375764Y-84808691D01*
X96348057Y-85090000D01*
X96375764Y-85371309D01*
X96457818Y-85641808D01*
X96591068Y-85891101D01*
X96770392Y-86109608D01*
X96988899Y-86288932D01*
X97121858Y-86360000D01*
X96988899Y-86431068D01*
X96770392Y-86610392D01*
X96591068Y-86828899D01*
X96457818Y-87078192D01*
X96375764Y-87348691D01*
X96348057Y-87630000D01*
X96375764Y-87911309D01*
X96457818Y-88181808D01*
X96591068Y-88431101D01*
X96770392Y-88649608D01*
X96988899Y-88828932D01*
X97121858Y-88900000D01*
X96988899Y-88971068D01*
X96770392Y-89150392D01*
X96591068Y-89368899D01*
X96457818Y-89618192D01*
X96375764Y-89888691D01*
X96348057Y-90170000D01*
X96375764Y-90451309D01*
X96457818Y-90721808D01*
X96591068Y-90971101D01*
X96770392Y-91189608D01*
X96988899Y-91368932D01*
X97121858Y-91440000D01*
X96988899Y-91511068D01*
X96770392Y-91690392D01*
X96591068Y-91908899D01*
X96457818Y-92158192D01*
X96375764Y-92428691D01*
X96348057Y-92710000D01*
X96375764Y-92991309D01*
X96457818Y-93261808D01*
X96591068Y-93511101D01*
X96770392Y-93729608D01*
X96988899Y-93908932D01*
X97121858Y-93980000D01*
X96988899Y-94051068D01*
X96770392Y-94230392D01*
X96591068Y-94448899D01*
X96457818Y-94698192D01*
X96375764Y-94968691D01*
X96348057Y-95250000D01*
X96375764Y-95531309D01*
X96457818Y-95801808D01*
X96591068Y-96051101D01*
X96770392Y-96269608D01*
X96988899Y-96448932D01*
X97121858Y-96520000D01*
X96988899Y-96591068D01*
X96770392Y-96770392D01*
X96591068Y-96988899D01*
X96569099Y-97030000D01*
X94779325Y-97030000D01*
X94742000Y-97026324D01*
X94704675Y-97030000D01*
X94704667Y-97030000D01*
X94593014Y-97040997D01*
X94449753Y-97084454D01*
X94317724Y-97155026D01*
X94201999Y-97249999D01*
X94178201Y-97278998D01*
X93468998Y-97988201D01*
X93440000Y-98011999D01*
X93416202Y-98040997D01*
X93416201Y-98040998D01*
X93345026Y-98127724D01*
X93274454Y-98259754D01*
X93230998Y-98403015D01*
X93216324Y-98552000D01*
X93220001Y-98589332D01*
X93220000Y-100546677D01*
X93216324Y-100584000D01*
X93220000Y-100621322D01*
X93220000Y-100621332D01*
X93230997Y-100732985D01*
X93263763Y-100841002D01*
X93274454Y-100876246D01*
X93345026Y-101008276D01*
X93367980Y-101036245D01*
X93439999Y-101124001D01*
X93469002Y-101147804D01*
X93961000Y-101639802D01*
X93961000Y-101701939D01*
X94000774Y-101901898D01*
X94078795Y-102090256D01*
X94192063Y-102259774D01*
X94336226Y-102403937D01*
X94505744Y-102517205D01*
X94694102Y-102595226D01*
X94894061Y-102635000D01*
X95097939Y-102635000D01*
X95297898Y-102595226D01*
X95486256Y-102517205D01*
X95655774Y-102403937D01*
X95799937Y-102259774D01*
X95913205Y-102090256D01*
X95991226Y-101901898D01*
X96031000Y-101701939D01*
X96031000Y-101498061D01*
X95991226Y-101298102D01*
X95913205Y-101109744D01*
X95799937Y-100940226D01*
X95655774Y-100796063D01*
X95486256Y-100682795D01*
X95297898Y-100604774D01*
X95097939Y-100565000D01*
X95035802Y-100565000D01*
X94740000Y-100269199D01*
X94740000Y-98866801D01*
X95056802Y-98550000D01*
X96569099Y-98550000D01*
X96591068Y-98591101D01*
X96770392Y-98809608D01*
X96988899Y-98988932D01*
X97121858Y-99060000D01*
X96988899Y-99131068D01*
X96770392Y-99310392D01*
X96591068Y-99528899D01*
X96457818Y-99778192D01*
X96375764Y-100048691D01*
X96348057Y-100330000D01*
X96375764Y-100611309D01*
X96457818Y-100881808D01*
X96591068Y-101131101D01*
X96770392Y-101349608D01*
X96988899Y-101528932D01*
X97121858Y-101600000D01*
X96988899Y-101671068D01*
X96770392Y-101850392D01*
X96591068Y-102068899D01*
X96457818Y-102318192D01*
X96375764Y-102588691D01*
X96348057Y-102870000D01*
X96375764Y-103151309D01*
X96457818Y-103421808D01*
X96591068Y-103671101D01*
X96770392Y-103889608D01*
X96988899Y-104068932D01*
X97121858Y-104140000D01*
X96988899Y-104211068D01*
X96770392Y-104390392D01*
X96591068Y-104608899D01*
X96457818Y-104858192D01*
X96375764Y-105128691D01*
X96348057Y-105410000D01*
X96375764Y-105691309D01*
X96401151Y-105775001D01*
X94149804Y-105775001D01*
X93238025Y-104863222D01*
X93323014Y-104889003D01*
X93434667Y-104900000D01*
X93434677Y-104900000D01*
X93472000Y-104903676D01*
X93509323Y-104900000D01*
X94292289Y-104900000D01*
X94336226Y-104943937D01*
X94505744Y-105057205D01*
X94694102Y-105135226D01*
X94894061Y-105175000D01*
X95097939Y-105175000D01*
X95297898Y-105135226D01*
X95486256Y-105057205D01*
X95655774Y-104943937D01*
X95799937Y-104799774D01*
X95913205Y-104630256D01*
X95991226Y-104441898D01*
X96031000Y-104241939D01*
X96031000Y-104038061D01*
X95991226Y-103838102D01*
X95913205Y-103649744D01*
X95799937Y-103480226D01*
X95655774Y-103336063D01*
X95486256Y-103222795D01*
X95297898Y-103144774D01*
X95097939Y-103105000D01*
X94894061Y-103105000D01*
X94694102Y-103144774D01*
X94505744Y-103222795D01*
X94336226Y-103336063D01*
X94292289Y-103380000D01*
X93786802Y-103380000D01*
X91459000Y-101052199D01*
X91459000Y-100990061D01*
X91419226Y-100790102D01*
X91341205Y-100601744D01*
X91227937Y-100432226D01*
X91083774Y-100288063D01*
X90914256Y-100174795D01*
X90725898Y-100096774D01*
X90525939Y-100057000D01*
X90322061Y-100057000D01*
X90122102Y-100096774D01*
X89933744Y-100174795D01*
X89764226Y-100288063D01*
X89620063Y-100432226D01*
X89506795Y-100601744D01*
X89428774Y-100790102D01*
X89389000Y-100990061D01*
X89389000Y-101014198D01*
X83950708Y-95575907D01*
X83964236Y-95531309D01*
X83991943Y-95250000D01*
X83964236Y-94968691D01*
X83882182Y-94698192D01*
X83748932Y-94448899D01*
X83569608Y-94230392D01*
X83351101Y-94051068D01*
X83218142Y-93980000D01*
X83351101Y-93908932D01*
X83569608Y-93729608D01*
X83748932Y-93511101D01*
X83882182Y-93261808D01*
X83964236Y-92991309D01*
X83991943Y-92710000D01*
X83964236Y-92428691D01*
X83882182Y-92158192D01*
X83748932Y-91908899D01*
X83569608Y-91690392D01*
X83351101Y-91511068D01*
X83218142Y-91440000D01*
X83351101Y-91368932D01*
X83569608Y-91189608D01*
X83748932Y-90971101D01*
X83882182Y-90721808D01*
X83964236Y-90451309D01*
X83991943Y-90170000D01*
X83964236Y-89888691D01*
X83882182Y-89618192D01*
X83748932Y-89368899D01*
X83569608Y-89150392D01*
X83351101Y-88971068D01*
X83218142Y-88900000D01*
X83351101Y-88828932D01*
X83569608Y-88649608D01*
X83748932Y-88431101D01*
X83882182Y-88181808D01*
X83964236Y-87911309D01*
X83991943Y-87630000D01*
X83964236Y-87348691D01*
X83882182Y-87078192D01*
X83748932Y-86828899D01*
X83569608Y-86610392D01*
X83351101Y-86431068D01*
X83218142Y-86360000D01*
X83351101Y-86288932D01*
X83569608Y-86109608D01*
X83748932Y-85891101D01*
X83882182Y-85641808D01*
X83964236Y-85371309D01*
X83991943Y-85090000D01*
X83964236Y-84808691D01*
X83882182Y-84538192D01*
X83748932Y-84288899D01*
X83569608Y-84070392D01*
X83351101Y-83891068D01*
X83218142Y-83820000D01*
X83351101Y-83748932D01*
X83569608Y-83569608D01*
X83748932Y-83351101D01*
X83882182Y-83101808D01*
X83964236Y-82831309D01*
X83991943Y-82550000D01*
X83964236Y-82268691D01*
X83950708Y-82224094D01*
X88198802Y-77976000D01*
X92768289Y-77976000D01*
X92812226Y-78019937D01*
X92981744Y-78133205D01*
X93170102Y-78211226D01*
X93370061Y-78251000D01*
X93573939Y-78251000D01*
X93773898Y-78211226D01*
X93962256Y-78133205D01*
X94131774Y-78019937D01*
X94175711Y-77976000D01*
X100038678Y-77976000D01*
X100076000Y-77979676D01*
X100113322Y-77976000D01*
X100113333Y-77976000D01*
X100224986Y-77965003D01*
X100368247Y-77921546D01*
X100500276Y-77850974D01*
X100616001Y-77756001D01*
X100639804Y-77726997D01*
X100876779Y-77490022D01*
X100871251Y-77508247D01*
G36*
X117965764Y-77188691D02*
G01*
X117938057Y-77470000D01*
X117965764Y-77751309D01*
X117979292Y-77795906D01*
X111757003Y-84018196D01*
X111727999Y-84041999D01*
X111691070Y-84086998D01*
X111633026Y-84157724D01*
X111571836Y-84272201D01*
X111562454Y-84289754D01*
X111518997Y-84433015D01*
X111508000Y-84544668D01*
X111508000Y-84544678D01*
X111504324Y-84582000D01*
X111508000Y-84619323D01*
X111508001Y-90617197D01*
X100544199Y-101581000D01*
X100482061Y-101581000D01*
X100282102Y-101620774D01*
X100093744Y-101698795D01*
X99924226Y-101812063D01*
X99780063Y-101956226D01*
X99666795Y-102125744D01*
X99588774Y-102314102D01*
X99549000Y-102514061D01*
X99549000Y-102576198D01*
X99229402Y-102895796D01*
X99231943Y-102870000D01*
X99204236Y-102588691D01*
X99190708Y-102544093D01*
X111255008Y-90479795D01*
X111284001Y-90456001D01*
X111307795Y-90427008D01*
X111307799Y-90427004D01*
X111378973Y-90340277D01*
X111379663Y-90338987D01*
X111449546Y-90208247D01*
X111493003Y-90064986D01*
X111504000Y-89953333D01*
X111504000Y-89953324D01*
X111507676Y-89916001D01*
X111504000Y-89878678D01*
X111504000Y-83626801D01*
X117976063Y-77154739D01*
X117965764Y-77188691D01*
X117965764Y-77188691D01*
G37*
X117965764Y-77188691D02*
X117938057Y-77470000D01*
X117965764Y-77751309D01*
X117979292Y-77795906D01*
X111757003Y-84018196D01*
X111727999Y-84041999D01*
X111691070Y-84086998D01*
X111633026Y-84157724D01*
X111571836Y-84272201D01*
X111562454Y-84289754D01*
X111518997Y-84433015D01*
X111508000Y-84544668D01*
X111508000Y-84544678D01*
X111504324Y-84582000D01*
X111508000Y-84619323D01*
X111508001Y-90617197D01*
X100544199Y-101581000D01*
X100482061Y-101581000D01*
X100282102Y-101620774D01*
X100093744Y-101698795D01*
X99924226Y-101812063D01*
X99780063Y-101956226D01*
X99666795Y-102125744D01*
X99588774Y-102314102D01*
X99549000Y-102514061D01*
X99549000Y-102576198D01*
X99229402Y-102895796D01*
X99231943Y-102870000D01*
X99204236Y-102588691D01*
X99190708Y-102544093D01*
X111255008Y-90479795D01*
X111284001Y-90456001D01*
X111307795Y-90427008D01*
X111307799Y-90427004D01*
X111378973Y-90340277D01*
X111379663Y-90338987D01*
X111449546Y-90208247D01*
X111493003Y-90064986D01*
X111504000Y-89953333D01*
X111504000Y-89953324D01*
X111507676Y-89916001D01*
X111504000Y-89878678D01*
X111504000Y-83626801D01*
X117976063Y-77154739D01*
X117965764Y-77188691D01*
G36*
X121359979Y-74313410D02*
G01*
X121260226Y-74380063D01*
X121116063Y-74524226D01*
X121002795Y-74693744D01*
X120924774Y-74882102D01*
X120885000Y-75082061D01*
X120885000Y-75285939D01*
X120924774Y-75485898D01*
X121002795Y-75674256D01*
X121116063Y-75843774D01*
X121160000Y-75887711D01*
X121160001Y-79718658D01*
X121160000Y-79718668D01*
X121160001Y-88708290D01*
X121055774Y-88604063D01*
X120886256Y-88490795D01*
X120697898Y-88412774D01*
X120592900Y-88391889D01*
X120611037Y-88367420D01*
X120731246Y-88113087D01*
X120771904Y-87979039D01*
X120649915Y-87757000D01*
X119507000Y-87757000D01*
X119507000Y-87777000D01*
X119253000Y-87777000D01*
X119253000Y-87757000D01*
X119233000Y-87757000D01*
X119233000Y-87503000D01*
X119253000Y-87503000D01*
X119253000Y-87483000D01*
X119507000Y-87483000D01*
X119507000Y-87503000D01*
X120649915Y-87503000D01*
X120771904Y-87280961D01*
X120731246Y-87146913D01*
X120611037Y-86892580D01*
X120443519Y-86666586D01*
X120235131Y-86477615D01*
X120043318Y-86362579D01*
X120181101Y-86288932D01*
X120399608Y-86109608D01*
X120578932Y-85891101D01*
X120712182Y-85641808D01*
X120794236Y-85371309D01*
X120821943Y-85090000D01*
X120794236Y-84808691D01*
X120712182Y-84538192D01*
X120578932Y-84288899D01*
X120399608Y-84070392D01*
X120181101Y-83891068D01*
X120048142Y-83820000D01*
X120181101Y-83748932D01*
X120399608Y-83569608D01*
X120578932Y-83351101D01*
X120712182Y-83101808D01*
X120794236Y-82831309D01*
X120821943Y-82550000D01*
X120794236Y-82268691D01*
X120712182Y-81998192D01*
X120578932Y-81748899D01*
X120399608Y-81530392D01*
X120181101Y-81351068D01*
X120048142Y-81280000D01*
X120181101Y-81208932D01*
X120399608Y-81029608D01*
X120578932Y-80811101D01*
X120712182Y-80561808D01*
X120794236Y-80291309D01*
X120821943Y-80010000D01*
X120794236Y-79728691D01*
X120712182Y-79458192D01*
X120578932Y-79208899D01*
X120399608Y-78990392D01*
X120181101Y-78811068D01*
X120048142Y-78740000D01*
X120181101Y-78668932D01*
X120399608Y-78489608D01*
X120578932Y-78271101D01*
X120712182Y-78021808D01*
X120794236Y-77751309D01*
X120821943Y-77470000D01*
X120794236Y-77188691D01*
X120712182Y-76918192D01*
X120578932Y-76668899D01*
X120399608Y-76450392D01*
X120181101Y-76271068D01*
X120048142Y-76200000D01*
X120181101Y-76128932D01*
X120399608Y-75949608D01*
X120578932Y-75731101D01*
X120712182Y-75481808D01*
X120794236Y-75211309D01*
X120821943Y-74930000D01*
X120794236Y-74648691D01*
X120712182Y-74378192D01*
X120578932Y-74128899D01*
X120399608Y-73910392D01*
X120181101Y-73731068D01*
X120048142Y-73660000D01*
X120181101Y-73588932D01*
X120399608Y-73409608D01*
X120425107Y-73378538D01*
X121359979Y-74313410D01*
X121359979Y-74313410D01*
G37*
X121359979Y-74313410D02*
X121260226Y-74380063D01*
X121116063Y-74524226D01*
X121002795Y-74693744D01*
X120924774Y-74882102D01*
X120885000Y-75082061D01*
X120885000Y-75285939D01*
X120924774Y-75485898D01*
X121002795Y-75674256D01*
X121116063Y-75843774D01*
X121160000Y-75887711D01*
X121160001Y-79718658D01*
X121160000Y-79718668D01*
X121160001Y-88708290D01*
X121055774Y-88604063D01*
X120886256Y-88490795D01*
X120697898Y-88412774D01*
X120592900Y-88391889D01*
X120611037Y-88367420D01*
X120731246Y-88113087D01*
X120771904Y-87979039D01*
X120649915Y-87757000D01*
X119507000Y-87757000D01*
X119507000Y-87777000D01*
X119253000Y-87777000D01*
X119253000Y-87757000D01*
X119233000Y-87757000D01*
X119233000Y-87503000D01*
X119253000Y-87503000D01*
X119253000Y-87483000D01*
X119507000Y-87483000D01*
X119507000Y-87503000D01*
X120649915Y-87503000D01*
X120771904Y-87280961D01*
X120731246Y-87146913D01*
X120611037Y-86892580D01*
X120443519Y-86666586D01*
X120235131Y-86477615D01*
X120043318Y-86362579D01*
X120181101Y-86288932D01*
X120399608Y-86109608D01*
X120578932Y-85891101D01*
X120712182Y-85641808D01*
X120794236Y-85371309D01*
X120821943Y-85090000D01*
X120794236Y-84808691D01*
X120712182Y-84538192D01*
X120578932Y-84288899D01*
X120399608Y-84070392D01*
X120181101Y-83891068D01*
X120048142Y-83820000D01*
X120181101Y-83748932D01*
X120399608Y-83569608D01*
X120578932Y-83351101D01*
X120712182Y-83101808D01*
X120794236Y-82831309D01*
X120821943Y-82550000D01*
X120794236Y-82268691D01*
X120712182Y-81998192D01*
X120578932Y-81748899D01*
X120399608Y-81530392D01*
X120181101Y-81351068D01*
X120048142Y-81280000D01*
X120181101Y-81208932D01*
X120399608Y-81029608D01*
X120578932Y-80811101D01*
X120712182Y-80561808D01*
X120794236Y-80291309D01*
X120821943Y-80010000D01*
X120794236Y-79728691D01*
X120712182Y-79458192D01*
X120578932Y-79208899D01*
X120399608Y-78990392D01*
X120181101Y-78811068D01*
X120048142Y-78740000D01*
X120181101Y-78668932D01*
X120399608Y-78489608D01*
X120578932Y-78271101D01*
X120712182Y-78021808D01*
X120794236Y-77751309D01*
X120821943Y-77470000D01*
X120794236Y-77188691D01*
X120712182Y-76918192D01*
X120578932Y-76668899D01*
X120399608Y-76450392D01*
X120181101Y-76271068D01*
X120048142Y-76200000D01*
X120181101Y-76128932D01*
X120399608Y-75949608D01*
X120578932Y-75731101D01*
X120712182Y-75481808D01*
X120794236Y-75211309D01*
X120821943Y-74930000D01*
X120794236Y-74648691D01*
X120712182Y-74378192D01*
X120578932Y-74128899D01*
X120399608Y-73910392D01*
X120181101Y-73731068D01*
X120048142Y-73660000D01*
X120181101Y-73588932D01*
X120399608Y-73409608D01*
X120425107Y-73378538D01*
X121359979Y-74313410D01*
M02*
