M48
; DRILL file {KiCad 5.1.4} date Mon 26 Aug 2019 14:36:13 BST
; FORMAT={-:-/ absolute / inch / decimal}
; #@! TF.CreationDate,2019-08-26T14:36:13+01:00
; #@! TF.GenerationSoftware,Kicad,Pcbnew,5.1.4
; #@! TF.FileFunction,Plated,1,2,PTH
FMAT,2
INCH
T1C0.0157
T2C0.0256
T3C0.0315
T4C0.0354
T5C0.0433
%
G90
G05
T1
X2.92Y-3.22
X3.34Y-4.64
X3.4Y-2.9
X3.46Y-4.08
X3.48Y-2.98
X3.5Y-4.32
X3.54Y-4.2
X3.54Y-5.06
X3.56Y-2.66
X3.56Y-2.88
X3.56Y-3.98
X3.56Y-4.34
X3.56Y-4.52
X3.6Y-4.16
X3.62Y-2.14
X3.62Y-2.3
X3.68Y-3.04
X3.68Y-4.46
X3.69Y-4.25
X3.7Y-4.14
X3.74Y-4.0
X3.74Y-4.1
X3.96Y-4.04
X4.0Y-3.3
X4.06Y-3.32
X4.06Y-4.14
X4.12Y-3.08
X4.12Y-3.38
X4.14Y-4.0685
X4.16Y-4.14
X4.18Y-3.42
X4.24Y-3.9
X4.24Y-3.96
X4.24Y-4.8
X4.3Y-4.06
X4.32Y-4.24
X4.34Y-2.86
X4.36Y-2.94
X4.3998Y-4.9598
X4.42Y-4.8
X4.4369Y-4.4031
X4.48Y-4.98
X4.54Y-5.04
X4.5452Y-2.7452
X4.56Y-3.24
X4.56Y-4.76
X4.58Y-4.58
X4.6Y-3.34
X4.6Y-5.1228
X4.6002Y-5.0802
X4.62Y-4.46
X4.74Y-3.52
X4.74Y-3.58
X4.74Y-3.66
X4.78Y-3.96
X4.78Y-4.24
X4.8Y-2.96
X4.82Y-4.36
X4.82Y-4.7
X4.8285Y-3.5
X4.84Y-2.4
X4.84Y-3.82
X4.84Y-4.5
X4.84Y-4.56
X4.86Y-3.54
X4.86Y-4.36
X4.88Y-2.76
X4.8802Y-3.4398
X4.9Y-3.14
X4.9Y-3.32
X4.9Y-4.7
X4.9Y-4.84
X4.94Y-4.92
X4.96Y-3.5885
X4.96Y-4.38
X4.96Y-4.5
X4.98Y-3.08
X5.0Y-2.3
X5.0Y-2.86
X5.0Y-4.24
X5.04Y-3.98
X5.04Y-4.94
X5.0468Y-2.8644
X5.06Y-2.94
X5.06Y-3.4
X5.06Y-3.5885
X5.06Y-4.04
X5.06Y-4.18
X5.08Y-3.84
X5.1Y-2.4
X5.1Y-4.44
X5.1Y-4.6
X5.1197Y-3.9383
X5.12Y-3.48
X5.12Y-3.62
X5.1285Y-3.8685
X5.16Y-3.5915
X5.16Y-3.66
X5.16Y-3.8
X5.18Y-2.3
X5.18Y-4.04
X5.18Y-4.18
X5.18Y-4.94
X5.19Y-2.85
X5.2Y-4.54
X5.22Y-2.5
X5.22Y-3.82
X5.2715Y-3.5228
X5.2715Y-3.58
X5.34Y-3.58
X5.36Y-3.52
X5.36Y-3.82
X5.38Y-4.78
X5.3915Y-3.98
X5.42Y-3.5
X5.4377Y-4.6377
X5.46Y-3.68
X5.48Y-3.58
X5.48Y-3.78
X5.48Y-4.78
X5.48Y-5.12
X5.52Y-3.4
X5.54Y-3.54
X5.54Y-3.7
X5.54Y-3.78
X5.56Y-2.9
X5.56Y-3.5
X5.6Y-2.84
X5.62Y-3.06
X5.62Y-3.68
X5.62Y-3.88
X5.64Y-3.92
X5.76Y-3.0
X5.76Y-3.52
X5.82Y-3.9
X5.8523Y-3.5739
X5.86Y-3.68
T2
X5.72Y-3.1
X5.72Y-3.15
X5.72Y-3.2
X5.72Y-3.25
X5.72Y-3.3
X5.72Y-3.35
X5.72Y-3.4
X5.72Y-3.45
X5.72Y-2.125
X5.72Y-2.175
X5.72Y-2.225
X5.72Y-2.275
X5.72Y-2.325
X5.72Y-2.375
X5.72Y-2.425
X5.72Y-2.475
X5.72Y-2.525
X5.72Y-2.575
X5.72Y-2.625
X5.72Y-2.675
X5.72Y-2.725
X5.72Y-2.775
X5.72Y-2.825
X5.72Y-2.875
X2.88Y-2.96
X2.88Y-3.01
X5.72Y-3.7
X5.72Y-3.75
X5.72Y-3.8
T3
X3.25Y-3.15
X3.25Y-3.25
X3.25Y-3.35
X3.25Y-3.45
X3.25Y-3.55
X3.25Y-3.65
X3.25Y-3.75
X3.25Y-3.85
X3.25Y-3.95
X3.25Y-4.05
X3.25Y-4.15
X3.25Y-4.25
X3.25Y-4.35
X3.25Y-4.45
X3.25Y-4.55
X3.25Y-4.65
X3.25Y-4.75
X3.25Y-4.85
X3.25Y-4.95
X3.25Y-5.05
X3.85Y-3.15
X3.85Y-3.25
X3.85Y-3.35
X3.85Y-3.45
X3.85Y-3.55
X3.85Y-3.65
X3.85Y-3.75
X3.85Y-3.85
X3.85Y-3.95
X3.85Y-4.05
X3.85Y-4.15
X3.85Y-4.25
X3.85Y-4.35
X3.85Y-4.45
X3.85Y-4.55
X3.85Y-4.65
X3.85Y-4.75
X3.85Y-4.85
X3.85Y-4.95
X3.85Y-5.05
X3.46Y-2.16
X3.46Y-2.26
X3.46Y-2.36
X3.46Y-2.46
X3.46Y-2.56
X3.46Y-2.66
X3.46Y-2.76
X3.76Y-2.16
X3.76Y-2.26
X3.76Y-2.36
X3.76Y-2.46
X3.76Y-2.56
X3.76Y-2.66
X3.76Y-2.76
X2.92Y-2.22
X2.92Y-2.52
X3.22Y-2.22
X3.22Y-2.52
X4.05Y-4.7
X4.35Y-4.7
X4.05Y-4.5
X4.35Y-4.5
X4.7Y-2.15
X4.7Y-2.25
X4.7Y-2.35
X4.7Y-2.45
X4.7Y-2.55
X4.7Y-2.65
X4.7Y-2.75
X4.7Y-2.85
X4.7Y-2.95
X4.7Y-3.05
X4.7Y-3.15
X4.7Y-3.25
X4.7Y-3.35
X4.7Y-3.45
X5.3Y-2.15
X5.3Y-2.25
X5.3Y-2.35
X5.3Y-2.45
X5.3Y-2.55
X5.3Y-2.65
X5.3Y-2.75
X5.3Y-2.85
X5.3Y-2.95
X5.3Y-3.05
X5.3Y-3.15
X5.3Y-3.25
X5.3Y-3.35
X5.3Y-3.45
X4.05Y-4.9
X4.35Y-4.9
X4.02Y-2.16
X4.02Y-2.26
X4.02Y-2.36
X4.02Y-2.46
X4.02Y-2.56
X4.02Y-2.66
X4.02Y-2.76
X4.32Y-2.16
X4.32Y-2.26
X4.32Y-2.36
X4.32Y-2.46
X4.32Y-2.56
X4.32Y-2.66
X4.32Y-2.76
X3.02Y-4.74
X3.02Y-5.04
X3.02Y-4.3
X3.02Y-4.6
X4.7Y-3.75
X4.7Y-3.85
X4.7Y-3.95
X4.7Y-4.05
X4.7Y-4.15
X4.7Y-4.25
X4.7Y-4.35
X4.7Y-4.45
X4.7Y-4.55
X4.7Y-4.65
X4.7Y-4.75
X4.7Y-4.85
X4.7Y-4.95
X4.7Y-5.05
X5.3Y-3.75
X5.3Y-3.85
X5.3Y-3.95
X5.3Y-4.05
X5.3Y-4.15
X5.3Y-4.25
X5.3Y-4.35
X5.3Y-4.45
X5.3Y-4.55
X5.3Y-4.65
X5.3Y-4.75
X5.3Y-4.85
X5.3Y-4.95
X5.3Y-5.05
T4
X5.645Y-4.15
X5.745Y-4.15
T5
X5.56Y-4.5641
X5.56Y-4.82
X5.7372Y-4.5641
X5.7372Y-4.82
T0
M30
