M48
; DRILL file {KiCad 5.1.4} date Mon 16 Sep 2019 14:45:51 BST
; FORMAT={-:-/ absolute / inch / decimal}
; #@! TF.CreationDate,2019-09-16T14:45:51+01:00
; #@! TF.GenerationSoftware,Kicad,Pcbnew,5.1.4
; #@! TF.FileFunction,Plated,1,2,PTH
FMAT,2
INCH
T1C0.0157
T2C0.0315
T3C0.0354
T4C0.0433
%
G90
G05
T1
X3.97Y-3.83
X4.03Y-4.23
X4.03Y-5.63
X4.15Y-3.85
X4.16Y-5.15
X4.22Y-3.67
X4.26Y-4.99
X4.28Y-5.47
X4.39Y-5.5
X4.43Y-5.66
X4.44Y-4.33
X4.47Y-5.09
X4.89Y-6.16
X5.14Y-3.94
X5.21Y-6.2
X5.32Y-5.64
X5.41Y-6.28
X5.42Y-5.68
X5.49Y-6.24
X5.52Y-4.32
X5.54Y-3.79
X5.54Y-4.25
X5.58Y-4.2
X5.59Y-5.03
X5.64Y-6.36
X5.72Y-4.49
X5.77Y-5.96
X5.86Y-6.43
X5.86Y-6.65
X5.88Y-5.96
X5.91Y-5.19
X5.93Y-6.4185
X5.95Y-5.32
X6.01Y-6.49
X6.0588Y-6.1088
X6.1Y-6.15
X6.14Y-6.19
X6.18Y-6.23
X6.2181Y-6.2719
X6.25Y-5.28
T2
X3.92Y-5.27
X3.92Y-5.87
X4.02Y-5.27
X4.02Y-5.87
X4.12Y-5.27
X4.12Y-5.87
X4.22Y-5.27
X4.22Y-5.87
X4.32Y-5.27
X4.32Y-5.87
X4.42Y-5.27
X4.42Y-5.87
X4.52Y-5.27
X4.52Y-5.87
X4.62Y-5.27
X4.62Y-5.87
X4.72Y-5.27
X4.72Y-5.87
X4.82Y-5.27
X4.82Y-5.87
X4.92Y-5.27
X4.92Y-5.87
X5.02Y-5.27
X5.02Y-5.87
X5.12Y-5.27
X5.12Y-5.87
X5.22Y-5.27
X5.22Y-5.87
X5.32Y-5.27
X5.32Y-5.87
X5.42Y-5.27
X5.42Y-5.87
X5.52Y-5.27
X5.52Y-5.87
X5.62Y-5.27
X5.62Y-5.87
X5.72Y-5.27
X5.72Y-5.87
X5.82Y-5.27
X5.82Y-5.87
X5.67Y-5.08
X5.97Y-5.08
X6.08Y-3.01
X6.08Y-3.11
X6.08Y-3.21
X6.08Y-3.31
X6.08Y-3.41
X6.08Y-3.51
X6.08Y-3.61
X6.38Y-3.01
X6.38Y-3.11
X6.38Y-3.21
X6.38Y-3.31
X6.38Y-3.41
X6.38Y-3.51
X6.38Y-3.61
X6.08Y-3.87
X6.08Y-3.97
X6.08Y-4.07
X6.08Y-4.17
X6.08Y-4.27
X6.08Y-4.37
X6.08Y-4.47
X6.38Y-3.87
X6.38Y-3.97
X6.38Y-4.07
X6.38Y-4.17
X6.38Y-4.27
X6.38Y-4.37
X6.38Y-4.47
X6.37Y-4.7
X6.37Y-4.7787
X6.37Y-4.8575
X6.37Y-4.9362
X6.37Y-5.015
X6.37Y-5.0937
X6.37Y-5.1724
X6.37Y-5.2512
X6.37Y-5.3299
X6.37Y-5.4087
X6.37Y-5.4874
X6.37Y-5.5661
X6.37Y-5.6449
X6.37Y-5.7236
X6.37Y-5.8024
X6.37Y-5.8811
X5.55Y-6.37
X5.55Y-6.67
X5.99Y-5.69
X5.99Y-5.99
X6.0013Y-7.04
X6.08Y-7.04
X4.93Y-6.84
X5.23Y-6.84
X4.34Y-3.02
X4.34Y-3.62
X4.44Y-3.02
X4.44Y-3.62
X4.54Y-3.02
X4.54Y-3.62
X4.64Y-3.02
X4.64Y-3.62
X4.74Y-3.02
X4.74Y-3.62
X4.84Y-3.02
X4.84Y-3.62
X4.94Y-3.02
X4.94Y-3.62
X5.04Y-3.02
X5.04Y-3.62
X5.14Y-3.02
X5.14Y-3.62
X5.24Y-3.02
X5.24Y-3.62
X5.34Y-3.02
X5.34Y-3.62
X5.44Y-3.02
X5.44Y-3.62
X5.54Y-3.02
X5.54Y-3.62
X5.64Y-3.02
X5.64Y-3.62
X4.34Y-4.05
X4.34Y-4.65
X4.44Y-4.05
X4.44Y-4.65
X4.54Y-4.05
X4.54Y-4.65
X4.64Y-4.05
X4.64Y-4.65
X4.74Y-4.05
X4.74Y-4.65
X4.84Y-4.05
X4.84Y-4.65
X4.94Y-4.05
X4.94Y-4.65
X5.04Y-4.05
X5.04Y-4.65
X5.14Y-4.05
X5.14Y-4.65
X5.24Y-4.05
X5.24Y-4.65
X5.34Y-4.05
X5.34Y-4.65
X5.44Y-4.05
X5.44Y-4.65
X5.54Y-4.05
X5.54Y-4.65
X5.64Y-4.05
X5.64Y-4.65
X6.37Y-6.88
X6.37Y-6.9587
X6.37Y-7.0375
X6.37Y-6.1088
X6.37Y-6.1876
X6.37Y-6.2663
X6.37Y-6.345
X6.37Y-6.4238
X6.37Y-6.5025
X6.37Y-6.5813
X6.37Y-6.66
X3.96Y-6.57
X3.96Y-6.87
X4.26Y-6.57
X4.26Y-6.87
X5.74Y-6.37
X5.74Y-6.67
T3
X5.12Y-5.1
X5.22Y-5.1
T4
X5.36Y-6.84
X5.36Y-7.0172
X5.6159Y-6.84
X5.6159Y-7.0172
T0
M30
