G04 #@! TF.GenerationSoftware,KiCad,Pcbnew,5.1.4*
G04 #@! TF.CreationDate,2019-09-16T14:45:49+01:00*
G04 #@! TF.ProjectId,z802-3,7a383032-2d33-42e6-9b69-6361645f7063,rev?*
G04 #@! TF.SameCoordinates,Original*
G04 #@! TF.FileFunction,Copper,L1,Top*
G04 #@! TF.FilePolarity,Positive*
%FSLAX46Y46*%
G04 Gerber Fmt 4.6, Leading zero omitted, Abs format (unit mm)*
G04 Created by KiCad (PCBNEW 5.1.4) date 2019-09-16 14:45:49*
%MOMM*%
%LPD*%
G04 APERTURE LIST*
%ADD10O,1.600000X1.600000*%
%ADD11R,1.600000X1.600000*%
%ADD12R,1.800000X1.800000*%
%ADD13C,1.800000*%
%ADD14R,1.350000X1.350000*%
%ADD15O,1.350000X1.350000*%
%ADD16C,1.600000*%
%ADD17C,2.000000*%
%ADD18C,0.800000*%
%ADD19C,0.250000*%
%ADD20C,0.254000*%
G04 APERTURE END LIST*
D10*
X110236000Y-102870000D03*
X143256000Y-118110000D03*
X112776000Y-102870000D03*
X140716000Y-118110000D03*
X115316000Y-102870000D03*
X138176000Y-118110000D03*
X117856000Y-102870000D03*
X135636000Y-118110000D03*
X120396000Y-102870000D03*
X133096000Y-118110000D03*
X122936000Y-102870000D03*
X130556000Y-118110000D03*
X125476000Y-102870000D03*
X128016000Y-118110000D03*
X128016000Y-102870000D03*
X125476000Y-118110000D03*
X130556000Y-102870000D03*
X122936000Y-118110000D03*
X133096000Y-102870000D03*
X120396000Y-118110000D03*
X135636000Y-102870000D03*
X117856000Y-118110000D03*
X138176000Y-102870000D03*
X115316000Y-118110000D03*
X140716000Y-102870000D03*
X112776000Y-118110000D03*
X143256000Y-102870000D03*
D11*
X110236000Y-118110000D03*
D12*
X130048000Y-129540000D03*
D13*
X132588000Y-129540000D03*
D14*
X161798000Y-174752000D03*
D15*
X161798000Y-176752000D03*
X161798000Y-178752000D03*
D14*
X161798000Y-169164000D03*
D15*
X161798000Y-167164000D03*
X161798000Y-165164000D03*
X161798000Y-163164000D03*
X161798000Y-161164000D03*
X161798000Y-159164000D03*
X161798000Y-157164000D03*
X161798000Y-155164000D03*
D14*
X161798000Y-119380000D03*
D15*
X161798000Y-121380000D03*
X161798000Y-123380000D03*
X161798000Y-125380000D03*
X161798000Y-127380000D03*
X161798000Y-129380000D03*
X161798000Y-131380000D03*
X161798000Y-133380000D03*
X161798000Y-135380000D03*
X161798000Y-137380000D03*
X161798000Y-139380000D03*
X161798000Y-141380000D03*
X161798000Y-143380000D03*
X161798000Y-145380000D03*
X161798000Y-147380000D03*
X161798000Y-149380000D03*
D14*
X154432000Y-178816000D03*
D15*
X152432000Y-178816000D03*
D16*
X151638000Y-129032000D03*
D10*
X144018000Y-129032000D03*
X140970000Y-161798000D03*
D16*
X140970000Y-169418000D03*
X145796000Y-169418000D03*
D10*
X145796000Y-161798000D03*
X152146000Y-144526000D03*
D16*
X152146000Y-152146000D03*
X125222000Y-173736000D03*
D10*
X132842000Y-173736000D03*
D17*
X136144000Y-178236000D03*
X136144000Y-173736000D03*
X142644000Y-178236000D03*
X142644000Y-173736000D03*
D11*
X99568000Y-149098000D03*
D10*
X147828000Y-133858000D03*
X102108000Y-149098000D03*
X145288000Y-133858000D03*
X104648000Y-149098000D03*
X142748000Y-133858000D03*
X107188000Y-149098000D03*
X140208000Y-133858000D03*
X109728000Y-149098000D03*
X137668000Y-133858000D03*
X112268000Y-149098000D03*
X135128000Y-133858000D03*
X114808000Y-149098000D03*
X132588000Y-133858000D03*
X117348000Y-149098000D03*
X130048000Y-133858000D03*
X119888000Y-149098000D03*
X127508000Y-133858000D03*
X122428000Y-149098000D03*
X124968000Y-133858000D03*
X124968000Y-149098000D03*
X122428000Y-133858000D03*
X127508000Y-149098000D03*
X119888000Y-133858000D03*
X130048000Y-149098000D03*
X117348000Y-133858000D03*
X132588000Y-149098000D03*
X114808000Y-133858000D03*
X135128000Y-149098000D03*
X112268000Y-133858000D03*
X137668000Y-149098000D03*
X109728000Y-133858000D03*
X140208000Y-149098000D03*
X107188000Y-133858000D03*
X142748000Y-149098000D03*
X104648000Y-133858000D03*
X145288000Y-149098000D03*
X102108000Y-133858000D03*
X147828000Y-149098000D03*
X99568000Y-133858000D03*
D11*
X154432000Y-76454000D03*
D10*
X162052000Y-91694000D03*
X154432000Y-78994000D03*
X162052000Y-89154000D03*
X154432000Y-81534000D03*
X162052000Y-86614000D03*
X154432000Y-84074000D03*
X162052000Y-84074000D03*
X154432000Y-86614000D03*
X162052000Y-81534000D03*
X154432000Y-89154000D03*
X162052000Y-78994000D03*
X154432000Y-91694000D03*
X162052000Y-76454000D03*
X162052000Y-98298000D03*
X154432000Y-113538000D03*
X162052000Y-100838000D03*
X154432000Y-110998000D03*
X162052000Y-103378000D03*
X154432000Y-108458000D03*
X162052000Y-105918000D03*
X154432000Y-105918000D03*
X162052000Y-108458000D03*
X154432000Y-103378000D03*
X162052000Y-110998000D03*
X154432000Y-100838000D03*
X162052000Y-113538000D03*
D11*
X154432000Y-98298000D03*
D10*
X110236000Y-76708000D03*
X143256000Y-91948000D03*
X112776000Y-76708000D03*
X140716000Y-91948000D03*
X115316000Y-76708000D03*
X138176000Y-91948000D03*
X117856000Y-76708000D03*
X135636000Y-91948000D03*
X120396000Y-76708000D03*
X133096000Y-91948000D03*
X122936000Y-76708000D03*
X130556000Y-91948000D03*
X125476000Y-76708000D03*
X128016000Y-91948000D03*
X128016000Y-76708000D03*
X125476000Y-91948000D03*
X130556000Y-76708000D03*
X122936000Y-91948000D03*
X133096000Y-76708000D03*
X120396000Y-91948000D03*
X135636000Y-76708000D03*
X117856000Y-91948000D03*
X138176000Y-76708000D03*
X115316000Y-91948000D03*
X140716000Y-76708000D03*
X112776000Y-91948000D03*
X143256000Y-76708000D03*
D11*
X110236000Y-91948000D03*
X100584000Y-174498000D03*
D16*
X100584000Y-166878000D03*
X108204000Y-166878000D03*
X108204000Y-174498000D03*
D18*
X141986000Y-127762000D03*
X148844000Y-163322000D03*
X112776000Y-109982000D03*
X148844000Y-168910000D03*
X143256000Y-161544000D03*
X145288000Y-114046000D03*
X146558000Y-151384000D03*
X149352000Y-151384000D03*
X150622000Y-163031000D03*
X152654000Y-164846000D03*
X137414000Y-159512000D03*
X139446000Y-158496000D03*
X132334000Y-157480000D03*
X137668000Y-144272000D03*
X124206000Y-156464000D03*
X157940000Y-159306000D03*
X156972000Y-158242000D03*
X141732000Y-106680000D03*
X155956000Y-157226000D03*
X140716000Y-107950000D03*
X154940000Y-156210000D03*
X140208000Y-109728000D03*
X153894000Y-155164000D03*
X105410000Y-97790000D03*
X102362000Y-107442000D03*
X107188000Y-93218000D03*
X105664000Y-130810000D03*
X108712000Y-138938000D03*
X113538000Y-129286000D03*
X111506000Y-139700000D03*
X100838000Y-97282000D03*
X108204000Y-126746000D03*
X112522000Y-143764000D03*
X102362000Y-143002000D03*
X150114000Y-131826000D03*
X135128000Y-143256000D03*
X140716000Y-96266000D03*
X130556000Y-100076000D03*
X158750000Y-134112000D03*
X151130000Y-135128000D03*
D19*
X130048000Y-128390000D02*
X130048000Y-129540000D01*
X130676000Y-127762000D02*
X130048000Y-128390000D01*
X141986000Y-127762000D02*
X130676000Y-127762000D01*
X160274000Y-174752000D02*
X161798000Y-174752000D01*
X148844000Y-163322000D02*
X160274000Y-174752000D01*
X111650999Y-77833001D02*
X103233001Y-77833001D01*
X112776000Y-76708000D02*
X111650999Y-77833001D01*
X103233001Y-77833001D02*
X99568000Y-81498002D01*
X99568000Y-81498002D02*
X99568000Y-98044000D01*
X111506000Y-101600000D02*
X112776000Y-102870000D01*
X103124000Y-101600000D02*
X111506000Y-101600000D01*
X99568000Y-98044000D02*
X103124000Y-101600000D01*
X131462999Y-134398001D02*
X132446998Y-135382000D01*
X131462999Y-133494999D02*
X131462999Y-134398001D01*
X113901001Y-111107001D02*
X113901001Y-118360003D01*
X112776000Y-109982000D02*
X113901001Y-111107001D01*
X113901001Y-118360003D02*
X128273997Y-132732999D01*
X128273997Y-132732999D02*
X130700999Y-132732999D01*
X130700999Y-132732999D02*
X131462999Y-133494999D01*
X143764000Y-135382000D02*
X145288000Y-133858000D01*
X132446998Y-135382000D02*
X143764000Y-135382000D01*
X148844000Y-168910000D02*
X143256000Y-163322000D01*
X143256000Y-163322000D02*
X143256000Y-161544000D01*
X125476000Y-76708000D02*
X118110000Y-84074000D01*
X118110000Y-84074000D02*
X107188000Y-84074000D01*
X107188000Y-84074000D02*
X105918000Y-85344000D01*
X105918000Y-85344000D02*
X105918000Y-94234000D01*
X105918000Y-94234000D02*
X106680000Y-94996000D01*
X117602000Y-94996000D02*
X125476000Y-102870000D01*
X106680000Y-94996000D02*
X117602000Y-94996000D01*
X137526998Y-114046000D02*
X145288000Y-114046000D01*
X125476000Y-102870000D02*
X136652000Y-114046000D01*
X136652000Y-114046000D02*
X137526998Y-114046000D01*
X146558000Y-151384000D02*
X149352000Y-151384000D01*
X150622000Y-163031000D02*
X152437000Y-164846000D01*
X152437000Y-164846000D02*
X152654000Y-164846000D01*
X160873000Y-169164000D02*
X154015000Y-162306000D01*
X161798000Y-169164000D02*
X160873000Y-169164000D01*
X154015000Y-162306000D02*
X149606000Y-162306000D01*
X149606000Y-162306000D02*
X146812000Y-159512000D01*
X146812000Y-159512000D02*
X137414000Y-159512000D01*
X161798000Y-167164000D02*
X160814000Y-167164000D01*
X160814000Y-167164000D02*
X154940000Y-161290000D01*
X154940000Y-161290000D02*
X150114000Y-161290000D01*
X150114000Y-161290000D02*
X147320000Y-158496000D01*
X147320000Y-158496000D02*
X139446000Y-158496000D01*
X160843406Y-165164000D02*
X161798000Y-165164000D01*
X132334000Y-157480000D02*
X147574000Y-157480000D01*
X147574000Y-157480000D02*
X150368000Y-160274000D01*
X150368000Y-160274000D02*
X155953406Y-160274000D01*
X155953406Y-160274000D02*
X160843406Y-165164000D01*
X132334000Y-144272000D02*
X127508000Y-149098000D01*
X137668000Y-144272000D02*
X132334000Y-144272000D01*
X144780000Y-101346000D02*
X143256000Y-102870000D01*
X146558000Y-76708000D02*
X150368000Y-80518000D01*
X143256000Y-76708000D02*
X146558000Y-76708000D01*
X150368000Y-80518000D02*
X150368000Y-96266000D01*
X150368000Y-96266000D02*
X145288000Y-101346000D01*
X145288000Y-101346000D02*
X144780000Y-101346000D01*
X150622000Y-159258000D02*
X157892000Y-159258000D01*
X147828000Y-156464000D02*
X150622000Y-159258000D01*
X124206000Y-156464000D02*
X147828000Y-156464000D01*
X157892000Y-159258000D02*
X157940000Y-159306000D01*
X157940000Y-159306000D02*
X161798000Y-163164000D01*
X142240000Y-101346000D02*
X140716000Y-102870000D01*
X143764000Y-101346000D02*
X142240000Y-101346000D01*
X141841001Y-77833001D02*
X145940999Y-77833001D01*
X140716000Y-76708000D02*
X141841001Y-77833001D01*
X149352000Y-81026000D02*
X149352000Y-95758000D01*
X145940999Y-77833001D02*
X149352000Y-81026000D01*
X149352000Y-95758000D02*
X143764000Y-101346000D01*
X161123001Y-160489001D02*
X160489001Y-160489001D01*
X161798000Y-161164000D02*
X161123001Y-160489001D01*
X160489001Y-160489001D02*
X158242000Y-158242000D01*
X150876000Y-158242000D02*
X148082000Y-155448000D01*
X121158000Y-155448000D02*
X114808000Y-149098000D01*
X148082000Y-155448000D02*
X121158000Y-155448000D01*
X156972000Y-158242000D02*
X150876000Y-158242000D01*
X158242000Y-158242000D02*
X156972000Y-158242000D01*
X140716000Y-100330000D02*
X138176000Y-102870000D01*
X143002000Y-100330000D02*
X140716000Y-100330000D01*
X148336000Y-94996000D02*
X143002000Y-100330000D01*
X138176000Y-77839370D02*
X139076630Y-78740000D01*
X139076630Y-78740000D02*
X145288000Y-78740000D01*
X138176000Y-76708000D02*
X138176000Y-77839370D01*
X145288000Y-78740000D02*
X148336000Y-81788000D01*
X148336000Y-81788000D02*
X148336000Y-94996000D01*
X161123001Y-158489001D02*
X159759001Y-158489001D01*
X161798000Y-159164000D02*
X161123001Y-158489001D01*
X159759001Y-158489001D02*
X158496000Y-157226000D01*
X151130000Y-157226000D02*
X148336000Y-154432000D01*
X125222000Y-154432000D02*
X119888000Y-149098000D01*
X148336000Y-154432000D02*
X125222000Y-154432000D01*
X138176000Y-102870000D02*
X141732000Y-106426000D01*
X141732000Y-106426000D02*
X141732000Y-106680000D01*
X155956000Y-157226000D02*
X151130000Y-157226000D01*
X158496000Y-157226000D02*
X155956000Y-157226000D01*
X139192000Y-99314000D02*
X135636000Y-102870000D01*
X142494000Y-99314000D02*
X139192000Y-99314000D01*
X138684000Y-79756000D02*
X144526000Y-79756000D01*
X135636000Y-76708000D02*
X138684000Y-79756000D01*
X144526000Y-79756000D02*
X147320000Y-82550000D01*
X147320000Y-82550000D02*
X147320000Y-94488000D01*
X147320000Y-94488000D02*
X142494000Y-99314000D01*
X161798000Y-157164000D02*
X159704000Y-157164000D01*
X126746000Y-153416000D02*
X122428000Y-149098000D01*
X159704000Y-157164000D02*
X158750000Y-156210000D01*
X151384000Y-156210000D02*
X148590000Y-153416000D01*
X148590000Y-153416000D02*
X126746000Y-153416000D01*
X135636000Y-102870000D02*
X140716000Y-107950000D01*
X154940000Y-156210000D02*
X151384000Y-156210000D01*
X158750000Y-156210000D02*
X154940000Y-156210000D01*
X137668000Y-98298000D02*
X133096000Y-102870000D01*
X141986000Y-98298000D02*
X137668000Y-98298000D01*
X137414000Y-81026000D02*
X144018000Y-81026000D01*
X133096000Y-76708000D02*
X137414000Y-81026000D01*
X146304000Y-93980000D02*
X141986000Y-98298000D01*
X144018000Y-81026000D02*
X146304000Y-83312000D01*
X146304000Y-83312000D02*
X146304000Y-93980000D01*
X151608000Y-155164000D02*
X148844000Y-152400000D01*
X133350000Y-152400000D02*
X130048000Y-149098000D01*
X148844000Y-152400000D02*
X133350000Y-152400000D01*
X133096000Y-102870000D02*
X139954000Y-109728000D01*
X139954000Y-109728000D02*
X140208000Y-109728000D01*
X153894000Y-155164000D02*
X151608000Y-155164000D01*
X161798000Y-155164000D02*
X153894000Y-155164000D01*
X134366000Y-119380000D02*
X133096000Y-118110000D01*
X161798000Y-119380000D02*
X134366000Y-119380000D01*
X161798000Y-121380000D02*
X159988000Y-121380000D01*
X159988000Y-121380000D02*
X159004000Y-120396000D01*
X132842000Y-120396000D02*
X130556000Y-118110000D01*
X159004000Y-120396000D02*
X132842000Y-120396000D01*
X161123001Y-122705001D02*
X160043001Y-122705001D01*
X161798000Y-123380000D02*
X161123001Y-122705001D01*
X160043001Y-122705001D02*
X158750000Y-121412000D01*
X131318000Y-121412000D02*
X128016000Y-118110000D01*
X158750000Y-121412000D02*
X131318000Y-121412000D01*
X158242000Y-122428000D02*
X129794000Y-122428000D01*
X129794000Y-122428000D02*
X125476000Y-118110000D01*
X161798000Y-125380000D02*
X161123001Y-124705001D01*
X160519001Y-124705001D02*
X158242000Y-122428000D01*
X161123001Y-124705001D02*
X160519001Y-124705001D01*
X161123001Y-126705001D02*
X160995001Y-126705001D01*
X161798000Y-127380000D02*
X161123001Y-126705001D01*
X160995001Y-126705001D02*
X157734000Y-123444000D01*
X128270000Y-123444000D02*
X122936000Y-118110000D01*
X157734000Y-123444000D02*
X128270000Y-123444000D01*
X161123001Y-128705001D02*
X161123001Y-128357001D01*
X161798000Y-129380000D02*
X161123001Y-128705001D01*
X161123001Y-128357001D02*
X157226000Y-124460000D01*
X126746000Y-124460000D02*
X120396000Y-118110000D01*
X157226000Y-124460000D02*
X126746000Y-124460000D01*
X161798000Y-131380000D02*
X155956000Y-125538000D01*
X125284000Y-125538000D02*
X117856000Y-118110000D01*
X155956000Y-125538000D02*
X125284000Y-125538000D01*
X161798000Y-133380000D02*
X155194000Y-126776000D01*
X123982000Y-126776000D02*
X115316000Y-118110000D01*
X155194000Y-126776000D02*
X123982000Y-126776000D01*
X117856000Y-77839370D02*
X115431370Y-80264000D01*
X117856000Y-76708000D02*
X117856000Y-77839370D01*
X115431370Y-80264000D02*
X104902000Y-80264000D01*
X104902000Y-80264000D02*
X102108000Y-83058000D01*
X102108000Y-83058000D02*
X102108000Y-96520000D01*
X102108000Y-96520000D02*
X104648000Y-99060000D01*
X114046000Y-99060000D02*
X117856000Y-102870000D01*
X104648000Y-99060000D02*
X106426000Y-99060000D01*
X106426000Y-99060000D02*
X114046000Y-99060000D01*
X161798000Y-135380000D02*
X160526000Y-136652000D01*
X107442000Y-136652000D02*
X104648000Y-133858000D01*
X160526000Y-136652000D02*
X107442000Y-136652000D01*
X113284000Y-107442000D02*
X109728000Y-107442000D01*
X117856000Y-102870000D02*
X113284000Y-107442000D01*
X104648000Y-112522000D02*
X104648000Y-133858000D01*
X109728000Y-107442000D02*
X104648000Y-112522000D01*
X105410000Y-97790000D02*
X115316000Y-97790000D01*
X103378000Y-95758000D02*
X105410000Y-97790000D01*
X120396000Y-77839370D02*
X116701370Y-81534000D01*
X115316000Y-97790000D02*
X120396000Y-102870000D01*
X116701370Y-81534000D02*
X105664000Y-81534000D01*
X105664000Y-81534000D02*
X103378000Y-83820000D01*
X120396000Y-76708000D02*
X120396000Y-77839370D01*
X103378000Y-83820000D02*
X103378000Y-95758000D01*
X105630000Y-137380000D02*
X102108000Y-133858000D01*
X161798000Y-137380000D02*
X105630000Y-137380000D01*
X118872000Y-93726000D02*
X128016000Y-102870000D01*
X107696000Y-93726000D02*
X118872000Y-93726000D01*
X119380000Y-85344000D02*
X107950000Y-85344000D01*
X107188000Y-93218000D02*
X107696000Y-93726000D01*
X128016000Y-76708000D02*
X119380000Y-85344000D01*
X107950000Y-85344000D02*
X107188000Y-86106000D01*
X107188000Y-86106000D02*
X107188000Y-93218000D01*
X161798000Y-139380000D02*
X160594000Y-138176000D01*
X103886000Y-138176000D02*
X99568000Y-133858000D01*
X160594000Y-138176000D02*
X103886000Y-138176000D01*
X99568000Y-133858000D02*
X99568000Y-110998000D01*
X99568000Y-110998000D02*
X99568000Y-110236000D01*
X99568000Y-110236000D02*
X102362000Y-107442000D01*
X122936000Y-76708000D02*
X116840000Y-82804000D01*
X116840000Y-82804000D02*
X106426000Y-82804000D01*
X106426000Y-82804000D02*
X104648000Y-84582000D01*
X104648000Y-84582000D02*
X104648000Y-94996000D01*
X104648000Y-94996000D02*
X106172000Y-96520000D01*
X116586000Y-96520000D02*
X122936000Y-102870000D01*
X106172000Y-96520000D02*
X116586000Y-96520000D01*
X161798000Y-141380000D02*
X159356000Y-138938000D01*
X99568000Y-148048000D02*
X99568000Y-149098000D01*
X108678000Y-138938000D02*
X99568000Y-148048000D01*
X117094000Y-108712000D02*
X110490000Y-108712000D01*
X122936000Y-102870000D02*
X117094000Y-108712000D01*
X110490000Y-108712000D02*
X105664000Y-113538000D01*
X105664000Y-113538000D02*
X105664000Y-130810000D01*
X108712000Y-138938000D02*
X108678000Y-138938000D01*
X159356000Y-138938000D02*
X108712000Y-138938000D01*
X161798000Y-143380000D02*
X158118000Y-139700000D01*
X111506000Y-139700000D02*
X102108000Y-149098000D01*
X158118000Y-139700000D02*
X111506000Y-139700000D01*
X112776000Y-118110000D02*
X112776000Y-128524000D01*
X112776000Y-128524000D02*
X113538000Y-129286000D01*
X115316000Y-76708000D02*
X113030000Y-78994000D01*
X113030000Y-78994000D02*
X104140000Y-78994000D01*
X104140000Y-78994000D02*
X100838000Y-82296000D01*
X100838000Y-82296000D02*
X100838000Y-97282000D01*
X100838000Y-97282000D02*
X103886000Y-100330000D01*
X112776000Y-100330000D02*
X115316000Y-102870000D01*
X103886000Y-100330000D02*
X112776000Y-100330000D01*
X161123001Y-144705001D02*
X161123001Y-144359001D01*
X161798000Y-145380000D02*
X161123001Y-144705001D01*
X161123001Y-144359001D02*
X157226000Y-140462000D01*
X113284000Y-140462000D02*
X104648000Y-149098000D01*
X157226000Y-140462000D02*
X113284000Y-140462000D01*
X161798000Y-147380000D02*
X155642000Y-141224000D01*
X155642000Y-141224000D02*
X115062000Y-141224000D01*
X110236000Y-118110000D02*
X110236000Y-124714000D01*
X110236000Y-124714000D02*
X108204000Y-126746000D01*
X115062000Y-141224000D02*
X112522000Y-143764000D01*
X112522000Y-143764000D02*
X107188000Y-149098000D01*
X161798000Y-149380000D02*
X154404000Y-141986000D01*
X116840000Y-141986000D02*
X109728000Y-149098000D01*
X154404000Y-141986000D02*
X116840000Y-141986000D01*
X155482000Y-98298000D02*
X159512000Y-102328000D01*
X154432000Y-98298000D02*
X155482000Y-98298000D01*
X159512000Y-102328000D02*
X159512000Y-113284000D01*
X159512000Y-113284000D02*
X163576000Y-117348000D01*
X163576000Y-147602000D02*
X161798000Y-149380000D01*
X163576000Y-117348000D02*
X163576000Y-147602000D01*
X102616000Y-102870000D02*
X110236000Y-102870000D01*
X98298000Y-81026000D02*
X98298000Y-98552000D01*
X110236000Y-76708000D02*
X102616000Y-76708000D01*
X102616000Y-76708000D02*
X98298000Y-81026000D01*
X98298000Y-98552000D02*
X102616000Y-102870000D01*
X98298000Y-98552000D02*
X98298000Y-138938000D01*
X98298000Y-138938000D02*
X102362000Y-143002000D01*
X142494000Y-129032000D02*
X137668000Y-133858000D01*
X144018000Y-129032000D02*
X142494000Y-129032000D01*
X150114000Y-131826000D02*
X142240000Y-131826000D01*
X142240000Y-131826000D02*
X140208000Y-133858000D01*
X132042001Y-172936001D02*
X132842000Y-173736000D01*
X113682999Y-154576999D02*
X132042001Y-172936001D01*
X118984998Y-143256000D02*
X113682999Y-148557999D01*
X113682999Y-148557999D02*
X113682999Y-154576999D01*
X135128000Y-143256000D02*
X118984998Y-143256000D01*
X136398000Y-96266000D02*
X140716000Y-96266000D01*
X130556000Y-100076000D02*
X136398000Y-96266000D01*
X151130000Y-135128000D02*
X157734000Y-135128000D01*
X157734000Y-135128000D02*
X158750000Y-134112000D01*
X153306999Y-99712999D02*
X153632001Y-100038001D01*
X153632001Y-100038001D02*
X154432000Y-100838000D01*
X153306999Y-80119001D02*
X153306999Y-99712999D01*
X154432000Y-78994000D02*
X153306999Y-80119001D01*
D20*
G36*
X153277506Y-75123463D02*
G01*
X153180815Y-75202815D01*
X153101463Y-75299506D01*
X153042498Y-75409820D01*
X153006188Y-75529518D01*
X152993928Y-75654000D01*
X152993928Y-77254000D01*
X153006188Y-77378482D01*
X153042498Y-77498180D01*
X153101463Y-77608494D01*
X153180815Y-77705185D01*
X153277506Y-77784537D01*
X153387820Y-77843502D01*
X153507518Y-77879812D01*
X153525482Y-77881581D01*
X153412392Y-77974392D01*
X153233068Y-78192899D01*
X153099818Y-78442192D01*
X153017764Y-78712691D01*
X152990057Y-78994000D01*
X153017764Y-79275309D01*
X153031292Y-79319906D01*
X152796001Y-79555197D01*
X152766998Y-79579000D01*
X152725986Y-79628974D01*
X152672025Y-79694725D01*
X152640342Y-79754000D01*
X152601453Y-79826755D01*
X152557996Y-79970016D01*
X152546999Y-80081669D01*
X152546999Y-80081679D01*
X152543323Y-80119001D01*
X152546999Y-80156323D01*
X152547000Y-99675666D01*
X152543323Y-99712999D01*
X152547000Y-99750332D01*
X152548499Y-99765546D01*
X152557997Y-99861984D01*
X152601453Y-100005245D01*
X152672025Y-100137275D01*
X152737148Y-100216627D01*
X152766999Y-100253000D01*
X152795997Y-100276798D01*
X153031292Y-100512093D01*
X153017764Y-100556691D01*
X152990057Y-100838000D01*
X153017764Y-101119309D01*
X153099818Y-101389808D01*
X153233068Y-101639101D01*
X153412392Y-101857608D01*
X153630899Y-102036932D01*
X153763858Y-102108000D01*
X153630899Y-102179068D01*
X153412392Y-102358392D01*
X153233068Y-102576899D01*
X153099818Y-102826192D01*
X153017764Y-103096691D01*
X152990057Y-103378000D01*
X153017764Y-103659309D01*
X153099818Y-103929808D01*
X153233068Y-104179101D01*
X153412392Y-104397608D01*
X153630899Y-104576932D01*
X153763858Y-104648000D01*
X153630899Y-104719068D01*
X153412392Y-104898392D01*
X153233068Y-105116899D01*
X153099818Y-105366192D01*
X153017764Y-105636691D01*
X152990057Y-105918000D01*
X153017764Y-106199309D01*
X153099818Y-106469808D01*
X153233068Y-106719101D01*
X153412392Y-106937608D01*
X153630899Y-107116932D01*
X153763858Y-107188000D01*
X153630899Y-107259068D01*
X153412392Y-107438392D01*
X153233068Y-107656899D01*
X153099818Y-107906192D01*
X153017764Y-108176691D01*
X152990057Y-108458000D01*
X153017764Y-108739309D01*
X153099818Y-109009808D01*
X153233068Y-109259101D01*
X153412392Y-109477608D01*
X153630899Y-109656932D01*
X153763858Y-109728000D01*
X153630899Y-109799068D01*
X153412392Y-109978392D01*
X153233068Y-110196899D01*
X153099818Y-110446192D01*
X153017764Y-110716691D01*
X152990057Y-110998000D01*
X153017764Y-111279309D01*
X153099818Y-111549808D01*
X153233068Y-111799101D01*
X153412392Y-112017608D01*
X153630899Y-112196932D01*
X153763858Y-112268000D01*
X153630899Y-112339068D01*
X153412392Y-112518392D01*
X153233068Y-112736899D01*
X153099818Y-112986192D01*
X153017764Y-113256691D01*
X152990057Y-113538000D01*
X153017764Y-113819309D01*
X153099818Y-114089808D01*
X153233068Y-114339101D01*
X153412392Y-114557608D01*
X153630899Y-114736932D01*
X153880192Y-114870182D01*
X154150691Y-114952236D01*
X154361508Y-114973000D01*
X154502492Y-114973000D01*
X154713309Y-114952236D01*
X154983808Y-114870182D01*
X155233101Y-114736932D01*
X155451608Y-114557608D01*
X155630932Y-114339101D01*
X155764182Y-114089808D01*
X155846236Y-113819309D01*
X155873943Y-113538000D01*
X155846236Y-113256691D01*
X155764182Y-112986192D01*
X155630932Y-112736899D01*
X155451608Y-112518392D01*
X155233101Y-112339068D01*
X155100142Y-112268000D01*
X155233101Y-112196932D01*
X155451608Y-112017608D01*
X155630932Y-111799101D01*
X155764182Y-111549808D01*
X155846236Y-111279309D01*
X155873943Y-110998000D01*
X155846236Y-110716691D01*
X155764182Y-110446192D01*
X155630932Y-110196899D01*
X155451608Y-109978392D01*
X155233101Y-109799068D01*
X155100142Y-109728000D01*
X155233101Y-109656932D01*
X155451608Y-109477608D01*
X155630932Y-109259101D01*
X155764182Y-109009808D01*
X155846236Y-108739309D01*
X155873943Y-108458000D01*
X155846236Y-108176691D01*
X155764182Y-107906192D01*
X155630932Y-107656899D01*
X155451608Y-107438392D01*
X155233101Y-107259068D01*
X155100142Y-107188000D01*
X155233101Y-107116932D01*
X155451608Y-106937608D01*
X155630932Y-106719101D01*
X155764182Y-106469808D01*
X155846236Y-106199309D01*
X155873943Y-105918000D01*
X155846236Y-105636691D01*
X155764182Y-105366192D01*
X155630932Y-105116899D01*
X155451608Y-104898392D01*
X155233101Y-104719068D01*
X155100142Y-104648000D01*
X155233101Y-104576932D01*
X155451608Y-104397608D01*
X155630932Y-104179101D01*
X155764182Y-103929808D01*
X155846236Y-103659309D01*
X155873943Y-103378000D01*
X155846236Y-103096691D01*
X155764182Y-102826192D01*
X155630932Y-102576899D01*
X155451608Y-102358392D01*
X155233101Y-102179068D01*
X155100142Y-102108000D01*
X155233101Y-102036932D01*
X155451608Y-101857608D01*
X155630932Y-101639101D01*
X155764182Y-101389808D01*
X155846236Y-101119309D01*
X155873943Y-100838000D01*
X155846236Y-100556691D01*
X155764182Y-100286192D01*
X155630932Y-100036899D01*
X155451608Y-99818392D01*
X155338518Y-99725581D01*
X155356482Y-99723812D01*
X155476180Y-99687502D01*
X155586494Y-99628537D01*
X155669563Y-99560364D01*
X158752000Y-102642802D01*
X158752001Y-113246668D01*
X158748324Y-113284000D01*
X158752001Y-113321333D01*
X158758393Y-113386226D01*
X158762998Y-113432985D01*
X158806454Y-113576246D01*
X158877026Y-113708276D01*
X158948201Y-113795002D01*
X158972000Y-113824001D01*
X159000998Y-113847799D01*
X162816000Y-117662802D01*
X162816000Y-118168319D01*
X162717180Y-118115498D01*
X162597482Y-118079188D01*
X162473000Y-118066928D01*
X161123000Y-118066928D01*
X160998518Y-118079188D01*
X160878820Y-118115498D01*
X160768506Y-118174463D01*
X160671815Y-118253815D01*
X160592463Y-118350506D01*
X160533498Y-118460820D01*
X160497188Y-118580518D01*
X160493299Y-118620000D01*
X144590270Y-118620000D01*
X144647909Y-118459040D01*
X144526624Y-118237000D01*
X143383000Y-118237000D01*
X143383000Y-118257000D01*
X143129000Y-118257000D01*
X143129000Y-118237000D01*
X143109000Y-118237000D01*
X143109000Y-117983000D01*
X143129000Y-117983000D01*
X143129000Y-116840085D01*
X143383000Y-116840085D01*
X143383000Y-117983000D01*
X144526624Y-117983000D01*
X144647909Y-117760960D01*
X144553070Y-117496119D01*
X144408385Y-117254869D01*
X144219414Y-117046481D01*
X143993420Y-116878963D01*
X143739087Y-116758754D01*
X143605039Y-116718096D01*
X143383000Y-116840085D01*
X143129000Y-116840085D01*
X142906961Y-116718096D01*
X142772913Y-116758754D01*
X142518580Y-116878963D01*
X142292586Y-117046481D01*
X142103615Y-117254869D01*
X141988579Y-117446682D01*
X141914932Y-117308899D01*
X141735608Y-117090392D01*
X141517101Y-116911068D01*
X141267808Y-116777818D01*
X140997309Y-116695764D01*
X140786492Y-116675000D01*
X140645508Y-116675000D01*
X140434691Y-116695764D01*
X140164192Y-116777818D01*
X139914899Y-116911068D01*
X139696392Y-117090392D01*
X139517068Y-117308899D01*
X139446000Y-117441858D01*
X139374932Y-117308899D01*
X139195608Y-117090392D01*
X138977101Y-116911068D01*
X138727808Y-116777818D01*
X138457309Y-116695764D01*
X138246492Y-116675000D01*
X138105508Y-116675000D01*
X137894691Y-116695764D01*
X137624192Y-116777818D01*
X137374899Y-116911068D01*
X137156392Y-117090392D01*
X136977068Y-117308899D01*
X136906000Y-117441858D01*
X136834932Y-117308899D01*
X136655608Y-117090392D01*
X136437101Y-116911068D01*
X136187808Y-116777818D01*
X135917309Y-116695764D01*
X135706492Y-116675000D01*
X135565508Y-116675000D01*
X135354691Y-116695764D01*
X135084192Y-116777818D01*
X134834899Y-116911068D01*
X134616392Y-117090392D01*
X134437068Y-117308899D01*
X134366000Y-117441858D01*
X134294932Y-117308899D01*
X134115608Y-117090392D01*
X133897101Y-116911068D01*
X133647808Y-116777818D01*
X133377309Y-116695764D01*
X133166492Y-116675000D01*
X133025508Y-116675000D01*
X132814691Y-116695764D01*
X132544192Y-116777818D01*
X132294899Y-116911068D01*
X132076392Y-117090392D01*
X131897068Y-117308899D01*
X131826000Y-117441858D01*
X131754932Y-117308899D01*
X131575608Y-117090392D01*
X131357101Y-116911068D01*
X131107808Y-116777818D01*
X130837309Y-116695764D01*
X130626492Y-116675000D01*
X130485508Y-116675000D01*
X130274691Y-116695764D01*
X130004192Y-116777818D01*
X129754899Y-116911068D01*
X129536392Y-117090392D01*
X129357068Y-117308899D01*
X129286000Y-117441858D01*
X129214932Y-117308899D01*
X129035608Y-117090392D01*
X128817101Y-116911068D01*
X128567808Y-116777818D01*
X128297309Y-116695764D01*
X128086492Y-116675000D01*
X127945508Y-116675000D01*
X127734691Y-116695764D01*
X127464192Y-116777818D01*
X127214899Y-116911068D01*
X126996392Y-117090392D01*
X126817068Y-117308899D01*
X126746000Y-117441858D01*
X126674932Y-117308899D01*
X126495608Y-117090392D01*
X126277101Y-116911068D01*
X126027808Y-116777818D01*
X125757309Y-116695764D01*
X125546492Y-116675000D01*
X125405508Y-116675000D01*
X125194691Y-116695764D01*
X124924192Y-116777818D01*
X124674899Y-116911068D01*
X124456392Y-117090392D01*
X124277068Y-117308899D01*
X124206000Y-117441858D01*
X124134932Y-117308899D01*
X123955608Y-117090392D01*
X123737101Y-116911068D01*
X123487808Y-116777818D01*
X123217309Y-116695764D01*
X123006492Y-116675000D01*
X122865508Y-116675000D01*
X122654691Y-116695764D01*
X122384192Y-116777818D01*
X122134899Y-116911068D01*
X121916392Y-117090392D01*
X121737068Y-117308899D01*
X121666000Y-117441858D01*
X121594932Y-117308899D01*
X121415608Y-117090392D01*
X121197101Y-116911068D01*
X120947808Y-116777818D01*
X120677309Y-116695764D01*
X120466492Y-116675000D01*
X120325508Y-116675000D01*
X120114691Y-116695764D01*
X119844192Y-116777818D01*
X119594899Y-116911068D01*
X119376392Y-117090392D01*
X119197068Y-117308899D01*
X119126000Y-117441858D01*
X119054932Y-117308899D01*
X118875608Y-117090392D01*
X118657101Y-116911068D01*
X118407808Y-116777818D01*
X118137309Y-116695764D01*
X117926492Y-116675000D01*
X117785508Y-116675000D01*
X117574691Y-116695764D01*
X117304192Y-116777818D01*
X117054899Y-116911068D01*
X116836392Y-117090392D01*
X116657068Y-117308899D01*
X116586000Y-117441858D01*
X116514932Y-117308899D01*
X116335608Y-117090392D01*
X116117101Y-116911068D01*
X115867808Y-116777818D01*
X115597309Y-116695764D01*
X115386492Y-116675000D01*
X115245508Y-116675000D01*
X115034691Y-116695764D01*
X114764192Y-116777818D01*
X114661001Y-116832975D01*
X114661001Y-111144326D01*
X114664677Y-111107001D01*
X114661001Y-111069676D01*
X114661001Y-111069668D01*
X114650004Y-110958015D01*
X114606547Y-110814754D01*
X114535975Y-110682725D01*
X114441002Y-110567000D01*
X114412005Y-110543203D01*
X113811000Y-109942199D01*
X113811000Y-109880061D01*
X113771226Y-109680102D01*
X113693205Y-109491744D01*
X113680013Y-109472000D01*
X117056678Y-109472000D01*
X117094000Y-109475676D01*
X117131322Y-109472000D01*
X117131333Y-109472000D01*
X117242986Y-109461003D01*
X117386247Y-109417546D01*
X117518276Y-109346974D01*
X117634001Y-109252001D01*
X117657804Y-109222997D01*
X122610094Y-104270708D01*
X122654691Y-104284236D01*
X122865508Y-104305000D01*
X123006492Y-104305000D01*
X123217309Y-104284236D01*
X123487808Y-104202182D01*
X123737101Y-104068932D01*
X123955608Y-103889608D01*
X124134932Y-103671101D01*
X124206000Y-103538142D01*
X124277068Y-103671101D01*
X124456392Y-103889608D01*
X124674899Y-104068932D01*
X124924192Y-104202182D01*
X125194691Y-104284236D01*
X125405508Y-104305000D01*
X125546492Y-104305000D01*
X125757309Y-104284236D01*
X125801907Y-104270708D01*
X136088201Y-114557003D01*
X136111999Y-114586001D01*
X136227724Y-114680974D01*
X136359753Y-114751546D01*
X136503014Y-114795003D01*
X136614667Y-114806000D01*
X136614675Y-114806000D01*
X136652000Y-114809676D01*
X136689325Y-114806000D01*
X144584289Y-114806000D01*
X144628226Y-114849937D01*
X144797744Y-114963205D01*
X144986102Y-115041226D01*
X145186061Y-115081000D01*
X145389939Y-115081000D01*
X145589898Y-115041226D01*
X145778256Y-114963205D01*
X145947774Y-114849937D01*
X146091937Y-114705774D01*
X146205205Y-114536256D01*
X146283226Y-114347898D01*
X146323000Y-114147939D01*
X146323000Y-113944061D01*
X146283226Y-113744102D01*
X146205205Y-113555744D01*
X146091937Y-113386226D01*
X145947774Y-113242063D01*
X145778256Y-113128795D01*
X145589898Y-113050774D01*
X145389939Y-113011000D01*
X145186061Y-113011000D01*
X144986102Y-113050774D01*
X144797744Y-113128795D01*
X144628226Y-113242063D01*
X144584289Y-113286000D01*
X136966802Y-113286000D01*
X127985801Y-104305000D01*
X128086492Y-104305000D01*
X128297309Y-104284236D01*
X128567808Y-104202182D01*
X128817101Y-104068932D01*
X129035608Y-103889608D01*
X129214932Y-103671101D01*
X129286000Y-103538142D01*
X129357068Y-103671101D01*
X129536392Y-103889608D01*
X129754899Y-104068932D01*
X130004192Y-104202182D01*
X130274691Y-104284236D01*
X130485508Y-104305000D01*
X130626492Y-104305000D01*
X130837309Y-104284236D01*
X131107808Y-104202182D01*
X131357101Y-104068932D01*
X131575608Y-103889608D01*
X131754932Y-103671101D01*
X131826000Y-103538142D01*
X131897068Y-103671101D01*
X132076392Y-103889608D01*
X132294899Y-104068932D01*
X132544192Y-104202182D01*
X132814691Y-104284236D01*
X133025508Y-104305000D01*
X133166492Y-104305000D01*
X133377309Y-104284236D01*
X133421907Y-104270708D01*
X139235174Y-110083976D01*
X139290795Y-110218256D01*
X139404063Y-110387774D01*
X139548226Y-110531937D01*
X139717744Y-110645205D01*
X139906102Y-110723226D01*
X140106061Y-110763000D01*
X140309939Y-110763000D01*
X140509898Y-110723226D01*
X140698256Y-110645205D01*
X140867774Y-110531937D01*
X141011937Y-110387774D01*
X141125205Y-110218256D01*
X141203226Y-110029898D01*
X141243000Y-109829939D01*
X141243000Y-109626061D01*
X141203226Y-109426102D01*
X141125205Y-109237744D01*
X141011937Y-109068226D01*
X140910333Y-108966622D01*
X141017898Y-108945226D01*
X141206256Y-108867205D01*
X141375774Y-108753937D01*
X141519937Y-108609774D01*
X141633205Y-108440256D01*
X141711226Y-108251898D01*
X141751000Y-108051939D01*
X141751000Y-107848061D01*
X141724533Y-107715000D01*
X141833939Y-107715000D01*
X142033898Y-107675226D01*
X142222256Y-107597205D01*
X142391774Y-107483937D01*
X142535937Y-107339774D01*
X142649205Y-107170256D01*
X142727226Y-106981898D01*
X142767000Y-106781939D01*
X142767000Y-106578061D01*
X142727226Y-106378102D01*
X142649205Y-106189744D01*
X142535937Y-106020226D01*
X142391774Y-105876063D01*
X142222256Y-105762795D01*
X142087978Y-105707175D01*
X140685802Y-104305000D01*
X140786492Y-104305000D01*
X140997309Y-104284236D01*
X141267808Y-104202182D01*
X141517101Y-104068932D01*
X141735608Y-103889608D01*
X141914932Y-103671101D01*
X141986000Y-103538142D01*
X142057068Y-103671101D01*
X142236392Y-103889608D01*
X142454899Y-104068932D01*
X142704192Y-104202182D01*
X142974691Y-104284236D01*
X143185508Y-104305000D01*
X143326492Y-104305000D01*
X143537309Y-104284236D01*
X143807808Y-104202182D01*
X144057101Y-104068932D01*
X144275608Y-103889608D01*
X144454932Y-103671101D01*
X144588182Y-103421808D01*
X144670236Y-103151309D01*
X144697943Y-102870000D01*
X144670236Y-102588691D01*
X144656708Y-102544094D01*
X145094803Y-102106000D01*
X145250678Y-102106000D01*
X145288000Y-102109676D01*
X145325322Y-102106000D01*
X145325333Y-102106000D01*
X145436986Y-102095003D01*
X145580247Y-102051546D01*
X145712276Y-101980974D01*
X145828001Y-101886001D01*
X145851804Y-101856997D01*
X150879003Y-96829799D01*
X150908001Y-96806001D01*
X150948826Y-96756256D01*
X151002974Y-96690277D01*
X151073546Y-96558247D01*
X151097869Y-96478063D01*
X151117003Y-96414986D01*
X151128000Y-96303333D01*
X151128000Y-96303323D01*
X151131676Y-96266000D01*
X151128000Y-96228677D01*
X151128000Y-80555325D01*
X151131676Y-80518000D01*
X151128000Y-80480675D01*
X151128000Y-80480667D01*
X151117003Y-80369014D01*
X151073546Y-80225753D01*
X151002974Y-80093724D01*
X150908001Y-79977999D01*
X150879004Y-79954202D01*
X147121804Y-76197003D01*
X147098001Y-76167999D01*
X146982276Y-76073026D01*
X146850247Y-76002454D01*
X146706986Y-75958997D01*
X146595333Y-75948000D01*
X146595322Y-75948000D01*
X146558000Y-75944324D01*
X146520678Y-75948000D01*
X144476901Y-75948000D01*
X144454932Y-75906899D01*
X144275608Y-75688392D01*
X144057101Y-75509068D01*
X143807808Y-75375818D01*
X143537309Y-75293764D01*
X143326492Y-75273000D01*
X143185508Y-75273000D01*
X142974691Y-75293764D01*
X142704192Y-75375818D01*
X142454899Y-75509068D01*
X142236392Y-75688392D01*
X142057068Y-75906899D01*
X141986000Y-76039858D01*
X141914932Y-75906899D01*
X141735608Y-75688392D01*
X141517101Y-75509068D01*
X141267808Y-75375818D01*
X140997309Y-75293764D01*
X140786492Y-75273000D01*
X140645508Y-75273000D01*
X140434691Y-75293764D01*
X140164192Y-75375818D01*
X139914899Y-75509068D01*
X139696392Y-75688392D01*
X139517068Y-75906899D01*
X139446000Y-76039858D01*
X139374932Y-75906899D01*
X139195608Y-75688392D01*
X138977101Y-75509068D01*
X138727808Y-75375818D01*
X138457309Y-75293764D01*
X138246492Y-75273000D01*
X138105508Y-75273000D01*
X137894691Y-75293764D01*
X137624192Y-75375818D01*
X137374899Y-75509068D01*
X137156392Y-75688392D01*
X136977068Y-75906899D01*
X136906000Y-76039858D01*
X136834932Y-75906899D01*
X136655608Y-75688392D01*
X136437101Y-75509068D01*
X136187808Y-75375818D01*
X135917309Y-75293764D01*
X135706492Y-75273000D01*
X135565508Y-75273000D01*
X135354691Y-75293764D01*
X135084192Y-75375818D01*
X134834899Y-75509068D01*
X134616392Y-75688392D01*
X134437068Y-75906899D01*
X134366000Y-76039858D01*
X134294932Y-75906899D01*
X134115608Y-75688392D01*
X133897101Y-75509068D01*
X133647808Y-75375818D01*
X133377309Y-75293764D01*
X133166492Y-75273000D01*
X133025508Y-75273000D01*
X132814691Y-75293764D01*
X132544192Y-75375818D01*
X132294899Y-75509068D01*
X132076392Y-75688392D01*
X131897068Y-75906899D01*
X131826000Y-76039858D01*
X131754932Y-75906899D01*
X131575608Y-75688392D01*
X131357101Y-75509068D01*
X131107808Y-75375818D01*
X130837309Y-75293764D01*
X130626492Y-75273000D01*
X130485508Y-75273000D01*
X130274691Y-75293764D01*
X130004192Y-75375818D01*
X129754899Y-75509068D01*
X129536392Y-75688392D01*
X129357068Y-75906899D01*
X129286000Y-76039858D01*
X129214932Y-75906899D01*
X129035608Y-75688392D01*
X128817101Y-75509068D01*
X128567808Y-75375818D01*
X128297309Y-75293764D01*
X128086492Y-75273000D01*
X127945508Y-75273000D01*
X127734691Y-75293764D01*
X127464192Y-75375818D01*
X127214899Y-75509068D01*
X126996392Y-75688392D01*
X126817068Y-75906899D01*
X126746000Y-76039858D01*
X126674932Y-75906899D01*
X126495608Y-75688392D01*
X126277101Y-75509068D01*
X126027808Y-75375818D01*
X125757309Y-75293764D01*
X125546492Y-75273000D01*
X125405508Y-75273000D01*
X125194691Y-75293764D01*
X124924192Y-75375818D01*
X124674899Y-75509068D01*
X124456392Y-75688392D01*
X124277068Y-75906899D01*
X124206000Y-76039858D01*
X124134932Y-75906899D01*
X123955608Y-75688392D01*
X123737101Y-75509068D01*
X123487808Y-75375818D01*
X123217309Y-75293764D01*
X123006492Y-75273000D01*
X122865508Y-75273000D01*
X122654691Y-75293764D01*
X122384192Y-75375818D01*
X122134899Y-75509068D01*
X121916392Y-75688392D01*
X121737068Y-75906899D01*
X121666000Y-76039858D01*
X121594932Y-75906899D01*
X121415608Y-75688392D01*
X121197101Y-75509068D01*
X120947808Y-75375818D01*
X120677309Y-75293764D01*
X120466492Y-75273000D01*
X120325508Y-75273000D01*
X120114691Y-75293764D01*
X119844192Y-75375818D01*
X119594899Y-75509068D01*
X119376392Y-75688392D01*
X119197068Y-75906899D01*
X119126000Y-76039858D01*
X119054932Y-75906899D01*
X118875608Y-75688392D01*
X118657101Y-75509068D01*
X118407808Y-75375818D01*
X118137309Y-75293764D01*
X117926492Y-75273000D01*
X117785508Y-75273000D01*
X117574691Y-75293764D01*
X117304192Y-75375818D01*
X117054899Y-75509068D01*
X116836392Y-75688392D01*
X116657068Y-75906899D01*
X116586000Y-76039858D01*
X116514932Y-75906899D01*
X116335608Y-75688392D01*
X116117101Y-75509068D01*
X115867808Y-75375818D01*
X115597309Y-75293764D01*
X115386492Y-75273000D01*
X115245508Y-75273000D01*
X115034691Y-75293764D01*
X114764192Y-75375818D01*
X114514899Y-75509068D01*
X114296392Y-75688392D01*
X114117068Y-75906899D01*
X114046000Y-76039858D01*
X113974932Y-75906899D01*
X113795608Y-75688392D01*
X113577101Y-75509068D01*
X113327808Y-75375818D01*
X113057309Y-75293764D01*
X112846492Y-75273000D01*
X112705508Y-75273000D01*
X112494691Y-75293764D01*
X112224192Y-75375818D01*
X111974899Y-75509068D01*
X111756392Y-75688392D01*
X111577068Y-75906899D01*
X111506000Y-76039858D01*
X111434932Y-75906899D01*
X111255608Y-75688392D01*
X111037101Y-75509068D01*
X110787808Y-75375818D01*
X110517309Y-75293764D01*
X110306492Y-75273000D01*
X110165508Y-75273000D01*
X109954691Y-75293764D01*
X109684192Y-75375818D01*
X109434899Y-75509068D01*
X109216392Y-75688392D01*
X109037068Y-75906899D01*
X109015099Y-75948000D01*
X102653322Y-75948000D01*
X102615999Y-75944324D01*
X102578676Y-75948000D01*
X102578667Y-75948000D01*
X102467014Y-75958997D01*
X102323753Y-76002454D01*
X102191724Y-76073026D01*
X102075999Y-76167999D01*
X102052201Y-76196997D01*
X97787003Y-80462196D01*
X97757999Y-80485999D01*
X97710993Y-80543277D01*
X97663026Y-80601724D01*
X97619690Y-80682800D01*
X97592454Y-80733754D01*
X97548997Y-80877015D01*
X97538000Y-80988668D01*
X97538000Y-80988678D01*
X97534324Y-81026000D01*
X97538000Y-81063322D01*
X97538001Y-98514658D01*
X97538000Y-98514668D01*
X97538000Y-98514678D01*
X97534324Y-98552000D01*
X97538000Y-98589322D01*
X97538001Y-138900667D01*
X97534324Y-138938000D01*
X97538001Y-138975333D01*
X97544393Y-139040226D01*
X97548998Y-139086985D01*
X97592454Y-139230246D01*
X97663026Y-139362276D01*
X97717175Y-139428256D01*
X97758000Y-139478001D01*
X97786998Y-139501799D01*
X101327000Y-143041802D01*
X101327000Y-143103939D01*
X101366774Y-143303898D01*
X101444795Y-143492256D01*
X101558063Y-143661774D01*
X101702226Y-143805937D01*
X101871744Y-143919205D01*
X102060102Y-143997226D01*
X102260061Y-144037000D01*
X102463939Y-144037000D01*
X102514195Y-144027004D01*
X99057003Y-147484196D01*
X99027999Y-147507999D01*
X98972871Y-147575174D01*
X98933026Y-147623724D01*
X98913674Y-147659928D01*
X98768000Y-147659928D01*
X98643518Y-147672188D01*
X98523820Y-147708498D01*
X98413506Y-147767463D01*
X98316815Y-147846815D01*
X98237463Y-147943506D01*
X98178498Y-148053820D01*
X98142188Y-148173518D01*
X98129928Y-148298000D01*
X98129928Y-149898000D01*
X98142188Y-150022482D01*
X98178498Y-150142180D01*
X98237463Y-150252494D01*
X98316815Y-150349185D01*
X98413506Y-150428537D01*
X98523820Y-150487502D01*
X98643518Y-150523812D01*
X98768000Y-150536072D01*
X100368000Y-150536072D01*
X100492482Y-150523812D01*
X100612180Y-150487502D01*
X100722494Y-150428537D01*
X100819185Y-150349185D01*
X100898537Y-150252494D01*
X100957502Y-150142180D01*
X100993812Y-150022482D01*
X100995581Y-150004518D01*
X101088392Y-150117608D01*
X101306899Y-150296932D01*
X101556192Y-150430182D01*
X101826691Y-150512236D01*
X102037508Y-150533000D01*
X102178492Y-150533000D01*
X102389309Y-150512236D01*
X102659808Y-150430182D01*
X102909101Y-150296932D01*
X103127608Y-150117608D01*
X103306932Y-149899101D01*
X103378000Y-149766142D01*
X103449068Y-149899101D01*
X103628392Y-150117608D01*
X103846899Y-150296932D01*
X104096192Y-150430182D01*
X104366691Y-150512236D01*
X104577508Y-150533000D01*
X104718492Y-150533000D01*
X104929309Y-150512236D01*
X105199808Y-150430182D01*
X105449101Y-150296932D01*
X105667608Y-150117608D01*
X105846932Y-149899101D01*
X105918000Y-149766142D01*
X105989068Y-149899101D01*
X106168392Y-150117608D01*
X106386899Y-150296932D01*
X106636192Y-150430182D01*
X106906691Y-150512236D01*
X107117508Y-150533000D01*
X107258492Y-150533000D01*
X107469309Y-150512236D01*
X107739808Y-150430182D01*
X107989101Y-150296932D01*
X108207608Y-150117608D01*
X108386932Y-149899101D01*
X108458000Y-149766142D01*
X108529068Y-149899101D01*
X108708392Y-150117608D01*
X108926899Y-150296932D01*
X109176192Y-150430182D01*
X109446691Y-150512236D01*
X109657508Y-150533000D01*
X109798492Y-150533000D01*
X110009309Y-150512236D01*
X110279808Y-150430182D01*
X110529101Y-150296932D01*
X110747608Y-150117608D01*
X110926932Y-149899101D01*
X110998000Y-149766142D01*
X111069068Y-149899101D01*
X111248392Y-150117608D01*
X111466899Y-150296932D01*
X111716192Y-150430182D01*
X111986691Y-150512236D01*
X112197508Y-150533000D01*
X112338492Y-150533000D01*
X112549309Y-150512236D01*
X112819808Y-150430182D01*
X112922999Y-150375025D01*
X112923000Y-154539667D01*
X112919323Y-154576999D01*
X112923000Y-154614332D01*
X112933997Y-154725985D01*
X112938165Y-154739724D01*
X112977453Y-154869245D01*
X113048025Y-155001275D01*
X113119200Y-155088001D01*
X113142999Y-155117000D01*
X113171997Y-155140798D01*
X131441292Y-173410094D01*
X131427764Y-173454691D01*
X131400057Y-173736000D01*
X131427764Y-174017309D01*
X131509818Y-174287808D01*
X131643068Y-174537101D01*
X131822392Y-174755608D01*
X132040899Y-174934932D01*
X132290192Y-175068182D01*
X132560691Y-175150236D01*
X132771508Y-175171000D01*
X132912492Y-175171000D01*
X133123309Y-175150236D01*
X133393808Y-175068182D01*
X133643101Y-174934932D01*
X133861608Y-174755608D01*
X134040932Y-174537101D01*
X134174182Y-174287808D01*
X134256236Y-174017309D01*
X134283943Y-173736000D01*
X134268083Y-173574967D01*
X134509000Y-173574967D01*
X134509000Y-173897033D01*
X134571832Y-174212912D01*
X134695082Y-174510463D01*
X134874013Y-174778252D01*
X135101748Y-175005987D01*
X135369537Y-175184918D01*
X135667088Y-175308168D01*
X135982967Y-175371000D01*
X136305033Y-175371000D01*
X136620912Y-175308168D01*
X136918463Y-175184918D01*
X137186252Y-175005987D01*
X137413987Y-174778252D01*
X137592918Y-174510463D01*
X137716168Y-174212912D01*
X137779000Y-173897033D01*
X137779000Y-173574967D01*
X141009000Y-173574967D01*
X141009000Y-173897033D01*
X141071832Y-174212912D01*
X141195082Y-174510463D01*
X141374013Y-174778252D01*
X141601748Y-175005987D01*
X141869537Y-175184918D01*
X142167088Y-175308168D01*
X142482967Y-175371000D01*
X142805033Y-175371000D01*
X143120912Y-175308168D01*
X143418463Y-175184918D01*
X143686252Y-175005987D01*
X143913987Y-174778252D01*
X144092918Y-174510463D01*
X144216168Y-174212912D01*
X144279000Y-173897033D01*
X144279000Y-173574967D01*
X144216168Y-173259088D01*
X144092918Y-172961537D01*
X143913987Y-172693748D01*
X143686252Y-172466013D01*
X143418463Y-172287082D01*
X143120912Y-172163832D01*
X142805033Y-172101000D01*
X142482967Y-172101000D01*
X142167088Y-172163832D01*
X141869537Y-172287082D01*
X141601748Y-172466013D01*
X141374013Y-172693748D01*
X141195082Y-172961537D01*
X141071832Y-173259088D01*
X141009000Y-173574967D01*
X137779000Y-173574967D01*
X137716168Y-173259088D01*
X137592918Y-172961537D01*
X137413987Y-172693748D01*
X137186252Y-172466013D01*
X136918463Y-172287082D01*
X136620912Y-172163832D01*
X136305033Y-172101000D01*
X135982967Y-172101000D01*
X135667088Y-172163832D01*
X135369537Y-172287082D01*
X135101748Y-172466013D01*
X134874013Y-172693748D01*
X134695082Y-172961537D01*
X134571832Y-173259088D01*
X134509000Y-173574967D01*
X134268083Y-173574967D01*
X134256236Y-173454691D01*
X134174182Y-173184192D01*
X134040932Y-172934899D01*
X133861608Y-172716392D01*
X133643101Y-172537068D01*
X133393808Y-172403818D01*
X133123309Y-172321764D01*
X132912492Y-172301000D01*
X132771508Y-172301000D01*
X132560691Y-172321764D01*
X132516094Y-172335292D01*
X129457467Y-169276665D01*
X139535000Y-169276665D01*
X139535000Y-169559335D01*
X139590147Y-169836574D01*
X139698320Y-170097727D01*
X139855363Y-170332759D01*
X140055241Y-170532637D01*
X140290273Y-170689680D01*
X140551426Y-170797853D01*
X140828665Y-170853000D01*
X141111335Y-170853000D01*
X141388574Y-170797853D01*
X141649727Y-170689680D01*
X141884759Y-170532637D01*
X142084637Y-170332759D01*
X142241680Y-170097727D01*
X142349853Y-169836574D01*
X142405000Y-169559335D01*
X142405000Y-169276665D01*
X144361000Y-169276665D01*
X144361000Y-169559335D01*
X144416147Y-169836574D01*
X144524320Y-170097727D01*
X144681363Y-170332759D01*
X144881241Y-170532637D01*
X145116273Y-170689680D01*
X145377426Y-170797853D01*
X145654665Y-170853000D01*
X145937335Y-170853000D01*
X146214574Y-170797853D01*
X146475727Y-170689680D01*
X146710759Y-170532637D01*
X146910637Y-170332759D01*
X147067680Y-170097727D01*
X147175853Y-169836574D01*
X147231000Y-169559335D01*
X147231000Y-169276665D01*
X147175853Y-168999426D01*
X147067680Y-168738273D01*
X146910637Y-168503241D01*
X146710759Y-168303363D01*
X146475727Y-168146320D01*
X146214574Y-168038147D01*
X145937335Y-167983000D01*
X145654665Y-167983000D01*
X145377426Y-168038147D01*
X145116273Y-168146320D01*
X144881241Y-168303363D01*
X144681363Y-168503241D01*
X144524320Y-168738273D01*
X144416147Y-168999426D01*
X144361000Y-169276665D01*
X142405000Y-169276665D01*
X142349853Y-168999426D01*
X142241680Y-168738273D01*
X142084637Y-168503241D01*
X141884759Y-168303363D01*
X141649727Y-168146320D01*
X141388574Y-168038147D01*
X141111335Y-167983000D01*
X140828665Y-167983000D01*
X140551426Y-168038147D01*
X140290273Y-168146320D01*
X140055241Y-168303363D01*
X139855363Y-168503241D01*
X139698320Y-168738273D01*
X139590147Y-168999426D01*
X139535000Y-169276665D01*
X129457467Y-169276665D01*
X121978802Y-161798000D01*
X139528057Y-161798000D01*
X139555764Y-162079309D01*
X139637818Y-162349808D01*
X139771068Y-162599101D01*
X139950392Y-162817608D01*
X140168899Y-162996932D01*
X140418192Y-163130182D01*
X140688691Y-163212236D01*
X140899508Y-163233000D01*
X141040492Y-163233000D01*
X141251309Y-163212236D01*
X141521808Y-163130182D01*
X141771101Y-162996932D01*
X141989608Y-162817608D01*
X142168932Y-162599101D01*
X142302182Y-162349808D01*
X142379447Y-162095096D01*
X142452063Y-162203774D01*
X142496001Y-162247712D01*
X142496000Y-163284677D01*
X142492324Y-163322000D01*
X142496000Y-163359322D01*
X142496000Y-163359332D01*
X142506997Y-163470985D01*
X142542576Y-163588276D01*
X142550454Y-163614246D01*
X142621026Y-163746276D01*
X142660871Y-163794826D01*
X142715999Y-163862001D01*
X142745003Y-163885804D01*
X147809000Y-168949803D01*
X147809000Y-169011939D01*
X147848774Y-169211898D01*
X147926795Y-169400256D01*
X148040063Y-169569774D01*
X148184226Y-169713937D01*
X148353744Y-169827205D01*
X148542102Y-169905226D01*
X148742061Y-169945000D01*
X148945939Y-169945000D01*
X149145898Y-169905226D01*
X149334256Y-169827205D01*
X149503774Y-169713937D01*
X149647937Y-169569774D01*
X149761205Y-169400256D01*
X149839226Y-169211898D01*
X149879000Y-169011939D01*
X149879000Y-168808061D01*
X149839226Y-168608102D01*
X149761205Y-168419744D01*
X149647937Y-168250226D01*
X149503774Y-168106063D01*
X149334256Y-167992795D01*
X149145898Y-167914774D01*
X148945939Y-167875000D01*
X148883803Y-167875000D01*
X144016000Y-163007199D01*
X144016000Y-162247711D01*
X144059937Y-162203774D01*
X144173205Y-162034256D01*
X144251226Y-161845898D01*
X144260753Y-161798000D01*
X144354057Y-161798000D01*
X144381764Y-162079309D01*
X144463818Y-162349808D01*
X144597068Y-162599101D01*
X144776392Y-162817608D01*
X144994899Y-162996932D01*
X145244192Y-163130182D01*
X145514691Y-163212236D01*
X145725508Y-163233000D01*
X145866492Y-163233000D01*
X146077309Y-163212236D01*
X146347808Y-163130182D01*
X146597101Y-162996932D01*
X146815608Y-162817608D01*
X146994932Y-162599101D01*
X147128182Y-162349808D01*
X147210236Y-162079309D01*
X147237943Y-161798000D01*
X147210236Y-161516691D01*
X147128182Y-161246192D01*
X146994932Y-160996899D01*
X146815608Y-160778392D01*
X146597101Y-160599068D01*
X146347808Y-160465818D01*
X146077309Y-160383764D01*
X145866492Y-160363000D01*
X145725508Y-160363000D01*
X145514691Y-160383764D01*
X145244192Y-160465818D01*
X144994899Y-160599068D01*
X144776392Y-160778392D01*
X144597068Y-160996899D01*
X144463818Y-161246192D01*
X144381764Y-161516691D01*
X144354057Y-161798000D01*
X144260753Y-161798000D01*
X144291000Y-161645939D01*
X144291000Y-161442061D01*
X144251226Y-161242102D01*
X144173205Y-161053744D01*
X144059937Y-160884226D01*
X143915774Y-160740063D01*
X143746256Y-160626795D01*
X143557898Y-160548774D01*
X143357939Y-160509000D01*
X143154061Y-160509000D01*
X142954102Y-160548774D01*
X142765744Y-160626795D01*
X142596226Y-160740063D01*
X142452063Y-160884226D01*
X142338795Y-161053744D01*
X142277898Y-161200760D01*
X142168932Y-160996899D01*
X141989608Y-160778392D01*
X141771101Y-160599068D01*
X141521808Y-160465818D01*
X141251309Y-160383764D01*
X141040492Y-160363000D01*
X140899508Y-160363000D01*
X140688691Y-160383764D01*
X140418192Y-160465818D01*
X140168899Y-160599068D01*
X139950392Y-160778392D01*
X139771068Y-160996899D01*
X139637818Y-161246192D01*
X139555764Y-161516691D01*
X139528057Y-161798000D01*
X121978802Y-161798000D01*
X114442999Y-154262198D01*
X114442999Y-150486849D01*
X114526691Y-150512236D01*
X114737508Y-150533000D01*
X114878492Y-150533000D01*
X115089309Y-150512236D01*
X115133907Y-150498708D01*
X120594200Y-155959002D01*
X120617999Y-155988001D01*
X120646997Y-156011799D01*
X120733723Y-156082974D01*
X120865753Y-156153546D01*
X121009014Y-156197003D01*
X121120667Y-156208000D01*
X121120676Y-156208000D01*
X121157999Y-156211676D01*
X121195322Y-156208000D01*
X123201644Y-156208000D01*
X123171000Y-156362061D01*
X123171000Y-156565939D01*
X123210774Y-156765898D01*
X123288795Y-156954256D01*
X123402063Y-157123774D01*
X123546226Y-157267937D01*
X123715744Y-157381205D01*
X123904102Y-157459226D01*
X124104061Y-157499000D01*
X124307939Y-157499000D01*
X124507898Y-157459226D01*
X124696256Y-157381205D01*
X124865774Y-157267937D01*
X124909711Y-157224000D01*
X131329644Y-157224000D01*
X131299000Y-157378061D01*
X131299000Y-157581939D01*
X131338774Y-157781898D01*
X131416795Y-157970256D01*
X131530063Y-158139774D01*
X131674226Y-158283937D01*
X131843744Y-158397205D01*
X132032102Y-158475226D01*
X132232061Y-158515000D01*
X132435939Y-158515000D01*
X132635898Y-158475226D01*
X132824256Y-158397205D01*
X132993774Y-158283937D01*
X133037711Y-158240000D01*
X138441644Y-158240000D01*
X138411000Y-158394061D01*
X138411000Y-158597939D01*
X138441644Y-158752000D01*
X138117711Y-158752000D01*
X138073774Y-158708063D01*
X137904256Y-158594795D01*
X137715898Y-158516774D01*
X137515939Y-158477000D01*
X137312061Y-158477000D01*
X137112102Y-158516774D01*
X136923744Y-158594795D01*
X136754226Y-158708063D01*
X136610063Y-158852226D01*
X136496795Y-159021744D01*
X136418774Y-159210102D01*
X136379000Y-159410061D01*
X136379000Y-159613939D01*
X136418774Y-159813898D01*
X136496795Y-160002256D01*
X136610063Y-160171774D01*
X136754226Y-160315937D01*
X136923744Y-160429205D01*
X137112102Y-160507226D01*
X137312061Y-160547000D01*
X137515939Y-160547000D01*
X137715898Y-160507226D01*
X137904256Y-160429205D01*
X138073774Y-160315937D01*
X138117711Y-160272000D01*
X146497199Y-160272000D01*
X148550335Y-162325136D01*
X148542102Y-162326774D01*
X148353744Y-162404795D01*
X148184226Y-162518063D01*
X148040063Y-162662226D01*
X147926795Y-162831744D01*
X147848774Y-163020102D01*
X147809000Y-163220061D01*
X147809000Y-163423939D01*
X147848774Y-163623898D01*
X147926795Y-163812256D01*
X148040063Y-163981774D01*
X148184226Y-164125937D01*
X148353744Y-164239205D01*
X148542102Y-164317226D01*
X148742061Y-164357000D01*
X148804199Y-164357000D01*
X159710201Y-175263003D01*
X159733999Y-175292001D01*
X159762997Y-175315799D01*
X159849723Y-175386974D01*
X159924606Y-175427000D01*
X159981753Y-175457546D01*
X160125014Y-175501003D01*
X160236667Y-175512000D01*
X160236677Y-175512000D01*
X160273999Y-175515676D01*
X160311322Y-175512000D01*
X160493299Y-175512000D01*
X160497188Y-175551482D01*
X160533498Y-175671180D01*
X160592463Y-175781494D01*
X160671815Y-175878185D01*
X160760631Y-175951074D01*
X160703505Y-176020682D01*
X160581862Y-176248259D01*
X160506955Y-176495195D01*
X160481662Y-176752000D01*
X160506955Y-177008805D01*
X160581862Y-177255741D01*
X160703505Y-177483318D01*
X160867208Y-177682792D01*
X160951539Y-177752000D01*
X160867208Y-177821208D01*
X160703505Y-178020682D01*
X160581862Y-178248259D01*
X160506955Y-178495195D01*
X160481662Y-178752000D01*
X160506955Y-179008805D01*
X160581862Y-179255741D01*
X160703505Y-179483318D01*
X160867208Y-179682792D01*
X161066682Y-179846495D01*
X161294259Y-179968138D01*
X161541195Y-180043045D01*
X161733649Y-180062000D01*
X161862351Y-180062000D01*
X162054805Y-180043045D01*
X162301741Y-179968138D01*
X162529318Y-179846495D01*
X162728792Y-179682792D01*
X162892495Y-179483318D01*
X163014138Y-179255741D01*
X163089045Y-179008805D01*
X163114338Y-178752000D01*
X163089045Y-178495195D01*
X163014138Y-178248259D01*
X162892495Y-178020682D01*
X162728792Y-177821208D01*
X162644461Y-177752000D01*
X162728792Y-177682792D01*
X162892495Y-177483318D01*
X163014138Y-177255741D01*
X163089045Y-177008805D01*
X163114338Y-176752000D01*
X163089045Y-176495195D01*
X163014138Y-176248259D01*
X162892495Y-176020682D01*
X162835369Y-175951074D01*
X162924185Y-175878185D01*
X163003537Y-175781494D01*
X163062502Y-175671180D01*
X163098812Y-175551482D01*
X163111072Y-175427000D01*
X163111072Y-174077000D01*
X163098812Y-173952518D01*
X163062502Y-173832820D01*
X163003537Y-173722506D01*
X162924185Y-173625815D01*
X162827494Y-173546463D01*
X162717180Y-173487498D01*
X162597482Y-173451188D01*
X162473000Y-173438928D01*
X161123000Y-173438928D01*
X160998518Y-173451188D01*
X160878820Y-173487498D01*
X160768506Y-173546463D01*
X160671815Y-173625815D01*
X160592463Y-173722506D01*
X160533498Y-173832820D01*
X160509321Y-173912519D01*
X152459363Y-165862561D01*
X152552061Y-165881000D01*
X152755939Y-165881000D01*
X152955898Y-165841226D01*
X153144256Y-165763205D01*
X153313774Y-165649937D01*
X153457937Y-165505774D01*
X153571205Y-165336256D01*
X153649226Y-165147898D01*
X153689000Y-164947939D01*
X153689000Y-164744061D01*
X153649226Y-164544102D01*
X153571205Y-164355744D01*
X153457937Y-164186226D01*
X153313774Y-164042063D01*
X153144256Y-163928795D01*
X152955898Y-163850774D01*
X152755939Y-163811000D01*
X152552061Y-163811000D01*
X152489288Y-163823486D01*
X151731801Y-163066000D01*
X153700199Y-163066000D01*
X160309201Y-169675003D01*
X160332999Y-169704001D01*
X160361997Y-169727799D01*
X160448724Y-169798974D01*
X160484928Y-169818326D01*
X160484928Y-169839000D01*
X160497188Y-169963482D01*
X160533498Y-170083180D01*
X160592463Y-170193494D01*
X160671815Y-170290185D01*
X160768506Y-170369537D01*
X160878820Y-170428502D01*
X160998518Y-170464812D01*
X161123000Y-170477072D01*
X162473000Y-170477072D01*
X162597482Y-170464812D01*
X162717180Y-170428502D01*
X162827494Y-170369537D01*
X162924185Y-170290185D01*
X163003537Y-170193494D01*
X163062502Y-170083180D01*
X163098812Y-169963482D01*
X163111072Y-169839000D01*
X163111072Y-168489000D01*
X163098812Y-168364518D01*
X163062502Y-168244820D01*
X163003537Y-168134506D01*
X162924185Y-168037815D01*
X162835369Y-167964926D01*
X162892495Y-167895318D01*
X163014138Y-167667741D01*
X163089045Y-167420805D01*
X163114338Y-167164000D01*
X163089045Y-166907195D01*
X163014138Y-166660259D01*
X162892495Y-166432682D01*
X162728792Y-166233208D01*
X162644461Y-166164000D01*
X162728792Y-166094792D01*
X162892495Y-165895318D01*
X163014138Y-165667741D01*
X163089045Y-165420805D01*
X163114338Y-165164000D01*
X163089045Y-164907195D01*
X163014138Y-164660259D01*
X162892495Y-164432682D01*
X162728792Y-164233208D01*
X162644461Y-164164000D01*
X162728792Y-164094792D01*
X162892495Y-163895318D01*
X163014138Y-163667741D01*
X163089045Y-163420805D01*
X163114338Y-163164000D01*
X163089045Y-162907195D01*
X163014138Y-162660259D01*
X162892495Y-162432682D01*
X162728792Y-162233208D01*
X162644461Y-162164000D01*
X162728792Y-162094792D01*
X162892495Y-161895318D01*
X163014138Y-161667741D01*
X163089045Y-161420805D01*
X163114338Y-161164000D01*
X163089045Y-160907195D01*
X163014138Y-160660259D01*
X162892495Y-160432682D01*
X162728792Y-160233208D01*
X162644461Y-160164000D01*
X162728792Y-160094792D01*
X162892495Y-159895318D01*
X163014138Y-159667741D01*
X163089045Y-159420805D01*
X163114338Y-159164000D01*
X163089045Y-158907195D01*
X163014138Y-158660259D01*
X162892495Y-158432682D01*
X162728792Y-158233208D01*
X162644461Y-158164000D01*
X162728792Y-158094792D01*
X162892495Y-157895318D01*
X163014138Y-157667741D01*
X163089045Y-157420805D01*
X163114338Y-157164000D01*
X163089045Y-156907195D01*
X163014138Y-156660259D01*
X162892495Y-156432682D01*
X162728792Y-156233208D01*
X162644461Y-156164000D01*
X162728792Y-156094792D01*
X162892495Y-155895318D01*
X163014138Y-155667741D01*
X163089045Y-155420805D01*
X163114338Y-155164000D01*
X163089045Y-154907195D01*
X163014138Y-154660259D01*
X162892495Y-154432682D01*
X162728792Y-154233208D01*
X162529318Y-154069505D01*
X162301741Y-153947862D01*
X162054805Y-153872955D01*
X161862351Y-153854000D01*
X161733649Y-153854000D01*
X161541195Y-153872955D01*
X161294259Y-153947862D01*
X161066682Y-154069505D01*
X160867208Y-154233208D01*
X160727044Y-154404000D01*
X154597711Y-154404000D01*
X154553774Y-154360063D01*
X154384256Y-154246795D01*
X154195898Y-154168774D01*
X153995939Y-154129000D01*
X153792061Y-154129000D01*
X153592102Y-154168774D01*
X153403744Y-154246795D01*
X153234226Y-154360063D01*
X153190289Y-154404000D01*
X151922802Y-154404000D01*
X149826523Y-152307722D01*
X149842256Y-152301205D01*
X150011774Y-152187937D01*
X150155937Y-152043774D01*
X150182068Y-152004665D01*
X150711000Y-152004665D01*
X150711000Y-152287335D01*
X150766147Y-152564574D01*
X150874320Y-152825727D01*
X151031363Y-153060759D01*
X151231241Y-153260637D01*
X151466273Y-153417680D01*
X151727426Y-153525853D01*
X152004665Y-153581000D01*
X152287335Y-153581000D01*
X152564574Y-153525853D01*
X152825727Y-153417680D01*
X153060759Y-153260637D01*
X153260637Y-153060759D01*
X153417680Y-152825727D01*
X153525853Y-152564574D01*
X153581000Y-152287335D01*
X153581000Y-152004665D01*
X153525853Y-151727426D01*
X153417680Y-151466273D01*
X153260637Y-151231241D01*
X153060759Y-151031363D01*
X152825727Y-150874320D01*
X152564574Y-150766147D01*
X152287335Y-150711000D01*
X152004665Y-150711000D01*
X151727426Y-150766147D01*
X151466273Y-150874320D01*
X151231241Y-151031363D01*
X151031363Y-151231241D01*
X150874320Y-151466273D01*
X150766147Y-151727426D01*
X150711000Y-152004665D01*
X150182068Y-152004665D01*
X150269205Y-151874256D01*
X150347226Y-151685898D01*
X150387000Y-151485939D01*
X150387000Y-151282061D01*
X150347226Y-151082102D01*
X150269205Y-150893744D01*
X150155937Y-150724226D01*
X150011774Y-150580063D01*
X149842256Y-150466795D01*
X149653898Y-150388774D01*
X149453939Y-150349000D01*
X149250061Y-150349000D01*
X149050102Y-150388774D01*
X148861744Y-150466795D01*
X148692226Y-150580063D01*
X148648289Y-150624000D01*
X147261711Y-150624000D01*
X147217774Y-150580063D01*
X147048256Y-150466795D01*
X146859898Y-150388774D01*
X146659939Y-150349000D01*
X146456061Y-150349000D01*
X146256102Y-150388774D01*
X146067744Y-150466795D01*
X145898226Y-150580063D01*
X145754063Y-150724226D01*
X145640795Y-150893744D01*
X145562774Y-151082102D01*
X145523000Y-151282061D01*
X145523000Y-151485939D01*
X145553644Y-151640000D01*
X133664802Y-151640000D01*
X132557802Y-150533000D01*
X132658492Y-150533000D01*
X132869309Y-150512236D01*
X133139808Y-150430182D01*
X133389101Y-150296932D01*
X133607608Y-150117608D01*
X133786932Y-149899101D01*
X133858000Y-149766142D01*
X133929068Y-149899101D01*
X134108392Y-150117608D01*
X134326899Y-150296932D01*
X134576192Y-150430182D01*
X134846691Y-150512236D01*
X135057508Y-150533000D01*
X135198492Y-150533000D01*
X135409309Y-150512236D01*
X135679808Y-150430182D01*
X135929101Y-150296932D01*
X136147608Y-150117608D01*
X136326932Y-149899101D01*
X136398000Y-149766142D01*
X136469068Y-149899101D01*
X136648392Y-150117608D01*
X136866899Y-150296932D01*
X137116192Y-150430182D01*
X137386691Y-150512236D01*
X137597508Y-150533000D01*
X137738492Y-150533000D01*
X137949309Y-150512236D01*
X138219808Y-150430182D01*
X138469101Y-150296932D01*
X138687608Y-150117608D01*
X138866932Y-149899101D01*
X138938000Y-149766142D01*
X139009068Y-149899101D01*
X139188392Y-150117608D01*
X139406899Y-150296932D01*
X139656192Y-150430182D01*
X139926691Y-150512236D01*
X140137508Y-150533000D01*
X140278492Y-150533000D01*
X140489309Y-150512236D01*
X140759808Y-150430182D01*
X141009101Y-150296932D01*
X141227608Y-150117608D01*
X141406932Y-149899101D01*
X141478000Y-149766142D01*
X141549068Y-149899101D01*
X141728392Y-150117608D01*
X141946899Y-150296932D01*
X142196192Y-150430182D01*
X142466691Y-150512236D01*
X142677508Y-150533000D01*
X142818492Y-150533000D01*
X143029309Y-150512236D01*
X143299808Y-150430182D01*
X143549101Y-150296932D01*
X143767608Y-150117608D01*
X143946932Y-149899101D01*
X144018000Y-149766142D01*
X144089068Y-149899101D01*
X144268392Y-150117608D01*
X144486899Y-150296932D01*
X144736192Y-150430182D01*
X145006691Y-150512236D01*
X145217508Y-150533000D01*
X145358492Y-150533000D01*
X145569309Y-150512236D01*
X145839808Y-150430182D01*
X146089101Y-150296932D01*
X146307608Y-150117608D01*
X146486932Y-149899101D01*
X146558000Y-149766142D01*
X146629068Y-149899101D01*
X146808392Y-150117608D01*
X147026899Y-150296932D01*
X147276192Y-150430182D01*
X147546691Y-150512236D01*
X147757508Y-150533000D01*
X147898492Y-150533000D01*
X148109309Y-150512236D01*
X148379808Y-150430182D01*
X148629101Y-150296932D01*
X148847608Y-150117608D01*
X149026932Y-149899101D01*
X149160182Y-149649808D01*
X149242236Y-149379309D01*
X149269943Y-149098000D01*
X149242236Y-148816691D01*
X149160182Y-148546192D01*
X149026932Y-148296899D01*
X148847608Y-148078392D01*
X148629101Y-147899068D01*
X148379808Y-147765818D01*
X148109309Y-147683764D01*
X147898492Y-147663000D01*
X147757508Y-147663000D01*
X147546691Y-147683764D01*
X147276192Y-147765818D01*
X147026899Y-147899068D01*
X146808392Y-148078392D01*
X146629068Y-148296899D01*
X146558000Y-148429858D01*
X146486932Y-148296899D01*
X146307608Y-148078392D01*
X146089101Y-147899068D01*
X145839808Y-147765818D01*
X145569309Y-147683764D01*
X145358492Y-147663000D01*
X145217508Y-147663000D01*
X145006691Y-147683764D01*
X144736192Y-147765818D01*
X144486899Y-147899068D01*
X144268392Y-148078392D01*
X144089068Y-148296899D01*
X144018000Y-148429858D01*
X143946932Y-148296899D01*
X143767608Y-148078392D01*
X143549101Y-147899068D01*
X143299808Y-147765818D01*
X143029309Y-147683764D01*
X142818492Y-147663000D01*
X142677508Y-147663000D01*
X142466691Y-147683764D01*
X142196192Y-147765818D01*
X141946899Y-147899068D01*
X141728392Y-148078392D01*
X141549068Y-148296899D01*
X141478000Y-148429858D01*
X141406932Y-148296899D01*
X141227608Y-148078392D01*
X141009101Y-147899068D01*
X140759808Y-147765818D01*
X140489309Y-147683764D01*
X140278492Y-147663000D01*
X140137508Y-147663000D01*
X139926691Y-147683764D01*
X139656192Y-147765818D01*
X139406899Y-147899068D01*
X139188392Y-148078392D01*
X139009068Y-148296899D01*
X138938000Y-148429858D01*
X138866932Y-148296899D01*
X138687608Y-148078392D01*
X138469101Y-147899068D01*
X138219808Y-147765818D01*
X137949309Y-147683764D01*
X137738492Y-147663000D01*
X137597508Y-147663000D01*
X137386691Y-147683764D01*
X137116192Y-147765818D01*
X136866899Y-147899068D01*
X136648392Y-148078392D01*
X136469068Y-148296899D01*
X136398000Y-148429858D01*
X136326932Y-148296899D01*
X136147608Y-148078392D01*
X135929101Y-147899068D01*
X135679808Y-147765818D01*
X135409309Y-147683764D01*
X135198492Y-147663000D01*
X135057508Y-147663000D01*
X134846691Y-147683764D01*
X134576192Y-147765818D01*
X134326899Y-147899068D01*
X134108392Y-148078392D01*
X133929068Y-148296899D01*
X133858000Y-148429858D01*
X133786932Y-148296899D01*
X133607608Y-148078392D01*
X133389101Y-147899068D01*
X133139808Y-147765818D01*
X132869309Y-147683764D01*
X132658492Y-147663000D01*
X132517508Y-147663000D01*
X132306691Y-147683764D01*
X132036192Y-147765818D01*
X131786899Y-147899068D01*
X131568392Y-148078392D01*
X131389068Y-148296899D01*
X131318000Y-148429858D01*
X131246932Y-148296899D01*
X131067608Y-148078392D01*
X130849101Y-147899068D01*
X130599808Y-147765818D01*
X130329309Y-147683764D01*
X130118492Y-147663000D01*
X130017801Y-147663000D01*
X132648802Y-145032000D01*
X136964289Y-145032000D01*
X137008226Y-145075937D01*
X137177744Y-145189205D01*
X137366102Y-145267226D01*
X137566061Y-145307000D01*
X137769939Y-145307000D01*
X137969898Y-145267226D01*
X138158256Y-145189205D01*
X138327774Y-145075937D01*
X138471937Y-144931774D01*
X138585205Y-144762256D01*
X138663226Y-144573898D01*
X138672753Y-144526000D01*
X150704057Y-144526000D01*
X150731764Y-144807309D01*
X150813818Y-145077808D01*
X150947068Y-145327101D01*
X151126392Y-145545608D01*
X151344899Y-145724932D01*
X151594192Y-145858182D01*
X151864691Y-145940236D01*
X152075508Y-145961000D01*
X152216492Y-145961000D01*
X152427309Y-145940236D01*
X152697808Y-145858182D01*
X152947101Y-145724932D01*
X153165608Y-145545608D01*
X153344932Y-145327101D01*
X153478182Y-145077808D01*
X153560236Y-144807309D01*
X153587943Y-144526000D01*
X153560236Y-144244691D01*
X153478182Y-143974192D01*
X153344932Y-143724899D01*
X153165608Y-143506392D01*
X152947101Y-143327068D01*
X152697808Y-143193818D01*
X152427309Y-143111764D01*
X152216492Y-143091000D01*
X152075508Y-143091000D01*
X151864691Y-143111764D01*
X151594192Y-143193818D01*
X151344899Y-143327068D01*
X151126392Y-143506392D01*
X150947068Y-143724899D01*
X150813818Y-143974192D01*
X150731764Y-144244691D01*
X150704057Y-144526000D01*
X138672753Y-144526000D01*
X138703000Y-144373939D01*
X138703000Y-144170061D01*
X138663226Y-143970102D01*
X138585205Y-143781744D01*
X138471937Y-143612226D01*
X138327774Y-143468063D01*
X138158256Y-143354795D01*
X137969898Y-143276774D01*
X137769939Y-143237000D01*
X137566061Y-143237000D01*
X137366102Y-143276774D01*
X137177744Y-143354795D01*
X137008226Y-143468063D01*
X136964289Y-143512000D01*
X136132356Y-143512000D01*
X136163000Y-143357939D01*
X136163000Y-143154061D01*
X136123226Y-142954102D01*
X136045205Y-142765744D01*
X136032013Y-142746000D01*
X154089199Y-142746000D01*
X160503318Y-149160120D01*
X160481662Y-149380000D01*
X160506955Y-149636805D01*
X160581862Y-149883741D01*
X160703505Y-150111318D01*
X160867208Y-150310792D01*
X161066682Y-150474495D01*
X161294259Y-150596138D01*
X161541195Y-150671045D01*
X161733649Y-150690000D01*
X161862351Y-150690000D01*
X162054805Y-150671045D01*
X162301741Y-150596138D01*
X162529318Y-150474495D01*
X162728792Y-150310792D01*
X162892495Y-150111318D01*
X163014138Y-149883741D01*
X163089045Y-149636805D01*
X163114338Y-149380000D01*
X163092682Y-149160120D01*
X163678001Y-148574801D01*
X163678001Y-181204000D01*
X96164000Y-181204000D01*
X96164000Y-179371413D01*
X135188192Y-179371413D01*
X135283956Y-179635814D01*
X135573571Y-179776704D01*
X135885108Y-179858384D01*
X136206595Y-179877718D01*
X136525675Y-179833961D01*
X136830088Y-179728795D01*
X137004044Y-179635814D01*
X137099808Y-179371413D01*
X141688192Y-179371413D01*
X141783956Y-179635814D01*
X142073571Y-179776704D01*
X142385108Y-179858384D01*
X142706595Y-179877718D01*
X143025675Y-179833961D01*
X143330088Y-179728795D01*
X143504044Y-179635814D01*
X143599808Y-179371413D01*
X142644000Y-178415605D01*
X141688192Y-179371413D01*
X137099808Y-179371413D01*
X136144000Y-178415605D01*
X135188192Y-179371413D01*
X96164000Y-179371413D01*
X96164000Y-178298595D01*
X134502282Y-178298595D01*
X134546039Y-178617675D01*
X134651205Y-178922088D01*
X134744186Y-179096044D01*
X135008587Y-179191808D01*
X135964395Y-178236000D01*
X136323605Y-178236000D01*
X137279413Y-179191808D01*
X137543814Y-179096044D01*
X137684704Y-178806429D01*
X137766384Y-178494892D01*
X137778189Y-178298595D01*
X141002282Y-178298595D01*
X141046039Y-178617675D01*
X141151205Y-178922088D01*
X141244186Y-179096044D01*
X141508587Y-179191808D01*
X142464395Y-178236000D01*
X142823605Y-178236000D01*
X143779413Y-179191808D01*
X144043814Y-179096044D01*
X144180047Y-178816000D01*
X151115662Y-178816000D01*
X151140955Y-179072805D01*
X151215862Y-179319741D01*
X151337505Y-179547318D01*
X151501208Y-179746792D01*
X151700682Y-179910495D01*
X151928259Y-180032138D01*
X152175195Y-180107045D01*
X152367649Y-180126000D01*
X152496351Y-180126000D01*
X152688805Y-180107045D01*
X152935741Y-180032138D01*
X153163318Y-179910495D01*
X153232926Y-179853369D01*
X153305815Y-179942185D01*
X153402506Y-180021537D01*
X153512820Y-180080502D01*
X153632518Y-180116812D01*
X153757000Y-180129072D01*
X154146250Y-180126000D01*
X154305000Y-179967250D01*
X154305000Y-178943000D01*
X154559000Y-178943000D01*
X154559000Y-179967250D01*
X154717750Y-180126000D01*
X155107000Y-180129072D01*
X155231482Y-180116812D01*
X155351180Y-180080502D01*
X155461494Y-180021537D01*
X155558185Y-179942185D01*
X155637537Y-179845494D01*
X155696502Y-179735180D01*
X155732812Y-179615482D01*
X155745072Y-179491000D01*
X155742000Y-179101750D01*
X155583250Y-178943000D01*
X154559000Y-178943000D01*
X154305000Y-178943000D01*
X154285000Y-178943000D01*
X154285000Y-178689000D01*
X154305000Y-178689000D01*
X154305000Y-177664750D01*
X154559000Y-177664750D01*
X154559000Y-178689000D01*
X155583250Y-178689000D01*
X155742000Y-178530250D01*
X155745072Y-178141000D01*
X155732812Y-178016518D01*
X155696502Y-177896820D01*
X155637537Y-177786506D01*
X155558185Y-177689815D01*
X155461494Y-177610463D01*
X155351180Y-177551498D01*
X155231482Y-177515188D01*
X155107000Y-177502928D01*
X154717750Y-177506000D01*
X154559000Y-177664750D01*
X154305000Y-177664750D01*
X154146250Y-177506000D01*
X153757000Y-177502928D01*
X153632518Y-177515188D01*
X153512820Y-177551498D01*
X153402506Y-177610463D01*
X153305815Y-177689815D01*
X153232926Y-177778631D01*
X153163318Y-177721505D01*
X152935741Y-177599862D01*
X152688805Y-177524955D01*
X152496351Y-177506000D01*
X152367649Y-177506000D01*
X152175195Y-177524955D01*
X151928259Y-177599862D01*
X151700682Y-177721505D01*
X151501208Y-177885208D01*
X151337505Y-178084682D01*
X151215862Y-178312259D01*
X151140955Y-178559195D01*
X151115662Y-178816000D01*
X144180047Y-178816000D01*
X144184704Y-178806429D01*
X144266384Y-178494892D01*
X144285718Y-178173405D01*
X144241961Y-177854325D01*
X144136795Y-177549912D01*
X144043814Y-177375956D01*
X143779413Y-177280192D01*
X142823605Y-178236000D01*
X142464395Y-178236000D01*
X141508587Y-177280192D01*
X141244186Y-177375956D01*
X141103296Y-177665571D01*
X141021616Y-177977108D01*
X141002282Y-178298595D01*
X137778189Y-178298595D01*
X137785718Y-178173405D01*
X137741961Y-177854325D01*
X137636795Y-177549912D01*
X137543814Y-177375956D01*
X137279413Y-177280192D01*
X136323605Y-178236000D01*
X135964395Y-178236000D01*
X135008587Y-177280192D01*
X134744186Y-177375956D01*
X134603296Y-177665571D01*
X134521616Y-177977108D01*
X134502282Y-178298595D01*
X96164000Y-178298595D01*
X96164000Y-177100587D01*
X135188192Y-177100587D01*
X136144000Y-178056395D01*
X137099808Y-177100587D01*
X141688192Y-177100587D01*
X142644000Y-178056395D01*
X143599808Y-177100587D01*
X143504044Y-176836186D01*
X143214429Y-176695296D01*
X142902892Y-176613616D01*
X142581405Y-176594282D01*
X142262325Y-176638039D01*
X141957912Y-176743205D01*
X141783956Y-176836186D01*
X141688192Y-177100587D01*
X137099808Y-177100587D01*
X137004044Y-176836186D01*
X136714429Y-176695296D01*
X136402892Y-176613616D01*
X136081405Y-176594282D01*
X135762325Y-176638039D01*
X135457912Y-176743205D01*
X135283956Y-176836186D01*
X135188192Y-177100587D01*
X96164000Y-177100587D01*
X96164000Y-173698000D01*
X99145928Y-173698000D01*
X99145928Y-175298000D01*
X99158188Y-175422482D01*
X99194498Y-175542180D01*
X99253463Y-175652494D01*
X99332815Y-175749185D01*
X99429506Y-175828537D01*
X99539820Y-175887502D01*
X99659518Y-175923812D01*
X99784000Y-175936072D01*
X101384000Y-175936072D01*
X101508482Y-175923812D01*
X101628180Y-175887502D01*
X101738494Y-175828537D01*
X101835185Y-175749185D01*
X101914537Y-175652494D01*
X101973502Y-175542180D01*
X101989117Y-175490702D01*
X107390903Y-175490702D01*
X107462486Y-175734671D01*
X107717996Y-175855571D01*
X107992184Y-175924300D01*
X108274512Y-175938217D01*
X108554130Y-175896787D01*
X108820292Y-175801603D01*
X108945514Y-175734671D01*
X109017097Y-175490702D01*
X108204000Y-174677605D01*
X107390903Y-175490702D01*
X101989117Y-175490702D01*
X102009812Y-175422482D01*
X102022072Y-175298000D01*
X102022072Y-174568512D01*
X106763783Y-174568512D01*
X106805213Y-174848130D01*
X106900397Y-175114292D01*
X106967329Y-175239514D01*
X107211298Y-175311097D01*
X108024395Y-174498000D01*
X108383605Y-174498000D01*
X109196702Y-175311097D01*
X109440671Y-175239514D01*
X109561571Y-174984004D01*
X109630300Y-174709816D01*
X109644217Y-174427488D01*
X109602787Y-174147870D01*
X109507603Y-173881708D01*
X109440671Y-173756486D01*
X109196702Y-173684903D01*
X108383605Y-174498000D01*
X108024395Y-174498000D01*
X107211298Y-173684903D01*
X106967329Y-173756486D01*
X106846429Y-174011996D01*
X106777700Y-174286184D01*
X106763783Y-174568512D01*
X102022072Y-174568512D01*
X102022072Y-173698000D01*
X102009812Y-173573518D01*
X101989118Y-173505298D01*
X107390903Y-173505298D01*
X108204000Y-174318395D01*
X108927730Y-173594665D01*
X123787000Y-173594665D01*
X123787000Y-173877335D01*
X123842147Y-174154574D01*
X123950320Y-174415727D01*
X124107363Y-174650759D01*
X124307241Y-174850637D01*
X124542273Y-175007680D01*
X124803426Y-175115853D01*
X125080665Y-175171000D01*
X125363335Y-175171000D01*
X125640574Y-175115853D01*
X125901727Y-175007680D01*
X126136759Y-174850637D01*
X126336637Y-174650759D01*
X126493680Y-174415727D01*
X126601853Y-174154574D01*
X126657000Y-173877335D01*
X126657000Y-173594665D01*
X126601853Y-173317426D01*
X126493680Y-173056273D01*
X126336637Y-172821241D01*
X126136759Y-172621363D01*
X125901727Y-172464320D01*
X125640574Y-172356147D01*
X125363335Y-172301000D01*
X125080665Y-172301000D01*
X124803426Y-172356147D01*
X124542273Y-172464320D01*
X124307241Y-172621363D01*
X124107363Y-172821241D01*
X123950320Y-173056273D01*
X123842147Y-173317426D01*
X123787000Y-173594665D01*
X108927730Y-173594665D01*
X109017097Y-173505298D01*
X108945514Y-173261329D01*
X108690004Y-173140429D01*
X108415816Y-173071700D01*
X108133488Y-173057783D01*
X107853870Y-173099213D01*
X107587708Y-173194397D01*
X107462486Y-173261329D01*
X107390903Y-173505298D01*
X101989118Y-173505298D01*
X101973502Y-173453820D01*
X101914537Y-173343506D01*
X101835185Y-173246815D01*
X101738494Y-173167463D01*
X101628180Y-173108498D01*
X101508482Y-173072188D01*
X101384000Y-173059928D01*
X99784000Y-173059928D01*
X99659518Y-173072188D01*
X99539820Y-173108498D01*
X99429506Y-173167463D01*
X99332815Y-173246815D01*
X99253463Y-173343506D01*
X99194498Y-173453820D01*
X99158188Y-173573518D01*
X99145928Y-173698000D01*
X96164000Y-173698000D01*
X96164000Y-166736665D01*
X99149000Y-166736665D01*
X99149000Y-167019335D01*
X99204147Y-167296574D01*
X99312320Y-167557727D01*
X99469363Y-167792759D01*
X99669241Y-167992637D01*
X99904273Y-168149680D01*
X100165426Y-168257853D01*
X100442665Y-168313000D01*
X100725335Y-168313000D01*
X101002574Y-168257853D01*
X101263727Y-168149680D01*
X101498759Y-167992637D01*
X101698637Y-167792759D01*
X101855680Y-167557727D01*
X101963853Y-167296574D01*
X102019000Y-167019335D01*
X102019000Y-166736665D01*
X106769000Y-166736665D01*
X106769000Y-167019335D01*
X106824147Y-167296574D01*
X106932320Y-167557727D01*
X107089363Y-167792759D01*
X107289241Y-167992637D01*
X107524273Y-168149680D01*
X107785426Y-168257853D01*
X108062665Y-168313000D01*
X108345335Y-168313000D01*
X108622574Y-168257853D01*
X108883727Y-168149680D01*
X109118759Y-167992637D01*
X109318637Y-167792759D01*
X109475680Y-167557727D01*
X109583853Y-167296574D01*
X109639000Y-167019335D01*
X109639000Y-166736665D01*
X109583853Y-166459426D01*
X109475680Y-166198273D01*
X109318637Y-165963241D01*
X109118759Y-165763363D01*
X108883727Y-165606320D01*
X108622574Y-165498147D01*
X108345335Y-165443000D01*
X108062665Y-165443000D01*
X107785426Y-165498147D01*
X107524273Y-165606320D01*
X107289241Y-165763363D01*
X107089363Y-165963241D01*
X106932320Y-166198273D01*
X106824147Y-166459426D01*
X106769000Y-166736665D01*
X102019000Y-166736665D01*
X101963853Y-166459426D01*
X101855680Y-166198273D01*
X101698637Y-165963241D01*
X101498759Y-165763363D01*
X101263727Y-165606320D01*
X101002574Y-165498147D01*
X100725335Y-165443000D01*
X100442665Y-165443000D01*
X100165426Y-165498147D01*
X99904273Y-165606320D01*
X99669241Y-165763363D01*
X99469363Y-165963241D01*
X99312320Y-166198273D01*
X99204147Y-166459426D01*
X99149000Y-166736665D01*
X96164000Y-166736665D01*
X96164000Y-75082000D01*
X153355077Y-75082000D01*
X153277506Y-75123463D01*
X153277506Y-75123463D01*
G37*
X153277506Y-75123463D02*
X153180815Y-75202815D01*
X153101463Y-75299506D01*
X153042498Y-75409820D01*
X153006188Y-75529518D01*
X152993928Y-75654000D01*
X152993928Y-77254000D01*
X153006188Y-77378482D01*
X153042498Y-77498180D01*
X153101463Y-77608494D01*
X153180815Y-77705185D01*
X153277506Y-77784537D01*
X153387820Y-77843502D01*
X153507518Y-77879812D01*
X153525482Y-77881581D01*
X153412392Y-77974392D01*
X153233068Y-78192899D01*
X153099818Y-78442192D01*
X153017764Y-78712691D01*
X152990057Y-78994000D01*
X153017764Y-79275309D01*
X153031292Y-79319906D01*
X152796001Y-79555197D01*
X152766998Y-79579000D01*
X152725986Y-79628974D01*
X152672025Y-79694725D01*
X152640342Y-79754000D01*
X152601453Y-79826755D01*
X152557996Y-79970016D01*
X152546999Y-80081669D01*
X152546999Y-80081679D01*
X152543323Y-80119001D01*
X152546999Y-80156323D01*
X152547000Y-99675666D01*
X152543323Y-99712999D01*
X152547000Y-99750332D01*
X152548499Y-99765546D01*
X152557997Y-99861984D01*
X152601453Y-100005245D01*
X152672025Y-100137275D01*
X152737148Y-100216627D01*
X152766999Y-100253000D01*
X152795997Y-100276798D01*
X153031292Y-100512093D01*
X153017764Y-100556691D01*
X152990057Y-100838000D01*
X153017764Y-101119309D01*
X153099818Y-101389808D01*
X153233068Y-101639101D01*
X153412392Y-101857608D01*
X153630899Y-102036932D01*
X153763858Y-102108000D01*
X153630899Y-102179068D01*
X153412392Y-102358392D01*
X153233068Y-102576899D01*
X153099818Y-102826192D01*
X153017764Y-103096691D01*
X152990057Y-103378000D01*
X153017764Y-103659309D01*
X153099818Y-103929808D01*
X153233068Y-104179101D01*
X153412392Y-104397608D01*
X153630899Y-104576932D01*
X153763858Y-104648000D01*
X153630899Y-104719068D01*
X153412392Y-104898392D01*
X153233068Y-105116899D01*
X153099818Y-105366192D01*
X153017764Y-105636691D01*
X152990057Y-105918000D01*
X153017764Y-106199309D01*
X153099818Y-106469808D01*
X153233068Y-106719101D01*
X153412392Y-106937608D01*
X153630899Y-107116932D01*
X153763858Y-107188000D01*
X153630899Y-107259068D01*
X153412392Y-107438392D01*
X153233068Y-107656899D01*
X153099818Y-107906192D01*
X153017764Y-108176691D01*
X152990057Y-108458000D01*
X153017764Y-108739309D01*
X153099818Y-109009808D01*
X153233068Y-109259101D01*
X153412392Y-109477608D01*
X153630899Y-109656932D01*
X153763858Y-109728000D01*
X153630899Y-109799068D01*
X153412392Y-109978392D01*
X153233068Y-110196899D01*
X153099818Y-110446192D01*
X153017764Y-110716691D01*
X152990057Y-110998000D01*
X153017764Y-111279309D01*
X153099818Y-111549808D01*
X153233068Y-111799101D01*
X153412392Y-112017608D01*
X153630899Y-112196932D01*
X153763858Y-112268000D01*
X153630899Y-112339068D01*
X153412392Y-112518392D01*
X153233068Y-112736899D01*
X153099818Y-112986192D01*
X153017764Y-113256691D01*
X152990057Y-113538000D01*
X153017764Y-113819309D01*
X153099818Y-114089808D01*
X153233068Y-114339101D01*
X153412392Y-114557608D01*
X153630899Y-114736932D01*
X153880192Y-114870182D01*
X154150691Y-114952236D01*
X154361508Y-114973000D01*
X154502492Y-114973000D01*
X154713309Y-114952236D01*
X154983808Y-114870182D01*
X155233101Y-114736932D01*
X155451608Y-114557608D01*
X155630932Y-114339101D01*
X155764182Y-114089808D01*
X155846236Y-113819309D01*
X155873943Y-113538000D01*
X155846236Y-113256691D01*
X155764182Y-112986192D01*
X155630932Y-112736899D01*
X155451608Y-112518392D01*
X155233101Y-112339068D01*
X155100142Y-112268000D01*
X155233101Y-112196932D01*
X155451608Y-112017608D01*
X155630932Y-111799101D01*
X155764182Y-111549808D01*
X155846236Y-111279309D01*
X155873943Y-110998000D01*
X155846236Y-110716691D01*
X155764182Y-110446192D01*
X155630932Y-110196899D01*
X155451608Y-109978392D01*
X155233101Y-109799068D01*
X155100142Y-109728000D01*
X155233101Y-109656932D01*
X155451608Y-109477608D01*
X155630932Y-109259101D01*
X155764182Y-109009808D01*
X155846236Y-108739309D01*
X155873943Y-108458000D01*
X155846236Y-108176691D01*
X155764182Y-107906192D01*
X155630932Y-107656899D01*
X155451608Y-107438392D01*
X155233101Y-107259068D01*
X155100142Y-107188000D01*
X155233101Y-107116932D01*
X155451608Y-106937608D01*
X155630932Y-106719101D01*
X155764182Y-106469808D01*
X155846236Y-106199309D01*
X155873943Y-105918000D01*
X155846236Y-105636691D01*
X155764182Y-105366192D01*
X155630932Y-105116899D01*
X155451608Y-104898392D01*
X155233101Y-104719068D01*
X155100142Y-104648000D01*
X155233101Y-104576932D01*
X155451608Y-104397608D01*
X155630932Y-104179101D01*
X155764182Y-103929808D01*
X155846236Y-103659309D01*
X155873943Y-103378000D01*
X155846236Y-103096691D01*
X155764182Y-102826192D01*
X155630932Y-102576899D01*
X155451608Y-102358392D01*
X155233101Y-102179068D01*
X155100142Y-102108000D01*
X155233101Y-102036932D01*
X155451608Y-101857608D01*
X155630932Y-101639101D01*
X155764182Y-101389808D01*
X155846236Y-101119309D01*
X155873943Y-100838000D01*
X155846236Y-100556691D01*
X155764182Y-100286192D01*
X155630932Y-100036899D01*
X155451608Y-99818392D01*
X155338518Y-99725581D01*
X155356482Y-99723812D01*
X155476180Y-99687502D01*
X155586494Y-99628537D01*
X155669563Y-99560364D01*
X158752000Y-102642802D01*
X158752001Y-113246668D01*
X158748324Y-113284000D01*
X158752001Y-113321333D01*
X158758393Y-113386226D01*
X158762998Y-113432985D01*
X158806454Y-113576246D01*
X158877026Y-113708276D01*
X158948201Y-113795002D01*
X158972000Y-113824001D01*
X159000998Y-113847799D01*
X162816000Y-117662802D01*
X162816000Y-118168319D01*
X162717180Y-118115498D01*
X162597482Y-118079188D01*
X162473000Y-118066928D01*
X161123000Y-118066928D01*
X160998518Y-118079188D01*
X160878820Y-118115498D01*
X160768506Y-118174463D01*
X160671815Y-118253815D01*
X160592463Y-118350506D01*
X160533498Y-118460820D01*
X160497188Y-118580518D01*
X160493299Y-118620000D01*
X144590270Y-118620000D01*
X144647909Y-118459040D01*
X144526624Y-118237000D01*
X143383000Y-118237000D01*
X143383000Y-118257000D01*
X143129000Y-118257000D01*
X143129000Y-118237000D01*
X143109000Y-118237000D01*
X143109000Y-117983000D01*
X143129000Y-117983000D01*
X143129000Y-116840085D01*
X143383000Y-116840085D01*
X143383000Y-117983000D01*
X144526624Y-117983000D01*
X144647909Y-117760960D01*
X144553070Y-117496119D01*
X144408385Y-117254869D01*
X144219414Y-117046481D01*
X143993420Y-116878963D01*
X143739087Y-116758754D01*
X143605039Y-116718096D01*
X143383000Y-116840085D01*
X143129000Y-116840085D01*
X142906961Y-116718096D01*
X142772913Y-116758754D01*
X142518580Y-116878963D01*
X142292586Y-117046481D01*
X142103615Y-117254869D01*
X141988579Y-117446682D01*
X141914932Y-117308899D01*
X141735608Y-117090392D01*
X141517101Y-116911068D01*
X141267808Y-116777818D01*
X140997309Y-116695764D01*
X140786492Y-116675000D01*
X140645508Y-116675000D01*
X140434691Y-116695764D01*
X140164192Y-116777818D01*
X139914899Y-116911068D01*
X139696392Y-117090392D01*
X139517068Y-117308899D01*
X139446000Y-117441858D01*
X139374932Y-117308899D01*
X139195608Y-117090392D01*
X138977101Y-116911068D01*
X138727808Y-116777818D01*
X138457309Y-116695764D01*
X138246492Y-116675000D01*
X138105508Y-116675000D01*
X137894691Y-116695764D01*
X137624192Y-116777818D01*
X137374899Y-116911068D01*
X137156392Y-117090392D01*
X136977068Y-117308899D01*
X136906000Y-117441858D01*
X136834932Y-117308899D01*
X136655608Y-117090392D01*
X136437101Y-116911068D01*
X136187808Y-116777818D01*
X135917309Y-116695764D01*
X135706492Y-116675000D01*
X135565508Y-116675000D01*
X135354691Y-116695764D01*
X135084192Y-116777818D01*
X134834899Y-116911068D01*
X134616392Y-117090392D01*
X134437068Y-117308899D01*
X134366000Y-117441858D01*
X134294932Y-117308899D01*
X134115608Y-117090392D01*
X133897101Y-116911068D01*
X133647808Y-116777818D01*
X133377309Y-116695764D01*
X133166492Y-116675000D01*
X133025508Y-116675000D01*
X132814691Y-116695764D01*
X132544192Y-116777818D01*
X132294899Y-116911068D01*
X132076392Y-117090392D01*
X131897068Y-117308899D01*
X131826000Y-117441858D01*
X131754932Y-117308899D01*
X131575608Y-117090392D01*
X131357101Y-116911068D01*
X131107808Y-116777818D01*
X130837309Y-116695764D01*
X130626492Y-116675000D01*
X130485508Y-116675000D01*
X130274691Y-116695764D01*
X130004192Y-116777818D01*
X129754899Y-116911068D01*
X129536392Y-117090392D01*
X129357068Y-117308899D01*
X129286000Y-117441858D01*
X129214932Y-117308899D01*
X129035608Y-117090392D01*
X128817101Y-116911068D01*
X128567808Y-116777818D01*
X128297309Y-116695764D01*
X128086492Y-116675000D01*
X127945508Y-116675000D01*
X127734691Y-116695764D01*
X127464192Y-116777818D01*
X127214899Y-116911068D01*
X126996392Y-117090392D01*
X126817068Y-117308899D01*
X126746000Y-117441858D01*
X126674932Y-117308899D01*
X126495608Y-117090392D01*
X126277101Y-116911068D01*
X126027808Y-116777818D01*
X125757309Y-116695764D01*
X125546492Y-116675000D01*
X125405508Y-116675000D01*
X125194691Y-116695764D01*
X124924192Y-116777818D01*
X124674899Y-116911068D01*
X124456392Y-117090392D01*
X124277068Y-117308899D01*
X124206000Y-117441858D01*
X124134932Y-117308899D01*
X123955608Y-117090392D01*
X123737101Y-116911068D01*
X123487808Y-116777818D01*
X123217309Y-116695764D01*
X123006492Y-116675000D01*
X122865508Y-116675000D01*
X122654691Y-116695764D01*
X122384192Y-116777818D01*
X122134899Y-116911068D01*
X121916392Y-117090392D01*
X121737068Y-117308899D01*
X121666000Y-117441858D01*
X121594932Y-117308899D01*
X121415608Y-117090392D01*
X121197101Y-116911068D01*
X120947808Y-116777818D01*
X120677309Y-116695764D01*
X120466492Y-116675000D01*
X120325508Y-116675000D01*
X120114691Y-116695764D01*
X119844192Y-116777818D01*
X119594899Y-116911068D01*
X119376392Y-117090392D01*
X119197068Y-117308899D01*
X119126000Y-117441858D01*
X119054932Y-117308899D01*
X118875608Y-117090392D01*
X118657101Y-116911068D01*
X118407808Y-116777818D01*
X118137309Y-116695764D01*
X117926492Y-116675000D01*
X117785508Y-116675000D01*
X117574691Y-116695764D01*
X117304192Y-116777818D01*
X117054899Y-116911068D01*
X116836392Y-117090392D01*
X116657068Y-117308899D01*
X116586000Y-117441858D01*
X116514932Y-117308899D01*
X116335608Y-117090392D01*
X116117101Y-116911068D01*
X115867808Y-116777818D01*
X115597309Y-116695764D01*
X115386492Y-116675000D01*
X115245508Y-116675000D01*
X115034691Y-116695764D01*
X114764192Y-116777818D01*
X114661001Y-116832975D01*
X114661001Y-111144326D01*
X114664677Y-111107001D01*
X114661001Y-111069676D01*
X114661001Y-111069668D01*
X114650004Y-110958015D01*
X114606547Y-110814754D01*
X114535975Y-110682725D01*
X114441002Y-110567000D01*
X114412005Y-110543203D01*
X113811000Y-109942199D01*
X113811000Y-109880061D01*
X113771226Y-109680102D01*
X113693205Y-109491744D01*
X113680013Y-109472000D01*
X117056678Y-109472000D01*
X117094000Y-109475676D01*
X117131322Y-109472000D01*
X117131333Y-109472000D01*
X117242986Y-109461003D01*
X117386247Y-109417546D01*
X117518276Y-109346974D01*
X117634001Y-109252001D01*
X117657804Y-109222997D01*
X122610094Y-104270708D01*
X122654691Y-104284236D01*
X122865508Y-104305000D01*
X123006492Y-104305000D01*
X123217309Y-104284236D01*
X123487808Y-104202182D01*
X123737101Y-104068932D01*
X123955608Y-103889608D01*
X124134932Y-103671101D01*
X124206000Y-103538142D01*
X124277068Y-103671101D01*
X124456392Y-103889608D01*
X124674899Y-104068932D01*
X124924192Y-104202182D01*
X125194691Y-104284236D01*
X125405508Y-104305000D01*
X125546492Y-104305000D01*
X125757309Y-104284236D01*
X125801907Y-104270708D01*
X136088201Y-114557003D01*
X136111999Y-114586001D01*
X136227724Y-114680974D01*
X136359753Y-114751546D01*
X136503014Y-114795003D01*
X136614667Y-114806000D01*
X136614675Y-114806000D01*
X136652000Y-114809676D01*
X136689325Y-114806000D01*
X144584289Y-114806000D01*
X144628226Y-114849937D01*
X144797744Y-114963205D01*
X144986102Y-115041226D01*
X145186061Y-115081000D01*
X145389939Y-115081000D01*
X145589898Y-115041226D01*
X145778256Y-114963205D01*
X145947774Y-114849937D01*
X146091937Y-114705774D01*
X146205205Y-114536256D01*
X146283226Y-114347898D01*
X146323000Y-114147939D01*
X146323000Y-113944061D01*
X146283226Y-113744102D01*
X146205205Y-113555744D01*
X146091937Y-113386226D01*
X145947774Y-113242063D01*
X145778256Y-113128795D01*
X145589898Y-113050774D01*
X145389939Y-113011000D01*
X145186061Y-113011000D01*
X144986102Y-113050774D01*
X144797744Y-113128795D01*
X144628226Y-113242063D01*
X144584289Y-113286000D01*
X136966802Y-113286000D01*
X127985801Y-104305000D01*
X128086492Y-104305000D01*
X128297309Y-104284236D01*
X128567808Y-104202182D01*
X128817101Y-104068932D01*
X129035608Y-103889608D01*
X129214932Y-103671101D01*
X129286000Y-103538142D01*
X129357068Y-103671101D01*
X129536392Y-103889608D01*
X129754899Y-104068932D01*
X130004192Y-104202182D01*
X130274691Y-104284236D01*
X130485508Y-104305000D01*
X130626492Y-104305000D01*
X130837309Y-104284236D01*
X131107808Y-104202182D01*
X131357101Y-104068932D01*
X131575608Y-103889608D01*
X131754932Y-103671101D01*
X131826000Y-103538142D01*
X131897068Y-103671101D01*
X132076392Y-103889608D01*
X132294899Y-104068932D01*
X132544192Y-104202182D01*
X132814691Y-104284236D01*
X133025508Y-104305000D01*
X133166492Y-104305000D01*
X133377309Y-104284236D01*
X133421907Y-104270708D01*
X139235174Y-110083976D01*
X139290795Y-110218256D01*
X139404063Y-110387774D01*
X139548226Y-110531937D01*
X139717744Y-110645205D01*
X139906102Y-110723226D01*
X140106061Y-110763000D01*
X140309939Y-110763000D01*
X140509898Y-110723226D01*
X140698256Y-110645205D01*
X140867774Y-110531937D01*
X141011937Y-110387774D01*
X141125205Y-110218256D01*
X141203226Y-110029898D01*
X141243000Y-109829939D01*
X141243000Y-109626061D01*
X141203226Y-109426102D01*
X141125205Y-109237744D01*
X141011937Y-109068226D01*
X140910333Y-108966622D01*
X141017898Y-108945226D01*
X141206256Y-108867205D01*
X141375774Y-108753937D01*
X141519937Y-108609774D01*
X141633205Y-108440256D01*
X141711226Y-108251898D01*
X141751000Y-108051939D01*
X141751000Y-107848061D01*
X141724533Y-107715000D01*
X141833939Y-107715000D01*
X142033898Y-107675226D01*
X142222256Y-107597205D01*
X142391774Y-107483937D01*
X142535937Y-107339774D01*
X142649205Y-107170256D01*
X142727226Y-106981898D01*
X142767000Y-106781939D01*
X142767000Y-106578061D01*
X142727226Y-106378102D01*
X142649205Y-106189744D01*
X142535937Y-106020226D01*
X142391774Y-105876063D01*
X142222256Y-105762795D01*
X142087978Y-105707175D01*
X140685802Y-104305000D01*
X140786492Y-104305000D01*
X140997309Y-104284236D01*
X141267808Y-104202182D01*
X141517101Y-104068932D01*
X141735608Y-103889608D01*
X141914932Y-103671101D01*
X141986000Y-103538142D01*
X142057068Y-103671101D01*
X142236392Y-103889608D01*
X142454899Y-104068932D01*
X142704192Y-104202182D01*
X142974691Y-104284236D01*
X143185508Y-104305000D01*
X143326492Y-104305000D01*
X143537309Y-104284236D01*
X143807808Y-104202182D01*
X144057101Y-104068932D01*
X144275608Y-103889608D01*
X144454932Y-103671101D01*
X144588182Y-103421808D01*
X144670236Y-103151309D01*
X144697943Y-102870000D01*
X144670236Y-102588691D01*
X144656708Y-102544094D01*
X145094803Y-102106000D01*
X145250678Y-102106000D01*
X145288000Y-102109676D01*
X145325322Y-102106000D01*
X145325333Y-102106000D01*
X145436986Y-102095003D01*
X145580247Y-102051546D01*
X145712276Y-101980974D01*
X145828001Y-101886001D01*
X145851804Y-101856997D01*
X150879003Y-96829799D01*
X150908001Y-96806001D01*
X150948826Y-96756256D01*
X151002974Y-96690277D01*
X151073546Y-96558247D01*
X151097869Y-96478063D01*
X151117003Y-96414986D01*
X151128000Y-96303333D01*
X151128000Y-96303323D01*
X151131676Y-96266000D01*
X151128000Y-96228677D01*
X151128000Y-80555325D01*
X151131676Y-80518000D01*
X151128000Y-80480675D01*
X151128000Y-80480667D01*
X151117003Y-80369014D01*
X151073546Y-80225753D01*
X151002974Y-80093724D01*
X150908001Y-79977999D01*
X150879004Y-79954202D01*
X147121804Y-76197003D01*
X147098001Y-76167999D01*
X146982276Y-76073026D01*
X146850247Y-76002454D01*
X146706986Y-75958997D01*
X146595333Y-75948000D01*
X146595322Y-75948000D01*
X146558000Y-75944324D01*
X146520678Y-75948000D01*
X144476901Y-75948000D01*
X144454932Y-75906899D01*
X144275608Y-75688392D01*
X144057101Y-75509068D01*
X143807808Y-75375818D01*
X143537309Y-75293764D01*
X143326492Y-75273000D01*
X143185508Y-75273000D01*
X142974691Y-75293764D01*
X142704192Y-75375818D01*
X142454899Y-75509068D01*
X142236392Y-75688392D01*
X142057068Y-75906899D01*
X141986000Y-76039858D01*
X141914932Y-75906899D01*
X141735608Y-75688392D01*
X141517101Y-75509068D01*
X141267808Y-75375818D01*
X140997309Y-75293764D01*
X140786492Y-75273000D01*
X140645508Y-75273000D01*
X140434691Y-75293764D01*
X140164192Y-75375818D01*
X139914899Y-75509068D01*
X139696392Y-75688392D01*
X139517068Y-75906899D01*
X139446000Y-76039858D01*
X139374932Y-75906899D01*
X139195608Y-75688392D01*
X138977101Y-75509068D01*
X138727808Y-75375818D01*
X138457309Y-75293764D01*
X138246492Y-75273000D01*
X138105508Y-75273000D01*
X137894691Y-75293764D01*
X137624192Y-75375818D01*
X137374899Y-75509068D01*
X137156392Y-75688392D01*
X136977068Y-75906899D01*
X136906000Y-76039858D01*
X136834932Y-75906899D01*
X136655608Y-75688392D01*
X136437101Y-75509068D01*
X136187808Y-75375818D01*
X135917309Y-75293764D01*
X135706492Y-75273000D01*
X135565508Y-75273000D01*
X135354691Y-75293764D01*
X135084192Y-75375818D01*
X134834899Y-75509068D01*
X134616392Y-75688392D01*
X134437068Y-75906899D01*
X134366000Y-76039858D01*
X134294932Y-75906899D01*
X134115608Y-75688392D01*
X133897101Y-75509068D01*
X133647808Y-75375818D01*
X133377309Y-75293764D01*
X133166492Y-75273000D01*
X133025508Y-75273000D01*
X132814691Y-75293764D01*
X132544192Y-75375818D01*
X132294899Y-75509068D01*
X132076392Y-75688392D01*
X131897068Y-75906899D01*
X131826000Y-76039858D01*
X131754932Y-75906899D01*
X131575608Y-75688392D01*
X131357101Y-75509068D01*
X131107808Y-75375818D01*
X130837309Y-75293764D01*
X130626492Y-75273000D01*
X130485508Y-75273000D01*
X130274691Y-75293764D01*
X130004192Y-75375818D01*
X129754899Y-75509068D01*
X129536392Y-75688392D01*
X129357068Y-75906899D01*
X129286000Y-76039858D01*
X129214932Y-75906899D01*
X129035608Y-75688392D01*
X128817101Y-75509068D01*
X128567808Y-75375818D01*
X128297309Y-75293764D01*
X128086492Y-75273000D01*
X127945508Y-75273000D01*
X127734691Y-75293764D01*
X127464192Y-75375818D01*
X127214899Y-75509068D01*
X126996392Y-75688392D01*
X126817068Y-75906899D01*
X126746000Y-76039858D01*
X126674932Y-75906899D01*
X126495608Y-75688392D01*
X126277101Y-75509068D01*
X126027808Y-75375818D01*
X125757309Y-75293764D01*
X125546492Y-75273000D01*
X125405508Y-75273000D01*
X125194691Y-75293764D01*
X124924192Y-75375818D01*
X124674899Y-75509068D01*
X124456392Y-75688392D01*
X124277068Y-75906899D01*
X124206000Y-76039858D01*
X124134932Y-75906899D01*
X123955608Y-75688392D01*
X123737101Y-75509068D01*
X123487808Y-75375818D01*
X123217309Y-75293764D01*
X123006492Y-75273000D01*
X122865508Y-75273000D01*
X122654691Y-75293764D01*
X122384192Y-75375818D01*
X122134899Y-75509068D01*
X121916392Y-75688392D01*
X121737068Y-75906899D01*
X121666000Y-76039858D01*
X121594932Y-75906899D01*
X121415608Y-75688392D01*
X121197101Y-75509068D01*
X120947808Y-75375818D01*
X120677309Y-75293764D01*
X120466492Y-75273000D01*
X120325508Y-75273000D01*
X120114691Y-75293764D01*
X119844192Y-75375818D01*
X119594899Y-75509068D01*
X119376392Y-75688392D01*
X119197068Y-75906899D01*
X119126000Y-76039858D01*
X119054932Y-75906899D01*
X118875608Y-75688392D01*
X118657101Y-75509068D01*
X118407808Y-75375818D01*
X118137309Y-75293764D01*
X117926492Y-75273000D01*
X117785508Y-75273000D01*
X117574691Y-75293764D01*
X117304192Y-75375818D01*
X117054899Y-75509068D01*
X116836392Y-75688392D01*
X116657068Y-75906899D01*
X116586000Y-76039858D01*
X116514932Y-75906899D01*
X116335608Y-75688392D01*
X116117101Y-75509068D01*
X115867808Y-75375818D01*
X115597309Y-75293764D01*
X115386492Y-75273000D01*
X115245508Y-75273000D01*
X115034691Y-75293764D01*
X114764192Y-75375818D01*
X114514899Y-75509068D01*
X114296392Y-75688392D01*
X114117068Y-75906899D01*
X114046000Y-76039858D01*
X113974932Y-75906899D01*
X113795608Y-75688392D01*
X113577101Y-75509068D01*
X113327808Y-75375818D01*
X113057309Y-75293764D01*
X112846492Y-75273000D01*
X112705508Y-75273000D01*
X112494691Y-75293764D01*
X112224192Y-75375818D01*
X111974899Y-75509068D01*
X111756392Y-75688392D01*
X111577068Y-75906899D01*
X111506000Y-76039858D01*
X111434932Y-75906899D01*
X111255608Y-75688392D01*
X111037101Y-75509068D01*
X110787808Y-75375818D01*
X110517309Y-75293764D01*
X110306492Y-75273000D01*
X110165508Y-75273000D01*
X109954691Y-75293764D01*
X109684192Y-75375818D01*
X109434899Y-75509068D01*
X109216392Y-75688392D01*
X109037068Y-75906899D01*
X109015099Y-75948000D01*
X102653322Y-75948000D01*
X102615999Y-75944324D01*
X102578676Y-75948000D01*
X102578667Y-75948000D01*
X102467014Y-75958997D01*
X102323753Y-76002454D01*
X102191724Y-76073026D01*
X102075999Y-76167999D01*
X102052201Y-76196997D01*
X97787003Y-80462196D01*
X97757999Y-80485999D01*
X97710993Y-80543277D01*
X97663026Y-80601724D01*
X97619690Y-80682800D01*
X97592454Y-80733754D01*
X97548997Y-80877015D01*
X97538000Y-80988668D01*
X97538000Y-80988678D01*
X97534324Y-81026000D01*
X97538000Y-81063322D01*
X97538001Y-98514658D01*
X97538000Y-98514668D01*
X97538000Y-98514678D01*
X97534324Y-98552000D01*
X97538000Y-98589322D01*
X97538001Y-138900667D01*
X97534324Y-138938000D01*
X97538001Y-138975333D01*
X97544393Y-139040226D01*
X97548998Y-139086985D01*
X97592454Y-139230246D01*
X97663026Y-139362276D01*
X97717175Y-139428256D01*
X97758000Y-139478001D01*
X97786998Y-139501799D01*
X101327000Y-143041802D01*
X101327000Y-143103939D01*
X101366774Y-143303898D01*
X101444795Y-143492256D01*
X101558063Y-143661774D01*
X101702226Y-143805937D01*
X101871744Y-143919205D01*
X102060102Y-143997226D01*
X102260061Y-144037000D01*
X102463939Y-144037000D01*
X102514195Y-144027004D01*
X99057003Y-147484196D01*
X99027999Y-147507999D01*
X98972871Y-147575174D01*
X98933026Y-147623724D01*
X98913674Y-147659928D01*
X98768000Y-147659928D01*
X98643518Y-147672188D01*
X98523820Y-147708498D01*
X98413506Y-147767463D01*
X98316815Y-147846815D01*
X98237463Y-147943506D01*
X98178498Y-148053820D01*
X98142188Y-148173518D01*
X98129928Y-148298000D01*
X98129928Y-149898000D01*
X98142188Y-150022482D01*
X98178498Y-150142180D01*
X98237463Y-150252494D01*
X98316815Y-150349185D01*
X98413506Y-150428537D01*
X98523820Y-150487502D01*
X98643518Y-150523812D01*
X98768000Y-150536072D01*
X100368000Y-150536072D01*
X100492482Y-150523812D01*
X100612180Y-150487502D01*
X100722494Y-150428537D01*
X100819185Y-150349185D01*
X100898537Y-150252494D01*
X100957502Y-150142180D01*
X100993812Y-150022482D01*
X100995581Y-150004518D01*
X101088392Y-150117608D01*
X101306899Y-150296932D01*
X101556192Y-150430182D01*
X101826691Y-150512236D01*
X102037508Y-150533000D01*
X102178492Y-150533000D01*
X102389309Y-150512236D01*
X102659808Y-150430182D01*
X102909101Y-150296932D01*
X103127608Y-150117608D01*
X103306932Y-149899101D01*
X103378000Y-149766142D01*
X103449068Y-149899101D01*
X103628392Y-150117608D01*
X103846899Y-150296932D01*
X104096192Y-150430182D01*
X104366691Y-150512236D01*
X104577508Y-150533000D01*
X104718492Y-150533000D01*
X104929309Y-150512236D01*
X105199808Y-150430182D01*
X105449101Y-150296932D01*
X105667608Y-150117608D01*
X105846932Y-149899101D01*
X105918000Y-149766142D01*
X105989068Y-149899101D01*
X106168392Y-150117608D01*
X106386899Y-150296932D01*
X106636192Y-150430182D01*
X106906691Y-150512236D01*
X107117508Y-150533000D01*
X107258492Y-150533000D01*
X107469309Y-150512236D01*
X107739808Y-150430182D01*
X107989101Y-150296932D01*
X108207608Y-150117608D01*
X108386932Y-149899101D01*
X108458000Y-149766142D01*
X108529068Y-149899101D01*
X108708392Y-150117608D01*
X108926899Y-150296932D01*
X109176192Y-150430182D01*
X109446691Y-150512236D01*
X109657508Y-150533000D01*
X109798492Y-150533000D01*
X110009309Y-150512236D01*
X110279808Y-150430182D01*
X110529101Y-150296932D01*
X110747608Y-150117608D01*
X110926932Y-149899101D01*
X110998000Y-149766142D01*
X111069068Y-149899101D01*
X111248392Y-150117608D01*
X111466899Y-150296932D01*
X111716192Y-150430182D01*
X111986691Y-150512236D01*
X112197508Y-150533000D01*
X112338492Y-150533000D01*
X112549309Y-150512236D01*
X112819808Y-150430182D01*
X112922999Y-150375025D01*
X112923000Y-154539667D01*
X112919323Y-154576999D01*
X112923000Y-154614332D01*
X112933997Y-154725985D01*
X112938165Y-154739724D01*
X112977453Y-154869245D01*
X113048025Y-155001275D01*
X113119200Y-155088001D01*
X113142999Y-155117000D01*
X113171997Y-155140798D01*
X131441292Y-173410094D01*
X131427764Y-173454691D01*
X131400057Y-173736000D01*
X131427764Y-174017309D01*
X131509818Y-174287808D01*
X131643068Y-174537101D01*
X131822392Y-174755608D01*
X132040899Y-174934932D01*
X132290192Y-175068182D01*
X132560691Y-175150236D01*
X132771508Y-175171000D01*
X132912492Y-175171000D01*
X133123309Y-175150236D01*
X133393808Y-175068182D01*
X133643101Y-174934932D01*
X133861608Y-174755608D01*
X134040932Y-174537101D01*
X134174182Y-174287808D01*
X134256236Y-174017309D01*
X134283943Y-173736000D01*
X134268083Y-173574967D01*
X134509000Y-173574967D01*
X134509000Y-173897033D01*
X134571832Y-174212912D01*
X134695082Y-174510463D01*
X134874013Y-174778252D01*
X135101748Y-175005987D01*
X135369537Y-175184918D01*
X135667088Y-175308168D01*
X135982967Y-175371000D01*
X136305033Y-175371000D01*
X136620912Y-175308168D01*
X136918463Y-175184918D01*
X137186252Y-175005987D01*
X137413987Y-174778252D01*
X137592918Y-174510463D01*
X137716168Y-174212912D01*
X137779000Y-173897033D01*
X137779000Y-173574967D01*
X141009000Y-173574967D01*
X141009000Y-173897033D01*
X141071832Y-174212912D01*
X141195082Y-174510463D01*
X141374013Y-174778252D01*
X141601748Y-175005987D01*
X141869537Y-175184918D01*
X142167088Y-175308168D01*
X142482967Y-175371000D01*
X142805033Y-175371000D01*
X143120912Y-175308168D01*
X143418463Y-175184918D01*
X143686252Y-175005987D01*
X143913987Y-174778252D01*
X144092918Y-174510463D01*
X144216168Y-174212912D01*
X144279000Y-173897033D01*
X144279000Y-173574967D01*
X144216168Y-173259088D01*
X144092918Y-172961537D01*
X143913987Y-172693748D01*
X143686252Y-172466013D01*
X143418463Y-172287082D01*
X143120912Y-172163832D01*
X142805033Y-172101000D01*
X142482967Y-172101000D01*
X142167088Y-172163832D01*
X141869537Y-172287082D01*
X141601748Y-172466013D01*
X141374013Y-172693748D01*
X141195082Y-172961537D01*
X141071832Y-173259088D01*
X141009000Y-173574967D01*
X137779000Y-173574967D01*
X137716168Y-173259088D01*
X137592918Y-172961537D01*
X137413987Y-172693748D01*
X137186252Y-172466013D01*
X136918463Y-172287082D01*
X136620912Y-172163832D01*
X136305033Y-172101000D01*
X135982967Y-172101000D01*
X135667088Y-172163832D01*
X135369537Y-172287082D01*
X135101748Y-172466013D01*
X134874013Y-172693748D01*
X134695082Y-172961537D01*
X134571832Y-173259088D01*
X134509000Y-173574967D01*
X134268083Y-173574967D01*
X134256236Y-173454691D01*
X134174182Y-173184192D01*
X134040932Y-172934899D01*
X133861608Y-172716392D01*
X133643101Y-172537068D01*
X133393808Y-172403818D01*
X133123309Y-172321764D01*
X132912492Y-172301000D01*
X132771508Y-172301000D01*
X132560691Y-172321764D01*
X132516094Y-172335292D01*
X129457467Y-169276665D01*
X139535000Y-169276665D01*
X139535000Y-169559335D01*
X139590147Y-169836574D01*
X139698320Y-170097727D01*
X139855363Y-170332759D01*
X140055241Y-170532637D01*
X140290273Y-170689680D01*
X140551426Y-170797853D01*
X140828665Y-170853000D01*
X141111335Y-170853000D01*
X141388574Y-170797853D01*
X141649727Y-170689680D01*
X141884759Y-170532637D01*
X142084637Y-170332759D01*
X142241680Y-170097727D01*
X142349853Y-169836574D01*
X142405000Y-169559335D01*
X142405000Y-169276665D01*
X144361000Y-169276665D01*
X144361000Y-169559335D01*
X144416147Y-169836574D01*
X144524320Y-170097727D01*
X144681363Y-170332759D01*
X144881241Y-170532637D01*
X145116273Y-170689680D01*
X145377426Y-170797853D01*
X145654665Y-170853000D01*
X145937335Y-170853000D01*
X146214574Y-170797853D01*
X146475727Y-170689680D01*
X146710759Y-170532637D01*
X146910637Y-170332759D01*
X147067680Y-170097727D01*
X147175853Y-169836574D01*
X147231000Y-169559335D01*
X147231000Y-169276665D01*
X147175853Y-168999426D01*
X147067680Y-168738273D01*
X146910637Y-168503241D01*
X146710759Y-168303363D01*
X146475727Y-168146320D01*
X146214574Y-168038147D01*
X145937335Y-167983000D01*
X145654665Y-167983000D01*
X145377426Y-168038147D01*
X145116273Y-168146320D01*
X144881241Y-168303363D01*
X144681363Y-168503241D01*
X144524320Y-168738273D01*
X144416147Y-168999426D01*
X144361000Y-169276665D01*
X142405000Y-169276665D01*
X142349853Y-168999426D01*
X142241680Y-168738273D01*
X142084637Y-168503241D01*
X141884759Y-168303363D01*
X141649727Y-168146320D01*
X141388574Y-168038147D01*
X141111335Y-167983000D01*
X140828665Y-167983000D01*
X140551426Y-168038147D01*
X140290273Y-168146320D01*
X140055241Y-168303363D01*
X139855363Y-168503241D01*
X139698320Y-168738273D01*
X139590147Y-168999426D01*
X139535000Y-169276665D01*
X129457467Y-169276665D01*
X121978802Y-161798000D01*
X139528057Y-161798000D01*
X139555764Y-162079309D01*
X139637818Y-162349808D01*
X139771068Y-162599101D01*
X139950392Y-162817608D01*
X140168899Y-162996932D01*
X140418192Y-163130182D01*
X140688691Y-163212236D01*
X140899508Y-163233000D01*
X141040492Y-163233000D01*
X141251309Y-163212236D01*
X141521808Y-163130182D01*
X141771101Y-162996932D01*
X141989608Y-162817608D01*
X142168932Y-162599101D01*
X142302182Y-162349808D01*
X142379447Y-162095096D01*
X142452063Y-162203774D01*
X142496001Y-162247712D01*
X142496000Y-163284677D01*
X142492324Y-163322000D01*
X142496000Y-163359322D01*
X142496000Y-163359332D01*
X142506997Y-163470985D01*
X142542576Y-163588276D01*
X142550454Y-163614246D01*
X142621026Y-163746276D01*
X142660871Y-163794826D01*
X142715999Y-163862001D01*
X142745003Y-163885804D01*
X147809000Y-168949803D01*
X147809000Y-169011939D01*
X147848774Y-169211898D01*
X147926795Y-169400256D01*
X148040063Y-169569774D01*
X148184226Y-169713937D01*
X148353744Y-169827205D01*
X148542102Y-169905226D01*
X148742061Y-169945000D01*
X148945939Y-169945000D01*
X149145898Y-169905226D01*
X149334256Y-169827205D01*
X149503774Y-169713937D01*
X149647937Y-169569774D01*
X149761205Y-169400256D01*
X149839226Y-169211898D01*
X149879000Y-169011939D01*
X149879000Y-168808061D01*
X149839226Y-168608102D01*
X149761205Y-168419744D01*
X149647937Y-168250226D01*
X149503774Y-168106063D01*
X149334256Y-167992795D01*
X149145898Y-167914774D01*
X148945939Y-167875000D01*
X148883803Y-167875000D01*
X144016000Y-163007199D01*
X144016000Y-162247711D01*
X144059937Y-162203774D01*
X144173205Y-162034256D01*
X144251226Y-161845898D01*
X144260753Y-161798000D01*
X144354057Y-161798000D01*
X144381764Y-162079309D01*
X144463818Y-162349808D01*
X144597068Y-162599101D01*
X144776392Y-162817608D01*
X144994899Y-162996932D01*
X145244192Y-163130182D01*
X145514691Y-163212236D01*
X145725508Y-163233000D01*
X145866492Y-163233000D01*
X146077309Y-163212236D01*
X146347808Y-163130182D01*
X146597101Y-162996932D01*
X146815608Y-162817608D01*
X146994932Y-162599101D01*
X147128182Y-162349808D01*
X147210236Y-162079309D01*
X147237943Y-161798000D01*
X147210236Y-161516691D01*
X147128182Y-161246192D01*
X146994932Y-160996899D01*
X146815608Y-160778392D01*
X146597101Y-160599068D01*
X146347808Y-160465818D01*
X146077309Y-160383764D01*
X145866492Y-160363000D01*
X145725508Y-160363000D01*
X145514691Y-160383764D01*
X145244192Y-160465818D01*
X144994899Y-160599068D01*
X144776392Y-160778392D01*
X144597068Y-160996899D01*
X144463818Y-161246192D01*
X144381764Y-161516691D01*
X144354057Y-161798000D01*
X144260753Y-161798000D01*
X144291000Y-161645939D01*
X144291000Y-161442061D01*
X144251226Y-161242102D01*
X144173205Y-161053744D01*
X144059937Y-160884226D01*
X143915774Y-160740063D01*
X143746256Y-160626795D01*
X143557898Y-160548774D01*
X143357939Y-160509000D01*
X143154061Y-160509000D01*
X142954102Y-160548774D01*
X142765744Y-160626795D01*
X142596226Y-160740063D01*
X142452063Y-160884226D01*
X142338795Y-161053744D01*
X142277898Y-161200760D01*
X142168932Y-160996899D01*
X141989608Y-160778392D01*
X141771101Y-160599068D01*
X141521808Y-160465818D01*
X141251309Y-160383764D01*
X141040492Y-160363000D01*
X140899508Y-160363000D01*
X140688691Y-160383764D01*
X140418192Y-160465818D01*
X140168899Y-160599068D01*
X139950392Y-160778392D01*
X139771068Y-160996899D01*
X139637818Y-161246192D01*
X139555764Y-161516691D01*
X139528057Y-161798000D01*
X121978802Y-161798000D01*
X114442999Y-154262198D01*
X114442999Y-150486849D01*
X114526691Y-150512236D01*
X114737508Y-150533000D01*
X114878492Y-150533000D01*
X115089309Y-150512236D01*
X115133907Y-150498708D01*
X120594200Y-155959002D01*
X120617999Y-155988001D01*
X120646997Y-156011799D01*
X120733723Y-156082974D01*
X120865753Y-156153546D01*
X121009014Y-156197003D01*
X121120667Y-156208000D01*
X121120676Y-156208000D01*
X121157999Y-156211676D01*
X121195322Y-156208000D01*
X123201644Y-156208000D01*
X123171000Y-156362061D01*
X123171000Y-156565939D01*
X123210774Y-156765898D01*
X123288795Y-156954256D01*
X123402063Y-157123774D01*
X123546226Y-157267937D01*
X123715744Y-157381205D01*
X123904102Y-157459226D01*
X124104061Y-157499000D01*
X124307939Y-157499000D01*
X124507898Y-157459226D01*
X124696256Y-157381205D01*
X124865774Y-157267937D01*
X124909711Y-157224000D01*
X131329644Y-157224000D01*
X131299000Y-157378061D01*
X131299000Y-157581939D01*
X131338774Y-157781898D01*
X131416795Y-157970256D01*
X131530063Y-158139774D01*
X131674226Y-158283937D01*
X131843744Y-158397205D01*
X132032102Y-158475226D01*
X132232061Y-158515000D01*
X132435939Y-158515000D01*
X132635898Y-158475226D01*
X132824256Y-158397205D01*
X132993774Y-158283937D01*
X133037711Y-158240000D01*
X138441644Y-158240000D01*
X138411000Y-158394061D01*
X138411000Y-158597939D01*
X138441644Y-158752000D01*
X138117711Y-158752000D01*
X138073774Y-158708063D01*
X137904256Y-158594795D01*
X137715898Y-158516774D01*
X137515939Y-158477000D01*
X137312061Y-158477000D01*
X137112102Y-158516774D01*
X136923744Y-158594795D01*
X136754226Y-158708063D01*
X136610063Y-158852226D01*
X136496795Y-159021744D01*
X136418774Y-159210102D01*
X136379000Y-159410061D01*
X136379000Y-159613939D01*
X136418774Y-159813898D01*
X136496795Y-160002256D01*
X136610063Y-160171774D01*
X136754226Y-160315937D01*
X136923744Y-160429205D01*
X137112102Y-160507226D01*
X137312061Y-160547000D01*
X137515939Y-160547000D01*
X137715898Y-160507226D01*
X137904256Y-160429205D01*
X138073774Y-160315937D01*
X138117711Y-160272000D01*
X146497199Y-160272000D01*
X148550335Y-162325136D01*
X148542102Y-162326774D01*
X148353744Y-162404795D01*
X148184226Y-162518063D01*
X148040063Y-162662226D01*
X147926795Y-162831744D01*
X147848774Y-163020102D01*
X147809000Y-163220061D01*
X147809000Y-163423939D01*
X147848774Y-163623898D01*
X147926795Y-163812256D01*
X148040063Y-163981774D01*
X148184226Y-164125937D01*
X148353744Y-164239205D01*
X148542102Y-164317226D01*
X148742061Y-164357000D01*
X148804199Y-164357000D01*
X159710201Y-175263003D01*
X159733999Y-175292001D01*
X159762997Y-175315799D01*
X159849723Y-175386974D01*
X159924606Y-175427000D01*
X159981753Y-175457546D01*
X160125014Y-175501003D01*
X160236667Y-175512000D01*
X160236677Y-175512000D01*
X160273999Y-175515676D01*
X160311322Y-175512000D01*
X160493299Y-175512000D01*
X160497188Y-175551482D01*
X160533498Y-175671180D01*
X160592463Y-175781494D01*
X160671815Y-175878185D01*
X160760631Y-175951074D01*
X160703505Y-176020682D01*
X160581862Y-176248259D01*
X160506955Y-176495195D01*
X160481662Y-176752000D01*
X160506955Y-177008805D01*
X160581862Y-177255741D01*
X160703505Y-177483318D01*
X160867208Y-177682792D01*
X160951539Y-177752000D01*
X160867208Y-177821208D01*
X160703505Y-178020682D01*
X160581862Y-178248259D01*
X160506955Y-178495195D01*
X160481662Y-178752000D01*
X160506955Y-179008805D01*
X160581862Y-179255741D01*
X160703505Y-179483318D01*
X160867208Y-179682792D01*
X161066682Y-179846495D01*
X161294259Y-179968138D01*
X161541195Y-180043045D01*
X161733649Y-180062000D01*
X161862351Y-180062000D01*
X162054805Y-180043045D01*
X162301741Y-179968138D01*
X162529318Y-179846495D01*
X162728792Y-179682792D01*
X162892495Y-179483318D01*
X163014138Y-179255741D01*
X163089045Y-179008805D01*
X163114338Y-178752000D01*
X163089045Y-178495195D01*
X163014138Y-178248259D01*
X162892495Y-178020682D01*
X162728792Y-177821208D01*
X162644461Y-177752000D01*
X162728792Y-177682792D01*
X162892495Y-177483318D01*
X163014138Y-177255741D01*
X163089045Y-177008805D01*
X163114338Y-176752000D01*
X163089045Y-176495195D01*
X163014138Y-176248259D01*
X162892495Y-176020682D01*
X162835369Y-175951074D01*
X162924185Y-175878185D01*
X163003537Y-175781494D01*
X163062502Y-175671180D01*
X163098812Y-175551482D01*
X163111072Y-175427000D01*
X163111072Y-174077000D01*
X163098812Y-173952518D01*
X163062502Y-173832820D01*
X163003537Y-173722506D01*
X162924185Y-173625815D01*
X162827494Y-173546463D01*
X162717180Y-173487498D01*
X162597482Y-173451188D01*
X162473000Y-173438928D01*
X161123000Y-173438928D01*
X160998518Y-173451188D01*
X160878820Y-173487498D01*
X160768506Y-173546463D01*
X160671815Y-173625815D01*
X160592463Y-173722506D01*
X160533498Y-173832820D01*
X160509321Y-173912519D01*
X152459363Y-165862561D01*
X152552061Y-165881000D01*
X152755939Y-165881000D01*
X152955898Y-165841226D01*
X153144256Y-165763205D01*
X153313774Y-165649937D01*
X153457937Y-165505774D01*
X153571205Y-165336256D01*
X153649226Y-165147898D01*
X153689000Y-164947939D01*
X153689000Y-164744061D01*
X153649226Y-164544102D01*
X153571205Y-164355744D01*
X153457937Y-164186226D01*
X153313774Y-164042063D01*
X153144256Y-163928795D01*
X152955898Y-163850774D01*
X152755939Y-163811000D01*
X152552061Y-163811000D01*
X152489288Y-163823486D01*
X151731801Y-163066000D01*
X153700199Y-163066000D01*
X160309201Y-169675003D01*
X160332999Y-169704001D01*
X160361997Y-169727799D01*
X160448724Y-169798974D01*
X160484928Y-169818326D01*
X160484928Y-169839000D01*
X160497188Y-169963482D01*
X160533498Y-170083180D01*
X160592463Y-170193494D01*
X160671815Y-170290185D01*
X160768506Y-170369537D01*
X160878820Y-170428502D01*
X160998518Y-170464812D01*
X161123000Y-170477072D01*
X162473000Y-170477072D01*
X162597482Y-170464812D01*
X162717180Y-170428502D01*
X162827494Y-170369537D01*
X162924185Y-170290185D01*
X163003537Y-170193494D01*
X163062502Y-170083180D01*
X163098812Y-169963482D01*
X163111072Y-169839000D01*
X163111072Y-168489000D01*
X163098812Y-168364518D01*
X163062502Y-168244820D01*
X163003537Y-168134506D01*
X162924185Y-168037815D01*
X162835369Y-167964926D01*
X162892495Y-167895318D01*
X163014138Y-167667741D01*
X163089045Y-167420805D01*
X163114338Y-167164000D01*
X163089045Y-166907195D01*
X163014138Y-166660259D01*
X162892495Y-166432682D01*
X162728792Y-166233208D01*
X162644461Y-166164000D01*
X162728792Y-166094792D01*
X162892495Y-165895318D01*
X163014138Y-165667741D01*
X163089045Y-165420805D01*
X163114338Y-165164000D01*
X163089045Y-164907195D01*
X163014138Y-164660259D01*
X162892495Y-164432682D01*
X162728792Y-164233208D01*
X162644461Y-164164000D01*
X162728792Y-164094792D01*
X162892495Y-163895318D01*
X163014138Y-163667741D01*
X163089045Y-163420805D01*
X163114338Y-163164000D01*
X163089045Y-162907195D01*
X163014138Y-162660259D01*
X162892495Y-162432682D01*
X162728792Y-162233208D01*
X162644461Y-162164000D01*
X162728792Y-162094792D01*
X162892495Y-161895318D01*
X163014138Y-161667741D01*
X163089045Y-161420805D01*
X163114338Y-161164000D01*
X163089045Y-160907195D01*
X163014138Y-160660259D01*
X162892495Y-160432682D01*
X162728792Y-160233208D01*
X162644461Y-160164000D01*
X162728792Y-160094792D01*
X162892495Y-159895318D01*
X163014138Y-159667741D01*
X163089045Y-159420805D01*
X163114338Y-159164000D01*
X163089045Y-158907195D01*
X163014138Y-158660259D01*
X162892495Y-158432682D01*
X162728792Y-158233208D01*
X162644461Y-158164000D01*
X162728792Y-158094792D01*
X162892495Y-157895318D01*
X163014138Y-157667741D01*
X163089045Y-157420805D01*
X163114338Y-157164000D01*
X163089045Y-156907195D01*
X163014138Y-156660259D01*
X162892495Y-156432682D01*
X162728792Y-156233208D01*
X162644461Y-156164000D01*
X162728792Y-156094792D01*
X162892495Y-155895318D01*
X163014138Y-155667741D01*
X163089045Y-155420805D01*
X163114338Y-155164000D01*
X163089045Y-154907195D01*
X163014138Y-154660259D01*
X162892495Y-154432682D01*
X162728792Y-154233208D01*
X162529318Y-154069505D01*
X162301741Y-153947862D01*
X162054805Y-153872955D01*
X161862351Y-153854000D01*
X161733649Y-153854000D01*
X161541195Y-153872955D01*
X161294259Y-153947862D01*
X161066682Y-154069505D01*
X160867208Y-154233208D01*
X160727044Y-154404000D01*
X154597711Y-154404000D01*
X154553774Y-154360063D01*
X154384256Y-154246795D01*
X154195898Y-154168774D01*
X153995939Y-154129000D01*
X153792061Y-154129000D01*
X153592102Y-154168774D01*
X153403744Y-154246795D01*
X153234226Y-154360063D01*
X153190289Y-154404000D01*
X151922802Y-154404000D01*
X149826523Y-152307722D01*
X149842256Y-152301205D01*
X150011774Y-152187937D01*
X150155937Y-152043774D01*
X150182068Y-152004665D01*
X150711000Y-152004665D01*
X150711000Y-152287335D01*
X150766147Y-152564574D01*
X150874320Y-152825727D01*
X151031363Y-153060759D01*
X151231241Y-153260637D01*
X151466273Y-153417680D01*
X151727426Y-153525853D01*
X152004665Y-153581000D01*
X152287335Y-153581000D01*
X152564574Y-153525853D01*
X152825727Y-153417680D01*
X153060759Y-153260637D01*
X153260637Y-153060759D01*
X153417680Y-152825727D01*
X153525853Y-152564574D01*
X153581000Y-152287335D01*
X153581000Y-152004665D01*
X153525853Y-151727426D01*
X153417680Y-151466273D01*
X153260637Y-151231241D01*
X153060759Y-151031363D01*
X152825727Y-150874320D01*
X152564574Y-150766147D01*
X152287335Y-150711000D01*
X152004665Y-150711000D01*
X151727426Y-150766147D01*
X151466273Y-150874320D01*
X151231241Y-151031363D01*
X151031363Y-151231241D01*
X150874320Y-151466273D01*
X150766147Y-151727426D01*
X150711000Y-152004665D01*
X150182068Y-152004665D01*
X150269205Y-151874256D01*
X150347226Y-151685898D01*
X150387000Y-151485939D01*
X150387000Y-151282061D01*
X150347226Y-151082102D01*
X150269205Y-150893744D01*
X150155937Y-150724226D01*
X150011774Y-150580063D01*
X149842256Y-150466795D01*
X149653898Y-150388774D01*
X149453939Y-150349000D01*
X149250061Y-150349000D01*
X149050102Y-150388774D01*
X148861744Y-150466795D01*
X148692226Y-150580063D01*
X148648289Y-150624000D01*
X147261711Y-150624000D01*
X147217774Y-150580063D01*
X147048256Y-150466795D01*
X146859898Y-150388774D01*
X146659939Y-150349000D01*
X146456061Y-150349000D01*
X146256102Y-150388774D01*
X146067744Y-150466795D01*
X145898226Y-150580063D01*
X145754063Y-150724226D01*
X145640795Y-150893744D01*
X145562774Y-151082102D01*
X145523000Y-151282061D01*
X145523000Y-151485939D01*
X145553644Y-151640000D01*
X133664802Y-151640000D01*
X132557802Y-150533000D01*
X132658492Y-150533000D01*
X132869309Y-150512236D01*
X133139808Y-150430182D01*
X133389101Y-150296932D01*
X133607608Y-150117608D01*
X133786932Y-149899101D01*
X133858000Y-149766142D01*
X133929068Y-149899101D01*
X134108392Y-150117608D01*
X134326899Y-150296932D01*
X134576192Y-150430182D01*
X134846691Y-150512236D01*
X135057508Y-150533000D01*
X135198492Y-150533000D01*
X135409309Y-150512236D01*
X135679808Y-150430182D01*
X135929101Y-150296932D01*
X136147608Y-150117608D01*
X136326932Y-149899101D01*
X136398000Y-149766142D01*
X136469068Y-149899101D01*
X136648392Y-150117608D01*
X136866899Y-150296932D01*
X137116192Y-150430182D01*
X137386691Y-150512236D01*
X137597508Y-150533000D01*
X137738492Y-150533000D01*
X137949309Y-150512236D01*
X138219808Y-150430182D01*
X138469101Y-150296932D01*
X138687608Y-150117608D01*
X138866932Y-149899101D01*
X138938000Y-149766142D01*
X139009068Y-149899101D01*
X139188392Y-150117608D01*
X139406899Y-150296932D01*
X139656192Y-150430182D01*
X139926691Y-150512236D01*
X140137508Y-150533000D01*
X140278492Y-150533000D01*
X140489309Y-150512236D01*
X140759808Y-150430182D01*
X141009101Y-150296932D01*
X141227608Y-150117608D01*
X141406932Y-149899101D01*
X141478000Y-149766142D01*
X141549068Y-149899101D01*
X141728392Y-150117608D01*
X141946899Y-150296932D01*
X142196192Y-150430182D01*
X142466691Y-150512236D01*
X142677508Y-150533000D01*
X142818492Y-150533000D01*
X143029309Y-150512236D01*
X143299808Y-150430182D01*
X143549101Y-150296932D01*
X143767608Y-150117608D01*
X143946932Y-149899101D01*
X144018000Y-149766142D01*
X144089068Y-149899101D01*
X144268392Y-150117608D01*
X144486899Y-150296932D01*
X144736192Y-150430182D01*
X145006691Y-150512236D01*
X145217508Y-150533000D01*
X145358492Y-150533000D01*
X145569309Y-150512236D01*
X145839808Y-150430182D01*
X146089101Y-150296932D01*
X146307608Y-150117608D01*
X146486932Y-149899101D01*
X146558000Y-149766142D01*
X146629068Y-149899101D01*
X146808392Y-150117608D01*
X147026899Y-150296932D01*
X147276192Y-150430182D01*
X147546691Y-150512236D01*
X147757508Y-150533000D01*
X147898492Y-150533000D01*
X148109309Y-150512236D01*
X148379808Y-150430182D01*
X148629101Y-150296932D01*
X148847608Y-150117608D01*
X149026932Y-149899101D01*
X149160182Y-149649808D01*
X149242236Y-149379309D01*
X149269943Y-149098000D01*
X149242236Y-148816691D01*
X149160182Y-148546192D01*
X149026932Y-148296899D01*
X148847608Y-148078392D01*
X148629101Y-147899068D01*
X148379808Y-147765818D01*
X148109309Y-147683764D01*
X147898492Y-147663000D01*
X147757508Y-147663000D01*
X147546691Y-147683764D01*
X147276192Y-147765818D01*
X147026899Y-147899068D01*
X146808392Y-148078392D01*
X146629068Y-148296899D01*
X146558000Y-148429858D01*
X146486932Y-148296899D01*
X146307608Y-148078392D01*
X146089101Y-147899068D01*
X145839808Y-147765818D01*
X145569309Y-147683764D01*
X145358492Y-147663000D01*
X145217508Y-147663000D01*
X145006691Y-147683764D01*
X144736192Y-147765818D01*
X144486899Y-147899068D01*
X144268392Y-148078392D01*
X144089068Y-148296899D01*
X144018000Y-148429858D01*
X143946932Y-148296899D01*
X143767608Y-148078392D01*
X143549101Y-147899068D01*
X143299808Y-147765818D01*
X143029309Y-147683764D01*
X142818492Y-147663000D01*
X142677508Y-147663000D01*
X142466691Y-147683764D01*
X142196192Y-147765818D01*
X141946899Y-147899068D01*
X141728392Y-148078392D01*
X141549068Y-148296899D01*
X141478000Y-148429858D01*
X141406932Y-148296899D01*
X141227608Y-148078392D01*
X141009101Y-147899068D01*
X140759808Y-147765818D01*
X140489309Y-147683764D01*
X140278492Y-147663000D01*
X140137508Y-147663000D01*
X139926691Y-147683764D01*
X139656192Y-147765818D01*
X139406899Y-147899068D01*
X139188392Y-148078392D01*
X139009068Y-148296899D01*
X138938000Y-148429858D01*
X138866932Y-148296899D01*
X138687608Y-148078392D01*
X138469101Y-147899068D01*
X138219808Y-147765818D01*
X137949309Y-147683764D01*
X137738492Y-147663000D01*
X137597508Y-147663000D01*
X137386691Y-147683764D01*
X137116192Y-147765818D01*
X136866899Y-147899068D01*
X136648392Y-148078392D01*
X136469068Y-148296899D01*
X136398000Y-148429858D01*
X136326932Y-148296899D01*
X136147608Y-148078392D01*
X135929101Y-147899068D01*
X135679808Y-147765818D01*
X135409309Y-147683764D01*
X135198492Y-147663000D01*
X135057508Y-147663000D01*
X134846691Y-147683764D01*
X134576192Y-147765818D01*
X134326899Y-147899068D01*
X134108392Y-148078392D01*
X133929068Y-148296899D01*
X133858000Y-148429858D01*
X133786932Y-148296899D01*
X133607608Y-148078392D01*
X133389101Y-147899068D01*
X133139808Y-147765818D01*
X132869309Y-147683764D01*
X132658492Y-147663000D01*
X132517508Y-147663000D01*
X132306691Y-147683764D01*
X132036192Y-147765818D01*
X131786899Y-147899068D01*
X131568392Y-148078392D01*
X131389068Y-148296899D01*
X131318000Y-148429858D01*
X131246932Y-148296899D01*
X131067608Y-148078392D01*
X130849101Y-147899068D01*
X130599808Y-147765818D01*
X130329309Y-147683764D01*
X130118492Y-147663000D01*
X130017801Y-147663000D01*
X132648802Y-145032000D01*
X136964289Y-145032000D01*
X137008226Y-145075937D01*
X137177744Y-145189205D01*
X137366102Y-145267226D01*
X137566061Y-145307000D01*
X137769939Y-145307000D01*
X137969898Y-145267226D01*
X138158256Y-145189205D01*
X138327774Y-145075937D01*
X138471937Y-144931774D01*
X138585205Y-144762256D01*
X138663226Y-144573898D01*
X138672753Y-144526000D01*
X150704057Y-144526000D01*
X150731764Y-144807309D01*
X150813818Y-145077808D01*
X150947068Y-145327101D01*
X151126392Y-145545608D01*
X151344899Y-145724932D01*
X151594192Y-145858182D01*
X151864691Y-145940236D01*
X152075508Y-145961000D01*
X152216492Y-145961000D01*
X152427309Y-145940236D01*
X152697808Y-145858182D01*
X152947101Y-145724932D01*
X153165608Y-145545608D01*
X153344932Y-145327101D01*
X153478182Y-145077808D01*
X153560236Y-144807309D01*
X153587943Y-144526000D01*
X153560236Y-144244691D01*
X153478182Y-143974192D01*
X153344932Y-143724899D01*
X153165608Y-143506392D01*
X152947101Y-143327068D01*
X152697808Y-143193818D01*
X152427309Y-143111764D01*
X152216492Y-143091000D01*
X152075508Y-143091000D01*
X151864691Y-143111764D01*
X151594192Y-143193818D01*
X151344899Y-143327068D01*
X151126392Y-143506392D01*
X150947068Y-143724899D01*
X150813818Y-143974192D01*
X150731764Y-144244691D01*
X150704057Y-144526000D01*
X138672753Y-144526000D01*
X138703000Y-144373939D01*
X138703000Y-144170061D01*
X138663226Y-143970102D01*
X138585205Y-143781744D01*
X138471937Y-143612226D01*
X138327774Y-143468063D01*
X138158256Y-143354795D01*
X137969898Y-143276774D01*
X137769939Y-143237000D01*
X137566061Y-143237000D01*
X137366102Y-143276774D01*
X137177744Y-143354795D01*
X137008226Y-143468063D01*
X136964289Y-143512000D01*
X136132356Y-143512000D01*
X136163000Y-143357939D01*
X136163000Y-143154061D01*
X136123226Y-142954102D01*
X136045205Y-142765744D01*
X136032013Y-142746000D01*
X154089199Y-142746000D01*
X160503318Y-149160120D01*
X160481662Y-149380000D01*
X160506955Y-149636805D01*
X160581862Y-149883741D01*
X160703505Y-150111318D01*
X160867208Y-150310792D01*
X161066682Y-150474495D01*
X161294259Y-150596138D01*
X161541195Y-150671045D01*
X161733649Y-150690000D01*
X161862351Y-150690000D01*
X162054805Y-150671045D01*
X162301741Y-150596138D01*
X162529318Y-150474495D01*
X162728792Y-150310792D01*
X162892495Y-150111318D01*
X163014138Y-149883741D01*
X163089045Y-149636805D01*
X163114338Y-149380000D01*
X163092682Y-149160120D01*
X163678001Y-148574801D01*
X163678001Y-181204000D01*
X96164000Y-181204000D01*
X96164000Y-179371413D01*
X135188192Y-179371413D01*
X135283956Y-179635814D01*
X135573571Y-179776704D01*
X135885108Y-179858384D01*
X136206595Y-179877718D01*
X136525675Y-179833961D01*
X136830088Y-179728795D01*
X137004044Y-179635814D01*
X137099808Y-179371413D01*
X141688192Y-179371413D01*
X141783956Y-179635814D01*
X142073571Y-179776704D01*
X142385108Y-179858384D01*
X142706595Y-179877718D01*
X143025675Y-179833961D01*
X143330088Y-179728795D01*
X143504044Y-179635814D01*
X143599808Y-179371413D01*
X142644000Y-178415605D01*
X141688192Y-179371413D01*
X137099808Y-179371413D01*
X136144000Y-178415605D01*
X135188192Y-179371413D01*
X96164000Y-179371413D01*
X96164000Y-178298595D01*
X134502282Y-178298595D01*
X134546039Y-178617675D01*
X134651205Y-178922088D01*
X134744186Y-179096044D01*
X135008587Y-179191808D01*
X135964395Y-178236000D01*
X136323605Y-178236000D01*
X137279413Y-179191808D01*
X137543814Y-179096044D01*
X137684704Y-178806429D01*
X137766384Y-178494892D01*
X137778189Y-178298595D01*
X141002282Y-178298595D01*
X141046039Y-178617675D01*
X141151205Y-178922088D01*
X141244186Y-179096044D01*
X141508587Y-179191808D01*
X142464395Y-178236000D01*
X142823605Y-178236000D01*
X143779413Y-179191808D01*
X144043814Y-179096044D01*
X144180047Y-178816000D01*
X151115662Y-178816000D01*
X151140955Y-179072805D01*
X151215862Y-179319741D01*
X151337505Y-179547318D01*
X151501208Y-179746792D01*
X151700682Y-179910495D01*
X151928259Y-180032138D01*
X152175195Y-180107045D01*
X152367649Y-180126000D01*
X152496351Y-180126000D01*
X152688805Y-180107045D01*
X152935741Y-180032138D01*
X153163318Y-179910495D01*
X153232926Y-179853369D01*
X153305815Y-179942185D01*
X153402506Y-180021537D01*
X153512820Y-180080502D01*
X153632518Y-180116812D01*
X153757000Y-180129072D01*
X154146250Y-180126000D01*
X154305000Y-179967250D01*
X154305000Y-178943000D01*
X154559000Y-178943000D01*
X154559000Y-179967250D01*
X154717750Y-180126000D01*
X155107000Y-180129072D01*
X155231482Y-180116812D01*
X155351180Y-180080502D01*
X155461494Y-180021537D01*
X155558185Y-179942185D01*
X155637537Y-179845494D01*
X155696502Y-179735180D01*
X155732812Y-179615482D01*
X155745072Y-179491000D01*
X155742000Y-179101750D01*
X155583250Y-178943000D01*
X154559000Y-178943000D01*
X154305000Y-178943000D01*
X154285000Y-178943000D01*
X154285000Y-178689000D01*
X154305000Y-178689000D01*
X154305000Y-177664750D01*
X154559000Y-177664750D01*
X154559000Y-178689000D01*
X155583250Y-178689000D01*
X155742000Y-178530250D01*
X155745072Y-178141000D01*
X155732812Y-178016518D01*
X155696502Y-177896820D01*
X155637537Y-177786506D01*
X155558185Y-177689815D01*
X155461494Y-177610463D01*
X155351180Y-177551498D01*
X155231482Y-177515188D01*
X155107000Y-177502928D01*
X154717750Y-177506000D01*
X154559000Y-177664750D01*
X154305000Y-177664750D01*
X154146250Y-177506000D01*
X153757000Y-177502928D01*
X153632518Y-177515188D01*
X153512820Y-177551498D01*
X153402506Y-177610463D01*
X153305815Y-177689815D01*
X153232926Y-177778631D01*
X153163318Y-177721505D01*
X152935741Y-177599862D01*
X152688805Y-177524955D01*
X152496351Y-177506000D01*
X152367649Y-177506000D01*
X152175195Y-177524955D01*
X151928259Y-177599862D01*
X151700682Y-177721505D01*
X151501208Y-177885208D01*
X151337505Y-178084682D01*
X151215862Y-178312259D01*
X151140955Y-178559195D01*
X151115662Y-178816000D01*
X144180047Y-178816000D01*
X144184704Y-178806429D01*
X144266384Y-178494892D01*
X144285718Y-178173405D01*
X144241961Y-177854325D01*
X144136795Y-177549912D01*
X144043814Y-177375956D01*
X143779413Y-177280192D01*
X142823605Y-178236000D01*
X142464395Y-178236000D01*
X141508587Y-177280192D01*
X141244186Y-177375956D01*
X141103296Y-177665571D01*
X141021616Y-177977108D01*
X141002282Y-178298595D01*
X137778189Y-178298595D01*
X137785718Y-178173405D01*
X137741961Y-177854325D01*
X137636795Y-177549912D01*
X137543814Y-177375956D01*
X137279413Y-177280192D01*
X136323605Y-178236000D01*
X135964395Y-178236000D01*
X135008587Y-177280192D01*
X134744186Y-177375956D01*
X134603296Y-177665571D01*
X134521616Y-177977108D01*
X134502282Y-178298595D01*
X96164000Y-178298595D01*
X96164000Y-177100587D01*
X135188192Y-177100587D01*
X136144000Y-178056395D01*
X137099808Y-177100587D01*
X141688192Y-177100587D01*
X142644000Y-178056395D01*
X143599808Y-177100587D01*
X143504044Y-176836186D01*
X143214429Y-176695296D01*
X142902892Y-176613616D01*
X142581405Y-176594282D01*
X142262325Y-176638039D01*
X141957912Y-176743205D01*
X141783956Y-176836186D01*
X141688192Y-177100587D01*
X137099808Y-177100587D01*
X137004044Y-176836186D01*
X136714429Y-176695296D01*
X136402892Y-176613616D01*
X136081405Y-176594282D01*
X135762325Y-176638039D01*
X135457912Y-176743205D01*
X135283956Y-176836186D01*
X135188192Y-177100587D01*
X96164000Y-177100587D01*
X96164000Y-173698000D01*
X99145928Y-173698000D01*
X99145928Y-175298000D01*
X99158188Y-175422482D01*
X99194498Y-175542180D01*
X99253463Y-175652494D01*
X99332815Y-175749185D01*
X99429506Y-175828537D01*
X99539820Y-175887502D01*
X99659518Y-175923812D01*
X99784000Y-175936072D01*
X101384000Y-175936072D01*
X101508482Y-175923812D01*
X101628180Y-175887502D01*
X101738494Y-175828537D01*
X101835185Y-175749185D01*
X101914537Y-175652494D01*
X101973502Y-175542180D01*
X101989117Y-175490702D01*
X107390903Y-175490702D01*
X107462486Y-175734671D01*
X107717996Y-175855571D01*
X107992184Y-175924300D01*
X108274512Y-175938217D01*
X108554130Y-175896787D01*
X108820292Y-175801603D01*
X108945514Y-175734671D01*
X109017097Y-175490702D01*
X108204000Y-174677605D01*
X107390903Y-175490702D01*
X101989117Y-175490702D01*
X102009812Y-175422482D01*
X102022072Y-175298000D01*
X102022072Y-174568512D01*
X106763783Y-174568512D01*
X106805213Y-174848130D01*
X106900397Y-175114292D01*
X106967329Y-175239514D01*
X107211298Y-175311097D01*
X108024395Y-174498000D01*
X108383605Y-174498000D01*
X109196702Y-175311097D01*
X109440671Y-175239514D01*
X109561571Y-174984004D01*
X109630300Y-174709816D01*
X109644217Y-174427488D01*
X109602787Y-174147870D01*
X109507603Y-173881708D01*
X109440671Y-173756486D01*
X109196702Y-173684903D01*
X108383605Y-174498000D01*
X108024395Y-174498000D01*
X107211298Y-173684903D01*
X106967329Y-173756486D01*
X106846429Y-174011996D01*
X106777700Y-174286184D01*
X106763783Y-174568512D01*
X102022072Y-174568512D01*
X102022072Y-173698000D01*
X102009812Y-173573518D01*
X101989118Y-173505298D01*
X107390903Y-173505298D01*
X108204000Y-174318395D01*
X108927730Y-173594665D01*
X123787000Y-173594665D01*
X123787000Y-173877335D01*
X123842147Y-174154574D01*
X123950320Y-174415727D01*
X124107363Y-174650759D01*
X124307241Y-174850637D01*
X124542273Y-175007680D01*
X124803426Y-175115853D01*
X125080665Y-175171000D01*
X125363335Y-175171000D01*
X125640574Y-175115853D01*
X125901727Y-175007680D01*
X126136759Y-174850637D01*
X126336637Y-174650759D01*
X126493680Y-174415727D01*
X126601853Y-174154574D01*
X126657000Y-173877335D01*
X126657000Y-173594665D01*
X126601853Y-173317426D01*
X126493680Y-173056273D01*
X126336637Y-172821241D01*
X126136759Y-172621363D01*
X125901727Y-172464320D01*
X125640574Y-172356147D01*
X125363335Y-172301000D01*
X125080665Y-172301000D01*
X124803426Y-172356147D01*
X124542273Y-172464320D01*
X124307241Y-172621363D01*
X124107363Y-172821241D01*
X123950320Y-173056273D01*
X123842147Y-173317426D01*
X123787000Y-173594665D01*
X108927730Y-173594665D01*
X109017097Y-173505298D01*
X108945514Y-173261329D01*
X108690004Y-173140429D01*
X108415816Y-173071700D01*
X108133488Y-173057783D01*
X107853870Y-173099213D01*
X107587708Y-173194397D01*
X107462486Y-173261329D01*
X107390903Y-173505298D01*
X101989118Y-173505298D01*
X101973502Y-173453820D01*
X101914537Y-173343506D01*
X101835185Y-173246815D01*
X101738494Y-173167463D01*
X101628180Y-173108498D01*
X101508482Y-173072188D01*
X101384000Y-173059928D01*
X99784000Y-173059928D01*
X99659518Y-173072188D01*
X99539820Y-173108498D01*
X99429506Y-173167463D01*
X99332815Y-173246815D01*
X99253463Y-173343506D01*
X99194498Y-173453820D01*
X99158188Y-173573518D01*
X99145928Y-173698000D01*
X96164000Y-173698000D01*
X96164000Y-166736665D01*
X99149000Y-166736665D01*
X99149000Y-167019335D01*
X99204147Y-167296574D01*
X99312320Y-167557727D01*
X99469363Y-167792759D01*
X99669241Y-167992637D01*
X99904273Y-168149680D01*
X100165426Y-168257853D01*
X100442665Y-168313000D01*
X100725335Y-168313000D01*
X101002574Y-168257853D01*
X101263727Y-168149680D01*
X101498759Y-167992637D01*
X101698637Y-167792759D01*
X101855680Y-167557727D01*
X101963853Y-167296574D01*
X102019000Y-167019335D01*
X102019000Y-166736665D01*
X106769000Y-166736665D01*
X106769000Y-167019335D01*
X106824147Y-167296574D01*
X106932320Y-167557727D01*
X107089363Y-167792759D01*
X107289241Y-167992637D01*
X107524273Y-168149680D01*
X107785426Y-168257853D01*
X108062665Y-168313000D01*
X108345335Y-168313000D01*
X108622574Y-168257853D01*
X108883727Y-168149680D01*
X109118759Y-167992637D01*
X109318637Y-167792759D01*
X109475680Y-167557727D01*
X109583853Y-167296574D01*
X109639000Y-167019335D01*
X109639000Y-166736665D01*
X109583853Y-166459426D01*
X109475680Y-166198273D01*
X109318637Y-165963241D01*
X109118759Y-165763363D01*
X108883727Y-165606320D01*
X108622574Y-165498147D01*
X108345335Y-165443000D01*
X108062665Y-165443000D01*
X107785426Y-165498147D01*
X107524273Y-165606320D01*
X107289241Y-165763363D01*
X107089363Y-165963241D01*
X106932320Y-166198273D01*
X106824147Y-166459426D01*
X106769000Y-166736665D01*
X102019000Y-166736665D01*
X101963853Y-166459426D01*
X101855680Y-166198273D01*
X101698637Y-165963241D01*
X101498759Y-165763363D01*
X101263727Y-165606320D01*
X101002574Y-165498147D01*
X100725335Y-165443000D01*
X100442665Y-165443000D01*
X100165426Y-165498147D01*
X99904273Y-165606320D01*
X99669241Y-165763363D01*
X99469363Y-165963241D01*
X99312320Y-166198273D01*
X99204147Y-166459426D01*
X99149000Y-166736665D01*
X96164000Y-166736665D01*
X96164000Y-75082000D01*
X153355077Y-75082000D01*
X153277506Y-75123463D01*
G36*
X160503318Y-133160120D02*
G01*
X160481662Y-133380000D01*
X160506955Y-133636805D01*
X160581862Y-133883741D01*
X160703505Y-134111318D01*
X160867208Y-134310792D01*
X160951539Y-134380000D01*
X160867208Y-134449208D01*
X160703505Y-134648682D01*
X160581862Y-134876259D01*
X160506955Y-135123195D01*
X160481662Y-135380000D01*
X160503318Y-135599880D01*
X160211199Y-135892000D01*
X151829711Y-135892000D01*
X151833711Y-135888000D01*
X157696678Y-135888000D01*
X157734000Y-135891676D01*
X157771322Y-135888000D01*
X157771333Y-135888000D01*
X157882986Y-135877003D01*
X158026247Y-135833546D01*
X158158276Y-135762974D01*
X158274001Y-135668001D01*
X158297804Y-135638998D01*
X158789802Y-135147000D01*
X158851939Y-135147000D01*
X159051898Y-135107226D01*
X159240256Y-135029205D01*
X159409774Y-134915937D01*
X159553937Y-134771774D01*
X159667205Y-134602256D01*
X159745226Y-134413898D01*
X159785000Y-134213939D01*
X159785000Y-134010061D01*
X159745226Y-133810102D01*
X159667205Y-133621744D01*
X159553937Y-133452226D01*
X159409774Y-133308063D01*
X159240256Y-133194795D01*
X159051898Y-133116774D01*
X158851939Y-133077000D01*
X158648061Y-133077000D01*
X158448102Y-133116774D01*
X158259744Y-133194795D01*
X158090226Y-133308063D01*
X157946063Y-133452226D01*
X157832795Y-133621744D01*
X157754774Y-133810102D01*
X157715000Y-134010061D01*
X157715000Y-134072198D01*
X157419199Y-134368000D01*
X151833711Y-134368000D01*
X151789774Y-134324063D01*
X151620256Y-134210795D01*
X151431898Y-134132774D01*
X151231939Y-134093000D01*
X151028061Y-134093000D01*
X150828102Y-134132774D01*
X150639744Y-134210795D01*
X150470226Y-134324063D01*
X150326063Y-134468226D01*
X150212795Y-134637744D01*
X150134774Y-134826102D01*
X150095000Y-135026061D01*
X150095000Y-135229939D01*
X150134774Y-135429898D01*
X150212795Y-135618256D01*
X150326063Y-135787774D01*
X150430289Y-135892000D01*
X144328801Y-135892000D01*
X144962094Y-135258708D01*
X145006691Y-135272236D01*
X145217508Y-135293000D01*
X145358492Y-135293000D01*
X145569309Y-135272236D01*
X145839808Y-135190182D01*
X146089101Y-135056932D01*
X146307608Y-134877608D01*
X146486932Y-134659101D01*
X146558000Y-134526142D01*
X146629068Y-134659101D01*
X146808392Y-134877608D01*
X147026899Y-135056932D01*
X147276192Y-135190182D01*
X147546691Y-135272236D01*
X147757508Y-135293000D01*
X147898492Y-135293000D01*
X148109309Y-135272236D01*
X148379808Y-135190182D01*
X148629101Y-135056932D01*
X148847608Y-134877608D01*
X149026932Y-134659101D01*
X149160182Y-134409808D01*
X149242236Y-134139309D01*
X149269943Y-133858000D01*
X149242236Y-133576691D01*
X149160182Y-133306192D01*
X149026932Y-133056899D01*
X148847608Y-132838392D01*
X148629101Y-132659068D01*
X148492401Y-132586000D01*
X149410289Y-132586000D01*
X149454226Y-132629937D01*
X149623744Y-132743205D01*
X149812102Y-132821226D01*
X150012061Y-132861000D01*
X150215939Y-132861000D01*
X150415898Y-132821226D01*
X150604256Y-132743205D01*
X150773774Y-132629937D01*
X150917937Y-132485774D01*
X151031205Y-132316256D01*
X151109226Y-132127898D01*
X151149000Y-131927939D01*
X151149000Y-131724061D01*
X151109226Y-131524102D01*
X151031205Y-131335744D01*
X150917937Y-131166226D01*
X150773774Y-131022063D01*
X150604256Y-130908795D01*
X150415898Y-130830774D01*
X150215939Y-130791000D01*
X150012061Y-130791000D01*
X149812102Y-130830774D01*
X149623744Y-130908795D01*
X149454226Y-131022063D01*
X149410289Y-131066000D01*
X142277323Y-131066000D01*
X142240000Y-131062324D01*
X142202677Y-131066000D01*
X142202667Y-131066000D01*
X142091014Y-131076997D01*
X141975959Y-131111898D01*
X141947753Y-131120454D01*
X141815723Y-131191026D01*
X141732083Y-131259668D01*
X141699999Y-131285999D01*
X141676201Y-131314997D01*
X140533906Y-132457292D01*
X140489309Y-132443764D01*
X140278492Y-132423000D01*
X140177801Y-132423000D01*
X142801175Y-129799626D01*
X142819068Y-129833101D01*
X142998392Y-130051608D01*
X143216899Y-130230932D01*
X143466192Y-130364182D01*
X143736691Y-130446236D01*
X143947508Y-130467000D01*
X144088492Y-130467000D01*
X144299309Y-130446236D01*
X144569808Y-130364182D01*
X144819101Y-130230932D01*
X145037608Y-130051608D01*
X145216932Y-129833101D01*
X145350182Y-129583808D01*
X145432236Y-129313309D01*
X145459943Y-129032000D01*
X145446023Y-128890665D01*
X150203000Y-128890665D01*
X150203000Y-129173335D01*
X150258147Y-129450574D01*
X150366320Y-129711727D01*
X150523363Y-129946759D01*
X150723241Y-130146637D01*
X150958273Y-130303680D01*
X151219426Y-130411853D01*
X151496665Y-130467000D01*
X151779335Y-130467000D01*
X152056574Y-130411853D01*
X152317727Y-130303680D01*
X152552759Y-130146637D01*
X152752637Y-129946759D01*
X152909680Y-129711727D01*
X153017853Y-129450574D01*
X153073000Y-129173335D01*
X153073000Y-128890665D01*
X153017853Y-128613426D01*
X152909680Y-128352273D01*
X152752637Y-128117241D01*
X152552759Y-127917363D01*
X152317727Y-127760320D01*
X152056574Y-127652147D01*
X151779335Y-127597000D01*
X151496665Y-127597000D01*
X151219426Y-127652147D01*
X150958273Y-127760320D01*
X150723241Y-127917363D01*
X150523363Y-128117241D01*
X150366320Y-128352273D01*
X150258147Y-128613426D01*
X150203000Y-128890665D01*
X145446023Y-128890665D01*
X145432236Y-128750691D01*
X145350182Y-128480192D01*
X145216932Y-128230899D01*
X145037608Y-128012392D01*
X144819101Y-127833068D01*
X144569808Y-127699818D01*
X144299309Y-127617764D01*
X144088492Y-127597000D01*
X143947508Y-127597000D01*
X143736691Y-127617764D01*
X143466192Y-127699818D01*
X143216899Y-127833068D01*
X142998392Y-128012392D01*
X142819068Y-128230899D01*
X142797099Y-128272000D01*
X142531325Y-128272000D01*
X142494000Y-128268324D01*
X142456675Y-128272000D01*
X142456667Y-128272000D01*
X142345014Y-128282997D01*
X142201753Y-128326454D01*
X142069724Y-128397026D01*
X141953999Y-128491999D01*
X141930201Y-128520997D01*
X137993906Y-132457292D01*
X137949309Y-132443764D01*
X137738492Y-132423000D01*
X137597508Y-132423000D01*
X137386691Y-132443764D01*
X137116192Y-132525818D01*
X136866899Y-132659068D01*
X136648392Y-132838392D01*
X136469068Y-133056899D01*
X136398000Y-133189858D01*
X136326932Y-133056899D01*
X136147608Y-132838392D01*
X135929101Y-132659068D01*
X135679808Y-132525818D01*
X135409309Y-132443764D01*
X135198492Y-132423000D01*
X135057508Y-132423000D01*
X134846691Y-132443764D01*
X134576192Y-132525818D01*
X134326899Y-132659068D01*
X134108392Y-132838392D01*
X133929068Y-133056899D01*
X133858000Y-133189858D01*
X133786932Y-133056899D01*
X133607608Y-132838392D01*
X133389101Y-132659068D01*
X133139808Y-132525818D01*
X132869309Y-132443764D01*
X132658492Y-132423000D01*
X132517508Y-132423000D01*
X132306691Y-132443764D01*
X132036192Y-132525818D01*
X131786899Y-132659068D01*
X131740197Y-132697395D01*
X131264802Y-132222001D01*
X131241000Y-132192998D01*
X131125275Y-132098025D01*
X130993246Y-132027453D01*
X130849985Y-131983996D01*
X130738332Y-131972999D01*
X130738321Y-131972999D01*
X130700999Y-131969323D01*
X130663677Y-131972999D01*
X128588799Y-131972999D01*
X127055800Y-130440000D01*
X128509928Y-130440000D01*
X128522188Y-130564482D01*
X128558498Y-130684180D01*
X128617463Y-130794494D01*
X128696815Y-130891185D01*
X128793506Y-130970537D01*
X128903820Y-131029502D01*
X129023518Y-131065812D01*
X129148000Y-131078072D01*
X129762250Y-131075000D01*
X129921000Y-130916250D01*
X129921000Y-129667000D01*
X128671750Y-129667000D01*
X128513000Y-129825750D01*
X128509928Y-130440000D01*
X127055800Y-130440000D01*
X125255800Y-128640000D01*
X128509928Y-128640000D01*
X128513000Y-129254250D01*
X128671750Y-129413000D01*
X129921000Y-129413000D01*
X129921000Y-128163750D01*
X130175000Y-128163750D01*
X130175000Y-129413000D01*
X130195000Y-129413000D01*
X130195000Y-129667000D01*
X130175000Y-129667000D01*
X130175000Y-130916250D01*
X130333750Y-131075000D01*
X130948000Y-131078072D01*
X131072482Y-131065812D01*
X131192180Y-131029502D01*
X131302494Y-130970537D01*
X131399185Y-130891185D01*
X131478537Y-130794494D01*
X131537502Y-130684180D01*
X131543056Y-130665873D01*
X131609495Y-130732312D01*
X131860905Y-130900299D01*
X132140257Y-131016011D01*
X132436816Y-131075000D01*
X132739184Y-131075000D01*
X133035743Y-131016011D01*
X133315095Y-130900299D01*
X133566505Y-130732312D01*
X133780312Y-130518505D01*
X133948299Y-130267095D01*
X134064011Y-129987743D01*
X134123000Y-129691184D01*
X134123000Y-129388816D01*
X134064011Y-129092257D01*
X133948299Y-128812905D01*
X133780312Y-128561495D01*
X133566505Y-128347688D01*
X133315095Y-128179701D01*
X133035743Y-128063989D01*
X132739184Y-128005000D01*
X132436816Y-128005000D01*
X132140257Y-128063989D01*
X131860905Y-128179701D01*
X131609495Y-128347688D01*
X131543056Y-128414127D01*
X131537502Y-128395820D01*
X131478537Y-128285506D01*
X131399185Y-128188815D01*
X131302494Y-128109463D01*
X131192180Y-128050498D01*
X131072482Y-128014188D01*
X130948000Y-128001928D01*
X130333750Y-128005000D01*
X130175000Y-128163750D01*
X129921000Y-128163750D01*
X129762250Y-128005000D01*
X129148000Y-128001928D01*
X129023518Y-128014188D01*
X128903820Y-128050498D01*
X128793506Y-128109463D01*
X128696815Y-128188815D01*
X128617463Y-128285506D01*
X128558498Y-128395820D01*
X128522188Y-128515518D01*
X128509928Y-128640000D01*
X125255800Y-128640000D01*
X124151800Y-127536000D01*
X154879199Y-127536000D01*
X160503318Y-133160120D01*
X160503318Y-133160120D01*
G37*
X160503318Y-133160120D02*
X160481662Y-133380000D01*
X160506955Y-133636805D01*
X160581862Y-133883741D01*
X160703505Y-134111318D01*
X160867208Y-134310792D01*
X160951539Y-134380000D01*
X160867208Y-134449208D01*
X160703505Y-134648682D01*
X160581862Y-134876259D01*
X160506955Y-135123195D01*
X160481662Y-135380000D01*
X160503318Y-135599880D01*
X160211199Y-135892000D01*
X151829711Y-135892000D01*
X151833711Y-135888000D01*
X157696678Y-135888000D01*
X157734000Y-135891676D01*
X157771322Y-135888000D01*
X157771333Y-135888000D01*
X157882986Y-135877003D01*
X158026247Y-135833546D01*
X158158276Y-135762974D01*
X158274001Y-135668001D01*
X158297804Y-135638998D01*
X158789802Y-135147000D01*
X158851939Y-135147000D01*
X159051898Y-135107226D01*
X159240256Y-135029205D01*
X159409774Y-134915937D01*
X159553937Y-134771774D01*
X159667205Y-134602256D01*
X159745226Y-134413898D01*
X159785000Y-134213939D01*
X159785000Y-134010061D01*
X159745226Y-133810102D01*
X159667205Y-133621744D01*
X159553937Y-133452226D01*
X159409774Y-133308063D01*
X159240256Y-133194795D01*
X159051898Y-133116774D01*
X158851939Y-133077000D01*
X158648061Y-133077000D01*
X158448102Y-133116774D01*
X158259744Y-133194795D01*
X158090226Y-133308063D01*
X157946063Y-133452226D01*
X157832795Y-133621744D01*
X157754774Y-133810102D01*
X157715000Y-134010061D01*
X157715000Y-134072198D01*
X157419199Y-134368000D01*
X151833711Y-134368000D01*
X151789774Y-134324063D01*
X151620256Y-134210795D01*
X151431898Y-134132774D01*
X151231939Y-134093000D01*
X151028061Y-134093000D01*
X150828102Y-134132774D01*
X150639744Y-134210795D01*
X150470226Y-134324063D01*
X150326063Y-134468226D01*
X150212795Y-134637744D01*
X150134774Y-134826102D01*
X150095000Y-135026061D01*
X150095000Y-135229939D01*
X150134774Y-135429898D01*
X150212795Y-135618256D01*
X150326063Y-135787774D01*
X150430289Y-135892000D01*
X144328801Y-135892000D01*
X144962094Y-135258708D01*
X145006691Y-135272236D01*
X145217508Y-135293000D01*
X145358492Y-135293000D01*
X145569309Y-135272236D01*
X145839808Y-135190182D01*
X146089101Y-135056932D01*
X146307608Y-134877608D01*
X146486932Y-134659101D01*
X146558000Y-134526142D01*
X146629068Y-134659101D01*
X146808392Y-134877608D01*
X147026899Y-135056932D01*
X147276192Y-135190182D01*
X147546691Y-135272236D01*
X147757508Y-135293000D01*
X147898492Y-135293000D01*
X148109309Y-135272236D01*
X148379808Y-135190182D01*
X148629101Y-135056932D01*
X148847608Y-134877608D01*
X149026932Y-134659101D01*
X149160182Y-134409808D01*
X149242236Y-134139309D01*
X149269943Y-133858000D01*
X149242236Y-133576691D01*
X149160182Y-133306192D01*
X149026932Y-133056899D01*
X148847608Y-132838392D01*
X148629101Y-132659068D01*
X148492401Y-132586000D01*
X149410289Y-132586000D01*
X149454226Y-132629937D01*
X149623744Y-132743205D01*
X149812102Y-132821226D01*
X150012061Y-132861000D01*
X150215939Y-132861000D01*
X150415898Y-132821226D01*
X150604256Y-132743205D01*
X150773774Y-132629937D01*
X150917937Y-132485774D01*
X151031205Y-132316256D01*
X151109226Y-132127898D01*
X151149000Y-131927939D01*
X151149000Y-131724061D01*
X151109226Y-131524102D01*
X151031205Y-131335744D01*
X150917937Y-131166226D01*
X150773774Y-131022063D01*
X150604256Y-130908795D01*
X150415898Y-130830774D01*
X150215939Y-130791000D01*
X150012061Y-130791000D01*
X149812102Y-130830774D01*
X149623744Y-130908795D01*
X149454226Y-131022063D01*
X149410289Y-131066000D01*
X142277323Y-131066000D01*
X142240000Y-131062324D01*
X142202677Y-131066000D01*
X142202667Y-131066000D01*
X142091014Y-131076997D01*
X141975959Y-131111898D01*
X141947753Y-131120454D01*
X141815723Y-131191026D01*
X141732083Y-131259668D01*
X141699999Y-131285999D01*
X141676201Y-131314997D01*
X140533906Y-132457292D01*
X140489309Y-132443764D01*
X140278492Y-132423000D01*
X140177801Y-132423000D01*
X142801175Y-129799626D01*
X142819068Y-129833101D01*
X142998392Y-130051608D01*
X143216899Y-130230932D01*
X143466192Y-130364182D01*
X143736691Y-130446236D01*
X143947508Y-130467000D01*
X144088492Y-130467000D01*
X144299309Y-130446236D01*
X144569808Y-130364182D01*
X144819101Y-130230932D01*
X145037608Y-130051608D01*
X145216932Y-129833101D01*
X145350182Y-129583808D01*
X145432236Y-129313309D01*
X145459943Y-129032000D01*
X145446023Y-128890665D01*
X150203000Y-128890665D01*
X150203000Y-129173335D01*
X150258147Y-129450574D01*
X150366320Y-129711727D01*
X150523363Y-129946759D01*
X150723241Y-130146637D01*
X150958273Y-130303680D01*
X151219426Y-130411853D01*
X151496665Y-130467000D01*
X151779335Y-130467000D01*
X152056574Y-130411853D01*
X152317727Y-130303680D01*
X152552759Y-130146637D01*
X152752637Y-129946759D01*
X152909680Y-129711727D01*
X153017853Y-129450574D01*
X153073000Y-129173335D01*
X153073000Y-128890665D01*
X153017853Y-128613426D01*
X152909680Y-128352273D01*
X152752637Y-128117241D01*
X152552759Y-127917363D01*
X152317727Y-127760320D01*
X152056574Y-127652147D01*
X151779335Y-127597000D01*
X151496665Y-127597000D01*
X151219426Y-127652147D01*
X150958273Y-127760320D01*
X150723241Y-127917363D01*
X150523363Y-128117241D01*
X150366320Y-128352273D01*
X150258147Y-128613426D01*
X150203000Y-128890665D01*
X145446023Y-128890665D01*
X145432236Y-128750691D01*
X145350182Y-128480192D01*
X145216932Y-128230899D01*
X145037608Y-128012392D01*
X144819101Y-127833068D01*
X144569808Y-127699818D01*
X144299309Y-127617764D01*
X144088492Y-127597000D01*
X143947508Y-127597000D01*
X143736691Y-127617764D01*
X143466192Y-127699818D01*
X143216899Y-127833068D01*
X142998392Y-128012392D01*
X142819068Y-128230899D01*
X142797099Y-128272000D01*
X142531325Y-128272000D01*
X142494000Y-128268324D01*
X142456675Y-128272000D01*
X142456667Y-128272000D01*
X142345014Y-128282997D01*
X142201753Y-128326454D01*
X142069724Y-128397026D01*
X141953999Y-128491999D01*
X141930201Y-128520997D01*
X137993906Y-132457292D01*
X137949309Y-132443764D01*
X137738492Y-132423000D01*
X137597508Y-132423000D01*
X137386691Y-132443764D01*
X137116192Y-132525818D01*
X136866899Y-132659068D01*
X136648392Y-132838392D01*
X136469068Y-133056899D01*
X136398000Y-133189858D01*
X136326932Y-133056899D01*
X136147608Y-132838392D01*
X135929101Y-132659068D01*
X135679808Y-132525818D01*
X135409309Y-132443764D01*
X135198492Y-132423000D01*
X135057508Y-132423000D01*
X134846691Y-132443764D01*
X134576192Y-132525818D01*
X134326899Y-132659068D01*
X134108392Y-132838392D01*
X133929068Y-133056899D01*
X133858000Y-133189858D01*
X133786932Y-133056899D01*
X133607608Y-132838392D01*
X133389101Y-132659068D01*
X133139808Y-132525818D01*
X132869309Y-132443764D01*
X132658492Y-132423000D01*
X132517508Y-132423000D01*
X132306691Y-132443764D01*
X132036192Y-132525818D01*
X131786899Y-132659068D01*
X131740197Y-132697395D01*
X131264802Y-132222001D01*
X131241000Y-132192998D01*
X131125275Y-132098025D01*
X130993246Y-132027453D01*
X130849985Y-131983996D01*
X130738332Y-131972999D01*
X130738321Y-131972999D01*
X130700999Y-131969323D01*
X130663677Y-131972999D01*
X128588799Y-131972999D01*
X127055800Y-130440000D01*
X128509928Y-130440000D01*
X128522188Y-130564482D01*
X128558498Y-130684180D01*
X128617463Y-130794494D01*
X128696815Y-130891185D01*
X128793506Y-130970537D01*
X128903820Y-131029502D01*
X129023518Y-131065812D01*
X129148000Y-131078072D01*
X129762250Y-131075000D01*
X129921000Y-130916250D01*
X129921000Y-129667000D01*
X128671750Y-129667000D01*
X128513000Y-129825750D01*
X128509928Y-130440000D01*
X127055800Y-130440000D01*
X125255800Y-128640000D01*
X128509928Y-128640000D01*
X128513000Y-129254250D01*
X128671750Y-129413000D01*
X129921000Y-129413000D01*
X129921000Y-128163750D01*
X130175000Y-128163750D01*
X130175000Y-129413000D01*
X130195000Y-129413000D01*
X130195000Y-129667000D01*
X130175000Y-129667000D01*
X130175000Y-130916250D01*
X130333750Y-131075000D01*
X130948000Y-131078072D01*
X131072482Y-131065812D01*
X131192180Y-131029502D01*
X131302494Y-130970537D01*
X131399185Y-130891185D01*
X131478537Y-130794494D01*
X131537502Y-130684180D01*
X131543056Y-130665873D01*
X131609495Y-130732312D01*
X131860905Y-130900299D01*
X132140257Y-131016011D01*
X132436816Y-131075000D01*
X132739184Y-131075000D01*
X133035743Y-131016011D01*
X133315095Y-130900299D01*
X133566505Y-130732312D01*
X133780312Y-130518505D01*
X133948299Y-130267095D01*
X134064011Y-129987743D01*
X134123000Y-129691184D01*
X134123000Y-129388816D01*
X134064011Y-129092257D01*
X133948299Y-128812905D01*
X133780312Y-128561495D01*
X133566505Y-128347688D01*
X133315095Y-128179701D01*
X133035743Y-128063989D01*
X132739184Y-128005000D01*
X132436816Y-128005000D01*
X132140257Y-128063989D01*
X131860905Y-128179701D01*
X131609495Y-128347688D01*
X131543056Y-128414127D01*
X131537502Y-128395820D01*
X131478537Y-128285506D01*
X131399185Y-128188815D01*
X131302494Y-128109463D01*
X131192180Y-128050498D01*
X131072482Y-128014188D01*
X130948000Y-128001928D01*
X130333750Y-128005000D01*
X130175000Y-128163750D01*
X129921000Y-128163750D01*
X129762250Y-128005000D01*
X129148000Y-128001928D01*
X129023518Y-128014188D01*
X128903820Y-128050498D01*
X128793506Y-128109463D01*
X128696815Y-128188815D01*
X128617463Y-128285506D01*
X128558498Y-128395820D01*
X128522188Y-128515518D01*
X128509928Y-128640000D01*
X125255800Y-128640000D01*
X124151800Y-127536000D01*
X154879199Y-127536000D01*
X160503318Y-133160120D01*
G36*
X127635000Y-133731000D02*
G01*
X127655000Y-133731000D01*
X127655000Y-133985000D01*
X127635000Y-133985000D01*
X127635000Y-135127915D01*
X127857039Y-135249904D01*
X127991087Y-135209246D01*
X128245420Y-135089037D01*
X128471414Y-134921519D01*
X128660385Y-134713131D01*
X128775421Y-134521318D01*
X128849068Y-134659101D01*
X129028392Y-134877608D01*
X129246899Y-135056932D01*
X129496192Y-135190182D01*
X129766691Y-135272236D01*
X129977508Y-135293000D01*
X130118492Y-135293000D01*
X130329309Y-135272236D01*
X130599808Y-135190182D01*
X130849101Y-135056932D01*
X130957867Y-134967670D01*
X131882196Y-135892000D01*
X107756802Y-135892000D01*
X107157802Y-135293000D01*
X107258492Y-135293000D01*
X107469309Y-135272236D01*
X107739808Y-135190182D01*
X107989101Y-135056932D01*
X108207608Y-134877608D01*
X108386932Y-134659101D01*
X108458000Y-134526142D01*
X108529068Y-134659101D01*
X108708392Y-134877608D01*
X108926899Y-135056932D01*
X109176192Y-135190182D01*
X109446691Y-135272236D01*
X109657508Y-135293000D01*
X109798492Y-135293000D01*
X110009309Y-135272236D01*
X110279808Y-135190182D01*
X110529101Y-135056932D01*
X110747608Y-134877608D01*
X110926932Y-134659101D01*
X110998000Y-134526142D01*
X111069068Y-134659101D01*
X111248392Y-134877608D01*
X111466899Y-135056932D01*
X111716192Y-135190182D01*
X111986691Y-135272236D01*
X112197508Y-135293000D01*
X112338492Y-135293000D01*
X112549309Y-135272236D01*
X112819808Y-135190182D01*
X113069101Y-135056932D01*
X113287608Y-134877608D01*
X113466932Y-134659101D01*
X113538000Y-134526142D01*
X113609068Y-134659101D01*
X113788392Y-134877608D01*
X114006899Y-135056932D01*
X114256192Y-135190182D01*
X114526691Y-135272236D01*
X114737508Y-135293000D01*
X114878492Y-135293000D01*
X115089309Y-135272236D01*
X115359808Y-135190182D01*
X115609101Y-135056932D01*
X115827608Y-134877608D01*
X116006932Y-134659101D01*
X116078000Y-134526142D01*
X116149068Y-134659101D01*
X116328392Y-134877608D01*
X116546899Y-135056932D01*
X116796192Y-135190182D01*
X117066691Y-135272236D01*
X117277508Y-135293000D01*
X117418492Y-135293000D01*
X117629309Y-135272236D01*
X117899808Y-135190182D01*
X118149101Y-135056932D01*
X118367608Y-134877608D01*
X118546932Y-134659101D01*
X118618000Y-134526142D01*
X118689068Y-134659101D01*
X118868392Y-134877608D01*
X119086899Y-135056932D01*
X119336192Y-135190182D01*
X119606691Y-135272236D01*
X119817508Y-135293000D01*
X119958492Y-135293000D01*
X120169309Y-135272236D01*
X120439808Y-135190182D01*
X120689101Y-135056932D01*
X120907608Y-134877608D01*
X121086932Y-134659101D01*
X121158000Y-134526142D01*
X121229068Y-134659101D01*
X121408392Y-134877608D01*
X121626899Y-135056932D01*
X121876192Y-135190182D01*
X122146691Y-135272236D01*
X122357508Y-135293000D01*
X122498492Y-135293000D01*
X122709309Y-135272236D01*
X122979808Y-135190182D01*
X123229101Y-135056932D01*
X123447608Y-134877608D01*
X123626932Y-134659101D01*
X123698000Y-134526142D01*
X123769068Y-134659101D01*
X123948392Y-134877608D01*
X124166899Y-135056932D01*
X124416192Y-135190182D01*
X124686691Y-135272236D01*
X124897508Y-135293000D01*
X125038492Y-135293000D01*
X125249309Y-135272236D01*
X125519808Y-135190182D01*
X125769101Y-135056932D01*
X125987608Y-134877608D01*
X126166932Y-134659101D01*
X126240579Y-134521318D01*
X126355615Y-134713131D01*
X126544586Y-134921519D01*
X126770580Y-135089037D01*
X127024913Y-135209246D01*
X127158961Y-135249904D01*
X127381000Y-135127915D01*
X127381000Y-133985000D01*
X127361000Y-133985000D01*
X127361000Y-133731000D01*
X127381000Y-133731000D01*
X127381000Y-133711000D01*
X127635000Y-133711000D01*
X127635000Y-133731000D01*
X127635000Y-133731000D01*
G37*
X127635000Y-133731000D02*
X127655000Y-133731000D01*
X127655000Y-133985000D01*
X127635000Y-133985000D01*
X127635000Y-135127915D01*
X127857039Y-135249904D01*
X127991087Y-135209246D01*
X128245420Y-135089037D01*
X128471414Y-134921519D01*
X128660385Y-134713131D01*
X128775421Y-134521318D01*
X128849068Y-134659101D01*
X129028392Y-134877608D01*
X129246899Y-135056932D01*
X129496192Y-135190182D01*
X129766691Y-135272236D01*
X129977508Y-135293000D01*
X130118492Y-135293000D01*
X130329309Y-135272236D01*
X130599808Y-135190182D01*
X130849101Y-135056932D01*
X130957867Y-134967670D01*
X131882196Y-135892000D01*
X107756802Y-135892000D01*
X107157802Y-135293000D01*
X107258492Y-135293000D01*
X107469309Y-135272236D01*
X107739808Y-135190182D01*
X107989101Y-135056932D01*
X108207608Y-134877608D01*
X108386932Y-134659101D01*
X108458000Y-134526142D01*
X108529068Y-134659101D01*
X108708392Y-134877608D01*
X108926899Y-135056932D01*
X109176192Y-135190182D01*
X109446691Y-135272236D01*
X109657508Y-135293000D01*
X109798492Y-135293000D01*
X110009309Y-135272236D01*
X110279808Y-135190182D01*
X110529101Y-135056932D01*
X110747608Y-134877608D01*
X110926932Y-134659101D01*
X110998000Y-134526142D01*
X111069068Y-134659101D01*
X111248392Y-134877608D01*
X111466899Y-135056932D01*
X111716192Y-135190182D01*
X111986691Y-135272236D01*
X112197508Y-135293000D01*
X112338492Y-135293000D01*
X112549309Y-135272236D01*
X112819808Y-135190182D01*
X113069101Y-135056932D01*
X113287608Y-134877608D01*
X113466932Y-134659101D01*
X113538000Y-134526142D01*
X113609068Y-134659101D01*
X113788392Y-134877608D01*
X114006899Y-135056932D01*
X114256192Y-135190182D01*
X114526691Y-135272236D01*
X114737508Y-135293000D01*
X114878492Y-135293000D01*
X115089309Y-135272236D01*
X115359808Y-135190182D01*
X115609101Y-135056932D01*
X115827608Y-134877608D01*
X116006932Y-134659101D01*
X116078000Y-134526142D01*
X116149068Y-134659101D01*
X116328392Y-134877608D01*
X116546899Y-135056932D01*
X116796192Y-135190182D01*
X117066691Y-135272236D01*
X117277508Y-135293000D01*
X117418492Y-135293000D01*
X117629309Y-135272236D01*
X117899808Y-135190182D01*
X118149101Y-135056932D01*
X118367608Y-134877608D01*
X118546932Y-134659101D01*
X118618000Y-134526142D01*
X118689068Y-134659101D01*
X118868392Y-134877608D01*
X119086899Y-135056932D01*
X119336192Y-135190182D01*
X119606691Y-135272236D01*
X119817508Y-135293000D01*
X119958492Y-135293000D01*
X120169309Y-135272236D01*
X120439808Y-135190182D01*
X120689101Y-135056932D01*
X120907608Y-134877608D01*
X121086932Y-134659101D01*
X121158000Y-134526142D01*
X121229068Y-134659101D01*
X121408392Y-134877608D01*
X121626899Y-135056932D01*
X121876192Y-135190182D01*
X122146691Y-135272236D01*
X122357508Y-135293000D01*
X122498492Y-135293000D01*
X122709309Y-135272236D01*
X122979808Y-135190182D01*
X123229101Y-135056932D01*
X123447608Y-134877608D01*
X123626932Y-134659101D01*
X123698000Y-134526142D01*
X123769068Y-134659101D01*
X123948392Y-134877608D01*
X124166899Y-135056932D01*
X124416192Y-135190182D01*
X124686691Y-135272236D01*
X124897508Y-135293000D01*
X125038492Y-135293000D01*
X125249309Y-135272236D01*
X125519808Y-135190182D01*
X125769101Y-135056932D01*
X125987608Y-134877608D01*
X126166932Y-134659101D01*
X126240579Y-134521318D01*
X126355615Y-134713131D01*
X126544586Y-134921519D01*
X126770580Y-135089037D01*
X127024913Y-135209246D01*
X127158961Y-135249904D01*
X127381000Y-135127915D01*
X127381000Y-133985000D01*
X127361000Y-133985000D01*
X127361000Y-133731000D01*
X127381000Y-133731000D01*
X127381000Y-133711000D01*
X127635000Y-133711000D01*
X127635000Y-133731000D01*
G36*
X131897068Y-77509101D02*
G01*
X132076392Y-77727608D01*
X132294899Y-77906932D01*
X132544192Y-78040182D01*
X132814691Y-78122236D01*
X133025508Y-78143000D01*
X133166492Y-78143000D01*
X133377309Y-78122236D01*
X133421906Y-78108708D01*
X136850200Y-81537002D01*
X136873999Y-81566001D01*
X136989724Y-81660974D01*
X137121753Y-81731546D01*
X137265014Y-81775003D01*
X137376667Y-81786000D01*
X137376676Y-81786000D01*
X137413999Y-81789676D01*
X137451322Y-81786000D01*
X143703199Y-81786000D01*
X145544000Y-83626802D01*
X145544001Y-93665197D01*
X141671199Y-97538000D01*
X137705322Y-97538000D01*
X137667999Y-97534324D01*
X137630676Y-97538000D01*
X137630667Y-97538000D01*
X137519014Y-97548997D01*
X137375753Y-97592454D01*
X137243724Y-97663026D01*
X137243722Y-97663027D01*
X137243723Y-97663027D01*
X137156996Y-97734201D01*
X137156992Y-97734205D01*
X137127999Y-97757999D01*
X137104205Y-97786992D01*
X133421906Y-101469292D01*
X133377309Y-101455764D01*
X133166492Y-101435000D01*
X133025508Y-101435000D01*
X132814691Y-101455764D01*
X132544192Y-101537818D01*
X132294899Y-101671068D01*
X132076392Y-101850392D01*
X131897068Y-102068899D01*
X131826000Y-102201858D01*
X131754932Y-102068899D01*
X131575608Y-101850392D01*
X131357101Y-101671068D01*
X131107808Y-101537818D01*
X130837309Y-101455764D01*
X130626492Y-101435000D01*
X130485508Y-101435000D01*
X130274691Y-101455764D01*
X130004192Y-101537818D01*
X129754899Y-101671068D01*
X129536392Y-101850392D01*
X129357068Y-102068899D01*
X129286000Y-102201858D01*
X129214932Y-102068899D01*
X129035608Y-101850392D01*
X128817101Y-101671068D01*
X128567808Y-101537818D01*
X128297309Y-101455764D01*
X128086492Y-101435000D01*
X127945508Y-101435000D01*
X127734691Y-101455764D01*
X127690094Y-101469292D01*
X126194863Y-99974061D01*
X129521000Y-99974061D01*
X129521000Y-100177939D01*
X129560774Y-100377898D01*
X129638795Y-100566256D01*
X129752063Y-100735774D01*
X129896226Y-100879937D01*
X130065744Y-100993205D01*
X130254102Y-101071226D01*
X130454061Y-101111000D01*
X130657939Y-101111000D01*
X130857898Y-101071226D01*
X131046256Y-100993205D01*
X131215774Y-100879937D01*
X131359937Y-100735774D01*
X131473205Y-100566256D01*
X131551226Y-100377898D01*
X131561195Y-100327779D01*
X136623926Y-97026000D01*
X140012289Y-97026000D01*
X140056226Y-97069937D01*
X140225744Y-97183205D01*
X140414102Y-97261226D01*
X140614061Y-97301000D01*
X140817939Y-97301000D01*
X141017898Y-97261226D01*
X141206256Y-97183205D01*
X141375774Y-97069937D01*
X141519937Y-96925774D01*
X141633205Y-96756256D01*
X141711226Y-96567898D01*
X141751000Y-96367939D01*
X141751000Y-96164061D01*
X141711226Y-95964102D01*
X141633205Y-95775744D01*
X141519937Y-95606226D01*
X141375774Y-95462063D01*
X141206256Y-95348795D01*
X141017898Y-95270774D01*
X140817939Y-95231000D01*
X140614061Y-95231000D01*
X140414102Y-95270774D01*
X140225744Y-95348795D01*
X140056226Y-95462063D01*
X140012289Y-95506000D01*
X136439574Y-95506000D01*
X136406511Y-95502371D01*
X136364916Y-95506000D01*
X136360667Y-95506000D01*
X136327699Y-95509247D01*
X136257371Y-95515383D01*
X136253267Y-95516578D01*
X136249014Y-95516997D01*
X136181379Y-95537513D01*
X136113635Y-95557242D01*
X136109850Y-95559211D01*
X136105753Y-95560454D01*
X136043426Y-95593769D01*
X136014106Y-95609023D01*
X136010553Y-95611340D01*
X135973724Y-95631026D01*
X135948009Y-95652130D01*
X130729818Y-99055298D01*
X130657939Y-99041000D01*
X130454061Y-99041000D01*
X130254102Y-99080774D01*
X130065744Y-99158795D01*
X129896226Y-99272063D01*
X129752063Y-99416226D01*
X129638795Y-99585744D01*
X129560774Y-99774102D01*
X129521000Y-99974061D01*
X126194863Y-99974061D01*
X119435804Y-93215003D01*
X119412001Y-93185999D01*
X119296276Y-93091026D01*
X119164247Y-93020454D01*
X119020986Y-92976997D01*
X118909333Y-92966000D01*
X118909322Y-92966000D01*
X118879350Y-92963048D01*
X119054932Y-92749101D01*
X119126000Y-92616142D01*
X119197068Y-92749101D01*
X119376392Y-92967608D01*
X119594899Y-93146932D01*
X119844192Y-93280182D01*
X120114691Y-93362236D01*
X120325508Y-93383000D01*
X120466492Y-93383000D01*
X120677309Y-93362236D01*
X120947808Y-93280182D01*
X121197101Y-93146932D01*
X121415608Y-92967608D01*
X121594932Y-92749101D01*
X121666000Y-92616142D01*
X121737068Y-92749101D01*
X121916392Y-92967608D01*
X122134899Y-93146932D01*
X122384192Y-93280182D01*
X122654691Y-93362236D01*
X122865508Y-93383000D01*
X123006492Y-93383000D01*
X123217309Y-93362236D01*
X123487808Y-93280182D01*
X123737101Y-93146932D01*
X123955608Y-92967608D01*
X124134932Y-92749101D01*
X124206000Y-92616142D01*
X124277068Y-92749101D01*
X124456392Y-92967608D01*
X124674899Y-93146932D01*
X124924192Y-93280182D01*
X125194691Y-93362236D01*
X125405508Y-93383000D01*
X125546492Y-93383000D01*
X125757309Y-93362236D01*
X126027808Y-93280182D01*
X126277101Y-93146932D01*
X126495608Y-92967608D01*
X126674932Y-92749101D01*
X126746000Y-92616142D01*
X126817068Y-92749101D01*
X126996392Y-92967608D01*
X127214899Y-93146932D01*
X127464192Y-93280182D01*
X127734691Y-93362236D01*
X127945508Y-93383000D01*
X128086492Y-93383000D01*
X128297309Y-93362236D01*
X128567808Y-93280182D01*
X128817101Y-93146932D01*
X129035608Y-92967608D01*
X129214932Y-92749101D01*
X129286000Y-92616142D01*
X129357068Y-92749101D01*
X129536392Y-92967608D01*
X129754899Y-93146932D01*
X130004192Y-93280182D01*
X130274691Y-93362236D01*
X130485508Y-93383000D01*
X130626492Y-93383000D01*
X130837309Y-93362236D01*
X131107808Y-93280182D01*
X131357101Y-93146932D01*
X131575608Y-92967608D01*
X131754932Y-92749101D01*
X131826000Y-92616142D01*
X131897068Y-92749101D01*
X132076392Y-92967608D01*
X132294899Y-93146932D01*
X132544192Y-93280182D01*
X132814691Y-93362236D01*
X133025508Y-93383000D01*
X133166492Y-93383000D01*
X133377309Y-93362236D01*
X133647808Y-93280182D01*
X133897101Y-93146932D01*
X134115608Y-92967608D01*
X134294932Y-92749101D01*
X134366000Y-92616142D01*
X134437068Y-92749101D01*
X134616392Y-92967608D01*
X134834899Y-93146932D01*
X135084192Y-93280182D01*
X135354691Y-93362236D01*
X135565508Y-93383000D01*
X135706492Y-93383000D01*
X135917309Y-93362236D01*
X136187808Y-93280182D01*
X136437101Y-93146932D01*
X136655608Y-92967608D01*
X136834932Y-92749101D01*
X136906000Y-92616142D01*
X136977068Y-92749101D01*
X137156392Y-92967608D01*
X137374899Y-93146932D01*
X137624192Y-93280182D01*
X137894691Y-93362236D01*
X138105508Y-93383000D01*
X138246492Y-93383000D01*
X138457309Y-93362236D01*
X138727808Y-93280182D01*
X138977101Y-93146932D01*
X139195608Y-92967608D01*
X139374932Y-92749101D01*
X139446000Y-92616142D01*
X139517068Y-92749101D01*
X139696392Y-92967608D01*
X139914899Y-93146932D01*
X140164192Y-93280182D01*
X140434691Y-93362236D01*
X140645508Y-93383000D01*
X140786492Y-93383000D01*
X140997309Y-93362236D01*
X141267808Y-93280182D01*
X141517101Y-93146932D01*
X141735608Y-92967608D01*
X141914932Y-92749101D01*
X141988579Y-92611318D01*
X142103615Y-92803131D01*
X142292586Y-93011519D01*
X142518580Y-93179037D01*
X142772913Y-93299246D01*
X142906961Y-93339904D01*
X143129000Y-93217915D01*
X143129000Y-92075000D01*
X143383000Y-92075000D01*
X143383000Y-93217915D01*
X143605039Y-93339904D01*
X143739087Y-93299246D01*
X143993420Y-93179037D01*
X144219414Y-93011519D01*
X144408385Y-92803131D01*
X144553070Y-92561881D01*
X144647909Y-92297040D01*
X144526624Y-92075000D01*
X143383000Y-92075000D01*
X143129000Y-92075000D01*
X143109000Y-92075000D01*
X143109000Y-91821000D01*
X143129000Y-91821000D01*
X143129000Y-90678085D01*
X143383000Y-90678085D01*
X143383000Y-91821000D01*
X144526624Y-91821000D01*
X144647909Y-91598960D01*
X144553070Y-91334119D01*
X144408385Y-91092869D01*
X144219414Y-90884481D01*
X143993420Y-90716963D01*
X143739087Y-90596754D01*
X143605039Y-90556096D01*
X143383000Y-90678085D01*
X143129000Y-90678085D01*
X142906961Y-90556096D01*
X142772913Y-90596754D01*
X142518580Y-90716963D01*
X142292586Y-90884481D01*
X142103615Y-91092869D01*
X141988579Y-91284682D01*
X141914932Y-91146899D01*
X141735608Y-90928392D01*
X141517101Y-90749068D01*
X141267808Y-90615818D01*
X140997309Y-90533764D01*
X140786492Y-90513000D01*
X140645508Y-90513000D01*
X140434691Y-90533764D01*
X140164192Y-90615818D01*
X139914899Y-90749068D01*
X139696392Y-90928392D01*
X139517068Y-91146899D01*
X139446000Y-91279858D01*
X139374932Y-91146899D01*
X139195608Y-90928392D01*
X138977101Y-90749068D01*
X138727808Y-90615818D01*
X138457309Y-90533764D01*
X138246492Y-90513000D01*
X138105508Y-90513000D01*
X137894691Y-90533764D01*
X137624192Y-90615818D01*
X137374899Y-90749068D01*
X137156392Y-90928392D01*
X136977068Y-91146899D01*
X136906000Y-91279858D01*
X136834932Y-91146899D01*
X136655608Y-90928392D01*
X136437101Y-90749068D01*
X136187808Y-90615818D01*
X135917309Y-90533764D01*
X135706492Y-90513000D01*
X135565508Y-90513000D01*
X135354691Y-90533764D01*
X135084192Y-90615818D01*
X134834899Y-90749068D01*
X134616392Y-90928392D01*
X134437068Y-91146899D01*
X134366000Y-91279858D01*
X134294932Y-91146899D01*
X134115608Y-90928392D01*
X133897101Y-90749068D01*
X133647808Y-90615818D01*
X133377309Y-90533764D01*
X133166492Y-90513000D01*
X133025508Y-90513000D01*
X132814691Y-90533764D01*
X132544192Y-90615818D01*
X132294899Y-90749068D01*
X132076392Y-90928392D01*
X131897068Y-91146899D01*
X131826000Y-91279858D01*
X131754932Y-91146899D01*
X131575608Y-90928392D01*
X131357101Y-90749068D01*
X131107808Y-90615818D01*
X130837309Y-90533764D01*
X130626492Y-90513000D01*
X130485508Y-90513000D01*
X130274691Y-90533764D01*
X130004192Y-90615818D01*
X129754899Y-90749068D01*
X129536392Y-90928392D01*
X129357068Y-91146899D01*
X129286000Y-91279858D01*
X129214932Y-91146899D01*
X129035608Y-90928392D01*
X128817101Y-90749068D01*
X128567808Y-90615818D01*
X128297309Y-90533764D01*
X128086492Y-90513000D01*
X127945508Y-90513000D01*
X127734691Y-90533764D01*
X127464192Y-90615818D01*
X127214899Y-90749068D01*
X126996392Y-90928392D01*
X126817068Y-91146899D01*
X126746000Y-91279858D01*
X126674932Y-91146899D01*
X126495608Y-90928392D01*
X126277101Y-90749068D01*
X126027808Y-90615818D01*
X125757309Y-90533764D01*
X125546492Y-90513000D01*
X125405508Y-90513000D01*
X125194691Y-90533764D01*
X124924192Y-90615818D01*
X124674899Y-90749068D01*
X124456392Y-90928392D01*
X124277068Y-91146899D01*
X124206000Y-91279858D01*
X124134932Y-91146899D01*
X123955608Y-90928392D01*
X123737101Y-90749068D01*
X123487808Y-90615818D01*
X123217309Y-90533764D01*
X123006492Y-90513000D01*
X122865508Y-90513000D01*
X122654691Y-90533764D01*
X122384192Y-90615818D01*
X122134899Y-90749068D01*
X121916392Y-90928392D01*
X121737068Y-91146899D01*
X121666000Y-91279858D01*
X121594932Y-91146899D01*
X121415608Y-90928392D01*
X121197101Y-90749068D01*
X120947808Y-90615818D01*
X120677309Y-90533764D01*
X120466492Y-90513000D01*
X120325508Y-90513000D01*
X120114691Y-90533764D01*
X119844192Y-90615818D01*
X119594899Y-90749068D01*
X119376392Y-90928392D01*
X119197068Y-91146899D01*
X119126000Y-91279858D01*
X119054932Y-91146899D01*
X118875608Y-90928392D01*
X118657101Y-90749068D01*
X118407808Y-90615818D01*
X118137309Y-90533764D01*
X117926492Y-90513000D01*
X117785508Y-90513000D01*
X117574691Y-90533764D01*
X117304192Y-90615818D01*
X117054899Y-90749068D01*
X116836392Y-90928392D01*
X116657068Y-91146899D01*
X116586000Y-91279858D01*
X116514932Y-91146899D01*
X116335608Y-90928392D01*
X116117101Y-90749068D01*
X115867808Y-90615818D01*
X115597309Y-90533764D01*
X115386492Y-90513000D01*
X115245508Y-90513000D01*
X115034691Y-90533764D01*
X114764192Y-90615818D01*
X114514899Y-90749068D01*
X114296392Y-90928392D01*
X114117068Y-91146899D01*
X114046000Y-91279858D01*
X113974932Y-91146899D01*
X113795608Y-90928392D01*
X113577101Y-90749068D01*
X113327808Y-90615818D01*
X113057309Y-90533764D01*
X112846492Y-90513000D01*
X112705508Y-90513000D01*
X112494691Y-90533764D01*
X112224192Y-90615818D01*
X111974899Y-90749068D01*
X111756392Y-90928392D01*
X111663581Y-91041482D01*
X111661812Y-91023518D01*
X111625502Y-90903820D01*
X111566537Y-90793506D01*
X111487185Y-90696815D01*
X111390494Y-90617463D01*
X111280180Y-90558498D01*
X111160482Y-90522188D01*
X111036000Y-90509928D01*
X109436000Y-90509928D01*
X109311518Y-90522188D01*
X109191820Y-90558498D01*
X109081506Y-90617463D01*
X108984815Y-90696815D01*
X108905463Y-90793506D01*
X108846498Y-90903820D01*
X108810188Y-91023518D01*
X108797928Y-91148000D01*
X108797928Y-92748000D01*
X108810188Y-92872482D01*
X108838556Y-92966000D01*
X108193151Y-92966000D01*
X108183226Y-92916102D01*
X108105205Y-92727744D01*
X107991937Y-92558226D01*
X107948000Y-92514289D01*
X107948000Y-86420801D01*
X108264802Y-86104000D01*
X119342678Y-86104000D01*
X119380000Y-86107676D01*
X119417322Y-86104000D01*
X119417333Y-86104000D01*
X119528986Y-86093003D01*
X119672247Y-86049546D01*
X119804276Y-85978974D01*
X119920001Y-85884001D01*
X119943804Y-85854997D01*
X127690094Y-78108708D01*
X127734691Y-78122236D01*
X127945508Y-78143000D01*
X128086492Y-78143000D01*
X128297309Y-78122236D01*
X128567808Y-78040182D01*
X128817101Y-77906932D01*
X129035608Y-77727608D01*
X129214932Y-77509101D01*
X129286000Y-77376142D01*
X129357068Y-77509101D01*
X129536392Y-77727608D01*
X129754899Y-77906932D01*
X130004192Y-78040182D01*
X130274691Y-78122236D01*
X130485508Y-78143000D01*
X130626492Y-78143000D01*
X130837309Y-78122236D01*
X131107808Y-78040182D01*
X131357101Y-77906932D01*
X131575608Y-77727608D01*
X131754932Y-77509101D01*
X131826000Y-77376142D01*
X131897068Y-77509101D01*
X131897068Y-77509101D01*
G37*
X131897068Y-77509101D02*
X132076392Y-77727608D01*
X132294899Y-77906932D01*
X132544192Y-78040182D01*
X132814691Y-78122236D01*
X133025508Y-78143000D01*
X133166492Y-78143000D01*
X133377309Y-78122236D01*
X133421906Y-78108708D01*
X136850200Y-81537002D01*
X136873999Y-81566001D01*
X136989724Y-81660974D01*
X137121753Y-81731546D01*
X137265014Y-81775003D01*
X137376667Y-81786000D01*
X137376676Y-81786000D01*
X137413999Y-81789676D01*
X137451322Y-81786000D01*
X143703199Y-81786000D01*
X145544000Y-83626802D01*
X145544001Y-93665197D01*
X141671199Y-97538000D01*
X137705322Y-97538000D01*
X137667999Y-97534324D01*
X137630676Y-97538000D01*
X137630667Y-97538000D01*
X137519014Y-97548997D01*
X137375753Y-97592454D01*
X137243724Y-97663026D01*
X137243722Y-97663027D01*
X137243723Y-97663027D01*
X137156996Y-97734201D01*
X137156992Y-97734205D01*
X137127999Y-97757999D01*
X137104205Y-97786992D01*
X133421906Y-101469292D01*
X133377309Y-101455764D01*
X133166492Y-101435000D01*
X133025508Y-101435000D01*
X132814691Y-101455764D01*
X132544192Y-101537818D01*
X132294899Y-101671068D01*
X132076392Y-101850392D01*
X131897068Y-102068899D01*
X131826000Y-102201858D01*
X131754932Y-102068899D01*
X131575608Y-101850392D01*
X131357101Y-101671068D01*
X131107808Y-101537818D01*
X130837309Y-101455764D01*
X130626492Y-101435000D01*
X130485508Y-101435000D01*
X130274691Y-101455764D01*
X130004192Y-101537818D01*
X129754899Y-101671068D01*
X129536392Y-101850392D01*
X129357068Y-102068899D01*
X129286000Y-102201858D01*
X129214932Y-102068899D01*
X129035608Y-101850392D01*
X128817101Y-101671068D01*
X128567808Y-101537818D01*
X128297309Y-101455764D01*
X128086492Y-101435000D01*
X127945508Y-101435000D01*
X127734691Y-101455764D01*
X127690094Y-101469292D01*
X126194863Y-99974061D01*
X129521000Y-99974061D01*
X129521000Y-100177939D01*
X129560774Y-100377898D01*
X129638795Y-100566256D01*
X129752063Y-100735774D01*
X129896226Y-100879937D01*
X130065744Y-100993205D01*
X130254102Y-101071226D01*
X130454061Y-101111000D01*
X130657939Y-101111000D01*
X130857898Y-101071226D01*
X131046256Y-100993205D01*
X131215774Y-100879937D01*
X131359937Y-100735774D01*
X131473205Y-100566256D01*
X131551226Y-100377898D01*
X131561195Y-100327779D01*
X136623926Y-97026000D01*
X140012289Y-97026000D01*
X140056226Y-97069937D01*
X140225744Y-97183205D01*
X140414102Y-97261226D01*
X140614061Y-97301000D01*
X140817939Y-97301000D01*
X141017898Y-97261226D01*
X141206256Y-97183205D01*
X141375774Y-97069937D01*
X141519937Y-96925774D01*
X141633205Y-96756256D01*
X141711226Y-96567898D01*
X141751000Y-96367939D01*
X141751000Y-96164061D01*
X141711226Y-95964102D01*
X141633205Y-95775744D01*
X141519937Y-95606226D01*
X141375774Y-95462063D01*
X141206256Y-95348795D01*
X141017898Y-95270774D01*
X140817939Y-95231000D01*
X140614061Y-95231000D01*
X140414102Y-95270774D01*
X140225744Y-95348795D01*
X140056226Y-95462063D01*
X140012289Y-95506000D01*
X136439574Y-95506000D01*
X136406511Y-95502371D01*
X136364916Y-95506000D01*
X136360667Y-95506000D01*
X136327699Y-95509247D01*
X136257371Y-95515383D01*
X136253267Y-95516578D01*
X136249014Y-95516997D01*
X136181379Y-95537513D01*
X136113635Y-95557242D01*
X136109850Y-95559211D01*
X136105753Y-95560454D01*
X136043426Y-95593769D01*
X136014106Y-95609023D01*
X136010553Y-95611340D01*
X135973724Y-95631026D01*
X135948009Y-95652130D01*
X130729818Y-99055298D01*
X130657939Y-99041000D01*
X130454061Y-99041000D01*
X130254102Y-99080774D01*
X130065744Y-99158795D01*
X129896226Y-99272063D01*
X129752063Y-99416226D01*
X129638795Y-99585744D01*
X129560774Y-99774102D01*
X129521000Y-99974061D01*
X126194863Y-99974061D01*
X119435804Y-93215003D01*
X119412001Y-93185999D01*
X119296276Y-93091026D01*
X119164247Y-93020454D01*
X119020986Y-92976997D01*
X118909333Y-92966000D01*
X118909322Y-92966000D01*
X118879350Y-92963048D01*
X119054932Y-92749101D01*
X119126000Y-92616142D01*
X119197068Y-92749101D01*
X119376392Y-92967608D01*
X119594899Y-93146932D01*
X119844192Y-93280182D01*
X120114691Y-93362236D01*
X120325508Y-93383000D01*
X120466492Y-93383000D01*
X120677309Y-93362236D01*
X120947808Y-93280182D01*
X121197101Y-93146932D01*
X121415608Y-92967608D01*
X121594932Y-92749101D01*
X121666000Y-92616142D01*
X121737068Y-92749101D01*
X121916392Y-92967608D01*
X122134899Y-93146932D01*
X122384192Y-93280182D01*
X122654691Y-93362236D01*
X122865508Y-93383000D01*
X123006492Y-93383000D01*
X123217309Y-93362236D01*
X123487808Y-93280182D01*
X123737101Y-93146932D01*
X123955608Y-92967608D01*
X124134932Y-92749101D01*
X124206000Y-92616142D01*
X124277068Y-92749101D01*
X124456392Y-92967608D01*
X124674899Y-93146932D01*
X124924192Y-93280182D01*
X125194691Y-93362236D01*
X125405508Y-93383000D01*
X125546492Y-93383000D01*
X125757309Y-93362236D01*
X126027808Y-93280182D01*
X126277101Y-93146932D01*
X126495608Y-92967608D01*
X126674932Y-92749101D01*
X126746000Y-92616142D01*
X126817068Y-92749101D01*
X126996392Y-92967608D01*
X127214899Y-93146932D01*
X127464192Y-93280182D01*
X127734691Y-93362236D01*
X127945508Y-93383000D01*
X128086492Y-93383000D01*
X128297309Y-93362236D01*
X128567808Y-93280182D01*
X128817101Y-93146932D01*
X129035608Y-92967608D01*
X129214932Y-92749101D01*
X129286000Y-92616142D01*
X129357068Y-92749101D01*
X129536392Y-92967608D01*
X129754899Y-93146932D01*
X130004192Y-93280182D01*
X130274691Y-93362236D01*
X130485508Y-93383000D01*
X130626492Y-93383000D01*
X130837309Y-93362236D01*
X131107808Y-93280182D01*
X131357101Y-93146932D01*
X131575608Y-92967608D01*
X131754932Y-92749101D01*
X131826000Y-92616142D01*
X131897068Y-92749101D01*
X132076392Y-92967608D01*
X132294899Y-93146932D01*
X132544192Y-93280182D01*
X132814691Y-93362236D01*
X133025508Y-93383000D01*
X133166492Y-93383000D01*
X133377309Y-93362236D01*
X133647808Y-93280182D01*
X133897101Y-93146932D01*
X134115608Y-92967608D01*
X134294932Y-92749101D01*
X134366000Y-92616142D01*
X134437068Y-92749101D01*
X134616392Y-92967608D01*
X134834899Y-93146932D01*
X135084192Y-93280182D01*
X135354691Y-93362236D01*
X135565508Y-93383000D01*
X135706492Y-93383000D01*
X135917309Y-93362236D01*
X136187808Y-93280182D01*
X136437101Y-93146932D01*
X136655608Y-92967608D01*
X136834932Y-92749101D01*
X136906000Y-92616142D01*
X136977068Y-92749101D01*
X137156392Y-92967608D01*
X137374899Y-93146932D01*
X137624192Y-93280182D01*
X137894691Y-93362236D01*
X138105508Y-93383000D01*
X138246492Y-93383000D01*
X138457309Y-93362236D01*
X138727808Y-93280182D01*
X138977101Y-93146932D01*
X139195608Y-92967608D01*
X139374932Y-92749101D01*
X139446000Y-92616142D01*
X139517068Y-92749101D01*
X139696392Y-92967608D01*
X139914899Y-93146932D01*
X140164192Y-93280182D01*
X140434691Y-93362236D01*
X140645508Y-93383000D01*
X140786492Y-93383000D01*
X140997309Y-93362236D01*
X141267808Y-93280182D01*
X141517101Y-93146932D01*
X141735608Y-92967608D01*
X141914932Y-92749101D01*
X141988579Y-92611318D01*
X142103615Y-92803131D01*
X142292586Y-93011519D01*
X142518580Y-93179037D01*
X142772913Y-93299246D01*
X142906961Y-93339904D01*
X143129000Y-93217915D01*
X143129000Y-92075000D01*
X143383000Y-92075000D01*
X143383000Y-93217915D01*
X143605039Y-93339904D01*
X143739087Y-93299246D01*
X143993420Y-93179037D01*
X144219414Y-93011519D01*
X144408385Y-92803131D01*
X144553070Y-92561881D01*
X144647909Y-92297040D01*
X144526624Y-92075000D01*
X143383000Y-92075000D01*
X143129000Y-92075000D01*
X143109000Y-92075000D01*
X143109000Y-91821000D01*
X143129000Y-91821000D01*
X143129000Y-90678085D01*
X143383000Y-90678085D01*
X143383000Y-91821000D01*
X144526624Y-91821000D01*
X144647909Y-91598960D01*
X144553070Y-91334119D01*
X144408385Y-91092869D01*
X144219414Y-90884481D01*
X143993420Y-90716963D01*
X143739087Y-90596754D01*
X143605039Y-90556096D01*
X143383000Y-90678085D01*
X143129000Y-90678085D01*
X142906961Y-90556096D01*
X142772913Y-90596754D01*
X142518580Y-90716963D01*
X142292586Y-90884481D01*
X142103615Y-91092869D01*
X141988579Y-91284682D01*
X141914932Y-91146899D01*
X141735608Y-90928392D01*
X141517101Y-90749068D01*
X141267808Y-90615818D01*
X140997309Y-90533764D01*
X140786492Y-90513000D01*
X140645508Y-90513000D01*
X140434691Y-90533764D01*
X140164192Y-90615818D01*
X139914899Y-90749068D01*
X139696392Y-90928392D01*
X139517068Y-91146899D01*
X139446000Y-91279858D01*
X139374932Y-91146899D01*
X139195608Y-90928392D01*
X138977101Y-90749068D01*
X138727808Y-90615818D01*
X138457309Y-90533764D01*
X138246492Y-90513000D01*
X138105508Y-90513000D01*
X137894691Y-90533764D01*
X137624192Y-90615818D01*
X137374899Y-90749068D01*
X137156392Y-90928392D01*
X136977068Y-91146899D01*
X136906000Y-91279858D01*
X136834932Y-91146899D01*
X136655608Y-90928392D01*
X136437101Y-90749068D01*
X136187808Y-90615818D01*
X135917309Y-90533764D01*
X135706492Y-90513000D01*
X135565508Y-90513000D01*
X135354691Y-90533764D01*
X135084192Y-90615818D01*
X134834899Y-90749068D01*
X134616392Y-90928392D01*
X134437068Y-91146899D01*
X134366000Y-91279858D01*
X134294932Y-91146899D01*
X134115608Y-90928392D01*
X133897101Y-90749068D01*
X133647808Y-90615818D01*
X133377309Y-90533764D01*
X133166492Y-90513000D01*
X133025508Y-90513000D01*
X132814691Y-90533764D01*
X132544192Y-90615818D01*
X132294899Y-90749068D01*
X132076392Y-90928392D01*
X131897068Y-91146899D01*
X131826000Y-91279858D01*
X131754932Y-91146899D01*
X131575608Y-90928392D01*
X131357101Y-90749068D01*
X131107808Y-90615818D01*
X130837309Y-90533764D01*
X130626492Y-90513000D01*
X130485508Y-90513000D01*
X130274691Y-90533764D01*
X130004192Y-90615818D01*
X129754899Y-90749068D01*
X129536392Y-90928392D01*
X129357068Y-91146899D01*
X129286000Y-91279858D01*
X129214932Y-91146899D01*
X129035608Y-90928392D01*
X128817101Y-90749068D01*
X128567808Y-90615818D01*
X128297309Y-90533764D01*
X128086492Y-90513000D01*
X127945508Y-90513000D01*
X127734691Y-90533764D01*
X127464192Y-90615818D01*
X127214899Y-90749068D01*
X126996392Y-90928392D01*
X126817068Y-91146899D01*
X126746000Y-91279858D01*
X126674932Y-91146899D01*
X126495608Y-90928392D01*
X126277101Y-90749068D01*
X126027808Y-90615818D01*
X125757309Y-90533764D01*
X125546492Y-90513000D01*
X125405508Y-90513000D01*
X125194691Y-90533764D01*
X124924192Y-90615818D01*
X124674899Y-90749068D01*
X124456392Y-90928392D01*
X124277068Y-91146899D01*
X124206000Y-91279858D01*
X124134932Y-91146899D01*
X123955608Y-90928392D01*
X123737101Y-90749068D01*
X123487808Y-90615818D01*
X123217309Y-90533764D01*
X123006492Y-90513000D01*
X122865508Y-90513000D01*
X122654691Y-90533764D01*
X122384192Y-90615818D01*
X122134899Y-90749068D01*
X121916392Y-90928392D01*
X121737068Y-91146899D01*
X121666000Y-91279858D01*
X121594932Y-91146899D01*
X121415608Y-90928392D01*
X121197101Y-90749068D01*
X120947808Y-90615818D01*
X120677309Y-90533764D01*
X120466492Y-90513000D01*
X120325508Y-90513000D01*
X120114691Y-90533764D01*
X119844192Y-90615818D01*
X119594899Y-90749068D01*
X119376392Y-90928392D01*
X119197068Y-91146899D01*
X119126000Y-91279858D01*
X119054932Y-91146899D01*
X118875608Y-90928392D01*
X118657101Y-90749068D01*
X118407808Y-90615818D01*
X118137309Y-90533764D01*
X117926492Y-90513000D01*
X117785508Y-90513000D01*
X117574691Y-90533764D01*
X117304192Y-90615818D01*
X117054899Y-90749068D01*
X116836392Y-90928392D01*
X116657068Y-91146899D01*
X116586000Y-91279858D01*
X116514932Y-91146899D01*
X116335608Y-90928392D01*
X116117101Y-90749068D01*
X115867808Y-90615818D01*
X115597309Y-90533764D01*
X115386492Y-90513000D01*
X115245508Y-90513000D01*
X115034691Y-90533764D01*
X114764192Y-90615818D01*
X114514899Y-90749068D01*
X114296392Y-90928392D01*
X114117068Y-91146899D01*
X114046000Y-91279858D01*
X113974932Y-91146899D01*
X113795608Y-90928392D01*
X113577101Y-90749068D01*
X113327808Y-90615818D01*
X113057309Y-90533764D01*
X112846492Y-90513000D01*
X112705508Y-90513000D01*
X112494691Y-90533764D01*
X112224192Y-90615818D01*
X111974899Y-90749068D01*
X111756392Y-90928392D01*
X111663581Y-91041482D01*
X111661812Y-91023518D01*
X111625502Y-90903820D01*
X111566537Y-90793506D01*
X111487185Y-90696815D01*
X111390494Y-90617463D01*
X111280180Y-90558498D01*
X111160482Y-90522188D01*
X111036000Y-90509928D01*
X109436000Y-90509928D01*
X109311518Y-90522188D01*
X109191820Y-90558498D01*
X109081506Y-90617463D01*
X108984815Y-90696815D01*
X108905463Y-90793506D01*
X108846498Y-90903820D01*
X108810188Y-91023518D01*
X108797928Y-91148000D01*
X108797928Y-92748000D01*
X108810188Y-92872482D01*
X108838556Y-92966000D01*
X108193151Y-92966000D01*
X108183226Y-92916102D01*
X108105205Y-92727744D01*
X107991937Y-92558226D01*
X107948000Y-92514289D01*
X107948000Y-86420801D01*
X108264802Y-86104000D01*
X119342678Y-86104000D01*
X119380000Y-86107676D01*
X119417322Y-86104000D01*
X119417333Y-86104000D01*
X119528986Y-86093003D01*
X119672247Y-86049546D01*
X119804276Y-85978974D01*
X119920001Y-85884001D01*
X119943804Y-85854997D01*
X127690094Y-78108708D01*
X127734691Y-78122236D01*
X127945508Y-78143000D01*
X128086492Y-78143000D01*
X128297309Y-78122236D01*
X128567808Y-78040182D01*
X128817101Y-77906932D01*
X129035608Y-77727608D01*
X129214932Y-77509101D01*
X129286000Y-77376142D01*
X129357068Y-77509101D01*
X129536392Y-77727608D01*
X129754899Y-77906932D01*
X130004192Y-78040182D01*
X130274691Y-78122236D01*
X130485508Y-78143000D01*
X130626492Y-78143000D01*
X130837309Y-78122236D01*
X131107808Y-78040182D01*
X131357101Y-77906932D01*
X131575608Y-77727608D01*
X131754932Y-77509101D01*
X131826000Y-77376142D01*
X131897068Y-77509101D01*
M02*
