G04 #@! TF.GenerationSoftware,KiCad,Pcbnew,5.1.4*
G04 #@! TF.CreationDate,2019-09-28T19:58:14+01:00*
G04 #@! TF.ProjectId,z802-4,7a383032-2d34-42e6-9b69-6361645f7063,rev?*
G04 #@! TF.SameCoordinates,Original*
G04 #@! TF.FileFunction,Copper,L1,Top*
G04 #@! TF.FilePolarity,Positive*
%FSLAX46Y46*%
G04 Gerber Fmt 4.6, Leading zero omitted, Abs format (unit mm)*
G04 Created by KiCad (PCBNEW 5.1.4) date 2019-09-28 19:58:14*
%MOMM*%
%LPD*%
G04 APERTURE LIST*
%ADD10R,1.800000X1.800000*%
%ADD11C,1.800000*%
%ADD12R,1.700000X1.700000*%
%ADD13O,1.700000X1.700000*%
%ADD14C,1.600000*%
%ADD15O,1.600000X1.600000*%
%ADD16C,2.000000*%
%ADD17R,1.600000X1.600000*%
%ADD18C,0.800000*%
%ADD19C,0.250000*%
%ADD20C,0.254000*%
G04 APERTURE END LIST*
D10*
X75148000Y-145542000D03*
D11*
X77688000Y-145542000D03*
D12*
X126688000Y-164380000D03*
D13*
X129228000Y-164380000D03*
X131768000Y-164380000D03*
D12*
X138688000Y-147340000D03*
D13*
X138688000Y-149880000D03*
X138688000Y-152420000D03*
X138688000Y-154960000D03*
X138688000Y-157500000D03*
X138688000Y-160040000D03*
X138688000Y-162580000D03*
X138688000Y-165120000D03*
D12*
X138588000Y-104980000D03*
D13*
X138588000Y-107520000D03*
X138588000Y-110060000D03*
X138588000Y-112600000D03*
X138588000Y-115140000D03*
X138588000Y-117680000D03*
X138588000Y-120220000D03*
X138588000Y-122760000D03*
X138588000Y-125300000D03*
X138588000Y-127840000D03*
X138588000Y-130380000D03*
X138588000Y-132920000D03*
X138588000Y-135460000D03*
X138588000Y-138000000D03*
X138588000Y-140540000D03*
X138588000Y-143080000D03*
D12*
X117988000Y-164280000D03*
D13*
X120528000Y-164280000D03*
D14*
X122488000Y-111780000D03*
D15*
X114868000Y-111780000D03*
X110988000Y-145260000D03*
D14*
X110988000Y-152880000D03*
X115188000Y-152980000D03*
D15*
X115188000Y-145360000D03*
X132588000Y-118364000D03*
D14*
X132588000Y-110744000D03*
X91088000Y-159380000D03*
D15*
X98708000Y-159380000D03*
D16*
X102588000Y-163980000D03*
X102588000Y-159480000D03*
X109088000Y-163980000D03*
X109088000Y-159480000D03*
D17*
X85488000Y-103080000D03*
D15*
X118508000Y-87840000D03*
X88028000Y-103080000D03*
X115968000Y-87840000D03*
X90568000Y-103080000D03*
X113428000Y-87840000D03*
X93108000Y-103080000D03*
X110888000Y-87840000D03*
X95648000Y-103080000D03*
X108348000Y-87840000D03*
X98188000Y-103080000D03*
X105808000Y-87840000D03*
X100728000Y-103080000D03*
X103268000Y-87840000D03*
X103268000Y-103080000D03*
X100728000Y-87840000D03*
X105808000Y-103080000D03*
X98188000Y-87840000D03*
X108348000Y-103080000D03*
X95648000Y-87840000D03*
X110888000Y-103080000D03*
X93108000Y-87840000D03*
X113428000Y-103080000D03*
X90568000Y-87840000D03*
X115968000Y-103080000D03*
X88028000Y-87840000D03*
X118508000Y-103080000D03*
X85488000Y-87840000D03*
D17*
X73888000Y-130980000D03*
D15*
X122148000Y-115740000D03*
X76428000Y-130980000D03*
X119608000Y-115740000D03*
X78968000Y-130980000D03*
X117068000Y-115740000D03*
X81508000Y-130980000D03*
X114528000Y-115740000D03*
X84048000Y-130980000D03*
X111988000Y-115740000D03*
X86588000Y-130980000D03*
X109448000Y-115740000D03*
X89128000Y-130980000D03*
X106908000Y-115740000D03*
X91668000Y-130980000D03*
X104368000Y-115740000D03*
X94208000Y-130980000D03*
X101828000Y-115740000D03*
X96748000Y-130980000D03*
X99288000Y-115740000D03*
X99288000Y-130980000D03*
X96748000Y-115740000D03*
X101828000Y-130980000D03*
X94208000Y-115740000D03*
X104368000Y-130980000D03*
X91668000Y-115740000D03*
X106908000Y-130980000D03*
X89128000Y-115740000D03*
X109448000Y-130980000D03*
X86588000Y-115740000D03*
X111988000Y-130980000D03*
X84048000Y-115740000D03*
X114528000Y-130980000D03*
X81508000Y-115740000D03*
X117068000Y-130980000D03*
X78968000Y-115740000D03*
X119608000Y-130980000D03*
X76428000Y-115740000D03*
X122148000Y-130980000D03*
X73888000Y-115740000D03*
D17*
X131988000Y-83680000D03*
D15*
X139608000Y-98920000D03*
X131988000Y-86220000D03*
X139608000Y-96380000D03*
X131988000Y-88760000D03*
X139608000Y-93840000D03*
X131988000Y-91300000D03*
X139608000Y-91300000D03*
X131988000Y-93840000D03*
X139608000Y-88760000D03*
X131988000Y-96380000D03*
X139608000Y-86220000D03*
X131988000Y-98920000D03*
X139608000Y-83680000D03*
X139808000Y-62980000D03*
X132188000Y-78220000D03*
X139808000Y-65520000D03*
X132188000Y-75680000D03*
X139808000Y-68060000D03*
X132188000Y-73140000D03*
X139808000Y-70600000D03*
X132188000Y-70600000D03*
X139808000Y-73140000D03*
X132188000Y-68060000D03*
X139808000Y-75680000D03*
X132188000Y-65520000D03*
X139808000Y-78220000D03*
D17*
X132188000Y-62980000D03*
D15*
X85588000Y-63140000D03*
X118608000Y-78380000D03*
X88128000Y-63140000D03*
X116068000Y-78380000D03*
X90668000Y-63140000D03*
X113528000Y-78380000D03*
X93208000Y-63140000D03*
X110988000Y-78380000D03*
X95748000Y-63140000D03*
X108448000Y-78380000D03*
X98288000Y-63140000D03*
X105908000Y-78380000D03*
X100828000Y-63140000D03*
X103368000Y-78380000D03*
X103368000Y-63140000D03*
X100828000Y-78380000D03*
X105908000Y-63140000D03*
X98288000Y-78380000D03*
X108448000Y-63140000D03*
X95748000Y-78380000D03*
X110988000Y-63140000D03*
X93208000Y-78380000D03*
X113528000Y-63140000D03*
X90668000Y-78380000D03*
X116068000Y-63140000D03*
X88128000Y-78380000D03*
X118608000Y-63140000D03*
D17*
X85588000Y-78380000D03*
X75788000Y-162180000D03*
D14*
X75788000Y-154560000D03*
X83408000Y-154560000D03*
X83408000Y-162180000D03*
D18*
X124968000Y-100330000D03*
X91186000Y-107442000D03*
X90932000Y-98298000D03*
X88138000Y-99314000D03*
X108966000Y-112522000D03*
X122174000Y-102108000D03*
X110988000Y-134980000D03*
X103088000Y-117680000D03*
X104688000Y-119180000D03*
X114588000Y-135955000D03*
X105888000Y-136655000D03*
X111252000Y-111760000D03*
X109728000Y-118618000D03*
X109728000Y-129032000D03*
X123488000Y-89380000D03*
X129788000Y-148780000D03*
X123488000Y-90480000D03*
X129038000Y-149530000D03*
X99788000Y-139080000D03*
X123488000Y-91580000D03*
X128088000Y-149880000D03*
X101988000Y-139880000D03*
X123488000Y-92680000D03*
X127281593Y-150471365D03*
X112388000Y-140680000D03*
X123488000Y-93880000D03*
X125218000Y-149610000D03*
X90228000Y-120220000D03*
X80738000Y-83630000D03*
X79938000Y-81430000D03*
X80688000Y-77880000D03*
X85188000Y-125180000D03*
X87888000Y-118080000D03*
X77888000Y-111680000D03*
X124714000Y-94996000D03*
X115824000Y-114046000D03*
X117692000Y-128180000D03*
X117094000Y-110998000D03*
X121158000Y-103378000D03*
X119380000Y-128905000D03*
X102713001Y-135733001D03*
X120904000Y-118618000D03*
X131318000Y-103378000D03*
X122428000Y-118618000D03*
X131064000Y-115062000D03*
X134620000Y-95504000D03*
D19*
X130578000Y-100330000D02*
X131988000Y-98920000D01*
X124968000Y-100330000D02*
X130578000Y-100330000D01*
X91186000Y-107442000D02*
X97028000Y-113284000D01*
X99372000Y-113284000D02*
X101828000Y-115740000D01*
X97028000Y-113284000D02*
X99372000Y-113284000D01*
X92202000Y-98298000D02*
X94488000Y-100584000D01*
X90932000Y-98298000D02*
X92202000Y-98298000D01*
X116012000Y-100584000D02*
X118508000Y-103080000D01*
X94488000Y-100584000D02*
X116012000Y-100584000D01*
X86488000Y-64780000D02*
X78988000Y-64780000D01*
X80888000Y-86480000D02*
X86668000Y-86480000D01*
X73888000Y-69880000D02*
X73888000Y-79480000D01*
X86668000Y-86480000D02*
X88028000Y-87840000D01*
X88128000Y-63140000D02*
X86488000Y-64780000D01*
X78988000Y-64780000D02*
X73888000Y-69880000D01*
X73888000Y-79480000D02*
X80888000Y-86480000D01*
X90966999Y-99314000D02*
X88138000Y-99314000D01*
X94522999Y-102870000D02*
X90966999Y-99314000D01*
X103424998Y-112522000D02*
X94522999Y-103620001D01*
X108966000Y-112522000D02*
X103424998Y-112522000D01*
X94522999Y-103620001D02*
X94522999Y-102870000D01*
X100828000Y-63140000D02*
X94588000Y-69380000D01*
X94588000Y-69380000D02*
X81288000Y-69380000D01*
X81288000Y-69380000D02*
X78888000Y-71780000D01*
X78888000Y-71780000D02*
X78888000Y-77580000D01*
X78888000Y-77580000D02*
X82788000Y-81480000D01*
X94368000Y-81480000D02*
X100728000Y-87840000D01*
X82788000Y-81480000D02*
X94368000Y-81480000D01*
X100728000Y-88971370D02*
X100728000Y-87840000D01*
X110744000Y-98552000D02*
X100728000Y-88971370D01*
X122174000Y-102108000D02*
X118618000Y-98552000D01*
X118618000Y-98552000D02*
X110744000Y-98552000D01*
X120088000Y-135080000D02*
X132348000Y-147340000D01*
X132348000Y-147340000D02*
X138688000Y-147340000D01*
X111588000Y-135080000D02*
X120088000Y-135080000D01*
X110988000Y-134980000D02*
X111588000Y-135080000D01*
X103088000Y-117680000D02*
X103188000Y-117680000D01*
X103188000Y-117680000D02*
X104688000Y-119180000D01*
X117588000Y-135980000D02*
X115188000Y-135980000D01*
X119688000Y-135980000D02*
X117588000Y-135980000D01*
X132738001Y-149030001D02*
X119688000Y-135980000D01*
X138688000Y-149880000D02*
X137838001Y-149030001D01*
X137838001Y-149030001D02*
X132738001Y-149030001D01*
X115188000Y-135980000D02*
X114613000Y-135980000D01*
X114613000Y-135980000D02*
X114588000Y-135955000D01*
X138688000Y-152420000D02*
X134728000Y-152420000D01*
X134728000Y-152420000D02*
X118988000Y-136680000D01*
X118988000Y-136680000D02*
X106788000Y-136680000D01*
X106788000Y-136680000D02*
X105913000Y-136680000D01*
X105913000Y-136680000D02*
X105888000Y-136655000D01*
X110573001Y-117772999D02*
X109728000Y-118618000D01*
X111252000Y-111760000D02*
X110573001Y-112438999D01*
X110573001Y-112438999D02*
X110573001Y-117772999D01*
X103776000Y-129032000D02*
X101828000Y-130980000D01*
X109728000Y-129032000D02*
X103776000Y-129032000D01*
X118608000Y-63140000D02*
X125148000Y-69680000D01*
X125148000Y-81200000D02*
X118508000Y-87840000D01*
X125148000Y-69680000D02*
X125148000Y-81200000D01*
X91668000Y-133460000D02*
X91668000Y-130980000D01*
X95588000Y-137380000D02*
X91668000Y-133460000D01*
X118388000Y-137380000D02*
X95588000Y-137380000D01*
X138688000Y-154960000D02*
X135968000Y-154960000D01*
X118508000Y-88971370D02*
X118916630Y-89380000D01*
X118508000Y-87840000D02*
X118508000Y-88971370D01*
X118916630Y-89380000D02*
X121788000Y-89380000D01*
X121788000Y-89380000D02*
X123488000Y-89380000D01*
X135968000Y-154960000D02*
X129788000Y-148780000D01*
X129788000Y-148780000D02*
X118388000Y-137380000D01*
X116068000Y-63140000D02*
X117708000Y-64780000D01*
X117708000Y-64780000D02*
X118888000Y-64780000D01*
X118888000Y-64780000D02*
X124288000Y-70180000D01*
X124288000Y-70180000D02*
X124288000Y-80780000D01*
X117093001Y-86714999D02*
X116767999Y-87040001D01*
X116767999Y-87040001D02*
X115968000Y-87840000D01*
X118353001Y-86714999D02*
X117093001Y-86714999D01*
X124288000Y-80780000D02*
X118353001Y-86714999D01*
X117788000Y-138280000D02*
X93988000Y-138280000D01*
X138688000Y-157500000D02*
X137838001Y-156650001D01*
X137838001Y-156650001D02*
X136158001Y-156650001D01*
X89128000Y-133420000D02*
X89128000Y-130980000D01*
X93988000Y-138280000D02*
X89128000Y-133420000D01*
X115968000Y-88971370D02*
X117176630Y-90180000D01*
X115968000Y-87840000D02*
X115968000Y-88971370D01*
X117176630Y-90180000D02*
X121788000Y-90180000D01*
X121788000Y-90180000D02*
X123188000Y-90180000D01*
X123188000Y-90180000D02*
X123488000Y-90480000D01*
X136158001Y-156650001D02*
X129038000Y-149530000D01*
X129038000Y-149530000D02*
X117788000Y-138280000D01*
X113528000Y-63140000D02*
X115868000Y-65480000D01*
X115868000Y-65480000D02*
X118188000Y-65480000D01*
X118188000Y-65480000D02*
X123288000Y-70580000D01*
X123288000Y-70580000D02*
X123288000Y-80480000D01*
X123288000Y-80480000D02*
X117788000Y-85980000D01*
X115288000Y-85980000D02*
X113588000Y-87680000D01*
X117788000Y-85980000D02*
X115288000Y-85980000D01*
X113588000Y-87680000D02*
X113428000Y-87840000D01*
X136228000Y-157580000D02*
X138688000Y-160040000D01*
X135788000Y-157580000D02*
X136228000Y-157580000D01*
X99788000Y-139080000D02*
X117288000Y-139080000D01*
X113428000Y-88971370D02*
X115436630Y-90980000D01*
X113428000Y-87840000D02*
X113428000Y-88971370D01*
X115436630Y-90980000D02*
X121988000Y-90980000D01*
X121988000Y-90980000D02*
X122888000Y-90980000D01*
X122888000Y-90980000D02*
X123488000Y-91580000D01*
X117288000Y-139080000D02*
X128088000Y-149880000D01*
X128088000Y-149880000D02*
X135788000Y-157580000D01*
X110988000Y-63140000D02*
X114228000Y-66380000D01*
X114228000Y-66380000D02*
X117488000Y-66380000D01*
X122288000Y-71180000D02*
X122288000Y-80080000D01*
X117488000Y-66380000D02*
X122288000Y-71180000D01*
X122288000Y-80080000D02*
X117188000Y-85180000D01*
X113548000Y-85180000D02*
X110888000Y-87840000D01*
X117188000Y-85180000D02*
X113548000Y-85180000D01*
X116788000Y-139880000D02*
X102688000Y-139880000D01*
X134888000Y-157980000D02*
X116788000Y-139880000D01*
X138688000Y-162580000D02*
X134888000Y-158780000D01*
X134888000Y-158780000D02*
X134888000Y-157980000D01*
X102688000Y-139880000D02*
X101988000Y-139880000D01*
X114828000Y-91780000D02*
X119288000Y-91780000D01*
X110888000Y-87840000D02*
X114828000Y-91780000D01*
X119288000Y-91780000D02*
X122088000Y-91780000D01*
X122088000Y-91780000D02*
X122588000Y-91780000D01*
X122588000Y-91780000D02*
X123488000Y-92680000D01*
X109147999Y-87040001D02*
X108348000Y-87840000D01*
X109862999Y-64554999D02*
X109862999Y-86325001D01*
X109862999Y-86325001D02*
X109147999Y-87040001D01*
X108448000Y-63140000D02*
X109862999Y-64554999D01*
X138688000Y-165120000D02*
X131488000Y-157920000D01*
X131488000Y-157920000D02*
X131488000Y-155880000D01*
X116288000Y-140680000D02*
X112788000Y-140680000D01*
X112788000Y-140680000D02*
X112388000Y-140680000D01*
X113188000Y-92680000D02*
X122188000Y-92680000D01*
X108348000Y-87840000D02*
X113188000Y-92680000D01*
X122188000Y-92680000D02*
X122288000Y-92680000D01*
X122288000Y-92680000D02*
X123488000Y-93880000D01*
X124588000Y-148980000D02*
X116288000Y-140680000D01*
X125218000Y-149610000D02*
X124588000Y-148980000D01*
X131488000Y-155880000D02*
X125218000Y-149610000D01*
X100087999Y-114940001D02*
X99288000Y-115740000D01*
X110248000Y-104980000D02*
X108348000Y-103080000D01*
X138588000Y-104980000D02*
X110248000Y-104980000D01*
X108608000Y-105880000D02*
X105808000Y-103080000D01*
X135688000Y-105880000D02*
X108608000Y-105880000D01*
X138588000Y-107520000D02*
X137328000Y-107520000D01*
X137328000Y-107520000D02*
X135688000Y-105880000D01*
X138588000Y-110060000D02*
X135408000Y-106880000D01*
X107068000Y-106880000D02*
X103268000Y-103080000D01*
X135408000Y-106880000D02*
X107068000Y-106880000D01*
X138588000Y-112600000D02*
X133768000Y-107780000D01*
X105428000Y-107780000D02*
X100728000Y-103080000D01*
X133768000Y-107780000D02*
X105428000Y-107780000D01*
X103888000Y-108780000D02*
X98188000Y-103080000D01*
X138588000Y-115140000D02*
X134444000Y-115140000D01*
X128084000Y-108780000D02*
X127576000Y-108780000D01*
X127830000Y-108780000D02*
X127576000Y-108780000D01*
X134444000Y-115140000D02*
X128084000Y-108780000D01*
X127576000Y-108780000D02*
X103888000Y-108780000D01*
X102248000Y-109680000D02*
X95648000Y-103080000D01*
X127762000Y-109680000D02*
X102248000Y-109680000D01*
X135762000Y-117680000D02*
X138588000Y-117680000D01*
X127762000Y-109680000D02*
X135762000Y-117680000D01*
X84048000Y-115740000D02*
X88528000Y-120220000D01*
X90253001Y-120194999D02*
X90228000Y-120220000D01*
X90253001Y-107066369D02*
X90253001Y-120194999D01*
X93108000Y-103080000D02*
X93108000Y-104211370D01*
X90228000Y-120220000D02*
X138588000Y-120220000D01*
X93108000Y-104211370D02*
X90253001Y-107066369D01*
X88528000Y-120220000D02*
X90228000Y-120220000D01*
X86748000Y-120980000D02*
X81508000Y-115740000D01*
X136188000Y-120980000D02*
X86748000Y-120980000D01*
X137118001Y-121910001D02*
X136188000Y-120980000D01*
X138588000Y-122760000D02*
X137738001Y-121910001D01*
X137738001Y-121910001D02*
X137118001Y-121910001D01*
X80088000Y-66480000D02*
X75888000Y-70680000D01*
X75888000Y-70680000D02*
X75888000Y-78780000D01*
X93208000Y-63140000D02*
X89868000Y-66480000D01*
X89868000Y-66480000D02*
X80088000Y-66480000D01*
X81588000Y-84480000D02*
X89748000Y-84480000D01*
X89748000Y-84480000D02*
X93108000Y-87840000D01*
X138588000Y-125300000D02*
X135068000Y-121780000D01*
X85008000Y-121780000D02*
X78968000Y-115740000D01*
X135068000Y-121780000D02*
X85008000Y-121780000D01*
X75888000Y-78780000D02*
X80738000Y-83630000D01*
X80738000Y-83630000D02*
X81588000Y-84480000D01*
X95748000Y-64271370D02*
X92539370Y-67480000D01*
X95748000Y-63140000D02*
X95748000Y-64271370D01*
X92539370Y-67480000D02*
X80388000Y-67480000D01*
X80388000Y-67480000D02*
X76788000Y-71080000D01*
X76788000Y-71080000D02*
X76788000Y-78280000D01*
X91388000Y-83580000D02*
X95648000Y-87840000D01*
X82088000Y-83580000D02*
X91388000Y-83580000D01*
X76428000Y-115740000D02*
X83168000Y-122480000D01*
X133228000Y-122480000D02*
X138588000Y-127840000D01*
X83168000Y-122480000D02*
X133228000Y-122480000D01*
X76788000Y-78280000D02*
X79938000Y-81430000D01*
X79938000Y-81430000D02*
X82088000Y-83580000D01*
X103368000Y-63140000D02*
X96128000Y-70380000D01*
X96128000Y-70380000D02*
X81688000Y-70380000D01*
X81688000Y-70380000D02*
X79988000Y-72080000D01*
X79988000Y-72080000D02*
X79988000Y-77180000D01*
X95908000Y-80480000D02*
X103268000Y-87840000D01*
X83288000Y-80480000D02*
X95908000Y-80480000D01*
X81528000Y-123380000D02*
X73888000Y-115740000D01*
X138588000Y-130380000D02*
X131588000Y-123380000D01*
X131588000Y-123380000D02*
X81528000Y-123380000D01*
X79988000Y-77180000D02*
X80688000Y-77880000D01*
X80688000Y-77880000D02*
X83288000Y-80480000D01*
X98288000Y-63140000D02*
X93048000Y-68380000D01*
X93048000Y-68380000D02*
X80988000Y-68380000D01*
X80988000Y-68380000D02*
X77788000Y-71580000D01*
X77788000Y-71580000D02*
X77788000Y-77780000D01*
X77788000Y-77780000D02*
X82488000Y-82480000D01*
X92828000Y-82480000D02*
X98188000Y-87840000D01*
X82488000Y-82480000D02*
X92828000Y-82480000D01*
X138588000Y-132920000D02*
X129948000Y-124280000D01*
X79538000Y-124280000D02*
X73888000Y-129930000D01*
X129948000Y-124280000D02*
X79538000Y-124280000D01*
X73347999Y-114614999D02*
X71488000Y-116474998D01*
X76026003Y-114614999D02*
X73347999Y-114614999D01*
X86902999Y-103738003D02*
X76026003Y-114614999D01*
X98188000Y-87840000D02*
X86902999Y-99125001D01*
X86902999Y-99125001D02*
X86902999Y-103738003D01*
X71488000Y-127530000D02*
X71488000Y-126080000D01*
X71488000Y-116474998D02*
X71488000Y-126080000D01*
X73888000Y-129930000D02*
X71488000Y-127530000D01*
X73888000Y-130980000D02*
X73888000Y-129930000D01*
X82228000Y-125180000D02*
X76428000Y-130980000D01*
X138588000Y-135460000D02*
X128308000Y-125180000D01*
X128308000Y-125180000D02*
X85188000Y-125180000D01*
X85188000Y-125180000D02*
X82228000Y-125180000D01*
X87888000Y-118080000D02*
X87888000Y-115314998D01*
X88028000Y-115174998D02*
X88028000Y-103080000D01*
X87888000Y-115314998D02*
X88028000Y-115174998D01*
X90668000Y-63140000D02*
X88328000Y-65480000D01*
X88328000Y-65480000D02*
X79688000Y-65480000D01*
X79688000Y-65480000D02*
X74888000Y-70280000D01*
X74888000Y-70280000D02*
X74888000Y-79180000D01*
X74888000Y-79180000D02*
X81088000Y-85380000D01*
X88108000Y-85380000D02*
X90568000Y-87840000D01*
X81088000Y-85380000D02*
X88108000Y-85380000D01*
X138588000Y-138000000D02*
X126768000Y-126180000D01*
X83768000Y-126180000D02*
X78968000Y-130980000D01*
X126768000Y-126180000D02*
X83768000Y-126180000D01*
X80888000Y-108980000D02*
X80888000Y-98651370D01*
X80888000Y-98651370D02*
X90568000Y-88971370D01*
X90568000Y-88971370D02*
X90568000Y-87840000D01*
X77888000Y-111680000D02*
X80888000Y-108980000D01*
X85308000Y-127180000D02*
X81508000Y-130980000D01*
X138588000Y-140540000D02*
X125228000Y-127180000D01*
X125228000Y-127180000D02*
X85308000Y-127180000D01*
X138588000Y-143080000D02*
X123688000Y-128180000D01*
X86848000Y-128180000D02*
X84048000Y-130980000D01*
X131988000Y-93840000D02*
X125870000Y-93840000D01*
X125870000Y-93840000D02*
X124714000Y-94996000D01*
X123688000Y-128180000D02*
X117692000Y-128180000D01*
X117692000Y-128180000D02*
X86848000Y-128180000D01*
X117094000Y-112776000D02*
X115824000Y-114046000D01*
X117094000Y-112776000D02*
X117094000Y-110998000D01*
X84788001Y-63939999D02*
X78528001Y-63939999D01*
X85588000Y-63140000D02*
X84788001Y-63939999D01*
X78528001Y-63939999D02*
X72888000Y-69580000D01*
X72888000Y-69580000D02*
X72888000Y-79880000D01*
X80848000Y-87840000D02*
X85488000Y-87840000D01*
X72888000Y-79880000D02*
X80848000Y-87840000D01*
X139808000Y-62980000D02*
X137788000Y-65000000D01*
X137788000Y-81860000D02*
X139608000Y-83680000D01*
X137788000Y-65000000D02*
X137788000Y-81860000D01*
X115188000Y-152980000D02*
X115188000Y-155320000D01*
X120528000Y-160660000D02*
X120528000Y-164280000D01*
X115188000Y-155320000D02*
X120528000Y-160660000D01*
X139608000Y-84554998D02*
X135890000Y-88272998D01*
X139608000Y-83680000D02*
X139608000Y-84554998D01*
X135890000Y-88272998D02*
X135890000Y-98806000D01*
X135890000Y-98806000D02*
X131826000Y-102870000D01*
X131826000Y-102870000D02*
X131318000Y-103378000D01*
X131318000Y-103378000D02*
X121158000Y-103378000D01*
X115458003Y-134254999D02*
X107553001Y-134254999D01*
X118193001Y-131520001D02*
X115458003Y-134254999D01*
X119380000Y-128905000D02*
X118193001Y-130091999D01*
X118193001Y-130091999D02*
X118193001Y-131520001D01*
X106074999Y-135733001D02*
X102713001Y-135733001D01*
X107553001Y-134254999D02*
X106074999Y-135733001D01*
X120904000Y-118618000D02*
X123287999Y-116234001D01*
X123287999Y-112579999D02*
X122488000Y-111780000D01*
X123287999Y-116234001D02*
X123287999Y-112579999D01*
X111988000Y-114660000D02*
X111988000Y-115740000D01*
X114868000Y-111780000D02*
X111988000Y-114660000D01*
X115327999Y-116539999D02*
X114528000Y-115740000D01*
X118168000Y-119380000D02*
X115327999Y-116539999D01*
X131572000Y-119380000D02*
X118168000Y-119380000D01*
X132588000Y-118364000D02*
X131572000Y-119380000D01*
X114348000Y-96380000D02*
X131988000Y-96380000D01*
X105808000Y-87840000D02*
X114348000Y-96380000D01*
X86588000Y-130980000D02*
X86588000Y-151380000D01*
X86588000Y-151380000D02*
X83408000Y-154560000D01*
X122428000Y-118618000D02*
X127508000Y-118618000D01*
X127508000Y-118618000D02*
X131064000Y-115062000D01*
X134620000Y-93932000D02*
X131988000Y-91300000D01*
X134620000Y-95504000D02*
X134620000Y-93932000D01*
X130862999Y-66845001D02*
X130862999Y-66905001D01*
X132188000Y-65520000D02*
X130862999Y-66845001D01*
X130862999Y-66905001D02*
X129488000Y-68280000D01*
X129488000Y-83720000D02*
X131988000Y-86220000D01*
X129488000Y-68280000D02*
X129488000Y-83720000D01*
X131988000Y-88760000D02*
X128188000Y-84960000D01*
X128188000Y-84960000D02*
X128188000Y-68580000D01*
X128188000Y-68580000D02*
X120888000Y-61280000D01*
X107768000Y-61280000D02*
X105908000Y-63140000D01*
X120888000Y-61280000D02*
X107768000Y-61280000D01*
D20*
G36*
X72625636Y-129742437D02*
G01*
X72557463Y-129825506D01*
X72498498Y-129935820D01*
X72462188Y-130055518D01*
X72449928Y-130180000D01*
X72449928Y-131780000D01*
X72462188Y-131904482D01*
X72498498Y-132024180D01*
X72557463Y-132134494D01*
X72636815Y-132231185D01*
X72733506Y-132310537D01*
X72843820Y-132369502D01*
X72963518Y-132405812D01*
X73088000Y-132418072D01*
X74688000Y-132418072D01*
X74812482Y-132405812D01*
X74932180Y-132369502D01*
X75042494Y-132310537D01*
X75139185Y-132231185D01*
X75218537Y-132134494D01*
X75277502Y-132024180D01*
X75313812Y-131904482D01*
X75315581Y-131886518D01*
X75408392Y-131999608D01*
X75626899Y-132178932D01*
X75876192Y-132312182D01*
X76146691Y-132394236D01*
X76357508Y-132415000D01*
X76498492Y-132415000D01*
X76709309Y-132394236D01*
X76979808Y-132312182D01*
X77229101Y-132178932D01*
X77447608Y-131999608D01*
X77626932Y-131781101D01*
X77698000Y-131648142D01*
X77769068Y-131781101D01*
X77948392Y-131999608D01*
X78166899Y-132178932D01*
X78416192Y-132312182D01*
X78686691Y-132394236D01*
X78897508Y-132415000D01*
X79038492Y-132415000D01*
X79249309Y-132394236D01*
X79519808Y-132312182D01*
X79769101Y-132178932D01*
X79987608Y-131999608D01*
X80166932Y-131781101D01*
X80238000Y-131648142D01*
X80309068Y-131781101D01*
X80488392Y-131999608D01*
X80706899Y-132178932D01*
X80956192Y-132312182D01*
X81226691Y-132394236D01*
X81437508Y-132415000D01*
X81578492Y-132415000D01*
X81789309Y-132394236D01*
X82059808Y-132312182D01*
X82309101Y-132178932D01*
X82527608Y-131999608D01*
X82706932Y-131781101D01*
X82778000Y-131648142D01*
X82849068Y-131781101D01*
X83028392Y-131999608D01*
X83246899Y-132178932D01*
X83496192Y-132312182D01*
X83766691Y-132394236D01*
X83977508Y-132415000D01*
X84118492Y-132415000D01*
X84329309Y-132394236D01*
X84599808Y-132312182D01*
X84849101Y-132178932D01*
X85067608Y-131999608D01*
X85246932Y-131781101D01*
X85318000Y-131648142D01*
X85389068Y-131781101D01*
X85568392Y-131999608D01*
X85786899Y-132178932D01*
X85828000Y-132200901D01*
X85828001Y-151065197D01*
X83731886Y-153161312D01*
X83549335Y-153125000D01*
X83266665Y-153125000D01*
X82989426Y-153180147D01*
X82728273Y-153288320D01*
X82493241Y-153445363D01*
X82293363Y-153645241D01*
X82136320Y-153880273D01*
X82028147Y-154141426D01*
X81973000Y-154418665D01*
X81973000Y-154701335D01*
X82028147Y-154978574D01*
X82136320Y-155239727D01*
X82293363Y-155474759D01*
X82493241Y-155674637D01*
X82728273Y-155831680D01*
X82989426Y-155939853D01*
X83266665Y-155995000D01*
X83549335Y-155995000D01*
X83826574Y-155939853D01*
X84087727Y-155831680D01*
X84322759Y-155674637D01*
X84522637Y-155474759D01*
X84679680Y-155239727D01*
X84787853Y-154978574D01*
X84843000Y-154701335D01*
X84843000Y-154418665D01*
X84806688Y-154236114D01*
X86304137Y-152738665D01*
X109553000Y-152738665D01*
X109553000Y-153021335D01*
X109608147Y-153298574D01*
X109716320Y-153559727D01*
X109873363Y-153794759D01*
X110073241Y-153994637D01*
X110308273Y-154151680D01*
X110569426Y-154259853D01*
X110846665Y-154315000D01*
X111129335Y-154315000D01*
X111406574Y-154259853D01*
X111667727Y-154151680D01*
X111902759Y-153994637D01*
X112102637Y-153794759D01*
X112259680Y-153559727D01*
X112367853Y-153298574D01*
X112423000Y-153021335D01*
X112423000Y-152838665D01*
X113753000Y-152838665D01*
X113753000Y-153121335D01*
X113808147Y-153398574D01*
X113916320Y-153659727D01*
X114073363Y-153894759D01*
X114273241Y-154094637D01*
X114428001Y-154198044D01*
X114428001Y-155282668D01*
X114424324Y-155320000D01*
X114438998Y-155468985D01*
X114482454Y-155612246D01*
X114553026Y-155744276D01*
X114624201Y-155831002D01*
X114648000Y-155860001D01*
X114676998Y-155883799D01*
X119768000Y-160974803D01*
X119768001Y-163002405D01*
X119698986Y-163039294D01*
X119472866Y-163224866D01*
X119448393Y-163254687D01*
X119427502Y-163185820D01*
X119368537Y-163075506D01*
X119289185Y-162978815D01*
X119192494Y-162899463D01*
X119082180Y-162840498D01*
X118962482Y-162804188D01*
X118838000Y-162791928D01*
X118273750Y-162795000D01*
X118115000Y-162953750D01*
X118115000Y-164153000D01*
X118135000Y-164153000D01*
X118135000Y-164407000D01*
X118115000Y-164407000D01*
X118115000Y-165606250D01*
X118273750Y-165765000D01*
X118838000Y-165768072D01*
X118962482Y-165755812D01*
X119082180Y-165719502D01*
X119192494Y-165660537D01*
X119289185Y-165581185D01*
X119368537Y-165484494D01*
X119427502Y-165374180D01*
X119448393Y-165305313D01*
X119472866Y-165335134D01*
X119698986Y-165520706D01*
X119956966Y-165658599D01*
X120236889Y-165743513D01*
X120455050Y-165765000D01*
X120600950Y-165765000D01*
X120819111Y-165743513D01*
X121099034Y-165658599D01*
X121357014Y-165520706D01*
X121583134Y-165335134D01*
X121768706Y-165109014D01*
X121906599Y-164851034D01*
X121991513Y-164571111D01*
X122020185Y-164280000D01*
X121991513Y-163988889D01*
X121906599Y-163708966D01*
X121810940Y-163530000D01*
X125199928Y-163530000D01*
X125199928Y-165230000D01*
X125212188Y-165354482D01*
X125248498Y-165474180D01*
X125307463Y-165584494D01*
X125386815Y-165681185D01*
X125483506Y-165760537D01*
X125593820Y-165819502D01*
X125713518Y-165855812D01*
X125838000Y-165868072D01*
X127538000Y-165868072D01*
X127662482Y-165855812D01*
X127782180Y-165819502D01*
X127892494Y-165760537D01*
X127989185Y-165681185D01*
X128068537Y-165584494D01*
X128127502Y-165474180D01*
X128148393Y-165405313D01*
X128172866Y-165435134D01*
X128398986Y-165620706D01*
X128656966Y-165758599D01*
X128936889Y-165843513D01*
X129155050Y-165865000D01*
X129300950Y-165865000D01*
X129519111Y-165843513D01*
X129799034Y-165758599D01*
X130057014Y-165620706D01*
X130283134Y-165435134D01*
X130468706Y-165209014D01*
X130498000Y-165154209D01*
X130527294Y-165209014D01*
X130712866Y-165435134D01*
X130938986Y-165620706D01*
X131196966Y-165758599D01*
X131476889Y-165843513D01*
X131695050Y-165865000D01*
X131840950Y-165865000D01*
X132059111Y-165843513D01*
X132339034Y-165758599D01*
X132597014Y-165620706D01*
X132823134Y-165435134D01*
X133008706Y-165209014D01*
X133146599Y-164951034D01*
X133231513Y-164671111D01*
X133260185Y-164380000D01*
X133231513Y-164088889D01*
X133146599Y-163808966D01*
X133008706Y-163550986D01*
X132823134Y-163324866D01*
X132597014Y-163139294D01*
X132339034Y-163001401D01*
X132059111Y-162916487D01*
X131840950Y-162895000D01*
X131695050Y-162895000D01*
X131476889Y-162916487D01*
X131196966Y-163001401D01*
X130938986Y-163139294D01*
X130712866Y-163324866D01*
X130527294Y-163550986D01*
X130498000Y-163605791D01*
X130468706Y-163550986D01*
X130283134Y-163324866D01*
X130057014Y-163139294D01*
X129799034Y-163001401D01*
X129519111Y-162916487D01*
X129300950Y-162895000D01*
X129155050Y-162895000D01*
X128936889Y-162916487D01*
X128656966Y-163001401D01*
X128398986Y-163139294D01*
X128172866Y-163324866D01*
X128148393Y-163354687D01*
X128127502Y-163285820D01*
X128068537Y-163175506D01*
X127989185Y-163078815D01*
X127892494Y-162999463D01*
X127782180Y-162940498D01*
X127662482Y-162904188D01*
X127538000Y-162891928D01*
X125838000Y-162891928D01*
X125713518Y-162904188D01*
X125593820Y-162940498D01*
X125483506Y-162999463D01*
X125386815Y-163078815D01*
X125307463Y-163175506D01*
X125248498Y-163285820D01*
X125212188Y-163405518D01*
X125199928Y-163530000D01*
X121810940Y-163530000D01*
X121768706Y-163450986D01*
X121583134Y-163224866D01*
X121357014Y-163039294D01*
X121288000Y-163002405D01*
X121288000Y-160697322D01*
X121291676Y-160659999D01*
X121288000Y-160622676D01*
X121288000Y-160622667D01*
X121277003Y-160511014D01*
X121233546Y-160367753D01*
X121162974Y-160235724D01*
X121149811Y-160219685D01*
X121091799Y-160148996D01*
X121091795Y-160148992D01*
X121068001Y-160119999D01*
X121039009Y-160096206D01*
X115948000Y-155005199D01*
X115948000Y-154198043D01*
X116102759Y-154094637D01*
X116302637Y-153894759D01*
X116459680Y-153659727D01*
X116567853Y-153398574D01*
X116623000Y-153121335D01*
X116623000Y-152838665D01*
X116567853Y-152561426D01*
X116459680Y-152300273D01*
X116302637Y-152065241D01*
X116102759Y-151865363D01*
X115867727Y-151708320D01*
X115606574Y-151600147D01*
X115329335Y-151545000D01*
X115046665Y-151545000D01*
X114769426Y-151600147D01*
X114508273Y-151708320D01*
X114273241Y-151865363D01*
X114073363Y-152065241D01*
X113916320Y-152300273D01*
X113808147Y-152561426D01*
X113753000Y-152838665D01*
X112423000Y-152838665D01*
X112423000Y-152738665D01*
X112367853Y-152461426D01*
X112259680Y-152200273D01*
X112102637Y-151965241D01*
X111902759Y-151765363D01*
X111667727Y-151608320D01*
X111406574Y-151500147D01*
X111129335Y-151445000D01*
X110846665Y-151445000D01*
X110569426Y-151500147D01*
X110308273Y-151608320D01*
X110073241Y-151765363D01*
X109873363Y-151965241D01*
X109716320Y-152200273D01*
X109608147Y-152461426D01*
X109553000Y-152738665D01*
X86304137Y-152738665D01*
X87099003Y-151943799D01*
X87128001Y-151920001D01*
X87186298Y-151848966D01*
X87222974Y-151804277D01*
X87293546Y-151672247D01*
X87297261Y-151660000D01*
X87337003Y-151528986D01*
X87348000Y-151417333D01*
X87348000Y-151417324D01*
X87351676Y-151380001D01*
X87348000Y-151342678D01*
X87348000Y-145260000D01*
X109546057Y-145260000D01*
X109573764Y-145541309D01*
X109655818Y-145811808D01*
X109789068Y-146061101D01*
X109968392Y-146279608D01*
X110186899Y-146458932D01*
X110436192Y-146592182D01*
X110706691Y-146674236D01*
X110917508Y-146695000D01*
X111058492Y-146695000D01*
X111269309Y-146674236D01*
X111539808Y-146592182D01*
X111789101Y-146458932D01*
X112007608Y-146279608D01*
X112186932Y-146061101D01*
X112320182Y-145811808D01*
X112402236Y-145541309D01*
X112420093Y-145360000D01*
X113746057Y-145360000D01*
X113773764Y-145641309D01*
X113855818Y-145911808D01*
X113989068Y-146161101D01*
X114168392Y-146379608D01*
X114386899Y-146558932D01*
X114636192Y-146692182D01*
X114906691Y-146774236D01*
X115117508Y-146795000D01*
X115258492Y-146795000D01*
X115469309Y-146774236D01*
X115739808Y-146692182D01*
X115989101Y-146558932D01*
X116207608Y-146379608D01*
X116386932Y-146161101D01*
X116520182Y-145911808D01*
X116602236Y-145641309D01*
X116629943Y-145360000D01*
X116602236Y-145078691D01*
X116520182Y-144808192D01*
X116386932Y-144558899D01*
X116207608Y-144340392D01*
X115989101Y-144161068D01*
X115739808Y-144027818D01*
X115469309Y-143945764D01*
X115258492Y-143925000D01*
X115117508Y-143925000D01*
X114906691Y-143945764D01*
X114636192Y-144027818D01*
X114386899Y-144161068D01*
X114168392Y-144340392D01*
X113989068Y-144558899D01*
X113855818Y-144808192D01*
X113773764Y-145078691D01*
X113746057Y-145360000D01*
X112420093Y-145360000D01*
X112429943Y-145260000D01*
X112402236Y-144978691D01*
X112320182Y-144708192D01*
X112186932Y-144458899D01*
X112007608Y-144240392D01*
X111789101Y-144061068D01*
X111539808Y-143927818D01*
X111269309Y-143845764D01*
X111058492Y-143825000D01*
X110917508Y-143825000D01*
X110706691Y-143845764D01*
X110436192Y-143927818D01*
X110186899Y-144061068D01*
X109968392Y-144240392D01*
X109789068Y-144458899D01*
X109655818Y-144708192D01*
X109573764Y-144978691D01*
X109546057Y-145260000D01*
X87348000Y-145260000D01*
X87348000Y-132200901D01*
X87389101Y-132178932D01*
X87607608Y-131999608D01*
X87786932Y-131781101D01*
X87858000Y-131648142D01*
X87929068Y-131781101D01*
X88108392Y-131999608D01*
X88326899Y-132178932D01*
X88368000Y-132200901D01*
X88368000Y-133382677D01*
X88364324Y-133420000D01*
X88368000Y-133457322D01*
X88368000Y-133457332D01*
X88378997Y-133568985D01*
X88413788Y-133683676D01*
X88422454Y-133712246D01*
X88493026Y-133844276D01*
X88525853Y-133884275D01*
X88587999Y-133960001D01*
X88617003Y-133983804D01*
X93424200Y-138791002D01*
X93447999Y-138820001D01*
X93476997Y-138843799D01*
X93563723Y-138914974D01*
X93653189Y-138962795D01*
X93695753Y-138985546D01*
X93839014Y-139029003D01*
X93950667Y-139040000D01*
X93950677Y-139040000D01*
X93988000Y-139043676D01*
X94025323Y-139040000D01*
X98753000Y-139040000D01*
X98753000Y-139181939D01*
X98792774Y-139381898D01*
X98870795Y-139570256D01*
X98984063Y-139739774D01*
X99128226Y-139883937D01*
X99297744Y-139997205D01*
X99486102Y-140075226D01*
X99686061Y-140115000D01*
X99889939Y-140115000D01*
X100089898Y-140075226D01*
X100278256Y-139997205D01*
X100447774Y-139883937D01*
X100491711Y-139840000D01*
X100953000Y-139840000D01*
X100953000Y-139981939D01*
X100992774Y-140181898D01*
X101070795Y-140370256D01*
X101184063Y-140539774D01*
X101328226Y-140683937D01*
X101497744Y-140797205D01*
X101686102Y-140875226D01*
X101886061Y-140915000D01*
X102089939Y-140915000D01*
X102289898Y-140875226D01*
X102478256Y-140797205D01*
X102647774Y-140683937D01*
X102691711Y-140640000D01*
X111353000Y-140640000D01*
X111353000Y-140781939D01*
X111392774Y-140981898D01*
X111470795Y-141170256D01*
X111584063Y-141339774D01*
X111728226Y-141483937D01*
X111897744Y-141597205D01*
X112086102Y-141675226D01*
X112286061Y-141715000D01*
X112489939Y-141715000D01*
X112689898Y-141675226D01*
X112878256Y-141597205D01*
X113047774Y-141483937D01*
X113091711Y-141440000D01*
X115973199Y-141440000D01*
X124076997Y-149543799D01*
X124077002Y-149543803D01*
X124183000Y-149649801D01*
X124183000Y-149711939D01*
X124222774Y-149911898D01*
X124300795Y-150100256D01*
X124414063Y-150269774D01*
X124558226Y-150413937D01*
X124727744Y-150527205D01*
X124916102Y-150605226D01*
X125116061Y-150645000D01*
X125178199Y-150645000D01*
X130728001Y-156194803D01*
X130728000Y-157882677D01*
X130724324Y-157920000D01*
X130728000Y-157957322D01*
X130728000Y-157957332D01*
X130738997Y-158068985D01*
X130780422Y-158205546D01*
X130782454Y-158212246D01*
X130853026Y-158344276D01*
X130892871Y-158392826D01*
X130947999Y-158460001D01*
X130977003Y-158483804D01*
X137247203Y-164754005D01*
X137224487Y-164828889D01*
X137195815Y-165120000D01*
X137224487Y-165411111D01*
X137309401Y-165691034D01*
X137447294Y-165949014D01*
X137632866Y-166175134D01*
X137858986Y-166360706D01*
X138031656Y-166453000D01*
X71780000Y-166453000D01*
X71780000Y-165115413D01*
X101632192Y-165115413D01*
X101727956Y-165379814D01*
X102017571Y-165520704D01*
X102329108Y-165602384D01*
X102650595Y-165621718D01*
X102969675Y-165577961D01*
X103274088Y-165472795D01*
X103448044Y-165379814D01*
X103543808Y-165115413D01*
X108132192Y-165115413D01*
X108227956Y-165379814D01*
X108517571Y-165520704D01*
X108829108Y-165602384D01*
X109150595Y-165621718D01*
X109469675Y-165577961D01*
X109774088Y-165472795D01*
X109948044Y-165379814D01*
X110038524Y-165130000D01*
X116499928Y-165130000D01*
X116512188Y-165254482D01*
X116548498Y-165374180D01*
X116607463Y-165484494D01*
X116686815Y-165581185D01*
X116783506Y-165660537D01*
X116893820Y-165719502D01*
X117013518Y-165755812D01*
X117138000Y-165768072D01*
X117702250Y-165765000D01*
X117861000Y-165606250D01*
X117861000Y-164407000D01*
X116661750Y-164407000D01*
X116503000Y-164565750D01*
X116499928Y-165130000D01*
X110038524Y-165130000D01*
X110043808Y-165115413D01*
X109088000Y-164159605D01*
X108132192Y-165115413D01*
X103543808Y-165115413D01*
X102588000Y-164159605D01*
X101632192Y-165115413D01*
X71780000Y-165115413D01*
X71780000Y-164042595D01*
X100946282Y-164042595D01*
X100990039Y-164361675D01*
X101095205Y-164666088D01*
X101188186Y-164840044D01*
X101452587Y-164935808D01*
X102408395Y-163980000D01*
X102767605Y-163980000D01*
X103723413Y-164935808D01*
X103987814Y-164840044D01*
X104128704Y-164550429D01*
X104210384Y-164238892D01*
X104222189Y-164042595D01*
X107446282Y-164042595D01*
X107490039Y-164361675D01*
X107595205Y-164666088D01*
X107688186Y-164840044D01*
X107952587Y-164935808D01*
X108908395Y-163980000D01*
X109267605Y-163980000D01*
X110223413Y-164935808D01*
X110487814Y-164840044D01*
X110628704Y-164550429D01*
X110710384Y-164238892D01*
X110729718Y-163917405D01*
X110685961Y-163598325D01*
X110627810Y-163430000D01*
X116499928Y-163430000D01*
X116503000Y-163994250D01*
X116661750Y-164153000D01*
X117861000Y-164153000D01*
X117861000Y-162953750D01*
X117702250Y-162795000D01*
X117138000Y-162791928D01*
X117013518Y-162804188D01*
X116893820Y-162840498D01*
X116783506Y-162899463D01*
X116686815Y-162978815D01*
X116607463Y-163075506D01*
X116548498Y-163185820D01*
X116512188Y-163305518D01*
X116499928Y-163430000D01*
X110627810Y-163430000D01*
X110580795Y-163293912D01*
X110487814Y-163119956D01*
X110223413Y-163024192D01*
X109267605Y-163980000D01*
X108908395Y-163980000D01*
X107952587Y-163024192D01*
X107688186Y-163119956D01*
X107547296Y-163409571D01*
X107465616Y-163721108D01*
X107446282Y-164042595D01*
X104222189Y-164042595D01*
X104229718Y-163917405D01*
X104185961Y-163598325D01*
X104080795Y-163293912D01*
X103987814Y-163119956D01*
X103723413Y-163024192D01*
X102767605Y-163980000D01*
X102408395Y-163980000D01*
X101452587Y-163024192D01*
X101188186Y-163119956D01*
X101047296Y-163409571D01*
X100965616Y-163721108D01*
X100946282Y-164042595D01*
X71780000Y-164042595D01*
X71780000Y-161380000D01*
X74349928Y-161380000D01*
X74349928Y-162980000D01*
X74362188Y-163104482D01*
X74398498Y-163224180D01*
X74457463Y-163334494D01*
X74536815Y-163431185D01*
X74633506Y-163510537D01*
X74743820Y-163569502D01*
X74863518Y-163605812D01*
X74988000Y-163618072D01*
X76588000Y-163618072D01*
X76712482Y-163605812D01*
X76832180Y-163569502D01*
X76942494Y-163510537D01*
X77039185Y-163431185D01*
X77118537Y-163334494D01*
X77177502Y-163224180D01*
X77193117Y-163172702D01*
X82594903Y-163172702D01*
X82666486Y-163416671D01*
X82921996Y-163537571D01*
X83196184Y-163606300D01*
X83478512Y-163620217D01*
X83758130Y-163578787D01*
X84024292Y-163483603D01*
X84149514Y-163416671D01*
X84221097Y-163172702D01*
X83408000Y-162359605D01*
X82594903Y-163172702D01*
X77193117Y-163172702D01*
X77213812Y-163104482D01*
X77226072Y-162980000D01*
X77226072Y-162250512D01*
X81967783Y-162250512D01*
X82009213Y-162530130D01*
X82104397Y-162796292D01*
X82171329Y-162921514D01*
X82415298Y-162993097D01*
X83228395Y-162180000D01*
X83587605Y-162180000D01*
X84400702Y-162993097D01*
X84644671Y-162921514D01*
X84681070Y-162844587D01*
X101632192Y-162844587D01*
X102588000Y-163800395D01*
X103543808Y-162844587D01*
X108132192Y-162844587D01*
X109088000Y-163800395D01*
X110043808Y-162844587D01*
X109948044Y-162580186D01*
X109658429Y-162439296D01*
X109346892Y-162357616D01*
X109025405Y-162338282D01*
X108706325Y-162382039D01*
X108401912Y-162487205D01*
X108227956Y-162580186D01*
X108132192Y-162844587D01*
X103543808Y-162844587D01*
X103448044Y-162580186D01*
X103158429Y-162439296D01*
X102846892Y-162357616D01*
X102525405Y-162338282D01*
X102206325Y-162382039D01*
X101901912Y-162487205D01*
X101727956Y-162580186D01*
X101632192Y-162844587D01*
X84681070Y-162844587D01*
X84765571Y-162666004D01*
X84834300Y-162391816D01*
X84848217Y-162109488D01*
X84806787Y-161829870D01*
X84711603Y-161563708D01*
X84644671Y-161438486D01*
X84400702Y-161366903D01*
X83587605Y-162180000D01*
X83228395Y-162180000D01*
X82415298Y-161366903D01*
X82171329Y-161438486D01*
X82050429Y-161693996D01*
X81981700Y-161968184D01*
X81967783Y-162250512D01*
X77226072Y-162250512D01*
X77226072Y-161380000D01*
X77213812Y-161255518D01*
X77193118Y-161187298D01*
X82594903Y-161187298D01*
X83408000Y-162000395D01*
X84221097Y-161187298D01*
X84149514Y-160943329D01*
X83894004Y-160822429D01*
X83619816Y-160753700D01*
X83337488Y-160739783D01*
X83057870Y-160781213D01*
X82791708Y-160876397D01*
X82666486Y-160943329D01*
X82594903Y-161187298D01*
X77193118Y-161187298D01*
X77177502Y-161135820D01*
X77118537Y-161025506D01*
X77039185Y-160928815D01*
X76942494Y-160849463D01*
X76832180Y-160790498D01*
X76712482Y-160754188D01*
X76588000Y-160741928D01*
X74988000Y-160741928D01*
X74863518Y-160754188D01*
X74743820Y-160790498D01*
X74633506Y-160849463D01*
X74536815Y-160928815D01*
X74457463Y-161025506D01*
X74398498Y-161135820D01*
X74362188Y-161255518D01*
X74349928Y-161380000D01*
X71780000Y-161380000D01*
X71780000Y-159238665D01*
X89653000Y-159238665D01*
X89653000Y-159521335D01*
X89708147Y-159798574D01*
X89816320Y-160059727D01*
X89973363Y-160294759D01*
X90173241Y-160494637D01*
X90408273Y-160651680D01*
X90669426Y-160759853D01*
X90946665Y-160815000D01*
X91229335Y-160815000D01*
X91506574Y-160759853D01*
X91767727Y-160651680D01*
X92002759Y-160494637D01*
X92202637Y-160294759D01*
X92359680Y-160059727D01*
X92467853Y-159798574D01*
X92523000Y-159521335D01*
X92523000Y-159380000D01*
X97266057Y-159380000D01*
X97293764Y-159661309D01*
X97375818Y-159931808D01*
X97509068Y-160181101D01*
X97688392Y-160399608D01*
X97906899Y-160578932D01*
X98156192Y-160712182D01*
X98426691Y-160794236D01*
X98637508Y-160815000D01*
X98778492Y-160815000D01*
X98989309Y-160794236D01*
X99259808Y-160712182D01*
X99509101Y-160578932D01*
X99727608Y-160399608D01*
X99906932Y-160181101D01*
X100040182Y-159931808D01*
X100122236Y-159661309D01*
X100149943Y-159380000D01*
X100143932Y-159318967D01*
X100953000Y-159318967D01*
X100953000Y-159641033D01*
X101015832Y-159956912D01*
X101139082Y-160254463D01*
X101318013Y-160522252D01*
X101545748Y-160749987D01*
X101813537Y-160928918D01*
X102111088Y-161052168D01*
X102426967Y-161115000D01*
X102749033Y-161115000D01*
X103064912Y-161052168D01*
X103362463Y-160928918D01*
X103630252Y-160749987D01*
X103857987Y-160522252D01*
X104036918Y-160254463D01*
X104160168Y-159956912D01*
X104223000Y-159641033D01*
X104223000Y-159318967D01*
X107453000Y-159318967D01*
X107453000Y-159641033D01*
X107515832Y-159956912D01*
X107639082Y-160254463D01*
X107818013Y-160522252D01*
X108045748Y-160749987D01*
X108313537Y-160928918D01*
X108611088Y-161052168D01*
X108926967Y-161115000D01*
X109249033Y-161115000D01*
X109564912Y-161052168D01*
X109862463Y-160928918D01*
X110130252Y-160749987D01*
X110357987Y-160522252D01*
X110536918Y-160254463D01*
X110660168Y-159956912D01*
X110723000Y-159641033D01*
X110723000Y-159318967D01*
X110660168Y-159003088D01*
X110536918Y-158705537D01*
X110357987Y-158437748D01*
X110130252Y-158210013D01*
X109862463Y-158031082D01*
X109564912Y-157907832D01*
X109249033Y-157845000D01*
X108926967Y-157845000D01*
X108611088Y-157907832D01*
X108313537Y-158031082D01*
X108045748Y-158210013D01*
X107818013Y-158437748D01*
X107639082Y-158705537D01*
X107515832Y-159003088D01*
X107453000Y-159318967D01*
X104223000Y-159318967D01*
X104160168Y-159003088D01*
X104036918Y-158705537D01*
X103857987Y-158437748D01*
X103630252Y-158210013D01*
X103362463Y-158031082D01*
X103064912Y-157907832D01*
X102749033Y-157845000D01*
X102426967Y-157845000D01*
X102111088Y-157907832D01*
X101813537Y-158031082D01*
X101545748Y-158210013D01*
X101318013Y-158437748D01*
X101139082Y-158705537D01*
X101015832Y-159003088D01*
X100953000Y-159318967D01*
X100143932Y-159318967D01*
X100122236Y-159098691D01*
X100040182Y-158828192D01*
X99906932Y-158578899D01*
X99727608Y-158360392D01*
X99509101Y-158181068D01*
X99259808Y-158047818D01*
X98989309Y-157965764D01*
X98778492Y-157945000D01*
X98637508Y-157945000D01*
X98426691Y-157965764D01*
X98156192Y-158047818D01*
X97906899Y-158181068D01*
X97688392Y-158360392D01*
X97509068Y-158578899D01*
X97375818Y-158828192D01*
X97293764Y-159098691D01*
X97266057Y-159380000D01*
X92523000Y-159380000D01*
X92523000Y-159238665D01*
X92467853Y-158961426D01*
X92359680Y-158700273D01*
X92202637Y-158465241D01*
X92002759Y-158265363D01*
X91767727Y-158108320D01*
X91506574Y-158000147D01*
X91229335Y-157945000D01*
X90946665Y-157945000D01*
X90669426Y-158000147D01*
X90408273Y-158108320D01*
X90173241Y-158265363D01*
X89973363Y-158465241D01*
X89816320Y-158700273D01*
X89708147Y-158961426D01*
X89653000Y-159238665D01*
X71780000Y-159238665D01*
X71780000Y-154418665D01*
X74353000Y-154418665D01*
X74353000Y-154701335D01*
X74408147Y-154978574D01*
X74516320Y-155239727D01*
X74673363Y-155474759D01*
X74873241Y-155674637D01*
X75108273Y-155831680D01*
X75369426Y-155939853D01*
X75646665Y-155995000D01*
X75929335Y-155995000D01*
X76206574Y-155939853D01*
X76467727Y-155831680D01*
X76702759Y-155674637D01*
X76902637Y-155474759D01*
X77059680Y-155239727D01*
X77167853Y-154978574D01*
X77223000Y-154701335D01*
X77223000Y-154418665D01*
X77167853Y-154141426D01*
X77059680Y-153880273D01*
X76902637Y-153645241D01*
X76702759Y-153445363D01*
X76467727Y-153288320D01*
X76206574Y-153180147D01*
X75929335Y-153125000D01*
X75646665Y-153125000D01*
X75369426Y-153180147D01*
X75108273Y-153288320D01*
X74873241Y-153445363D01*
X74673363Y-153645241D01*
X74516320Y-153880273D01*
X74408147Y-154141426D01*
X74353000Y-154418665D01*
X71780000Y-154418665D01*
X71780000Y-146442000D01*
X73609928Y-146442000D01*
X73622188Y-146566482D01*
X73658498Y-146686180D01*
X73717463Y-146796494D01*
X73796815Y-146893185D01*
X73893506Y-146972537D01*
X74003820Y-147031502D01*
X74123518Y-147067812D01*
X74248000Y-147080072D01*
X74862250Y-147077000D01*
X75021000Y-146918250D01*
X75021000Y-145669000D01*
X73771750Y-145669000D01*
X73613000Y-145827750D01*
X73609928Y-146442000D01*
X71780000Y-146442000D01*
X71780000Y-144642000D01*
X73609928Y-144642000D01*
X73613000Y-145256250D01*
X73771750Y-145415000D01*
X75021000Y-145415000D01*
X75021000Y-144165750D01*
X75275000Y-144165750D01*
X75275000Y-145415000D01*
X75295000Y-145415000D01*
X75295000Y-145669000D01*
X75275000Y-145669000D01*
X75275000Y-146918250D01*
X75433750Y-147077000D01*
X76048000Y-147080072D01*
X76172482Y-147067812D01*
X76292180Y-147031502D01*
X76402494Y-146972537D01*
X76499185Y-146893185D01*
X76578537Y-146796494D01*
X76637502Y-146686180D01*
X76643056Y-146667873D01*
X76709495Y-146734312D01*
X76960905Y-146902299D01*
X77240257Y-147018011D01*
X77536816Y-147077000D01*
X77839184Y-147077000D01*
X78135743Y-147018011D01*
X78415095Y-146902299D01*
X78666505Y-146734312D01*
X78880312Y-146520505D01*
X79048299Y-146269095D01*
X79164011Y-145989743D01*
X79223000Y-145693184D01*
X79223000Y-145390816D01*
X79164011Y-145094257D01*
X79048299Y-144814905D01*
X78880312Y-144563495D01*
X78666505Y-144349688D01*
X78415095Y-144181701D01*
X78135743Y-144065989D01*
X77839184Y-144007000D01*
X77536816Y-144007000D01*
X77240257Y-144065989D01*
X76960905Y-144181701D01*
X76709495Y-144349688D01*
X76643056Y-144416127D01*
X76637502Y-144397820D01*
X76578537Y-144287506D01*
X76499185Y-144190815D01*
X76402494Y-144111463D01*
X76292180Y-144052498D01*
X76172482Y-144016188D01*
X76048000Y-144003928D01*
X75433750Y-144007000D01*
X75275000Y-144165750D01*
X75021000Y-144165750D01*
X74862250Y-144007000D01*
X74248000Y-144003928D01*
X74123518Y-144016188D01*
X74003820Y-144052498D01*
X73893506Y-144111463D01*
X73796815Y-144190815D01*
X73717463Y-144287506D01*
X73658498Y-144397820D01*
X73622188Y-144517518D01*
X73609928Y-144642000D01*
X71780000Y-144642000D01*
X71780000Y-128896801D01*
X72625636Y-129742437D01*
X72625636Y-129742437D01*
G37*
X72625636Y-129742437D02*
X72557463Y-129825506D01*
X72498498Y-129935820D01*
X72462188Y-130055518D01*
X72449928Y-130180000D01*
X72449928Y-131780000D01*
X72462188Y-131904482D01*
X72498498Y-132024180D01*
X72557463Y-132134494D01*
X72636815Y-132231185D01*
X72733506Y-132310537D01*
X72843820Y-132369502D01*
X72963518Y-132405812D01*
X73088000Y-132418072D01*
X74688000Y-132418072D01*
X74812482Y-132405812D01*
X74932180Y-132369502D01*
X75042494Y-132310537D01*
X75139185Y-132231185D01*
X75218537Y-132134494D01*
X75277502Y-132024180D01*
X75313812Y-131904482D01*
X75315581Y-131886518D01*
X75408392Y-131999608D01*
X75626899Y-132178932D01*
X75876192Y-132312182D01*
X76146691Y-132394236D01*
X76357508Y-132415000D01*
X76498492Y-132415000D01*
X76709309Y-132394236D01*
X76979808Y-132312182D01*
X77229101Y-132178932D01*
X77447608Y-131999608D01*
X77626932Y-131781101D01*
X77698000Y-131648142D01*
X77769068Y-131781101D01*
X77948392Y-131999608D01*
X78166899Y-132178932D01*
X78416192Y-132312182D01*
X78686691Y-132394236D01*
X78897508Y-132415000D01*
X79038492Y-132415000D01*
X79249309Y-132394236D01*
X79519808Y-132312182D01*
X79769101Y-132178932D01*
X79987608Y-131999608D01*
X80166932Y-131781101D01*
X80238000Y-131648142D01*
X80309068Y-131781101D01*
X80488392Y-131999608D01*
X80706899Y-132178932D01*
X80956192Y-132312182D01*
X81226691Y-132394236D01*
X81437508Y-132415000D01*
X81578492Y-132415000D01*
X81789309Y-132394236D01*
X82059808Y-132312182D01*
X82309101Y-132178932D01*
X82527608Y-131999608D01*
X82706932Y-131781101D01*
X82778000Y-131648142D01*
X82849068Y-131781101D01*
X83028392Y-131999608D01*
X83246899Y-132178932D01*
X83496192Y-132312182D01*
X83766691Y-132394236D01*
X83977508Y-132415000D01*
X84118492Y-132415000D01*
X84329309Y-132394236D01*
X84599808Y-132312182D01*
X84849101Y-132178932D01*
X85067608Y-131999608D01*
X85246932Y-131781101D01*
X85318000Y-131648142D01*
X85389068Y-131781101D01*
X85568392Y-131999608D01*
X85786899Y-132178932D01*
X85828000Y-132200901D01*
X85828001Y-151065197D01*
X83731886Y-153161312D01*
X83549335Y-153125000D01*
X83266665Y-153125000D01*
X82989426Y-153180147D01*
X82728273Y-153288320D01*
X82493241Y-153445363D01*
X82293363Y-153645241D01*
X82136320Y-153880273D01*
X82028147Y-154141426D01*
X81973000Y-154418665D01*
X81973000Y-154701335D01*
X82028147Y-154978574D01*
X82136320Y-155239727D01*
X82293363Y-155474759D01*
X82493241Y-155674637D01*
X82728273Y-155831680D01*
X82989426Y-155939853D01*
X83266665Y-155995000D01*
X83549335Y-155995000D01*
X83826574Y-155939853D01*
X84087727Y-155831680D01*
X84322759Y-155674637D01*
X84522637Y-155474759D01*
X84679680Y-155239727D01*
X84787853Y-154978574D01*
X84843000Y-154701335D01*
X84843000Y-154418665D01*
X84806688Y-154236114D01*
X86304137Y-152738665D01*
X109553000Y-152738665D01*
X109553000Y-153021335D01*
X109608147Y-153298574D01*
X109716320Y-153559727D01*
X109873363Y-153794759D01*
X110073241Y-153994637D01*
X110308273Y-154151680D01*
X110569426Y-154259853D01*
X110846665Y-154315000D01*
X111129335Y-154315000D01*
X111406574Y-154259853D01*
X111667727Y-154151680D01*
X111902759Y-153994637D01*
X112102637Y-153794759D01*
X112259680Y-153559727D01*
X112367853Y-153298574D01*
X112423000Y-153021335D01*
X112423000Y-152838665D01*
X113753000Y-152838665D01*
X113753000Y-153121335D01*
X113808147Y-153398574D01*
X113916320Y-153659727D01*
X114073363Y-153894759D01*
X114273241Y-154094637D01*
X114428001Y-154198044D01*
X114428001Y-155282668D01*
X114424324Y-155320000D01*
X114438998Y-155468985D01*
X114482454Y-155612246D01*
X114553026Y-155744276D01*
X114624201Y-155831002D01*
X114648000Y-155860001D01*
X114676998Y-155883799D01*
X119768000Y-160974803D01*
X119768001Y-163002405D01*
X119698986Y-163039294D01*
X119472866Y-163224866D01*
X119448393Y-163254687D01*
X119427502Y-163185820D01*
X119368537Y-163075506D01*
X119289185Y-162978815D01*
X119192494Y-162899463D01*
X119082180Y-162840498D01*
X118962482Y-162804188D01*
X118838000Y-162791928D01*
X118273750Y-162795000D01*
X118115000Y-162953750D01*
X118115000Y-164153000D01*
X118135000Y-164153000D01*
X118135000Y-164407000D01*
X118115000Y-164407000D01*
X118115000Y-165606250D01*
X118273750Y-165765000D01*
X118838000Y-165768072D01*
X118962482Y-165755812D01*
X119082180Y-165719502D01*
X119192494Y-165660537D01*
X119289185Y-165581185D01*
X119368537Y-165484494D01*
X119427502Y-165374180D01*
X119448393Y-165305313D01*
X119472866Y-165335134D01*
X119698986Y-165520706D01*
X119956966Y-165658599D01*
X120236889Y-165743513D01*
X120455050Y-165765000D01*
X120600950Y-165765000D01*
X120819111Y-165743513D01*
X121099034Y-165658599D01*
X121357014Y-165520706D01*
X121583134Y-165335134D01*
X121768706Y-165109014D01*
X121906599Y-164851034D01*
X121991513Y-164571111D01*
X122020185Y-164280000D01*
X121991513Y-163988889D01*
X121906599Y-163708966D01*
X121810940Y-163530000D01*
X125199928Y-163530000D01*
X125199928Y-165230000D01*
X125212188Y-165354482D01*
X125248498Y-165474180D01*
X125307463Y-165584494D01*
X125386815Y-165681185D01*
X125483506Y-165760537D01*
X125593820Y-165819502D01*
X125713518Y-165855812D01*
X125838000Y-165868072D01*
X127538000Y-165868072D01*
X127662482Y-165855812D01*
X127782180Y-165819502D01*
X127892494Y-165760537D01*
X127989185Y-165681185D01*
X128068537Y-165584494D01*
X128127502Y-165474180D01*
X128148393Y-165405313D01*
X128172866Y-165435134D01*
X128398986Y-165620706D01*
X128656966Y-165758599D01*
X128936889Y-165843513D01*
X129155050Y-165865000D01*
X129300950Y-165865000D01*
X129519111Y-165843513D01*
X129799034Y-165758599D01*
X130057014Y-165620706D01*
X130283134Y-165435134D01*
X130468706Y-165209014D01*
X130498000Y-165154209D01*
X130527294Y-165209014D01*
X130712866Y-165435134D01*
X130938986Y-165620706D01*
X131196966Y-165758599D01*
X131476889Y-165843513D01*
X131695050Y-165865000D01*
X131840950Y-165865000D01*
X132059111Y-165843513D01*
X132339034Y-165758599D01*
X132597014Y-165620706D01*
X132823134Y-165435134D01*
X133008706Y-165209014D01*
X133146599Y-164951034D01*
X133231513Y-164671111D01*
X133260185Y-164380000D01*
X133231513Y-164088889D01*
X133146599Y-163808966D01*
X133008706Y-163550986D01*
X132823134Y-163324866D01*
X132597014Y-163139294D01*
X132339034Y-163001401D01*
X132059111Y-162916487D01*
X131840950Y-162895000D01*
X131695050Y-162895000D01*
X131476889Y-162916487D01*
X131196966Y-163001401D01*
X130938986Y-163139294D01*
X130712866Y-163324866D01*
X130527294Y-163550986D01*
X130498000Y-163605791D01*
X130468706Y-163550986D01*
X130283134Y-163324866D01*
X130057014Y-163139294D01*
X129799034Y-163001401D01*
X129519111Y-162916487D01*
X129300950Y-162895000D01*
X129155050Y-162895000D01*
X128936889Y-162916487D01*
X128656966Y-163001401D01*
X128398986Y-163139294D01*
X128172866Y-163324866D01*
X128148393Y-163354687D01*
X128127502Y-163285820D01*
X128068537Y-163175506D01*
X127989185Y-163078815D01*
X127892494Y-162999463D01*
X127782180Y-162940498D01*
X127662482Y-162904188D01*
X127538000Y-162891928D01*
X125838000Y-162891928D01*
X125713518Y-162904188D01*
X125593820Y-162940498D01*
X125483506Y-162999463D01*
X125386815Y-163078815D01*
X125307463Y-163175506D01*
X125248498Y-163285820D01*
X125212188Y-163405518D01*
X125199928Y-163530000D01*
X121810940Y-163530000D01*
X121768706Y-163450986D01*
X121583134Y-163224866D01*
X121357014Y-163039294D01*
X121288000Y-163002405D01*
X121288000Y-160697322D01*
X121291676Y-160659999D01*
X121288000Y-160622676D01*
X121288000Y-160622667D01*
X121277003Y-160511014D01*
X121233546Y-160367753D01*
X121162974Y-160235724D01*
X121149811Y-160219685D01*
X121091799Y-160148996D01*
X121091795Y-160148992D01*
X121068001Y-160119999D01*
X121039009Y-160096206D01*
X115948000Y-155005199D01*
X115948000Y-154198043D01*
X116102759Y-154094637D01*
X116302637Y-153894759D01*
X116459680Y-153659727D01*
X116567853Y-153398574D01*
X116623000Y-153121335D01*
X116623000Y-152838665D01*
X116567853Y-152561426D01*
X116459680Y-152300273D01*
X116302637Y-152065241D01*
X116102759Y-151865363D01*
X115867727Y-151708320D01*
X115606574Y-151600147D01*
X115329335Y-151545000D01*
X115046665Y-151545000D01*
X114769426Y-151600147D01*
X114508273Y-151708320D01*
X114273241Y-151865363D01*
X114073363Y-152065241D01*
X113916320Y-152300273D01*
X113808147Y-152561426D01*
X113753000Y-152838665D01*
X112423000Y-152838665D01*
X112423000Y-152738665D01*
X112367853Y-152461426D01*
X112259680Y-152200273D01*
X112102637Y-151965241D01*
X111902759Y-151765363D01*
X111667727Y-151608320D01*
X111406574Y-151500147D01*
X111129335Y-151445000D01*
X110846665Y-151445000D01*
X110569426Y-151500147D01*
X110308273Y-151608320D01*
X110073241Y-151765363D01*
X109873363Y-151965241D01*
X109716320Y-152200273D01*
X109608147Y-152461426D01*
X109553000Y-152738665D01*
X86304137Y-152738665D01*
X87099003Y-151943799D01*
X87128001Y-151920001D01*
X87186298Y-151848966D01*
X87222974Y-151804277D01*
X87293546Y-151672247D01*
X87297261Y-151660000D01*
X87337003Y-151528986D01*
X87348000Y-151417333D01*
X87348000Y-151417324D01*
X87351676Y-151380001D01*
X87348000Y-151342678D01*
X87348000Y-145260000D01*
X109546057Y-145260000D01*
X109573764Y-145541309D01*
X109655818Y-145811808D01*
X109789068Y-146061101D01*
X109968392Y-146279608D01*
X110186899Y-146458932D01*
X110436192Y-146592182D01*
X110706691Y-146674236D01*
X110917508Y-146695000D01*
X111058492Y-146695000D01*
X111269309Y-146674236D01*
X111539808Y-146592182D01*
X111789101Y-146458932D01*
X112007608Y-146279608D01*
X112186932Y-146061101D01*
X112320182Y-145811808D01*
X112402236Y-145541309D01*
X112420093Y-145360000D01*
X113746057Y-145360000D01*
X113773764Y-145641309D01*
X113855818Y-145911808D01*
X113989068Y-146161101D01*
X114168392Y-146379608D01*
X114386899Y-146558932D01*
X114636192Y-146692182D01*
X114906691Y-146774236D01*
X115117508Y-146795000D01*
X115258492Y-146795000D01*
X115469309Y-146774236D01*
X115739808Y-146692182D01*
X115989101Y-146558932D01*
X116207608Y-146379608D01*
X116386932Y-146161101D01*
X116520182Y-145911808D01*
X116602236Y-145641309D01*
X116629943Y-145360000D01*
X116602236Y-145078691D01*
X116520182Y-144808192D01*
X116386932Y-144558899D01*
X116207608Y-144340392D01*
X115989101Y-144161068D01*
X115739808Y-144027818D01*
X115469309Y-143945764D01*
X115258492Y-143925000D01*
X115117508Y-143925000D01*
X114906691Y-143945764D01*
X114636192Y-144027818D01*
X114386899Y-144161068D01*
X114168392Y-144340392D01*
X113989068Y-144558899D01*
X113855818Y-144808192D01*
X113773764Y-145078691D01*
X113746057Y-145360000D01*
X112420093Y-145360000D01*
X112429943Y-145260000D01*
X112402236Y-144978691D01*
X112320182Y-144708192D01*
X112186932Y-144458899D01*
X112007608Y-144240392D01*
X111789101Y-144061068D01*
X111539808Y-143927818D01*
X111269309Y-143845764D01*
X111058492Y-143825000D01*
X110917508Y-143825000D01*
X110706691Y-143845764D01*
X110436192Y-143927818D01*
X110186899Y-144061068D01*
X109968392Y-144240392D01*
X109789068Y-144458899D01*
X109655818Y-144708192D01*
X109573764Y-144978691D01*
X109546057Y-145260000D01*
X87348000Y-145260000D01*
X87348000Y-132200901D01*
X87389101Y-132178932D01*
X87607608Y-131999608D01*
X87786932Y-131781101D01*
X87858000Y-131648142D01*
X87929068Y-131781101D01*
X88108392Y-131999608D01*
X88326899Y-132178932D01*
X88368000Y-132200901D01*
X88368000Y-133382677D01*
X88364324Y-133420000D01*
X88368000Y-133457322D01*
X88368000Y-133457332D01*
X88378997Y-133568985D01*
X88413788Y-133683676D01*
X88422454Y-133712246D01*
X88493026Y-133844276D01*
X88525853Y-133884275D01*
X88587999Y-133960001D01*
X88617003Y-133983804D01*
X93424200Y-138791002D01*
X93447999Y-138820001D01*
X93476997Y-138843799D01*
X93563723Y-138914974D01*
X93653189Y-138962795D01*
X93695753Y-138985546D01*
X93839014Y-139029003D01*
X93950667Y-139040000D01*
X93950677Y-139040000D01*
X93988000Y-139043676D01*
X94025323Y-139040000D01*
X98753000Y-139040000D01*
X98753000Y-139181939D01*
X98792774Y-139381898D01*
X98870795Y-139570256D01*
X98984063Y-139739774D01*
X99128226Y-139883937D01*
X99297744Y-139997205D01*
X99486102Y-140075226D01*
X99686061Y-140115000D01*
X99889939Y-140115000D01*
X100089898Y-140075226D01*
X100278256Y-139997205D01*
X100447774Y-139883937D01*
X100491711Y-139840000D01*
X100953000Y-139840000D01*
X100953000Y-139981939D01*
X100992774Y-140181898D01*
X101070795Y-140370256D01*
X101184063Y-140539774D01*
X101328226Y-140683937D01*
X101497744Y-140797205D01*
X101686102Y-140875226D01*
X101886061Y-140915000D01*
X102089939Y-140915000D01*
X102289898Y-140875226D01*
X102478256Y-140797205D01*
X102647774Y-140683937D01*
X102691711Y-140640000D01*
X111353000Y-140640000D01*
X111353000Y-140781939D01*
X111392774Y-140981898D01*
X111470795Y-141170256D01*
X111584063Y-141339774D01*
X111728226Y-141483937D01*
X111897744Y-141597205D01*
X112086102Y-141675226D01*
X112286061Y-141715000D01*
X112489939Y-141715000D01*
X112689898Y-141675226D01*
X112878256Y-141597205D01*
X113047774Y-141483937D01*
X113091711Y-141440000D01*
X115973199Y-141440000D01*
X124076997Y-149543799D01*
X124077002Y-149543803D01*
X124183000Y-149649801D01*
X124183000Y-149711939D01*
X124222774Y-149911898D01*
X124300795Y-150100256D01*
X124414063Y-150269774D01*
X124558226Y-150413937D01*
X124727744Y-150527205D01*
X124916102Y-150605226D01*
X125116061Y-150645000D01*
X125178199Y-150645000D01*
X130728001Y-156194803D01*
X130728000Y-157882677D01*
X130724324Y-157920000D01*
X130728000Y-157957322D01*
X130728000Y-157957332D01*
X130738997Y-158068985D01*
X130780422Y-158205546D01*
X130782454Y-158212246D01*
X130853026Y-158344276D01*
X130892871Y-158392826D01*
X130947999Y-158460001D01*
X130977003Y-158483804D01*
X137247203Y-164754005D01*
X137224487Y-164828889D01*
X137195815Y-165120000D01*
X137224487Y-165411111D01*
X137309401Y-165691034D01*
X137447294Y-165949014D01*
X137632866Y-166175134D01*
X137858986Y-166360706D01*
X138031656Y-166453000D01*
X71780000Y-166453000D01*
X71780000Y-165115413D01*
X101632192Y-165115413D01*
X101727956Y-165379814D01*
X102017571Y-165520704D01*
X102329108Y-165602384D01*
X102650595Y-165621718D01*
X102969675Y-165577961D01*
X103274088Y-165472795D01*
X103448044Y-165379814D01*
X103543808Y-165115413D01*
X108132192Y-165115413D01*
X108227956Y-165379814D01*
X108517571Y-165520704D01*
X108829108Y-165602384D01*
X109150595Y-165621718D01*
X109469675Y-165577961D01*
X109774088Y-165472795D01*
X109948044Y-165379814D01*
X110038524Y-165130000D01*
X116499928Y-165130000D01*
X116512188Y-165254482D01*
X116548498Y-165374180D01*
X116607463Y-165484494D01*
X116686815Y-165581185D01*
X116783506Y-165660537D01*
X116893820Y-165719502D01*
X117013518Y-165755812D01*
X117138000Y-165768072D01*
X117702250Y-165765000D01*
X117861000Y-165606250D01*
X117861000Y-164407000D01*
X116661750Y-164407000D01*
X116503000Y-164565750D01*
X116499928Y-165130000D01*
X110038524Y-165130000D01*
X110043808Y-165115413D01*
X109088000Y-164159605D01*
X108132192Y-165115413D01*
X103543808Y-165115413D01*
X102588000Y-164159605D01*
X101632192Y-165115413D01*
X71780000Y-165115413D01*
X71780000Y-164042595D01*
X100946282Y-164042595D01*
X100990039Y-164361675D01*
X101095205Y-164666088D01*
X101188186Y-164840044D01*
X101452587Y-164935808D01*
X102408395Y-163980000D01*
X102767605Y-163980000D01*
X103723413Y-164935808D01*
X103987814Y-164840044D01*
X104128704Y-164550429D01*
X104210384Y-164238892D01*
X104222189Y-164042595D01*
X107446282Y-164042595D01*
X107490039Y-164361675D01*
X107595205Y-164666088D01*
X107688186Y-164840044D01*
X107952587Y-164935808D01*
X108908395Y-163980000D01*
X109267605Y-163980000D01*
X110223413Y-164935808D01*
X110487814Y-164840044D01*
X110628704Y-164550429D01*
X110710384Y-164238892D01*
X110729718Y-163917405D01*
X110685961Y-163598325D01*
X110627810Y-163430000D01*
X116499928Y-163430000D01*
X116503000Y-163994250D01*
X116661750Y-164153000D01*
X117861000Y-164153000D01*
X117861000Y-162953750D01*
X117702250Y-162795000D01*
X117138000Y-162791928D01*
X117013518Y-162804188D01*
X116893820Y-162840498D01*
X116783506Y-162899463D01*
X116686815Y-162978815D01*
X116607463Y-163075506D01*
X116548498Y-163185820D01*
X116512188Y-163305518D01*
X116499928Y-163430000D01*
X110627810Y-163430000D01*
X110580795Y-163293912D01*
X110487814Y-163119956D01*
X110223413Y-163024192D01*
X109267605Y-163980000D01*
X108908395Y-163980000D01*
X107952587Y-163024192D01*
X107688186Y-163119956D01*
X107547296Y-163409571D01*
X107465616Y-163721108D01*
X107446282Y-164042595D01*
X104222189Y-164042595D01*
X104229718Y-163917405D01*
X104185961Y-163598325D01*
X104080795Y-163293912D01*
X103987814Y-163119956D01*
X103723413Y-163024192D01*
X102767605Y-163980000D01*
X102408395Y-163980000D01*
X101452587Y-163024192D01*
X101188186Y-163119956D01*
X101047296Y-163409571D01*
X100965616Y-163721108D01*
X100946282Y-164042595D01*
X71780000Y-164042595D01*
X71780000Y-161380000D01*
X74349928Y-161380000D01*
X74349928Y-162980000D01*
X74362188Y-163104482D01*
X74398498Y-163224180D01*
X74457463Y-163334494D01*
X74536815Y-163431185D01*
X74633506Y-163510537D01*
X74743820Y-163569502D01*
X74863518Y-163605812D01*
X74988000Y-163618072D01*
X76588000Y-163618072D01*
X76712482Y-163605812D01*
X76832180Y-163569502D01*
X76942494Y-163510537D01*
X77039185Y-163431185D01*
X77118537Y-163334494D01*
X77177502Y-163224180D01*
X77193117Y-163172702D01*
X82594903Y-163172702D01*
X82666486Y-163416671D01*
X82921996Y-163537571D01*
X83196184Y-163606300D01*
X83478512Y-163620217D01*
X83758130Y-163578787D01*
X84024292Y-163483603D01*
X84149514Y-163416671D01*
X84221097Y-163172702D01*
X83408000Y-162359605D01*
X82594903Y-163172702D01*
X77193117Y-163172702D01*
X77213812Y-163104482D01*
X77226072Y-162980000D01*
X77226072Y-162250512D01*
X81967783Y-162250512D01*
X82009213Y-162530130D01*
X82104397Y-162796292D01*
X82171329Y-162921514D01*
X82415298Y-162993097D01*
X83228395Y-162180000D01*
X83587605Y-162180000D01*
X84400702Y-162993097D01*
X84644671Y-162921514D01*
X84681070Y-162844587D01*
X101632192Y-162844587D01*
X102588000Y-163800395D01*
X103543808Y-162844587D01*
X108132192Y-162844587D01*
X109088000Y-163800395D01*
X110043808Y-162844587D01*
X109948044Y-162580186D01*
X109658429Y-162439296D01*
X109346892Y-162357616D01*
X109025405Y-162338282D01*
X108706325Y-162382039D01*
X108401912Y-162487205D01*
X108227956Y-162580186D01*
X108132192Y-162844587D01*
X103543808Y-162844587D01*
X103448044Y-162580186D01*
X103158429Y-162439296D01*
X102846892Y-162357616D01*
X102525405Y-162338282D01*
X102206325Y-162382039D01*
X101901912Y-162487205D01*
X101727956Y-162580186D01*
X101632192Y-162844587D01*
X84681070Y-162844587D01*
X84765571Y-162666004D01*
X84834300Y-162391816D01*
X84848217Y-162109488D01*
X84806787Y-161829870D01*
X84711603Y-161563708D01*
X84644671Y-161438486D01*
X84400702Y-161366903D01*
X83587605Y-162180000D01*
X83228395Y-162180000D01*
X82415298Y-161366903D01*
X82171329Y-161438486D01*
X82050429Y-161693996D01*
X81981700Y-161968184D01*
X81967783Y-162250512D01*
X77226072Y-162250512D01*
X77226072Y-161380000D01*
X77213812Y-161255518D01*
X77193118Y-161187298D01*
X82594903Y-161187298D01*
X83408000Y-162000395D01*
X84221097Y-161187298D01*
X84149514Y-160943329D01*
X83894004Y-160822429D01*
X83619816Y-160753700D01*
X83337488Y-160739783D01*
X83057870Y-160781213D01*
X82791708Y-160876397D01*
X82666486Y-160943329D01*
X82594903Y-161187298D01*
X77193118Y-161187298D01*
X77177502Y-161135820D01*
X77118537Y-161025506D01*
X77039185Y-160928815D01*
X76942494Y-160849463D01*
X76832180Y-160790498D01*
X76712482Y-160754188D01*
X76588000Y-160741928D01*
X74988000Y-160741928D01*
X74863518Y-160754188D01*
X74743820Y-160790498D01*
X74633506Y-160849463D01*
X74536815Y-160928815D01*
X74457463Y-161025506D01*
X74398498Y-161135820D01*
X74362188Y-161255518D01*
X74349928Y-161380000D01*
X71780000Y-161380000D01*
X71780000Y-159238665D01*
X89653000Y-159238665D01*
X89653000Y-159521335D01*
X89708147Y-159798574D01*
X89816320Y-160059727D01*
X89973363Y-160294759D01*
X90173241Y-160494637D01*
X90408273Y-160651680D01*
X90669426Y-160759853D01*
X90946665Y-160815000D01*
X91229335Y-160815000D01*
X91506574Y-160759853D01*
X91767727Y-160651680D01*
X92002759Y-160494637D01*
X92202637Y-160294759D01*
X92359680Y-160059727D01*
X92467853Y-159798574D01*
X92523000Y-159521335D01*
X92523000Y-159380000D01*
X97266057Y-159380000D01*
X97293764Y-159661309D01*
X97375818Y-159931808D01*
X97509068Y-160181101D01*
X97688392Y-160399608D01*
X97906899Y-160578932D01*
X98156192Y-160712182D01*
X98426691Y-160794236D01*
X98637508Y-160815000D01*
X98778492Y-160815000D01*
X98989309Y-160794236D01*
X99259808Y-160712182D01*
X99509101Y-160578932D01*
X99727608Y-160399608D01*
X99906932Y-160181101D01*
X100040182Y-159931808D01*
X100122236Y-159661309D01*
X100149943Y-159380000D01*
X100143932Y-159318967D01*
X100953000Y-159318967D01*
X100953000Y-159641033D01*
X101015832Y-159956912D01*
X101139082Y-160254463D01*
X101318013Y-160522252D01*
X101545748Y-160749987D01*
X101813537Y-160928918D01*
X102111088Y-161052168D01*
X102426967Y-161115000D01*
X102749033Y-161115000D01*
X103064912Y-161052168D01*
X103362463Y-160928918D01*
X103630252Y-160749987D01*
X103857987Y-160522252D01*
X104036918Y-160254463D01*
X104160168Y-159956912D01*
X104223000Y-159641033D01*
X104223000Y-159318967D01*
X107453000Y-159318967D01*
X107453000Y-159641033D01*
X107515832Y-159956912D01*
X107639082Y-160254463D01*
X107818013Y-160522252D01*
X108045748Y-160749987D01*
X108313537Y-160928918D01*
X108611088Y-161052168D01*
X108926967Y-161115000D01*
X109249033Y-161115000D01*
X109564912Y-161052168D01*
X109862463Y-160928918D01*
X110130252Y-160749987D01*
X110357987Y-160522252D01*
X110536918Y-160254463D01*
X110660168Y-159956912D01*
X110723000Y-159641033D01*
X110723000Y-159318967D01*
X110660168Y-159003088D01*
X110536918Y-158705537D01*
X110357987Y-158437748D01*
X110130252Y-158210013D01*
X109862463Y-158031082D01*
X109564912Y-157907832D01*
X109249033Y-157845000D01*
X108926967Y-157845000D01*
X108611088Y-157907832D01*
X108313537Y-158031082D01*
X108045748Y-158210013D01*
X107818013Y-158437748D01*
X107639082Y-158705537D01*
X107515832Y-159003088D01*
X107453000Y-159318967D01*
X104223000Y-159318967D01*
X104160168Y-159003088D01*
X104036918Y-158705537D01*
X103857987Y-158437748D01*
X103630252Y-158210013D01*
X103362463Y-158031082D01*
X103064912Y-157907832D01*
X102749033Y-157845000D01*
X102426967Y-157845000D01*
X102111088Y-157907832D01*
X101813537Y-158031082D01*
X101545748Y-158210013D01*
X101318013Y-158437748D01*
X101139082Y-158705537D01*
X101015832Y-159003088D01*
X100953000Y-159318967D01*
X100143932Y-159318967D01*
X100122236Y-159098691D01*
X100040182Y-158828192D01*
X99906932Y-158578899D01*
X99727608Y-158360392D01*
X99509101Y-158181068D01*
X99259808Y-158047818D01*
X98989309Y-157965764D01*
X98778492Y-157945000D01*
X98637508Y-157945000D01*
X98426691Y-157965764D01*
X98156192Y-158047818D01*
X97906899Y-158181068D01*
X97688392Y-158360392D01*
X97509068Y-158578899D01*
X97375818Y-158828192D01*
X97293764Y-159098691D01*
X97266057Y-159380000D01*
X92523000Y-159380000D01*
X92523000Y-159238665D01*
X92467853Y-158961426D01*
X92359680Y-158700273D01*
X92202637Y-158465241D01*
X92002759Y-158265363D01*
X91767727Y-158108320D01*
X91506574Y-158000147D01*
X91229335Y-157945000D01*
X90946665Y-157945000D01*
X90669426Y-158000147D01*
X90408273Y-158108320D01*
X90173241Y-158265363D01*
X89973363Y-158465241D01*
X89816320Y-158700273D01*
X89708147Y-158961426D01*
X89653000Y-159238665D01*
X71780000Y-159238665D01*
X71780000Y-154418665D01*
X74353000Y-154418665D01*
X74353000Y-154701335D01*
X74408147Y-154978574D01*
X74516320Y-155239727D01*
X74673363Y-155474759D01*
X74873241Y-155674637D01*
X75108273Y-155831680D01*
X75369426Y-155939853D01*
X75646665Y-155995000D01*
X75929335Y-155995000D01*
X76206574Y-155939853D01*
X76467727Y-155831680D01*
X76702759Y-155674637D01*
X76902637Y-155474759D01*
X77059680Y-155239727D01*
X77167853Y-154978574D01*
X77223000Y-154701335D01*
X77223000Y-154418665D01*
X77167853Y-154141426D01*
X77059680Y-153880273D01*
X76902637Y-153645241D01*
X76702759Y-153445363D01*
X76467727Y-153288320D01*
X76206574Y-153180147D01*
X75929335Y-153125000D01*
X75646665Y-153125000D01*
X75369426Y-153180147D01*
X75108273Y-153288320D01*
X74873241Y-153445363D01*
X74673363Y-153645241D01*
X74516320Y-153880273D01*
X74408147Y-154141426D01*
X74353000Y-154418665D01*
X71780000Y-154418665D01*
X71780000Y-146442000D01*
X73609928Y-146442000D01*
X73622188Y-146566482D01*
X73658498Y-146686180D01*
X73717463Y-146796494D01*
X73796815Y-146893185D01*
X73893506Y-146972537D01*
X74003820Y-147031502D01*
X74123518Y-147067812D01*
X74248000Y-147080072D01*
X74862250Y-147077000D01*
X75021000Y-146918250D01*
X75021000Y-145669000D01*
X73771750Y-145669000D01*
X73613000Y-145827750D01*
X73609928Y-146442000D01*
X71780000Y-146442000D01*
X71780000Y-144642000D01*
X73609928Y-144642000D01*
X73613000Y-145256250D01*
X73771750Y-145415000D01*
X75021000Y-145415000D01*
X75021000Y-144165750D01*
X75275000Y-144165750D01*
X75275000Y-145415000D01*
X75295000Y-145415000D01*
X75295000Y-145669000D01*
X75275000Y-145669000D01*
X75275000Y-146918250D01*
X75433750Y-147077000D01*
X76048000Y-147080072D01*
X76172482Y-147067812D01*
X76292180Y-147031502D01*
X76402494Y-146972537D01*
X76499185Y-146893185D01*
X76578537Y-146796494D01*
X76637502Y-146686180D01*
X76643056Y-146667873D01*
X76709495Y-146734312D01*
X76960905Y-146902299D01*
X77240257Y-147018011D01*
X77536816Y-147077000D01*
X77839184Y-147077000D01*
X78135743Y-147018011D01*
X78415095Y-146902299D01*
X78666505Y-146734312D01*
X78880312Y-146520505D01*
X79048299Y-146269095D01*
X79164011Y-145989743D01*
X79223000Y-145693184D01*
X79223000Y-145390816D01*
X79164011Y-145094257D01*
X79048299Y-144814905D01*
X78880312Y-144563495D01*
X78666505Y-144349688D01*
X78415095Y-144181701D01*
X78135743Y-144065989D01*
X77839184Y-144007000D01*
X77536816Y-144007000D01*
X77240257Y-144065989D01*
X76960905Y-144181701D01*
X76709495Y-144349688D01*
X76643056Y-144416127D01*
X76637502Y-144397820D01*
X76578537Y-144287506D01*
X76499185Y-144190815D01*
X76402494Y-144111463D01*
X76292180Y-144052498D01*
X76172482Y-144016188D01*
X76048000Y-144003928D01*
X75433750Y-144007000D01*
X75275000Y-144165750D01*
X75021000Y-144165750D01*
X74862250Y-144007000D01*
X74248000Y-144003928D01*
X74123518Y-144016188D01*
X74003820Y-144052498D01*
X73893506Y-144111463D01*
X73796815Y-144190815D01*
X73717463Y-144287506D01*
X73658498Y-144397820D01*
X73622188Y-144517518D01*
X73609928Y-144642000D01*
X71780000Y-144642000D01*
X71780000Y-128896801D01*
X72625636Y-129742437D01*
G36*
X141834000Y-166453000D02*
G01*
X139344344Y-166453000D01*
X139517014Y-166360706D01*
X139743134Y-166175134D01*
X139928706Y-165949014D01*
X140066599Y-165691034D01*
X140151513Y-165411111D01*
X140180185Y-165120000D01*
X140151513Y-164828889D01*
X140066599Y-164548966D01*
X139928706Y-164290986D01*
X139743134Y-164064866D01*
X139517014Y-163879294D01*
X139462209Y-163850000D01*
X139517014Y-163820706D01*
X139743134Y-163635134D01*
X139928706Y-163409014D01*
X140066599Y-163151034D01*
X140151513Y-162871111D01*
X140180185Y-162580000D01*
X140151513Y-162288889D01*
X140066599Y-162008966D01*
X139928706Y-161750986D01*
X139743134Y-161524866D01*
X139517014Y-161339294D01*
X139462209Y-161310000D01*
X139517014Y-161280706D01*
X139743134Y-161095134D01*
X139928706Y-160869014D01*
X140066599Y-160611034D01*
X140151513Y-160331111D01*
X140180185Y-160040000D01*
X140151513Y-159748889D01*
X140066599Y-159468966D01*
X139928706Y-159210986D01*
X139743134Y-158984866D01*
X139517014Y-158799294D01*
X139462209Y-158770000D01*
X139517014Y-158740706D01*
X139743134Y-158555134D01*
X139928706Y-158329014D01*
X140066599Y-158071034D01*
X140151513Y-157791111D01*
X140180185Y-157500000D01*
X140151513Y-157208889D01*
X140066599Y-156928966D01*
X139928706Y-156670986D01*
X139743134Y-156444866D01*
X139517014Y-156259294D01*
X139462209Y-156230000D01*
X139517014Y-156200706D01*
X139743134Y-156015134D01*
X139928706Y-155789014D01*
X140066599Y-155531034D01*
X140151513Y-155251111D01*
X140180185Y-154960000D01*
X140151513Y-154668889D01*
X140066599Y-154388966D01*
X139928706Y-154130986D01*
X139743134Y-153904866D01*
X139517014Y-153719294D01*
X139462209Y-153690000D01*
X139517014Y-153660706D01*
X139743134Y-153475134D01*
X139928706Y-153249014D01*
X140066599Y-152991034D01*
X140151513Y-152711111D01*
X140180185Y-152420000D01*
X140151513Y-152128889D01*
X140066599Y-151848966D01*
X139928706Y-151590986D01*
X139743134Y-151364866D01*
X139517014Y-151179294D01*
X139462209Y-151150000D01*
X139517014Y-151120706D01*
X139743134Y-150935134D01*
X139928706Y-150709014D01*
X140066599Y-150451034D01*
X140151513Y-150171111D01*
X140180185Y-149880000D01*
X140151513Y-149588889D01*
X140066599Y-149308966D01*
X139928706Y-149050986D01*
X139743134Y-148824866D01*
X139713313Y-148800393D01*
X139782180Y-148779502D01*
X139892494Y-148720537D01*
X139989185Y-148641185D01*
X140068537Y-148544494D01*
X140127502Y-148434180D01*
X140163812Y-148314482D01*
X140176072Y-148190000D01*
X140176072Y-146490000D01*
X140163812Y-146365518D01*
X140127502Y-146245820D01*
X140068537Y-146135506D01*
X139989185Y-146038815D01*
X139892494Y-145959463D01*
X139782180Y-145900498D01*
X139662482Y-145864188D01*
X139538000Y-145851928D01*
X137838000Y-145851928D01*
X137713518Y-145864188D01*
X137593820Y-145900498D01*
X137483506Y-145959463D01*
X137386815Y-146038815D01*
X137307463Y-146135506D01*
X137248498Y-146245820D01*
X137212188Y-146365518D01*
X137199928Y-146490000D01*
X137199928Y-146580000D01*
X132662802Y-146580000D01*
X120651804Y-134569003D01*
X120628001Y-134539999D01*
X120512276Y-134445026D01*
X120380247Y-134374454D01*
X120236986Y-134330997D01*
X120125333Y-134320000D01*
X120125322Y-134320000D01*
X120088000Y-134316324D01*
X120050678Y-134320000D01*
X116467803Y-134320000D01*
X118698133Y-132089670D01*
X118806899Y-132178932D01*
X119056192Y-132312182D01*
X119326691Y-132394236D01*
X119537508Y-132415000D01*
X119678492Y-132415000D01*
X119889309Y-132394236D01*
X120159808Y-132312182D01*
X120409101Y-132178932D01*
X120627608Y-131999608D01*
X120806932Y-131781101D01*
X120878000Y-131648142D01*
X120949068Y-131781101D01*
X121128392Y-131999608D01*
X121346899Y-132178932D01*
X121596192Y-132312182D01*
X121866691Y-132394236D01*
X122077508Y-132415000D01*
X122218492Y-132415000D01*
X122429309Y-132394236D01*
X122699808Y-132312182D01*
X122949101Y-132178932D01*
X123167608Y-131999608D01*
X123346932Y-131781101D01*
X123480182Y-131531808D01*
X123562236Y-131261309D01*
X123589943Y-130980000D01*
X123562236Y-130698691D01*
X123480182Y-130428192D01*
X123346932Y-130178899D01*
X123167608Y-129960392D01*
X122949101Y-129781068D01*
X122699808Y-129647818D01*
X122429309Y-129565764D01*
X122218492Y-129545000D01*
X122077508Y-129545000D01*
X121866691Y-129565764D01*
X121596192Y-129647818D01*
X121346899Y-129781068D01*
X121128392Y-129960392D01*
X120949068Y-130178899D01*
X120878000Y-130311858D01*
X120806932Y-130178899D01*
X120627608Y-129960392D01*
X120409101Y-129781068D01*
X120159808Y-129647818D01*
X120114605Y-129634106D01*
X120183937Y-129564774D01*
X120297205Y-129395256D01*
X120375226Y-129206898D01*
X120415000Y-129006939D01*
X120415000Y-128940000D01*
X123373199Y-128940000D01*
X137147203Y-142714005D01*
X137124487Y-142788889D01*
X137095815Y-143080000D01*
X137124487Y-143371111D01*
X137209401Y-143651034D01*
X137347294Y-143909014D01*
X137532866Y-144135134D01*
X137758986Y-144320706D01*
X138016966Y-144458599D01*
X138296889Y-144543513D01*
X138515050Y-144565000D01*
X138660950Y-144565000D01*
X138879111Y-144543513D01*
X139159034Y-144458599D01*
X139417014Y-144320706D01*
X139643134Y-144135134D01*
X139828706Y-143909014D01*
X139966599Y-143651034D01*
X140051513Y-143371111D01*
X140080185Y-143080000D01*
X140051513Y-142788889D01*
X139966599Y-142508966D01*
X139828706Y-142250986D01*
X139643134Y-142024866D01*
X139417014Y-141839294D01*
X139362209Y-141810000D01*
X139417014Y-141780706D01*
X139643134Y-141595134D01*
X139828706Y-141369014D01*
X139966599Y-141111034D01*
X140051513Y-140831111D01*
X140080185Y-140540000D01*
X140051513Y-140248889D01*
X139966599Y-139968966D01*
X139828706Y-139710986D01*
X139643134Y-139484866D01*
X139417014Y-139299294D01*
X139362209Y-139270000D01*
X139417014Y-139240706D01*
X139643134Y-139055134D01*
X139828706Y-138829014D01*
X139966599Y-138571034D01*
X140051513Y-138291111D01*
X140080185Y-138000000D01*
X140051513Y-137708889D01*
X139966599Y-137428966D01*
X139828706Y-137170986D01*
X139643134Y-136944866D01*
X139417014Y-136759294D01*
X139362209Y-136730000D01*
X139417014Y-136700706D01*
X139643134Y-136515134D01*
X139828706Y-136289014D01*
X139966599Y-136031034D01*
X140051513Y-135751111D01*
X140080185Y-135460000D01*
X140051513Y-135168889D01*
X139966599Y-134888966D01*
X139828706Y-134630986D01*
X139643134Y-134404866D01*
X139417014Y-134219294D01*
X139362209Y-134190000D01*
X139417014Y-134160706D01*
X139643134Y-133975134D01*
X139828706Y-133749014D01*
X139966599Y-133491034D01*
X140051513Y-133211111D01*
X140080185Y-132920000D01*
X140051513Y-132628889D01*
X139966599Y-132348966D01*
X139828706Y-132090986D01*
X139643134Y-131864866D01*
X139417014Y-131679294D01*
X139362209Y-131650000D01*
X139417014Y-131620706D01*
X139643134Y-131435134D01*
X139828706Y-131209014D01*
X139966599Y-130951034D01*
X140051513Y-130671111D01*
X140080185Y-130380000D01*
X140051513Y-130088889D01*
X139966599Y-129808966D01*
X139828706Y-129550986D01*
X139643134Y-129324866D01*
X139417014Y-129139294D01*
X139362209Y-129110000D01*
X139417014Y-129080706D01*
X139643134Y-128895134D01*
X139828706Y-128669014D01*
X139966599Y-128411034D01*
X140051513Y-128131111D01*
X140080185Y-127840000D01*
X140051513Y-127548889D01*
X139966599Y-127268966D01*
X139828706Y-127010986D01*
X139643134Y-126784866D01*
X139417014Y-126599294D01*
X139362209Y-126570000D01*
X139417014Y-126540706D01*
X139643134Y-126355134D01*
X139828706Y-126129014D01*
X139966599Y-125871034D01*
X140051513Y-125591111D01*
X140080185Y-125300000D01*
X140051513Y-125008889D01*
X139966599Y-124728966D01*
X139828706Y-124470986D01*
X139643134Y-124244866D01*
X139417014Y-124059294D01*
X139362209Y-124030000D01*
X139417014Y-124000706D01*
X139643134Y-123815134D01*
X139828706Y-123589014D01*
X139966599Y-123331034D01*
X140051513Y-123051111D01*
X140080185Y-122760000D01*
X140051513Y-122468889D01*
X139966599Y-122188966D01*
X139828706Y-121930986D01*
X139643134Y-121704866D01*
X139417014Y-121519294D01*
X139362209Y-121490000D01*
X139417014Y-121460706D01*
X139643134Y-121275134D01*
X139828706Y-121049014D01*
X139966599Y-120791034D01*
X140051513Y-120511111D01*
X140080185Y-120220000D01*
X140051513Y-119928889D01*
X139966599Y-119648966D01*
X139828706Y-119390986D01*
X139643134Y-119164866D01*
X139417014Y-118979294D01*
X139362209Y-118950000D01*
X139417014Y-118920706D01*
X139643134Y-118735134D01*
X139828706Y-118509014D01*
X139966599Y-118251034D01*
X140051513Y-117971111D01*
X140080185Y-117680000D01*
X140051513Y-117388889D01*
X139966599Y-117108966D01*
X139828706Y-116850986D01*
X139643134Y-116624866D01*
X139417014Y-116439294D01*
X139362209Y-116410000D01*
X139417014Y-116380706D01*
X139643134Y-116195134D01*
X139828706Y-115969014D01*
X139966599Y-115711034D01*
X140051513Y-115431111D01*
X140080185Y-115140000D01*
X140051513Y-114848889D01*
X139966599Y-114568966D01*
X139828706Y-114310986D01*
X139643134Y-114084866D01*
X139417014Y-113899294D01*
X139362209Y-113870000D01*
X139417014Y-113840706D01*
X139643134Y-113655134D01*
X139828706Y-113429014D01*
X139966599Y-113171034D01*
X140051513Y-112891111D01*
X140080185Y-112600000D01*
X140051513Y-112308889D01*
X139966599Y-112028966D01*
X139828706Y-111770986D01*
X139643134Y-111544866D01*
X139417014Y-111359294D01*
X139362209Y-111330000D01*
X139417014Y-111300706D01*
X139643134Y-111115134D01*
X139828706Y-110889014D01*
X139966599Y-110631034D01*
X140051513Y-110351111D01*
X140080185Y-110060000D01*
X140051513Y-109768889D01*
X139966599Y-109488966D01*
X139828706Y-109230986D01*
X139643134Y-109004866D01*
X139417014Y-108819294D01*
X139362209Y-108790000D01*
X139417014Y-108760706D01*
X139643134Y-108575134D01*
X139828706Y-108349014D01*
X139966599Y-108091034D01*
X140051513Y-107811111D01*
X140080185Y-107520000D01*
X140051513Y-107228889D01*
X139966599Y-106948966D01*
X139828706Y-106690986D01*
X139643134Y-106464866D01*
X139613313Y-106440393D01*
X139682180Y-106419502D01*
X139792494Y-106360537D01*
X139889185Y-106281185D01*
X139968537Y-106184494D01*
X140027502Y-106074180D01*
X140063812Y-105954482D01*
X140076072Y-105830000D01*
X140076072Y-104130000D01*
X140063812Y-104005518D01*
X140027502Y-103885820D01*
X139968537Y-103775506D01*
X139889185Y-103678815D01*
X139792494Y-103599463D01*
X139682180Y-103540498D01*
X139562482Y-103504188D01*
X139438000Y-103491928D01*
X137738000Y-103491928D01*
X137613518Y-103504188D01*
X137493820Y-103540498D01*
X137383506Y-103599463D01*
X137286815Y-103678815D01*
X137207463Y-103775506D01*
X137148498Y-103885820D01*
X137112188Y-104005518D01*
X137099928Y-104130000D01*
X137099928Y-104220000D01*
X131920809Y-104220000D01*
X131977774Y-104181937D01*
X132121937Y-104037774D01*
X132235205Y-103868256D01*
X132313226Y-103679898D01*
X132353000Y-103479939D01*
X132353000Y-103417802D01*
X132389799Y-103381003D01*
X132389804Y-103380997D01*
X136401003Y-99369799D01*
X136430001Y-99346001D01*
X136478960Y-99286344D01*
X136524974Y-99230277D01*
X136595546Y-99098247D01*
X136598755Y-99087668D01*
X136639003Y-98954986D01*
X136650000Y-98843333D01*
X136650000Y-98843323D01*
X136653676Y-98806000D01*
X136650000Y-98768677D01*
X136650000Y-88587799D01*
X138342061Y-86895739D01*
X138409068Y-87021101D01*
X138588392Y-87239608D01*
X138806899Y-87418932D01*
X138939858Y-87490000D01*
X138806899Y-87561068D01*
X138588392Y-87740392D01*
X138409068Y-87958899D01*
X138275818Y-88208192D01*
X138193764Y-88478691D01*
X138166057Y-88760000D01*
X138193764Y-89041309D01*
X138275818Y-89311808D01*
X138409068Y-89561101D01*
X138588392Y-89779608D01*
X138806899Y-89958932D01*
X138939858Y-90030000D01*
X138806899Y-90101068D01*
X138588392Y-90280392D01*
X138409068Y-90498899D01*
X138275818Y-90748192D01*
X138193764Y-91018691D01*
X138166057Y-91300000D01*
X138193764Y-91581309D01*
X138275818Y-91851808D01*
X138409068Y-92101101D01*
X138588392Y-92319608D01*
X138806899Y-92498932D01*
X138939858Y-92570000D01*
X138806899Y-92641068D01*
X138588392Y-92820392D01*
X138409068Y-93038899D01*
X138275818Y-93288192D01*
X138193764Y-93558691D01*
X138166057Y-93840000D01*
X138193764Y-94121309D01*
X138275818Y-94391808D01*
X138409068Y-94641101D01*
X138588392Y-94859608D01*
X138806899Y-95038932D01*
X138939858Y-95110000D01*
X138806899Y-95181068D01*
X138588392Y-95360392D01*
X138409068Y-95578899D01*
X138275818Y-95828192D01*
X138193764Y-96098691D01*
X138166057Y-96380000D01*
X138193764Y-96661309D01*
X138275818Y-96931808D01*
X138409068Y-97181101D01*
X138588392Y-97399608D01*
X138806899Y-97578932D01*
X138939858Y-97650000D01*
X138806899Y-97721068D01*
X138588392Y-97900392D01*
X138409068Y-98118899D01*
X138275818Y-98368192D01*
X138193764Y-98638691D01*
X138166057Y-98920000D01*
X138193764Y-99201309D01*
X138275818Y-99471808D01*
X138409068Y-99721101D01*
X138588392Y-99939608D01*
X138806899Y-100118932D01*
X139056192Y-100252182D01*
X139326691Y-100334236D01*
X139537508Y-100355000D01*
X139678492Y-100355000D01*
X139889309Y-100334236D01*
X140159808Y-100252182D01*
X140409101Y-100118932D01*
X140627608Y-99939608D01*
X140806932Y-99721101D01*
X140940182Y-99471808D01*
X141022236Y-99201309D01*
X141049943Y-98920000D01*
X141022236Y-98638691D01*
X140940182Y-98368192D01*
X140806932Y-98118899D01*
X140627608Y-97900392D01*
X140409101Y-97721068D01*
X140276142Y-97650000D01*
X140409101Y-97578932D01*
X140627608Y-97399608D01*
X140806932Y-97181101D01*
X140940182Y-96931808D01*
X141022236Y-96661309D01*
X141049943Y-96380000D01*
X141022236Y-96098691D01*
X140940182Y-95828192D01*
X140806932Y-95578899D01*
X140627608Y-95360392D01*
X140409101Y-95181068D01*
X140276142Y-95110000D01*
X140409101Y-95038932D01*
X140627608Y-94859608D01*
X140806932Y-94641101D01*
X140940182Y-94391808D01*
X141022236Y-94121309D01*
X141049943Y-93840000D01*
X141022236Y-93558691D01*
X140940182Y-93288192D01*
X140806932Y-93038899D01*
X140627608Y-92820392D01*
X140409101Y-92641068D01*
X140276142Y-92570000D01*
X140409101Y-92498932D01*
X140627608Y-92319608D01*
X140806932Y-92101101D01*
X140940182Y-91851808D01*
X141022236Y-91581309D01*
X141049943Y-91300000D01*
X141022236Y-91018691D01*
X140940182Y-90748192D01*
X140806932Y-90498899D01*
X140627608Y-90280392D01*
X140409101Y-90101068D01*
X140276142Y-90030000D01*
X140409101Y-89958932D01*
X140627608Y-89779608D01*
X140806932Y-89561101D01*
X140940182Y-89311808D01*
X141022236Y-89041309D01*
X141049943Y-88760000D01*
X141022236Y-88478691D01*
X140940182Y-88208192D01*
X140806932Y-87958899D01*
X140627608Y-87740392D01*
X140409101Y-87561068D01*
X140276142Y-87490000D01*
X140409101Y-87418932D01*
X140627608Y-87239608D01*
X140806932Y-87021101D01*
X140940182Y-86771808D01*
X141022236Y-86501309D01*
X141049943Y-86220000D01*
X141022236Y-85938691D01*
X140940182Y-85668192D01*
X140806932Y-85418899D01*
X140627608Y-85200392D01*
X140409101Y-85021068D01*
X140276142Y-84950000D01*
X140409101Y-84878932D01*
X140627608Y-84699608D01*
X140806932Y-84481101D01*
X140940182Y-84231808D01*
X141022236Y-83961309D01*
X141049943Y-83680000D01*
X141022236Y-83398691D01*
X140940182Y-83128192D01*
X140806932Y-82878899D01*
X140627608Y-82660392D01*
X140409101Y-82481068D01*
X140159808Y-82347818D01*
X139889309Y-82265764D01*
X139678492Y-82245000D01*
X139537508Y-82245000D01*
X139326691Y-82265764D01*
X139282094Y-82279292D01*
X138548000Y-81545199D01*
X138548000Y-78906851D01*
X138609068Y-79021101D01*
X138788392Y-79239608D01*
X139006899Y-79418932D01*
X139256192Y-79552182D01*
X139526691Y-79634236D01*
X139737508Y-79655000D01*
X139878492Y-79655000D01*
X140089309Y-79634236D01*
X140359808Y-79552182D01*
X140609101Y-79418932D01*
X140827608Y-79239608D01*
X141006932Y-79021101D01*
X141140182Y-78771808D01*
X141222236Y-78501309D01*
X141249943Y-78220000D01*
X141222236Y-77938691D01*
X141140182Y-77668192D01*
X141006932Y-77418899D01*
X140827608Y-77200392D01*
X140609101Y-77021068D01*
X140476142Y-76950000D01*
X140609101Y-76878932D01*
X140827608Y-76699608D01*
X141006932Y-76481101D01*
X141140182Y-76231808D01*
X141222236Y-75961309D01*
X141249943Y-75680000D01*
X141222236Y-75398691D01*
X141140182Y-75128192D01*
X141006932Y-74878899D01*
X140827608Y-74660392D01*
X140609101Y-74481068D01*
X140476142Y-74410000D01*
X140609101Y-74338932D01*
X140827608Y-74159608D01*
X141006932Y-73941101D01*
X141140182Y-73691808D01*
X141222236Y-73421309D01*
X141249943Y-73140000D01*
X141222236Y-72858691D01*
X141140182Y-72588192D01*
X141006932Y-72338899D01*
X140827608Y-72120392D01*
X140609101Y-71941068D01*
X140476142Y-71870000D01*
X140609101Y-71798932D01*
X140827608Y-71619608D01*
X141006932Y-71401101D01*
X141140182Y-71151808D01*
X141222236Y-70881309D01*
X141249943Y-70600000D01*
X141222236Y-70318691D01*
X141140182Y-70048192D01*
X141006932Y-69798899D01*
X140827608Y-69580392D01*
X140609101Y-69401068D01*
X140476142Y-69330000D01*
X140609101Y-69258932D01*
X140827608Y-69079608D01*
X141006932Y-68861101D01*
X141140182Y-68611808D01*
X141222236Y-68341309D01*
X141249943Y-68060000D01*
X141222236Y-67778691D01*
X141140182Y-67508192D01*
X141006932Y-67258899D01*
X140827608Y-67040392D01*
X140609101Y-66861068D01*
X140476142Y-66790000D01*
X140609101Y-66718932D01*
X140827608Y-66539608D01*
X141006932Y-66321101D01*
X141140182Y-66071808D01*
X141222236Y-65801309D01*
X141249943Y-65520000D01*
X141222236Y-65238691D01*
X141140182Y-64968192D01*
X141006932Y-64718899D01*
X140827608Y-64500392D01*
X140609101Y-64321068D01*
X140476142Y-64250000D01*
X140609101Y-64178932D01*
X140827608Y-63999608D01*
X141006932Y-63781101D01*
X141140182Y-63531808D01*
X141222236Y-63261309D01*
X141249943Y-62980000D01*
X141222236Y-62698691D01*
X141140182Y-62428192D01*
X141006932Y-62178899D01*
X140827608Y-61960392D01*
X140609101Y-61781068D01*
X140359808Y-61647818D01*
X140089309Y-61565764D01*
X139878492Y-61545000D01*
X139737508Y-61545000D01*
X139526691Y-61565764D01*
X139256192Y-61647818D01*
X139006899Y-61781068D01*
X138788392Y-61960392D01*
X138609068Y-62178899D01*
X138475818Y-62428192D01*
X138393764Y-62698691D01*
X138366057Y-62980000D01*
X138393764Y-63261309D01*
X138407292Y-63305906D01*
X137277002Y-64436196D01*
X137247999Y-64459999D01*
X137200673Y-64517667D01*
X137153026Y-64575724D01*
X137123473Y-64631014D01*
X137082454Y-64707754D01*
X137038997Y-64851015D01*
X137028000Y-64962668D01*
X137028000Y-64962678D01*
X137024324Y-65000000D01*
X137028000Y-65037322D01*
X137028001Y-81822667D01*
X137024324Y-81860000D01*
X137028001Y-81897333D01*
X137038998Y-82008986D01*
X137049558Y-82043799D01*
X137082454Y-82152246D01*
X137153026Y-82284276D01*
X137224201Y-82371002D01*
X137248000Y-82400001D01*
X137276998Y-82423799D01*
X138207292Y-83354094D01*
X138193764Y-83398691D01*
X138166057Y-83680000D01*
X138193764Y-83961309D01*
X138275818Y-84231808D01*
X138409068Y-84481101D01*
X138498330Y-84589867D01*
X135379003Y-87709194D01*
X135349999Y-87732997D01*
X135294871Y-87800172D01*
X135255026Y-87848722D01*
X135196135Y-87958899D01*
X135184454Y-87980752D01*
X135140997Y-88124013D01*
X135130000Y-88235666D01*
X135130000Y-88235676D01*
X135126324Y-88272998D01*
X135130000Y-88310320D01*
X135130000Y-93367199D01*
X133388708Y-91625906D01*
X133402236Y-91581309D01*
X133429943Y-91300000D01*
X133402236Y-91018691D01*
X133320182Y-90748192D01*
X133186932Y-90498899D01*
X133007608Y-90280392D01*
X132789101Y-90101068D01*
X132656142Y-90030000D01*
X132789101Y-89958932D01*
X133007608Y-89779608D01*
X133186932Y-89561101D01*
X133320182Y-89311808D01*
X133402236Y-89041309D01*
X133429943Y-88760000D01*
X133402236Y-88478691D01*
X133320182Y-88208192D01*
X133186932Y-87958899D01*
X133007608Y-87740392D01*
X132789101Y-87561068D01*
X132656142Y-87490000D01*
X132789101Y-87418932D01*
X133007608Y-87239608D01*
X133186932Y-87021101D01*
X133320182Y-86771808D01*
X133402236Y-86501309D01*
X133429943Y-86220000D01*
X133402236Y-85938691D01*
X133320182Y-85668192D01*
X133186932Y-85418899D01*
X133007608Y-85200392D01*
X132894518Y-85107581D01*
X132912482Y-85105812D01*
X133032180Y-85069502D01*
X133142494Y-85010537D01*
X133239185Y-84931185D01*
X133318537Y-84834494D01*
X133377502Y-84724180D01*
X133413812Y-84604482D01*
X133426072Y-84480000D01*
X133426072Y-82880000D01*
X133413812Y-82755518D01*
X133377502Y-82635820D01*
X133318537Y-82525506D01*
X133239185Y-82428815D01*
X133142494Y-82349463D01*
X133032180Y-82290498D01*
X132912482Y-82254188D01*
X132788000Y-82241928D01*
X131188000Y-82241928D01*
X131063518Y-82254188D01*
X130943820Y-82290498D01*
X130833506Y-82349463D01*
X130736815Y-82428815D01*
X130657463Y-82525506D01*
X130598498Y-82635820D01*
X130562188Y-82755518D01*
X130549928Y-82880000D01*
X130549928Y-83707127D01*
X130248000Y-83405199D01*
X130248000Y-78569039D01*
X130796096Y-78569039D01*
X130836754Y-78703087D01*
X130956963Y-78957420D01*
X131124481Y-79183414D01*
X131332869Y-79372385D01*
X131574119Y-79517070D01*
X131838960Y-79611909D01*
X132061000Y-79490624D01*
X132061000Y-78347000D01*
X132315000Y-78347000D01*
X132315000Y-79490624D01*
X132537040Y-79611909D01*
X132801881Y-79517070D01*
X133043131Y-79372385D01*
X133251519Y-79183414D01*
X133419037Y-78957420D01*
X133539246Y-78703087D01*
X133579904Y-78569039D01*
X133457915Y-78347000D01*
X132315000Y-78347000D01*
X132061000Y-78347000D01*
X130918085Y-78347000D01*
X130796096Y-78569039D01*
X130248000Y-78569039D01*
X130248000Y-68594801D01*
X130749352Y-68093450D01*
X130773764Y-68341309D01*
X130855818Y-68611808D01*
X130989068Y-68861101D01*
X131168392Y-69079608D01*
X131386899Y-69258932D01*
X131519858Y-69330000D01*
X131386899Y-69401068D01*
X131168392Y-69580392D01*
X130989068Y-69798899D01*
X130855818Y-70048192D01*
X130773764Y-70318691D01*
X130746057Y-70600000D01*
X130773764Y-70881309D01*
X130855818Y-71151808D01*
X130989068Y-71401101D01*
X131168392Y-71619608D01*
X131386899Y-71798932D01*
X131519858Y-71870000D01*
X131386899Y-71941068D01*
X131168392Y-72120392D01*
X130989068Y-72338899D01*
X130855818Y-72588192D01*
X130773764Y-72858691D01*
X130746057Y-73140000D01*
X130773764Y-73421309D01*
X130855818Y-73691808D01*
X130989068Y-73941101D01*
X131168392Y-74159608D01*
X131386899Y-74338932D01*
X131519858Y-74410000D01*
X131386899Y-74481068D01*
X131168392Y-74660392D01*
X130989068Y-74878899D01*
X130855818Y-75128192D01*
X130773764Y-75398691D01*
X130746057Y-75680000D01*
X130773764Y-75961309D01*
X130855818Y-76231808D01*
X130989068Y-76481101D01*
X131168392Y-76699608D01*
X131386899Y-76878932D01*
X131524682Y-76952579D01*
X131332869Y-77067615D01*
X131124481Y-77256586D01*
X130956963Y-77482580D01*
X130836754Y-77736913D01*
X130796096Y-77870961D01*
X130918085Y-78093000D01*
X132061000Y-78093000D01*
X132061000Y-78073000D01*
X132315000Y-78073000D01*
X132315000Y-78093000D01*
X133457915Y-78093000D01*
X133579904Y-77870961D01*
X133539246Y-77736913D01*
X133419037Y-77482580D01*
X133251519Y-77256586D01*
X133043131Y-77067615D01*
X132851318Y-76952579D01*
X132989101Y-76878932D01*
X133207608Y-76699608D01*
X133386932Y-76481101D01*
X133520182Y-76231808D01*
X133602236Y-75961309D01*
X133629943Y-75680000D01*
X133602236Y-75398691D01*
X133520182Y-75128192D01*
X133386932Y-74878899D01*
X133207608Y-74660392D01*
X132989101Y-74481068D01*
X132856142Y-74410000D01*
X132989101Y-74338932D01*
X133207608Y-74159608D01*
X133386932Y-73941101D01*
X133520182Y-73691808D01*
X133602236Y-73421309D01*
X133629943Y-73140000D01*
X133602236Y-72858691D01*
X133520182Y-72588192D01*
X133386932Y-72338899D01*
X133207608Y-72120392D01*
X132989101Y-71941068D01*
X132856142Y-71870000D01*
X132989101Y-71798932D01*
X133207608Y-71619608D01*
X133386932Y-71401101D01*
X133520182Y-71151808D01*
X133602236Y-70881309D01*
X133629943Y-70600000D01*
X133602236Y-70318691D01*
X133520182Y-70048192D01*
X133386932Y-69798899D01*
X133207608Y-69580392D01*
X132989101Y-69401068D01*
X132856142Y-69330000D01*
X132989101Y-69258932D01*
X133207608Y-69079608D01*
X133386932Y-68861101D01*
X133520182Y-68611808D01*
X133602236Y-68341309D01*
X133629943Y-68060000D01*
X133602236Y-67778691D01*
X133520182Y-67508192D01*
X133386932Y-67258899D01*
X133207608Y-67040392D01*
X132989101Y-66861068D01*
X132856142Y-66790000D01*
X132989101Y-66718932D01*
X133207608Y-66539608D01*
X133386932Y-66321101D01*
X133520182Y-66071808D01*
X133602236Y-65801309D01*
X133629943Y-65520000D01*
X133602236Y-65238691D01*
X133520182Y-64968192D01*
X133386932Y-64718899D01*
X133207608Y-64500392D01*
X133094518Y-64407581D01*
X133112482Y-64405812D01*
X133232180Y-64369502D01*
X133342494Y-64310537D01*
X133439185Y-64231185D01*
X133518537Y-64134494D01*
X133577502Y-64024180D01*
X133613812Y-63904482D01*
X133626072Y-63780000D01*
X133626072Y-62180000D01*
X133613812Y-62055518D01*
X133577502Y-61935820D01*
X133518537Y-61825506D01*
X133439185Y-61728815D01*
X133342494Y-61649463D01*
X133232180Y-61590498D01*
X133112482Y-61554188D01*
X132988000Y-61541928D01*
X131388000Y-61541928D01*
X131263518Y-61554188D01*
X131143820Y-61590498D01*
X131033506Y-61649463D01*
X130936815Y-61728815D01*
X130857463Y-61825506D01*
X130798498Y-61935820D01*
X130762188Y-62055518D01*
X130749928Y-62180000D01*
X130749928Y-63780000D01*
X130762188Y-63904482D01*
X130798498Y-64024180D01*
X130857463Y-64134494D01*
X130936815Y-64231185D01*
X131033506Y-64310537D01*
X131143820Y-64369502D01*
X131263518Y-64405812D01*
X131281482Y-64407581D01*
X131168392Y-64500392D01*
X130989068Y-64718899D01*
X130855818Y-64968192D01*
X130773764Y-65238691D01*
X130746057Y-65520000D01*
X130773764Y-65801309D01*
X130787292Y-65845906D01*
X130352001Y-66281198D01*
X130322998Y-66305000D01*
X130273758Y-66365000D01*
X130228025Y-66420725D01*
X130176985Y-66516213D01*
X128977003Y-67716196D01*
X128947999Y-67739999D01*
X128916246Y-67778691D01*
X128853026Y-67855724D01*
X128805293Y-67945026D01*
X128782454Y-67987754D01*
X128756188Y-68074344D01*
X128751799Y-68068997D01*
X128728001Y-68039999D01*
X128699003Y-68016201D01*
X121889801Y-61207000D01*
X141834001Y-61207000D01*
X141834000Y-166453000D01*
X141834000Y-166453000D01*
G37*
X141834000Y-166453000D02*
X139344344Y-166453000D01*
X139517014Y-166360706D01*
X139743134Y-166175134D01*
X139928706Y-165949014D01*
X140066599Y-165691034D01*
X140151513Y-165411111D01*
X140180185Y-165120000D01*
X140151513Y-164828889D01*
X140066599Y-164548966D01*
X139928706Y-164290986D01*
X139743134Y-164064866D01*
X139517014Y-163879294D01*
X139462209Y-163850000D01*
X139517014Y-163820706D01*
X139743134Y-163635134D01*
X139928706Y-163409014D01*
X140066599Y-163151034D01*
X140151513Y-162871111D01*
X140180185Y-162580000D01*
X140151513Y-162288889D01*
X140066599Y-162008966D01*
X139928706Y-161750986D01*
X139743134Y-161524866D01*
X139517014Y-161339294D01*
X139462209Y-161310000D01*
X139517014Y-161280706D01*
X139743134Y-161095134D01*
X139928706Y-160869014D01*
X140066599Y-160611034D01*
X140151513Y-160331111D01*
X140180185Y-160040000D01*
X140151513Y-159748889D01*
X140066599Y-159468966D01*
X139928706Y-159210986D01*
X139743134Y-158984866D01*
X139517014Y-158799294D01*
X139462209Y-158770000D01*
X139517014Y-158740706D01*
X139743134Y-158555134D01*
X139928706Y-158329014D01*
X140066599Y-158071034D01*
X140151513Y-157791111D01*
X140180185Y-157500000D01*
X140151513Y-157208889D01*
X140066599Y-156928966D01*
X139928706Y-156670986D01*
X139743134Y-156444866D01*
X139517014Y-156259294D01*
X139462209Y-156230000D01*
X139517014Y-156200706D01*
X139743134Y-156015134D01*
X139928706Y-155789014D01*
X140066599Y-155531034D01*
X140151513Y-155251111D01*
X140180185Y-154960000D01*
X140151513Y-154668889D01*
X140066599Y-154388966D01*
X139928706Y-154130986D01*
X139743134Y-153904866D01*
X139517014Y-153719294D01*
X139462209Y-153690000D01*
X139517014Y-153660706D01*
X139743134Y-153475134D01*
X139928706Y-153249014D01*
X140066599Y-152991034D01*
X140151513Y-152711111D01*
X140180185Y-152420000D01*
X140151513Y-152128889D01*
X140066599Y-151848966D01*
X139928706Y-151590986D01*
X139743134Y-151364866D01*
X139517014Y-151179294D01*
X139462209Y-151150000D01*
X139517014Y-151120706D01*
X139743134Y-150935134D01*
X139928706Y-150709014D01*
X140066599Y-150451034D01*
X140151513Y-150171111D01*
X140180185Y-149880000D01*
X140151513Y-149588889D01*
X140066599Y-149308966D01*
X139928706Y-149050986D01*
X139743134Y-148824866D01*
X139713313Y-148800393D01*
X139782180Y-148779502D01*
X139892494Y-148720537D01*
X139989185Y-148641185D01*
X140068537Y-148544494D01*
X140127502Y-148434180D01*
X140163812Y-148314482D01*
X140176072Y-148190000D01*
X140176072Y-146490000D01*
X140163812Y-146365518D01*
X140127502Y-146245820D01*
X140068537Y-146135506D01*
X139989185Y-146038815D01*
X139892494Y-145959463D01*
X139782180Y-145900498D01*
X139662482Y-145864188D01*
X139538000Y-145851928D01*
X137838000Y-145851928D01*
X137713518Y-145864188D01*
X137593820Y-145900498D01*
X137483506Y-145959463D01*
X137386815Y-146038815D01*
X137307463Y-146135506D01*
X137248498Y-146245820D01*
X137212188Y-146365518D01*
X137199928Y-146490000D01*
X137199928Y-146580000D01*
X132662802Y-146580000D01*
X120651804Y-134569003D01*
X120628001Y-134539999D01*
X120512276Y-134445026D01*
X120380247Y-134374454D01*
X120236986Y-134330997D01*
X120125333Y-134320000D01*
X120125322Y-134320000D01*
X120088000Y-134316324D01*
X120050678Y-134320000D01*
X116467803Y-134320000D01*
X118698133Y-132089670D01*
X118806899Y-132178932D01*
X119056192Y-132312182D01*
X119326691Y-132394236D01*
X119537508Y-132415000D01*
X119678492Y-132415000D01*
X119889309Y-132394236D01*
X120159808Y-132312182D01*
X120409101Y-132178932D01*
X120627608Y-131999608D01*
X120806932Y-131781101D01*
X120878000Y-131648142D01*
X120949068Y-131781101D01*
X121128392Y-131999608D01*
X121346899Y-132178932D01*
X121596192Y-132312182D01*
X121866691Y-132394236D01*
X122077508Y-132415000D01*
X122218492Y-132415000D01*
X122429309Y-132394236D01*
X122699808Y-132312182D01*
X122949101Y-132178932D01*
X123167608Y-131999608D01*
X123346932Y-131781101D01*
X123480182Y-131531808D01*
X123562236Y-131261309D01*
X123589943Y-130980000D01*
X123562236Y-130698691D01*
X123480182Y-130428192D01*
X123346932Y-130178899D01*
X123167608Y-129960392D01*
X122949101Y-129781068D01*
X122699808Y-129647818D01*
X122429309Y-129565764D01*
X122218492Y-129545000D01*
X122077508Y-129545000D01*
X121866691Y-129565764D01*
X121596192Y-129647818D01*
X121346899Y-129781068D01*
X121128392Y-129960392D01*
X120949068Y-130178899D01*
X120878000Y-130311858D01*
X120806932Y-130178899D01*
X120627608Y-129960392D01*
X120409101Y-129781068D01*
X120159808Y-129647818D01*
X120114605Y-129634106D01*
X120183937Y-129564774D01*
X120297205Y-129395256D01*
X120375226Y-129206898D01*
X120415000Y-129006939D01*
X120415000Y-128940000D01*
X123373199Y-128940000D01*
X137147203Y-142714005D01*
X137124487Y-142788889D01*
X137095815Y-143080000D01*
X137124487Y-143371111D01*
X137209401Y-143651034D01*
X137347294Y-143909014D01*
X137532866Y-144135134D01*
X137758986Y-144320706D01*
X138016966Y-144458599D01*
X138296889Y-144543513D01*
X138515050Y-144565000D01*
X138660950Y-144565000D01*
X138879111Y-144543513D01*
X139159034Y-144458599D01*
X139417014Y-144320706D01*
X139643134Y-144135134D01*
X139828706Y-143909014D01*
X139966599Y-143651034D01*
X140051513Y-143371111D01*
X140080185Y-143080000D01*
X140051513Y-142788889D01*
X139966599Y-142508966D01*
X139828706Y-142250986D01*
X139643134Y-142024866D01*
X139417014Y-141839294D01*
X139362209Y-141810000D01*
X139417014Y-141780706D01*
X139643134Y-141595134D01*
X139828706Y-141369014D01*
X139966599Y-141111034D01*
X140051513Y-140831111D01*
X140080185Y-140540000D01*
X140051513Y-140248889D01*
X139966599Y-139968966D01*
X139828706Y-139710986D01*
X139643134Y-139484866D01*
X139417014Y-139299294D01*
X139362209Y-139270000D01*
X139417014Y-139240706D01*
X139643134Y-139055134D01*
X139828706Y-138829014D01*
X139966599Y-138571034D01*
X140051513Y-138291111D01*
X140080185Y-138000000D01*
X140051513Y-137708889D01*
X139966599Y-137428966D01*
X139828706Y-137170986D01*
X139643134Y-136944866D01*
X139417014Y-136759294D01*
X139362209Y-136730000D01*
X139417014Y-136700706D01*
X139643134Y-136515134D01*
X139828706Y-136289014D01*
X139966599Y-136031034D01*
X140051513Y-135751111D01*
X140080185Y-135460000D01*
X140051513Y-135168889D01*
X139966599Y-134888966D01*
X139828706Y-134630986D01*
X139643134Y-134404866D01*
X139417014Y-134219294D01*
X139362209Y-134190000D01*
X139417014Y-134160706D01*
X139643134Y-133975134D01*
X139828706Y-133749014D01*
X139966599Y-133491034D01*
X140051513Y-133211111D01*
X140080185Y-132920000D01*
X140051513Y-132628889D01*
X139966599Y-132348966D01*
X139828706Y-132090986D01*
X139643134Y-131864866D01*
X139417014Y-131679294D01*
X139362209Y-131650000D01*
X139417014Y-131620706D01*
X139643134Y-131435134D01*
X139828706Y-131209014D01*
X139966599Y-130951034D01*
X140051513Y-130671111D01*
X140080185Y-130380000D01*
X140051513Y-130088889D01*
X139966599Y-129808966D01*
X139828706Y-129550986D01*
X139643134Y-129324866D01*
X139417014Y-129139294D01*
X139362209Y-129110000D01*
X139417014Y-129080706D01*
X139643134Y-128895134D01*
X139828706Y-128669014D01*
X139966599Y-128411034D01*
X140051513Y-128131111D01*
X140080185Y-127840000D01*
X140051513Y-127548889D01*
X139966599Y-127268966D01*
X139828706Y-127010986D01*
X139643134Y-126784866D01*
X139417014Y-126599294D01*
X139362209Y-126570000D01*
X139417014Y-126540706D01*
X139643134Y-126355134D01*
X139828706Y-126129014D01*
X139966599Y-125871034D01*
X140051513Y-125591111D01*
X140080185Y-125300000D01*
X140051513Y-125008889D01*
X139966599Y-124728966D01*
X139828706Y-124470986D01*
X139643134Y-124244866D01*
X139417014Y-124059294D01*
X139362209Y-124030000D01*
X139417014Y-124000706D01*
X139643134Y-123815134D01*
X139828706Y-123589014D01*
X139966599Y-123331034D01*
X140051513Y-123051111D01*
X140080185Y-122760000D01*
X140051513Y-122468889D01*
X139966599Y-122188966D01*
X139828706Y-121930986D01*
X139643134Y-121704866D01*
X139417014Y-121519294D01*
X139362209Y-121490000D01*
X139417014Y-121460706D01*
X139643134Y-121275134D01*
X139828706Y-121049014D01*
X139966599Y-120791034D01*
X140051513Y-120511111D01*
X140080185Y-120220000D01*
X140051513Y-119928889D01*
X139966599Y-119648966D01*
X139828706Y-119390986D01*
X139643134Y-119164866D01*
X139417014Y-118979294D01*
X139362209Y-118950000D01*
X139417014Y-118920706D01*
X139643134Y-118735134D01*
X139828706Y-118509014D01*
X139966599Y-118251034D01*
X140051513Y-117971111D01*
X140080185Y-117680000D01*
X140051513Y-117388889D01*
X139966599Y-117108966D01*
X139828706Y-116850986D01*
X139643134Y-116624866D01*
X139417014Y-116439294D01*
X139362209Y-116410000D01*
X139417014Y-116380706D01*
X139643134Y-116195134D01*
X139828706Y-115969014D01*
X139966599Y-115711034D01*
X140051513Y-115431111D01*
X140080185Y-115140000D01*
X140051513Y-114848889D01*
X139966599Y-114568966D01*
X139828706Y-114310986D01*
X139643134Y-114084866D01*
X139417014Y-113899294D01*
X139362209Y-113870000D01*
X139417014Y-113840706D01*
X139643134Y-113655134D01*
X139828706Y-113429014D01*
X139966599Y-113171034D01*
X140051513Y-112891111D01*
X140080185Y-112600000D01*
X140051513Y-112308889D01*
X139966599Y-112028966D01*
X139828706Y-111770986D01*
X139643134Y-111544866D01*
X139417014Y-111359294D01*
X139362209Y-111330000D01*
X139417014Y-111300706D01*
X139643134Y-111115134D01*
X139828706Y-110889014D01*
X139966599Y-110631034D01*
X140051513Y-110351111D01*
X140080185Y-110060000D01*
X140051513Y-109768889D01*
X139966599Y-109488966D01*
X139828706Y-109230986D01*
X139643134Y-109004866D01*
X139417014Y-108819294D01*
X139362209Y-108790000D01*
X139417014Y-108760706D01*
X139643134Y-108575134D01*
X139828706Y-108349014D01*
X139966599Y-108091034D01*
X140051513Y-107811111D01*
X140080185Y-107520000D01*
X140051513Y-107228889D01*
X139966599Y-106948966D01*
X139828706Y-106690986D01*
X139643134Y-106464866D01*
X139613313Y-106440393D01*
X139682180Y-106419502D01*
X139792494Y-106360537D01*
X139889185Y-106281185D01*
X139968537Y-106184494D01*
X140027502Y-106074180D01*
X140063812Y-105954482D01*
X140076072Y-105830000D01*
X140076072Y-104130000D01*
X140063812Y-104005518D01*
X140027502Y-103885820D01*
X139968537Y-103775506D01*
X139889185Y-103678815D01*
X139792494Y-103599463D01*
X139682180Y-103540498D01*
X139562482Y-103504188D01*
X139438000Y-103491928D01*
X137738000Y-103491928D01*
X137613518Y-103504188D01*
X137493820Y-103540498D01*
X137383506Y-103599463D01*
X137286815Y-103678815D01*
X137207463Y-103775506D01*
X137148498Y-103885820D01*
X137112188Y-104005518D01*
X137099928Y-104130000D01*
X137099928Y-104220000D01*
X131920809Y-104220000D01*
X131977774Y-104181937D01*
X132121937Y-104037774D01*
X132235205Y-103868256D01*
X132313226Y-103679898D01*
X132353000Y-103479939D01*
X132353000Y-103417802D01*
X132389799Y-103381003D01*
X132389804Y-103380997D01*
X136401003Y-99369799D01*
X136430001Y-99346001D01*
X136478960Y-99286344D01*
X136524974Y-99230277D01*
X136595546Y-99098247D01*
X136598755Y-99087668D01*
X136639003Y-98954986D01*
X136650000Y-98843333D01*
X136650000Y-98843323D01*
X136653676Y-98806000D01*
X136650000Y-98768677D01*
X136650000Y-88587799D01*
X138342061Y-86895739D01*
X138409068Y-87021101D01*
X138588392Y-87239608D01*
X138806899Y-87418932D01*
X138939858Y-87490000D01*
X138806899Y-87561068D01*
X138588392Y-87740392D01*
X138409068Y-87958899D01*
X138275818Y-88208192D01*
X138193764Y-88478691D01*
X138166057Y-88760000D01*
X138193764Y-89041309D01*
X138275818Y-89311808D01*
X138409068Y-89561101D01*
X138588392Y-89779608D01*
X138806899Y-89958932D01*
X138939858Y-90030000D01*
X138806899Y-90101068D01*
X138588392Y-90280392D01*
X138409068Y-90498899D01*
X138275818Y-90748192D01*
X138193764Y-91018691D01*
X138166057Y-91300000D01*
X138193764Y-91581309D01*
X138275818Y-91851808D01*
X138409068Y-92101101D01*
X138588392Y-92319608D01*
X138806899Y-92498932D01*
X138939858Y-92570000D01*
X138806899Y-92641068D01*
X138588392Y-92820392D01*
X138409068Y-93038899D01*
X138275818Y-93288192D01*
X138193764Y-93558691D01*
X138166057Y-93840000D01*
X138193764Y-94121309D01*
X138275818Y-94391808D01*
X138409068Y-94641101D01*
X138588392Y-94859608D01*
X138806899Y-95038932D01*
X138939858Y-95110000D01*
X138806899Y-95181068D01*
X138588392Y-95360392D01*
X138409068Y-95578899D01*
X138275818Y-95828192D01*
X138193764Y-96098691D01*
X138166057Y-96380000D01*
X138193764Y-96661309D01*
X138275818Y-96931808D01*
X138409068Y-97181101D01*
X138588392Y-97399608D01*
X138806899Y-97578932D01*
X138939858Y-97650000D01*
X138806899Y-97721068D01*
X138588392Y-97900392D01*
X138409068Y-98118899D01*
X138275818Y-98368192D01*
X138193764Y-98638691D01*
X138166057Y-98920000D01*
X138193764Y-99201309D01*
X138275818Y-99471808D01*
X138409068Y-99721101D01*
X138588392Y-99939608D01*
X138806899Y-100118932D01*
X139056192Y-100252182D01*
X139326691Y-100334236D01*
X139537508Y-100355000D01*
X139678492Y-100355000D01*
X139889309Y-100334236D01*
X140159808Y-100252182D01*
X140409101Y-100118932D01*
X140627608Y-99939608D01*
X140806932Y-99721101D01*
X140940182Y-99471808D01*
X141022236Y-99201309D01*
X141049943Y-98920000D01*
X141022236Y-98638691D01*
X140940182Y-98368192D01*
X140806932Y-98118899D01*
X140627608Y-97900392D01*
X140409101Y-97721068D01*
X140276142Y-97650000D01*
X140409101Y-97578932D01*
X140627608Y-97399608D01*
X140806932Y-97181101D01*
X140940182Y-96931808D01*
X141022236Y-96661309D01*
X141049943Y-96380000D01*
X141022236Y-96098691D01*
X140940182Y-95828192D01*
X140806932Y-95578899D01*
X140627608Y-95360392D01*
X140409101Y-95181068D01*
X140276142Y-95110000D01*
X140409101Y-95038932D01*
X140627608Y-94859608D01*
X140806932Y-94641101D01*
X140940182Y-94391808D01*
X141022236Y-94121309D01*
X141049943Y-93840000D01*
X141022236Y-93558691D01*
X140940182Y-93288192D01*
X140806932Y-93038899D01*
X140627608Y-92820392D01*
X140409101Y-92641068D01*
X140276142Y-92570000D01*
X140409101Y-92498932D01*
X140627608Y-92319608D01*
X140806932Y-92101101D01*
X140940182Y-91851808D01*
X141022236Y-91581309D01*
X141049943Y-91300000D01*
X141022236Y-91018691D01*
X140940182Y-90748192D01*
X140806932Y-90498899D01*
X140627608Y-90280392D01*
X140409101Y-90101068D01*
X140276142Y-90030000D01*
X140409101Y-89958932D01*
X140627608Y-89779608D01*
X140806932Y-89561101D01*
X140940182Y-89311808D01*
X141022236Y-89041309D01*
X141049943Y-88760000D01*
X141022236Y-88478691D01*
X140940182Y-88208192D01*
X140806932Y-87958899D01*
X140627608Y-87740392D01*
X140409101Y-87561068D01*
X140276142Y-87490000D01*
X140409101Y-87418932D01*
X140627608Y-87239608D01*
X140806932Y-87021101D01*
X140940182Y-86771808D01*
X141022236Y-86501309D01*
X141049943Y-86220000D01*
X141022236Y-85938691D01*
X140940182Y-85668192D01*
X140806932Y-85418899D01*
X140627608Y-85200392D01*
X140409101Y-85021068D01*
X140276142Y-84950000D01*
X140409101Y-84878932D01*
X140627608Y-84699608D01*
X140806932Y-84481101D01*
X140940182Y-84231808D01*
X141022236Y-83961309D01*
X141049943Y-83680000D01*
X141022236Y-83398691D01*
X140940182Y-83128192D01*
X140806932Y-82878899D01*
X140627608Y-82660392D01*
X140409101Y-82481068D01*
X140159808Y-82347818D01*
X139889309Y-82265764D01*
X139678492Y-82245000D01*
X139537508Y-82245000D01*
X139326691Y-82265764D01*
X139282094Y-82279292D01*
X138548000Y-81545199D01*
X138548000Y-78906851D01*
X138609068Y-79021101D01*
X138788392Y-79239608D01*
X139006899Y-79418932D01*
X139256192Y-79552182D01*
X139526691Y-79634236D01*
X139737508Y-79655000D01*
X139878492Y-79655000D01*
X140089309Y-79634236D01*
X140359808Y-79552182D01*
X140609101Y-79418932D01*
X140827608Y-79239608D01*
X141006932Y-79021101D01*
X141140182Y-78771808D01*
X141222236Y-78501309D01*
X141249943Y-78220000D01*
X141222236Y-77938691D01*
X141140182Y-77668192D01*
X141006932Y-77418899D01*
X140827608Y-77200392D01*
X140609101Y-77021068D01*
X140476142Y-76950000D01*
X140609101Y-76878932D01*
X140827608Y-76699608D01*
X141006932Y-76481101D01*
X141140182Y-76231808D01*
X141222236Y-75961309D01*
X141249943Y-75680000D01*
X141222236Y-75398691D01*
X141140182Y-75128192D01*
X141006932Y-74878899D01*
X140827608Y-74660392D01*
X140609101Y-74481068D01*
X140476142Y-74410000D01*
X140609101Y-74338932D01*
X140827608Y-74159608D01*
X141006932Y-73941101D01*
X141140182Y-73691808D01*
X141222236Y-73421309D01*
X141249943Y-73140000D01*
X141222236Y-72858691D01*
X141140182Y-72588192D01*
X141006932Y-72338899D01*
X140827608Y-72120392D01*
X140609101Y-71941068D01*
X140476142Y-71870000D01*
X140609101Y-71798932D01*
X140827608Y-71619608D01*
X141006932Y-71401101D01*
X141140182Y-71151808D01*
X141222236Y-70881309D01*
X141249943Y-70600000D01*
X141222236Y-70318691D01*
X141140182Y-70048192D01*
X141006932Y-69798899D01*
X140827608Y-69580392D01*
X140609101Y-69401068D01*
X140476142Y-69330000D01*
X140609101Y-69258932D01*
X140827608Y-69079608D01*
X141006932Y-68861101D01*
X141140182Y-68611808D01*
X141222236Y-68341309D01*
X141249943Y-68060000D01*
X141222236Y-67778691D01*
X141140182Y-67508192D01*
X141006932Y-67258899D01*
X140827608Y-67040392D01*
X140609101Y-66861068D01*
X140476142Y-66790000D01*
X140609101Y-66718932D01*
X140827608Y-66539608D01*
X141006932Y-66321101D01*
X141140182Y-66071808D01*
X141222236Y-65801309D01*
X141249943Y-65520000D01*
X141222236Y-65238691D01*
X141140182Y-64968192D01*
X141006932Y-64718899D01*
X140827608Y-64500392D01*
X140609101Y-64321068D01*
X140476142Y-64250000D01*
X140609101Y-64178932D01*
X140827608Y-63999608D01*
X141006932Y-63781101D01*
X141140182Y-63531808D01*
X141222236Y-63261309D01*
X141249943Y-62980000D01*
X141222236Y-62698691D01*
X141140182Y-62428192D01*
X141006932Y-62178899D01*
X140827608Y-61960392D01*
X140609101Y-61781068D01*
X140359808Y-61647818D01*
X140089309Y-61565764D01*
X139878492Y-61545000D01*
X139737508Y-61545000D01*
X139526691Y-61565764D01*
X139256192Y-61647818D01*
X139006899Y-61781068D01*
X138788392Y-61960392D01*
X138609068Y-62178899D01*
X138475818Y-62428192D01*
X138393764Y-62698691D01*
X138366057Y-62980000D01*
X138393764Y-63261309D01*
X138407292Y-63305906D01*
X137277002Y-64436196D01*
X137247999Y-64459999D01*
X137200673Y-64517667D01*
X137153026Y-64575724D01*
X137123473Y-64631014D01*
X137082454Y-64707754D01*
X137038997Y-64851015D01*
X137028000Y-64962668D01*
X137028000Y-64962678D01*
X137024324Y-65000000D01*
X137028000Y-65037322D01*
X137028001Y-81822667D01*
X137024324Y-81860000D01*
X137028001Y-81897333D01*
X137038998Y-82008986D01*
X137049558Y-82043799D01*
X137082454Y-82152246D01*
X137153026Y-82284276D01*
X137224201Y-82371002D01*
X137248000Y-82400001D01*
X137276998Y-82423799D01*
X138207292Y-83354094D01*
X138193764Y-83398691D01*
X138166057Y-83680000D01*
X138193764Y-83961309D01*
X138275818Y-84231808D01*
X138409068Y-84481101D01*
X138498330Y-84589867D01*
X135379003Y-87709194D01*
X135349999Y-87732997D01*
X135294871Y-87800172D01*
X135255026Y-87848722D01*
X135196135Y-87958899D01*
X135184454Y-87980752D01*
X135140997Y-88124013D01*
X135130000Y-88235666D01*
X135130000Y-88235676D01*
X135126324Y-88272998D01*
X135130000Y-88310320D01*
X135130000Y-93367199D01*
X133388708Y-91625906D01*
X133402236Y-91581309D01*
X133429943Y-91300000D01*
X133402236Y-91018691D01*
X133320182Y-90748192D01*
X133186932Y-90498899D01*
X133007608Y-90280392D01*
X132789101Y-90101068D01*
X132656142Y-90030000D01*
X132789101Y-89958932D01*
X133007608Y-89779608D01*
X133186932Y-89561101D01*
X133320182Y-89311808D01*
X133402236Y-89041309D01*
X133429943Y-88760000D01*
X133402236Y-88478691D01*
X133320182Y-88208192D01*
X133186932Y-87958899D01*
X133007608Y-87740392D01*
X132789101Y-87561068D01*
X132656142Y-87490000D01*
X132789101Y-87418932D01*
X133007608Y-87239608D01*
X133186932Y-87021101D01*
X133320182Y-86771808D01*
X133402236Y-86501309D01*
X133429943Y-86220000D01*
X133402236Y-85938691D01*
X133320182Y-85668192D01*
X133186932Y-85418899D01*
X133007608Y-85200392D01*
X132894518Y-85107581D01*
X132912482Y-85105812D01*
X133032180Y-85069502D01*
X133142494Y-85010537D01*
X133239185Y-84931185D01*
X133318537Y-84834494D01*
X133377502Y-84724180D01*
X133413812Y-84604482D01*
X133426072Y-84480000D01*
X133426072Y-82880000D01*
X133413812Y-82755518D01*
X133377502Y-82635820D01*
X133318537Y-82525506D01*
X133239185Y-82428815D01*
X133142494Y-82349463D01*
X133032180Y-82290498D01*
X132912482Y-82254188D01*
X132788000Y-82241928D01*
X131188000Y-82241928D01*
X131063518Y-82254188D01*
X130943820Y-82290498D01*
X130833506Y-82349463D01*
X130736815Y-82428815D01*
X130657463Y-82525506D01*
X130598498Y-82635820D01*
X130562188Y-82755518D01*
X130549928Y-82880000D01*
X130549928Y-83707127D01*
X130248000Y-83405199D01*
X130248000Y-78569039D01*
X130796096Y-78569039D01*
X130836754Y-78703087D01*
X130956963Y-78957420D01*
X131124481Y-79183414D01*
X131332869Y-79372385D01*
X131574119Y-79517070D01*
X131838960Y-79611909D01*
X132061000Y-79490624D01*
X132061000Y-78347000D01*
X132315000Y-78347000D01*
X132315000Y-79490624D01*
X132537040Y-79611909D01*
X132801881Y-79517070D01*
X133043131Y-79372385D01*
X133251519Y-79183414D01*
X133419037Y-78957420D01*
X133539246Y-78703087D01*
X133579904Y-78569039D01*
X133457915Y-78347000D01*
X132315000Y-78347000D01*
X132061000Y-78347000D01*
X130918085Y-78347000D01*
X130796096Y-78569039D01*
X130248000Y-78569039D01*
X130248000Y-68594801D01*
X130749352Y-68093450D01*
X130773764Y-68341309D01*
X130855818Y-68611808D01*
X130989068Y-68861101D01*
X131168392Y-69079608D01*
X131386899Y-69258932D01*
X131519858Y-69330000D01*
X131386899Y-69401068D01*
X131168392Y-69580392D01*
X130989068Y-69798899D01*
X130855818Y-70048192D01*
X130773764Y-70318691D01*
X130746057Y-70600000D01*
X130773764Y-70881309D01*
X130855818Y-71151808D01*
X130989068Y-71401101D01*
X131168392Y-71619608D01*
X131386899Y-71798932D01*
X131519858Y-71870000D01*
X131386899Y-71941068D01*
X131168392Y-72120392D01*
X130989068Y-72338899D01*
X130855818Y-72588192D01*
X130773764Y-72858691D01*
X130746057Y-73140000D01*
X130773764Y-73421309D01*
X130855818Y-73691808D01*
X130989068Y-73941101D01*
X131168392Y-74159608D01*
X131386899Y-74338932D01*
X131519858Y-74410000D01*
X131386899Y-74481068D01*
X131168392Y-74660392D01*
X130989068Y-74878899D01*
X130855818Y-75128192D01*
X130773764Y-75398691D01*
X130746057Y-75680000D01*
X130773764Y-75961309D01*
X130855818Y-76231808D01*
X130989068Y-76481101D01*
X131168392Y-76699608D01*
X131386899Y-76878932D01*
X131524682Y-76952579D01*
X131332869Y-77067615D01*
X131124481Y-77256586D01*
X130956963Y-77482580D01*
X130836754Y-77736913D01*
X130796096Y-77870961D01*
X130918085Y-78093000D01*
X132061000Y-78093000D01*
X132061000Y-78073000D01*
X132315000Y-78073000D01*
X132315000Y-78093000D01*
X133457915Y-78093000D01*
X133579904Y-77870961D01*
X133539246Y-77736913D01*
X133419037Y-77482580D01*
X133251519Y-77256586D01*
X133043131Y-77067615D01*
X132851318Y-76952579D01*
X132989101Y-76878932D01*
X133207608Y-76699608D01*
X133386932Y-76481101D01*
X133520182Y-76231808D01*
X133602236Y-75961309D01*
X133629943Y-75680000D01*
X133602236Y-75398691D01*
X133520182Y-75128192D01*
X133386932Y-74878899D01*
X133207608Y-74660392D01*
X132989101Y-74481068D01*
X132856142Y-74410000D01*
X132989101Y-74338932D01*
X133207608Y-74159608D01*
X133386932Y-73941101D01*
X133520182Y-73691808D01*
X133602236Y-73421309D01*
X133629943Y-73140000D01*
X133602236Y-72858691D01*
X133520182Y-72588192D01*
X133386932Y-72338899D01*
X133207608Y-72120392D01*
X132989101Y-71941068D01*
X132856142Y-71870000D01*
X132989101Y-71798932D01*
X133207608Y-71619608D01*
X133386932Y-71401101D01*
X133520182Y-71151808D01*
X133602236Y-70881309D01*
X133629943Y-70600000D01*
X133602236Y-70318691D01*
X133520182Y-70048192D01*
X133386932Y-69798899D01*
X133207608Y-69580392D01*
X132989101Y-69401068D01*
X132856142Y-69330000D01*
X132989101Y-69258932D01*
X133207608Y-69079608D01*
X133386932Y-68861101D01*
X133520182Y-68611808D01*
X133602236Y-68341309D01*
X133629943Y-68060000D01*
X133602236Y-67778691D01*
X133520182Y-67508192D01*
X133386932Y-67258899D01*
X133207608Y-67040392D01*
X132989101Y-66861068D01*
X132856142Y-66790000D01*
X132989101Y-66718932D01*
X133207608Y-66539608D01*
X133386932Y-66321101D01*
X133520182Y-66071808D01*
X133602236Y-65801309D01*
X133629943Y-65520000D01*
X133602236Y-65238691D01*
X133520182Y-64968192D01*
X133386932Y-64718899D01*
X133207608Y-64500392D01*
X133094518Y-64407581D01*
X133112482Y-64405812D01*
X133232180Y-64369502D01*
X133342494Y-64310537D01*
X133439185Y-64231185D01*
X133518537Y-64134494D01*
X133577502Y-64024180D01*
X133613812Y-63904482D01*
X133626072Y-63780000D01*
X133626072Y-62180000D01*
X133613812Y-62055518D01*
X133577502Y-61935820D01*
X133518537Y-61825506D01*
X133439185Y-61728815D01*
X133342494Y-61649463D01*
X133232180Y-61590498D01*
X133112482Y-61554188D01*
X132988000Y-61541928D01*
X131388000Y-61541928D01*
X131263518Y-61554188D01*
X131143820Y-61590498D01*
X131033506Y-61649463D01*
X130936815Y-61728815D01*
X130857463Y-61825506D01*
X130798498Y-61935820D01*
X130762188Y-62055518D01*
X130749928Y-62180000D01*
X130749928Y-63780000D01*
X130762188Y-63904482D01*
X130798498Y-64024180D01*
X130857463Y-64134494D01*
X130936815Y-64231185D01*
X131033506Y-64310537D01*
X131143820Y-64369502D01*
X131263518Y-64405812D01*
X131281482Y-64407581D01*
X131168392Y-64500392D01*
X130989068Y-64718899D01*
X130855818Y-64968192D01*
X130773764Y-65238691D01*
X130746057Y-65520000D01*
X130773764Y-65801309D01*
X130787292Y-65845906D01*
X130352001Y-66281198D01*
X130322998Y-66305000D01*
X130273758Y-66365000D01*
X130228025Y-66420725D01*
X130176985Y-66516213D01*
X128977003Y-67716196D01*
X128947999Y-67739999D01*
X128916246Y-67778691D01*
X128853026Y-67855724D01*
X128805293Y-67945026D01*
X128782454Y-67987754D01*
X128756188Y-68074344D01*
X128751799Y-68068997D01*
X128728001Y-68039999D01*
X128699003Y-68016201D01*
X121889801Y-61207000D01*
X141834001Y-61207000D01*
X141834000Y-166453000D01*
G36*
X102861199Y-113033003D02*
G01*
X102884997Y-113062001D01*
X103000722Y-113156974D01*
X103132751Y-113227546D01*
X103276012Y-113271003D01*
X103387665Y-113282000D01*
X103387673Y-113282000D01*
X103424998Y-113285676D01*
X103462323Y-113282000D01*
X108262289Y-113282000D01*
X108306226Y-113325937D01*
X108475744Y-113439205D01*
X108664102Y-113517226D01*
X108864061Y-113557000D01*
X109067939Y-113557000D01*
X109267898Y-113517226D01*
X109456256Y-113439205D01*
X109625774Y-113325937D01*
X109769937Y-113181774D01*
X109813001Y-113117324D01*
X109813001Y-114351151D01*
X109729309Y-114325764D01*
X109518492Y-114305000D01*
X109377508Y-114305000D01*
X109166691Y-114325764D01*
X108896192Y-114407818D01*
X108646899Y-114541068D01*
X108428392Y-114720392D01*
X108249068Y-114938899D01*
X108178000Y-115071858D01*
X108106932Y-114938899D01*
X107927608Y-114720392D01*
X107709101Y-114541068D01*
X107459808Y-114407818D01*
X107189309Y-114325764D01*
X106978492Y-114305000D01*
X106837508Y-114305000D01*
X106626691Y-114325764D01*
X106356192Y-114407818D01*
X106106899Y-114541068D01*
X105888392Y-114720392D01*
X105709068Y-114938899D01*
X105638000Y-115071858D01*
X105566932Y-114938899D01*
X105387608Y-114720392D01*
X105169101Y-114541068D01*
X104919808Y-114407818D01*
X104649309Y-114325764D01*
X104438492Y-114305000D01*
X104297508Y-114305000D01*
X104086691Y-114325764D01*
X103816192Y-114407818D01*
X103566899Y-114541068D01*
X103348392Y-114720392D01*
X103169068Y-114938899D01*
X103095421Y-115076682D01*
X102980385Y-114884869D01*
X102791414Y-114676481D01*
X102565420Y-114508963D01*
X102311087Y-114388754D01*
X102177039Y-114348096D01*
X101955000Y-114470085D01*
X101955000Y-115613000D01*
X101975000Y-115613000D01*
X101975000Y-115867000D01*
X101955000Y-115867000D01*
X101955000Y-117009915D01*
X102177039Y-117131904D01*
X102217679Y-117119578D01*
X102170795Y-117189744D01*
X102092774Y-117378102D01*
X102053000Y-117578061D01*
X102053000Y-117781939D01*
X102092774Y-117981898D01*
X102170795Y-118170256D01*
X102284063Y-118339774D01*
X102428226Y-118483937D01*
X102597744Y-118597205D01*
X102786102Y-118675226D01*
X102986061Y-118715000D01*
X103148199Y-118715000D01*
X103653000Y-119219802D01*
X103653000Y-119281939D01*
X103688418Y-119460000D01*
X91013001Y-119460000D01*
X91013001Y-117017025D01*
X91116192Y-117072182D01*
X91386691Y-117154236D01*
X91597508Y-117175000D01*
X91738492Y-117175000D01*
X91949309Y-117154236D01*
X92219808Y-117072182D01*
X92469101Y-116938932D01*
X92687608Y-116759608D01*
X92866932Y-116541101D01*
X92938000Y-116408142D01*
X93009068Y-116541101D01*
X93188392Y-116759608D01*
X93406899Y-116938932D01*
X93656192Y-117072182D01*
X93926691Y-117154236D01*
X94137508Y-117175000D01*
X94278492Y-117175000D01*
X94489309Y-117154236D01*
X94759808Y-117072182D01*
X95009101Y-116938932D01*
X95227608Y-116759608D01*
X95406932Y-116541101D01*
X95478000Y-116408142D01*
X95549068Y-116541101D01*
X95728392Y-116759608D01*
X95946899Y-116938932D01*
X96196192Y-117072182D01*
X96466691Y-117154236D01*
X96677508Y-117175000D01*
X96818492Y-117175000D01*
X97029309Y-117154236D01*
X97299808Y-117072182D01*
X97549101Y-116938932D01*
X97767608Y-116759608D01*
X97946932Y-116541101D01*
X98018000Y-116408142D01*
X98089068Y-116541101D01*
X98268392Y-116759608D01*
X98486899Y-116938932D01*
X98736192Y-117072182D01*
X99006691Y-117154236D01*
X99217508Y-117175000D01*
X99358492Y-117175000D01*
X99569309Y-117154236D01*
X99839808Y-117072182D01*
X100089101Y-116938932D01*
X100307608Y-116759608D01*
X100486932Y-116541101D01*
X100560579Y-116403318D01*
X100675615Y-116595131D01*
X100864586Y-116803519D01*
X101090580Y-116971037D01*
X101344913Y-117091246D01*
X101478961Y-117131904D01*
X101701000Y-117009915D01*
X101701000Y-115867000D01*
X101681000Y-115867000D01*
X101681000Y-115613000D01*
X101701000Y-115613000D01*
X101701000Y-114470085D01*
X101478961Y-114348096D01*
X101344913Y-114388754D01*
X101090580Y-114508963D01*
X100864586Y-114676481D01*
X100817881Y-114727985D01*
X100793544Y-114647755D01*
X100722972Y-114515726D01*
X100627999Y-114400001D01*
X100512274Y-114305028D01*
X100380245Y-114234456D01*
X100236984Y-114190999D01*
X100087998Y-114176325D01*
X99939012Y-114190999D01*
X99795752Y-114234456D01*
X99663722Y-114305028D01*
X99619794Y-114341078D01*
X99569309Y-114325764D01*
X99358492Y-114305000D01*
X99217508Y-114305000D01*
X99006691Y-114325764D01*
X98736192Y-114407818D01*
X98486899Y-114541068D01*
X98268392Y-114720392D01*
X98089068Y-114938899D01*
X98018000Y-115071858D01*
X97946932Y-114938899D01*
X97767608Y-114720392D01*
X97549101Y-114541068D01*
X97299808Y-114407818D01*
X97029309Y-114325764D01*
X96818492Y-114305000D01*
X96677508Y-114305000D01*
X96466691Y-114325764D01*
X96196192Y-114407818D01*
X95946899Y-114541068D01*
X95728392Y-114720392D01*
X95549068Y-114938899D01*
X95478000Y-115071858D01*
X95406932Y-114938899D01*
X95227608Y-114720392D01*
X95009101Y-114541068D01*
X94759808Y-114407818D01*
X94489309Y-114325764D01*
X94278492Y-114305000D01*
X94137508Y-114305000D01*
X93926691Y-114325764D01*
X93656192Y-114407818D01*
X93406899Y-114541068D01*
X93188392Y-114720392D01*
X93009068Y-114938899D01*
X92938000Y-115071858D01*
X92866932Y-114938899D01*
X92687608Y-114720392D01*
X92469101Y-114541068D01*
X92219808Y-114407818D01*
X91949309Y-114325764D01*
X91738492Y-114305000D01*
X91597508Y-114305000D01*
X91386691Y-114325764D01*
X91116192Y-114407818D01*
X91013001Y-114462975D01*
X91013001Y-107381170D01*
X93619003Y-104775169D01*
X93648001Y-104751371D01*
X93742974Y-104635646D01*
X93813546Y-104503617D01*
X93857003Y-104360356D01*
X93862573Y-104303802D01*
X93909101Y-104278932D01*
X94017867Y-104189670D01*
X102861199Y-113033003D01*
X102861199Y-113033003D01*
G37*
X102861199Y-113033003D02*
X102884997Y-113062001D01*
X103000722Y-113156974D01*
X103132751Y-113227546D01*
X103276012Y-113271003D01*
X103387665Y-113282000D01*
X103387673Y-113282000D01*
X103424998Y-113285676D01*
X103462323Y-113282000D01*
X108262289Y-113282000D01*
X108306226Y-113325937D01*
X108475744Y-113439205D01*
X108664102Y-113517226D01*
X108864061Y-113557000D01*
X109067939Y-113557000D01*
X109267898Y-113517226D01*
X109456256Y-113439205D01*
X109625774Y-113325937D01*
X109769937Y-113181774D01*
X109813001Y-113117324D01*
X109813001Y-114351151D01*
X109729309Y-114325764D01*
X109518492Y-114305000D01*
X109377508Y-114305000D01*
X109166691Y-114325764D01*
X108896192Y-114407818D01*
X108646899Y-114541068D01*
X108428392Y-114720392D01*
X108249068Y-114938899D01*
X108178000Y-115071858D01*
X108106932Y-114938899D01*
X107927608Y-114720392D01*
X107709101Y-114541068D01*
X107459808Y-114407818D01*
X107189309Y-114325764D01*
X106978492Y-114305000D01*
X106837508Y-114305000D01*
X106626691Y-114325764D01*
X106356192Y-114407818D01*
X106106899Y-114541068D01*
X105888392Y-114720392D01*
X105709068Y-114938899D01*
X105638000Y-115071858D01*
X105566932Y-114938899D01*
X105387608Y-114720392D01*
X105169101Y-114541068D01*
X104919808Y-114407818D01*
X104649309Y-114325764D01*
X104438492Y-114305000D01*
X104297508Y-114305000D01*
X104086691Y-114325764D01*
X103816192Y-114407818D01*
X103566899Y-114541068D01*
X103348392Y-114720392D01*
X103169068Y-114938899D01*
X103095421Y-115076682D01*
X102980385Y-114884869D01*
X102791414Y-114676481D01*
X102565420Y-114508963D01*
X102311087Y-114388754D01*
X102177039Y-114348096D01*
X101955000Y-114470085D01*
X101955000Y-115613000D01*
X101975000Y-115613000D01*
X101975000Y-115867000D01*
X101955000Y-115867000D01*
X101955000Y-117009915D01*
X102177039Y-117131904D01*
X102217679Y-117119578D01*
X102170795Y-117189744D01*
X102092774Y-117378102D01*
X102053000Y-117578061D01*
X102053000Y-117781939D01*
X102092774Y-117981898D01*
X102170795Y-118170256D01*
X102284063Y-118339774D01*
X102428226Y-118483937D01*
X102597744Y-118597205D01*
X102786102Y-118675226D01*
X102986061Y-118715000D01*
X103148199Y-118715000D01*
X103653000Y-119219802D01*
X103653000Y-119281939D01*
X103688418Y-119460000D01*
X91013001Y-119460000D01*
X91013001Y-117017025D01*
X91116192Y-117072182D01*
X91386691Y-117154236D01*
X91597508Y-117175000D01*
X91738492Y-117175000D01*
X91949309Y-117154236D01*
X92219808Y-117072182D01*
X92469101Y-116938932D01*
X92687608Y-116759608D01*
X92866932Y-116541101D01*
X92938000Y-116408142D01*
X93009068Y-116541101D01*
X93188392Y-116759608D01*
X93406899Y-116938932D01*
X93656192Y-117072182D01*
X93926691Y-117154236D01*
X94137508Y-117175000D01*
X94278492Y-117175000D01*
X94489309Y-117154236D01*
X94759808Y-117072182D01*
X95009101Y-116938932D01*
X95227608Y-116759608D01*
X95406932Y-116541101D01*
X95478000Y-116408142D01*
X95549068Y-116541101D01*
X95728392Y-116759608D01*
X95946899Y-116938932D01*
X96196192Y-117072182D01*
X96466691Y-117154236D01*
X96677508Y-117175000D01*
X96818492Y-117175000D01*
X97029309Y-117154236D01*
X97299808Y-117072182D01*
X97549101Y-116938932D01*
X97767608Y-116759608D01*
X97946932Y-116541101D01*
X98018000Y-116408142D01*
X98089068Y-116541101D01*
X98268392Y-116759608D01*
X98486899Y-116938932D01*
X98736192Y-117072182D01*
X99006691Y-117154236D01*
X99217508Y-117175000D01*
X99358492Y-117175000D01*
X99569309Y-117154236D01*
X99839808Y-117072182D01*
X100089101Y-116938932D01*
X100307608Y-116759608D01*
X100486932Y-116541101D01*
X100560579Y-116403318D01*
X100675615Y-116595131D01*
X100864586Y-116803519D01*
X101090580Y-116971037D01*
X101344913Y-117091246D01*
X101478961Y-117131904D01*
X101701000Y-117009915D01*
X101701000Y-115867000D01*
X101681000Y-115867000D01*
X101681000Y-115613000D01*
X101701000Y-115613000D01*
X101701000Y-114470085D01*
X101478961Y-114348096D01*
X101344913Y-114388754D01*
X101090580Y-114508963D01*
X100864586Y-114676481D01*
X100817881Y-114727985D01*
X100793544Y-114647755D01*
X100722972Y-114515726D01*
X100627999Y-114400001D01*
X100512274Y-114305028D01*
X100380245Y-114234456D01*
X100236984Y-114190999D01*
X100087998Y-114176325D01*
X99939012Y-114190999D01*
X99795752Y-114234456D01*
X99663722Y-114305028D01*
X99619794Y-114341078D01*
X99569309Y-114325764D01*
X99358492Y-114305000D01*
X99217508Y-114305000D01*
X99006691Y-114325764D01*
X98736192Y-114407818D01*
X98486899Y-114541068D01*
X98268392Y-114720392D01*
X98089068Y-114938899D01*
X98018000Y-115071858D01*
X97946932Y-114938899D01*
X97767608Y-114720392D01*
X97549101Y-114541068D01*
X97299808Y-114407818D01*
X97029309Y-114325764D01*
X96818492Y-114305000D01*
X96677508Y-114305000D01*
X96466691Y-114325764D01*
X96196192Y-114407818D01*
X95946899Y-114541068D01*
X95728392Y-114720392D01*
X95549068Y-114938899D01*
X95478000Y-115071858D01*
X95406932Y-114938899D01*
X95227608Y-114720392D01*
X95009101Y-114541068D01*
X94759808Y-114407818D01*
X94489309Y-114325764D01*
X94278492Y-114305000D01*
X94137508Y-114305000D01*
X93926691Y-114325764D01*
X93656192Y-114407818D01*
X93406899Y-114541068D01*
X93188392Y-114720392D01*
X93009068Y-114938899D01*
X92938000Y-115071858D01*
X92866932Y-114938899D01*
X92687608Y-114720392D01*
X92469101Y-114541068D01*
X92219808Y-114407818D01*
X91949309Y-114325764D01*
X91738492Y-114305000D01*
X91597508Y-114305000D01*
X91386691Y-114325764D01*
X91116192Y-114407818D01*
X91013001Y-114462975D01*
X91013001Y-107381170D01*
X93619003Y-104775169D01*
X93648001Y-104751371D01*
X93742974Y-104635646D01*
X93813546Y-104503617D01*
X93857003Y-104360356D01*
X93862573Y-104303802D01*
X93909101Y-104278932D01*
X94017867Y-104189670D01*
X102861199Y-113033003D01*
G36*
X99529068Y-88641101D02*
G01*
X99708392Y-88859608D01*
X99926899Y-89038932D01*
X99973427Y-89063802D01*
X99978997Y-89120355D01*
X99981470Y-89128508D01*
X99982492Y-89136955D01*
X100003170Y-89200043D01*
X100022454Y-89263616D01*
X100026467Y-89271124D01*
X100029119Y-89279215D01*
X100061719Y-89337075D01*
X100093026Y-89395645D01*
X100098429Y-89402228D01*
X100102607Y-89409644D01*
X100145857Y-89460021D01*
X100187999Y-89511371D01*
X100223537Y-89540537D01*
X110185574Y-99069550D01*
X110203999Y-99092001D01*
X110239528Y-99121159D01*
X110245645Y-99127010D01*
X110268399Y-99144853D01*
X110319724Y-99186974D01*
X110327233Y-99190988D01*
X110333931Y-99196240D01*
X110393170Y-99226232D01*
X110451753Y-99257546D01*
X110459901Y-99260018D01*
X110467496Y-99263863D01*
X110531462Y-99281725D01*
X110595014Y-99301003D01*
X110603487Y-99301838D01*
X110611686Y-99304127D01*
X110677889Y-99309166D01*
X110706667Y-99312000D01*
X110715131Y-99312000D01*
X110760961Y-99315488D01*
X110789793Y-99312000D01*
X118303199Y-99312000D01*
X121139000Y-102147803D01*
X121139000Y-102209939D01*
X121165467Y-102343000D01*
X121056061Y-102343000D01*
X120856102Y-102382774D01*
X120667744Y-102460795D01*
X120498226Y-102574063D01*
X120354063Y-102718226D01*
X120240795Y-102887744D01*
X120162774Y-103076102D01*
X120123000Y-103276061D01*
X120123000Y-103479939D01*
X120162774Y-103679898D01*
X120240795Y-103868256D01*
X120354063Y-104037774D01*
X120498226Y-104181937D01*
X120555191Y-104220000D01*
X119368236Y-104220000D01*
X119471414Y-104143519D01*
X119660385Y-103935131D01*
X119805070Y-103693881D01*
X119899909Y-103429040D01*
X119778624Y-103207000D01*
X118635000Y-103207000D01*
X118635000Y-103227000D01*
X118381000Y-103227000D01*
X118381000Y-103207000D01*
X118361000Y-103207000D01*
X118361000Y-102953000D01*
X118381000Y-102953000D01*
X118381000Y-101810085D01*
X118635000Y-101810085D01*
X118635000Y-102953000D01*
X119778624Y-102953000D01*
X119899909Y-102730960D01*
X119805070Y-102466119D01*
X119660385Y-102224869D01*
X119471414Y-102016481D01*
X119245420Y-101848963D01*
X118991087Y-101728754D01*
X118857039Y-101688096D01*
X118635000Y-101810085D01*
X118381000Y-101810085D01*
X118158961Y-101688096D01*
X118024913Y-101728754D01*
X117770580Y-101848963D01*
X117544586Y-102016481D01*
X117355615Y-102224869D01*
X117240579Y-102416682D01*
X117166932Y-102278899D01*
X116987608Y-102060392D01*
X116769101Y-101881068D01*
X116519808Y-101747818D01*
X116249309Y-101665764D01*
X116038492Y-101645000D01*
X115897508Y-101645000D01*
X115686691Y-101665764D01*
X115416192Y-101747818D01*
X115166899Y-101881068D01*
X114948392Y-102060392D01*
X114769068Y-102278899D01*
X114698000Y-102411858D01*
X114626932Y-102278899D01*
X114447608Y-102060392D01*
X114229101Y-101881068D01*
X113979808Y-101747818D01*
X113709309Y-101665764D01*
X113498492Y-101645000D01*
X113357508Y-101645000D01*
X113146691Y-101665764D01*
X112876192Y-101747818D01*
X112626899Y-101881068D01*
X112408392Y-102060392D01*
X112229068Y-102278899D01*
X112158000Y-102411858D01*
X112086932Y-102278899D01*
X111907608Y-102060392D01*
X111689101Y-101881068D01*
X111439808Y-101747818D01*
X111169309Y-101665764D01*
X110958492Y-101645000D01*
X110817508Y-101645000D01*
X110606691Y-101665764D01*
X110336192Y-101747818D01*
X110086899Y-101881068D01*
X109868392Y-102060392D01*
X109689068Y-102278899D01*
X109618000Y-102411858D01*
X109546932Y-102278899D01*
X109367608Y-102060392D01*
X109149101Y-101881068D01*
X108899808Y-101747818D01*
X108629309Y-101665764D01*
X108418492Y-101645000D01*
X108277508Y-101645000D01*
X108066691Y-101665764D01*
X107796192Y-101747818D01*
X107546899Y-101881068D01*
X107328392Y-102060392D01*
X107149068Y-102278899D01*
X107078000Y-102411858D01*
X107006932Y-102278899D01*
X106827608Y-102060392D01*
X106609101Y-101881068D01*
X106359808Y-101747818D01*
X106089309Y-101665764D01*
X105878492Y-101645000D01*
X105737508Y-101645000D01*
X105526691Y-101665764D01*
X105256192Y-101747818D01*
X105006899Y-101881068D01*
X104788392Y-102060392D01*
X104609068Y-102278899D01*
X104538000Y-102411858D01*
X104466932Y-102278899D01*
X104287608Y-102060392D01*
X104069101Y-101881068D01*
X103819808Y-101747818D01*
X103549309Y-101665764D01*
X103338492Y-101645000D01*
X103197508Y-101645000D01*
X102986691Y-101665764D01*
X102716192Y-101747818D01*
X102466899Y-101881068D01*
X102248392Y-102060392D01*
X102069068Y-102278899D01*
X101998000Y-102411858D01*
X101926932Y-102278899D01*
X101747608Y-102060392D01*
X101529101Y-101881068D01*
X101279808Y-101747818D01*
X101009309Y-101665764D01*
X100798492Y-101645000D01*
X100657508Y-101645000D01*
X100446691Y-101665764D01*
X100176192Y-101747818D01*
X99926899Y-101881068D01*
X99708392Y-102060392D01*
X99529068Y-102278899D01*
X99458000Y-102411858D01*
X99386932Y-102278899D01*
X99207608Y-102060392D01*
X98989101Y-101881068D01*
X98739808Y-101747818D01*
X98469309Y-101665764D01*
X98258492Y-101645000D01*
X98117508Y-101645000D01*
X97906691Y-101665764D01*
X97636192Y-101747818D01*
X97386899Y-101881068D01*
X97168392Y-102060392D01*
X96989068Y-102278899D01*
X96918000Y-102411858D01*
X96846932Y-102278899D01*
X96667608Y-102060392D01*
X96449101Y-101881068D01*
X96199808Y-101747818D01*
X95929309Y-101665764D01*
X95718492Y-101645000D01*
X95577508Y-101645000D01*
X95366691Y-101665764D01*
X95096192Y-101747818D01*
X94846899Y-101881068D01*
X94716162Y-101988361D01*
X91530803Y-98803003D01*
X91507000Y-98773999D01*
X91391275Y-98679026D01*
X91259246Y-98608454D01*
X91115985Y-98564997D01*
X91004332Y-98554000D01*
X91004321Y-98554000D01*
X90966999Y-98550324D01*
X90929677Y-98554000D01*
X88841711Y-98554000D01*
X88797774Y-98510063D01*
X88674864Y-98427937D01*
X97862095Y-89240708D01*
X97906691Y-89254236D01*
X98117508Y-89275000D01*
X98258492Y-89275000D01*
X98469309Y-89254236D01*
X98739808Y-89172182D01*
X98989101Y-89038932D01*
X99207608Y-88859608D01*
X99386932Y-88641101D01*
X99458000Y-88508142D01*
X99529068Y-88641101D01*
X99529068Y-88641101D01*
G37*
X99529068Y-88641101D02*
X99708392Y-88859608D01*
X99926899Y-89038932D01*
X99973427Y-89063802D01*
X99978997Y-89120355D01*
X99981470Y-89128508D01*
X99982492Y-89136955D01*
X100003170Y-89200043D01*
X100022454Y-89263616D01*
X100026467Y-89271124D01*
X100029119Y-89279215D01*
X100061719Y-89337075D01*
X100093026Y-89395645D01*
X100098429Y-89402228D01*
X100102607Y-89409644D01*
X100145857Y-89460021D01*
X100187999Y-89511371D01*
X100223537Y-89540537D01*
X110185574Y-99069550D01*
X110203999Y-99092001D01*
X110239528Y-99121159D01*
X110245645Y-99127010D01*
X110268399Y-99144853D01*
X110319724Y-99186974D01*
X110327233Y-99190988D01*
X110333931Y-99196240D01*
X110393170Y-99226232D01*
X110451753Y-99257546D01*
X110459901Y-99260018D01*
X110467496Y-99263863D01*
X110531462Y-99281725D01*
X110595014Y-99301003D01*
X110603487Y-99301838D01*
X110611686Y-99304127D01*
X110677889Y-99309166D01*
X110706667Y-99312000D01*
X110715131Y-99312000D01*
X110760961Y-99315488D01*
X110789793Y-99312000D01*
X118303199Y-99312000D01*
X121139000Y-102147803D01*
X121139000Y-102209939D01*
X121165467Y-102343000D01*
X121056061Y-102343000D01*
X120856102Y-102382774D01*
X120667744Y-102460795D01*
X120498226Y-102574063D01*
X120354063Y-102718226D01*
X120240795Y-102887744D01*
X120162774Y-103076102D01*
X120123000Y-103276061D01*
X120123000Y-103479939D01*
X120162774Y-103679898D01*
X120240795Y-103868256D01*
X120354063Y-104037774D01*
X120498226Y-104181937D01*
X120555191Y-104220000D01*
X119368236Y-104220000D01*
X119471414Y-104143519D01*
X119660385Y-103935131D01*
X119805070Y-103693881D01*
X119899909Y-103429040D01*
X119778624Y-103207000D01*
X118635000Y-103207000D01*
X118635000Y-103227000D01*
X118381000Y-103227000D01*
X118381000Y-103207000D01*
X118361000Y-103207000D01*
X118361000Y-102953000D01*
X118381000Y-102953000D01*
X118381000Y-101810085D01*
X118635000Y-101810085D01*
X118635000Y-102953000D01*
X119778624Y-102953000D01*
X119899909Y-102730960D01*
X119805070Y-102466119D01*
X119660385Y-102224869D01*
X119471414Y-102016481D01*
X119245420Y-101848963D01*
X118991087Y-101728754D01*
X118857039Y-101688096D01*
X118635000Y-101810085D01*
X118381000Y-101810085D01*
X118158961Y-101688096D01*
X118024913Y-101728754D01*
X117770580Y-101848963D01*
X117544586Y-102016481D01*
X117355615Y-102224869D01*
X117240579Y-102416682D01*
X117166932Y-102278899D01*
X116987608Y-102060392D01*
X116769101Y-101881068D01*
X116519808Y-101747818D01*
X116249309Y-101665764D01*
X116038492Y-101645000D01*
X115897508Y-101645000D01*
X115686691Y-101665764D01*
X115416192Y-101747818D01*
X115166899Y-101881068D01*
X114948392Y-102060392D01*
X114769068Y-102278899D01*
X114698000Y-102411858D01*
X114626932Y-102278899D01*
X114447608Y-102060392D01*
X114229101Y-101881068D01*
X113979808Y-101747818D01*
X113709309Y-101665764D01*
X113498492Y-101645000D01*
X113357508Y-101645000D01*
X113146691Y-101665764D01*
X112876192Y-101747818D01*
X112626899Y-101881068D01*
X112408392Y-102060392D01*
X112229068Y-102278899D01*
X112158000Y-102411858D01*
X112086932Y-102278899D01*
X111907608Y-102060392D01*
X111689101Y-101881068D01*
X111439808Y-101747818D01*
X111169309Y-101665764D01*
X110958492Y-101645000D01*
X110817508Y-101645000D01*
X110606691Y-101665764D01*
X110336192Y-101747818D01*
X110086899Y-101881068D01*
X109868392Y-102060392D01*
X109689068Y-102278899D01*
X109618000Y-102411858D01*
X109546932Y-102278899D01*
X109367608Y-102060392D01*
X109149101Y-101881068D01*
X108899808Y-101747818D01*
X108629309Y-101665764D01*
X108418492Y-101645000D01*
X108277508Y-101645000D01*
X108066691Y-101665764D01*
X107796192Y-101747818D01*
X107546899Y-101881068D01*
X107328392Y-102060392D01*
X107149068Y-102278899D01*
X107078000Y-102411858D01*
X107006932Y-102278899D01*
X106827608Y-102060392D01*
X106609101Y-101881068D01*
X106359808Y-101747818D01*
X106089309Y-101665764D01*
X105878492Y-101645000D01*
X105737508Y-101645000D01*
X105526691Y-101665764D01*
X105256192Y-101747818D01*
X105006899Y-101881068D01*
X104788392Y-102060392D01*
X104609068Y-102278899D01*
X104538000Y-102411858D01*
X104466932Y-102278899D01*
X104287608Y-102060392D01*
X104069101Y-101881068D01*
X103819808Y-101747818D01*
X103549309Y-101665764D01*
X103338492Y-101645000D01*
X103197508Y-101645000D01*
X102986691Y-101665764D01*
X102716192Y-101747818D01*
X102466899Y-101881068D01*
X102248392Y-102060392D01*
X102069068Y-102278899D01*
X101998000Y-102411858D01*
X101926932Y-102278899D01*
X101747608Y-102060392D01*
X101529101Y-101881068D01*
X101279808Y-101747818D01*
X101009309Y-101665764D01*
X100798492Y-101645000D01*
X100657508Y-101645000D01*
X100446691Y-101665764D01*
X100176192Y-101747818D01*
X99926899Y-101881068D01*
X99708392Y-102060392D01*
X99529068Y-102278899D01*
X99458000Y-102411858D01*
X99386932Y-102278899D01*
X99207608Y-102060392D01*
X98989101Y-101881068D01*
X98739808Y-101747818D01*
X98469309Y-101665764D01*
X98258492Y-101645000D01*
X98117508Y-101645000D01*
X97906691Y-101665764D01*
X97636192Y-101747818D01*
X97386899Y-101881068D01*
X97168392Y-102060392D01*
X96989068Y-102278899D01*
X96918000Y-102411858D01*
X96846932Y-102278899D01*
X96667608Y-102060392D01*
X96449101Y-101881068D01*
X96199808Y-101747818D01*
X95929309Y-101665764D01*
X95718492Y-101645000D01*
X95577508Y-101645000D01*
X95366691Y-101665764D01*
X95096192Y-101747818D01*
X94846899Y-101881068D01*
X94716162Y-101988361D01*
X91530803Y-98803003D01*
X91507000Y-98773999D01*
X91391275Y-98679026D01*
X91259246Y-98608454D01*
X91115985Y-98564997D01*
X91004332Y-98554000D01*
X91004321Y-98554000D01*
X90966999Y-98550324D01*
X90929677Y-98554000D01*
X88841711Y-98554000D01*
X88797774Y-98510063D01*
X88674864Y-98427937D01*
X97862095Y-89240708D01*
X97906691Y-89254236D01*
X98117508Y-89275000D01*
X98258492Y-89275000D01*
X98469309Y-89254236D01*
X98739808Y-89172182D01*
X98989101Y-89038932D01*
X99207608Y-88859608D01*
X99386932Y-88641101D01*
X99458000Y-88508142D01*
X99529068Y-88641101D01*
G36*
X104609068Y-88641101D02*
G01*
X104788392Y-88859608D01*
X105006899Y-89038932D01*
X105256192Y-89172182D01*
X105526691Y-89254236D01*
X105737508Y-89275000D01*
X105878492Y-89275000D01*
X106089309Y-89254236D01*
X106133907Y-89240708D01*
X113784201Y-96891003D01*
X113807999Y-96920001D01*
X113923724Y-97014974D01*
X114055753Y-97085546D01*
X114199014Y-97129003D01*
X114310667Y-97140000D01*
X114310677Y-97140000D01*
X114348000Y-97143676D01*
X114385323Y-97140000D01*
X130767099Y-97140000D01*
X130789068Y-97181101D01*
X130968392Y-97399608D01*
X131186899Y-97578932D01*
X131324682Y-97652579D01*
X131132869Y-97767615D01*
X130924481Y-97956586D01*
X130756963Y-98182580D01*
X130636754Y-98436913D01*
X130596096Y-98570961D01*
X130718085Y-98793000D01*
X131861000Y-98793000D01*
X131861000Y-98773000D01*
X132115000Y-98773000D01*
X132115000Y-98793000D01*
X133257915Y-98793000D01*
X133379904Y-98570961D01*
X133339246Y-98436913D01*
X133219037Y-98182580D01*
X133051519Y-97956586D01*
X132843131Y-97767615D01*
X132651318Y-97652579D01*
X132789101Y-97578932D01*
X133007608Y-97399608D01*
X133186932Y-97181101D01*
X133320182Y-96931808D01*
X133402236Y-96661309D01*
X133429943Y-96380000D01*
X133402236Y-96098691D01*
X133320182Y-95828192D01*
X133186932Y-95578899D01*
X133007608Y-95360392D01*
X132789101Y-95181068D01*
X132656142Y-95110000D01*
X132789101Y-95038932D01*
X133007608Y-94859608D01*
X133186932Y-94641101D01*
X133320182Y-94391808D01*
X133402236Y-94121309D01*
X133429943Y-93840000D01*
X133427402Y-93814204D01*
X133860001Y-94246803D01*
X133860000Y-94800289D01*
X133816063Y-94844226D01*
X133702795Y-95013744D01*
X133624774Y-95202102D01*
X133585000Y-95402061D01*
X133585000Y-95605939D01*
X133624774Y-95805898D01*
X133702795Y-95994256D01*
X133816063Y-96163774D01*
X133960226Y-96307937D01*
X134129744Y-96421205D01*
X134318102Y-96499226D01*
X134518061Y-96539000D01*
X134721939Y-96539000D01*
X134921898Y-96499226D01*
X135110256Y-96421205D01*
X135130001Y-96408012D01*
X135130001Y-98491197D01*
X131315003Y-102306196D01*
X131314997Y-102306201D01*
X131278198Y-102343000D01*
X131216061Y-102343000D01*
X131016102Y-102382774D01*
X130827744Y-102460795D01*
X130658226Y-102574063D01*
X130614289Y-102618000D01*
X123078013Y-102618000D01*
X123091205Y-102598256D01*
X123169226Y-102409898D01*
X123209000Y-102209939D01*
X123209000Y-102006061D01*
X123169226Y-101806102D01*
X123091205Y-101617744D01*
X122977937Y-101448226D01*
X122833774Y-101304063D01*
X122664256Y-101190795D01*
X122475898Y-101112774D01*
X122275939Y-101073000D01*
X122213803Y-101073000D01*
X120409841Y-99269039D01*
X130596096Y-99269039D01*
X130636754Y-99403087D01*
X130756963Y-99657420D01*
X130924481Y-99883414D01*
X131132869Y-100072385D01*
X131374119Y-100217070D01*
X131638960Y-100311909D01*
X131861000Y-100190624D01*
X131861000Y-99047000D01*
X132115000Y-99047000D01*
X132115000Y-100190624D01*
X132337040Y-100311909D01*
X132601881Y-100217070D01*
X132843131Y-100072385D01*
X133051519Y-99883414D01*
X133219037Y-99657420D01*
X133339246Y-99403087D01*
X133379904Y-99269039D01*
X133257915Y-99047000D01*
X132115000Y-99047000D01*
X131861000Y-99047000D01*
X130718085Y-99047000D01*
X130596096Y-99269039D01*
X120409841Y-99269039D01*
X119181804Y-98041003D01*
X119158001Y-98011999D01*
X119042276Y-97917026D01*
X118910247Y-97846454D01*
X118766986Y-97802997D01*
X118655333Y-97792000D01*
X118655322Y-97792000D01*
X118618000Y-97788324D01*
X118580678Y-97792000D01*
X111048958Y-97792000D01*
X101727718Y-88875931D01*
X101747608Y-88859608D01*
X101926932Y-88641101D01*
X101998000Y-88508142D01*
X102069068Y-88641101D01*
X102248392Y-88859608D01*
X102466899Y-89038932D01*
X102716192Y-89172182D01*
X102986691Y-89254236D01*
X103197508Y-89275000D01*
X103338492Y-89275000D01*
X103549309Y-89254236D01*
X103819808Y-89172182D01*
X104069101Y-89038932D01*
X104287608Y-88859608D01*
X104466932Y-88641101D01*
X104538000Y-88508142D01*
X104609068Y-88641101D01*
X104609068Y-88641101D01*
G37*
X104609068Y-88641101D02*
X104788392Y-88859608D01*
X105006899Y-89038932D01*
X105256192Y-89172182D01*
X105526691Y-89254236D01*
X105737508Y-89275000D01*
X105878492Y-89275000D01*
X106089309Y-89254236D01*
X106133907Y-89240708D01*
X113784201Y-96891003D01*
X113807999Y-96920001D01*
X113923724Y-97014974D01*
X114055753Y-97085546D01*
X114199014Y-97129003D01*
X114310667Y-97140000D01*
X114310677Y-97140000D01*
X114348000Y-97143676D01*
X114385323Y-97140000D01*
X130767099Y-97140000D01*
X130789068Y-97181101D01*
X130968392Y-97399608D01*
X131186899Y-97578932D01*
X131324682Y-97652579D01*
X131132869Y-97767615D01*
X130924481Y-97956586D01*
X130756963Y-98182580D01*
X130636754Y-98436913D01*
X130596096Y-98570961D01*
X130718085Y-98793000D01*
X131861000Y-98793000D01*
X131861000Y-98773000D01*
X132115000Y-98773000D01*
X132115000Y-98793000D01*
X133257915Y-98793000D01*
X133379904Y-98570961D01*
X133339246Y-98436913D01*
X133219037Y-98182580D01*
X133051519Y-97956586D01*
X132843131Y-97767615D01*
X132651318Y-97652579D01*
X132789101Y-97578932D01*
X133007608Y-97399608D01*
X133186932Y-97181101D01*
X133320182Y-96931808D01*
X133402236Y-96661309D01*
X133429943Y-96380000D01*
X133402236Y-96098691D01*
X133320182Y-95828192D01*
X133186932Y-95578899D01*
X133007608Y-95360392D01*
X132789101Y-95181068D01*
X132656142Y-95110000D01*
X132789101Y-95038932D01*
X133007608Y-94859608D01*
X133186932Y-94641101D01*
X133320182Y-94391808D01*
X133402236Y-94121309D01*
X133429943Y-93840000D01*
X133427402Y-93814204D01*
X133860001Y-94246803D01*
X133860000Y-94800289D01*
X133816063Y-94844226D01*
X133702795Y-95013744D01*
X133624774Y-95202102D01*
X133585000Y-95402061D01*
X133585000Y-95605939D01*
X133624774Y-95805898D01*
X133702795Y-95994256D01*
X133816063Y-96163774D01*
X133960226Y-96307937D01*
X134129744Y-96421205D01*
X134318102Y-96499226D01*
X134518061Y-96539000D01*
X134721939Y-96539000D01*
X134921898Y-96499226D01*
X135110256Y-96421205D01*
X135130001Y-96408012D01*
X135130001Y-98491197D01*
X131315003Y-102306196D01*
X131314997Y-102306201D01*
X131278198Y-102343000D01*
X131216061Y-102343000D01*
X131016102Y-102382774D01*
X130827744Y-102460795D01*
X130658226Y-102574063D01*
X130614289Y-102618000D01*
X123078013Y-102618000D01*
X123091205Y-102598256D01*
X123169226Y-102409898D01*
X123209000Y-102209939D01*
X123209000Y-102006061D01*
X123169226Y-101806102D01*
X123091205Y-101617744D01*
X122977937Y-101448226D01*
X122833774Y-101304063D01*
X122664256Y-101190795D01*
X122475898Y-101112774D01*
X122275939Y-101073000D01*
X122213803Y-101073000D01*
X120409841Y-99269039D01*
X130596096Y-99269039D01*
X130636754Y-99403087D01*
X130756963Y-99657420D01*
X130924481Y-99883414D01*
X131132869Y-100072385D01*
X131374119Y-100217070D01*
X131638960Y-100311909D01*
X131861000Y-100190624D01*
X131861000Y-99047000D01*
X132115000Y-99047000D01*
X132115000Y-100190624D01*
X132337040Y-100311909D01*
X132601881Y-100217070D01*
X132843131Y-100072385D01*
X133051519Y-99883414D01*
X133219037Y-99657420D01*
X133339246Y-99403087D01*
X133379904Y-99269039D01*
X133257915Y-99047000D01*
X132115000Y-99047000D01*
X131861000Y-99047000D01*
X130718085Y-99047000D01*
X130596096Y-99269039D01*
X120409841Y-99269039D01*
X119181804Y-98041003D01*
X119158001Y-98011999D01*
X119042276Y-97917026D01*
X118910247Y-97846454D01*
X118766986Y-97802997D01*
X118655333Y-97792000D01*
X118655322Y-97792000D01*
X118618000Y-97788324D01*
X118580678Y-97792000D01*
X111048958Y-97792000D01*
X101727718Y-88875931D01*
X101747608Y-88859608D01*
X101926932Y-88641101D01*
X101998000Y-88508142D01*
X102069068Y-88641101D01*
X102248392Y-88859608D01*
X102466899Y-89038932D01*
X102716192Y-89172182D01*
X102986691Y-89254236D01*
X103197508Y-89275000D01*
X103338492Y-89275000D01*
X103549309Y-89254236D01*
X103819808Y-89172182D01*
X104069101Y-89038932D01*
X104287608Y-88859608D01*
X104466932Y-88641101D01*
X104538000Y-88508142D01*
X104609068Y-88641101D01*
G36*
X110706691Y-64554236D02*
G01*
X110917508Y-64575000D01*
X111058492Y-64575000D01*
X111269309Y-64554236D01*
X111313906Y-64540708D01*
X113664200Y-66891002D01*
X113687999Y-66920001D01*
X113716997Y-66943799D01*
X113803723Y-67014974D01*
X113935753Y-67085546D01*
X114079014Y-67129003D01*
X114190667Y-67140000D01*
X114190677Y-67140000D01*
X114228000Y-67143676D01*
X114265323Y-67140000D01*
X117173199Y-67140000D01*
X121528000Y-71494802D01*
X121528001Y-79765197D01*
X116873199Y-84420000D01*
X113585322Y-84420000D01*
X113547999Y-84416324D01*
X113510676Y-84420000D01*
X113510667Y-84420000D01*
X113399014Y-84430997D01*
X113273723Y-84469003D01*
X113255753Y-84474454D01*
X113123723Y-84545026D01*
X113040083Y-84613668D01*
X113007999Y-84639999D01*
X112984201Y-84668997D01*
X111213906Y-86439292D01*
X111169309Y-86425764D01*
X110958492Y-86405000D01*
X110817508Y-86405000D01*
X110616850Y-86424763D01*
X110622999Y-86362334D01*
X110622999Y-86362326D01*
X110626675Y-86325001D01*
X110622999Y-86287676D01*
X110622999Y-79768849D01*
X110706691Y-79794236D01*
X110917508Y-79815000D01*
X111058492Y-79815000D01*
X111269309Y-79794236D01*
X111539808Y-79712182D01*
X111789101Y-79578932D01*
X112007608Y-79399608D01*
X112186932Y-79181101D01*
X112258000Y-79048142D01*
X112329068Y-79181101D01*
X112508392Y-79399608D01*
X112726899Y-79578932D01*
X112976192Y-79712182D01*
X113246691Y-79794236D01*
X113457508Y-79815000D01*
X113598492Y-79815000D01*
X113809309Y-79794236D01*
X114079808Y-79712182D01*
X114329101Y-79578932D01*
X114547608Y-79399608D01*
X114726932Y-79181101D01*
X114798000Y-79048142D01*
X114869068Y-79181101D01*
X115048392Y-79399608D01*
X115266899Y-79578932D01*
X115516192Y-79712182D01*
X115786691Y-79794236D01*
X115997508Y-79815000D01*
X116138492Y-79815000D01*
X116349309Y-79794236D01*
X116619808Y-79712182D01*
X116869101Y-79578932D01*
X117087608Y-79399608D01*
X117266932Y-79181101D01*
X117340579Y-79043318D01*
X117455615Y-79235131D01*
X117644586Y-79443519D01*
X117870580Y-79611037D01*
X118124913Y-79731246D01*
X118258961Y-79771904D01*
X118481000Y-79649915D01*
X118481000Y-78507000D01*
X118735000Y-78507000D01*
X118735000Y-79649915D01*
X118957039Y-79771904D01*
X119091087Y-79731246D01*
X119345420Y-79611037D01*
X119571414Y-79443519D01*
X119760385Y-79235131D01*
X119905070Y-78993881D01*
X119999909Y-78729040D01*
X119878624Y-78507000D01*
X118735000Y-78507000D01*
X118481000Y-78507000D01*
X118461000Y-78507000D01*
X118461000Y-78253000D01*
X118481000Y-78253000D01*
X118481000Y-77110085D01*
X118735000Y-77110085D01*
X118735000Y-78253000D01*
X119878624Y-78253000D01*
X119999909Y-78030960D01*
X119905070Y-77766119D01*
X119760385Y-77524869D01*
X119571414Y-77316481D01*
X119345420Y-77148963D01*
X119091087Y-77028754D01*
X118957039Y-76988096D01*
X118735000Y-77110085D01*
X118481000Y-77110085D01*
X118258961Y-76988096D01*
X118124913Y-77028754D01*
X117870580Y-77148963D01*
X117644586Y-77316481D01*
X117455615Y-77524869D01*
X117340579Y-77716682D01*
X117266932Y-77578899D01*
X117087608Y-77360392D01*
X116869101Y-77181068D01*
X116619808Y-77047818D01*
X116349309Y-76965764D01*
X116138492Y-76945000D01*
X115997508Y-76945000D01*
X115786691Y-76965764D01*
X115516192Y-77047818D01*
X115266899Y-77181068D01*
X115048392Y-77360392D01*
X114869068Y-77578899D01*
X114798000Y-77711858D01*
X114726932Y-77578899D01*
X114547608Y-77360392D01*
X114329101Y-77181068D01*
X114079808Y-77047818D01*
X113809309Y-76965764D01*
X113598492Y-76945000D01*
X113457508Y-76945000D01*
X113246691Y-76965764D01*
X112976192Y-77047818D01*
X112726899Y-77181068D01*
X112508392Y-77360392D01*
X112329068Y-77578899D01*
X112258000Y-77711858D01*
X112186932Y-77578899D01*
X112007608Y-77360392D01*
X111789101Y-77181068D01*
X111539808Y-77047818D01*
X111269309Y-76965764D01*
X111058492Y-76945000D01*
X110917508Y-76945000D01*
X110706691Y-76965764D01*
X110622999Y-76991151D01*
X110622999Y-64592324D01*
X110626675Y-64554999D01*
X110624133Y-64529193D01*
X110706691Y-64554236D01*
X110706691Y-64554236D01*
G37*
X110706691Y-64554236D02*
X110917508Y-64575000D01*
X111058492Y-64575000D01*
X111269309Y-64554236D01*
X111313906Y-64540708D01*
X113664200Y-66891002D01*
X113687999Y-66920001D01*
X113716997Y-66943799D01*
X113803723Y-67014974D01*
X113935753Y-67085546D01*
X114079014Y-67129003D01*
X114190667Y-67140000D01*
X114190677Y-67140000D01*
X114228000Y-67143676D01*
X114265323Y-67140000D01*
X117173199Y-67140000D01*
X121528000Y-71494802D01*
X121528001Y-79765197D01*
X116873199Y-84420000D01*
X113585322Y-84420000D01*
X113547999Y-84416324D01*
X113510676Y-84420000D01*
X113510667Y-84420000D01*
X113399014Y-84430997D01*
X113273723Y-84469003D01*
X113255753Y-84474454D01*
X113123723Y-84545026D01*
X113040083Y-84613668D01*
X113007999Y-84639999D01*
X112984201Y-84668997D01*
X111213906Y-86439292D01*
X111169309Y-86425764D01*
X110958492Y-86405000D01*
X110817508Y-86405000D01*
X110616850Y-86424763D01*
X110622999Y-86362334D01*
X110622999Y-86362326D01*
X110626675Y-86325001D01*
X110622999Y-86287676D01*
X110622999Y-79768849D01*
X110706691Y-79794236D01*
X110917508Y-79815000D01*
X111058492Y-79815000D01*
X111269309Y-79794236D01*
X111539808Y-79712182D01*
X111789101Y-79578932D01*
X112007608Y-79399608D01*
X112186932Y-79181101D01*
X112258000Y-79048142D01*
X112329068Y-79181101D01*
X112508392Y-79399608D01*
X112726899Y-79578932D01*
X112976192Y-79712182D01*
X113246691Y-79794236D01*
X113457508Y-79815000D01*
X113598492Y-79815000D01*
X113809309Y-79794236D01*
X114079808Y-79712182D01*
X114329101Y-79578932D01*
X114547608Y-79399608D01*
X114726932Y-79181101D01*
X114798000Y-79048142D01*
X114869068Y-79181101D01*
X115048392Y-79399608D01*
X115266899Y-79578932D01*
X115516192Y-79712182D01*
X115786691Y-79794236D01*
X115997508Y-79815000D01*
X116138492Y-79815000D01*
X116349309Y-79794236D01*
X116619808Y-79712182D01*
X116869101Y-79578932D01*
X117087608Y-79399608D01*
X117266932Y-79181101D01*
X117340579Y-79043318D01*
X117455615Y-79235131D01*
X117644586Y-79443519D01*
X117870580Y-79611037D01*
X118124913Y-79731246D01*
X118258961Y-79771904D01*
X118481000Y-79649915D01*
X118481000Y-78507000D01*
X118735000Y-78507000D01*
X118735000Y-79649915D01*
X118957039Y-79771904D01*
X119091087Y-79731246D01*
X119345420Y-79611037D01*
X119571414Y-79443519D01*
X119760385Y-79235131D01*
X119905070Y-78993881D01*
X119999909Y-78729040D01*
X119878624Y-78507000D01*
X118735000Y-78507000D01*
X118481000Y-78507000D01*
X118461000Y-78507000D01*
X118461000Y-78253000D01*
X118481000Y-78253000D01*
X118481000Y-77110085D01*
X118735000Y-77110085D01*
X118735000Y-78253000D01*
X119878624Y-78253000D01*
X119999909Y-78030960D01*
X119905070Y-77766119D01*
X119760385Y-77524869D01*
X119571414Y-77316481D01*
X119345420Y-77148963D01*
X119091087Y-77028754D01*
X118957039Y-76988096D01*
X118735000Y-77110085D01*
X118481000Y-77110085D01*
X118258961Y-76988096D01*
X118124913Y-77028754D01*
X117870580Y-77148963D01*
X117644586Y-77316481D01*
X117455615Y-77524869D01*
X117340579Y-77716682D01*
X117266932Y-77578899D01*
X117087608Y-77360392D01*
X116869101Y-77181068D01*
X116619808Y-77047818D01*
X116349309Y-76965764D01*
X116138492Y-76945000D01*
X115997508Y-76945000D01*
X115786691Y-76965764D01*
X115516192Y-77047818D01*
X115266899Y-77181068D01*
X115048392Y-77360392D01*
X114869068Y-77578899D01*
X114798000Y-77711858D01*
X114726932Y-77578899D01*
X114547608Y-77360392D01*
X114329101Y-77181068D01*
X114079808Y-77047818D01*
X113809309Y-76965764D01*
X113598492Y-76945000D01*
X113457508Y-76945000D01*
X113246691Y-76965764D01*
X112976192Y-77047818D01*
X112726899Y-77181068D01*
X112508392Y-77360392D01*
X112329068Y-77578899D01*
X112258000Y-77711858D01*
X112186932Y-77578899D01*
X112007608Y-77360392D01*
X111789101Y-77181068D01*
X111539808Y-77047818D01*
X111269309Y-76965764D01*
X111058492Y-76945000D01*
X110917508Y-76945000D01*
X110706691Y-76965764D01*
X110622999Y-76991151D01*
X110622999Y-64592324D01*
X110626675Y-64554999D01*
X110624133Y-64529193D01*
X110706691Y-64554236D01*
M02*
