G04 #@! TF.GenerationSoftware,KiCad,Pcbnew,5.1.4*
G04 #@! TF.CreationDate,2019-09-28T19:58:15+01:00*
G04 #@! TF.ProjectId,z802-4,7a383032-2d34-42e6-9b69-6361645f7063,rev?*
G04 #@! TF.SameCoordinates,Original*
G04 #@! TF.FileFunction,Legend,Top*
G04 #@! TF.FilePolarity,Positive*
%FSLAX46Y46*%
G04 Gerber Fmt 4.6, Leading zero omitted, Abs format (unit mm)*
G04 Created by KiCad (PCBNEW 5.1.4) date 2019-09-28 19:58:15*
%MOMM*%
%LPD*%
G04 APERTURE LIST*
%ADD10C,0.150000*%
%ADD11C,0.120000*%
G04 APERTURE END LIST*
D10*
X85376190Y-134743761D02*
X86709523Y-134743761D01*
X85376190Y-136743761D01*
X86709523Y-136743761D01*
X87757142Y-135600904D02*
X87566666Y-135505666D01*
X87471428Y-135410428D01*
X87376190Y-135219952D01*
X87376190Y-135124714D01*
X87471428Y-134934238D01*
X87566666Y-134839000D01*
X87757142Y-134743761D01*
X88138095Y-134743761D01*
X88328571Y-134839000D01*
X88423809Y-134934238D01*
X88519047Y-135124714D01*
X88519047Y-135219952D01*
X88423809Y-135410428D01*
X88328571Y-135505666D01*
X88138095Y-135600904D01*
X87757142Y-135600904D01*
X87566666Y-135696142D01*
X87471428Y-135791380D01*
X87376190Y-135981857D01*
X87376190Y-136362809D01*
X87471428Y-136553285D01*
X87566666Y-136648523D01*
X87757142Y-136743761D01*
X88138095Y-136743761D01*
X88328571Y-136648523D01*
X88423809Y-136553285D01*
X88519047Y-136362809D01*
X88519047Y-135981857D01*
X88423809Y-135791380D01*
X88328571Y-135696142D01*
X88138095Y-135600904D01*
X89757142Y-134743761D02*
X89947619Y-134743761D01*
X90138095Y-134839000D01*
X90233333Y-134934238D01*
X90328571Y-135124714D01*
X90423809Y-135505666D01*
X90423809Y-135981857D01*
X90328571Y-136362809D01*
X90233333Y-136553285D01*
X90138095Y-136648523D01*
X89947619Y-136743761D01*
X89757142Y-136743761D01*
X89566666Y-136648523D01*
X89471428Y-136553285D01*
X89376190Y-136362809D01*
X89280952Y-135981857D01*
X89280952Y-135505666D01*
X89376190Y-135124714D01*
X89471428Y-134934238D01*
X89566666Y-134839000D01*
X89757142Y-134743761D01*
X91185714Y-134934238D02*
X91280952Y-134839000D01*
X91471428Y-134743761D01*
X91947619Y-134743761D01*
X92138095Y-134839000D01*
X92233333Y-134934238D01*
X92328571Y-135124714D01*
X92328571Y-135315190D01*
X92233333Y-135600904D01*
X91090476Y-136743761D01*
X92328571Y-136743761D01*
X73233333Y-137893761D02*
X74566666Y-137893761D01*
X73233333Y-139893761D01*
X74566666Y-139893761D01*
X75614285Y-138750904D02*
X75423809Y-138655666D01*
X75328571Y-138560428D01*
X75233333Y-138369952D01*
X75233333Y-138274714D01*
X75328571Y-138084238D01*
X75423809Y-137989000D01*
X75614285Y-137893761D01*
X75995238Y-137893761D01*
X76185714Y-137989000D01*
X76280952Y-138084238D01*
X76376190Y-138274714D01*
X76376190Y-138369952D01*
X76280952Y-138560428D01*
X76185714Y-138655666D01*
X75995238Y-138750904D01*
X75614285Y-138750904D01*
X75423809Y-138846142D01*
X75328571Y-138941380D01*
X75233333Y-139131857D01*
X75233333Y-139512809D01*
X75328571Y-139703285D01*
X75423809Y-139798523D01*
X75614285Y-139893761D01*
X75995238Y-139893761D01*
X76185714Y-139798523D01*
X76280952Y-139703285D01*
X76376190Y-139512809D01*
X76376190Y-139131857D01*
X76280952Y-138941380D01*
X76185714Y-138846142D01*
X75995238Y-138750904D01*
X77614285Y-137893761D02*
X77804761Y-137893761D01*
X77995238Y-137989000D01*
X78090476Y-138084238D01*
X78185714Y-138274714D01*
X78280952Y-138655666D01*
X78280952Y-139131857D01*
X78185714Y-139512809D01*
X78090476Y-139703285D01*
X77995238Y-139798523D01*
X77804761Y-139893761D01*
X77614285Y-139893761D01*
X77423809Y-139798523D01*
X77328571Y-139703285D01*
X77233333Y-139512809D01*
X77138095Y-139131857D01*
X77138095Y-138655666D01*
X77233333Y-138274714D01*
X77328571Y-138084238D01*
X77423809Y-137989000D01*
X77614285Y-137893761D01*
X81328571Y-138846142D02*
X81614285Y-138941380D01*
X81709523Y-139036619D01*
X81804761Y-139227095D01*
X81804761Y-139512809D01*
X81709523Y-139703285D01*
X81614285Y-139798523D01*
X81423809Y-139893761D01*
X80661904Y-139893761D01*
X80661904Y-137893761D01*
X81328571Y-137893761D01*
X81519047Y-137989000D01*
X81614285Y-138084238D01*
X81709523Y-138274714D01*
X81709523Y-138465190D01*
X81614285Y-138655666D01*
X81519047Y-138750904D01*
X81328571Y-138846142D01*
X80661904Y-138846142D01*
X83519047Y-139893761D02*
X83519047Y-138846142D01*
X83423809Y-138655666D01*
X83233333Y-138560428D01*
X82852380Y-138560428D01*
X82661904Y-138655666D01*
X83519047Y-139798523D02*
X83328571Y-139893761D01*
X82852380Y-139893761D01*
X82661904Y-139798523D01*
X82566666Y-139608047D01*
X82566666Y-139417571D01*
X82661904Y-139227095D01*
X82852380Y-139131857D01*
X83328571Y-139131857D01*
X83519047Y-139036619D01*
X84376190Y-139798523D02*
X84566666Y-139893761D01*
X84947619Y-139893761D01*
X85138095Y-139798523D01*
X85233333Y-139608047D01*
X85233333Y-139512809D01*
X85138095Y-139322333D01*
X84947619Y-139227095D01*
X84661904Y-139227095D01*
X84471428Y-139131857D01*
X84376190Y-138941380D01*
X84376190Y-138846142D01*
X84471428Y-138655666D01*
X84661904Y-138560428D01*
X84947619Y-138560428D01*
X85138095Y-138655666D01*
X86852380Y-139798523D02*
X86661904Y-139893761D01*
X86280952Y-139893761D01*
X86090476Y-139798523D01*
X85995238Y-139608047D01*
X85995238Y-138846142D01*
X86090476Y-138655666D01*
X86280952Y-138560428D01*
X86661904Y-138560428D01*
X86852380Y-138655666D01*
X86947619Y-138846142D01*
X86947619Y-139036619D01*
X85995238Y-139227095D01*
X88661904Y-139893761D02*
X88661904Y-137893761D01*
X88661904Y-139798523D02*
X88471428Y-139893761D01*
X88090476Y-139893761D01*
X87900000Y-139798523D01*
X87804761Y-139703285D01*
X87709523Y-139512809D01*
X87709523Y-138941380D01*
X87804761Y-138750904D01*
X87900000Y-138655666D01*
X88090476Y-138560428D01*
X88471428Y-138560428D01*
X88661904Y-138655666D01*
X92280952Y-139703285D02*
X92185714Y-139798523D01*
X91900000Y-139893761D01*
X91709523Y-139893761D01*
X91423809Y-139798523D01*
X91233333Y-139608047D01*
X91138095Y-139417571D01*
X91042857Y-139036619D01*
X91042857Y-138750904D01*
X91138095Y-138369952D01*
X91233333Y-138179476D01*
X91423809Y-137989000D01*
X91709523Y-137893761D01*
X91900000Y-137893761D01*
X92185714Y-137989000D01*
X92280952Y-138084238D01*
X93423809Y-139893761D02*
X93233333Y-139798523D01*
X93138095Y-139703285D01*
X93042857Y-139512809D01*
X93042857Y-138941380D01*
X93138095Y-138750904D01*
X93233333Y-138655666D01*
X93423809Y-138560428D01*
X93709523Y-138560428D01*
X93900000Y-138655666D01*
X93995238Y-138750904D01*
X94090476Y-138941380D01*
X94090476Y-139512809D01*
X93995238Y-139703285D01*
X93900000Y-139798523D01*
X93709523Y-139893761D01*
X93423809Y-139893761D01*
X94947619Y-139893761D02*
X94947619Y-138560428D01*
X94947619Y-138750904D02*
X95042857Y-138655666D01*
X95233333Y-138560428D01*
X95519047Y-138560428D01*
X95709523Y-138655666D01*
X95804761Y-138846142D01*
X95804761Y-139893761D01*
X95804761Y-138846142D02*
X95900000Y-138655666D01*
X96090476Y-138560428D01*
X96376190Y-138560428D01*
X96566666Y-138655666D01*
X96661904Y-138846142D01*
X96661904Y-139893761D01*
X97614285Y-138560428D02*
X97614285Y-140560428D01*
X97614285Y-138655666D02*
X97804761Y-138560428D01*
X98185714Y-138560428D01*
X98376190Y-138655666D01*
X98471428Y-138750904D01*
X98566666Y-138941380D01*
X98566666Y-139512809D01*
X98471428Y-139703285D01*
X98376190Y-139798523D01*
X98185714Y-139893761D01*
X97804761Y-139893761D01*
X97614285Y-139798523D01*
X100280952Y-138560428D02*
X100280952Y-139893761D01*
X99423809Y-138560428D02*
X99423809Y-139608047D01*
X99519047Y-139798523D01*
X99709523Y-139893761D01*
X99995238Y-139893761D01*
X100185714Y-139798523D01*
X100280952Y-139703285D01*
X100947619Y-138560428D02*
X101709523Y-138560428D01*
X101233333Y-137893761D02*
X101233333Y-139608047D01*
X101328571Y-139798523D01*
X101519047Y-139893761D01*
X101709523Y-139893761D01*
X103138095Y-139798523D02*
X102947619Y-139893761D01*
X102566666Y-139893761D01*
X102376190Y-139798523D01*
X102280952Y-139608047D01*
X102280952Y-138846142D01*
X102376190Y-138655666D01*
X102566666Y-138560428D01*
X102947619Y-138560428D01*
X103138095Y-138655666D01*
X103233333Y-138846142D01*
X103233333Y-139036619D01*
X102280952Y-139227095D01*
X104090476Y-139893761D02*
X104090476Y-138560428D01*
X104090476Y-138941380D02*
X104185714Y-138750904D01*
X104280952Y-138655666D01*
X104471428Y-138560428D01*
X104661904Y-138560428D01*
D11*
X78090335Y-144463392D02*
G75*
G03X74858000Y-144306484I-1672335J-1078608D01*
G01*
X78090335Y-146620608D02*
G75*
G02X74858000Y-146777516I-1672335J1078608D01*
G01*
X77459130Y-144462163D02*
G75*
G03X75377039Y-144462000I-1041130J-1079837D01*
G01*
X77459130Y-146621837D02*
G75*
G02X75377039Y-146622000I-1041130J1079837D01*
G01*
X74858000Y-144306000D02*
X74858000Y-144462000D01*
X74858000Y-146622000D02*
X74858000Y-146778000D01*
X133098000Y-165710000D02*
X133098000Y-163050000D01*
X127958000Y-165710000D02*
X133098000Y-165710000D01*
X127958000Y-163050000D02*
X133098000Y-163050000D01*
X127958000Y-165710000D02*
X127958000Y-163050000D01*
X126688000Y-165710000D02*
X125358000Y-165710000D01*
X125358000Y-165710000D02*
X125358000Y-164380000D01*
X137358000Y-166450000D02*
X140018000Y-166450000D01*
X137358000Y-148610000D02*
X137358000Y-166450000D01*
X140018000Y-148610000D02*
X140018000Y-166450000D01*
X137358000Y-148610000D02*
X140018000Y-148610000D01*
X137358000Y-147340000D02*
X137358000Y-146010000D01*
X137358000Y-146010000D02*
X138688000Y-146010000D01*
X137258000Y-144410000D02*
X139918000Y-144410000D01*
X137258000Y-106250000D02*
X137258000Y-144410000D01*
X139918000Y-106250000D02*
X139918000Y-144410000D01*
X137258000Y-106250000D02*
X139918000Y-106250000D01*
X137258000Y-104980000D02*
X137258000Y-103650000D01*
X137258000Y-103650000D02*
X138588000Y-103650000D01*
X121858000Y-165610000D02*
X121858000Y-162950000D01*
X119258000Y-165610000D02*
X121858000Y-165610000D01*
X119258000Y-162950000D02*
X121858000Y-162950000D01*
X119258000Y-165610000D02*
X119258000Y-162950000D01*
X117988000Y-165610000D02*
X116658000Y-165610000D01*
X116658000Y-165610000D02*
X116658000Y-164280000D01*
X121948000Y-112820000D02*
X121948000Y-113150000D01*
X121948000Y-113150000D02*
X115408000Y-113150000D01*
X115408000Y-113150000D02*
X115408000Y-112820000D01*
X121948000Y-110740000D02*
X121948000Y-110410000D01*
X121948000Y-110410000D02*
X115408000Y-110410000D01*
X115408000Y-110410000D02*
X115408000Y-110740000D01*
X112358000Y-145800000D02*
X112028000Y-145800000D01*
X112358000Y-152340000D02*
X112358000Y-145800000D01*
X112028000Y-152340000D02*
X112358000Y-152340000D01*
X109618000Y-145800000D02*
X109948000Y-145800000D01*
X109618000Y-152340000D02*
X109618000Y-145800000D01*
X109948000Y-152340000D02*
X109618000Y-152340000D01*
X114148000Y-152440000D02*
X113818000Y-152440000D01*
X113818000Y-152440000D02*
X113818000Y-145900000D01*
X113818000Y-145900000D02*
X114148000Y-145900000D01*
X116228000Y-152440000D02*
X116558000Y-152440000D01*
X116558000Y-152440000D02*
X116558000Y-145900000D01*
X116558000Y-145900000D02*
X116228000Y-145900000D01*
X131218000Y-117824000D02*
X131548000Y-117824000D01*
X131218000Y-111284000D02*
X131218000Y-117824000D01*
X131548000Y-111284000D02*
X131218000Y-111284000D01*
X133958000Y-117824000D02*
X133628000Y-117824000D01*
X133958000Y-111284000D02*
X133958000Y-117824000D01*
X133628000Y-111284000D02*
X133958000Y-111284000D01*
X91628000Y-158340000D02*
X91628000Y-158010000D01*
X91628000Y-158010000D02*
X98168000Y-158010000D01*
X98168000Y-158010000D02*
X98168000Y-158340000D01*
X91628000Y-160420000D02*
X91628000Y-160750000D01*
X91628000Y-160750000D02*
X98168000Y-160750000D01*
X98168000Y-160750000D02*
X98168000Y-160420000D01*
X103588000Y-164980000D02*
X108088000Y-164980000D01*
X102338000Y-160980000D02*
X102338000Y-162480000D01*
X108088000Y-158480000D02*
X103588000Y-158480000D01*
X109338000Y-162480000D02*
X109338000Y-160980000D01*
X84158000Y-94460000D02*
G75*
G02X84158000Y-96460000I0J-1000000D01*
G01*
X84158000Y-96460000D02*
X84158000Y-101920000D01*
X84158000Y-101920000D02*
X119838000Y-101920000D01*
X119838000Y-101920000D02*
X119838000Y-89000000D01*
X119838000Y-89000000D02*
X84158000Y-89000000D01*
X84158000Y-89000000D02*
X84158000Y-94460000D01*
X72558000Y-122360000D02*
G75*
G02X72558000Y-124360000I0J-1000000D01*
G01*
X72558000Y-124360000D02*
X72558000Y-129820000D01*
X72558000Y-129820000D02*
X123478000Y-129820000D01*
X123478000Y-129820000D02*
X123478000Y-116900000D01*
X123478000Y-116900000D02*
X72558000Y-116900000D01*
X72558000Y-116900000D02*
X72558000Y-122360000D01*
X136798000Y-82350000D02*
G75*
G02X134798000Y-82350000I-1000000J0D01*
G01*
X134798000Y-82350000D02*
X133148000Y-82350000D01*
X133148000Y-82350000D02*
X133148000Y-100250000D01*
X133148000Y-100250000D02*
X138448000Y-100250000D01*
X138448000Y-100250000D02*
X138448000Y-82350000D01*
X138448000Y-82350000D02*
X136798000Y-82350000D01*
X138648000Y-61650000D02*
X136998000Y-61650000D01*
X138648000Y-79550000D02*
X138648000Y-61650000D01*
X133348000Y-79550000D02*
X138648000Y-79550000D01*
X133348000Y-61650000D02*
X133348000Y-79550000D01*
X134998000Y-61650000D02*
X133348000Y-61650000D01*
X136998000Y-61650000D02*
G75*
G02X134998000Y-61650000I-1000000J0D01*
G01*
X84258000Y-64300000D02*
X84258000Y-69760000D01*
X119938000Y-64300000D02*
X84258000Y-64300000D01*
X119938000Y-77220000D02*
X119938000Y-64300000D01*
X84258000Y-77220000D02*
X119938000Y-77220000D01*
X84258000Y-71760000D02*
X84258000Y-77220000D01*
X84258000Y-69760000D02*
G75*
G02X84258000Y-71760000I0J-1000000D01*
G01*
X73148000Y-152670000D02*
X73148000Y-164820000D01*
X85298000Y-151920000D02*
X73898000Y-151920000D01*
X86048000Y-164070000D02*
X86048000Y-152670000D01*
X73148000Y-164820000D02*
X85298000Y-164820000D01*
X85298000Y-164820000D02*
G75*
G03X86048000Y-164070000I0J750000D01*
G01*
X86048000Y-152670000D02*
G75*
G03X85298000Y-151920000I-750000J0D01*
G01*
X73898000Y-151920000D02*
G75*
G03X73148000Y-152670000I0J-750000D01*
G01*
D10*
X75679904Y-143034380D02*
X75679904Y-142034380D01*
X75918000Y-142034380D01*
X76060857Y-142082000D01*
X76156095Y-142177238D01*
X76203714Y-142272476D01*
X76251333Y-142462952D01*
X76251333Y-142605809D01*
X76203714Y-142796285D01*
X76156095Y-142891523D01*
X76060857Y-142986761D01*
X75918000Y-143034380D01*
X75679904Y-143034380D01*
X77203714Y-143034380D02*
X76632285Y-143034380D01*
X76918000Y-143034380D02*
X76918000Y-142034380D01*
X76822761Y-142177238D01*
X76727523Y-142272476D01*
X76632285Y-142320095D01*
X123810380Y-164713333D02*
X124524666Y-164713333D01*
X124667523Y-164760952D01*
X124762761Y-164856190D01*
X124810380Y-164999047D01*
X124810380Y-165094285D01*
X124810380Y-163713333D02*
X124810380Y-164284761D01*
X124810380Y-163999047D02*
X123810380Y-163999047D01*
X123953238Y-164094285D01*
X124048476Y-164189523D01*
X124096095Y-164284761D01*
X138354666Y-144462380D02*
X138354666Y-145176666D01*
X138307047Y-145319523D01*
X138211809Y-145414761D01*
X138068952Y-145462380D01*
X137973714Y-145462380D01*
X138783238Y-144557619D02*
X138830857Y-144510000D01*
X138926095Y-144462380D01*
X139164190Y-144462380D01*
X139259428Y-144510000D01*
X139307047Y-144557619D01*
X139354666Y-144652857D01*
X139354666Y-144748095D01*
X139307047Y-144890952D01*
X138735619Y-145462380D01*
X139354666Y-145462380D01*
X138254666Y-102102380D02*
X138254666Y-102816666D01*
X138207047Y-102959523D01*
X138111809Y-103054761D01*
X137968952Y-103102380D01*
X137873714Y-103102380D01*
X138635619Y-102102380D02*
X139254666Y-102102380D01*
X138921333Y-102483333D01*
X139064190Y-102483333D01*
X139159428Y-102530952D01*
X139207047Y-102578571D01*
X139254666Y-102673809D01*
X139254666Y-102911904D01*
X139207047Y-103007142D01*
X139159428Y-103054761D01*
X139064190Y-103102380D01*
X138778476Y-103102380D01*
X138683238Y-103054761D01*
X138635619Y-103007142D01*
X115110380Y-164613333D02*
X115824666Y-164613333D01*
X115967523Y-164660952D01*
X116062761Y-164756190D01*
X116110380Y-164899047D01*
X116110380Y-164994285D01*
X115443714Y-163708571D02*
X116110380Y-163708571D01*
X115062761Y-163946666D02*
X115777047Y-164184761D01*
X115777047Y-163565714D01*
X118511333Y-114602380D02*
X118178000Y-114126190D01*
X117939904Y-114602380D02*
X117939904Y-113602380D01*
X118320857Y-113602380D01*
X118416095Y-113650000D01*
X118463714Y-113697619D01*
X118511333Y-113792857D01*
X118511333Y-113935714D01*
X118463714Y-114030952D01*
X118416095Y-114078571D01*
X118320857Y-114126190D01*
X117939904Y-114126190D01*
X119463714Y-114602380D02*
X118892285Y-114602380D01*
X119178000Y-114602380D02*
X119178000Y-113602380D01*
X119082761Y-113745238D01*
X118987523Y-113840476D01*
X118892285Y-113888095D01*
X109070380Y-149236666D02*
X108594190Y-149570000D01*
X109070380Y-149808095D02*
X108070380Y-149808095D01*
X108070380Y-149427142D01*
X108118000Y-149331904D01*
X108165619Y-149284285D01*
X108260857Y-149236666D01*
X108403714Y-149236666D01*
X108498952Y-149284285D01*
X108546571Y-149331904D01*
X108594190Y-149427142D01*
X108594190Y-149808095D01*
X108165619Y-148855714D02*
X108118000Y-148808095D01*
X108070380Y-148712857D01*
X108070380Y-148474761D01*
X108118000Y-148379523D01*
X108165619Y-148331904D01*
X108260857Y-148284285D01*
X108356095Y-148284285D01*
X108498952Y-148331904D01*
X109070380Y-148903333D01*
X109070380Y-148284285D01*
X113270380Y-149336666D02*
X112794190Y-149670000D01*
X113270380Y-149908095D02*
X112270380Y-149908095D01*
X112270380Y-149527142D01*
X112318000Y-149431904D01*
X112365619Y-149384285D01*
X112460857Y-149336666D01*
X112603714Y-149336666D01*
X112698952Y-149384285D01*
X112746571Y-149431904D01*
X112794190Y-149527142D01*
X112794190Y-149908095D01*
X112270380Y-149003333D02*
X112270380Y-148384285D01*
X112651333Y-148717619D01*
X112651333Y-148574761D01*
X112698952Y-148479523D01*
X112746571Y-148431904D01*
X112841809Y-148384285D01*
X113079904Y-148384285D01*
X113175142Y-148431904D01*
X113222761Y-148479523D01*
X113270380Y-148574761D01*
X113270380Y-148860476D01*
X113222761Y-148955714D01*
X113175142Y-149003333D01*
X135410380Y-114720666D02*
X134934190Y-115054000D01*
X135410380Y-115292095D02*
X134410380Y-115292095D01*
X134410380Y-114911142D01*
X134458000Y-114815904D01*
X134505619Y-114768285D01*
X134600857Y-114720666D01*
X134743714Y-114720666D01*
X134838952Y-114768285D01*
X134886571Y-114815904D01*
X134934190Y-114911142D01*
X134934190Y-115292095D01*
X134743714Y-113863523D02*
X135410380Y-113863523D01*
X134362761Y-114101619D02*
X135077047Y-114339714D01*
X135077047Y-113720666D01*
X94731333Y-157462380D02*
X94398000Y-156986190D01*
X94159904Y-157462380D02*
X94159904Y-156462380D01*
X94540857Y-156462380D01*
X94636095Y-156510000D01*
X94683714Y-156557619D01*
X94731333Y-156652857D01*
X94731333Y-156795714D01*
X94683714Y-156890952D01*
X94636095Y-156938571D01*
X94540857Y-156986190D01*
X94159904Y-156986190D01*
X95636095Y-156462380D02*
X95159904Y-156462380D01*
X95112285Y-156938571D01*
X95159904Y-156890952D01*
X95255142Y-156843333D01*
X95493238Y-156843333D01*
X95588476Y-156890952D01*
X95636095Y-156938571D01*
X95683714Y-157033809D01*
X95683714Y-157271904D01*
X95636095Y-157367142D01*
X95588476Y-157414761D01*
X95493238Y-157462380D01*
X95255142Y-157462380D01*
X95159904Y-157414761D01*
X95112285Y-157367142D01*
X104504666Y-157884761D02*
X104647523Y-157932380D01*
X104885619Y-157932380D01*
X104980857Y-157884761D01*
X105028476Y-157837142D01*
X105076095Y-157741904D01*
X105076095Y-157646666D01*
X105028476Y-157551428D01*
X104980857Y-157503809D01*
X104885619Y-157456190D01*
X104695142Y-157408571D01*
X104599904Y-157360952D01*
X104552285Y-157313333D01*
X104504666Y-157218095D01*
X104504666Y-157122857D01*
X104552285Y-157027619D01*
X104599904Y-156980000D01*
X104695142Y-156932380D01*
X104933238Y-156932380D01*
X105076095Y-156980000D01*
X105409428Y-156932380D02*
X105647523Y-157932380D01*
X105838000Y-157218095D01*
X106028476Y-157932380D01*
X106266571Y-156932380D01*
X107171333Y-157932380D02*
X106599904Y-157932380D01*
X106885619Y-157932380D02*
X106885619Y-156932380D01*
X106790380Y-157075238D01*
X106695142Y-157170476D01*
X106599904Y-157218095D01*
X82610380Y-96221904D02*
X83419904Y-96221904D01*
X83515142Y-96174285D01*
X83562761Y-96126666D01*
X83610380Y-96031428D01*
X83610380Y-95840952D01*
X83562761Y-95745714D01*
X83515142Y-95698095D01*
X83419904Y-95650476D01*
X82610380Y-95650476D01*
X83610380Y-94650476D02*
X83610380Y-95221904D01*
X83610380Y-94936190D02*
X82610380Y-94936190D01*
X82753238Y-95031428D01*
X82848476Y-95126666D01*
X82896095Y-95221904D01*
X71010380Y-124121904D02*
X71819904Y-124121904D01*
X71915142Y-124074285D01*
X71962761Y-124026666D01*
X72010380Y-123931428D01*
X72010380Y-123740952D01*
X71962761Y-123645714D01*
X71915142Y-123598095D01*
X71819904Y-123550476D01*
X71010380Y-123550476D01*
X71105619Y-123121904D02*
X71058000Y-123074285D01*
X71010380Y-122979047D01*
X71010380Y-122740952D01*
X71058000Y-122645714D01*
X71105619Y-122598095D01*
X71200857Y-122550476D01*
X71296095Y-122550476D01*
X71438952Y-122598095D01*
X72010380Y-123169523D01*
X72010380Y-122550476D01*
X135036095Y-80802380D02*
X135036095Y-81611904D01*
X135083714Y-81707142D01*
X135131333Y-81754761D01*
X135226571Y-81802380D01*
X135417047Y-81802380D01*
X135512285Y-81754761D01*
X135559904Y-81707142D01*
X135607523Y-81611904D01*
X135607523Y-80802380D01*
X135988476Y-80802380D02*
X136607523Y-80802380D01*
X136274190Y-81183333D01*
X136417047Y-81183333D01*
X136512285Y-81230952D01*
X136559904Y-81278571D01*
X136607523Y-81373809D01*
X136607523Y-81611904D01*
X136559904Y-81707142D01*
X136512285Y-81754761D01*
X136417047Y-81802380D01*
X136131333Y-81802380D01*
X136036095Y-81754761D01*
X135988476Y-81707142D01*
X135236095Y-60102380D02*
X135236095Y-60911904D01*
X135283714Y-61007142D01*
X135331333Y-61054761D01*
X135426571Y-61102380D01*
X135617047Y-61102380D01*
X135712285Y-61054761D01*
X135759904Y-61007142D01*
X135807523Y-60911904D01*
X135807523Y-60102380D01*
X136712285Y-60435714D02*
X136712285Y-61102380D01*
X136474190Y-60054761D02*
X136236095Y-60769047D01*
X136855142Y-60769047D01*
X82710380Y-71521904D02*
X83519904Y-71521904D01*
X83615142Y-71474285D01*
X83662761Y-71426666D01*
X83710380Y-71331428D01*
X83710380Y-71140952D01*
X83662761Y-71045714D01*
X83615142Y-70998095D01*
X83519904Y-70950476D01*
X82710380Y-70950476D01*
X82710380Y-69998095D02*
X82710380Y-70474285D01*
X83186571Y-70521904D01*
X83138952Y-70474285D01*
X83091333Y-70379047D01*
X83091333Y-70140952D01*
X83138952Y-70045714D01*
X83186571Y-69998095D01*
X83281809Y-69950476D01*
X83519904Y-69950476D01*
X83615142Y-69998095D01*
X83662761Y-70045714D01*
X83710380Y-70140952D01*
X83710380Y-70379047D01*
X83662761Y-70474285D01*
X83615142Y-70521904D01*
X78836095Y-150372380D02*
X78836095Y-151181904D01*
X78883714Y-151277142D01*
X78931333Y-151324761D01*
X79026571Y-151372380D01*
X79217047Y-151372380D01*
X79312285Y-151324761D01*
X79359904Y-151277142D01*
X79407523Y-151181904D01*
X79407523Y-150372380D01*
X80312285Y-150372380D02*
X80121809Y-150372380D01*
X80026571Y-150420000D01*
X79978952Y-150467619D01*
X79883714Y-150610476D01*
X79836095Y-150800952D01*
X79836095Y-151181904D01*
X79883714Y-151277142D01*
X79931333Y-151324761D01*
X80026571Y-151372380D01*
X80217047Y-151372380D01*
X80312285Y-151324761D01*
X80359904Y-151277142D01*
X80407523Y-151181904D01*
X80407523Y-150943809D01*
X80359904Y-150848571D01*
X80312285Y-150800952D01*
X80217047Y-150753333D01*
X80026571Y-150753333D01*
X79931333Y-150800952D01*
X79883714Y-150848571D01*
X79836095Y-150943809D01*
M02*
