M48
; DRILL file {KiCad 5.1.4} date Sat 28 Sep 2019 19:58:17 BST
; FORMAT={-:-/ absolute / inch / decimal}
; #@! TF.CreationDate,2019-09-28T19:58:17+01:00
; #@! TF.GenerationSoftware,Kicad,Pcbnew,5.1.4
; #@! TF.FileFunction,Plated,1,2,PTH
FMAT,2
INCH
T1C0.0157
T2C0.0315
T3C0.0354
T4C0.0394
T5C0.0433
%
G90
G05
T1
X3.0665Y-4.3969
X3.1472Y-3.2059
X3.1767Y-3.0661
X3.1787Y-3.2925
X3.3539Y-4.9283
X3.4602Y-4.6488
X3.47Y-3.91
X3.5523Y-4.7331
X3.58Y-3.87
X3.59Y-4.23
X3.9287Y-5.4756
X4.0153Y-5.5071
X4.0438Y-5.3438
X4.0586Y-4.6331
X4.1216Y-4.6921
X4.1688Y-5.3801
X4.29Y-4.43
X4.32Y-4.67
X4.32Y-5.08
X4.3696Y-5.3142
X4.38Y-4.4
X4.4247Y-5.5386
X4.5113Y-5.3526
X4.56Y-4.49
X4.61Y-4.37
X4.6335Y-5.0465
X4.7Y-5.075
X4.76Y-4.67
X4.77Y-4.07
X4.81Y-4.02
X4.82Y-4.67
X4.8617Y-3.5189
X4.8617Y-3.5622
X4.8617Y-3.6055
X4.8617Y-3.6488
X4.8617Y-3.6961
X4.91Y-3.74
X4.92Y-3.95
X4.9298Y-5.8902
X5.0111Y-5.9241
X5.0428Y-5.9008
X5.0802Y-5.887
X5.1098Y-5.8575
X5.16Y-4.53
X5.17Y-4.07
X5.3Y-3.76
T2
X5.2043Y-2.4795
X5.2043Y-2.5795
X5.2043Y-2.6795
X5.2043Y-2.7795
X5.2043Y-2.8795
X5.2043Y-2.9795
X5.2043Y-3.0795
X5.5043Y-2.4795
X5.5043Y-2.5795
X5.5043Y-2.6795
X5.5043Y-2.7795
X5.5043Y-2.8795
X5.5043Y-2.9795
X5.5043Y-3.0795
X2.909Y-4.5567
X2.909Y-5.1567
X3.009Y-4.5567
X3.009Y-5.1567
X3.109Y-4.5567
X3.109Y-5.1567
X3.209Y-4.5567
X3.209Y-5.1567
X3.309Y-4.5567
X3.309Y-5.1567
X3.409Y-4.5567
X3.409Y-5.1567
X3.509Y-4.5567
X3.509Y-5.1567
X3.609Y-4.5567
X3.609Y-5.1567
X3.709Y-4.5567
X3.709Y-5.1567
X3.809Y-4.5567
X3.809Y-5.1567
X3.909Y-4.5567
X3.909Y-5.1567
X4.009Y-4.5567
X4.009Y-5.1567
X4.109Y-4.5567
X4.109Y-5.1567
X4.209Y-4.5567
X4.209Y-5.1567
X4.309Y-4.5567
X4.309Y-5.1567
X4.409Y-4.5567
X4.409Y-5.1567
X4.509Y-4.5567
X4.509Y-5.1567
X4.609Y-4.5567
X4.609Y-5.1567
X4.709Y-4.5567
X4.709Y-5.1567
X4.809Y-4.5567
X4.809Y-5.1567
X3.3696Y-2.4858
X3.3696Y-3.0858
X3.4696Y-2.4858
X3.4696Y-3.0858
X3.5696Y-2.4858
X3.5696Y-3.0858
X3.6696Y-2.4858
X3.6696Y-3.0858
X3.7696Y-2.4858
X3.7696Y-3.0858
X3.8696Y-2.4858
X3.8696Y-3.0858
X3.9696Y-2.4858
X3.9696Y-3.0858
X4.0696Y-2.4858
X4.0696Y-3.0858
X4.1696Y-2.4858
X4.1696Y-3.0858
X4.2696Y-2.4858
X4.2696Y-3.0858
X4.3696Y-2.4858
X4.3696Y-3.0858
X4.4696Y-2.4858
X4.4696Y-3.0858
X4.5696Y-2.4858
X4.5696Y-3.0858
X4.6696Y-2.4858
X4.6696Y-3.0858
X5.1964Y-3.2945
X5.1964Y-3.3945
X5.1964Y-3.4945
X5.1964Y-3.5945
X5.1964Y-3.6945
X5.1964Y-3.7945
X5.1964Y-3.8945
X5.4964Y-3.2945
X5.4964Y-3.3945
X5.4964Y-3.4945
X5.4964Y-3.5945
X5.4964Y-3.6945
X5.4964Y-3.7945
X5.4964Y-3.8945
X5.22Y-4.36
X5.22Y-4.66
X3.3657Y-3.4583
X3.3657Y-4.0583
X3.4657Y-3.4583
X3.4657Y-4.0583
X3.5657Y-3.4583
X3.5657Y-4.0583
X3.6657Y-3.4583
X3.6657Y-4.0583
X3.7657Y-3.4583
X3.7657Y-4.0583
X3.8657Y-3.4583
X3.8657Y-4.0583
X3.9657Y-3.4583
X3.9657Y-4.0583
X4.0657Y-3.4583
X4.0657Y-4.0583
X4.1657Y-3.4583
X4.1657Y-4.0583
X4.2657Y-3.4583
X4.2657Y-4.0583
X4.3657Y-3.4583
X4.3657Y-4.0583
X4.4657Y-3.4583
X4.4657Y-4.0583
X4.5657Y-3.4583
X4.5657Y-4.0583
X4.6657Y-3.4583
X4.6657Y-4.0583
X3.5861Y-6.2748
X3.8861Y-6.2748
X4.3696Y-5.7189
X4.3696Y-6.0189
X2.9838Y-6.085
X2.9838Y-6.385
X3.2838Y-6.085
X3.2838Y-6.385
X4.535Y-5.7228
X4.535Y-6.0228
X4.5224Y-4.4008
X4.8224Y-4.4008
T3
X2.9586Y-5.73
X3.0586Y-5.73
T4
X5.4602Y-5.8008
X5.4602Y-5.9008
X5.4602Y-6.0008
X5.4602Y-6.1008
X5.4602Y-6.2008
X5.4602Y-6.3008
X5.4602Y-6.4008
X5.4602Y-6.5008
X4.6452Y-6.4677
X4.7452Y-6.4677
X5.4562Y-4.1331
X5.4562Y-4.2331
X5.4562Y-4.3331
X5.4562Y-4.4331
X5.4562Y-4.5331
X5.4562Y-4.6331
X5.4562Y-4.7331
X5.4562Y-4.8331
X5.4562Y-4.9331
X5.4562Y-5.0331
X5.4562Y-5.1331
X5.4562Y-5.2331
X5.4562Y-5.3331
X5.4562Y-5.4331
X5.4562Y-5.5331
X5.4562Y-5.6331
X4.9877Y-6.4717
X5.0877Y-6.4717
X5.1877Y-6.4717
T5
X4.0389Y-6.2787
X4.0389Y-6.4559
X4.2948Y-6.2787
X4.2948Y-6.4559
T0
M30
